start,end,duration,pitch,velocity,instrument,instr program,midi channel
0.0,0.5,0.5,69,0,shadow,1,1
1.0,1.1166666666666667,0.1166666666666667,55,59,,0,0
1.1166666666666667,1.175,0.05833333333333335,62,31,,0,0
1.2333333333333334,1.2880208333333334,0.0546875,62,47,,0,0
1.34375,1.396875,0.05312499999999998,62,35,,0,0
1.4151041666666666,1.4333333333333333,0.01822916666666674,63,53,,0,0
1.4802083333333333,1.5359375,0.05572916666666661,62,39,,0,0
1.5916666666666666,1.6484375,0.05677083333333344,60,45,,0,0
1.7052083333333332,1.7619791666666667,0.05677083333333344,62,37,,0,0
1.81875,1.8755208333333333,0.056770833333333215,62,49,,0,0
1.9322916666666667,1.9890625,0.056770833333333215,62,34,,0,0
2.0458333333333334,2.1026041666666666,0.056770833333333215,58,45,,0,0
2.1598958333333336,2.216666666666667,0.056770833333333215,62,32,,0,0
2.2734375,2.3901041666666667,0.1166666666666667,55,62,,0,0
2.3901041666666667,2.4484375,0.05833333333333335,62,31,,0,0
2.5067708333333334,2.5619791666666667,0.055208333333333304,62,47,,0,0
2.6177083333333333,2.6729166666666666,0.055208333333333304,62,35,,0,0
2.728125,2.7838541666666665,0.05572916666666661,63,53,,0,0
2.8401041666666664,2.8958333333333335,0.05572916666666705,62,39,,0,0
2.9520833333333334,3.0088541666666666,0.056770833333333215,60,45,,0,0
3.065625,3.1223958333333335,0.05677083333333366,62,37,,0,0
3.1791666666666667,3.2359375,0.056770833333333215,62,49,,0,0
3.2932291666666664,3.35,0.05677083333333366,62,34,,0,0
3.4067708333333333,3.4635416666666665,0.056770833333333215,58,45,,0,0
3.5203125,3.5770833333333334,0.056770833333333215,62,32,,0,0
3.6338541666666666,3.7505208333333333,0.1166666666666667,55,62,,0,0
3.7505208333333333,3.8088541666666664,0.058333333333333126,62,31,,0,0
3.8671875,3.9223958333333333,0.055208333333333304,62,46,,0,0
3.978125,4.033333333333333,0.055208333333333304,62,35,,0,0
4.088541666666666,4.144270833333334,0.05572916666666661,63,50,,0,0
4.200520833333334,4.25625,0.05572916666666661,62,39,,0,0
4.3125,4.36875,0.05624999999999991,60,45,,0,0
4.425520833333334,4.481770833333334,0.056250000000000355,62,37,,0,0
4.538020833333333,4.594791666666667,0.056770833333333215,62,52,,0,0
4.652083333333334,4.763541666666667,0.11145833333333321,62,40,,0,0
4.851041666666666,4.9078125,0.0567708333333341,58,48,,0,0
4.964583333333334,5.021354166666667,0.056770833333333215,62,37,,0,0
5.078125,5.134895833333333,0.056770833333333215,60,57,,0,0
5.191666666666666,5.2484375,0.056770833333333215,62,41,,0,0
5.305208333333333,5.360416666666667,0.05520833333333375,57,49,,0,0
5.416666666666667,5.471875,0.05520833333333286,62,35,,0,0
5.527604166666666,5.5828125,0.05520833333333375,58,53,,0,0
5.638541666666667,5.69375,0.05520833333333286,62,39,,0,0
5.75,5.805729166666667,0.05572916666666661,60,49,,0,0
5.861979166666667,5.917708333333334,0.05572916666666661,62,34,,0,0
5.974479166666667,6.030729166666666,0.05624999999999947,57,51,,0,0
6.0875,6.144270833333334,0.056770833333333215,62,38,,0,0
6.2015625,6.258333333333333,0.056770833333333215,58,48,,0,0
6.315625,6.373958333333333,0.05833333333333357,62,37,,0,0
6.4328125,6.5515625,0.11875000000000036,55,59,,0,0
6.5515625,6.6109375,0.05937500000000018,62,30,,0,0
6.670833333333333,6.725520833333333,0.0546875,62,47,,0,0
6.78125,6.8359375,0.0546875,62,35,,0,0
6.891666666666667,6.947395833333333,0.05572916666666661,63,50,,0,0
7.003125,7.058854166666666,0.05572916666666661,62,36,,0,0
7.114583333333333,7.171354166666666,0.056770833333333215,60,45,,0,0
7.2281249999999995,7.284895833333334,0.0567708333333341,62,31,,0,0
7.341666666666667,7.3984375,0.056770833333333215,62,51,,0,0
7.455208333333333,7.511979166666666,0.056770833333333215,62,36,,0,0
7.569270833333333,7.626041666666667,0.056770833333333215,58,45,,0,0
7.6828125,7.739583333333333,0.056770833333333215,62,33,,0,0
7.796354166666666,7.913020833333333,0.11666666666666714,55,62,,0,0
7.913020833333333,7.971354166666667,0.05833333333333357,62,37,,0,0
8.0296875,8.084375,0.0546875,62,50,,0,0
8.1390625,8.19375,0.0546875,62,35,,0,0
8.248958333333334,8.3046875,0.05572916666666661,63,54,,0,0
8.360937499999999,8.416666666666668,0.055729166666667496,62,39,,0,0
8.472395833333334,8.529166666666667,0.056770833333333215,60,45,,0,0
8.586458333333333,8.643229166666666,0.056770833333333215,62,37,,0,0
8.7,8.756770833333333,0.056770833333333215,62,49,,0,0
8.813541666666666,8.8703125,0.05677083333333499,62,34,,0,0
8.927083333333334,8.983854166666667,0.056770833333333215,58,45,,0,0
9.040625,9.097395833333334,0.056770833333333215,62,32,,0,0
9.1546875,9.271354166666667,0.11666666666666714,55,62,,0,0
9.271354166666667,9.3296875,0.05833333333333357,62,31,,0,0
9.388020833333334,9.443229166666667,0.05520833333333286,62,47,,0,0
9.4984375,9.553645833333333,0.05520833333333286,62,35,,0,0
9.609375,9.665104166666666,0.05572916666666572,63,50,,0,0
9.721354166666666,9.777083333333334,0.055729166666667496,62,39,,0,0
9.833333333333334,9.889583333333333,0.05624999999999858,60,45,,0,0
9.945833333333333,10.002083333333333,0.056250000000000355,62,37,,0,0
10.058854166666666,10.115625,0.056770833333333215,62,52,,0,0
10.172395833333333,10.229166666666666,0.056770833333333215,62,40,,0,0
10.2859375,10.342708333333333,0.056770833333333215,58,48,,0,0
10.399479166666666,10.45625,0.05677083333333499,62,37,,0,0
10.513541666666667,10.5703125,0.056770833333333215,60,57,,0,0
10.627083333333333,10.683854166666666,0.056770833333333215,62,41,,0,0
10.740625,10.795833333333333,0.05520833333333286,57,49,,0,0
10.8515625,10.906770833333333,0.05520833333333286,62,35,,0,0
10.963020833333333,11.018229166666666,0.05520833333333286,58,56,,0,0
11.073958333333334,11.129166666666666,0.05520833333333286,62,43,,0,0
11.184895833333334,11.240625,0.05572916666666572,55,51,,0,0
11.297395833333333,11.353125,0.055729166666667496,62,37,,0,0
11.409895833333334,11.466145833333334,0.056250000000000355,53,56,,0,0
11.522916666666667,11.5796875,0.056770833333333215,62,44,,0,0
11.636458333333334,11.69375,0.057291666666666075,51,53,,0,0
11.752604166666666,11.811979166666667,0.059375000000001066,62,39,,0,0
11.871875,11.989583333333334,0.11770833333333464,50,59,,0,0
11.990104166666667,12.048958333333333,0.05885416666666643,62,31,,0,0
12.108333333333333,12.1625,0.05416666666666714,62,47,,0,0
12.2171875,12.271354166666667,0.05416666666666714,62,35,,0,0
12.3265625,12.382291666666667,0.055729166666667496,63,53,,0,0
12.438020833333333,12.49375,0.055729166666667496,62,39,,0,0
12.549479166666666,12.60625,0.056770833333333215,60,45,,0,0
12.663020833333333,12.719791666666666,0.056770833333333215,62,37,,0,0
12.7765625,12.833333333333334,0.056770833333333215,62,49,,0,0
12.890104166666667,12.946875,0.056770833333333215,62,34,,0,0
13.003645833333334,13.060416666666667,0.056770833333333215,57,45,,0,0
13.117708333333333,13.174479166666666,0.056770833333333215,62,32,,0,0
13.23125,13.347916666666666,0.11666666666666714,50,62,,0,0
13.347916666666666,13.40625,0.05833333333333357,62,31,,0,0
13.464583333333334,13.519270833333334,0.0546875,62,47,,0,0
13.574479166666666,13.629166666666666,0.0546875,62,35,,0,0
13.684375,13.740104166666667,0.055729166666667496,63,53,,0,0
13.796354166666667,13.852083333333333,0.05572916666666572,62,39,,0,0
13.908333333333333,13.965104166666666,0.056770833333333215,60,45,,0,0
14.021875,14.078645833333333,0.056770833333333215,62,37,,0,0
14.135416666666666,14.1921875,0.056770833333333215,62,49,,0,0
14.248958333333333,14.305729166666666,0.056770833333333215,62,34,,0,0
14.363020833333334,14.419791666666667,0.056770833333333215,57,45,,0,0
14.4765625,14.533333333333333,0.056770833333333215,62,32,,0,0
14.590104166666666,14.706770833333334,0.11666666666666714,50,62,,0,0
14.706770833333334,14.765104166666667,0.05833333333333357,62,31,,0,0
14.823437499999999,14.878645833333334,0.055208333333334636,57,47,,0,0
14.934375,14.989583333333334,0.055208333333334636,62,35,,0,0
15.044791666666667,15.100520833333333,0.05572916666666572,60,52,,0,0
15.156770833333333,15.2125,0.055729166666667496,62,39,,0,0
15.268749999999999,15.325,0.056250000000000355,62,51,,0,0
15.381770833333333,15.438020833333333,0.056250000000000355,62,37,,0,0
15.494270833333333,15.551041666666666,0.056770833333333215,63,56,,0,0
15.6078125,15.664583333333333,0.056770833333333215,62,44,,0,0
15.721874999999999,15.778645833333334,0.05677083333333499,65,53,,0,0
15.835416666666667,15.8921875,0.056770833333333215,62,41,,0,0
15.948958333333334,16.00572916666667,0.056770833333333215,62,56,,0,0
16.0625,16.11927083333333,0.056770833333333215,62,48,,0,0
16.176041666666666,16.23125,0.05520833333333286,63,52,,0,0
16.2875,16.342708333333334,0.05520833333333286,62,42,,0,0
16.3984375,16.453645833333333,0.05520833333333286,60,54,,0,0
16.509375,16.56458333333333,0.05520833333333286,62,47,,0,0
16.620833333333334,16.6765625,0.05572916666666572,62,49,,0,0
16.7328125,16.788541666666667,0.05572916666666572,62,41,,0,0
16.8453125,16.9015625,0.05625000000000213,58,51,,0,0
16.958854166666665,17.015625,0.05677083333333499,62,43,,0,0
17.07239583333333,17.129166666666666,0.05677083333333499,57,48,,0,0
17.186979166666667,17.24427083333333,0.0572916666666643,62,37,,0,0
17.302083333333332,17.419791666666665,0.11770833333333286,50,59,,0,0
17.419791666666665,17.47864583333333,0.05885416666666643,62,31,,0,0
17.538020833333334,17.592708333333334,0.0546875,62,47,,0,0
17.6484375,17.703125,0.0546875,62,35,,0,0
17.758854166666666,17.81458333333333,0.05572916666666572,63,53,,0,0
17.8703125,17.926041666666666,0.05572916666666572,62,39,,0,0
17.981770833333332,18.038541666666667,0.05677083333333499,60,45,,0,0
18.0953125,18.152083333333334,0.05677083333333499,62,37,,0,0
18.208854166666665,18.265625,0.05677083333333499,62,49,,0,0
18.32239583333333,18.379166666666666,0.05677083333333499,62,34,,0,0
18.436458333333334,18.493229166666666,0.05677083333333144,57,45,,0,0
18.55,18.606770833333332,0.05677083333333144,62,32,,0,0
18.663541666666667,18.780208333333334,0.11666666666666714,50,62,,0,0
18.780208333333334,18.838541666666668,0.05833333333333357,62,31,,0,0
18.896875,18.952083333333334,0.05520833333333286,62,47,,0,0
19.0078125,19.063020833333333,0.05520833333333286,62,35,,0,0
19.118229166666666,19.17395833333333,0.05572916666666572,63,53,,0,0
19.230208333333334,19.2859375,0.05572916666666572,62,39,,0,0
19.3421875,19.398958333333333,0.05677083333333144,60,45,,0,0
19.455729166666668,19.5125,0.05677083333333144,62,37,,0,0
19.569791666666667,19.6265625,0.05677083333333144,62,49,,0,0
19.683333333333334,19.740104166666665,0.05677083333333144,62,34,,0,0
19.796875,19.85364583333333,0.05677083333333144,57,45,,0,0
19.910416666666666,19.9671875,0.05677083333333499,62,32,,0,0
20.023958333333333,20.140625,0.11666666666666714,50,62,,0,0
20.140625,20.198958333333334,0.05833333333333357,62,31,,0,0
20.257291666666667,20.3125,0.05520833333333286,60,47,,0,0
20.368229166666666,20.4234375,0.05520833333333286,62,35,,0,0
20.479166666666668,20.534895833333334,0.05572916666666572,62,52,,0,0
20.590625,20.646354166666665,0.05572916666666572,62,39,,0,0
20.702604166666667,20.758854166666666,0.05624999999999858,63,51,,0,0
20.815625,20.871875,0.05624999999999858,62,37,,0,0
20.928645833333334,20.985416666666666,0.05677083333333144,65,56,,0,0
21.0421875,21.098958333333332,0.05677083333333144,62,44,,0,0
21.155729166666667,21.2125,0.05677083333333144,62,53,,0,0
21.269270833333334,21.326041666666665,0.05677083333333144,62,41,,0,0
21.3828125,21.43958333333333,0.05677083333333144,63,59,,0,0
21.496354166666666,21.553125,0.05677083333333499,62,48,,0,0
21.610416666666666,21.665625,0.05520833333333286,60,52,,0,0
21.721354166666668,21.7765625,0.05520833333333286,62,42,,0,0
21.832291666666666,21.8875,0.05520833333333286,62,54,,0,0
21.94375,21.998958333333334,0.05520833333333286,62,47,,0,0
22.0546875,22.1109375,0.05624999999999858,58,49,,0,0
22.1671875,22.223958333333332,0.05677083333333144,62,41,,0,0
22.28125,22.338541666666668,0.05729166666666785,60,51,,0,0
22.396875,22.4546875,0.05781249999999716,62,43,,0,0
22.513541666666665,22.57239583333333,0.05885416666666643,57,48,,0,0
22.631770833333334,22.691145833333334,0.05937499999999929,62,37,,0,0
22.75,22.8671875,0.1171875,55,64,,0,0
22.8671875,22.925520833333334,0.05833333333333357,62,34,,0,0
22.8671875,22.925520833333334,0.05833333333333357,74,44,,0,0
22.984375,23.038020833333334,0.05364583333333428,62,51,,0,0
23.092708333333334,23.146354166666665,0.05364583333333073,62,38,,0,0
23.092708333333334,23.146354166666665,0.05364583333333073,74,49,,0,0
23.201041666666665,23.256770833333334,0.05572916666666927,63,58,,0,0
23.3125,23.368229166666666,0.05572916666666572,62,42,,0,0
23.3125,23.368229166666666,0.05572916666666572,74,54,,0,0
23.42395833333333,23.480729166666666,0.05677083333333499,60,49,,0,0
23.5375,23.594270833333333,0.05677083333333144,62,40,,0,0
23.5375,23.594270833333333,0.05677083333333144,74,52,,0,0
23.651041666666668,23.7078125,0.05677083333333144,62,53,,0,0
23.764583333333334,23.821354166666666,0.05677083333333144,62,37,,0,0
23.764583333333334,23.821354166666666,0.05677083333333144,74,48,,0,0
23.878645833333334,23.935416666666665,0.05677083333333144,58,49,,0,0
23.9921875,24.04895833333333,0.05677083333333144,62,35,,0,0
23.9921875,24.04895833333333,0.05677083333333144,74,45,,0,0
24.105729166666666,24.222395833333334,0.11666666666666714,55,68,,0,0
24.222395833333334,24.280729166666667,0.05833333333333357,74,44,,0,0
24.222395833333334,24.280729166666667,0.05833333333333357,62,34,,0,0
24.3390625,24.39270833333333,0.05364583333333073,62,51,,0,0
24.44739583333333,24.501041666666666,0.05364583333333428,62,38,,0,0
24.44739583333333,24.501041666666666,0.05364583333333428,74,49,,0,0
24.555729166666666,24.61145833333333,0.05572916666666572,63,58,,0,0
24.667708333333334,24.7234375,0.05572916666666572,62,42,,0,0
24.667708333333334,24.7234375,0.05572916666666572,74,54,,0,0
24.7796875,24.836458333333333,0.05677083333333144,60,49,,0,0
24.893229166666668,24.95,0.05677083333333144,62,40,,0,0
24.893229166666668,24.95,0.05677083333333144,74,52,,0,0
25.006770833333334,25.063541666666666,0.05677083333333144,62,53,,0,0
25.120833333333334,25.177604166666665,0.05677083333333144,74,48,,0,0
25.120833333333334,25.177604166666665,0.05677083333333144,62,37,,0,0
25.234375,25.29114583333333,0.05677083333333144,58,49,,0,0
25.347916666666666,25.4046875,0.05677083333333499,62,35,,0,0
25.347916666666666,25.4046875,0.05677083333333499,74,45,,0,0
25.461458333333333,25.578125,0.11666666666666714,55,68,,0,0
25.578125,25.636458333333334,0.05833333333333357,62,34,,0,0
25.578125,25.636458333333334,0.05833333333333357,74,44,,0,0
25.694791666666667,25.75,0.05520833333333286,62,51,,0,0
25.805729166666666,25.8609375,0.05520833333333286,62,38,,0,0
25.805729166666666,25.8609375,0.05520833333333286,74,49,,0,0
25.91614583333333,25.971875,0.05572916666666927,63,55,,0,0
26.028125,26.083854166666665,0.05572916666666572,62,42,,0,0
26.028125,26.083854166666665,0.05572916666666572,74,54,,0,0
26.140104166666667,26.196354166666666,0.05624999999999858,60,49,,0,0
26.253125,26.309375,0.05624999999999858,62,40,,0,0
26.253125,26.309375,0.05624999999999858,74,52,,0,0
26.365624999999998,26.422395833333333,0.05677083333333499,62,57,,0,0
26.4796875,26.536458333333332,0.05677083333333144,74,57,,0,0
26.4796875,26.536458333333332,0.05677083333333144,62,44,,0,0
26.593229166666667,26.65,0.05677083333333144,58,52,,0,0
26.706770833333334,26.763541666666665,0.05677083333333144,62,40,,0,0
26.706770833333334,26.763541666666665,0.05677083333333144,74,52,,0,0
26.8203125,26.87708333333333,0.05677083333333144,60,62,,0,0
26.933854166666666,26.990624999999998,0.05677083333333144,62,45,,0,0
26.933854166666666,26.990624999999998,0.05677083333333144,74,58,,0,0
27.047395833333333,27.102604166666666,0.05520833333333286,57,53,,0,0
27.158854166666668,27.2140625,0.05520833333333286,62,38,,0,0
27.158854166666668,27.2140625,0.05520833333333286,74,49,,0,0
27.269791666666666,27.325,0.05520833333333286,58,58,,0,0
27.380729166666665,27.435937499999998,0.05520833333333286,74,54,,0,0
27.380729166666665,27.435937499999998,0.05520833333333286,62,42,,0,0
27.4921875,27.547916666666666,0.05572916666666572,60,53,,0,0
27.604166666666668,27.659895833333334,0.05572916666666572,74,48,,0,0
27.604166666666668,27.659895833333334,0.05572916666666572,62,37,,0,0
27.716666666666665,27.772916666666667,0.05625000000000213,57,56,,0,0
27.83020833333333,27.886979166666666,0.05677083333333499,62,41,,0,0
27.83020833333333,27.886979166666666,0.05677083333333499,74,53,,0,0
27.943749999999998,28.000520833333333,0.05677083333333499,58,52,,0,0
28.058333333333334,28.11875,0.06041666666666501,62,40,,0,0
28.058333333333334,28.11875,0.06041666666666501,74,52,,0,0
28.1796875,28.296354166666667,0.11666666666666714,55,64,,0,0
28.296354166666667,28.3546875,0.05833333333333357,62,34,,0,0
28.296354166666667,28.3546875,0.05833333333333357,74,44,,0,0
28.413020833333334,28.467708333333334,0.0546875,62,51,,0,0
28.5234375,28.578125,0.0546875,74,49,,0,0
28.5234375,28.578125,0.0546875,62,38,,0,0
28.633854166666666,28.68958333333333,0.05572916666666572,63,58,,0,0
28.7453125,28.801041666666666,0.05572916666666572,62,42,,0,0
28.7453125,28.801041666666666,0.05572916666666572,74,54,,0,0
28.856770833333332,28.913541666666667,0.05677083333333499,60,49,,0,0
28.9703125,29.027083333333334,0.05677083333333499,62,40,,0,0
28.9703125,29.027083333333334,0.05677083333333499,74,52,,0,0
29.083854166666665,29.140625,0.05677083333333499,62,53,,0,0
29.19739583333333,29.254166666666666,0.05677083333333499,62,37,,0,0
29.19739583333333,29.254166666666666,0.05677083333333499,74,48,,0,0
29.311458333333334,29.368229166666666,0.05677083333333144,58,49,,0,0
29.425,29.481770833333332,0.05677083333333144,62,35,,0,0
29.425,29.481770833333332,0.05677083333333144,74,45,,0,0
29.538541666666667,29.655208333333334,0.11666666666666714,55,68,,0,0
29.655208333333334,29.713541666666668,0.05833333333333357,62,34,,0,0
29.655208333333334,29.713541666666668,0.05833333333333357,74,44,,0,0
29.771874999999998,29.827083333333334,0.05520833333333641,62,51,,0,0
29.8828125,29.938020833333333,0.05520833333333286,62,38,,0,0
29.8828125,29.938020833333333,0.05520833333333286,74,49,,0,0
29.993229166666666,30.04895833333333,0.05572916666666572,63,58,,0,0
30.105208333333334,30.1609375,0.05572916666666572,62,42,,0,0
30.105208333333334,30.1609375,0.05572916666666572,74,54,,0,0
30.217187499999998,30.273958333333333,0.05677083333333499,60,49,,0,0
30.330729166666668,30.3875,0.05677083333333144,62,40,,0,0
30.330729166666668,30.3875,0.05677083333333144,74,52,,0,0
30.444270833333334,30.501041666666666,0.05677083333333144,62,53,,0,0
30.558333333333334,30.615104166666665,0.05677083333333144,62,37,,0,0
30.558333333333334,30.615104166666665,0.05677083333333144,74,48,,0,0
30.671875,30.72864583333333,0.05677083333333144,58,49,,0,0
30.785416666666666,30.842187499999998,0.05677083333333144,62,35,,0,0
30.785416666666666,30.842187499999998,0.05677083333333144,74,45,,0,0
30.898958333333333,31.015625,0.11666666666666714,55,68,,0,0
31.015625,31.073958333333334,0.05833333333333357,74,44,,0,0
31.015625,31.073958333333334,0.05833333333333357,62,34,,0,0
31.132291666666667,31.1875,0.05520833333333286,62,51,,0,0
31.243229166666666,31.2984375,0.05520833333333286,62,38,,0,0
31.243229166666666,31.2984375,0.05520833333333286,74,49,,0,0
31.354166666666668,31.409895833333334,0.05572916666666572,63,55,,0,0
31.465625,31.521354166666665,0.05572916666666572,62,42,,0,0
31.465625,31.521354166666665,0.05572916666666572,74,54,,0,0
31.577604166666667,31.633854166666666,0.05624999999999858,60,49,,0,0
31.690625,31.746875,0.05624999999999858,62,40,,0,0
31.690625,31.746875,0.05624999999999858,74,52,,0,0
31.803124999999998,31.859895833333333,0.05677083333333499,62,57,,0,0
31.9171875,31.973958333333332,0.05677083333333144,74,57,,0,0
31.9171875,31.973958333333332,0.05677083333333144,62,44,,0,0
32.03072916666667,32.0875,0.05677083333333144,58,52,,0,0
32.14427083333334,32.20104166666667,0.05677083333333144,74,52,,0,0
32.14427083333334,32.20104166666667,0.05677083333333144,62,40,,0,0
32.2578125,32.31458333333333,0.05677083333333144,60,62,,0,0
32.37135416666666,32.428124999999994,0.05677083333333144,62,45,,0,0
32.37135416666666,32.428124999999994,0.05677083333333144,74,58,,0,0
32.485416666666666,32.540104166666666,0.0546875,57,53,,0,0
32.5953125,32.65,0.0546875,62,38,,0,0
32.5953125,32.65,0.0546875,74,49,,0,0
32.70520833333333,32.760416666666664,0.05520833333333286,58,60,,0,0
32.81614583333333,32.87135416666666,0.05520833333333286,62,48,,0,0
32.81614583333333,32.87135416666666,0.05520833333333286,74,62,,0,0
32.927083333333336,32.9828125,0.05572916666666572,55,58,,0,0
33.03958333333333,33.0953125,0.05572916666666572,74,54,,0,0
33.03958333333333,33.0953125,0.05572916666666572,62,42,,0,0
33.15208333333333,33.208333333333336,0.056250000000005684,53,64,,0,0
33.265625,33.322916666666664,0.0572916666666643,62,51,,0,0
33.265625,33.322916666666664,0.0572916666666643,74,66,,0,0
33.38125,33.440104166666664,0.05885416666666288,51,62,,0,0
33.5,33.559895833333336,0.0598958333333357,62,45,,0,0
33.5,33.559895833333336,0.0598958333333357,74,58,,0,0
33.62135416666666,33.73802083333333,0.11666666666666714,38,71,,0,0
33.62135416666666,33.73802083333333,0.11666666666666714,50,84,,0,0
33.73802083333333,33.805729166666666,0.0677083333333357,74,70,,0,0
33.73802083333333,33.805729166666666,0.0677083333333357,78,70,,0,0
33.73802083333333,33.805729166666666,0.0677083333333357,81,83,,0,0
33.73802083333333,33.805729166666666,0.0677083333333357,86,83,,0,0
33.873958333333334,33.928645833333334,0.0546875,62,56,,0,0
33.983333333333334,34.038020833333334,0.0546875,62,42,,0,0
33.983333333333334,34.038020833333334,0.0546875,74,54,,0,0
34.092708333333334,34.1484375,0.05572916666666572,63,63,,0,0
34.204166666666666,34.25989583333333,0.05572916666666572,74,59,,0,0
34.204166666666666,34.25989583333333,0.05572916666666572,62,46,,0,0
34.315625,34.372395833333336,0.056770833333338544,60,54,,0,0
34.42916666666667,34.4859375,0.05677083333333144,62,44,,0,0
34.42916666666667,34.4859375,0.05677083333333144,74,57,,0,0
34.54322916666666,34.6,0.056770833333338544,62,58,,0,0
34.65677083333333,34.713541666666664,0.05677083333333144,62,40,,0,0
34.65677083333333,34.713541666666664,0.05677083333333144,74,52,,0,0
34.7703125,34.827083333333334,0.05677083333333144,57,54,,0,0
34.883854166666666,34.940625,0.05677083333333144,62,38,,0,0
34.883854166666666,34.940625,0.05677083333333144,74,49,,0,0
34.997395833333336,35.1140625,0.11666666666666714,50,88,,0,0
34.997395833333336,35.1140625,0.11666666666666714,38,74,,0,0
35.114583333333336,35.18125,0.06666666666666288,86,85,,0,0
35.114583333333336,35.18125,0.06666666666666288,78,72,,0,0
35.114583333333336,35.18125,0.06666666666666288,74,72,,0,0
35.114583333333336,35.18125,0.06666666666666288,81,85,,0,0
35.2484375,35.303125,0.0546875,62,56,,0,0
35.358333333333334,35.413020833333334,0.0546875,62,42,,0,0
35.358333333333334,35.413020833333334,0.0546875,74,54,,0,0
35.46822916666667,35.52395833333333,0.05572916666666572,63,63,,0,0
35.58020833333333,35.6359375,0.05572916666666572,62,46,,0,0
35.58020833333333,35.6359375,0.05572916666666572,74,59,,0,0
35.69166666666666,35.7484375,0.056770833333338544,60,54,,0,0
35.805729166666666,35.8625,0.05677083333333144,62,44,,0,0
35.805729166666666,35.8625,0.05677083333333144,74,57,,0,0
35.919270833333336,35.97604166666667,0.05677083333333144,62,58,,0,0
36.0328125,36.08958333333333,0.05677083333333144,62,40,,0,0
36.0328125,36.08958333333333,0.05677083333333144,74,52,,0,0
36.14635416666667,36.203125,0.05677083333333144,57,54,,0,0
36.25989583333333,36.31666666666666,0.05677083333333144,62,38,,0,0
36.25989583333333,36.31666666666666,0.05677083333333144,74,49,,0,0
36.373958333333334,36.490625,0.11666666666666714,50,88,,0,0
36.373958333333334,36.490625,0.11666666666666714,38,74,,0,0
36.490625,36.55625,0.06562499999999716,81,83,,0,0
36.490625,36.55625,0.06562499999999716,86,83,,0,0
36.490625,36.55625,0.06562499999999716,74,70,,0,0
36.490625,36.55625,0.06562499999999716,78,70,,0,0
36.622395833333336,36.677083333333336,0.0546875,57,56,,0,0
36.73229166666667,36.78697916666667,0.0546875,62,42,,0,0
36.73229166666667,36.78697916666667,0.0546875,74,54,,0,0
36.8421875,36.89791666666667,0.05572916666666572,60,62,,0,0
36.954166666666666,37.00989583333333,0.05572916666666572,74,59,,0,0
36.954166666666666,37.00989583333333,0.05572916666666572,62,46,,0,0
37.06614583333333,37.122395833333336,0.056250000000005684,62,61,,0,0
37.17916666666667,37.235416666666666,0.05624999999999858,62,44,,0,0
37.17916666666667,37.235416666666666,0.05624999999999858,74,57,,0,0
37.291666666666664,37.3484375,0.056770833333338544,63,67,,0,0
37.40572916666667,37.4625,0.05677083333333144,62,52,,0,0
37.40572916666667,37.4625,0.05677083333333144,74,67,,0,0
37.51927083333333,37.57604166666667,0.056770833333338544,65,63,,0,0
37.6328125,37.68958333333333,0.05677083333333144,62,49,,0,0
37.6328125,37.68958333333333,0.05677083333333144,74,63,,0,0
37.74635416666666,37.803125,0.056770833333338544,62,70,,0,0
37.85989583333333,37.916666666666664,0.05677083333333144,74,70,,0,0
37.85989583333333,37.916666666666664,0.05677083333333144,62,54,,0,0
37.9734375,38.028645833333336,0.05520833333333286,63,62,,0,0
38.084895833333334,38.14010416666667,0.05520833333333286,62,50,,0,0
38.084895833333334,38.14010416666667,0.05520833333333286,74,65,,0,0
38.19583333333333,38.251041666666666,0.05520833333333286,60,64,,0,0
38.30677083333333,38.361979166666664,0.05520833333333286,62,54,,0,0
38.30677083333333,38.361979166666664,0.05520833333333286,74,69,,0,0
38.41822916666666,38.473958333333336,0.055729166666672825,62,58,,0,0
38.53072916666667,38.58645833333333,0.05572916666666572,62,49,,0,0
38.53072916666667,38.58645833333333,0.05572916666666572,74,63,,0,0
38.643229166666664,38.69947916666666,0.05624999999999858,58,61,,0,0
38.75625,38.81302083333333,0.05677083333333144,62,51,,0,0
38.75625,38.81302083333333,0.05677083333333144,74,66,,0,0
38.869791666666664,38.9265625,0.056770833333338544,57,57,,0,0
38.984375,39.041666666666664,0.0572916666666643,62,44,,0,0
38.984375,39.041666666666664,0.0572916666666643,74,57,,0,0
39.09947916666667,39.216145833333336,0.11666666666666714,50,84,,0,0
39.09947916666667,39.216145833333336,0.11666666666666714,38,71,,0,0
39.216145833333336,39.283854166666664,0.0677083333333286,86,83,,0,0
39.216145833333336,39.283854166666664,0.0677083333333286,81,83,,0,0
39.216145833333336,39.283854166666664,0.0677083333333286,74,70,,0,0
39.216145833333336,39.283854166666664,0.0677083333333286,78,70,,0,0
39.352604166666666,39.407291666666666,0.0546875,62,56,,0,0
39.461979166666666,39.516666666666666,0.0546875,62,42,,0,0
39.461979166666666,39.516666666666666,0.0546875,74,54,,0,0
39.571354166666666,39.62708333333333,0.05572916666666572,63,63,,0,0
39.6828125,39.73854166666666,0.05572916666666572,62,46,,0,0
39.6828125,39.73854166666666,0.05572916666666572,74,59,,0,0
39.794270833333336,39.85104166666667,0.05677083333333144,60,54,,0,0
39.9078125,39.96458333333333,0.05677083333333144,74,57,,0,0
39.9078125,39.96458333333333,0.05677083333333144,62,44,,0,0
40.021875,40.07864583333333,0.05677083333333144,62,58,,0,0
40.135416666666664,40.1921875,0.056770833333338544,74,52,,0,0
40.135416666666664,40.1921875,0.056770833333338544,62,40,,0,0
40.248958333333334,40.305729166666666,0.05677083333333144,57,54,,0,0
40.3625,40.419270833333336,0.056770833333338544,62,38,,0,0
40.3625,40.419270833333336,0.056770833333338544,74,49,,0,0
40.47604166666667,40.592708333333334,0.11666666666666714,38,74,,0,0
40.47604166666667,40.592708333333334,0.11666666666666714,50,88,,0,0
40.592708333333334,40.66041666666666,0.0677083333333286,81,85,,0,0
40.592708333333334,40.66041666666666,0.0677083333333286,78,72,,0,0
40.592708333333334,40.66041666666666,0.0677083333333286,74,72,,0,0
40.592708333333334,40.66041666666666,0.0677083333333286,86,85,,0,0
40.72864583333333,40.78333333333333,0.0546875,62,56,,0,0
40.83802083333333,40.89270833333333,0.0546875,74,54,,0,0
40.83802083333333,40.89270833333333,0.0546875,62,42,,0,0
40.947916666666664,41.00364583333333,0.05572916666666572,63,63,,0,0
41.059375,41.11510416666667,0.05572916666666572,62,46,,0,0
41.059375,41.11510416666667,0.05572916666666572,74,59,,0,0
41.17135416666667,41.228125,0.05677083333333144,60,54,,0,0
41.28541666666666,41.3421875,0.056770833333338544,62,44,,0,0
41.28541666666666,41.3421875,0.056770833333338544,74,57,,0,0
41.39895833333333,41.455729166666664,0.05677083333333144,62,58,,0,0
41.5125,41.569270833333334,0.05677083333333144,62,40,,0,0
41.5125,41.569270833333334,0.05677083333333144,74,52,,0,0
41.626041666666666,41.6828125,0.05677083333333144,57,54,,0,0
41.739583333333336,41.79635416666667,0.05677083333333144,62,38,,0,0
41.739583333333336,41.79635416666667,0.05677083333333144,74,49,,0,0
41.853125,41.969791666666666,0.11666666666666714,38,74,,0,0
41.853125,41.969791666666666,0.11666666666666714,50,88,,0,0
41.9703125,42.038020833333334,0.0677083333333357,86,83,,0,0
41.9703125,42.038020833333334,0.0677083333333357,78,70,,0,0
41.9703125,42.038020833333334,0.0677083333333357,74,70,,0,0
41.9703125,42.038020833333334,0.0677083333333357,81,83,,0,0
42.10625,42.161458333333336,0.05520833333333286,57,56,,0,0
42.2171875,42.272395833333334,0.05520833333333286,62,42,,0,0
42.2171875,42.272395833333334,0.05520833333333286,74,54,,0,0
42.32760416666667,42.38333333333333,0.05572916666666572,60,62,,0,0
42.43958333333333,42.4953125,0.05572916666666572,62,46,,0,0
42.43958333333333,42.4953125,0.05572916666666572,74,59,,0,0
42.5515625,42.6078125,0.05624999999999858,62,61,,0,0
42.66458333333333,42.72083333333333,0.05624999999999858,62,44,,0,0
42.66458333333333,42.72083333333333,0.05624999999999858,74,57,,0,0
42.77708333333333,42.83385416666667,0.056770833333338544,63,67,,0,0
42.89114583333333,42.947916666666664,0.05677083333333144,74,64,,0,0
42.89114583333333,42.947916666666664,0.05677083333333144,62,50,,0,0
43.0046875,43.061458333333334,0.05677083333333144,65,63,,0,0
43.118229166666666,43.175,0.05677083333333144,62,49,,0,0
43.118229166666666,43.175,0.05677083333333144,74,63,,0,0
43.231770833333336,43.28854166666667,0.05677083333333144,62,70,,0,0
43.3453125,43.40208333333333,0.05677083333333144,62,54,,0,0
43.3453125,43.40208333333333,0.05677083333333144,74,70,,0,0
43.459375,43.5140625,0.0546875,63,62,,0,0
43.569270833333334,43.623958333333334,0.0546875,62,50,,0,0
43.569270833333334,43.623958333333334,0.0546875,74,65,,0,0
43.6796875,43.735416666666666,0.05572916666666572,60,74,,0,0
43.791666666666664,43.84739583333333,0.05572916666666572,62,56,,0,0
43.791666666666664,43.84739583333333,0.05572916666666572,74,72,,0,0
43.903645833333336,43.96041666666667,0.05677083333333144,62,69,,0,0
44.0171875,44.07447916666666,0.0572916666666643,62,52,,0,0
44.0171875,44.07447916666666,0.0572916666666643,74,67,,0,0
44.13229166666667,44.190104166666664,0.05781249999999716,58,75,,0,0
44.2484375,44.30677083333333,0.05833333333333002,62,60,,0,0
44.2484375,44.30677083333333,0.05833333333333002,74,77,,0,0
44.365625,44.424479166666664,0.05885416666666288,62,70,,0,0
44.484375,44.54375,0.05937500000000284,62,59,,0,0
44.484375,44.54375,0.05937500000000284,74,76,,0,0
44.604166666666664,44.7234375,0.11927083333333854,31,80,,0,0
44.604166666666664,44.7234375,0.11927083333333854,43,95,,0,0
44.723958333333336,44.803125,0.07916666666666572,79,76,,0,0
44.723958333333336,44.803125,0.07916666666666572,82,76,,0,0
44.723958333333336,44.803125,0.07916666666666572,86,76,,0,0
44.723958333333336,44.803125,0.07916666666666572,91,91,,0,0
44.8828125,44.936458333333334,0.05364583333333428,62,70,,0,0
44.991145833333334,45.04479166666667,0.05364583333333428,74,68,,0,0
44.991145833333334,45.04479166666667,0.05364583333333428,62,52,,0,0
45.09947916666667,45.155208333333334,0.05572916666666572,63,78,,0,0
45.2109375,45.266666666666666,0.05572916666666572,62,57,,0,0
45.2109375,45.266666666666666,0.05572916666666572,74,74,,0,0
45.32239583333333,45.37916666666666,0.05677083333333144,60,67,,0,0
45.4359375,45.49270833333333,0.05677083333333144,62,54,,0,0
45.4359375,45.49270833333333,0.05677083333333144,74,70,,0,0
45.549479166666664,45.60625,0.056770833333338544,62,72,,0,0
45.663020833333334,45.719791666666666,0.05677083333333144,62,50,,0,0
45.663020833333334,45.719791666666666,0.05677083333333144,74,65,,0,0
45.7765625,45.833333333333336,0.056770833333338544,58,67,,0,0
45.890625,45.94739583333333,0.05677083333333144,74,60,,0,0
45.890625,45.94739583333333,0.05677083333333144,62,47,,0,0
46.00416666666666,46.12083333333333,0.11666666666666714,43,94,,0,0
46.00416666666666,46.12083333333333,0.11666666666666714,31,79,,0,0
46.12083333333333,46.19947916666666,0.07864583333333286,91,93,,0,0
46.12083333333333,46.19947916666666,0.07864583333333286,82,79,,0,0
46.12083333333333,46.19947916666666,0.07864583333333286,79,79,,0,0
46.12083333333333,46.19947916666666,0.07864583333333286,86,79,,0,0
46.278645833333336,46.3328125,0.05416666666666714,62,70,,0,0
46.3875,46.44166666666666,0.054166666666660035,62,52,,0,0
46.3875,46.44166666666666,0.054166666666660035,74,68,,0,0
46.49635416666666,46.552083333333336,0.055729166666672825,63,78,,0,0
46.6078125,46.66354166666667,0.05572916666666572,62,57,,0,0
46.6078125,46.66354166666667,0.05572916666666572,74,74,,0,0
46.719791666666666,46.7765625,0.05677083333333144,60,67,,0,0
46.83385416666667,46.890625,0.05677083333333144,62,54,,0,0
46.83385416666667,46.890625,0.05677083333333144,74,70,,0,0
46.94739583333333,47.00416666666666,0.05677083333333144,62,72,,0,0
47.0609375,47.11770833333333,0.05677083333333144,74,65,,0,0
47.0609375,47.11770833333333,0.05677083333333144,62,50,,0,0
47.174479166666664,47.23125,0.056770833333338544,58,67,,0,0
47.288020833333334,47.344791666666666,0.05677083333333144,62,47,,0,0
47.288020833333334,47.344791666666666,0.05677083333333144,74,60,,0,0
47.4015625,47.518229166666664,0.11666666666666714,43,93,,0,0
47.4015625,47.518229166666664,0.11666666666666714,31,79,,0,0
47.51875,47.596875,0.078125,86,76,,0,0
47.51875,47.596875,0.078125,91,91,,0,0
47.51875,47.596875,0.078125,79,76,,0,0
47.51875,47.596875,0.078125,82,76,,0,0
47.67552083333333,47.73072916666666,0.05520833333333286,62,67,,0,0
47.786458333333336,47.84166666666667,0.05520833333333286,62,50,,0,0
47.786458333333336,47.84166666666667,0.05520833333333286,74,65,,0,0
47.896875,47.95260416666667,0.05572916666666572,63,74,,0,0
48.008854166666666,48.06458333333333,0.05572916666666572,62,55,,0,0
48.008854166666666,48.06458333333333,0.05572916666666572,74,71,,0,0
48.12083333333333,48.177083333333336,0.056250000000005684,60,73,,0,0
48.23385416666667,48.290104166666666,0.05624999999999858,62,52,,0,0
48.23385416666667,48.290104166666666,0.05624999999999858,74,67,,0,0
48.346354166666664,48.403125,0.056770833333338544,62,80,,0,0
48.459895833333334,48.516666666666666,0.05677083333333144,62,55,,0,0
48.459895833333334,48.516666666666666,0.05677083333333144,74,72,,0,0
48.57395833333333,48.63072916666667,0.056770833333338544,58,75,,0,0
48.6875,48.74427083333333,0.05677083333333144,62,58,,0,0
48.6875,48.74427083333333,0.05677083333333144,74,75,,0,0
48.80104166666666,48.8578125,0.056770833333338544,60,84,,0,0
48.91458333333333,48.971354166666664,0.05677083333333144,62,61,,0,0
48.91458333333333,48.971354166666664,0.05677083333333144,74,79,,0,0
49.028125,49.083333333333336,0.05520833333333286,57,74,,0,0
49.139583333333334,49.19479166666667,0.05520833333333286,74,70,,0,0
49.139583333333334,49.19479166666667,0.05520833333333286,62,54,,0,0
49.25052083333333,49.305729166666666,0.05520833333333286,58,76,,0,0
49.36145833333333,49.416666666666664,0.05520833333333286,62,58,,0,0
49.36145833333333,49.416666666666664,0.05520833333333286,74,75,,0,0
49.47291666666666,49.528645833333336,0.055729166666672825,60,69,,0,0
49.584895833333334,49.640625,0.05572916666666572,62,52,,0,0
49.584895833333334,49.640625,0.05572916666666572,74,67,,0,0
49.69739583333333,49.75364583333333,0.05624999999999858,57,73,,0,0
49.81041666666667,49.8671875,0.05677083333333144,62,54,,0,0
49.81041666666667,49.8671875,0.05677083333333144,74,71,,0,0
49.924479166666664,49.98125,0.056770833333338544,58,68,,0,0
50.03854166666667,50.098958333333336,0.06041666666666856,74,67,,0,0
50.03854166666667,50.098958333333336,0.06041666666666856,62,52,,0,0
50.16041666666666,50.27708333333333,0.11666666666666714,37,81,,0,0
50.16041666666666,50.27708333333333,0.11666666666666714,49,96,,0,0
50.27708333333333,50.36510416666667,0.08802083333333854,87,93,,0,0
50.27708333333333,50.36510416666667,0.08802083333333854,82,79,,0,0
50.27708333333333,50.36510416666667,0.08802083333333854,79,79,,0,0
50.27708333333333,50.36510416666667,0.08802083333333854,91,93,,0,0
50.45364583333333,50.50729166666667,0.05364583333333428,63,70,,0,0
50.56197916666667,50.615625,0.05364583333333428,63,52,,0,0
50.56197916666667,50.615625,0.05364583333333428,75,68,,0,0
50.66979166666667,50.725520833333334,0.05572916666666572,65,74,,0,0
50.78177083333333,50.8375,0.05572916666666572,63,57,,0,0
50.78177083333333,50.8375,0.05572916666666572,75,74,,0,0
50.89375,50.950520833333336,0.056770833333338544,62,67,,0,0
51.0078125,51.06458333333333,0.05677083333333144,63,54,,0,0
51.0078125,51.06458333333333,0.05677083333333144,75,70,,0,0
51.12135416666666,51.178125,0.056770833333338544,63,72,,0,0
51.23489583333333,51.291666666666664,0.05677083333333144,75,65,,0,0
51.23489583333333,51.291666666666664,0.05677083333333144,63,50,,0,0
51.3484375,51.40625,0.05781249999999716,58,67,,0,0
51.4640625,51.521875,0.05781250000000426,63,47,,0,0
51.4640625,51.521875,0.05781250000000426,75,60,,0,0
51.58020833333333,51.696875,0.11666666666666714,49,94,,0,0
51.58020833333333,51.696875,0.11666666666666714,37,79,,0,0
51.696875,51.784375,0.08749999999999858,87,93,,0,0
51.696875,51.784375,0.08749999999999858,82,79,,0,0
51.696875,51.784375,0.08749999999999858,79,79,,0,0
51.696875,51.784375,0.08749999999999858,91,93,,0,0
51.872395833333336,51.92604166666666,0.053645833333327175,63,70,,0,0
51.98072916666666,52.034375,0.05364583333333428,75,68,,0,0
51.98072916666666,52.034375,0.05364583333333428,63,52,,0,0
52.0890625,52.14479166666666,0.05572916666666572,65,75,,0,0
52.20104166666667,52.256770833333334,0.05572916666666572,75,74,,0,0
52.20104166666667,52.256770833333334,0.05572916666666572,63,57,,0,0
52.31302083333333,52.369791666666664,0.05677083333333144,62,67,,0,0
52.426562499999996,52.483333333333334,0.056770833333338544,63,54,,0,0
52.426562499999996,52.483333333333334,0.056770833333338544,75,70,,0,0
52.540104166666666,52.596875,0.05677083333333144,63,72,,0,0
52.653645833333336,52.71041666666667,0.05677083333333144,63,50,,0,0
52.653645833333336,52.71041666666667,0.05677083333333144,75,65,,0,0
52.7671875,52.825520833333336,0.05833333333333712,58,67,,0,0
52.884375,52.942708333333336,0.05833333333333712,63,47,,0,0
52.884375,52.942708333333336,0.05833333333333712,75,60,,0,0
53.0015625,53.118229166666666,0.11666666666666714,49,95,,0,0
53.0015625,53.118229166666666,0.11666666666666714,37,80,,0,0
53.118229166666666,53.2046875,0.08645833333333286,91,93,,0,0
53.118229166666666,53.2046875,0.08645833333333286,82,79,,0,0
53.118229166666666,53.2046875,0.08645833333333286,79,79,,0,0
53.118229166666666,53.2046875,0.08645833333333286,87,93,,0,0
53.291666666666664,53.346875,0.05520833333333286,63,67,,0,0
53.40260416666666,53.457812499999996,0.05520833333333286,63,50,,0,0
53.40260416666666,53.457812499999996,0.05520833333333286,75,65,,0,0
53.513020833333336,53.56875,0.05572916666666572,65,74,,0,0
53.625,53.680729166666666,0.05572916666666572,63,55,,0,0
53.625,53.680729166666666,0.05572916666666572,75,71,,0,0
53.736979166666664,53.793749999999996,0.05677083333333144,62,64,,0,0
53.850520833333334,53.907291666666666,0.05677083333333144,63,52,,0,0
53.850520833333334,53.907291666666666,0.05677083333333144,75,67,,0,0
53.96458333333333,54.02135416666667,0.056770833333338544,63,69,,0,0
54.078125,54.13489583333333,0.05677083333333144,63,48,,0,0
54.078125,54.13489583333333,0.05677083333333144,75,62,,0,0
54.19166666666666,54.2484375,0.056770833333338544,58,64,,0,0
54.30520833333333,54.361979166666664,0.05677083333333144,75,58,,0,0
54.30520833333333,54.361979166666664,0.05677083333333144,63,45,,0,0
54.418749999999996,54.475520833333334,0.056770833333338544,60,84,,0,0
54.5328125,54.58958333333333,0.05677083333333144,63,54,,0,0
54.5328125,54.58958333333333,0.05677083333333144,75,70,,0,0
54.64635416666667,54.7015625,0.05520833333333286,57,70,,0,0
54.75729166666667,54.8125,0.05520833333333286,63,55,,0,0
54.75729166666667,54.8125,0.05520833333333286,75,71,,0,0
54.868229166666666,54.9234375,0.05520833333333286,58,72,,0,0
54.9796875,55.03489583333333,0.05520833333333286,63,55,,0,0
54.9796875,55.03489583333333,0.05520833333333286,75,71,,0,0
55.090624999999996,55.14635416666667,0.055729166666672825,60,69,,0,0
55.203125,55.258854166666666,0.05572916666666572,75,67,,0,0
55.203125,55.258854166666666,0.05572916666666572,63,52,,0,0
55.315625,55.371874999999996,0.05624999999999858,55,73,,0,0
55.428645833333334,55.485416666666666,0.05677083333333144,63,56,,0,0
55.428645833333334,55.485416666666666,0.05677083333333144,75,72,,0,0
55.5421875,55.598958333333336,0.056770833333338544,57,68,,0,0
55.65677083333333,55.7140625,0.0572916666666643,63,52,,0,0
55.65677083333333,55.7140625,0.0572916666666643,75,67,,0,0
55.771875,55.88854166666667,0.11666666666666714,50,92,,0,0
55.771875,55.88854166666667,0.11666666666666714,38,78,,0,0
55.88854166666667,55.978125,0.08958333333333002,86,86,,0,0
55.88854166666667,55.978125,0.08958333333333002,90,86,,0,0
55.88854166666667,55.978125,0.08958333333333002,93,86,,0,0
55.88854166666667,55.978125,0.08958333333333002,98,102,,0,0
56.06822916666667,56.121874999999996,0.053645833333327175,62,73,,0,0
56.17604166666666,56.2296875,0.05364583333333428,62,55,,0,0
56.17604166666666,56.2296875,0.05364583333333428,74,71,,0,0
56.283854166666664,56.33958333333333,0.05572916666666572,63,78,,0,0
56.395312499999996,56.45104166666667,0.055729166666672825,62,58,,0,0
56.395312499999996,56.45104166666667,0.055729166666672825,74,75,,0,0
56.50729166666667,56.5640625,0.05677083333333144,61,70,,0,0
56.62083333333333,56.67760416666667,0.056770833333338544,62,57,,0,0
56.62083333333333,56.67760416666667,0.056770833333338544,74,73,,0,0
56.734375,56.79114583333333,0.05677083333333144,62,75,,0,0
56.84791666666666,56.9046875,0.056770833333338544,62,52,,0,0
56.84791666666666,56.9046875,0.056770833333338544,74,68,,0,0
56.96145833333333,57.018229166666664,0.05677083333333144,57,70,,0,0
57.074999999999996,57.135416666666664,0.06041666666666856,62,49,,0,0
57.074999999999996,57.135416666666664,0.06041666666666856,74,63,,0,0
57.196354166666666,57.31302083333333,0.11666666666666714,49,94,,0,0
57.196354166666666,57.31302083333333,0.11666666666666714,37,79,,0,0
57.31302083333333,57.40260416666666,0.08958333333333002,99,102,,0,0
57.31302083333333,57.40260416666666,0.08958333333333002,94,86,,0,0
57.31302083333333,57.40260416666666,0.08958333333333002,87,86,,0,0
57.31302083333333,57.40260416666666,0.08958333333333002,91,86,,0,0
57.49270833333333,57.54635416666667,0.05364583333333428,63,73,,0,0
57.600520833333334,57.65416666666667,0.05364583333333428,63,55,,0,0
57.600520833333334,57.65416666666667,0.05364583333333428,75,71,,0,0
57.708333333333336,57.7640625,0.05572916666666572,65,82,,0,0
57.8203125,57.876041666666666,0.05572916666666572,63,60,,0,0
57.8203125,57.876041666666666,0.05572916666666572,75,78,,0,0
57.932291666666664,57.989062499999996,0.05677083333333144,62,70,,0,0
58.045833333333334,58.102604166666666,0.05677083333333144,75,73,,0,0
58.045833333333334,58.102604166666666,0.05677083333333144,63,57,,0,0
58.159375,58.216145833333336,0.056770833333338544,63,75,,0,0
58.2734375,58.33020833333333,0.05677083333333144,63,52,,0,0
58.2734375,58.33020833333333,0.05677083333333144,75,68,,0,0
58.38697916666666,58.44375,0.056770833333338544,58,70,,0,0
58.50052083333333,58.55885416666666,0.05833333333333002,63,49,,0,0
58.50052083333333,58.55885416666666,0.05833333333333002,75,63,,0,0
58.618229166666666,58.73489583333333,0.11666666666666714,50,89,,0,0
58.618229166666666,58.73489583333333,0.11666666666666714,38,75,,0,0
58.73489583333333,58.8234375,0.0885416666666643,93,87,,0,0
58.73489583333333,58.8234375,0.0885416666666643,98,103,,0,0
58.73489583333333,58.8234375,0.0885416666666643,86,87,,0,0
58.73489583333333,58.8234375,0.0885416666666643,90,87,,0,0
58.9125,58.966145833333336,0.05364583333333428,62,73,,0,0
59.020312499999996,59.07395833333333,0.05364583333333428,62,55,,0,0
59.020312499999996,59.07395833333333,0.05364583333333428,74,71,,0,0
59.128125,59.18385416666666,0.05572916666666572,63,78,,0,0
59.239583333333336,59.2953125,0.05572916666666572,74,74,,0,0
59.239583333333336,59.2953125,0.05572916666666572,62,57,,0,0
59.35104166666667,59.4078125,0.05677083333333144,61,70,,0,0
59.46510416666666,59.521875,0.056770833333338544,62,57,,0,0
59.46510416666666,59.521875,0.056770833333338544,74,73,,0,0
59.57864583333333,59.635416666666664,0.05677083333333144,62,75,,0,0
59.692187499999996,59.748958333333334,0.056770833333338544,62,52,,0,0
59.692187499999996,59.748958333333334,0.056770833333338544,74,68,,0,0
59.805729166666666,59.8625,0.05677083333333144,57,70,,0,0
59.919270833333336,59.97864583333333,0.05937499999999574,62,49,,0,0
59.919270833333336,59.97864583333333,0.05937499999999574,74,63,,0,0
60.03854166666667,60.155208333333334,0.11666666666666714,49,94,,0,0
60.03854166666667,60.155208333333334,0.11666666666666714,37,79,,0,0
60.155208333333334,60.24270833333333,0.08749999999999858,94,86,,0,0
60.155208333333334,60.24270833333333,0.08749999999999858,91,86,,0,0
60.155208333333334,60.24270833333333,0.08749999999999858,87,86,,0,0
60.155208333333334,60.24270833333333,0.08749999999999858,99,102,,0,0
60.330729166666664,60.38489583333333,0.05416666666666714,63,73,,0,0
60.43958333333333,60.49375,0.05416666666666714,63,55,,0,0
60.43958333333333,60.49375,0.05416666666666714,75,71,,0,0
60.547916666666666,60.60364583333333,0.05572916666666572,65,79,,0,0
60.65989583333333,60.715624999999996,0.05572916666666572,63,60,,0,0
60.65989583333333,60.715624999999996,0.05572916666666572,75,78,,0,0
60.771875,60.82864583333333,0.05677083333333144,62,70,,0,0
60.885416666666664,60.942187499999996,0.05677083333333144,63,57,,0,0
60.885416666666664,60.942187499999996,0.05677083333333144,75,73,,0,0
60.998958333333334,61.055729166666666,0.05677083333333144,63,75,,0,0
61.11302083333333,61.16979166666667,0.056770833333338544,75,68,,0,0
61.11302083333333,61.16979166666667,0.056770833333338544,63,52,,0,0
61.2265625,61.28333333333333,0.05677083333333144,58,70,,0,0
61.34010416666666,61.396875,0.056770833333338544,63,49,,0,0
61.34010416666666,61.396875,0.056770833333338544,75,63,,0,0
61.45364583333333,61.5703125,0.11666666666666714,50,89,,0,0
61.45364583333333,61.5703125,0.11666666666666714,38,75,,0,0
61.5703125,61.660937499999996,0.09062499999999574,93,86,,0,0
61.5703125,61.660937499999996,0.09062499999999574,98,102,,0,0
61.5703125,61.660937499999996,0.09062499999999574,86,86,,0,0
61.5703125,61.660937499999996,0.09062499999999574,90,86,,0,0
61.75208333333333,61.80677083333333,0.0546875,62,73,,0,0
61.8625,61.9171875,0.0546875,62,55,,0,0
61.8625,61.9171875,0.0546875,74,71,,0,0
61.97291666666666,62.028645833333336,0.055729166666672825,63,78,,0,0
62.084375,62.14010416666667,0.05572916666666572,62,60,,0,0
62.084375,62.14010416666667,0.05572916666666572,74,78,,0,0
62.19583333333333,62.252604166666664,0.05677083333333144,61,70,,0,0
62.309374999999996,62.366145833333334,0.056770833333338544,62,57,,0,0
62.309374999999996,62.366145833333334,0.056770833333338544,74,73,,0,0
62.4234375,62.48020833333333,0.05677083333333144,62,75,,0,0
62.53697916666667,62.59375,0.05677083333333144,62,52,,0,0
62.53697916666667,62.59375,0.05677083333333144,74,68,,0,0
62.65052083333333,62.70729166666666,0.05677083333333144,58,70,,0,0
62.7640625,62.82083333333333,0.05677083333333144,62,49,,0,0
62.7640625,62.82083333333333,0.05677083333333144,74,63,,0,0
62.877604166666664,62.99166666666667,0.11406250000000284,60,76,,0,0
62.9921875,63.04895833333333,0.05677083333333144,62,53,,0,0
62.9921875,63.04895833333333,0.05677083333333144,74,68,,0,0
63.106770833333336,63.161458333333336,0.0546875,57,67,,0,0
63.2171875,63.271875,0.0546875,62,50,,0,0
63.2171875,63.271875,0.0546875,74,65,,0,0
63.327083333333334,63.3828125,0.05572916666666572,58,70,,0,0
63.4390625,63.494791666666664,0.05572916666666572,74,66,,0,0
63.4390625,63.494791666666664,0.05572916666666572,62,51,,0,0
63.55052083333333,63.60729166666667,0.056770833333338544,60,64,,0,0
63.6640625,63.72083333333333,0.05677083333333144,62,49,,0,0
63.6640625,63.72083333333333,0.05677083333333144,74,63,,0,0
63.77760416666666,63.832812499999996,0.05520833333333286,57,69,,0,0
63.88854166666667,63.94375,0.05520833333333286,62,50,,0,0
63.88854166666667,63.94375,0.05520833333333286,74,65,,0,0
63.998958333333334,64.0546875,0.05572916666666572,58,64,,0,0
64.1109375,64.16666666666666,0.05572916666666572,62,45,,0,0
64.1109375,64.16666666666666,0.05572916666666572,74,58,,0,0
64.22291666666666,64.33229166666666,0.109375,55,76,,0,0
64.33281249999999,64.38749999999999,0.0546875,74,68,,0,0
64.33281249999999,64.38749999999999,0.0546875,62,53,,0,0
64.44270833333334,64.4984375,0.05572916666666572,57,67,,0,0
64.5546875,64.61041666666667,0.05572916666666572,74,63,,0,0
64.5546875,64.61041666666667,0.05572916666666572,62,49,,0,0
64.66666666666667,64.72135416666667,0.0546875,58,69,,0,0
64.77708333333334,64.83177083333334,0.0546875,62,49,,0,0
64.77708333333334,64.83177083333334,0.0546875,74,63,,0,0
64.88697916666666,64.94270833333333,0.05572916666666572,60,62,,0,0
64.99895833333333,65.0546875,0.05572916666666572,62,48,,0,0
64.99895833333333,65.0546875,0.05572916666666572,74,62,,0,0
65.1109375,65.165625,0.0546875,57,66,,0,0
65.22135416666667,65.27604166666667,0.0546875,62,48,,0,0
65.22135416666667,65.27604166666667,0.0546875,74,62,,0,0
65.33177083333334,65.38697916666666,0.055208333333325754,58,61,,0,0
65.4421875,65.49739583333333,0.055208333333325754,74,55,,0,0
65.4421875,65.49739583333333,0.055208333333325754,62,43,,0,0
65.553125,65.6625,0.109375,55,72,,0,0
65.6625,65.7171875,0.0546875,74,63,,0,0
65.6625,65.7171875,0.0546875,62,49,,0,0
65.771875,65.82760416666666,0.05572916666666572,57,62,,0,0
65.884375,65.94010416666667,0.05572916666666572,62,46,,0,0
65.884375,65.94010416666667,0.05572916666666572,74,59,,0,0
65.996875,66.053125,0.056249999999991473,58,64,,0,0
66.10989583333333,66.16666666666667,0.05677083333334565,62,46,,0,0
66.10989583333333,66.16666666666667,0.05677083333334565,74,59,,0,0
66.22395833333333,66.28125,0.057291666666671404,55,57,,0,0
66.3390625,66.396875,0.05781249999999716,62,43,,0,0
66.3390625,66.396875,0.05781249999999716,74,55,,0,0
66.45572916666667,66.5140625,0.05833333333332291,53,60,,0,0
66.5734375,66.63229166666666,0.05885416666666288,62,44,,0,0
66.5734375,66.63229166666666,0.05885416666666288,74,57,,0,0
66.6921875,66.7515625,0.05937500000000284,51,55,,0,0
66.80989583333333,66.86822916666667,0.05833333333333712,74,49,,0,0
66.80989583333333,66.86822916666667,0.05833333333333712,62,38,,0,0
66.9265625,67.04322916666666,0.11666666666666003,50,74,,0,0
66.9265625,67.04322916666666,0.11666666666666003,38,63,,0,0
67.04375,67.10208333333333,0.05833333333332291,62,58,,0,0
67.04375,67.10208333333333,0.05833333333332291,74,75,,0,0
67.16041666666666,67.21510416666666,0.0546875,62,56,,0,0
67.2703125,67.325,0.0546875,62,42,,0,0
67.38072916666667,67.43645833333333,0.05572916666666572,63,63,,0,0
67.4921875,67.54791666666667,0.05572916666666572,62,46,,0,0
67.60416666666667,67.6609375,0.05677083333333144,60,54,,0,0
67.71770833333333,67.77447916666667,0.05677083333333144,62,44,,0,0
67.83125,67.88802083333333,0.05677083333333144,62,58,,0,0
67.94479166666666,68.0015625,0.05677083333334565,62,40,,0,0
68.05833333333334,68.11510416666667,0.05677083333333144,58,54,,0,0
68.171875,68.22864583333333,0.05677083333333144,62,38,,0,0
68.2859375,68.4,0.11406250000000284,60,64,,0,0
68.4,68.45677083333334,0.05677083333333144,62,45,,0,0
68.51458333333333,68.56927083333333,0.0546875,57,56,,0,0
68.625,68.65208333333334,0.027083333333337123,62,42,,0,0
68.67083333333333,68.70572916666667,0.03489583333333712,58,59,,0,0
68.76145833333334,68.8171875,0.05572916666666572,62,43,,0,0
68.87291666666667,68.9296875,0.05677083333333144,60,54,,0,0
68.98645833333333,69.04322916666666,0.05677083333333144,62,41,,0,0
69.10052083333333,69.15572916666666,0.055208333333325754,57,58,,0,0
69.2109375,69.26614583333333,0.055208333333325754,62,42,,0,0
69.321875,69.37760416666667,0.05572916666666572,58,54,,0,0
69.43385416666666,69.48958333333333,0.05572916666666572,62,38,,0,0
69.54583333333333,69.65520833333333,0.109375,55,64,,0,0
69.65572916666666,69.71041666666666,0.0546875,62,45,,0,0
69.765625,69.82135416666667,0.05572916666666572,57,56,,0,0
69.87708333333333,69.9328125,0.05572916666666572,62,41,,0,0
69.9890625,70.04375,0.0546875,58,58,,0,0
70.09947916666667,70.15416666666667,0.0546875,62,41,,0,0
70.20989583333333,70.265625,0.05572916666666572,60,52,,0,0
70.321875,70.37760416666667,0.05572916666666572,62,40,,0,0
70.43385416666666,70.5203125,0.08645833333333997,57,56,,0,0
70.62916666666666,70.68385416666666,0.0546875,62,40,,0,0
70.73958333333333,70.79479166666667,0.055208333333339965,58,51,,0,0
70.85052083333333,70.90572916666666,0.055208333333325754,62,36,,0,0
70.9609375,71.0703125,0.109375,55,61,,0,0
71.0703125,71.125,0.0546875,62,41,,0,0
71.18020833333333,71.2359375,0.05572916666667993,57,52,,0,0
71.2921875,71.34791666666666,0.05572916666666572,62,39,,0,0
71.4046875,71.4609375,0.056250000000005684,58,54,,0,0
71.51770833333333,71.57395833333334,0.056250000000005684,62,39,,0,0
71.63072916666667,71.6875,0.05677083333333144,55,48,,0,0
71.74479166666667,71.8015625,0.05677083333333144,62,36,,0,0
71.859375,71.91666666666667,0.057291666666671404,53,51,,0,0
71.97447916666667,72.03229166666667,0.05781249999999716,62,37,,0,0
72.090625,72.1484375,0.05781249999999716,51,46,,0,0
72.20729166666666,72.265625,0.05833333333333712,62,32,,0,0
72.440625,72.49895833333333,0.05833333333333712,54,36,,0,0
72.440625,72.49895833333333,0.05833333333333712,57,36,,0,0
72.55729166666667,72.6125,0.055208333333325754,45,45,,0,0
72.66875,72.72395833333333,0.055208333333325754,57,31,,0,0
72.66875,72.72395833333333,0.055208333333325754,54,31,,0,0
72.7796875,72.83541666666666,0.05572916666666572,50,42,,0,0
72.89114583333333,72.946875,0.05572916666667993,57,34,,0,0
72.89114583333333,72.946875,0.05572916666667993,54,34,,0,0
73.00260416666667,73.059375,0.05677083333333144,51,49,,0,0
73.11614583333333,73.17291666666667,0.05677083333333144,57,33,,0,0
73.11614583333333,73.17291666666667,0.05677083333333144,54,33,,0,0
73.23020833333334,73.28541666666666,0.055208333333325754,49,54,,0,0
73.340625,73.3953125,0.0546875,57,35,,0,0
73.340625,73.3953125,0.0546875,54,35,,0,0
73.45052083333333,73.50572916666667,0.055208333333339965,50,51,,0,0
73.56145833333333,73.61666666666666,0.055208333333325754,57,34,,0,0
73.56145833333333,73.61666666666666,0.055208333333325754,54,34,,0,0
72.32395833333334,73.67239583333333,1.3484374999999886,38,45,,0,0
73.7859375,73.84270833333333,0.05677083333333144,55,36,,0,0
73.7859375,73.84270833333333,0.05677083333333144,58,36,,0,0
73.9,73.9546875,0.0546875,45,49,,0,0
74.00989583333333,74.06458333333333,0.0546875,58,31,,0,0
74.00989583333333,74.06458333333333,0.0546875,55,31,,0,0
74.1203125,74.17604166666666,0.05572916666666572,51,51,,0,0
74.23177083333333,74.2875,0.05572916666666572,58,34,,0,0
74.23177083333333,74.2875,0.05572916666666572,55,34,,0,0
74.34322916666666,74.4,0.05677083333334565,53,46,,0,0
74.45729166666666,74.5140625,0.05677083333333144,58,29,,0,0
74.45729166666666,74.5140625,0.05677083333333144,55,29,,0,0
74.57083333333333,74.62760416666667,0.05677083333334565,50,49,,0,0
74.684375,74.74114583333333,0.05677083333333144,55,34,,0,0
74.684375,74.74114583333333,0.05677083333333144,58,34,,0,0
74.79791666666667,74.8546875,0.05677083333333144,51,46,,0,0
74.91145833333333,74.96822916666666,0.05677083333333144,58,31,,0,0
74.91145833333333,74.96822916666666,0.05677083333333144,55,31,,0,0
73.67239583333333,75.025,1.35260416666668,38,56,,0,0
75.1421875,75.20052083333333,0.05833333333332291,57,36,,0,0
75.1421875,75.20052083333333,0.05833333333332291,54,36,,0,0
75.25885416666667,75.31354166666667,0.0546875,45,45,,0,0
75.36927083333333,75.42395833333333,0.0546875,57,31,,0,0
75.36927083333333,75.42395833333333,0.0546875,54,31,,0,0
75.47916666666667,75.53489583333334,0.05572916666666572,50,42,,0,0
75.590625,75.64635416666667,0.05572916666666572,57,34,,0,0
75.590625,75.64635416666667,0.05572916666666572,54,34,,0,0
75.70260416666666,75.759375,0.05677083333334565,51,47,,0,0
75.81614583333334,75.87291666666667,0.05677083333333144,57,33,,0,0
75.81614583333334,75.87291666666667,0.05677083333333144,54,33,,0,0
75.9296875,75.984375,0.0546875,49,52,,0,0
76.04010416666667,76.09479166666667,0.0546875,57,35,,0,0
76.04010416666667,76.09479166666667,0.0546875,54,35,,0,0
76.15,76.20572916666667,0.05572916666666572,50,49,,0,0
76.26197916666666,76.31770833333333,0.05572916666666572,57,34,,0,0
76.26197916666666,76.31770833333333,0.05572916666666572,54,34,,0,0
75.02552083333333,76.37395833333333,1.3484375000000028,38,45,,0,0
76.4875,76.54375,0.056250000000005684,58,36,,0,0
76.4875,76.54375,0.056250000000005684,55,36,,0,0
76.60052083333333,76.65520833333333,0.0546875,45,46,,0,0
76.7109375,76.765625,0.0546875,58,31,,0,0
76.7109375,76.765625,0.0546875,55,31,,0,0
76.82135416666667,76.87708333333333,0.05572916666666572,51,48,,0,0
76.9328125,76.98854166666666,0.05572916666666572,55,34,,0,0
76.9328125,76.98854166666666,0.05572916666666572,58,34,,0,0
77.04427083333333,77.10104166666666,0.05677083333333144,53,45,,0,0
77.1578125,77.21458333333334,0.05677083333333144,58,29,,0,0
77.1578125,77.21458333333334,0.05677083333333144,55,29,,0,0
77.27135416666667,77.32708333333333,0.05572916666666572,50,47,,0,0
77.3828125,77.43854166666667,0.05572916666666572,58,34,,0,0
77.3828125,77.43854166666667,0.05572916666666572,55,34,,0,0
77.49427083333333,77.55052083333334,0.056250000000005684,51,44,,0,0
77.60729166666667,77.66354166666666,0.056249999999991473,58,31,,0,0
77.60729166666667,77.66354166666666,0.056249999999991473,55,31,,0,0
76.37395833333333,77.71979166666667,1.3458333333333314,38,54,,0,0
77.83697916666667,77.8953125,0.05833333333333712,54,36,,0,0
77.83697916666667,77.8953125,0.05833333333333712,57,36,,0,0
77.95364583333333,78.00833333333333,0.0546875,45,45,,0,0
78.06354166666667,78.11822916666667,0.0546875,57,31,,0,0
78.06354166666667,78.11822916666667,0.0546875,54,31,,0,0
78.17395833333333,78.2296875,0.05572916666666572,50,42,,0,0
78.28541666666666,78.34114583333333,0.05572916666666572,57,34,,0,0
78.28541666666666,78.34114583333333,0.05572916666666572,54,34,,0,0
78.39739583333333,78.45416666666667,0.05677083333333144,51,47,,0,0
78.5109375,78.56770833333333,0.05677083333333144,57,33,,0,0
78.5109375,78.56770833333333,0.05677083333333144,54,33,,0,0
78.62447916666666,78.6796875,0.055208333333339965,49,51,,0,0
78.73541666666667,78.790625,0.055208333333339965,57,35,,0,0
78.73541666666667,78.790625,0.055208333333339965,54,35,,0,0
78.846875,78.90260416666666,0.05572916666666572,51,48,,0,0
78.95885416666667,79.01458333333333,0.05572916666666572,57,34,,0,0
78.95885416666667,79.01458333333333,0.05572916666666572,54,34,,0,0
79.07135416666667,79.128125,0.05677083333333144,50,53,,0,0
79.1859375,79.24270833333333,0.05677083333333144,54,36,,0,0
79.1859375,79.24270833333333,0.05677083333333144,57,36,,0,0
79.30052083333334,79.35520833333334,0.0546875,51,46,,0,0
79.41041666666666,79.46510416666666,0.0546875,57,31,,0,0
79.41041666666666,79.46510416666666,0.0546875,54,31,,0,0
79.52083333333333,79.5765625,0.05572916666666572,49,48,,0,0
79.63229166666666,79.68802083333333,0.05572916666666572,57,34,,0,0
79.63229166666666,79.68802083333333,0.05572916666666572,54,34,,0,0
79.74375,79.80052083333334,0.05677083333333144,51,45,,0,0
79.8578125,79.91458333333333,0.05677083333333144,57,29,,0,0
79.8578125,79.91458333333333,0.05677083333333144,54,29,,0,0
79.97135416666667,80.028125,0.05677083333333144,50,45,,0,0
80.08489583333333,80.14166666666667,0.05677083333333144,54,34,,0,0
80.08489583333333,80.14166666666667,0.05677083333333144,57,34,,0,0
80.1984375,80.25520833333333,0.05677083333333144,45,44,,0,0
80.31197916666666,80.36875,0.05677083333334565,54,31,,0,0
80.31197916666666,80.36875,0.05677083333334565,57,31,,0,0
77.71979166666667,80.42552083333334,2.7057291666666714,38,45,,0,0
80.42604166666666,80.4828125,0.05677083333333144,38,45,,0,0
80.53958333333333,80.59635416666667,0.05677083333334565,54,43,,0,0
80.653125,80.70989583333333,0.05677083333333144,54,45,,0,0
80.76666666666667,80.8234375,0.05677083333333144,57,43,,0,0
80.88020833333333,80.93697916666666,0.05677083333333144,57,45,,0,0
80.99375,81.05052083333334,0.05677083333333144,62,42,,0,0
81.1078125,81.16458333333333,0.05677083333333144,62,45,,0,0
81.22135416666667,81.278125,0.05677083333333144,66,42,,0,0
81.33489583333333,81.39166666666667,0.05677083333333144,66,44,,0,0
81.4484375,81.50520833333333,0.05677083333333144,69,41,,0,0
81.56197916666666,81.61875,0.05677083333334565,69,43,,0,0
81.67604166666666,81.7328125,0.05677083333333144,74,41,,0,0
81.78958333333333,81.84635416666667,0.05677083333334565,74,43,,0,0
81.903125,81.95989583333333,0.05677083333333144,78,40,,0,0
82.0171875,82.07395833333334,0.05677083333333144,78,42,,0,0
82.13177083333333,82.1890625,0.057291666666671404,81,40,,0,0
82.246875,82.30416666666666,0.05729166666665719,81,42,,0,0
82.3625,82.4203125,0.05781249999999716,86,39,,0,0
82.47864583333333,82.53697916666667,0.05833333333333712,86,41,,0,0
82.5953125,82.65364583333333,0.05833333333332291,90,39,,0,0
82.71302083333333,82.771875,0.05885416666666288,90,41,,0,0
82.83072916666667,82.89010416666666,0.05937499999998863,93,39,,0,0
82.95,83.00989583333333,0.059895833333328596,93,40,,0,0
83.07083333333333,83.1359375,0.0651041666666714,98,39,,0,0
83.2015625,85.29739583333333,2.0958333333333314,86,43,,0,0
83.2015625,85.29739583333333,2.0958333333333314,90,43,,0,0
83.2015625,85.29739583333333,2.0958333333333314,98,43,,0,0
83.2015625,85.29739583333333,2.0958333333333314,74,34,,0,0
83.2015625,85.29739583333333,2.0958333333333314,81,34,,0,0
86.34583333333333,87.84583333333333,1.5,86,65,,0,0
86.34583333333333,87.84583333333333,1.5,62,55,,0,0
87.84583333333333,88.22083333333333,0.375,84,57,,0,0
87.84583333333333,88.22083333333333,0.375,60,48,,0,0
88.22083333333333,88.59583333333333,0.375,86,57,,0,0
88.22083333333333,88.59583333333333,0.375,62,48,,0,0
89.90833333333333,89.99375,0.08541666666667425,86,54,,0,0
88.59583333333333,89.99375,1.3979166666666742,89,64,,0,0
89.90833333333333,89.99375,0.08541666666667425,62,45,,0,0
88.59583333333333,89.99375,1.3979166666666742,65,54,,0,0
89.99375,90.07916666666667,0.08541666666666003,87,54,,0,0
89.99375,90.07916666666667,0.08541666666666003,63,45,,0,0
90.0796875,90.434375,0.35468749999999716,86,60,,0,0
90.0796875,90.434375,0.35468749999999716,62,51,,0,0
90.43489583333333,90.80260416666667,0.36770833333333997,84,47,,0,0
90.43489583333333,90.80260416666667,0.36770833333333997,60,39,,0,0
90.80260416666667,92.38541666666667,1.5828125000000028,86,55,,0,0
90.80260416666667,92.38541666666667,1.5828125000000028,62,46,,0,0
92.3859375,93.28125,0.8953125000000028,66,34,,0,0
92.3859375,95.809375,3.4234375000000057,57,28,,0,0
92.3859375,95.809375,3.4234375000000057,62,28,,0,0
92.3859375,95.809375,3.4234375000000057,50,26,,0,0
92.3859375,95.809375,3.4234375000000057,38,21,,0,0
93.28177083333333,95.80989583333333,2.528125000000003,69,34,,0,0
93.28177083333333,95.80989583333333,2.528125000000003,66,34,,0,0
95.80989583333333,97.30989583333333,1.5,86,65,,0,0
95.80989583333333,97.30989583333333,1.5,62,55,,0,0
97.30989583333333,97.68489583333333,0.375,84,57,,0,0
97.30989583333333,97.68489583333333,0.375,60,48,,0,0
97.68489583333333,98.05989583333333,0.375,86,57,,0,0
97.68489583333333,98.05989583333333,0.375,62,48,,0,0
99.37239583333333,99.4578125,0.08541666666667425,86,54,,0,0
98.05989583333333,99.4578125,1.3979166666666742,89,64,,0,0
99.37239583333333,99.4578125,0.08541666666667425,62,45,,0,0
98.05989583333333,99.4578125,1.3979166666666742,65,54,,0,0
99.4578125,99.54322916666666,0.08541666666666003,87,54,,0,0
99.4578125,99.54322916666666,0.08541666666666003,63,45,,0,0
99.54375,99.89427083333334,0.3505208333333343,86,60,,0,0
99.54375,99.89427083333334,0.3505208333333343,62,51,,0,0
99.89479166666666,100.2671875,0.3723958333333428,84,47,,0,0
99.89479166666666,100.2671875,0.3723958333333428,60,39,,0,0
100.2671875,101.85625,1.5890624999999972,86,55,,0,0
100.2671875,101.85625,1.5890624999999972,62,46,,0,0
101.85625,102.75833333333333,0.9020833333333229,62,34,,0,0
101.85625,105.30416666666666,3.447916666666657,53,28,,0,0
101.85625,105.30416666666666,3.447916666666657,58,28,,0,0
101.85625,105.30416666666666,3.447916666666657,46,26,,0,0
101.85625,105.30416666666666,3.447916666666657,34,21,,0,0
102.75885416666667,105.3046875,2.5458333333333343,65,34,,0,0
102.75885416666667,105.3046875,2.5458333333333343,62,34,,0,0
105.3046875,106.8046875,1.5,86,62,,0,0
105.3046875,106.8046875,1.5,62,52,,0,0
106.8046875,108.078125,1.2734375,85,56,,0,0
106.8046875,108.078125,1.2734375,61,48,,0,0
108.07864583333333,108.1625,0.08385416666666856,82,48,,0,0
108.07864583333333,108.1625,0.08385416666666856,58,40,,0,0
108.16302083333333,108.246875,0.08385416666666856,84,46,,0,0
108.16302083333333,108.246875,0.08385416666666856,60,39,,0,0
108.24739583333333,108.58229166666666,0.3348958333333343,82,54,,0,0
108.24739583333333,108.58229166666666,0.3348958333333343,58,45,,0,0
108.58229166666666,108.925,0.3427083333333343,81,50,,0,0
108.58229166666666,108.925,0.3427083333333343,57,41,,0,0
108.925,109.2734375,0.34843750000000284,79,52,,0,0
108.925,109.2734375,0.34843750000000284,55,44,,0,0
109.27395833333333,109.64427083333334,0.37031250000001137,82,46,,0,0
109.27395833333333,109.64427083333334,0.37031250000001137,58,38,,0,0
109.64427083333334,111.20468749999999,1.5604166666666544,81,52,,0,0
109.64427083333334,111.20468749999999,1.5604166666666544,57,44,,0,0
111.20520833333333,112.4125,1.2072916666666629,66,41,,0,0
112.4125,115.2296875,2.817187500000003,69,41,,0,0
111.20520833333333,115.2296875,4.024479166666666,57,35,,0,0
111.20520833333333,115.2296875,4.024479166666666,62,35,,0,0
112.4125,115.2296875,2.817187500000003,66,41,,0,0
111.20520833333333,115.2296875,4.024479166666666,38,26,,0,0
111.20520833333333,115.2296875,4.024479166666666,50,31,,0,0
115.23020833333334,116.73020833333334,1.5,86,65,,0,0
115.23020833333334,116.73020833333334,1.5,62,55,,0,0
116.73020833333334,117.0671875,0.3369791666666657,87,65,,0,0
116.73020833333334,117.0671875,0.3369791666666657,63,55,,0,0
117.0671875,117.62135416666666,0.55416666666666,86,57,,0,0
117.0671875,117.62135416666666,0.55416666666666,62,48,,0,0
117.62135416666666,117.96979166666667,0.34843750000000284,85,59,,0,0
117.62135416666666,117.96979166666667,0.34843750000000284,61,50,,0,0
117.97031249999999,118.16354166666666,0.19322916666666856,81,59,,0,0
117.97031249999999,118.16354166666666,0.19322916666666856,57,50,,0,0
118.1640625,118.24739583333333,0.0833333333333286,82,46,,0,0
118.1640625,118.24739583333333,0.0833333333333286,58,39,,0,0
118.24739583333333,118.33072916666667,0.08333333333334281,84,46,,0,0
118.24739583333333,118.33072916666667,0.08333333333334281,60,39,,0,0
118.33125,118.65520833333333,0.3239583333333371,82,53,,0,0
118.33125,118.65520833333333,0.3239583333333371,58,46,,0,0
118.65572916666666,118.9578125,0.3020833333333428,81,52,,0,0
118.65572916666666,118.9578125,0.3020833333333428,57,44,,0,0
118.9578125,119.3125,0.35468749999999716,79,53,,0,0
118.9578125,119.3125,0.35468749999999716,55,45,,0,0
119.31302083333333,119.70468749999999,0.3916666666666657,82,47,,0,0
119.31302083333333,119.70468749999999,0.3916666666666657,58,39,,0,0
119.70520833333333,121.31197916666666,1.6067708333333286,81,52,,0,0
119.70520833333333,121.31197916666666,1.6067708333333286,57,44,,0,0
121.3125,122.51145833333334,1.1989583333333371,67,30,,0,0
121.3125,122.51145833333334,1.1989583333333371,61,25,,0,0
121.3125,122.51145833333334,1.1989583333333371,51,23,,0,0
122.51145833333334,126.44166666666666,3.9302083333333258,66,30,,0,0
122.51145833333334,126.44166666666666,3.9302083333333258,62,30,,0,0
122.51145833333334,126.44166666666666,3.9302083333333258,50,23,,0,0
121.3125,126.4421875,5.129687500000003,57,25,,0,0
126.92604166666666,127.85260416666667,0.9265625000000028,65,36,,0,0
126.92604166666666,127.85260416666667,0.9265625000000028,62,34,,0,0
126.4421875,127.85260416666667,1.4104166666666629,58,41,,0,0
128.2140625,128.42760416666667,0.2135416666666714,66,48,,0,0
128.428125,128.56458333333333,0.13645833333333712,68,50,,0,0
128.56510416666666,132.109375,3.544270833333343,66,57,,0,0
132.109375,134.675,2.5656250000000114,65,53,,0,0
134.67552083333334,135.62708333333333,0.9515624999999943,66,59,,0,0
127.85260416666667,135.85520833333334,8.002604166666671,57,41,,0,0
135.62760416666666,135.85572916666666,0.22812500000000568,75,55,,0,0
128.56510416666666,135.85572916666666,7.290625000000006,59,34,,0,0
128.56510416666666,135.85572916666666,7.290625000000006,63,36,,0,0
136.32604166666667,137.2421875,0.9161458333333314,65,48,,0,0
136.32604166666667,137.2421875,0.9161458333333314,74,48,,0,0
136.32604166666667,137.2421875,0.9161458333333314,62,34,,0,0
135.85572916666666,137.2421875,1.3864583333333371,58,44,,0,0
137.71510416666666,138.1625,0.44739583333333144,73,56,,0,0
138.1625,138.60833333333332,0.44583333333332575,72,54,,0,0
138.1625,138.60833333333332,0.44583333333332575,54,41,,0,0
137.2421875,138.60833333333332,1.36614583333332,57,52,,0,0
137.71510416666666,138.60885416666667,0.8937500000000114,74,63,,0,0
137.71510416666666,138.60885416666667,0.8937500000000114,62,48,,0,0
139.0484375,139.49427083333333,0.44583333333332575,70,56,,0,0
139.49479166666666,139.940625,0.4458333333333542,74,51,,0,0
139.0484375,139.940625,0.8921875000000057,62,51,,0,0
138.60885416666667,139.940625,1.3317708333333371,55,52,,0,0
140.38385416666665,140.83489583333332,0.45104166666666856,69,58,,0,0
140.83489583333332,141.2921875,0.4572916666666913,74,50,,0,0
140.38385416666665,141.2921875,0.9083333333333599,62,52,,0,0
139.940625,141.2921875,1.3515625,53,53,,0,0
141.759375,142.23697916666666,0.4776041666666515,67,58,,0,0
141.2921875,142.78229166666665,1.4901041666666401,58,55,,0,0
142.2375,142.7828125,0.5453124999999943,74,50,,0,0
141.759375,142.7828125,1.0234375,62,51,,0,0
143.3046875,144.34791666666666,1.0432291666666629,67,30,,0,0
143.3046875,144.34791666666666,1.0432291666666629,61,25,,0,0
142.7828125,144.34791666666666,1.5651041666666572,57,39,,0,0
141.2921875,144.34791666666666,3.0557291666666515,51,47,,0,0
145.28802083333332,145.75104166666665,0.46302083333333144,66,45,,0,0
145.28802083333332,145.75104166666665,0.46302083333333144,62,45,,0,0
144.82447916666666,145.75104166666665,0.9265624999999886,57,45,,0,0
144.3484375,145.75104166666665,1.4026041666666629,50,50,,0,0
145.7515625,145.9828125,0.23124999999998863,60,52,,0,0
145.98333333333332,146.21458333333334,0.23125000000001705,62,44,,0,0
146.21510416666666,146.44322916666667,0.22812500000000568,67,41,,0,0
146.21510416666666,146.44322916666667,0.22812500000000568,69,41,,0,0
146.21510416666666,146.44322916666667,0.22812500000000568,63,51,,0,0
146.44322916666667,146.55729166666666,0.11406249999998863,65,55,,0,0
146.55729166666666,146.67135416666667,0.11406250000001705,63,51,,0,0
146.67135416666667,147.02708333333334,0.3557291666666629,67,41,,0,0
146.67135416666667,147.02708333333334,0.3557291666666629,69,41,,0,0
146.67135416666667,147.02708333333334,0.3557291666666629,62,50,,0,0
147.02760416666666,147.2609375,0.2333333333333485,60,50,,0,0
148.20052083333334,148.79114583333333,0.5906249999999886,66,45,,0,0
148.20052083333334,148.79114583333333,0.5906249999999886,62,45,,0,0
147.73697916666666,148.79114583333333,1.0541666666666742,57,50,,0,0
147.2609375,148.79114583333333,1.53020833333332,50,56,,0,0
148.79166666666666,149.10885416666667,0.31718750000001705,60,52,,0,0
149.10885416666667,149.34010416666666,0.23124999999998863,62,44,,0,0
149.340625,149.74895833333332,0.40833333333333144,67,41,,0,0
149.340625,149.74895833333332,0.40833333333333144,69,41,,0,0
149.340625,149.74895833333332,0.40833333333333144,63,51,,0,0
149.74947916666667,150.15208333333334,0.4026041666666629,65,55,,0,0
150.15208333333334,150.26614583333333,0.11406249999998863,63,51,,0,0
150.26614583333333,150.75,0.48385416666667425,67,41,,0,0
150.26614583333333,150.75,0.48385416666667425,69,41,,0,0
150.26614583333333,150.75,0.48385416666667425,62,50,,0,0
150.75052083333333,150.98385416666667,0.2333333333333485,60,50,,0,0
151.96979166666665,152.4546875,0.4848958333333542,66,45,,0,0
151.96979166666665,152.4546875,0.4848958333333542,62,45,,0,0
151.46979166666665,152.4546875,0.9848958333333542,57,50,,0,0
150.98385416666667,152.4546875,1.4708333333333314,50,56,,0,0
152.45520833333333,153.3265625,0.8713541666666629,84,66,,0,0
152.45520833333333,153.3265625,0.8713541666666629,60,61,,0,0
153.32708333333332,153.55833333333334,0.23125000000001705,86,63,,0,0
153.32708333333332,153.55833333333334,0.23125000000001705,62,57,,0,0
153.55885416666666,153.78229166666665,0.22343749999998863,87,67,,0,0
153.55885416666666,153.78229166666665,0.22343749999998863,63,62,,0,0
153.7828125,153.896875,0.11406249999998863,89,65,,0,0
153.7828125,153.896875,0.11406249999998863,65,60,,0,0
153.896875,154.0109375,0.11406250000001705,87,62,,0,0
153.896875,154.0109375,0.11406250000001705,63,56,,0,0
154.0109375,154.2390625,0.22812499999997726,86,66,,0,0
154.0109375,154.2390625,0.22812499999997726,62,61,,0,0
154.2390625,154.47239583333334,0.2333333333333485,84,55,,0,0
154.2390625,154.47239583333334,0.2333333333333485,60,51,,0,0
154.47239583333334,154.6984375,0.22604166666667425,86,65,,0,0
154.47239583333334,154.6984375,0.22604166666667425,62,60,,0,0
154.69895833333334,154.92760416666667,0.22864583333333144,85,54,,0,0
154.69895833333334,154.92760416666667,0.22864583333333144,61,49,,0,0
154.92760416666667,155.15364583333334,0.22604166666667425,81,59,,0,0
154.92760416666667,155.15364583333334,0.22604166666667425,57,54,,0,0
155.15416666666667,155.39010416666667,0.23593750000000568,84,52,,0,0
155.15416666666667,155.39010416666667,0.23593750000000568,60,47,,0,0
188.00416666666666,189.02760416666666,1.0234375,82,54,,0,0
188.00416666666666,189.02760416666666,1.0234375,58,49,,0,0
189.028125,191.26510416666667,2.2369791666666856,81,47,,0,0
189.028125,191.26510416666667,2.2369791666666856,57,44,,0,0
191.26510416666667,198.759375,7.494270833333331,78,52,,0,0
191.26510416666667,198.759375,7.494270833333331,54,47,,0,0
198.75989583333333,199.00052083333333,0.24062499999999432,80,46,,0,0
198.75989583333333,199.00052083333333,0.24062499999999432,56,43,,0,0
199.00104166666665,199.24166666666667,0.24062500000002274,79,51,,0,0
199.00104166666665,199.24166666666667,0.24062500000002274,55,46,,0,0
199.24166666666667,199.52239583333332,0.2807291666666458,75,47,,0,0
199.24166666666667,199.52239583333332,0.2807291666666458,51,44,,0,0
200.47083333333333,200.93385416666666,0.46302083333333144,66,45,,0,0
200.47083333333333,200.93385416666666,0.46302083333333144,62,45,,0,0
200.00729166666667,200.93385416666666,0.9265624999999886,57,51,,0,0
199.52291666666667,200.934375,1.4114583333333144,50,56,,0,0
200.934375,201.165625,0.23125000000001705,62,46,,0,0
201.16614583333333,201.39739583333332,0.23124999999998863,63,39,,0,0
201.39791666666667,201.62604166666665,0.22812499999997726,65,45,,0,0
201.62604166666665,201.74010416666667,0.11406250000001705,67,49,,0,0
201.39791666666667,201.85416666666666,0.45624999999998295,68,36,,0,0
201.39791666666667,201.85416666666666,0.45624999999998295,72,36,,0,0
201.74010416666667,201.85416666666666,0.11406249999998863,65,45,,0,0
201.85416666666666,202.08229166666666,0.22812500000000568,63,45,,0,0
201.85416666666666,202.315625,0.4614583333333542,68,36,,0,0
201.85416666666666,202.315625,0.4614583333333542,72,36,,0,0
202.08229166666666,202.315625,0.2333333333333485,62,45,,0,0
203.25520833333334,203.71822916666667,0.46302083333333144,71,45,,0,0
203.25520833333334,203.71822916666667,0.46302083333333144,67,45,,0,0
202.315625,203.71822916666667,1.4026041666666629,55,56,,0,0
202.7921875,203.71875,0.9265624999999886,62,51,,0,0
203.71875,203.95,0.23124999999998863,62,51,,0,0
203.95052083333334,204.18177083333333,0.23124999999998863,63,46,,0,0
204.18229166666666,204.41041666666666,0.22812500000000568,68,39,,0,0
204.18229166666666,204.41041666666666,0.22812500000000568,72,39,,0,0
204.18229166666666,204.41041666666666,0.22812500000000568,65,50,,0,0
204.41041666666666,204.52447916666665,0.11406249999998863,67,54,,0,0
204.52447916666665,204.63854166666667,0.11406250000001705,65,49,,0,0
204.63854166666667,204.86666666666667,0.22812500000000568,68,39,,0,0
204.63854166666667,204.86666666666667,0.22812500000000568,72,39,,0,0
204.63854166666667,204.86666666666667,0.22812500000000568,63,52,,0,0
204.86666666666667,205.1,0.23333333333332007,62,48,,0,0
206.0859375,206.57083333333333,0.48489583333332575,71,45,,0,0
206.0859375,206.57083333333333,0.48489583333332575,67,45,,0,0
205.5859375,206.57083333333333,0.9848958333333258,62,50,,0,0
205.1,206.57083333333333,1.4708333333333314,55,56,,0,0
206.57135416666665,206.803125,0.2317708333333428,75,67,,0,0
206.80364583333332,207.03541666666666,0.2317708333333428,78,63,,0,0
206.57135416666665,207.03541666666666,0.46406250000001137,67,49,,0,0
206.57135416666665,207.03541666666666,0.46406250000001137,60,49,,0,0
207.0359375,207.2640625,0.22812500000000568,79,66,,0,0
207.2640625,207.37812499999998,0.11406249999998863,74,57,,0,0
207.37812499999998,207.4921875,0.11406250000001705,75,57,,0,0
207.0359375,207.4921875,0.45625000000001137,67,45,,0,0
207.0359375,207.4921875,0.45625000000001137,58,45,,0,0
207.4921875,208.275,0.7828125000000057,72,63,,0,0
208.275,209.35364583333333,1.0786458333333258,74,56,,0,0
207.4921875,209.35416666666666,1.8619791666666572,66,45,,0,0
207.4921875,209.35416666666666,1.8619791666666572,57,45,,0,0
209.35416666666666,209.88854166666667,0.5343750000000114,70,65,,0,0
209.88854166666667,210.12291666666667,0.234375,74,50,,0,0
209.35416666666666,210.12291666666667,0.7687500000000114,62,38,,0,0
209.35416666666666,210.12291666666667,0.7687500000000114,55,45,,0,0
210.12291666666667,210.44895833333334,0.32604166666666856,69,62,,0,0
210.44947916666666,210.80208333333334,0.35260416666667993,74,49,,0,0
210.12291666666667,210.80208333333334,0.6791666666666742,62,30,,0,0
210.12291666666667,210.80208333333334,0.6791666666666742,54,36,,0,0
210.80260416666667,211.03385416666666,0.23124999999998863,70,60,,0,0
211.03385416666666,211.26927083333334,0.23541666666667993,74,49,,0,0
210.80260416666667,211.26927083333334,0.46666666666666856,62,33,,0,0
210.80260416666667,211.26927083333334,0.46666666666666856,55,39,,0,0
211.26927083333334,211.50104166666665,0.23177083333331439,79,56,,0,0
211.50104166666665,211.7328125,0.2317708333333428,81,51,,0,0
211.26927083333334,211.73333333333332,0.46406249999998295,70,50,,0,0
211.26927083333334,211.73333333333332,0.46406249999998295,63,50,,0,0
211.73333333333332,212.17447916666666,0.4411458333333371,82,56,,0,0
212.17499999999998,212.2890625,0.11406250000001705,77,51,,0,0
212.2890625,212.8984375,0.609375,79,51,,0,0
211.73333333333332,212.8984375,1.16510416666668,70,50,,0,0
211.73333333333332,212.8984375,1.16510416666668,62,46,,0,0
212.8984375,215.40416666666667,2.5057291666666686,75,57,,0,0
212.8984375,215.6375,2.7390624999999886,69,51,,0,0
212.8984375,215.6375,2.7390624999999886,60,40,,0,0
215.4046875,215.63802083333334,0.2333333333333485,77,49,,0,0
215.63802083333334,216.93229166666666,1.2942708333333144,74,53,,0,0
216.93281249999998,217.16718749999998,0.234375,77,46,,0,0
215.63802083333334,217.16718749999998,1.5291666666666401,65,37,,0,0
215.63802083333334,217.16718749999998,1.5291666666666401,58,40,,0,0
217.16718749999998,217.90937499999998,0.7421875,73,51,,0,0
217.90989583333334,218.14791666666667,0.23802083333333712,77,44,,0,0
217.16718749999998,218.14791666666667,0.9807291666666913,65,36,,0,0
217.16718749999998,218.14791666666667,0.9807291666666913,57,32,,0,0
218.1484375,218.41927083333334,0.2708333333333428,74,52,,0,0
218.41927083333334,218.65520833333332,0.23593749999997726,77,46,,0,0
218.1484375,218.65520833333332,0.5067708333333201,65,36,,0,0
218.1484375,218.65520833333332,0.5067708333333201,58,33,,0,0
218.65572916666667,219.06562499999998,0.4098958333333087,80,57,,0,0
218.65572916666667,219.06562499999998,0.4098958333333087,56,39,,0,0
219.06562499999998,219.41145833333334,0.34583333333335986,82,50,,0,0
219.06562499999998,219.41145833333334,0.34583333333335986,58,35,,0,0
219.41145833333334,219.63541666666666,0.22395833333331439,84,55,,0,0
219.41145833333334,219.63541666666666,0.22395833333331439,60,38,,0,0
219.63593749999998,219.74895833333332,0.11302083333333712,87,49,,0,0
219.63593749999998,219.74895833333332,0.11302083333333712,63,34,,0,0
219.74895833333332,219.80416666666667,0.055208333333354176,85,46,,0,0
219.74895833333332,219.80416666666667,0.055208333333354176,61,29,,0,0
219.8046875,219.85989583333333,0.055208333333325754,87,47,,0,0
219.8046875,219.85989583333333,0.055208333333325754,63,30,,0,0
219.85989583333333,220.0875,0.22760416666667993,85,55,,0,0
219.85989583333333,220.0875,0.22760416666667993,61,38,,0,0
220.08802083333333,220.32135416666665,0.23333333333332007,84,48,,0,0
220.08802083333333,220.32135416666665,0.23333333333332007,60,33,,0,0
220.321875,220.54791666666665,0.22604166666664582,87,57,,0,0
220.321875,220.54791666666665,0.22604166666664582,63,39,,0,0
220.54791666666665,220.66197916666667,0.11406250000001705,84,49,,0,0
220.54791666666665,220.66197916666667,0.11406250000001705,60,34,,0,0
220.6625,220.71927083333333,0.05677083333333144,82,44,,0,0
220.6625,220.71927083333333,0.05677083333333144,58,29,,0,0
220.71979166666665,220.77656249999998,0.05677083333333144,84,44,,0,0
220.71979166666665,220.77656249999998,0.05677083333333144,60,29,,0,0
220.77708333333334,221.00312499999998,0.22604166666664582,82,55,,0,0
220.77708333333334,221.00312499999998,0.22604166666664582,58,38,,0,0
221.00364583333334,221.41145833333334,0.4078125000000057,81,48,,0,0
221.00364583333334,221.41145833333334,0.4078125000000057,57,33,,0,0
221.41145833333334,221.74427083333333,0.33281249999998863,84,55,,0,0
221.41145833333334,221.74427083333333,0.33281249999998863,60,38,,0,0
221.74427083333333,222.01822916666666,0.27395833333332575,87,48,,0,0
221.74427083333333,222.01822916666666,0.27395833333332575,63,33,,0,0
222.01822916666666,222.25,0.2317708333333428,63,55,,0,0
222.25052083333333,222.48229166666667,0.2317708333333428,65,46,,0,0
222.4828125,222.83854166666666,0.3557291666666629,67,55,,0,0
222.83906249999998,223.30364583333332,0.4645833333333371,69,52,,0,0
223.30364583333332,224.57864583333333,1.2750000000000057,67,49,,0,0
222.01822916666666,224.57864583333333,2.5604166666666686,57,48,,0,0
222.01822916666666,224.57864583333333,2.5604166666666686,48,40,,0,0
224.57864583333333,226.23854166666666,1.6598958333333371,65,53,,0,0
226.2390625,226.47239583333334,0.2333333333333485,63,53,,0,0
224.57864583333333,226.47239583333334,1.8937500000000114,58,36,,0,0
224.57864583333333,226.47239583333334,1.8937500000000114,55,36,,0,0
224.57864583333333,226.47239583333334,1.8937500000000114,49,30,,0,0
227.4125,227.87552083333333,0.46302083333333144,66,45,,0,0
227.4125,227.87552083333333,0.46302083333333144,62,45,,0,0
226.94895833333334,227.87552083333333,0.9265624999999886,57,45,,0,0
226.47291666666666,227.87552083333333,1.4026041666666629,50,50,,0,0
227.87552083333333,228.10677083333334,0.23125000000001705,63,52,,0,0
228.10729166666667,228.33854166666666,0.23124999999998863,65,44,,0,0
228.33906249999998,228.65208333333334,0.3130208333333542,69,41,,0,0
228.33906249999998,228.65208333333334,0.3130208333333542,72,41,,0,0
228.33906249999998,228.65208333333334,0.3130208333333542,67,51,,0,0
228.65260416666666,229.19322916666667,0.5406250000000057,69,55,,0,0
229.19322916666667,229.45260416666667,0.2593750000000057,67,51,,0,0
229.453125,229.74895833333332,0.29583333333332007,69,41,,0,0
229.453125,229.74895833333332,0.29583333333332007,72,41,,0,0
229.453125,229.74895833333332,0.29583333333332007,65,50,,0,0
229.74895833333332,229.98229166666667,0.2333333333333485,63,50,,0,0
229.98229166666667,231.38489583333333,1.4026041666666629,50,56,,0,0
230.92239583333333,231.38541666666666,0.46302083333333144,66,45,,0,0
230.92239583333333,231.38541666666666,0.46302083333333144,62,45,,0,0
230.45885416666667,231.38541666666666,0.9265624999999886,57,50,,0,0
231.38541666666666,231.61666666666667,0.23125000000001705,63,52,,0,0
231.6171875,231.8484375,0.23124999999998863,65,44,,0,0
231.84895833333334,232.07708333333332,0.22812499999997726,69,41,,0,0
231.84895833333334,232.07708333333332,0.22812499999997726,72,41,,0,0
231.84895833333334,232.07708333333332,0.22812499999997726,67,51,,0,0
232.07708333333332,232.19114583333334,0.11406250000001705,69,55,,0,0
232.19114583333334,232.30520833333333,0.11406249999998863,67,51,,0,0
232.30520833333333,232.53333333333333,0.22812500000000568,69,41,,0,0
232.30520833333333,232.53333333333333,0.22812500000000568,72,41,,0,0
232.30520833333333,232.53333333333333,0.22812500000000568,65,50,,0,0
232.53333333333333,232.76666666666665,0.23333333333332007,63,50,,0,0
233.75312499999998,234.23802083333334,0.4848958333333542,66,45,,0,0
233.75312499999998,234.23802083333334,0.4848958333333542,62,45,,0,0
233.25312499999998,234.23802083333334,0.9848958333333542,57,50,,0,0
232.7671875,234.23802083333334,1.4708333333333314,50,56,,0,0
234.23802083333334,234.359375,0.12135416666666288,58,45,,0,0
234.35989583333333,234.4203125,0.06041666666666856,62,23,,0,0
234.35989583333333,234.4203125,0.06041666666666856,65,28,,0,0
234.48177083333334,234.54010416666665,0.0583333333333087,61,40,,0,0
234.59895833333334,234.65729166666665,0.0583333333333087,62,21,,0,0
234.59895833333334,234.65729166666665,0.0583333333333087,65,26,,0,0
234.75416666666666,234.86041666666665,0.10624999999998863,62,42,,0,0
234.91979166666667,234.97864583333333,0.05885416666666288,62,21,,0,0
234.91979166666667,234.97864583333333,0.05885416666666288,65,26,,0,0
235.03854166666667,235.0984375,0.059895833333314386,65,42,,0,0
235.15937499999998,235.21927083333333,0.05989583333334281,62,20,,0,0
235.15937499999998,235.21927083333333,0.05989583333334281,65,26,,0,0
235.2796875,235.33802083333333,0.05833333333333712,61,41,,0,0
235.39739583333332,235.45572916666666,0.05833333333333712,62,21,,0,0
235.39739583333332,235.45572916666666,0.05833333333333712,65,26,,0,0
235.51510416666667,235.57552083333334,0.06041666666666856,62,38,,0,0
235.63697916666666,235.69739583333333,0.06041666666666856,62,18,,0,0
235.63697916666666,235.69739583333333,0.06041666666666856,65,26,,0,0
235.75833333333333,235.87760416666666,0.11927083333333144,53,45,,0,0
235.87812499999998,235.9375,0.05937500000001705,57,23,,0,0
235.87812499999998,235.9375,0.05937500000001705,60,23,,0,0
235.87812499999998,235.9375,0.05937500000001705,65,28,,0,0
235.99791666666667,236.05729166666666,0.05937499999998863,56,40,,0,0
236.11666666666667,236.17604166666666,0.05937499999998863,57,20,,0,0
236.11666666666667,236.17604166666666,0.05937499999998863,65,26,,0,0
236.11666666666667,236.17604166666666,0.05937499999998863,60,22,,0,0
236.40625,236.48333333333332,0.07708333333332007,57,41,,0,0
236.66979166666667,236.75260416666666,0.08281249999998863,57,20,,0,0
236.66979166666667,236.75260416666666,0.08281249999998863,65,26,,0,0
236.66979166666667,236.75260416666666,0.08281249999998863,60,22,,0,0
236.81145833333332,236.87083333333334,0.05937500000001705,60,37,,0,0
236.93020833333333,236.98958333333334,0.05937500000001705,57,19,,0,0
236.93020833333333,236.98958333333334,0.05937500000001705,65,26,,0,0
236.93020833333333,236.98958333333334,0.05937500000001705,60,22,,0,0
237.04947916666666,237.1078125,0.05833333333333712,56,39,,0,0
237.16666666666666,237.225,0.05833333333333712,57,19,,0,0
237.16666666666666,237.225,0.05833333333333712,65,26,,0,0
237.16666666666666,237.225,0.05833333333333712,60,22,,0,0
237.28385416666666,237.34479166666665,0.060937499999994316,57,36,,0,0
237.40572916666667,237.46666666666667,0.060937499999994316,57,17,,0,0
237.40572916666667,237.46666666666667,0.060937499999994316,65,26,,0,0
237.40572916666667,237.46666666666667,0.060937499999994316,60,22,,0,0
237.528125,237.65,0.12187500000001705,51,43,,0,0
237.65,237.7109375,0.060937499999994316,58,22,,0,0
237.65,237.7109375,0.060937499999994316,67,26,,0,0
237.65,237.7109375,0.060937499999994316,61,22,,0,0
237.771875,237.83124999999998,0.05937499999998863,57,37,,0,0
237.89166666666665,237.95104166666667,0.05937500000001705,58,18,,0,0
237.89166666666665,237.95104166666667,0.05937500000001705,67,24,,0,0
237.89166666666665,237.95104166666667,0.05937500000001705,61,20,,0,0
238.01093749999998,238.07083333333333,0.05989583333334281,58,38,,0,0
238.13125,238.19166666666666,0.06041666666666856,58,18,,0,0
238.13125,238.19166666666666,0.06041666666666856,67,24,,0,0
238.13125,238.19166666666666,0.06041666666666856,61,20,,0,0
238.25260416666666,238.31354166666665,0.060937499999994316,55,34,,0,0
238.37552083333333,238.43697916666667,0.06145833333334849,58,17,,0,0
238.37552083333333,238.43697916666667,0.06145833333334849,67,24,,0,0
238.37552083333333,238.43697916666667,0.06145833333334849,61,20,,0,0
238.49895833333332,238.5609375,0.061979166666674246,53,36,,0,0
238.62395833333332,238.68645833333332,0.0625,58,18,,0,0
238.62395833333332,238.68645833333332,0.0625,67,24,,0,0
238.62395833333332,238.68645833333332,0.0625,61,20,,0,0
238.75,238.8171875,0.06718749999998863,51,33,,0,0
238.88541666666666,239.053125,0.16770833333333712,58,15,,0,0
238.88541666666666,239.053125,0.16770833333333712,67,24,,0,0
238.88541666666666,239.053125,0.16770833333333712,61,20,,0,0
239.17708333333334,240.67708333333334,1.5,86,65,,0,0
239.17708333333334,240.67708333333334,1.5,62,55,,0,0
240.67708333333334,241.05208333333334,0.375,84,57,,0,0
240.67708333333334,241.05208333333334,0.375,60,48,,0,0
241.05208333333334,241.42708333333334,0.375,86,57,,0,0
241.05208333333334,241.42708333333334,0.375,62,48,,0,0
242.73958333333334,242.825,0.08541666666664582,86,54,,0,0
241.42708333333334,242.825,1.3979166666666458,89,64,,0,0
242.73958333333334,242.825,0.08541666666664582,62,45,,0,0
241.42708333333334,242.825,1.3979166666666458,65,54,,0,0
242.825,242.91041666666666,0.08541666666667425,87,54,,0,0
242.825,242.91041666666666,0.08541666666667425,63,45,,0,0
242.9109375,243.265625,0.35468750000001137,86,60,,0,0
242.9109375,243.265625,0.35468750000001137,62,51,,0,0
243.26614583333333,243.63385416666665,0.36770833333332575,84,47,,0,0
243.26614583333333,243.63385416666665,0.36770833333332575,60,39,,0,0
243.63385416666665,245.21666666666667,1.582812500000017,86,55,,0,0
243.63385416666665,245.21666666666667,1.582812500000017,62,46,,0,0
245.2171875,246.11249999999998,0.8953124999999886,66,34,,0,0
245.2171875,248.640625,3.4234375000000057,57,28,,0,0
245.2171875,248.640625,3.4234375000000057,62,28,,0,0
245.2171875,248.640625,3.4234375000000057,50,26,,0,0
245.2171875,248.640625,3.4234375000000057,38,21,,0,0
246.11302083333334,248.64114583333333,2.5281249999999886,69,34,,0,0
246.11302083333334,248.64114583333333,2.5281249999999886,66,34,,0,0
248.64114583333333,250.14114583333333,1.5,86,65,,0,0
248.64114583333333,250.14114583333333,1.5,62,55,,0,0
250.14114583333333,250.51614583333333,0.375,84,57,,0,0
250.14114583333333,250.51614583333333,0.375,60,48,,0,0
250.51614583333333,250.89114583333333,0.375,86,57,,0,0
250.51614583333333,250.89114583333333,0.375,62,48,,0,0
252.20364583333333,252.2890625,0.08541666666667425,86,54,,0,0
250.89114583333333,252.2890625,1.3979166666666742,89,64,,0,0
252.20364583333333,252.2890625,0.08541666666667425,62,45,,0,0
250.89114583333333,252.2890625,1.3979166666666742,65,54,,0,0
252.28958333333333,252.375,0.08541666666667425,87,54,,0,0
252.28958333333333,252.375,0.08541666666667425,63,45,,0,0
252.375,252.72552083333332,0.35052083333332007,86,60,,0,0
252.375,252.72552083333332,0.35052083333332007,62,51,,0,0
252.72604166666667,253.0984375,0.3723958333333144,84,47,,0,0
252.72604166666667,253.0984375,0.3723958333333144,60,39,,0,0
253.0984375,254.7640625,1.6656250000000057,86,55,,0,0
253.0984375,254.7640625,1.6656250000000057,62,46,,0,0
254.76458333333332,255.72447916666667,0.9598958333333485,67,30,,0,0
254.76458333333332,255.72447916666667,0.9598958333333485,61,25,,0,0
254.76458333333332,255.72447916666667,0.9598958333333485,51,23,,0,0
255.72447916666667,258.6041666666667,2.879687500000017,66,30,,0,0
255.72447916666667,258.6041666666667,2.879687500000017,62,30,,0,0
254.76458333333332,258.6041666666667,3.8395833333333655,57,25,,0,0
255.72447916666667,258.6041666666667,2.879687500000017,50,23,,0,0
258.6046875,258.7213541666667,0.11666666666667425,55,59,,0,0
258.7213541666667,258.7796875,0.05833333333333712,62,31,,0,0
258.8380208333333,258.8927083333333,0.0546875,62,47,,0,0
258.9484375,259.003125,0.0546875,62,35,,0,0
259.05885416666666,259.1145833333333,0.05572916666665151,63,53,,0,0
259.1703125,259.2260416666667,0.05572916666665151,62,39,,0,0
259.2817708333333,259.3385416666667,0.05677083333335986,60,45,,0,0
259.3953125,259.45208333333335,0.05677083333335986,62,37,,0,0
259.50885416666665,259.565625,0.05677083333335986,62,49,,0,0
259.6223958333333,259.6791666666667,0.05677083333335986,62,34,,0,0
259.7364583333333,259.79322916666666,0.05677083333335986,58,45,,0,0
259.85,259.9067708333333,0.05677083333330302,62,32,,0,0
259.9635416666667,260.0802083333333,0.1166666666666174,55,62,,0,0
260.0802083333333,260.13854166666664,0.05833333333333712,62,31,,0,0
260.196875,260.2520833333333,0.055208333333325754,62,47,,0,0
260.3078125,260.36302083333334,0.055208333333325754,62,35,,0,0
260.41822916666666,260.4739583333333,0.05572916666665151,63,53,,0,0
260.53020833333335,260.5859375,0.05572916666665151,62,39,,0,0
260.6421875,260.69895833333334,0.05677083333335986,60,45,,0,0
260.75572916666664,260.8125,0.05677083333335986,62,37,,0,0
260.8697916666667,260.9265625,0.05677083333330302,62,49,,0,0
260.98333333333335,261.04010416666665,0.05677083333330302,62,34,,0,0
261.096875,261.1536458333333,0.05677083333330302,58,45,,0,0
261.2104166666667,261.2671875,0.05677083333330302,62,32,,0,0
261.32395833333334,261.440625,0.11666666666667425,55,62,,0,0
261.440625,261.49895833333335,0.05833333333333712,62,31,,0,0
261.5578125,261.61302083333334,0.055208333333325754,62,47,,0,0
261.66822916666666,261.7234375,0.055208333333325754,62,35,,0,0
261.77916666666664,261.83489583333335,0.05572916666670835,63,50,,0,0
261.8911458333333,261.946875,0.05572916666665151,62,39,,0,0
262.0026041666667,262.05885416666666,0.05624999999997726,60,45,,0,0
262.115625,262.171875,0.05624999999997726,62,37,,0,0
262.2286458333333,262.28541666666666,0.05677083333335986,62,52,,0,0
262.3421875,262.3989583333333,0.05677083333330302,62,40,,0,0
262.4557291666667,262.5125,0.05677083333330302,58,48,,0,0
262.56927083333335,262.62604166666665,0.05677083333330302,62,37,,0,0
262.6828125,262.7395833333333,0.05677083333330302,60,57,,0,0
262.7963541666667,262.853125,0.05677083333330302,62,41,,0,0
262.91041666666666,262.965625,0.055208333333325754,57,49,,0,0
263.02135416666664,263.0765625,0.0552083333333826,62,35,,0,0
263.1322916666667,263.1875,0.055208333333325754,58,53,,0,0
263.24375,263.2989583333333,0.055208333333325754,62,39,,0,0
263.3546875,263.41041666666666,0.05572916666665151,60,49,,0,0
263.4671875,263.5229166666667,0.05572916666665151,62,34,,0,0
263.5796875,263.6359375,0.056250000000034106,57,51,,0,0
263.6927083333333,263.7494791666667,0.05677083333335986,62,38,,0,0
263.80625,263.86302083333334,0.05677083333335986,58,48,,0,0
263.92083333333335,263.9791666666667,0.05833333333333712,62,37,,0,0
264.0375,264.15625,0.11874999999997726,55,59,,0,0
264.1567708333333,264.2161458333333,0.05937499999998863,62,30,,0,0
264.2755208333333,264.3302083333333,0.0546875,62,47,,0,0
264.3859375,264.440625,0.0546875,62,35,,0,0
264.49635416666666,264.5520833333333,0.05572916666665151,63,50,,0,0
264.6078125,264.6635416666667,0.05572916666665151,62,36,,0,0
264.7192708333333,264.7760416666667,0.05677083333335986,60,45,,0,0
264.8328125,264.88958333333335,0.05677083333335986,62,31,,0,0
264.946875,265.00364583333334,0.05677083333335986,62,51,,0,0
265.06041666666664,265.1171875,0.05677083333335986,62,36,,0,0
265.1739583333333,265.23072916666666,0.05677083333335986,58,45,,0,0
265.2875,265.3442708333333,0.05677083333330302,62,33,,0,0
265.4010416666667,265.5177083333333,0.1166666666666174,55,62,,0,0
265.5177083333333,265.57604166666664,0.05833333333333712,62,37,,0,0
265.6348958333333,265.6895833333333,0.0546875,62,50,,0,0
265.7442708333333,265.7989583333333,0.0546875,62,35,,0,0
265.8536458333333,265.909375,0.05572916666670835,63,54,,0,0
265.965625,266.02135416666664,0.05572916666665151,62,39,,0,0
266.0776041666667,266.134375,0.05677083333330302,60,45,,0,0
266.19114583333334,266.24791666666664,0.05677083333330302,62,37,,0,0
266.3046875,266.3614583333333,0.05677083333330302,62,49,,0,0
266.41822916666666,266.475,0.05677083333335986,62,34,,0,0
266.53229166666665,266.5890625,0.05677083333335986,58,45,,0,0
266.6458333333333,266.7026041666667,0.05677083333335986,62,32,,0,0
266.759375,266.87604166666665,0.11666666666667425,55,62,,0,0
266.87604166666665,266.934375,0.05833333333333712,62,31,,0,0
266.9927083333333,267.04791666666665,0.055208333333325754,62,47,,0,0
267.1036458333333,267.1588541666667,0.0552083333333826,62,35,,0,0
267.2140625,267.26979166666666,0.05572916666665151,63,50,,0,0
267.32604166666664,267.38177083333335,0.05572916666670835,62,39,,0,0
267.4380208333333,267.4942708333333,0.05624999999997726,60,45,,0,0
267.55104166666666,267.60729166666664,0.05624999999997726,62,37,,0,0
267.6635416666667,267.7203125,0.05677083333330302,62,52,,0,0
267.77708333333334,267.83385416666664,0.05677083333330302,62,40,,0,0
267.8911458333333,267.9479166666667,0.05677083333335986,58,48,,0,0
268.0046875,268.06145833333335,0.05677083333335986,62,37,,0,0
268.11822916666665,268.175,0.05677083333335986,60,55,,0,0
268.2317708333333,268.2885416666667,0.05677083333335986,62,41,,0,0
268.3453125,268.4005208333333,0.055208333333325754,57,49,,0,0
268.45677083333334,268.51197916666666,0.055208333333325754,62,35,,0,0
268.5677083333333,268.62291666666664,0.055208333333325754,58,56,,0,0
268.67864583333335,268.7338541666667,0.055208333333325754,62,43,,0,0
268.79010416666665,268.8458333333333,0.05572916666665151,55,51,,0,0
268.90208333333334,268.9578125,0.05572916666665151,62,37,,0,0
269.01458333333335,269.0708333333333,0.05624999999997726,53,56,,0,0
269.1276041666667,269.184375,0.05677083333330302,62,44,,0,0
269.2416666666667,269.2989583333333,0.05729166666662877,51,53,,0,0
269.3578125,269.4171875,0.05937499999998863,62,39,,0,0
269.4765625,269.5942708333333,0.11770833333332575,50,59,,0,0
269.59479166666665,269.6536458333333,0.05885416666666288,62,31,,0,0
269.7130208333333,269.7671875,0.054166666666674246,62,47,,0,0
269.821875,269.87604166666665,0.054166666666674246,62,35,,0,0
269.93125,269.9869791666667,0.05572916666670835,63,53,,0,0
270.04270833333334,270.0984375,0.05572916666665151,62,39,,0,0
270.15416666666664,270.2109375,0.05677083333335986,60,45,,0,0
270.2677083333333,270.32447916666666,0.05677083333335986,62,37,,0,0
270.38177083333335,270.43854166666665,0.05677083333330302,62,49,,0,0
270.4953125,270.5520833333333,0.05677083333330302,62,34,,0,0
270.6088541666667,270.665625,0.05677083333330302,57,45,,0,0
270.72239583333334,270.77916666666664,0.05677083333330302,62,32,,0,0
270.8359375,270.9526041666667,0.11666666666667425,50,62,,0,0
270.9526041666667,271.0109375,0.05833333333333712,62,31,,0,0
271.0697916666667,271.1244791666667,0.0546875,62,47,,0,0
271.1791666666667,271.2338541666667,0.0546875,62,35,,0,0
271.2890625,271.34479166666665,0.05572916666665151,63,53,,0,0
271.4010416666667,271.45677083333334,0.05572916666665151,62,39,,0,0
271.5130208333333,271.5697916666667,0.05677083333335986,60,45,,0,0
271.6270833333333,271.68385416666666,0.05677083333335986,62,37,,0,0
271.740625,271.7973958333333,0.05677083333330302,62,49,,0,0
271.8541666666667,271.9109375,0.05677083333330302,62,34,,0,0
271.96770833333335,272.02447916666665,0.05677083333330302,57,45,,0,0
272.08125,272.1380208333333,0.05677083333330302,62,32,,0,0
272.1947916666667,272.31145833333335,0.11666666666667425,50,62,,0,0
272.3119791666667,272.3703125,0.05833333333333712,62,31,,0,0
272.42864583333335,272.4838541666667,0.055208333333325754,57,47,,0,0
272.5390625,272.5942708333333,0.055208333333325754,62,35,,0,0
272.65,272.7057291666667,0.05572916666670835,60,52,,0,0
272.76197916666666,272.8177083333333,0.05572916666665151,62,39,,0,0
272.87395833333335,272.9302083333333,0.05624999999997726,62,51,,0,0
272.9864583333333,273.04270833333334,0.056250000000034106,62,37,,0,0
273.09947916666664,273.15625,0.05677083333335986,63,56,,0,0
273.2130208333333,273.26979166666666,0.05677083333335986,62,44,,0,0
273.3265625,273.3833333333333,0.05677083333330302,65,53,,0,0
273.4401041666667,273.496875,0.05677083333330302,62,41,,0,0
273.55364583333335,273.61041666666665,0.05677083333330302,62,59,,0,0
273.66770833333334,273.72447916666664,0.05677083333330302,62,48,,0,0
273.78125,273.8364583333333,0.055208333333325754,63,52,,0,0
273.8921875,273.9473958333333,0.055208333333325754,62,42,,0,0
274.003125,274.05833333333334,0.055208333333325754,60,54,,0,0
274.1145833333333,274.16979166666664,0.055208333333325754,62,47,,0,0
274.22552083333335,274.28125,0.05572916666665151,62,49,,0,0
274.3380208333333,274.39375,0.05572916666670835,62,41,,0,0
274.4505208333333,274.50677083333335,0.056250000000034106,58,51,,0,0
274.56354166666665,274.6203125,0.05677083333335986,62,43,,0,0
274.6770833333333,274.7338541666667,0.05677083333335986,57,48,,0,0
274.7916666666667,274.8489583333333,0.05729166666662877,62,37,,0,0
274.9067708333333,275.02447916666665,0.11770833333332575,50,59,,0,0
275.025,275.08385416666664,0.05885416666666288,62,31,,0,0
275.1427083333333,275.1973958333333,0.0546875,62,47,,0,0
275.253125,275.3078125,0.0546875,62,35,,0,0
275.36354166666666,275.4192708333333,0.05572916666665151,63,53,,0,0
275.475,275.5307291666667,0.05572916666665151,62,39,,0,0
275.5864583333333,275.6432291666667,0.05677083333335986,60,45,,0,0
275.7,275.75677083333335,0.05677083333335986,62,37,,0,0
275.8140625,275.87083333333334,0.05677083333335986,62,49,,0,0
275.92760416666664,275.984375,0.05677083333335986,62,34,,0,0
276.0411458333333,276.09791666666666,0.05677083333335986,57,45,,0,0
276.1546875,276.2114583333333,0.05677083333330302,62,32,,0,0
276.2682291666667,276.3848958333333,0.1166666666666174,50,62,,0,0
276.3848958333333,276.44322916666664,0.05833333333333712,62,31,,0,0
276.5020833333333,276.5572916666667,0.0552083333333826,62,47,,0,0
276.6125,276.66770833333334,0.055208333333325754,62,35,,0,0
276.7234375,276.77916666666664,0.05572916666665151,63,53,,0,0
276.8354166666667,276.8911458333333,0.05572916666665151,62,39,,0,0
276.9473958333333,277.00416666666666,0.05677083333335986,60,45,,0,0
277.0609375,277.1177083333333,0.05677083333330302,62,37,,0,0
277.1744791666667,277.23125,0.05677083333330302,62,49,,0,0
277.28802083333335,277.34479166666665,0.05677083333330302,62,34,,0,0
277.4015625,277.4583333333333,0.05677083333330302,57,45,,0,0
277.5151041666667,277.571875,0.05677083333330302,62,32,,0,0
277.62916666666666,277.74583333333334,0.11666666666667425,50,62,,0,0
277.74583333333334,277.8041666666667,0.05833333333333712,62,31,,0,0
277.8625,277.91770833333334,0.055208333333325754,60,47,,0,0
277.97291666666666,278.028125,0.055208333333325754,62,35,,0,0
278.08385416666664,278.13958333333335,0.05572916666670835,62,52,,0,0
278.1958333333333,278.2515625,0.05572916666665151,62,39,,0,0
278.3078125,278.3640625,0.05624999999997726,63,51,,0,0
278.4203125,278.4765625,0.05624999999997726,62,37,,0,0
278.5333333333333,278.59010416666666,0.05677083333335986,65,56,,0,0
278.646875,278.7036458333333,0.05677083333330302,62,44,,0,0
278.7604166666667,278.8171875,0.05677083333330302,62,53,,0,0
278.87395833333335,278.93072916666665,0.05677083333330302,62,41,,0,0
278.98802083333334,279.04479166666664,0.05677083333330302,63,59,,0,0
279.1015625,279.1583333333333,0.05677083333330302,62,48,,0,0
279.21510416666666,279.2703125,0.055208333333325754,60,52,,0,0
279.32604166666664,279.38125,0.0552083333333826,62,42,,0,0
279.4375,279.4927083333333,0.055208333333325754,62,54,,0,0
279.5484375,279.6036458333333,0.055208333333325754,62,47,,0,0
279.659375,279.715625,0.05624999999997726,58,49,,0,0
279.77239583333335,279.82916666666665,0.05677083333330302,62,41,,0,0
279.88645833333334,279.94375,0.057291666666685614,60,51,,0,0
280.0015625,280.059375,0.05781250000001137,62,43,,0,0
280.11875,280.17760416666664,0.05885416666666288,57,48,,0,0
280.2364583333333,280.29583333333335,0.059375000000045475,62,37,,0,0
280.3546875,280.4713541666667,0.11666666666667425,55,64,,0,0
280.471875,280.53020833333335,0.05833333333333712,62,34,,0,0
280.471875,280.53020833333335,0.05833333333333712,74,44,,0,0
280.5890625,280.6427083333333,0.05364583333329165,62,51,,0,0
280.6973958333333,280.75104166666665,0.05364583333334849,62,38,,0,0
280.6973958333333,280.75104166666665,0.05364583333334849,74,49,,0,0
280.80572916666665,280.8614583333333,0.05572916666665151,63,58,,0,0
280.9171875,280.97291666666666,0.05572916666665151,62,42,,0,0
280.9171875,280.97291666666666,0.05572916666665151,74,54,,0,0
281.0286458333333,281.0854166666667,0.05677083333335986,60,49,,0,0
281.1421875,281.19895833333334,0.05677083333335986,62,40,,0,0
281.1421875,281.19895833333334,0.05677083333335986,74,52,,0,0
281.25625,281.3130208333333,0.05677083333330302,62,53,,0,0
281.3697916666667,281.4265625,0.05677083333330302,62,37,,0,0
281.3697916666667,281.4265625,0.05677083333330302,74,48,,0,0
281.48333333333335,281.54010416666665,0.05677083333330302,58,49,,0,0
281.596875,281.6536458333333,0.05677083333330302,62,35,,0,0
281.596875,281.6536458333333,0.05677083333330302,74,45,,0,0
281.7104166666667,281.82708333333335,0.11666666666667425,55,68,,0,0
281.8276041666667,281.8859375,0.05833333333333712,62,34,,0,0
281.8276041666667,281.8859375,0.05833333333333712,74,44,,0,0
281.94427083333335,281.99791666666664,0.05364583333329165,62,51,,0,0
282.05260416666664,282.10625,0.05364583333334849,62,38,,0,0
282.05260416666664,282.10625,0.05364583333334849,74,49,,0,0
282.1609375,282.21666666666664,0.05572916666665151,63,58,,0,0
282.27239583333335,282.328125,0.05572916666665151,62,42,,0,0
282.27239583333335,282.328125,0.05572916666665151,74,54,,0,0
282.384375,282.44114583333334,0.05677083333335986,60,49,,0,0
282.4984375,282.5552083333333,0.05677083333330302,62,40,,0,0
282.4984375,282.5552083333333,0.05677083333330302,74,52,,0,0
282.6119791666667,282.66875,0.05677083333330302,62,53,,0,0
282.72552083333335,282.78229166666665,0.05677083333330302,62,37,,0,0
282.72552083333335,282.78229166666665,0.05677083333330302,74,48,,0,0
282.8390625,282.8958333333333,0.05677083333330302,58,49,,0,0
282.9526041666667,283.009375,0.05677083333330302,62,35,,0,0
282.9526041666667,283.009375,0.05677083333330302,74,45,,0,0
283.06614583333334,283.1828125,0.11666666666667425,55,68,,0,0
283.18333333333334,283.2416666666667,0.05833333333333712,62,34,,0,0
283.18333333333334,283.2416666666667,0.05833333333333712,74,44,,0,0
283.3,283.35520833333334,0.055208333333325754,62,51,,0,0
283.41041666666666,283.465625,0.055208333333325754,62,38,,0,0
283.41041666666666,283.465625,0.055208333333325754,74,49,,0,0
283.52135416666664,283.57708333333335,0.05572916666670835,63,55,,0,0
283.6333333333333,283.6890625,0.05572916666665151,62,42,,0,0
283.6333333333333,283.6890625,0.05572916666665151,74,54,,0,0
283.7453125,283.8015625,0.05624999999997726,60,49,,0,0
283.8578125,283.9140625,0.05624999999997726,62,40,,0,0
283.8578125,283.9140625,0.05624999999997726,74,52,,0,0
283.9708333333333,284.02760416666666,0.05677083333335986,62,57,,0,0
284.084375,284.1411458333333,0.05677083333330302,62,44,,0,0
284.084375,284.1411458333333,0.05677083333330302,74,57,,0,0
284.1979166666667,284.2546875,0.05677083333330302,58,52,,0,0
284.31145833333335,284.36822916666665,0.05677083333330302,62,40,,0,0
284.31145833333335,284.36822916666665,0.05677083333330302,74,52,,0,0
284.425,284.4817708333333,0.05677083333330302,60,62,,0,0
284.5390625,284.5958333333333,0.05677083333330302,62,45,,0,0
284.5390625,284.5958333333333,0.05677083333330302,74,58,,0,0
284.65260416666666,284.7078125,0.055208333333325754,57,53,,0,0
284.76354166666664,284.81875,0.0552083333333826,62,38,,0,0
284.76354166666664,284.81875,0.0552083333333826,74,49,,0,0
284.8744791666667,284.9296875,0.055208333333325754,58,58,,0,0
284.9859375,285.0411458333333,0.055208333333325754,62,42,,0,0
284.9859375,285.0411458333333,0.055208333333325754,74,54,,0,0
285.096875,285.15260416666666,0.05572916666665151,60,53,,0,0
285.209375,285.2651041666667,0.05572916666665151,62,37,,0,0
285.209375,285.2651041666667,0.05572916666665151,74,48,,0,0
285.321875,285.378125,0.056250000000034106,57,56,,0,0
285.4348958333333,285.4916666666667,0.05677083333335986,62,41,,0,0
285.4348958333333,285.4916666666667,0.05677083333335986,74,53,,0,0
285.5484375,285.60520833333334,0.05677083333335986,58,52,,0,0
285.66302083333335,285.7234375,0.06041666666664014,62,40,,0,0
285.66302083333335,285.7234375,0.06041666666664014,74,52,,0,0
285.784375,285.9010416666667,0.11666666666667425,55,64,,0,0
285.9010416666667,285.959375,0.05833333333333712,62,34,,0,0
285.9010416666667,285.959375,0.05833333333333712,74,44,,0,0
286.0177083333333,286.0723958333333,0.0546875,62,51,,0,0
286.128125,286.1828125,0.0546875,62,38,,0,0
286.128125,286.1828125,0.0546875,74,49,,0,0
286.23854166666666,286.2942708333333,0.05572916666665151,63,58,,0,0
286.35,286.4057291666667,0.05572916666665151,62,42,,0,0
286.35,286.4057291666667,0.05572916666665151,74,54,,0,0
286.4614583333333,286.5182291666667,0.05677083333335986,60,49,,0,0
286.575,286.63177083333335,0.05677083333335986,62,40,,0,0
286.575,286.63177083333335,0.05677083333335986,74,52,,0,0
286.6890625,286.74583333333334,0.05677083333335986,62,53,,0,0
286.80260416666664,286.859375,0.05677083333335986,62,37,,0,0
286.80260416666664,286.859375,0.05677083333335986,74,48,,0,0
286.9161458333333,286.97291666666666,0.05677083333335986,58,49,,0,0
287.0296875,287.0864583333333,0.05677083333330302,62,35,,0,0
287.0296875,287.0864583333333,0.05677083333330302,74,45,,0,0
287.1432291666667,287.2598958333333,0.1166666666666174,55,68,,0,0
287.2598958333333,287.31822916666664,0.05833333333333712,62,34,,0,0
287.2598958333333,287.31822916666664,0.05833333333333712,74,44,,0,0
287.3770833333333,287.4322916666667,0.0552083333333826,62,51,,0,0
287.4875,287.54270833333334,0.055208333333325754,62,38,,0,0
287.4875,287.54270833333334,0.055208333333325754,74,49,,0,0
287.5984375,287.65416666666664,0.05572916666665151,63,58,,0,0
287.7104166666667,287.7661458333333,0.05572916666665151,62,42,,0,0
287.7104166666667,287.7661458333333,0.05572916666665151,74,54,,0,0
287.8223958333333,287.87916666666666,0.05677083333335986,60,49,,0,0
287.9359375,287.9927083333333,0.05677083333330302,62,40,,0,0
287.9359375,287.9927083333333,0.05677083333330302,74,52,,0,0
288.0494791666667,288.10625,0.05677083333330302,62,53,,0,0
288.16302083333335,288.21979166666665,0.05677083333330302,62,37,,0,0
288.16302083333335,288.21979166666665,0.05677083333330302,74,48,,0,0
288.2765625,288.3333333333333,0.05677083333330302,58,49,,0,0
288.3901041666667,288.446875,0.05677083333330302,62,35,,0,0
288.3901041666667,288.446875,0.05677083333330302,74,45,,0,0
288.50416666666666,288.62083333333334,0.11666666666667425,55,68,,0,0
288.62083333333334,288.6791666666667,0.05833333333333712,62,34,,0,0
288.62083333333334,288.6791666666667,0.05833333333333712,74,44,,0,0
288.7375,288.79270833333334,0.055208333333325754,62,51,,0,0
288.84791666666666,288.903125,0.055208333333325754,62,38,,0,0
288.84791666666666,288.903125,0.055208333333325754,74,49,,0,0
288.95885416666664,289.01458333333335,0.05572916666670835,63,55,,0,0
289.0708333333333,289.1265625,0.05572916666665151,62,42,,0,0
289.0708333333333,289.1265625,0.05572916666665151,74,54,,0,0
289.1828125,289.2390625,0.05624999999997726,60,49,,0,0
289.2953125,289.3515625,0.05624999999997726,62,40,,0,0
289.2953125,289.3515625,0.05624999999997726,74,52,,0,0
289.4083333333333,289.46510416666666,0.05677083333335986,62,57,,0,0
289.521875,289.5786458333333,0.05677083333330302,62,44,,0,0
289.521875,289.5786458333333,0.05677083333330302,74,57,,0,0
289.6354166666667,289.6921875,0.05677083333330302,58,52,,0,0
289.74895833333335,289.80572916666665,0.05677083333330302,62,40,,0,0
289.74895833333335,289.80572916666665,0.05677083333330302,74,52,,0,0
289.86302083333334,289.91979166666664,0.05677083333330302,60,62,,0,0
289.9765625,290.0333333333333,0.05677083333330302,62,45,,0,0
289.9765625,290.0333333333333,0.05677083333330302,74,58,,0,0
290.09010416666666,290.14479166666666,0.0546875,57,53,,0,0
290.2,290.2546875,0.0546875,62,38,,0,0
290.2,290.2546875,0.0546875,74,49,,0,0
290.3098958333333,290.36510416666664,0.055208333333325754,58,62,,0,0
290.42083333333335,290.4760416666667,0.055208333333325754,62,48,,0,0
290.42083333333335,290.4760416666667,0.055208333333325754,74,62,,0,0
290.53229166666665,290.5880208333333,0.05572916666665151,55,58,,0,0
290.64427083333334,290.7,0.05572916666665151,62,42,,0,0
290.64427083333334,290.7,0.05572916666665151,74,54,,0,0
290.75677083333335,290.8130208333333,0.05624999999997726,53,64,,0,0
290.8703125,290.92760416666664,0.05729166666662877,62,51,,0,0
290.8703125,290.92760416666664,0.05729166666662877,74,66,,0,0
290.9859375,291.04479166666664,0.05885416666666288,51,62,,0,0
291.1046875,291.1645833333333,0.059895833333314386,62,45,,0,0
291.1046875,291.1645833333333,0.059895833333314386,74,58,,0,0
291.2260416666667,291.34270833333335,0.11666666666667425,50,84,,0,0
291.2260416666667,291.34270833333335,0.11666666666667425,38,71,,0,0
291.34270833333335,291.41041666666666,0.06770833333331439,74,70,,0,0
291.34270833333335,291.41041666666666,0.06770833333331439,86,83,,0,0
291.34270833333335,291.41041666666666,0.06770833333331439,81,83,,0,0
291.34270833333335,291.41041666666666,0.06770833333331439,78,70,,0,0
291.4786458333333,291.5333333333333,0.0546875,62,56,,0,0
291.5880208333333,291.6427083333333,0.0546875,62,42,,0,0
291.5880208333333,291.6427083333333,0.0546875,74,54,,0,0
291.6973958333333,291.753125,0.05572916666670835,63,63,,0,0
291.809375,291.86510416666664,0.05572916666665151,62,46,,0,0
291.809375,291.86510416666664,0.05572916666665151,74,59,,0,0
291.92083333333335,291.97760416666665,0.05677083333330302,60,54,,0,0
292.034375,292.0911458333333,0.05677083333330302,62,44,,0,0
292.034375,292.0911458333333,0.05677083333330302,74,57,,0,0
292.1479166666667,292.2046875,0.05677083333330302,62,58,,0,0
292.26145833333334,292.31822916666664,0.05677083333330302,62,40,,0,0
292.26145833333334,292.31822916666664,0.05677083333330302,74,52,,0,0
292.375,292.4317708333333,0.05677083333330302,57,54,,0,0
292.4890625,292.54583333333335,0.05677083333335986,62,38,,0,0
292.4890625,292.54583333333335,0.05677083333335986,74,49,,0,0
292.60260416666665,292.7192708333333,0.11666666666667425,50,88,,0,0
292.60260416666665,292.7192708333333,0.11666666666667425,38,74,,0,0
292.7192708333333,292.7859375,0.06666666666666288,74,72,,0,0
292.7192708333333,292.7859375,0.06666666666666288,86,85,,0,0
292.7192708333333,292.7859375,0.06666666666666288,81,85,,0,0
292.7192708333333,292.7859375,0.06666666666666288,78,72,,0,0
292.853125,292.9078125,0.0546875,62,56,,0,0
292.9630208333333,293.0177083333333,0.0546875,62,42,,0,0
292.9630208333333,293.0177083333333,0.0546875,74,54,,0,0
293.0729166666667,293.12864583333334,0.05572916666665151,63,63,,0,0
293.1848958333333,293.240625,0.05572916666670835,62,46,,0,0
293.1848958333333,293.240625,0.05572916666670835,74,59,,0,0
293.296875,293.3536458333333,0.05677083333330302,60,54,,0,0
293.41041666666666,293.4671875,0.05677083333335986,62,44,,0,0
293.41041666666666,293.4671875,0.05677083333335986,74,57,,0,0
293.5239583333333,293.5807291666667,0.05677083333335986,62,58,,0,0
293.6375,293.69427083333335,0.05677083333335986,62,40,,0,0
293.6375,293.69427083333335,0.05677083333335986,74,52,,0,0
293.7515625,293.80833333333334,0.05677083333335986,57,54,,0,0
293.86510416666664,293.921875,0.05677083333335986,62,38,,0,0
293.86510416666664,293.921875,0.05677083333335986,74,49,,0,0
293.9786458333333,294.0953125,0.11666666666667425,50,88,,0,0
293.9786458333333,294.0953125,0.11666666666667425,38,74,,0,0
294.0953125,294.1609375,0.06562500000001137,74,70,,0,0
294.0953125,294.1609375,0.06562500000001137,86,83,,0,0
294.0953125,294.1609375,0.06562500000001137,81,83,,0,0
294.0953125,294.1609375,0.06562500000001137,78,70,,0,0
294.22760416666665,294.28229166666665,0.0546875,57,56,,0,0
294.3375,294.3921875,0.0546875,62,42,,0,0
294.3375,294.3921875,0.0546875,74,54,,0,0
294.4473958333333,294.503125,0.05572916666670835,60,62,,0,0
294.559375,294.61510416666664,0.05572916666665151,62,46,,0,0
294.559375,294.61510416666664,0.05572916666665151,74,59,,0,0
294.6713541666667,294.72760416666665,0.05624999999997726,62,61,,0,0
294.7838541666667,294.84010416666666,0.05624999999997726,62,44,,0,0
294.7838541666667,294.84010416666666,0.05624999999997726,74,57,,0,0
294.896875,294.9536458333333,0.05677083333330302,63,67,,0,0
295.0104166666667,295.0671875,0.05677083333330302,62,52,,0,0
295.0104166666667,295.0671875,0.05677083333330302,74,67,,0,0
295.12395833333335,295.18072916666665,0.05677083333330302,65,63,,0,0
295.2375,295.2942708333333,0.05677083333330302,62,49,,0,0
295.2375,295.2942708333333,0.05677083333330302,74,63,,0,0
295.3510416666667,295.4078125,0.05677083333330302,62,70,,0,0
295.46510416666666,295.521875,0.05677083333335986,62,54,,0,0
295.46510416666666,295.521875,0.05677083333335986,74,70,,0,0
295.5786458333333,295.63385416666665,0.055208333333325754,63,62,,0,0
295.6895833333333,295.7447916666667,0.0552083333333826,62,50,,0,0
295.6895833333333,295.7447916666667,0.0552083333333826,74,65,,0,0
295.80104166666666,295.85625,0.055208333333325754,60,64,,0,0
295.91197916666664,295.9671875,0.0552083333333826,62,53,,0,0
295.91197916666664,295.9671875,0.0552083333333826,74,68,,0,0
296.0229166666667,296.0786458333333,0.05572916666665151,62,58,,0,0
296.1354166666667,296.19114583333334,0.05572916666665151,62,49,,0,0
296.1354166666667,296.19114583333334,0.05572916666665151,74,63,,0,0
296.24791666666664,296.3041666666667,0.056250000000034106,58,61,,0,0
296.3609375,296.41770833333334,0.05677083333335986,62,51,,0,0
296.3609375,296.41770833333334,0.05677083333335986,74,66,,0,0
296.47447916666664,296.53125,0.05677083333335986,57,57,,0,0
296.5890625,296.64635416666664,0.05729166666662877,62,44,,0,0
296.5890625,296.64635416666664,0.05729166666662877,74,57,,0,0
296.70416666666665,296.8208333333333,0.11666666666667425,50,84,,0,0
296.70416666666665,296.8208333333333,0.11666666666667425,38,71,,0,0
296.8208333333333,296.88854166666664,0.06770833333331439,74,70,,0,0
296.8208333333333,296.88854166666664,0.06770833333331439,86,83,,0,0
296.8208333333333,296.88854166666664,0.06770833333331439,81,83,,0,0
296.8208333333333,296.88854166666664,0.06770833333331439,78,70,,0,0
296.95729166666666,297.01197916666666,0.0546875,62,56,,0,0
297.06666666666666,297.12135416666666,0.0546875,62,42,,0,0
297.06666666666666,297.12135416666666,0.0546875,74,54,,0,0
297.17604166666666,297.2317708333333,0.05572916666665151,63,63,,0,0
297.28802083333335,297.34375,0.05572916666665151,62,46,,0,0
297.28802083333335,297.34375,0.05572916666665151,74,59,,0,0
297.39947916666665,297.45625,0.05677083333335986,60,54,,0,0
297.5130208333333,297.5697916666667,0.05677083333335986,62,44,,0,0
297.5130208333333,297.5697916666667,0.05677083333335986,74,57,,0,0
297.6265625,297.68333333333334,0.05677083333335986,62,58,,0,0
297.74010416666664,297.796875,0.05677083333335986,62,40,,0,0
297.74010416666664,297.796875,0.05677083333335986,74,52,,0,0
297.8536458333333,297.91041666666666,0.05677083333335986,57,54,,0,0
297.96770833333335,298.02447916666665,0.05677083333330302,62,38,,0,0
297.96770833333335,298.02447916666665,0.05677083333330302,74,49,,0,0
298.08125,298.1979166666667,0.11666666666667425,50,88,,0,0
298.08125,298.1979166666667,0.11666666666667425,38,74,,0,0
298.1979166666667,298.265625,0.06770833333331439,74,72,,0,0
298.1979166666667,298.265625,0.06770833333331439,86,85,,0,0
298.1979166666667,298.265625,0.06770833333331439,81,85,,0,0
298.1979166666667,298.265625,0.06770833333331439,78,72,,0,0
298.3333333333333,298.3880208333333,0.0546875,62,56,,0,0
298.44322916666664,298.49791666666664,0.0546875,62,42,,0,0
298.44322916666664,298.49791666666664,0.0546875,74,54,,0,0
298.55260416666664,298.60833333333335,0.05572916666670835,63,63,,0,0
298.6645833333333,298.7203125,0.05572916666665151,62,46,,0,0
298.6645833333333,298.7203125,0.05572916666665151,74,59,,0,0
298.7765625,298.8333333333333,0.05677083333330302,60,54,,0,0
298.8901041666667,298.946875,0.05677083333330302,62,44,,0,0
298.8901041666667,298.946875,0.05677083333330302,74,57,,0,0
299.00364583333334,299.06041666666664,0.05677083333330302,62,58,,0,0
299.1171875,299.1739583333333,0.05677083333330302,62,40,,0,0
299.1171875,299.1739583333333,0.05677083333330302,74,52,,0,0
299.23072916666666,299.2875,0.05677083333335986,57,54,,0,0
299.34479166666665,299.4015625,0.05677083333335986,62,38,,0,0
299.34479166666665,299.4015625,0.05677083333335986,74,49,,0,0
299.4583333333333,299.575,0.11666666666667425,50,88,,0,0
299.4583333333333,299.575,0.11666666666667425,38,74,,0,0
299.575,299.6427083333333,0.06770833333331439,74,70,,0,0
299.575,299.6427083333333,0.06770833333331439,86,83,,0,0
299.575,299.6427083333333,0.06770833333331439,81,83,,0,0
299.575,299.6427083333333,0.06770833333331439,78,70,,0,0
299.7114583333333,299.76666666666665,0.055208333333325754,57,56,,0,0
299.821875,299.8770833333333,0.055208333333325754,62,42,,0,0
299.821875,299.8770833333333,0.055208333333325754,74,54,,0,0
299.9328125,299.98854166666666,0.05572916666665151,60,62,,0,0
300.04479166666664,300.10052083333335,0.05572916666670835,62,46,,0,0
300.04479166666664,300.10052083333335,0.05572916666670835,74,59,,0,0
300.1567708333333,300.2130208333333,0.05624999999997726,62,61,,0,0
300.26927083333334,300.3255208333333,0.05624999999997726,62,44,,0,0
300.26927083333334,300.3255208333333,0.05624999999997726,74,57,,0,0
300.3822916666667,300.4390625,0.05677083333330302,63,67,,0,0
300.49583333333334,300.55260416666664,0.05677083333330302,62,52,,0,0
300.49583333333334,300.55260416666664,0.05677083333330302,74,67,,0,0
300.609375,300.6661458333333,0.05677083333330302,65,63,,0,0
300.72291666666666,300.7796875,0.05677083333335986,62,49,,0,0
300.72291666666666,300.7796875,0.05677083333335986,74,63,,0,0
300.83697916666665,300.89375,0.05677083333335986,62,70,,0,0
300.9505208333333,301.0072916666667,0.05677083333335986,62,55,,0,0
300.9505208333333,301.0072916666667,0.05677083333335986,74,71,,0,0
301.0640625,301.11875,0.0546875,63,62,,0,0
301.1744791666667,301.2291666666667,0.0546875,62,50,,0,0
301.1744791666667,301.2291666666667,0.0546875,74,65,,0,0
301.284375,301.34010416666666,0.05572916666665151,60,74,,0,0
301.39635416666664,301.45208333333335,0.05572916666670835,62,56,,0,0
301.39635416666664,301.45208333333335,0.05572916666670835,74,72,,0,0
301.5083333333333,301.5651041666667,0.05677083333335986,62,69,,0,0
301.6223958333333,301.6796875,0.057291666666685614,62,52,,0,0
301.6223958333333,301.6796875,0.057291666666685614,74,67,,0,0
301.7369791666667,301.79479166666664,0.057812499999954525,58,75,,0,0
301.8536458333333,301.91197916666664,0.05833333333333712,62,60,,0,0
301.8536458333333,301.91197916666664,0.05833333333333712,74,77,,0,0
301.9708333333333,302.0296875,0.05885416666671972,62,70,,0,0
302.0890625,302.1484375,0.05937499999998863,62,59,,0,0
302.0890625,302.1484375,0.05937499999998863,74,76,,0,0
302.209375,302.3286458333333,0.11927083333330302,43,95,,0,0
302.209375,302.3286458333333,0.11927083333330302,31,80,,0,0
302.3286458333333,302.4078125,0.07916666666665151,79,76,,0,0
302.3286458333333,302.4078125,0.07916666666665151,91,91,,0,0
302.3286458333333,302.4078125,0.07916666666665151,86,76,,0,0
302.3286458333333,302.4078125,0.07916666666665151,82,76,,0,0
302.4875,302.5411458333333,0.05364583333329165,62,70,,0,0
302.5958333333333,302.64947916666665,0.05364583333334849,62,52,,0,0
302.5958333333333,302.64947916666665,0.05364583333334849,74,68,,0,0
302.70416666666665,302.7598958333333,0.05572916666665151,63,78,,0,0
302.815625,302.87135416666666,0.05572916666665151,62,57,,0,0
302.815625,302.87135416666666,0.05572916666665151,74,74,,0,0
302.9270833333333,302.9838541666667,0.05677083333335986,60,67,,0,0
303.040625,303.09739583333334,0.05677083333335986,62,54,,0,0
303.040625,303.09739583333334,0.05677083333335986,74,70,,0,0
303.1546875,303.2114583333333,0.05677083333330302,62,72,,0,0
303.2682291666667,303.325,0.05677083333330302,62,50,,0,0
303.2682291666667,303.325,0.05677083333330302,74,65,,0,0
303.38177083333335,303.43854166666665,0.05677083333330302,58,67,,0,0
303.4953125,303.5520833333333,0.05677083333330302,62,47,,0,0
303.4953125,303.5520833333333,0.05677083333330302,74,60,,0,0
303.6088541666667,303.72552083333335,0.11666666666667425,43,94,,0,0
303.6088541666667,303.72552083333335,0.11666666666667425,31,79,,0,0
303.72552083333335,303.8041666666667,0.07864583333332575,79,79,,0,0
303.72552083333335,303.8041666666667,0.07864583333332575,91,93,,0,0
303.72552083333335,303.8041666666667,0.07864583333332575,86,79,,0,0
303.72552083333335,303.8041666666667,0.07864583333332575,82,79,,0,0
303.88385416666665,303.9380208333333,0.054166666666674246,62,70,,0,0
303.9921875,304.0463541666667,0.054166666666674246,62,52,,0,0
303.9921875,304.0463541666667,0.054166666666674246,74,68,,0,0
304.1010416666667,304.1567708333333,0.05572916666665151,63,78,,0,0
304.2130208333333,304.26875,0.05572916666670835,62,57,,0,0
304.2130208333333,304.26875,0.05572916666670835,74,74,,0,0
304.325,304.38177083333335,0.05677083333335986,60,67,,0,0
304.43854166666665,304.4953125,0.05677083333335986,62,54,,0,0
304.43854166666665,304.4953125,0.05677083333335986,74,70,,0,0
304.5520833333333,304.6088541666667,0.05677083333335986,62,72,,0,0
304.665625,304.72239583333334,0.05677083333335986,62,50,,0,0
304.665625,304.72239583333334,0.05677083333335986,74,65,,0,0
304.7796875,304.8364583333333,0.05677083333330302,58,67,,0,0
304.8932291666667,304.95,0.05677083333330302,62,47,,0,0
304.8932291666667,304.95,0.05677083333330302,74,60,,0,0
305.00677083333335,305.1234375,0.11666666666667425,43,93,,0,0
305.00677083333335,305.1234375,0.11666666666667425,31,79,,0,0
305.1234375,305.2015625,0.078125,79,76,,0,0
305.1234375,305.2015625,0.078125,91,91,,0,0
305.1234375,305.2015625,0.078125,86,76,,0,0
305.1234375,305.2015625,0.078125,82,76,,0,0
305.2807291666667,305.3359375,0.055208333333325754,62,67,,0,0
305.3911458333333,305.44635416666665,0.055208333333325754,62,50,,0,0
305.3911458333333,305.44635416666665,0.055208333333325754,74,65,,0,0
305.5020833333333,305.5578125,0.05572916666670835,63,74,,0,0
305.6140625,305.66979166666664,0.05572916666665151,62,53,,0,0
305.6140625,305.66979166666664,0.05572916666665151,74,68,,0,0
305.7260416666667,305.78229166666665,0.05624999999997726,60,73,,0,0
305.8385416666667,305.89479166666666,0.05624999999997726,62,52,,0,0
305.8385416666667,305.89479166666666,0.05624999999997726,74,67,,0,0
305.9515625,306.0083333333333,0.05677083333330302,62,80,,0,0
306.0651041666667,306.121875,0.05677083333330302,62,55,,0,0
306.0651041666667,306.121875,0.05677083333330302,74,72,,0,0
306.17864583333335,306.23541666666665,0.05677083333330302,58,75,,0,0
306.2921875,306.3489583333333,0.05677083333330302,62,58,,0,0
306.2921875,306.3489583333333,0.05677083333330302,74,75,,0,0
306.4057291666667,306.4625,0.05677083333330302,60,84,,0,0
306.51927083333334,306.57604166666664,0.05677083333330302,62,61,,0,0
306.51927083333334,306.57604166666664,0.05677083333330302,74,79,,0,0
306.6333333333333,306.68854166666665,0.055208333333325754,57,74,,0,0
306.7442708333333,306.7994791666667,0.0552083333333826,62,54,,0,0
306.7442708333333,306.7994791666667,0.0552083333333826,74,70,,0,0
306.85520833333334,306.91041666666666,0.055208333333325754,58,76,,0,0
306.96666666666664,307.021875,0.0552083333333826,62,60,,0,0
306.96666666666664,307.021875,0.0552083333333826,74,78,,0,0
307.0776041666667,307.1333333333333,0.05572916666665151,60,69,,0,0
307.1901041666667,307.24583333333334,0.05572916666665151,62,52,,0,0
307.1901041666667,307.24583333333334,0.05572916666665151,74,67,,0,0
307.30260416666664,307.3588541666667,0.056250000000034106,57,73,,0,0
307.415625,307.47239583333334,0.05677083333335986,62,54,,0,0
307.415625,307.47239583333334,0.05677083333335986,74,71,,0,0
307.52916666666664,307.5859375,0.05677083333335986,58,68,,0,0
307.64375,307.70416666666665,0.06041666666664014,62,52,,0,0
307.64375,307.70416666666665,0.06041666666664014,74,67,,0,0
307.7651041666667,307.88177083333335,0.11666666666667425,49,96,,0,0
307.7651041666667,307.88177083333335,0.11666666666667425,37,81,,0,0
307.88177083333335,307.96979166666665,0.08802083333330302,79,79,,0,0
307.88177083333335,307.96979166666665,0.08802083333330302,91,93,,0,0
307.88177083333335,307.96979166666665,0.08802083333330302,87,93,,0,0
307.88177083333335,307.96979166666665,0.08802083333330302,82,79,,0,0
308.05833333333334,308.1119791666667,0.05364583333334849,63,70,,0,0
308.1666666666667,308.2203125,0.05364583333329165,63,52,,0,0
308.1666666666667,308.2203125,0.05364583333329165,75,68,,0,0
308.275,308.3307291666667,0.05572916666670835,65,76,,0,0
308.38697916666666,308.4427083333333,0.05572916666665151,63,57,,0,0
308.38697916666666,308.4427083333333,0.05572916666665151,75,74,,0,0
308.49895833333335,308.55572916666665,0.05677083333330302,62,67,,0,0
308.6125,308.6692708333333,0.05677083333330302,63,54,,0,0
308.6125,308.6692708333333,0.05677083333330302,75,70,,0,0
308.7260416666667,308.7828125,0.05677083333330302,63,72,,0,0
308.83958333333334,308.89635416666664,0.05677083333330302,63,50,,0,0
308.83958333333334,308.89635416666664,0.05677083333330302,75,65,,0,0
308.953125,309.0109375,0.05781250000001137,58,67,,0,0
309.06927083333335,309.1270833333333,0.057812499999954525,63,47,,0,0
309.06927083333335,309.1270833333333,0.057812499999954525,75,60,,0,0
309.1848958333333,309.3015625,0.11666666666667425,49,94,,0,0
309.1848958333333,309.3015625,0.11666666666667425,37,79,,0,0
309.3015625,309.3890625,0.0875000000000341,79,79,,0,0
309.3015625,309.3890625,0.0875000000000341,91,93,,0,0
309.3015625,309.3890625,0.0875000000000341,87,93,,0,0
309.3015625,309.3890625,0.0875000000000341,82,79,,0,0
309.4770833333333,309.5307291666667,0.05364583333334849,63,70,,0,0
309.5854166666667,309.6390625,0.05364583333334849,63,52,,0,0
309.5854166666667,309.6390625,0.05364583333334849,75,68,,0,0
309.69375,309.7494791666667,0.05572916666665151,65,77,,0,0
309.80572916666665,309.8614583333333,0.05572916666665151,63,57,,0,0
309.80572916666665,309.8614583333333,0.05572916666665151,75,74,,0,0
309.91770833333334,309.97447916666664,0.05677083333330302,62,67,,0,0
310.03125,310.0880208333333,0.05677083333330302,63,54,,0,0
310.03125,310.0880208333333,0.05677083333330302,75,70,,0,0
310.14479166666666,310.2015625,0.05677083333335986,63,72,,0,0
310.2583333333333,310.3151041666667,0.05677083333335986,63,50,,0,0
310.2583333333333,310.3151041666667,0.05677083333335986,75,65,,0,0
310.3723958333333,310.43072916666665,0.05833333333333712,58,67,,0,0
310.4895833333333,310.54791666666665,0.05833333333333712,63,47,,0,0
310.4895833333333,310.54791666666665,0.05833333333333712,75,60,,0,0
310.6067708333333,310.7234375,0.11666666666667425,49,95,,0,0
310.6067708333333,310.7234375,0.11666666666667425,37,80,,0,0
310.7234375,310.8098958333333,0.08645833333332575,79,79,,0,0
310.7234375,310.8098958333333,0.08645833333332575,91,93,,0,0
310.7234375,310.8098958333333,0.08645833333332575,87,93,,0,0
310.7234375,310.8098958333333,0.08645833333332575,82,79,,0,0
310.896875,310.95208333333335,0.055208333333325754,63,67,,0,0
311.0072916666667,311.0625,0.055208333333325754,63,50,,0,0
311.0072916666667,311.0625,0.055208333333325754,75,65,,0,0
311.11822916666665,311.1739583333333,0.05572916666665151,65,75,,0,0
311.23020833333334,311.2859375,0.05572916666665151,63,55,,0,0
311.23020833333334,311.2859375,0.05572916666665151,75,71,,0,0
311.3421875,311.3989583333333,0.05677083333330302,62,64,,0,0
311.4557291666667,311.5125,0.05677083333330302,63,52,,0,0
311.4557291666667,311.5125,0.05677083333330302,75,67,,0,0
311.56927083333335,311.62604166666665,0.05677083333330302,63,69,,0,0
311.6828125,311.7395833333333,0.05677083333330302,63,48,,0,0
311.6828125,311.7395833333333,0.05677083333330302,75,62,,0,0
311.7963541666667,311.853125,0.05677083333330302,58,64,,0,0
311.91041666666666,311.9671875,0.05677083333335986,63,45,,0,0
311.91041666666666,311.9671875,0.05677083333335986,75,58,,0,0
312.0239583333333,312.0807291666667,0.05677083333335986,60,84,,0,0
312.1375,312.19427083333335,0.05677083333335986,63,54,,0,0
312.1375,312.19427083333335,0.05677083333335986,75,70,,0,0
312.25104166666665,312.30625,0.055208333333325754,57,70,,0,0
312.3619791666667,312.4171875,0.055208333333325754,63,54,,0,0
312.3619791666667,312.4171875,0.055208333333325754,75,69,,0,0
312.4734375,312.5286458333333,0.055208333333325754,58,72,,0,0
312.584375,312.63958333333335,0.055208333333325754,63,55,,0,0
312.584375,312.63958333333335,0.055208333333325754,75,71,,0,0
312.6953125,312.75104166666665,0.05572916666665151,60,69,,0,0
312.8078125,312.86354166666666,0.05572916666665151,63,52,,0,0
312.8078125,312.86354166666666,0.05572916666665151,75,67,,0,0
312.9203125,312.9765625,0.05624999999997726,55,73,,0,0
313.0333333333333,313.09010416666666,0.05677083333335986,63,56,,0,0
313.0333333333333,313.09010416666666,0.05677083333335986,75,72,,0,0
313.14739583333335,313.20416666666665,0.05677083333330302,57,68,,0,0
313.26145833333334,313.31875,0.057291666666685614,63,52,,0,0
313.26145833333334,313.31875,0.057291666666685614,75,67,,0,0
313.3765625,313.49322916666665,0.11666666666667425,50,92,,0,0
313.3765625,313.49322916666665,0.11666666666667425,38,78,,0,0
313.49322916666665,313.5828125,0.08958333333333712,86,86,,0,0
313.49322916666665,313.5828125,0.08958333333333712,98,102,,0,0
313.49322916666665,313.5828125,0.08958333333333712,93,86,,0,0
313.49322916666665,313.5828125,0.08958333333333712,90,86,,0,0
313.67291666666665,313.7265625,0.05364583333334849,62,73,,0,0
313.78125,313.83489583333335,0.05364583333334849,62,55,,0,0
313.78125,313.83489583333335,0.05364583333334849,74,71,,0,0
313.8890625,313.9447916666667,0.05572916666665151,63,82,,0,0
314.0005208333333,314.05625,0.05572916666665151,62,58,,0,0
314.0005208333333,314.05625,0.05572916666665151,74,75,,0,0
314.1119791666667,314.16875,0.05677083333330302,61,70,,0,0
314.22552083333335,314.28229166666665,0.05677083333330302,62,57,,0,0
314.22552083333335,314.28229166666665,0.05677083333330302,74,73,,0,0
314.3390625,314.3958333333333,0.05677083333330302,62,75,,0,0
314.453125,314.5098958333333,0.05677083333330302,62,52,,0,0
314.453125,314.5098958333333,0.05677083333330302,74,68,,0,0
314.56666666666666,314.6234375,0.05677083333335986,57,70,,0,0
314.6802083333333,314.740625,0.06041666666669698,62,49,,0,0
314.6802083333333,314.740625,0.06041666666669698,74,63,,0,0
314.80104166666666,314.91770833333334,0.11666666666667425,49,94,,0,0
314.80104166666666,314.91770833333334,0.11666666666667425,37,79,,0,0
314.91770833333334,315.0072916666667,0.08958333333333712,87,86,,0,0
314.91770833333334,315.0072916666667,0.08958333333333712,99,102,,0,0
314.91770833333334,315.0072916666667,0.08958333333333712,94,86,,0,0
314.91770833333334,315.0072916666667,0.08958333333333712,91,86,,0,0
315.09739583333334,315.1510416666667,0.05364583333334849,63,73,,0,0
315.2052083333333,315.25885416666665,0.05364583333334849,63,55,,0,0
315.2052083333333,315.25885416666665,0.05364583333334849,75,71,,0,0
315.31354166666665,315.3692708333333,0.05572916666665151,65,78,,0,0
315.425,315.48072916666666,0.05572916666665151,63,60,,0,0
315.425,315.48072916666666,0.05572916666665151,75,78,,0,0
315.53697916666664,315.59375,0.05677083333335986,62,70,,0,0
315.6510416666667,315.7078125,0.05677083333330302,63,57,,0,0
315.6510416666667,315.7078125,0.05677083333330302,75,73,,0,0
315.76458333333335,315.82135416666665,0.05677083333330302,63,75,,0,0
315.878125,315.9348958333333,0.05677083333330302,63,52,,0,0
315.878125,315.9348958333333,0.05677083333330302,75,68,,0,0
315.9916666666667,316.0484375,0.05677083333330302,58,70,,0,0
316.10520833333334,316.1635416666667,0.05833333333333712,63,49,,0,0
316.10520833333334,316.1635416666667,0.05833333333333712,75,63,,0,0
316.22291666666666,316.33958333333334,0.11666666666667425,50,89,,0,0
316.22291666666666,316.33958333333334,0.11666666666667425,38,75,,0,0
316.33958333333334,316.428125,0.08854166666668561,86,87,,0,0
316.33958333333334,316.428125,0.08854166666668561,98,103,,0,0
316.33958333333334,316.428125,0.08854166666668561,93,87,,0,0
316.33958333333334,316.428125,0.08854166666668561,90,87,,0,0
316.5171875,316.5708333333333,0.05364583333334849,62,73,,0,0
316.625,316.67864583333335,0.05364583333334849,62,55,,0,0
316.625,316.67864583333335,0.05364583333334849,74,71,,0,0
316.73333333333335,316.7890625,0.05572916666665151,63,78,,0,0
316.84479166666665,316.9005208333333,0.05572916666665151,62,58,,0,0
316.84479166666665,316.9005208333333,0.05572916666665151,74,75,,0,0
316.95625,317.0130208333333,0.05677083333330302,61,70,,0,0
317.0697916666667,317.1265625,0.05677083333330302,62,57,,0,0
317.0697916666667,317.1265625,0.05677083333330302,74,73,,0,0
317.18333333333334,317.24010416666664,0.05677083333330302,62,75,,0,0
317.296875,317.3536458333333,0.05677083333330302,62,52,,0,0
317.296875,317.3536458333333,0.05677083333330302,74,68,,0,0
317.4109375,317.46770833333335,0.05677083333335986,57,70,,0,0
317.52447916666665,317.58385416666664,0.05937499999998863,62,49,,0,0
317.52447916666665,317.58385416666664,0.05937499999998863,74,63,,0,0
317.6432291666667,317.7598958333333,0.1166666666666174,49,94,,0,0
317.6432291666667,317.7598958333333,0.1166666666666174,37,79,,0,0
317.7598958333333,317.84739583333334,0.0875000000000341,87,86,,0,0
317.7598958333333,317.84739583333334,0.0875000000000341,99,102,,0,0
317.7598958333333,317.84739583333334,0.0875000000000341,94,86,,0,0
317.7598958333333,317.84739583333334,0.0875000000000341,91,86,,0,0
317.93541666666664,317.9895833333333,0.054166666666674246,63,73,,0,0
318.0442708333333,318.0984375,0.054166666666674246,63,55,,0,0
318.0442708333333,318.0984375,0.054166666666674246,75,71,,0,0
318.153125,318.20885416666664,0.05572916666665151,65,79,,0,0
318.2651041666667,318.3208333333333,0.05572916666665151,63,58,,0,0
318.2651041666667,318.3208333333333,0.05572916666665151,75,75,,0,0
318.3765625,318.43333333333334,0.05677083333335986,62,70,,0,0
318.490625,318.5473958333333,0.05677083333330302,63,57,,0,0
318.490625,318.5473958333333,0.05677083333330302,75,73,,0,0
318.6041666666667,318.6609375,0.05677083333330302,63,75,,0,0
318.71770833333335,318.77447916666665,0.05677083333330302,63,52,,0,0
318.71770833333335,318.77447916666665,0.05677083333330302,75,68,,0,0
318.83125,318.8880208333333,0.05677083333330302,58,70,,0,0
318.9447916666667,319.0015625,0.05677083333330302,63,49,,0,0
318.9447916666667,319.0015625,0.05677083333330302,75,63,,0,0
319.05885416666666,319.17552083333334,0.11666666666667425,50,89,,0,0
319.05885416666666,319.17552083333334,0.11666666666667425,38,75,,0,0
319.17552083333334,319.2661458333333,0.09062499999998863,86,86,,0,0
319.17552083333334,319.2661458333333,0.09062499999998863,98,102,,0,0
319.17552083333334,319.2661458333333,0.09062499999998863,93,86,,0,0
319.17552083333334,319.2661458333333,0.09062499999998863,90,86,,0,0
319.35729166666664,319.41197916666664,0.0546875,62,73,,0,0
319.46770833333335,319.52239583333335,0.0546875,62,55,,0,0
319.46770833333335,319.52239583333335,0.0546875,74,71,,0,0
319.5776041666667,319.6333333333333,0.05572916666665151,63,78,,0,0
319.6890625,319.7447916666667,0.05572916666670835,62,58,,0,0
319.6890625,319.7447916666667,0.05572916666670835,74,75,,0,0
319.80104166666666,319.8578125,0.05677083333335986,60,70,,0,0
319.9145833333333,319.9713541666667,0.05677083333335986,62,57,,0,0
319.9145833333333,319.9713541666667,0.05677083333335986,74,73,,0,0
320.028125,320.08489583333335,0.05677083333335986,62,75,,0,0
320.14166666666665,320.1984375,0.05677083333335986,62,52,,0,0
320.14166666666665,320.1984375,0.05677083333335986,74,68,,0,0
320.2552083333333,320.3119791666667,0.05677083333335986,58,70,,0,0
320.36875,320.42552083333334,0.05677083333335986,62,49,,0,0
320.36875,320.42552083333334,0.05677083333335986,74,63,,0,0
320.4828125,320.596875,0.11406249999998863,60,76,,0,0
320.59739583333334,320.65416666666664,0.05677083333330302,62,53,,0,0
320.59739583333334,320.65416666666664,0.05677083333330302,74,68,,0,0
320.7114583333333,320.7661458333333,0.0546875,57,67,,0,0
320.821875,320.8765625,0.0546875,62,50,,0,0
320.821875,320.8765625,0.0546875,74,65,,0,0
320.9322916666667,320.98802083333334,0.05572916666665151,58,70,,0,0
321.04375,321.09947916666664,0.05572916666665151,62,51,,0,0
321.04375,321.09947916666664,0.05572916666665151,74,66,,0,0
321.15520833333335,321.21197916666665,0.05677083333330302,60,64,,0,0
321.26875,321.3255208333333,0.05677083333330302,62,49,,0,0
321.26875,321.3255208333333,0.05677083333330302,74,63,,0,0
321.3828125,321.4380208333333,0.055208333333325754,57,69,,0,0
321.49322916666665,321.5484375,0.055208333333325754,62,50,,0,0
321.49322916666665,321.5484375,0.055208333333325754,74,65,,0,0
321.6041666666667,321.65989583333334,0.05572916666665151,58,64,,0,0
321.7161458333333,321.771875,0.05572916666670835,62,45,,0,0
321.7161458333333,321.771875,0.05572916666670835,74,58,,0,0
321.8276041666667,321.9369791666667,0.109375,55,76,,0,0
321.9375,321.9921875,0.0546875,62,53,,0,0
321.9375,321.9921875,0.0546875,74,68,,0,0
322.0473958333333,322.103125,0.05572916666665151,57,67,,0,0
322.159375,322.21510416666666,0.05572916666665151,62,49,,0,0
322.159375,322.21510416666666,0.05572916666665151,74,63,,0,0
322.27135416666664,322.32604166666664,0.0546875,58,69,,0,0
322.38177083333335,322.43645833333335,0.0546875,62,49,,0,0
322.38177083333335,322.43645833333335,0.0546875,74,63,,0,0
322.4921875,322.54791666666665,0.05572916666665151,60,62,,0,0
322.6041666666667,322.65989583333334,0.05572916666665151,62,48,,0,0
322.6041666666667,322.65989583333334,0.05572916666665151,74,62,,0,0
322.7161458333333,322.7708333333333,0.0546875,57,66,,0,0
322.82604166666664,322.88072916666664,0.0546875,62,48,,0,0
322.82604166666664,322.88072916666664,0.0546875,74,62,,0,0
322.93645833333335,322.9916666666667,0.055208333333325754,58,61,,0,0
323.0473958333333,323.10260416666665,0.055208333333325754,62,43,,0,0
323.0473958333333,323.10260416666665,0.055208333333325754,74,55,,0,0
323.1578125,323.2671875,0.109375,55,72,,0,0
323.2671875,323.321875,0.0546875,74,63,,0,0
323.2671875,323.321875,0.0546875,62,49,,0,0
323.3770833333333,323.4328125,0.05572916666670835,57,62,,0,0
323.4890625,323.54479166666664,0.05572916666665151,62,46,,0,0
323.4890625,323.54479166666664,0.05572916666665151,74,59,,0,0
323.6015625,323.6578125,0.05624999999997726,58,64,,0,0
323.71458333333334,323.7708333333333,0.05624999999997726,62,46,,0,0
323.71458333333334,323.7708333333333,0.05624999999997726,74,59,,0,0
323.8276041666667,323.884375,0.05677083333330302,55,57,,0,0
323.94166666666666,323.9984375,0.05677083333335986,62,43,,0,0
323.94166666666666,323.9984375,0.05677083333335986,74,55,,0,0
324.05625,324.11354166666666,0.057291666666685614,53,60,,0,0
324.1713541666667,324.2291666666667,0.05781250000001137,62,44,,0,0
324.1713541666667,324.2291666666667,0.05781250000001137,74,57,,0,0
324.2875,324.3453125,0.057812499999954525,51,55,,0,0
324.40416666666664,324.4625,0.05833333333333712,62,38,,0,0
324.40416666666664,324.4625,0.05833333333333712,74,49,,0,0
324.5208333333333,324.6375,0.11666666666667425,50,74,,0,0
324.5208333333333,324.6375,0.11666666666667425,38,63,,0,0
324.6375,324.6958333333333,0.05833333333333712,62,58,,0,0
324.6375,324.6958333333333,0.05833333333333712,74,75,,0,0
324.75416666666666,324.80885416666666,0.0546875,62,56,,0,0
324.8645833333333,324.9192708333333,0.0546875,62,42,,0,0
324.975,325.0307291666667,0.05572916666665151,63,61,,0,0
325.0864583333333,325.1421875,0.05572916666665151,62,46,,0,0
325.1979166666667,325.2546875,0.05677083333330302,60,54,,0,0
325.31145833333335,325.36822916666665,0.05677083333330302,62,44,,0,0
325.425,325.4817708333333,0.05677083333330302,62,58,,0,0
325.5390625,325.5958333333333,0.05677083333330302,62,40,,0,0
325.65260416666666,325.709375,0.05677083333335986,58,54,,0,0
325.7661458333333,325.8229166666667,0.05677083333335986,62,38,,0,0
325.8796875,325.99375,0.11406249999998863,60,64,,0,0
325.9942708333333,326.05104166666666,0.05677083333335986,62,45,,0,0
326.1088541666667,326.1635416666667,0.0546875,57,56,,0,0
326.2192708333333,326.2739583333333,0.0546875,62,42,,0,0
326.32916666666665,326.3848958333333,0.05572916666665151,58,59,,0,0
326.44114583333334,326.496875,0.05572916666665151,62,43,,0,0
326.55260416666664,326.609375,0.05677083333335986,60,54,,0,0
326.6661458333333,326.72291666666666,0.05677083333335986,62,41,,0,0
326.7796875,326.83489583333335,0.055208333333325754,57,58,,0,0
326.890625,326.9458333333333,0.055208333333325754,62,42,,0,0
327.00104166666665,327.0567708333333,0.05572916666665151,58,54,,0,0
327.11302083333334,327.16875,0.05572916666665151,62,38,,0,0
327.225,327.334375,0.109375,55,64,,0,0
327.33489583333335,327.38958333333335,0.0546875,62,45,,0,0
327.4447916666667,327.5005208333333,0.05572916666665151,57,56,,0,0
327.5567708333333,327.6125,0.05572916666670835,62,41,,0,0
327.66875,327.7234375,0.0546875,58,58,,0,0
327.77916666666664,327.83385416666664,0.0546875,62,41,,0,0
327.8890625,327.9447916666667,0.05572916666665151,60,52,,0,0
328.00104166666665,328.0567708333333,0.05572916666665151,62,40,,0,0
328.11302083333334,328.16770833333334,0.0546875,57,56,,0,0
328.2234375,328.278125,0.0546875,62,40,,0,0
328.33385416666664,328.3890625,0.0552083333333826,58,51,,0,0
328.44427083333335,328.4994791666667,0.055208333333325754,62,36,,0,0
328.5552083333333,328.6645833333333,0.109375,55,61,,0,0
328.6645833333333,328.7192708333333,0.0546875,62,41,,0,0
328.7739583333333,328.8296875,0.05572916666665151,57,52,,0,0
328.88645833333334,328.9421875,0.05572916666665151,62,39,,0,0
328.99895833333335,329.0552083333333,0.05624999999997726,58,54,,0,0
329.1119791666667,329.16875,0.05677083333330302,62,39,,0,0
329.2265625,329.2838541666667,0.057291666666685614,55,48,,0,0
329.3421875,329.4005208333333,0.05833333333328028,62,36,,0,0
329.459375,329.5182291666667,0.05885416666666288,53,51,,0,0
329.578125,329.6375,0.05937499999998863,62,37,,0,0
329.6979166666667,329.7578125,0.059895833333314386,51,46,,0,0
329.81666666666666,329.875,0.05833333333333712,62,32,,0,0
330.05,330.10833333333335,0.05833333333333712,57,36,,0,0
330.05,330.10833333333335,0.05833333333333712,54,36,,0,0
330.1666666666667,330.221875,0.055208333333325754,45,45,,0,0
330.27760416666666,330.3328125,0.055208333333325754,57,31,,0,0
330.27760416666666,330.3328125,0.055208333333325754,54,31,,0,0
330.3890625,330.4447916666667,0.05572916666665151,50,42,,0,0
330.5005208333333,330.55625,0.05572916666665151,57,34,,0,0
330.5005208333333,330.55625,0.05572916666665151,54,34,,0,0
330.6119791666667,330.66875,0.05677083333330302,51,49,,0,0
330.72552083333335,330.78229166666665,0.05677083333330302,57,33,,0,0
330.72552083333335,330.78229166666665,0.05677083333330302,54,33,,0,0
330.8390625,330.89427083333334,0.055208333333325754,49,54,,0,0
330.94947916666666,331.00416666666666,0.0546875,57,35,,0,0
330.94947916666666,331.00416666666666,0.0546875,54,35,,0,0
331.059375,331.1145833333333,0.055208333333325754,50,51,,0,0
331.17083333333335,331.2260416666667,0.055208333333325754,57,34,,0,0
331.17083333333335,331.2260416666667,0.055208333333325754,54,34,,0,0
329.93333333333334,331.2817708333333,1.3484374999999886,38,45,,0,0
331.3953125,331.45208333333335,0.05677083333335986,58,36,,0,0
331.3953125,331.45208333333335,0.05677083333335986,55,36,,0,0
331.50885416666665,331.56875,0.05989583333337123,45,49,,0,0
331.6296875,331.6895833333333,0.059895833333314386,58,31,,0,0
331.6296875,331.6895833333333,0.059895833333314386,55,31,,0,0
331.75,331.80572916666665,0.05572916666665151,55,56,,0,0
331.8614583333333,331.9171875,0.05572916666670835,58,34,,0,0
331.8614583333333,331.9171875,0.05572916666670835,55,34,,0,0
331.97291666666666,332.0296875,0.05677083333335986,53,46,,0,0
332.0864583333333,332.1432291666667,0.05677083333335986,58,29,,0,0
332.0864583333333,332.1432291666667,0.05677083333335986,55,29,,0,0
332.2005208333333,332.2572916666667,0.05677083333335986,50,49,,0,0
332.3140625,332.37083333333334,0.05677083333335986,58,34,,0,0
332.3140625,332.37083333333334,0.05677083333335986,55,34,,0,0
332.42760416666664,332.484375,0.05677083333335986,51,46,,0,0
332.5411458333333,332.59791666666666,0.05677083333335986,58,31,,0,0
332.5411458333333,332.59791666666666,0.05677083333335986,55,31,,0,0
331.2817708333333,332.6546875,1.372916666666697,38,56,,0,0
332.77135416666664,332.8296875,0.05833333333333712,57,36,,0,0
332.77135416666664,332.8296875,0.05833333333333712,54,36,,0,0
332.88854166666664,332.94322916666664,0.0546875,45,45,,0,0
332.9984375,333.053125,0.0546875,57,31,,0,0
332.9984375,333.053125,0.0546875,54,31,,0,0
333.1088541666667,333.1645833333333,0.05572916666665151,50,42,,0,0
333.2203125,333.2760416666667,0.05572916666670835,57,34,,0,0
333.2203125,333.2760416666667,0.05572916666670835,54,34,,0,0
333.33177083333334,333.38854166666664,0.05677083333330302,51,47,,0,0
333.4453125,333.5020833333333,0.05677083333330302,57,33,,0,0
333.4453125,333.5020833333333,0.05677083333330302,54,33,,0,0
333.559375,333.6140625,0.0546875,49,52,,0,0
333.6692708333333,333.7239583333333,0.0546875,57,35,,0,0
333.6692708333333,333.7239583333333,0.0546875,54,35,,0,0
333.7796875,333.8354166666667,0.05572916666665151,50,49,,0,0
333.89166666666665,333.9473958333333,0.05572916666665151,57,34,,0,0
333.89166666666665,333.9473958333333,0.05572916666665151,54,34,,0,0
332.6546875,334.003125,1.3484374999999886,38,45,,0,0
334.1166666666667,334.17291666666665,0.05624999999997726,58,36,,0,0
334.1166666666667,334.17291666666665,0.05624999999997726,55,36,,0,0
334.23020833333334,334.28489583333334,0.0546875,45,46,,0,0
334.340625,334.3953125,0.0546875,58,31,,0,0
334.340625,334.3953125,0.0546875,55,31,,0,0
334.4505208333333,334.50625,0.05572916666670835,51,48,,0,0
334.5619791666667,334.6177083333333,0.05572916666665151,58,34,,0,0
334.5619791666667,334.6177083333333,0.05572916666665151,55,34,,0,0
334.6739583333333,334.73072916666666,0.05677083333335986,53,45,,0,0
334.7875,334.8442708333333,0.05677083333330302,58,29,,0,0
334.7875,334.8442708333333,0.05677083333330302,55,29,,0,0
334.9010416666667,334.95677083333334,0.05572916666665151,50,47,,0,0
335.0125,335.06822916666664,0.05572916666665151,58,34,,0,0
335.0125,335.06822916666664,0.05572916666665151,55,34,,0,0
335.12395833333335,335.1802083333333,0.05624999999997726,51,44,,0,0
335.2369791666667,335.29322916666666,0.05624999999997726,58,31,,0,0
335.2369791666667,335.29322916666666,0.05624999999997726,55,31,,0,0
334.00364583333334,335.34947916666664,1.345833333333303,38,54,,0,0
335.4661458333333,335.52447916666665,0.05833333333333712,57,36,,0,0
335.4661458333333,335.52447916666665,0.05833333333333712,54,36,,0,0
335.5828125,335.6375,0.0546875,45,45,,0,0
335.69322916666664,335.74791666666664,0.0546875,57,31,,0,0
335.69322916666664,335.74791666666664,0.0546875,54,31,,0,0
335.80364583333335,335.859375,0.05572916666665151,50,42,,0,0
335.91510416666665,335.9708333333333,0.05572916666665151,57,34,,0,0
335.91510416666665,335.9708333333333,0.05572916666665151,54,34,,0,0
336.0265625,336.0833333333333,0.05677083333330302,51,47,,0,0
336.1401041666667,336.196875,0.05677083333330302,57,33,,0,0
336.1401041666667,336.196875,0.05677083333330302,54,33,,0,0
336.25416666666666,336.309375,0.055208333333325754,49,51,,0,0
336.36510416666664,336.4203125,0.0552083333333826,57,35,,0,0
336.36510416666664,336.4203125,0.0552083333333826,54,35,,0,0
336.4760416666667,336.5317708333333,0.05572916666665151,51,48,,0,0
336.5885416666667,336.64427083333334,0.05572916666665151,57,34,,0,0
336.5885416666667,336.64427083333334,0.05572916666665151,54,34,,0,0
336.70104166666664,336.7578125,0.05677083333335986,50,53,,0,0
336.815625,336.8723958333333,0.05677083333330302,57,36,,0,0
336.815625,336.8723958333333,0.05677083333330302,54,36,,0,0
336.9296875,336.984375,0.0546875,51,46,,0,0
337.04010416666665,337.09479166666665,0.0546875,57,31,,0,0
337.04010416666665,337.09479166666665,0.0546875,54,31,,0,0
337.1505208333333,337.20625,0.05572916666670835,49,48,,0,0
337.26197916666666,337.3177083333333,0.05572916666665151,57,34,,0,0
337.26197916666666,337.3177083333333,0.05572916666665151,54,34,,0,0
337.3734375,337.4302083333333,0.05677083333330302,51,45,,0,0
337.4869791666667,337.54375,0.05677083333330302,57,29,,0,0
337.4869791666667,337.54375,0.05677083333330302,54,29,,0,0
337.6010416666667,337.6578125,0.05677083333330302,50,45,,0,0
337.71458333333334,337.77135416666664,0.05677083333330302,57,34,,0,0
337.71458333333334,337.77135416666664,0.05677083333330302,54,34,,0,0
337.828125,337.8848958333333,0.05677083333330302,45,44,,0,0
337.94166666666666,337.9984375,0.05677083333335986,57,31,,0,0
337.94166666666666,337.9984375,0.05677083333335986,54,31,,0,0
335.34947916666664,338.0552083333333,2.7057291666666856,38,45,,0,0
338.0552083333333,338.1119791666667,0.05677083333335986,38,45,,0,0
338.1692708333333,338.2260416666667,0.05677083333335986,54,43,,0,0
338.2828125,338.33958333333334,0.05677083333335986,54,45,,0,0
338.39635416666664,338.453125,0.05677083333335986,57,43,,0,0
338.5098958333333,338.56666666666666,0.05677083333335986,57,45,,0,0
338.6234375,338.6802083333333,0.05677083333330302,62,42,,0,0
338.7369791666667,338.79375,0.05677083333330302,62,45,,0,0
338.8510416666667,338.9078125,0.05677083333330302,66,42,,0,0
338.96458333333334,339.02135416666664,0.05677083333330302,66,44,,0,0
339.078125,339.1348958333333,0.05677083333330302,69,41,,0,0
339.19166666666666,339.2484375,0.05677083333335986,69,43,,0,0
339.3052083333333,339.3619791666667,0.05677083333335986,74,41,,0,0
339.4192708333333,339.4760416666667,0.05677083333335986,74,43,,0,0
339.5328125,339.58958333333334,0.05677083333335986,78,40,,0,0
339.646875,339.7036458333333,0.05677083333330302,78,42,,0,0
339.76145833333334,339.81875,0.057291666666685614,81,40,,0,0
339.8765625,339.93385416666666,0.057291666666685614,81,42,,0,0
339.9921875,340.05,0.05781250000001137,86,39,,0,0
340.10833333333335,340.1666666666667,0.05833333333333712,86,41,,0,0
340.225,340.2833333333333,0.05833333333328028,90,39,,0,0
340.3421875,340.4010416666667,0.05885416666666288,90,41,,0,0
340.4604166666667,340.51979166666666,0.05937499999998863,93,39,,0,0
340.5796875,340.63958333333335,0.05989583333337123,93,40,,0,0
340.7,340.7651041666667,0.06510416666668561,98,39,,0,0
340.83125,342.9270833333333,2.095833333333303,98,43,,0,0
340.83125,342.9270833333333,2.095833333333303,90,43,,0,0
340.83125,342.9270833333333,2.095833333333303,86,43,,0,0
340.83125,342.9270833333333,2.095833333333303,74,34,,0,0
340.83125,342.9270833333333,2.095833333333303,81,34,,0,0
343.45104166666664,343.9947916666667,0.5437500000000455,62,45,,0,0
343.9947916666667,345.05833333333334,1.0635416666666515,58,44,,0,0
343.9947916666667,345.05833333333334,1.0635416666666515,55,44,,0,0
345.05885416666666,345.59270833333335,0.5338541666666856,60,39,,0,0
343.9947916666667,345.59270833333335,1.5979166666666629,67,49,,0,0
343.9947916666667,345.59270833333335,1.5979166666666629,51,39,,0,0
345.5932291666667,347.1958333333333,1.6026041666666515,58,38,,0,0
345.5932291666667,347.1958333333333,1.6026041666666515,62,44,,0,0
345.5932291666667,347.1958333333333,1.6026041666666515,53,36,,0,0
345.5932291666667,347.1958333333333,1.6026041666666515,46,32,,0,0
347.1958333333333,348.259375,1.0635416666666515,55,44,,0,0
348.259375,348.8255208333333,0.5661458333333371,57,43,,0,0
347.1958333333333,348.82604166666664,1.6302083333333144,63,52,,0,0
347.1958333333333,348.82604166666664,1.6302083333333144,48,39,,0,0
348.82604166666664,350.5255208333333,1.6994791666666629,55,41,,0,0
348.82604166666664,350.5255208333333,1.6994791666666629,58,44,,0,0
348.82604166666664,350.5255208333333,1.6994791666666629,50,36,,0,0
348.82604166666664,350.5255208333333,1.6994791666666629,43,32,,0,0
350.5260416666667,350.9203125,0.3942708333333371,63,44,,0,0
350.5260416666667,350.9203125,0.3942708333333371,60,39,,0,0
350.9203125,351.4661458333333,0.5458333333332916,64,46,,0,0
350.9203125,351.4661458333333,0.5458333333332916,61,36,,0,0
350.5260416666667,351.46666666666664,0.9406249999999545,68,49,,0,0
351.46666666666664,352.51197916666666,1.0453125000000227,68,49,,0,0
352.51197916666666,353.0630208333333,0.5510416666666629,67,43,,0,0
351.46666666666664,353.0630208333333,1.5963541666666856,63,44,,0,0
351.46666666666664,353.0630208333333,1.5963541666666856,60,39,,0,0
353.06354166666665,354.6661458333333,1.6026041666666515,67,49,,0,0
353.06354166666665,355.21979166666665,2.15625,63,49,,0,0
353.06354166666665,355.21979166666665,2.15625,60,39,,0,0
355.21979166666665,355.7885416666667,0.5687500000000227,62,35,,0,0
355.21979166666665,355.7885416666667,0.5687500000000227,58,30,,0,0
355.7890625,356.41041666666666,0.6213541666666629,60,30,,0,0
354.6661458333333,356.41041666666666,1.7442708333333599,66,39,,0,0
355.7890625,356.41041666666666,0.6213541666666629,57,26,,0,0
353.06354166666665,356.41041666666666,3.3468750000000114,50,32,,0,0
356.41041666666666,356.5286458333333,0.11822916666665151,55,59,,0,0
356.52916666666664,356.5880208333333,0.05885416666666288,62,31,,0,0
356.64739583333335,356.7036458333333,0.05624999999997726,62,47,,0,0
356.7604166666667,356.81666666666666,0.05624999999997726,62,35,,0,0
356.87291666666664,356.93072916666665,0.05781250000001137,63,53,,0,0
356.9890625,357.046875,0.05781250000001137,62,39,,0,0
357.1046875,357.16302083333335,0.05833333333333712,60,45,,0,0
357.22239583333334,357.2807291666667,0.05833333333333712,62,37,,0,0
357.34010416666666,357.3984375,0.05833333333333712,62,49,,0,0
357.4578125,357.5161458333333,0.05833333333333712,62,34,,0,0
357.5755208333333,357.63385416666665,0.05833333333333712,58,45,,0,0
357.69322916666664,357.7515625,0.05833333333333712,62,32,,0,0
357.81041666666664,357.9296875,0.11927083333335986,55,62,,0,0
357.9302083333333,357.9895833333333,0.05937499999998863,62,31,,0,0
358.0494791666667,358.10572916666666,0.05624999999997726,62,47,,0,0
358.1625,358.21875,0.05624999999997726,62,35,,0,0
358.275,358.33229166666666,0.057291666666685614,63,53,,0,0
358.3901041666667,358.4473958333333,0.05729166666662877,62,39,,0,0
358.5052083333333,358.56354166666665,0.05833333333333712,60,45,,0,0
358.6223958333333,358.68072916666665,0.05833333333333712,62,37,,0,0
358.7395833333333,358.79791666666665,0.05833333333333712,62,49,,0,0
358.8567708333333,358.91510416666665,0.05833333333333712,62,34,,0,0
358.9739583333333,359.03229166666665,0.05833333333333712,58,45,,0,0
359.0911458333333,359.14947916666665,0.05833333333333712,62,32,,0,0
359.2083333333333,359.33229166666666,0.12395833333334849,55,56,,0,0
359.33229166666666,359.39427083333334,0.061979166666674246,62,29,,0,0
359.33229166666666,359.39427083333334,0.061979166666674246,67,29,,0,0
359.45625,359.51666666666665,0.06041666666664014,63,47,,0,0
359.45625,359.51666666666665,0.06041666666664014,70,42,,0,0
359.57708333333335,359.6375,0.06041666666664014,62,29,,0,0
359.57708333333335,359.6375,0.06041666666664014,67,29,,0,0
359.6979166666667,359.7572916666667,0.05937499999998863,61,52,,0,0
359.6979166666667,359.7572916666667,0.05937499999998863,70,46,,0,0
359.8171875,359.87604166666665,0.05885416666666288,62,31,,0,0
359.8171875,359.87604166666665,0.05885416666666288,67,31,,0,0
359.9359375,359.9947916666667,0.05885416666666288,63,48,,0,0
359.9359375,359.9947916666667,0.05885416666666288,70,43,,0,0
360.05364583333335,360.1119791666667,0.05833333333333712,62,33,,0,0
360.05364583333335,360.1119791666667,0.05833333333333712,67,33,,0,0
360.1713541666667,360.2296875,0.05833333333333712,61,61,,0,0
360.1713541666667,360.2296875,0.05833333333333712,70,55,,0,0
360.28802083333335,360.3458333333333,0.057812499999954525,62,37,,0,0
360.28802083333335,360.3458333333333,0.057812499999954525,67,37,,0,0
360.4046875,360.4625,0.057812499999954525,63,59,,0,0
360.4046875,360.4625,0.057812499999954525,70,53,,0,0
360.5203125,360.5776041666667,0.057291666666685614,62,41,,0,0
360.5203125,360.5776041666667,0.057291666666685614,67,41,,0,0
360.6354166666667,360.75416666666666,0.11874999999997726,61,71,,0,0
360.6354166666667,360.75416666666666,0.11874999999997726,70,64,,0,0
360.7546875,360.8140625,0.05937499999998863,62,44,,0,0
360.7546875,360.8140625,0.05937499999998863,67,44,,0,0
360.8734375,360.93072916666665,0.05729166666662877,63,66,,0,0
360.8734375,360.93072916666665,0.05729166666662877,70,58,,0,0
360.98854166666666,361.0463541666667,0.05781250000001137,62,48,,0,0
360.98854166666666,361.0463541666667,0.05781250000001137,67,48,,0,0
361.1046875,361.16302083333335,0.05833333333333712,61,75,,0,0
361.1046875,361.16302083333335,0.05833333333333712,70,63,,0,0
361.221875,361.28020833333335,0.05833333333333712,62,54,,0,0
361.221875,361.28020833333335,0.05833333333333712,67,54,,0,0
361.33958333333334,361.3984375,0.05885416666666288,63,73,,0,0
361.33958333333334,361.3984375,0.05885416666666288,70,59,,0,0
361.4583333333333,361.5177083333333,0.05937499999998863,62,57,,0,0
361.4583333333333,361.5177083333333,0.05937499999998863,67,57,,0,0
361.578125,361.6380208333333,0.059895833333314386,61,80,,0,0
361.578125,361.6380208333333,0.059895833333314386,70,67,,0,0
361.69895833333334,361.759375,0.06041666666664014,62,63,,0,0
361.69895833333334,361.759375,0.06041666666664014,67,63,,0,0
361.8208333333333,361.88177083333335,0.06093750000002274,63,78,,0,0
361.8208333333333,361.88177083333335,0.06093750000002274,70,63,,0,0
361.94322916666664,362.0046875,0.06145833333334849,62,66,,0,0
361.94322916666664,362.0046875,0.06145833333334849,67,66,,0,0
362.0671875,363.5182291666667,1.451041666666697,79,86,,0,0
362.0671875,363.5182291666667,1.451041666666697,86,86,,0,0
362.0671875,363.5182291666667,1.451041666666697,91,103,,0,0
362.0671875,363.5182291666667,1.451041666666697,58,82,,0,0
362.0671875,363.5182291666667,1.451041666666697,50,69,,0,0
362.0671875,363.5182291666667,1.451041666666697,43,69,,0,0
363.5182291666667,365.83385416666664,2.3156249999999545,55,94,,0,0
363.5182291666667,365.83385416666664,2.3156249999999545,31,78,,0,0
