start,end,duration,pitch,velocity,instrument,instr program,midi channel
0.0,0.5,0.5,69,0,shadow,1,1
1.3411458333333335,1.4578125,0.11666666666666659,55,59,,0,0
1.4578125,1.5161458333333333,0.05833333333333335,62,31,,0,0
1.5744791666666667,1.6291666666666667,0.0546875,62,47,,0,0
1.6848958333333333,1.7395833333333333,0.0546875,62,35,,0,0
1.7953125,1.8510416666666667,0.05572916666666661,63,53,,0,0
1.9067708333333333,1.9625,0.05572916666666661,62,39,,0,0
2.018229166666667,2.075,0.056770833333333215,60,45,,0,0
2.1317708333333334,2.1885416666666666,0.056770833333333215,62,37,,0,0
2.2453125,2.302083333333333,0.056770833333333215,62,49,,0,0
2.3588541666666667,2.415625,0.056770833333333215,62,34,,0,0
2.4729166666666664,2.5296875,0.05677083333333344,58,45,,0,0
2.5864583333333333,2.6432291666666665,0.056770833333333215,62,32,,0,0
2.7,2.8166666666666664,0.11666666666666625,55,62,,0,0
2.8166666666666664,2.875,0.05833333333333357,62,31,,0,0
2.933333333333333,2.9885416666666664,0.055208333333333304,62,47,,0,0
3.0442708333333335,3.099479166666667,0.055208333333333304,62,35,,0,0
3.1546875,3.2104166666666667,0.05572916666666661,63,53,,0,0
3.2666666666666666,3.322395833333333,0.05572916666666661,62,39,,0,0
3.378645833333333,3.435416666666667,0.05677083333333366,60,45,,0,0
3.4921875,3.548958333333333,0.056770833333333215,62,37,,0,0
3.60625,3.6630208333333334,0.056770833333333215,62,49,,0,0
3.7197916666666666,3.7765625,0.056770833333333215,62,34,,0,0
3.8333333333333335,3.8901041666666667,0.056770833333333215,58,45,,0,0
3.946875,4.003645833333334,0.056770833333333215,62,32,,0,0
4.060416666666667,4.177083333333334,0.1166666666666667,55,62,,0,0
4.177083333333334,4.235416666666667,0.058333333333333126,62,31,,0,0
4.294270833333334,4.349479166666667,0.055208333333333304,62,46,,0,0
4.4046875,4.459895833333333,0.055208333333333304,62,35,,0,0
4.515625,4.571354166666667,0.05572916666666661,63,50,,0,0
4.627604166666667,4.683333333333334,0.05572916666666661,62,39,,0,0
4.7390625,4.7953125,0.05624999999999947,60,45,,0,0
4.852083333333333,4.908333333333333,0.056250000000000355,62,37,,0,0
4.965104166666666,5.021875,0.056770833333333215,62,52,,0,0
5.078645833333333,5.135416666666667,0.0567708333333341,62,40,,0,0
5.1921875,5.248958333333333,0.056770833333333215,58,48,,0,0
5.305729166666667,5.3625,0.056770833333333215,62,37,,0,0
5.419270833333333,5.476041666666666,0.056770833333333215,60,57,,0,0
5.5328125,5.589583333333334,0.056770833333333215,62,41,,0,0
5.646875,5.702083333333333,0.05520833333333375,57,49,,0,0
5.7578125,5.813020833333333,0.05520833333333286,62,35,,0,0
5.86875,5.923958333333333,0.05520833333333286,58,53,,0,0
5.980208333333334,6.035416666666666,0.05520833333333286,62,39,,0,0
6.091145833333333,6.146875,0.05572916666666661,60,49,,0,0
6.203645833333333,6.259375,0.055729166666667496,62,34,,0,0
6.316145833333334,6.372395833333333,0.05624999999999947,57,51,,0,0
6.429166666666666,6.4859375,0.0567708333333341,62,38,,0,0
6.542708333333334,6.599479166666667,0.056770833333333215,58,48,,0,0
6.657291666666667,6.715625,0.05833333333333357,62,37,,0,0
6.773958333333333,6.892708333333333,0.11875000000000036,55,59,,0,0
6.893229166666667,6.952604166666666,0.05937499999999929,62,30,,0,0
7.011979166666666,7.066666666666666,0.0546875,62,47,,0,0
7.122395833333333,7.177083333333333,0.0546875,62,35,,0,0
7.2328125,7.288541666666666,0.05572916666666661,63,50,,0,0
7.344270833333333,7.3999999999999995,0.05572916666666661,62,36,,0,0
7.455729166666667,7.5125,0.056770833333333215,60,45,,0,0
7.569270833333333,7.626041666666667,0.056770833333333215,62,31,,0,0
7.683333333333334,7.740104166666667,0.056770833333333215,62,51,,0,0
7.796875,7.853645833333333,0.056770833333333215,62,36,,0,0
7.910416666666666,7.9671875,0.056770833333333215,58,45,,0,0
8.023958333333333,8.080729166666668,0.0567708333333341,62,33,,0,0
8.1375,8.254166666666666,0.11666666666666625,55,62,,0,0
8.254166666666666,8.3125,0.05833333333333357,62,37,,0,0
8.370833333333334,8.425520833333334,0.0546875,62,50,,0,0
8.480729166666666,8.535416666666666,0.0546875,62,35,,0,0
8.590104166666666,8.645833333333334,0.055729166666667496,63,54,,0,0
8.702083333333333,8.7578125,0.055729166666667496,62,39,,0,0
8.8140625,8.870833333333334,0.056770833333333215,60,45,,0,0
8.927604166666667,8.984375,0.056770833333333215,62,37,,0,0
9.041145833333333,9.097916666666666,0.056770833333333215,62,49,,0,0
9.1546875,9.211458333333333,0.056770833333333215,62,34,,0,0
9.26875,9.325520833333334,0.056770833333333215,58,45,,0,0
9.382291666666667,9.4390625,0.056770833333333215,62,32,,0,0
9.495833333333334,9.6125,0.11666666666666714,55,62,,0,0
9.6125,9.670833333333333,0.058333333333331794,62,31,,0,0
9.729166666666666,9.784375,0.055208333333334636,62,47,,0,0
9.840104166666666,9.8953125,0.05520833333333286,62,35,,0,0
9.950520833333334,10.00625,0.05572916666666572,63,50,,0,0
10.0625,10.118229166666666,0.05572916666666572,62,39,,0,0
10.174479166666666,10.230729166666666,0.056250000000000355,60,45,,0,0
10.2875,10.34375,0.056250000000000355,62,37,,0,0
10.4,10.456770833333334,0.056770833333333215,62,52,,0,0
10.513541666666667,10.5703125,0.056770833333333215,62,40,,0,0
10.627604166666666,10.684375,0.056770833333333215,58,48,,0,0
10.741145833333333,10.797916666666666,0.056770833333333215,62,37,,0,0
10.8546875,10.911458333333334,0.056770833333333215,60,57,,0,0
10.968229166666667,11.025,0.056770833333333215,62,41,,0,0
11.081770833333334,11.136979166666666,0.05520833333333286,57,49,,0,0
11.193229166666667,11.2484375,0.05520833333333286,62,35,,0,0
11.304166666666667,11.359375,0.05520833333333286,58,56,,0,0
11.415104166666666,11.4703125,0.055208333333334636,62,43,,0,0
11.5265625,11.582291666666666,0.05572916666666572,55,51,,0,0
11.638541666666667,11.694270833333333,0.05572916666666572,62,37,,0,0
11.751041666666666,11.807291666666666,0.056250000000000355,53,56,,0,0
11.8640625,11.920833333333333,0.056770833333333215,62,44,,0,0
11.978125,12.035416666666666,0.057291666666666075,51,53,,0,0
12.094270833333333,12.153645833333334,0.059375000000001066,62,39,,0,0
12.213020833333333,12.330729166666666,0.11770833333333286,50,59,,0,0
12.33125,12.390104166666667,0.05885416666666643,62,31,,0,0
12.449479166666666,12.503645833333334,0.05416666666666714,62,47,,0,0
12.558333333333334,12.6125,0.05416666666666714,62,35,,0,0
12.667708333333334,12.7234375,0.05572916666666572,63,53,,0,0
12.779166666666667,12.834895833333333,0.05572916666666572,62,39,,0,0
12.890625,12.947395833333333,0.056770833333333215,60,45,,0,0
13.004166666666666,13.0609375,0.056770833333333215,62,37,,0,0
13.117708333333333,13.174479166666666,0.056770833333333215,62,49,,0,0
13.231770833333334,13.288541666666667,0.056770833333333215,62,34,,0,0
13.3453125,13.402083333333334,0.056770833333333215,57,45,,0,0
13.458854166666667,13.515625,0.056770833333333215,62,32,,0,0
13.572395833333333,13.6890625,0.11666666666666714,50,62,,0,0
13.6890625,13.747395833333334,0.05833333333333357,62,31,,0,0
13.805729166666666,13.860416666666666,0.0546875,62,47,,0,0
13.915625,13.9703125,0.0546875,62,35,,0,0
14.025520833333333,14.081249999999999,0.05572916666666572,63,53,,0,0
14.1375,14.193229166666667,0.055729166666667496,62,39,,0,0
14.249479166666667,14.30625,0.056770833333333215,60,45,,0,0
14.363020833333334,14.419791666666667,0.056770833333333215,62,37,,0,0
14.477083333333333,14.533854166666666,0.056770833333333215,62,49,,0,0
14.590625,14.647395833333333,0.056770833333333215,62,34,,0,0
14.704166666666666,14.760937499999999,0.056770833333333215,57,45,,0,0
14.817708333333334,14.874479166666667,0.056770833333333215,62,32,,0,0
14.93125,15.047916666666666,0.11666666666666536,50,62,,0,0
15.0484375,15.106770833333334,0.05833333333333357,62,31,,0,0
15.165104166666666,15.2203125,0.055208333333334636,57,47,,0,0
15.275520833333333,15.330729166666666,0.05520833333333286,62,35,,0,0
15.386458333333334,15.4421875,0.05572916666666572,60,52,,0,0
15.4984375,15.554166666666667,0.055729166666667496,62,39,,0,0
15.610416666666666,15.666666666666666,0.056250000000000355,62,51,,0,0
15.722916666666666,15.779166666666667,0.056250000000000355,62,37,,0,0
15.8359375,15.892708333333333,0.056770833333333215,63,56,,0,0
15.949479166666666,16.00625,0.056770833333333215,62,44,,0,0
16.063020833333333,16.119791666666664,0.056770833333333215,65,53,,0,0
16.1765625,16.233333333333334,0.056770833333333215,62,41,,0,0
16.290104166666666,16.346874999999997,0.056770833333333215,62,56,,0,0
16.40416666666667,16.4609375,0.056770833333333215,62,48,,0,0
16.51770833333333,16.572916666666668,0.05520833333333641,63,52,,0,0
16.628645833333334,16.683854166666666,0.05520833333333286,62,42,,0,0
16.739583333333332,16.794791666666665,0.05520833333333286,60,54,,0,0
16.851041666666667,16.90625,0.05520833333333286,62,47,,0,0
16.961979166666666,17.01770833333333,0.05572916666666572,62,49,,0,0
17.074479166666666,17.130208333333332,0.05572916666666572,62,41,,0,0
17.186979166666667,17.243229166666666,0.05624999999999858,58,51,,0,0
17.3,17.356770833333332,0.05677083333333144,62,43,,0,0
17.413541666666667,17.4703125,0.05677083333333144,57,48,,0,0
17.528125,17.585416666666667,0.05729166666666785,62,37,,0,0
17.643229166666668,17.7609375,0.11770833333333286,50,59,,0,0
17.761458333333334,17.8203125,0.05885416666666643,62,31,,0,0
17.879166666666666,17.933854166666666,0.0546875,62,47,,0,0
17.989583333333332,18.044270833333332,0.0546875,62,35,,0,0
18.1,18.155729166666667,0.05572916666666572,63,53,,0,0
18.211458333333333,18.2671875,0.05572916666666572,62,39,,0,0
18.322916666666668,18.3796875,0.05677083333333144,60,45,,0,0
18.436458333333334,18.493229166666666,0.05677083333333144,62,37,,0,0
18.550520833333334,18.607291666666665,0.05677083333333144,62,49,,0,0
18.6640625,18.72083333333333,0.05677083333333144,62,34,,0,0
18.777604166666666,18.834375,0.05677083333333499,57,45,,0,0
18.891145833333333,18.947916666666668,0.05677083333333499,62,32,,0,0
19.0046875,19.121354166666666,0.11666666666666714,50,62,,0,0
19.121354166666666,19.1796875,0.05833333333333357,62,31,,0,0
19.238541666666666,19.29375,0.05520833333333286,62,47,,0,0
19.348958333333332,19.404166666666665,0.05520833333333286,62,35,,0,0
19.459895833333334,19.515625,0.05572916666666572,63,53,,0,0
19.571875,19.627604166666668,0.05572916666666927,62,39,,0,0
19.683854166666666,19.740625,0.05677083333333499,60,45,,0,0
19.797395833333333,19.854166666666668,0.05677083333333499,62,37,,0,0
19.9109375,19.967708333333334,0.05677083333333499,62,49,,0,0
20.024479166666666,20.08125,0.05677083333333499,62,34,,0,0
20.138020833333332,20.194791666666667,0.05677083333333499,57,45,,0,0
20.2515625,20.308333333333334,0.05677083333333499,62,32,,0,0
20.365625,20.482291666666665,0.11666666666666359,50,62,,0,0
20.482291666666665,20.540625,0.05833333333333357,62,31,,0,0
20.598958333333332,20.654166666666665,0.05520833333333286,60,47,,0,0
20.709375,20.764583333333334,0.05520833333333286,62,35,,0,0
20.8203125,20.876041666666666,0.05572916666666572,62,52,,0,0
20.932291666666668,20.988020833333334,0.05572916666666572,62,39,,0,0
21.044270833333332,21.100520833333334,0.05625000000000213,63,51,,0,0
21.156770833333333,21.21302083333333,0.05624999999999858,62,37,,0,0
21.269791666666666,21.3265625,0.05677083333333499,65,56,,0,0
21.383333333333333,21.440104166666668,0.05677083333333499,62,44,,0,0
21.496875,21.553645833333334,0.05677083333333499,62,53,,0,0
21.610416666666666,21.6671875,0.05677083333333499,62,41,,0,0
21.724479166666665,21.78125,0.05677083333333499,63,59,,0,0
21.83802083333333,21.894791666666666,0.05677083333333499,62,48,,0,0
21.9515625,22.006770833333334,0.05520833333333286,60,52,,0,0
22.0625,22.117708333333333,0.05520833333333286,62,42,,0,0
22.17395833333333,22.229166666666668,0.05520833333333641,62,54,,0,0
22.284895833333334,22.340104166666666,0.05520833333333286,62,47,,0,0
22.395833333333332,22.452083333333334,0.05625000000000213,58,49,,0,0
22.508854166666666,22.565625,0.05677083333333499,62,41,,0,0
22.622916666666665,22.680208333333333,0.05729166666666785,60,51,,0,0
22.738020833333334,22.795833333333334,0.05781250000000071,62,43,,0,0
22.855208333333334,22.9140625,0.05885416666666643,57,48,,0,0
22.972916666666666,23.032291666666666,0.05937499999999929,62,37,,0,0
23.091145833333332,23.208333333333332,0.1171875,55,64,,0,0
23.208333333333332,23.266666666666666,0.05833333333333357,62,34,,0,0
23.208333333333332,23.266666666666666,0.05833333333333357,74,44,,0,0
23.325520833333332,23.379166666666666,0.05364583333333428,62,51,,0,0
23.433854166666666,23.4875,0.05364583333333428,62,38,,0,0
23.433854166666666,23.4875,0.05364583333333428,74,49,,0,0
23.5421875,23.597916666666666,0.05572916666666572,63,58,,0,0
23.653645833333332,23.709375,0.05572916666666927,62,42,,0,0
23.653645833333332,23.709375,0.05572916666666927,74,54,,0,0
23.765104166666667,23.821875,0.05677083333333144,60,49,,0,0
23.878645833333334,23.935416666666665,0.05677083333333144,62,40,,0,0
23.878645833333334,23.935416666666665,0.05677083333333144,74,52,,0,0
23.992708333333333,24.049479166666668,0.05677083333333499,62,53,,0,0
24.10625,24.163020833333334,0.05677083333333499,62,37,,0,0
24.10625,24.163020833333334,0.05677083333333499,74,48,,0,0
24.219791666666666,24.2765625,0.05677083333333499,58,49,,0,0
24.333333333333332,24.390104166666667,0.05677083333333499,62,35,,0,0
24.333333333333332,24.390104166666667,0.05677083333333499,74,45,,0,0
24.446875,24.563541666666666,0.11666666666666714,55,68,,0,0
24.563541666666666,24.621875,0.05833333333333357,74,44,,0,0
24.563541666666666,24.621875,0.05833333333333357,62,34,,0,0
24.680729166666666,24.734375,0.05364583333333428,62,51,,0,0
24.7890625,24.842708333333334,0.05364583333333428,62,38,,0,0
24.7890625,24.842708333333334,0.05364583333333428,74,49,,0,0
24.896875,24.952604166666667,0.05572916666666572,63,58,,0,0
25.008854166666666,25.06458333333333,0.05572916666666572,62,42,,0,0
25.008854166666666,25.06458333333333,0.05572916666666572,74,54,,0,0
25.120833333333334,25.177604166666665,0.05677083333333144,60,49,,0,0
25.234895833333333,25.291666666666668,0.05677083333333499,62,40,,0,0
25.234895833333333,25.291666666666668,0.05677083333333499,74,52,,0,0
25.3484375,25.405208333333334,0.05677083333333499,62,53,,0,0
25.461979166666666,25.51875,0.05677083333333499,74,48,,0,0
25.461979166666666,25.51875,0.05677083333333499,62,37,,0,0
25.575520833333332,25.632291666666667,0.05677083333333499,58,49,,0,0
25.6890625,25.745833333333334,0.05677083333333499,62,35,,0,0
25.6890625,25.745833333333334,0.05677083333333499,74,45,,0,0
25.802604166666665,25.919270833333332,0.11666666666666714,55,68,,0,0
25.919791666666665,25.978125,0.05833333333333357,62,34,,0,0
25.919791666666665,25.978125,0.05833333333333357,74,44,,0,0
26.036458333333332,26.091666666666665,0.05520833333333286,62,51,,0,0
26.146874999999998,26.202083333333334,0.05520833333333641,62,38,,0,0
26.146874999999998,26.202083333333334,0.05520833333333641,74,49,,0,0
26.2578125,26.313541666666666,0.05572916666666572,63,55,,0,0
26.369791666666668,26.425520833333334,0.05572916666666572,62,42,,0,0
26.369791666666668,26.425520833333334,0.05572916666666572,74,54,,0,0
26.481770833333332,26.538020833333334,0.05625000000000213,60,49,,0,0
26.594270833333333,26.65052083333333,0.05624999999999858,62,40,,0,0
26.594270833333333,26.65052083333333,0.05624999999999858,74,52,,0,0
26.707291666666666,26.764062499999998,0.05677083333333144,62,57,,0,0
26.820833333333333,26.877604166666668,0.05677083333333499,74,57,,0,0
26.820833333333333,26.877604166666668,0.05677083333333499,62,44,,0,0
26.934375,26.991145833333334,0.05677083333333499,58,52,,0,0
27.047916666666666,27.1046875,0.05677083333333499,62,40,,0,0
27.047916666666666,27.1046875,0.05677083333333499,74,52,,0,0
27.161458333333332,27.218229166666667,0.05677083333333499,60,62,,0,0
27.27552083333333,27.332291666666666,0.05677083333333499,62,45,,0,0
27.27552083333333,27.332291666666666,0.05677083333333499,74,58,,0,0
27.389062499999998,27.444270833333334,0.05520833333333641,57,53,,0,0
27.5,27.555208333333333,0.05520833333333286,62,38,,0,0
27.5,27.555208333333333,0.05520833333333286,74,49,,0,0
27.6109375,27.66614583333333,0.05520833333333286,58,58,,0,0
27.722395833333334,27.777604166666666,0.05520833333333286,74,54,,0,0
27.722395833333334,27.777604166666666,0.05520833333333286,62,42,,0,0
27.833333333333332,27.889062499999998,0.05572916666666572,60,53,,0,0
27.945833333333333,28.0015625,0.05572916666666572,74,48,,0,0
27.945833333333333,28.0015625,0.05572916666666572,62,37,,0,0
28.058333333333334,28.114583333333332,0.05624999999999858,57,56,,0,0
28.171354166666667,28.228125,0.05677083333333144,62,41,,0,0
28.171354166666667,28.228125,0.05677083333333144,74,53,,0,0
28.284895833333334,28.341666666666665,0.05677083333333144,58,52,,0,0
28.399479166666666,28.459895833333334,0.06041666666666856,62,40,,0,0
28.399479166666666,28.459895833333334,0.06041666666666856,74,52,,0,0
28.520833333333332,28.6375,0.11666666666666714,55,64,,0,0
28.6375,28.695833333333333,0.05833333333333357,62,34,,0,0
28.6375,28.695833333333333,0.05833333333333357,74,44,,0,0
28.754166666666666,28.808854166666666,0.0546875,62,51,,0,0
28.864583333333332,28.919270833333332,0.0546875,74,49,,0,0
28.864583333333332,28.919270833333332,0.0546875,62,38,,0,0
28.974999999999998,29.030729166666667,0.05572916666666927,63,58,,0,0
29.086458333333333,29.1421875,0.05572916666666572,62,42,,0,0
29.086458333333333,29.1421875,0.05572916666666572,74,54,,0,0
29.197916666666668,29.2546875,0.05677083333333144,60,49,,0,0
29.311458333333334,29.368229166666666,0.05677083333333144,62,40,,0,0
29.311458333333334,29.368229166666666,0.05677083333333144,74,52,,0,0
29.425520833333334,29.482291666666665,0.05677083333333144,62,53,,0,0
29.5390625,29.59583333333333,0.05677083333333144,62,37,,0,0
29.5390625,29.59583333333333,0.05677083333333144,74,48,,0,0
29.652604166666666,29.709374999999998,0.05677083333333144,58,49,,0,0
29.766145833333333,29.822916666666668,0.05677083333333499,62,35,,0,0
29.766145833333333,29.822916666666668,0.05677083333333499,74,45,,0,0
29.8796875,29.996354166666666,0.11666666666666714,55,68,,0,0
29.996354166666666,30.0546875,0.05833333333333357,62,34,,0,0
29.996354166666666,30.0546875,0.05833333333333357,74,44,,0,0
30.113541666666666,30.16875,0.05520833333333286,62,51,,0,0
30.223958333333332,30.279166666666665,0.05520833333333286,62,38,,0,0
30.223958333333332,30.279166666666665,0.05520833333333286,74,49,,0,0
30.334895833333334,30.390625,0.05572916666666572,63,58,,0,0
30.446875,30.502604166666668,0.05572916666666927,62,42,,0,0
30.446875,30.502604166666668,0.05572916666666927,74,54,,0,0
30.558333333333334,30.615104166666665,0.05677083333333144,60,49,,0,0
30.672395833333333,30.729166666666668,0.05677083333333499,62,40,,0,0
30.672395833333333,30.729166666666668,0.05677083333333499,74,52,,0,0
30.7859375,30.842708333333334,0.05677083333333499,62,53,,0,0
30.899479166666666,30.95625,0.05677083333333499,62,37,,0,0
30.899479166666666,30.95625,0.05677083333333499,74,48,,0,0
31.013020833333332,31.069791666666667,0.05677083333333499,58,49,,0,0
31.1265625,31.183333333333334,0.05677083333333499,62,35,,0,0
31.1265625,31.183333333333334,0.05677083333333499,74,45,,0,0
31.240624999999998,31.357291666666665,0.11666666666666714,55,68,,0,0
31.357291666666665,31.415625,0.05833333333333357,74,44,,0,0
31.357291666666665,31.415625,0.05833333333333357,62,34,,0,0
31.473958333333332,31.529166666666665,0.05520833333333286,62,51,,0,0
31.584374999999998,31.639583333333334,0.05520833333333641,62,38,,0,0
31.584374999999998,31.639583333333334,0.05520833333333641,74,49,,0,0
31.6953125,31.751041666666666,0.05572916666666572,63,55,,0,0
31.807291666666668,31.863020833333334,0.05572916666666572,62,42,,0,0
31.807291666666668,31.863020833333334,0.05572916666666572,74,54,,0,0
31.919270833333332,31.975520833333334,0.05625000000000213,60,49,,0,0
32.03177083333333,32.08802083333333,0.05624999999999858,62,40,,0,0
32.03177083333333,32.08802083333333,0.05624999999999858,74,52,,0,0
32.14479166666666,32.201562499999994,0.05677083333333144,62,57,,0,0
32.25833333333333,32.31510416666667,0.05677083333333499,74,57,,0,0
32.25833333333333,32.31510416666667,0.05677083333333499,62,44,,0,0
32.371875,32.428645833333334,0.05677083333333499,58,52,,0,0
32.485416666666666,32.5421875,0.05677083333333144,74,52,,0,0
32.485416666666666,32.5421875,0.05677083333333144,62,40,,0,0
32.59947916666667,32.65625,0.05677083333333144,60,62,,0,0
32.71302083333333,32.76979166666666,0.05677083333333144,62,45,,0,0
32.71302083333333,32.76979166666666,0.05677083333333144,74,58,,0,0
32.8265625,32.88125,0.0546875,57,53,,0,0
32.936458333333334,32.991145833333334,0.0546875,62,38,,0,0
32.936458333333334,32.991145833333334,0.0546875,74,49,,0,0
33.04635416666667,33.1015625,0.05520833333333286,58,60,,0,0
33.157291666666666,33.2125,0.05520833333333286,62,48,,0,0
33.157291666666666,33.2125,0.05520833333333286,74,62,,0,0
33.26875,33.32447916666666,0.05572916666666572,55,58,,0,0
33.38072916666667,33.436458333333334,0.05572916666666572,74,54,,0,0
33.38072916666667,33.436458333333334,0.05572916666666572,62,42,,0,0
33.493229166666666,33.549479166666664,0.05624999999999858,53,64,,0,0
33.606770833333336,33.6640625,0.0572916666666643,62,51,,0,0
33.606770833333336,33.6640625,0.0572916666666643,74,66,,0,0
33.72239583333333,33.78125,0.05885416666666998,51,62,,0,0
33.841145833333336,33.901041666666664,0.059895833333328596,62,45,,0,0
33.841145833333336,33.901041666666664,0.059895833333328596,74,58,,0,0
33.9625,34.079166666666666,0.11666666666666714,38,71,,0,0
33.9625,34.079166666666666,0.11666666666666714,50,84,,0,0
34.079166666666666,34.146875,0.0677083333333357,74,70,,0,0
34.079166666666666,34.146875,0.0677083333333357,78,70,,0,0
34.079166666666666,34.146875,0.0677083333333357,81,83,,0,0
34.079166666666666,34.146875,0.0677083333333357,86,83,,0,0
34.21510416666666,34.26979166666666,0.0546875,62,56,,0,0
34.32447916666666,34.37916666666666,0.0546875,62,42,,0,0
34.32447916666666,34.37916666666666,0.0546875,74,54,,0,0
34.43385416666666,34.489583333333336,0.055729166666672825,63,63,,0,0
34.545833333333334,34.6015625,0.05572916666666572,74,59,,0,0
34.545833333333334,34.6015625,0.05572916666666572,62,46,,0,0
34.657291666666666,34.7140625,0.05677083333333144,60,54,,0,0
34.770833333333336,34.82760416666667,0.05677083333333144,62,44,,0,0
34.770833333333336,34.82760416666667,0.05677083333333144,74,57,,0,0
34.884375,34.94114583333333,0.05677083333333144,62,58,,0,0
34.99791666666667,35.0546875,0.05677083333333144,62,40,,0,0
34.99791666666667,35.0546875,0.05677083333333144,74,52,,0,0
35.11145833333333,35.16822916666666,0.05677083333333144,57,54,,0,0
35.225520833333334,35.282291666666666,0.05677083333333144,62,38,,0,0
35.225520833333334,35.282291666666666,0.05677083333333144,74,49,,0,0
35.3390625,35.455729166666664,0.11666666666666714,50,88,,0,0
35.3390625,35.455729166666664,0.11666666666666714,38,74,,0,0
35.455729166666664,35.522395833333334,0.06666666666666998,86,85,,0,0
35.455729166666664,35.522395833333334,0.06666666666666998,78,72,,0,0
35.455729166666664,35.522395833333334,0.06666666666666998,74,72,,0,0
35.455729166666664,35.522395833333334,0.06666666666666998,81,85,,0,0
35.58958333333333,35.64427083333333,0.0546875,62,56,,0,0
35.69947916666666,35.75416666666666,0.0546875,62,42,,0,0
35.69947916666666,35.75416666666666,0.0546875,74,54,,0,0
35.809375,35.86510416666667,0.05572916666666572,63,63,,0,0
35.92135416666667,35.97708333333333,0.05572916666666572,62,46,,0,0
35.92135416666667,35.97708333333333,0.05572916666666572,74,59,,0,0
36.03333333333333,36.09010416666666,0.05677083333333144,60,54,,0,0
36.146875,36.20364583333333,0.05677083333333144,62,44,,0,0
36.146875,36.20364583333333,0.05677083333333144,74,57,,0,0
36.260416666666664,36.3171875,0.056770833333338544,62,58,,0,0
36.373958333333334,36.430729166666666,0.05677083333333144,62,40,,0,0
36.373958333333334,36.430729166666666,0.05677083333333144,74,52,,0,0
36.48802083333333,36.54479166666667,0.056770833333338544,57,54,,0,0
36.6015625,36.65833333333333,0.05677083333333144,62,38,,0,0
36.6015625,36.65833333333333,0.05677083333333144,74,49,,0,0
36.71510416666666,36.83177083333333,0.11666666666666714,50,88,,0,0
36.71510416666666,36.83177083333333,0.11666666666666714,38,74,,0,0
36.83177083333333,36.897395833333334,0.06562500000000426,81,83,,0,0
36.83177083333333,36.897395833333334,0.06562500000000426,86,83,,0,0
36.83177083333333,36.897395833333334,0.06562500000000426,74,70,,0,0
36.83177083333333,36.897395833333334,0.06562500000000426,78,70,,0,0
36.9640625,37.01875,0.0546875,57,56,,0,0
37.07395833333333,37.12864583333333,0.0546875,62,42,,0,0
37.07395833333333,37.12864583333333,0.0546875,74,54,,0,0
37.18385416666666,37.239583333333336,0.055729166666672825,60,62,,0,0
37.295833333333334,37.3515625,0.05572916666666572,74,59,,0,0
37.295833333333334,37.3515625,0.05572916666666572,62,46,,0,0
37.4078125,37.4640625,0.05624999999999858,62,61,,0,0
37.5203125,37.5765625,0.05624999999999858,62,44,,0,0
37.5203125,37.5765625,0.05624999999999858,74,57,,0,0
37.63333333333333,37.690104166666664,0.05677083333333144,63,67,,0,0
37.746875,37.803645833333334,0.05677083333333144,62,52,,0,0
37.746875,37.803645833333334,0.05677083333333144,74,67,,0,0
37.860416666666666,37.9171875,0.05677083333333144,65,63,,0,0
37.973958333333336,38.03072916666667,0.05677083333333144,62,49,,0,0
37.973958333333336,38.03072916666667,0.05677083333333144,74,63,,0,0
38.0875,38.14427083333333,0.05677083333333144,62,70,,0,0
38.2015625,38.25833333333333,0.05677083333333144,74,70,,0,0
38.2015625,38.25833333333333,0.05677083333333144,62,54,,0,0
38.315104166666664,38.3703125,0.05520833333333286,63,62,,0,0
38.42604166666666,38.48125,0.055208333333339965,62,50,,0,0
38.42604166666666,38.48125,0.055208333333339965,74,65,,0,0
38.53697916666667,38.5921875,0.05520833333333286,60,64,,0,0
38.6484375,38.70364583333333,0.05520833333333286,62,54,,0,0
38.6484375,38.70364583333333,0.05520833333333286,74,69,,0,0
38.759375,38.815104166666664,0.05572916666666572,62,58,,0,0
38.871875,38.92760416666667,0.05572916666666572,62,49,,0,0
38.871875,38.92760416666667,0.05572916666666572,74,63,,0,0
38.984375,39.040625,0.05624999999999858,58,61,,0,0
39.09739583333333,39.15416666666667,0.056770833333338544,62,51,,0,0
39.09739583333333,39.15416666666667,0.056770833333338544,74,66,,0,0
39.2109375,39.26770833333333,0.05677083333333144,57,57,,0,0
39.325520833333336,39.3828125,0.0572916666666643,62,44,,0,0
39.325520833333336,39.3828125,0.0572916666666643,74,57,,0,0
39.440625,39.557291666666664,0.11666666666666714,50,84,,0,0
39.440625,39.557291666666664,0.11666666666666714,38,71,,0,0
39.557291666666664,39.625,0.0677083333333357,86,83,,0,0
39.557291666666664,39.625,0.0677083333333357,81,83,,0,0
39.557291666666664,39.625,0.0677083333333357,74,70,,0,0
39.557291666666664,39.625,0.0677083333333357,78,70,,0,0
39.69375,39.7484375,0.0546875,62,56,,0,0
39.803125,39.8578125,0.0546875,62,42,,0,0
39.803125,39.8578125,0.0546875,74,54,,0,0
39.9125,39.96822916666667,0.05572916666666572,63,63,,0,0
40.02395833333333,40.0796875,0.05572916666666572,62,46,,0,0
40.02395833333333,40.0796875,0.05572916666666572,74,59,,0,0
40.1359375,40.192708333333336,0.056770833333338544,60,54,,0,0
40.24947916666667,40.30625,0.05677083333333144,74,57,,0,0
40.24947916666667,40.30625,0.05677083333333144,62,44,,0,0
40.36302083333333,40.41979166666667,0.056770833333338544,62,58,,0,0
40.4765625,40.53333333333333,0.05677083333333144,74,52,,0,0
40.4765625,40.53333333333333,0.05677083333333144,62,40,,0,0
40.59010416666666,40.646875,0.056770833333338544,57,54,,0,0
40.704166666666666,40.7609375,0.05677083333333144,62,38,,0,0
40.704166666666666,40.7609375,0.05677083333333144,74,49,,0,0
40.817708333333336,40.934375,0.11666666666666714,38,74,,0,0
40.817708333333336,40.934375,0.11666666666666714,50,88,,0,0
40.934375,41.00208333333333,0.0677083333333286,81,85,,0,0
40.934375,41.00208333333333,0.0677083333333286,78,72,,0,0
40.934375,41.00208333333333,0.0677083333333286,74,72,,0,0
40.934375,41.00208333333333,0.0677083333333286,86,85,,0,0
41.06979166666667,41.12447916666667,0.0546875,62,56,,0,0
41.1796875,41.234375,0.0546875,74,54,,0,0
41.1796875,41.234375,0.0546875,62,42,,0,0
41.2890625,41.344791666666666,0.05572916666666572,63,63,,0,0
41.401041666666664,41.45677083333333,0.05572916666666572,62,46,,0,0
41.401041666666664,41.45677083333333,0.05572916666666572,74,59,,0,0
41.513020833333336,41.56979166666667,0.05677083333333144,60,54,,0,0
41.6265625,41.68333333333333,0.05677083333333144,62,44,,0,0
41.6265625,41.68333333333333,0.05677083333333144,74,57,,0,0
41.74010416666667,41.796875,0.05677083333333144,62,58,,0,0
41.85364583333333,41.91041666666666,0.05677083333333144,62,40,,0,0
41.85364583333333,41.91041666666666,0.05677083333333144,74,52,,0,0
41.9671875,42.02395833333333,0.05677083333333144,57,54,,0,0
42.08125,42.138020833333336,0.056770833333338544,62,38,,0,0
42.08125,42.138020833333336,0.056770833333338544,74,49,,0,0
42.19479166666667,42.311458333333334,0.11666666666666714,38,74,,0,0
42.19479166666667,42.311458333333334,0.11666666666666714,50,88,,0,0
42.311458333333334,42.37916666666666,0.0677083333333286,86,83,,0,0
42.311458333333334,42.37916666666666,0.0677083333333286,78,70,,0,0
42.311458333333334,42.37916666666666,0.0677083333333286,74,70,,0,0
42.311458333333334,42.37916666666666,0.0677083333333286,81,83,,0,0
42.447916666666664,42.503125,0.05520833333333286,57,56,,0,0
42.55833333333333,42.61354166666666,0.05520833333333286,62,42,,0,0
42.55833333333333,42.61354166666666,0.05520833333333286,74,54,,0,0
42.669270833333336,42.725,0.05572916666666572,60,62,,0,0
42.78125,42.836979166666666,0.05572916666666572,62,46,,0,0
42.78125,42.836979166666666,0.05572916666666572,74,59,,0,0
42.893229166666664,42.94947916666666,0.05624999999999858,62,61,,0,0
43.00572916666667,43.06197916666667,0.05624999999999858,62,44,,0,0
43.00572916666667,43.06197916666667,0.05624999999999858,74,57,,0,0
43.11875,43.17552083333333,0.05677083333333144,63,67,,0,0
43.23229166666667,43.2890625,0.05677083333333144,74,64,,0,0
43.23229166666667,43.2890625,0.05677083333333144,62,50,,0,0
43.34583333333333,43.40260416666666,0.05677083333333144,65,63,,0,0
43.459375,43.51614583333333,0.05677083333333144,62,49,,0,0
43.459375,43.51614583333333,0.05677083333333144,74,63,,0,0
43.5734375,43.630208333333336,0.056770833333338544,62,70,,0,0
43.68697916666667,43.74375,0.05677083333333144,62,54,,0,0
43.68697916666667,43.74375,0.05677083333333144,74,70,,0,0
43.80052083333333,43.85520833333333,0.0546875,63,62,,0,0
43.9109375,43.965625,0.0546875,62,50,,0,0
43.9109375,43.965625,0.0546875,74,65,,0,0
44.020833333333336,44.0765625,0.05572916666666572,60,74,,0,0
44.1328125,44.188541666666666,0.05572916666666572,62,56,,0,0
44.1328125,44.188541666666666,0.05572916666666572,74,72,,0,0
44.244791666666664,44.3015625,0.056770833333338544,62,69,,0,0
44.35885416666667,44.41614583333333,0.0572916666666643,62,52,,0,0
44.35885416666667,44.41614583333333,0.0572916666666643,74,67,,0,0
44.4734375,44.53125,0.05781249999999716,58,75,,0,0
44.59010416666666,44.6484375,0.05833333333333712,62,60,,0,0
44.59010416666666,44.6484375,0.05833333333333712,74,77,,0,0
44.70729166666666,44.76614583333333,0.05885416666666998,62,70,,0,0
44.825520833333336,44.88489583333333,0.05937499999999574,62,59,,0,0
44.825520833333336,44.88489583333333,0.05937499999999574,74,76,,0,0
44.975520833333334,45.10729166666667,0.13177083333333428,31,80,,0,0
44.975520833333334,45.10729166666667,0.13177083333333428,43,95,,0,0
45.1078125,45.18697916666667,0.07916666666666572,79,76,,0,0
45.1078125,45.18697916666667,0.07916666666666572,82,76,,0,0
45.1078125,45.18697916666667,0.07916666666666572,86,76,,0,0
45.1078125,45.18697916666667,0.07916666666666572,91,91,,0,0
45.266666666666666,45.3203125,0.05364583333333428,62,70,,0,0
45.375,45.428645833333334,0.05364583333333428,74,68,,0,0
45.375,45.428645833333334,0.05364583333333428,62,52,,0,0
45.483333333333334,45.5390625,0.05572916666666572,63,78,,0,0
45.594791666666666,45.65052083333333,0.05572916666666572,62,57,,0,0
45.594791666666666,45.65052083333333,0.05572916666666572,74,74,,0,0
45.70625,45.763020833333336,0.056770833333338544,60,67,,0,0
45.81979166666667,45.8765625,0.05677083333333144,62,54,,0,0
45.81979166666667,45.8765625,0.05677083333333144,74,70,,0,0
45.93333333333333,45.99010416666667,0.056770833333338544,62,72,,0,0
46.04739583333333,46.104166666666664,0.05677083333333144,62,50,,0,0
46.04739583333333,46.104166666666664,0.05677083333333144,74,65,,0,0
46.1609375,46.217708333333334,0.05677083333333144,58,67,,0,0
46.274479166666666,46.33125,0.05677083333333144,74,60,,0,0
46.274479166666666,46.33125,0.05677083333333144,62,47,,0,0
46.388020833333336,46.5046875,0.11666666666666714,43,94,,0,0
46.388020833333336,46.5046875,0.11666666666666714,31,79,,0,0
46.5046875,46.626041666666666,0.12135416666666288,91,93,,0,0
46.5046875,46.626041666666666,0.12135416666666288,82,79,,0,0
46.5046875,46.626041666666666,0.12135416666666288,79,79,,0,0
46.5046875,46.626041666666666,0.12135416666666288,86,79,,0,0
46.70520833333333,46.759375,0.05416666666666714,62,70,,0,0
46.8140625,46.868229166666666,0.05416666666666714,62,52,,0,0
46.8140625,46.868229166666666,0.05416666666666714,74,68,,0,0
46.90052083333333,46.9359375,0.03541666666666998,63,78,,0,0
46.9921875,47.047916666666666,0.05572916666666572,62,57,,0,0
46.9921875,47.047916666666666,0.05572916666666572,74,74,,0,0
47.104166666666664,47.1609375,0.056770833333338544,60,67,,0,0
47.217708333333334,47.274479166666666,0.05677083333333144,62,54,,0,0
47.217708333333334,47.274479166666666,0.05677083333333144,74,70,,0,0
47.33125,47.388020833333336,0.056770833333338544,62,72,,0,0
47.44479166666667,47.5015625,0.05677083333333144,74,65,,0,0
47.44479166666667,47.5015625,0.05677083333333144,62,50,,0,0
47.55833333333333,47.61510416666667,0.056770833333338544,58,67,,0,0
47.67239583333333,47.729166666666664,0.05677083333333144,62,47,,0,0
47.67239583333333,47.729166666666664,0.05677083333333144,74,60,,0,0
47.7859375,47.90260416666666,0.11666666666666003,43,93,,0,0
47.7859375,47.90260416666666,0.11666666666666003,31,79,,0,0
47.90260416666666,47.98072916666666,0.078125,86,76,,0,0
47.90260416666666,47.98072916666666,0.078125,91,91,,0,0
47.90260416666666,47.98072916666666,0.078125,79,76,,0,0
47.90260416666666,47.98072916666666,0.078125,82,76,,0,0
48.059375,48.114583333333336,0.05520833333333286,62,67,,0,0
48.1703125,48.225520833333334,0.05520833333333286,62,50,,0,0
48.1703125,48.225520833333334,0.05520833333333286,74,65,,0,0
48.28125,48.336979166666666,0.05572916666666572,63,74,,0,0
48.39270833333333,48.4484375,0.05572916666666572,62,55,,0,0
48.39270833333333,48.4484375,0.05572916666666572,74,71,,0,0
48.5046875,48.5609375,0.05624999999999858,60,73,,0,0
48.61770833333333,48.67395833333333,0.05624999999999858,62,52,,0,0
48.61770833333333,48.67395833333333,0.05624999999999858,74,67,,0,0
48.73020833333333,48.78697916666667,0.056770833333338544,62,80,,0,0
48.84427083333333,48.901041666666664,0.05677083333333144,62,55,,0,0
48.84427083333333,48.901041666666664,0.05677083333333144,74,72,,0,0
48.9578125,49.014583333333334,0.05677083333333144,58,75,,0,0
49.071354166666666,49.128125,0.05677083333333144,62,58,,0,0
49.071354166666666,49.128125,0.05677083333333144,74,75,,0,0
49.184895833333336,49.24166666666667,0.05677083333333144,60,84,,0,0
49.2984375,49.35520833333333,0.05677083333333144,62,61,,0,0
49.2984375,49.35520833333333,0.05677083333333144,74,79,,0,0
49.4125,49.467708333333334,0.05520833333333286,57,74,,0,0
49.5234375,49.57864583333333,0.05520833333333286,74,70,,0,0
49.5234375,49.57864583333333,0.05520833333333286,62,54,,0,0
49.634375,49.68958333333333,0.05520833333333286,58,76,,0,0
49.74583333333333,49.80104166666666,0.05520833333333286,62,58,,0,0
49.74583333333333,49.80104166666666,0.05520833333333286,74,75,,0,0
49.856770833333336,49.9125,0.05572916666666572,60,69,,0,0
49.96927083333333,50.025,0.05572916666666572,62,52,,0,0
49.96927083333333,50.025,0.05572916666666572,74,67,,0,0
50.08177083333333,50.138020833333336,0.056250000000005684,57,73,,0,0
50.19479166666667,50.2515625,0.05677083333333144,62,54,,0,0
50.19479166666667,50.2515625,0.05677083333333144,74,71,,0,0
50.30833333333333,50.36510416666667,0.056770833333338544,58,68,,0,0
50.422916666666666,50.483333333333334,0.06041666666666856,74,67,,0,0
50.422916666666666,50.483333333333334,0.06041666666666856,62,52,,0,0
50.544270833333336,50.6609375,0.11666666666666714,37,81,,0,0
50.544270833333336,50.6609375,0.11666666666666714,49,96,,0,0
50.6609375,50.748958333333334,0.08802083333333144,87,93,,0,0
50.6609375,50.748958333333334,0.08802083333333144,82,79,,0,0
50.6609375,50.748958333333334,0.08802083333333144,79,79,,0,0
50.6609375,50.748958333333334,0.08802083333333144,91,93,,0,0
50.8375,50.89114583333333,0.05364583333333428,63,70,,0,0
50.94583333333333,50.99947916666667,0.05364583333333428,63,52,,0,0
50.94583333333333,50.99947916666667,0.05364583333333428,75,68,,0,0
51.05416666666667,51.10989583333333,0.05572916666666572,65,74,,0,0
51.16614583333333,51.221875,0.05572916666666572,63,57,,0,0
51.16614583333333,51.221875,0.05572916666666572,75,74,,0,0
51.278125,51.334895833333334,0.05677083333333144,62,67,,0,0
51.391666666666666,51.4484375,0.05677083333333144,63,54,,0,0
51.391666666666666,51.4484375,0.05677083333333144,75,70,,0,0
51.505208333333336,51.56197916666667,0.05677083333333144,63,72,,0,0
51.61875,51.67552083333333,0.05677083333333144,75,65,,0,0
51.61875,51.67552083333333,0.05677083333333144,63,50,,0,0
51.73229166666667,51.790104166666666,0.05781249999999716,58,67,,0,0
51.848437499999996,51.90625,0.05781250000000426,63,47,,0,0
51.848437499999996,51.90625,0.05781250000000426,75,60,,0,0
51.9640625,52.080729166666664,0.11666666666666714,49,94,,0,0
51.9640625,52.080729166666664,0.11666666666666714,37,79,,0,0
52.080729166666664,52.16822916666666,0.08749999999999858,87,93,,0,0
52.080729166666664,52.16822916666666,0.08749999999999858,82,79,,0,0
52.080729166666664,52.16822916666666,0.08749999999999858,79,79,,0,0
52.080729166666664,52.16822916666666,0.08749999999999858,91,93,,0,0
52.25625,52.309895833333336,0.05364583333333428,63,70,,0,0
52.364583333333336,52.41822916666666,0.053645833333327175,75,68,,0,0
52.364583333333336,52.41822916666666,0.053645833333327175,63,52,,0,0
52.47291666666666,52.528645833333336,0.055729166666672825,65,75,,0,0
52.584895833333334,52.640625,0.05572916666666572,75,74,,0,0
52.584895833333334,52.640625,0.05572916666666572,63,57,,0,0
52.696875,52.75364583333333,0.05677083333333144,62,67,,0,0
52.81041666666667,52.8671875,0.05677083333333144,63,54,,0,0
52.81041666666667,52.8671875,0.05677083333333144,75,70,,0,0
52.92395833333333,52.98072916666666,0.05677083333333144,63,72,,0,0
53.0375,53.09427083333333,0.05677083333333144,63,50,,0,0
53.0375,53.09427083333333,0.05677083333333144,75,65,,0,0
53.1515625,53.209895833333334,0.05833333333333712,58,67,,0,0
53.26875,53.327083333333334,0.05833333333333712,63,47,,0,0
53.26875,53.327083333333334,0.05833333333333712,75,60,,0,0
53.3859375,53.502604166666664,0.11666666666666714,49,95,,0,0
53.3859375,53.502604166666664,0.11666666666666714,37,80,,0,0
53.502604166666664,53.5890625,0.08645833333333286,91,93,,0,0
53.502604166666664,53.5890625,0.08645833333333286,82,79,,0,0
53.502604166666664,53.5890625,0.08645833333333286,79,79,,0,0
53.502604166666664,53.5890625,0.08645833333333286,87,93,,0,0
53.67604166666666,53.731249999999996,0.05520833333333286,63,67,,0,0
53.786458333333336,53.84166666666667,0.05520833333333286,63,50,,0,0
53.786458333333336,53.84166666666667,0.05520833333333286,75,65,,0,0
53.897395833333334,53.953125,0.05572916666666572,65,74,,0,0
54.009375,54.065104166666664,0.05572916666666572,63,55,,0,0
54.009375,54.065104166666664,0.05572916666666572,75,71,,0,0
54.12135416666666,54.178125,0.056770833333338544,62,64,,0,0
54.23489583333333,54.291666666666664,0.05677083333333144,63,52,,0,0
54.23489583333333,54.291666666666664,0.05677083333333144,75,67,,0,0
54.348437499999996,54.405208333333334,0.056770833333338544,63,69,,0,0
54.461979166666666,54.51875,0.05677083333333144,63,48,,0,0
54.461979166666666,54.51875,0.05677083333333144,75,62,,0,0
54.575520833333336,54.63229166666667,0.05677083333333144,58,64,,0,0
54.6890625,54.74583333333333,0.05677083333333144,75,58,,0,0
54.6890625,54.74583333333333,0.05677083333333144,63,45,,0,0
54.803125,54.85989583333333,0.05677083333333144,60,84,,0,0
54.916666666666664,54.973437499999996,0.05677083333333144,63,54,,0,0
54.916666666666664,54.973437499999996,0.05677083333333144,75,70,,0,0
55.030208333333334,55.08541666666667,0.05520833333333286,57,70,,0,0
55.14114583333333,55.196354166666666,0.05520833333333286,63,55,,0,0
55.14114583333333,55.196354166666666,0.05520833333333286,75,71,,0,0
55.252604166666664,55.3078125,0.05520833333333286,58,72,,0,0
55.36354166666666,55.418749999999996,0.05520833333333286,63,55,,0,0
55.36354166666666,55.418749999999996,0.05520833333333286,75,71,,0,0
55.47447916666667,55.530208333333334,0.05572916666666572,60,69,,0,0
55.586979166666666,55.64270833333333,0.05572916666666572,75,67,,0,0
55.586979166666666,55.64270833333333,0.05572916666666572,63,52,,0,0
55.69947916666666,55.75572916666667,0.056250000000005684,55,73,,0,0
55.8125,55.86927083333333,0.05677083333333144,63,56,,0,0
55.8125,55.86927083333333,0.05677083333333144,75,72,,0,0
55.926562499999996,55.983333333333334,0.056770833333338544,57,68,,0,0
56.040625,56.09791666666666,0.0572916666666643,63,52,,0,0
56.040625,56.09791666666666,0.0572916666666643,75,67,,0,0
56.15572916666667,56.272395833333334,0.11666666666666714,50,92,,0,0
56.15572916666667,56.272395833333334,0.11666666666666714,38,78,,0,0
56.272395833333334,56.361979166666664,0.08958333333333002,86,86,,0,0
56.272395833333334,56.361979166666664,0.08958333333333002,90,86,,0,0
56.272395833333334,56.361979166666664,0.08958333333333002,93,86,,0,0
56.272395833333334,56.361979166666664,0.08958333333333002,98,102,,0,0
56.452083333333334,56.50572916666667,0.05364583333333428,62,73,,0,0
56.559895833333336,56.61354166666666,0.053645833333327175,62,55,,0,0
56.559895833333336,56.61354166666666,0.053645833333327175,74,71,,0,0
56.66822916666666,56.723958333333336,0.055729166666672825,63,78,,0,0
56.7796875,56.83541666666667,0.05572916666666572,62,58,,0,0
56.7796875,56.83541666666667,0.05572916666666572,74,75,,0,0
56.89114583333333,56.947916666666664,0.05677083333333144,61,70,,0,0
57.004687499999996,57.061458333333334,0.056770833333338544,62,57,,0,0
57.004687499999996,57.061458333333334,0.056770833333338544,74,73,,0,0
57.118229166666666,57.175,0.05677083333333144,62,75,,0,0
57.231770833333336,57.28854166666667,0.05677083333333144,62,52,,0,0
57.231770833333336,57.28854166666667,0.05677083333333144,74,68,,0,0
57.34583333333333,57.40260416666666,0.05677083333333144,57,70,,0,0
57.459375,57.51979166666666,0.060416666666661456,62,49,,0,0
57.459375,57.51979166666666,0.060416666666661456,74,63,,0,0
57.58020833333333,57.696875,0.11666666666666714,49,94,,0,0
57.58020833333333,57.696875,0.11666666666666714,37,79,,0,0
57.696875,57.786458333333336,0.08958333333333712,99,102,,0,0
57.696875,57.786458333333336,0.08958333333333712,94,86,,0,0
57.696875,57.786458333333336,0.08958333333333712,87,86,,0,0
57.696875,57.786458333333336,0.08958333333333712,91,86,,0,0
57.8765625,57.93020833333333,0.05364583333333428,63,73,,0,0
57.984375,58.038020833333334,0.05364583333333428,63,55,,0,0
57.984375,58.038020833333334,0.05364583333333428,75,71,,0,0
58.0921875,58.14791666666667,0.05572916666666572,65,82,,0,0
58.204166666666666,58.25989583333333,0.05572916666666572,63,60,,0,0
58.204166666666666,58.25989583333333,0.05572916666666572,75,78,,0,0
58.31614583333333,58.37291666666667,0.056770833333338544,62,70,,0,0
58.4296875,58.48645833333333,0.05677083333333144,75,73,,0,0
58.4296875,58.48645833333333,0.05677083333333144,63,57,,0,0
58.543749999999996,58.600520833333334,0.056770833333338544,63,75,,0,0
58.657291666666666,58.7140625,0.05677083333333144,63,52,,0,0
58.657291666666666,58.7140625,0.05677083333333144,75,68,,0,0
58.770833333333336,58.82760416666667,0.05677083333333144,58,70,,0,0
58.884375,58.942708333333336,0.05833333333333712,63,49,,0,0
58.884375,58.942708333333336,0.05833333333333712,75,63,,0,0
59.00208333333333,59.11875,0.11666666666666714,50,89,,0,0
59.00208333333333,59.11875,0.11666666666666714,38,75,,0,0
59.11875,59.20729166666666,0.0885416666666643,93,87,,0,0
59.11875,59.20729166666666,0.0885416666666643,98,103,,0,0
59.11875,59.20729166666666,0.0885416666666643,86,87,,0,0
59.11875,59.20729166666666,0.0885416666666643,90,87,,0,0
59.29635416666667,59.35,0.05364583333333428,62,73,,0,0
59.40416666666667,59.457812499999996,0.053645833333327175,62,55,,0,0
59.40416666666667,59.457812499999996,0.053645833333327175,74,71,,0,0
59.51197916666666,59.567708333333336,0.055729166666672825,63,78,,0,0
59.623958333333334,59.6796875,0.05572916666666572,74,74,,0,0
59.623958333333334,59.6796875,0.05572916666666572,62,57,,0,0
59.735416666666666,59.7921875,0.05677083333333144,61,70,,0,0
59.848958333333336,59.90572916666667,0.05677083333333144,62,57,,0,0
59.848958333333336,59.90572916666667,0.05677083333333144,74,73,,0,0
59.9625,60.01927083333333,0.05677083333333144,62,75,,0,0
60.07604166666667,60.1328125,0.05677083333333144,62,52,,0,0
60.07604166666667,60.1328125,0.05677083333333144,74,68,,0,0
60.18958333333333,60.24635416666666,0.05677083333333144,57,70,,0,0
60.303645833333334,60.36302083333333,0.05937499999999574,62,49,,0,0
60.303645833333334,60.36302083333333,0.05937499999999574,74,63,,0,0
60.42239583333333,60.5390625,0.11666666666666714,49,94,,0,0
60.42239583333333,60.5390625,0.11666666666666714,37,79,,0,0
60.5390625,60.6265625,0.08749999999999858,94,86,,0,0
60.5390625,60.6265625,0.08749999999999858,91,86,,0,0
60.5390625,60.6265625,0.08749999999999858,87,86,,0,0
60.5390625,60.6265625,0.08749999999999858,99,102,,0,0
60.71458333333333,60.76875,0.05416666666666714,63,73,,0,0
60.8234375,60.877604166666664,0.05416666666666714,63,55,,0,0
60.8234375,60.877604166666664,0.05416666666666714,75,71,,0,0
60.932291666666664,60.98802083333333,0.05572916666666572,65,79,,0,0
61.043749999999996,61.09947916666667,0.055729166666672825,63,60,,0,0
61.043749999999996,61.09947916666667,0.055729166666672825,75,78,,0,0
61.15572916666667,61.2125,0.05677083333333144,62,70,,0,0
61.26979166666666,61.3265625,0.056770833333338544,63,57,,0,0
61.26979166666666,61.3265625,0.056770833333338544,75,73,,0,0
61.38333333333333,61.440104166666664,0.05677083333333144,63,75,,0,0
61.496874999999996,61.553645833333334,0.056770833333338544,75,68,,0,0
61.496874999999996,61.553645833333334,0.056770833333338544,63,52,,0,0
61.610416666666666,61.6671875,0.05677083333333144,58,70,,0,0
61.723958333333336,61.78072916666667,0.05677083333333144,63,49,,0,0
61.723958333333336,61.78072916666667,0.05677083333333144,75,63,,0,0
61.8375,61.954166666666666,0.11666666666666714,50,89,,0,0
61.8375,61.954166666666666,0.11666666666666714,38,75,,0,0
61.9546875,62.0453125,0.09062500000000284,93,86,,0,0
61.9546875,62.0453125,0.09062500000000284,98,102,,0,0
61.9546875,62.0453125,0.09062500000000284,86,86,,0,0
61.9546875,62.0453125,0.09062500000000284,90,86,,0,0
62.13645833333333,62.19114583333333,0.0546875,62,73,,0,0
62.24635416666666,62.30104166666666,0.0546875,62,55,,0,0
62.24635416666666,62.30104166666666,0.0546875,74,71,,0,0
62.356770833333336,62.4125,0.05572916666666572,63,78,,0,0
62.46822916666667,62.52395833333333,0.05572916666666572,62,60,,0,0
62.46822916666667,62.52395833333333,0.05572916666666572,74,78,,0,0
62.5796875,62.63645833333333,0.05677083333333144,61,70,,0,0
62.69375,62.75052083333333,0.05677083333333144,62,57,,0,0
62.69375,62.75052083333333,0.05677083333333144,74,73,,0,0
62.807291666666664,62.864062499999996,0.05677083333333144,62,75,,0,0
62.920833333333334,62.977604166666666,0.05677083333333144,62,52,,0,0
62.920833333333334,62.977604166666666,0.05677083333333144,74,68,,0,0
63.034375,63.091145833333336,0.056770833333338544,58,70,,0,0
63.14791666666667,63.2046875,0.05677083333333144,62,49,,0,0
63.14791666666667,63.2046875,0.05677083333333144,74,63,,0,0
63.26197916666666,63.376041666666666,0.11406250000000284,60,76,,0,0
63.376041666666666,63.4328125,0.05677083333333144,62,53,,0,0
63.376041666666666,63.4328125,0.05677083333333144,74,68,,0,0
63.490625,63.5453125,0.0546875,57,67,,0,0
63.60104166666667,63.65572916666667,0.0546875,62,50,,0,0
63.60104166666667,63.65572916666667,0.0546875,74,65,,0,0
63.71145833333333,63.7671875,0.05572916666666572,58,70,,0,0
63.822916666666664,63.87864583333333,0.05572916666666572,74,66,,0,0
63.822916666666664,63.87864583333333,0.05572916666666572,62,51,,0,0
63.934374999999996,63.991145833333334,0.056770833333338544,60,64,,0,0
64.04791666666667,64.1046875,0.05677083333333144,62,49,,0,0
64.04791666666667,64.1046875,0.05677083333333144,74,63,,0,0
64.16145833333334,64.21666666666667,0.05520833333333286,57,69,,0,0
64.27239583333333,64.32760416666667,0.05520833333333286,62,50,,0,0
64.27239583333333,64.32760416666667,0.05520833333333286,74,65,,0,0
64.3828125,64.43854166666667,0.05572916666666572,58,64,,0,0
64.49479166666666,64.55052083333334,0.055729166666672825,62,45,,0,0
64.49479166666666,64.55052083333334,0.055729166666672825,74,58,,0,0
64.60677083333333,64.71614583333333,0.109375,55,76,,0,0
64.71666666666667,64.77135416666667,0.0546875,74,68,,0,0
64.71666666666667,64.77135416666667,0.0546875,62,53,,0,0
64.8265625,64.88229166666666,0.05572916666666572,57,67,,0,0
64.93854166666667,64.99427083333333,0.05572916666666572,74,63,,0,0
64.93854166666667,64.99427083333333,0.05572916666666572,62,49,,0,0
65.05052083333334,65.10520833333334,0.0546875,58,69,,0,0
65.1609375,65.215625,0.0546875,62,49,,0,0
65.1609375,65.215625,0.0546875,74,63,,0,0
65.27135416666667,65.32708333333333,0.05572916666666572,60,62,,0,0
65.38333333333333,65.4390625,0.05572916666667993,62,48,,0,0
65.38333333333333,65.4390625,0.05572916666667993,74,62,,0,0
65.4953125,65.55,0.0546875,57,66,,0,0
65.60520833333334,65.65989583333334,0.0546875,62,48,,0,0
65.60520833333334,65.65989583333334,0.0546875,74,62,,0,0
65.715625,65.77083333333333,0.055208333333325754,58,61,,0,0
65.8265625,65.88177083333333,0.055208333333339965,74,55,,0,0
65.8265625,65.88177083333333,0.055208333333339965,62,43,,0,0
65.93697916666666,66.04635416666666,0.109375,55,72,,0,0
66.04635416666666,66.10104166666666,0.0546875,74,63,,0,0
66.04635416666666,66.10104166666666,0.0546875,62,49,,0,0
66.15625,66.21197916666667,0.05572916666666572,57,62,,0,0
66.26822916666667,66.32395833333334,0.05572916666666572,62,46,,0,0
66.26822916666667,66.32395833333334,0.05572916666666572,74,59,,0,0
66.38072916666667,66.43697916666666,0.056249999999991473,58,64,,0,0
66.49375,66.55052083333334,0.05677083333333144,62,46,,0,0
66.49375,66.55052083333334,0.05677083333333144,74,59,,0,0
66.6078125,66.66510416666667,0.057291666666671404,55,57,,0,0
66.72291666666666,66.78072916666666,0.05781249999999716,62,43,,0,0
66.72291666666666,66.78072916666666,0.05781249999999716,74,55,,0,0
66.83958333333334,66.89791666666666,0.05833333333332291,53,60,,0,0
66.9828125,67.05885416666666,0.07604166666666856,62,44,,0,0
66.9828125,67.05885416666666,0.07604166666666856,74,57,,0,0
67.11875,67.178125,0.05937499999998863,51,55,,0,0
67.23697916666667,67.2953125,0.05833333333332291,74,49,,0,0
67.23697916666667,67.2953125,0.05833333333332291,62,38,,0,0
67.35364583333333,67.4703125,0.11666666666667425,50,74,,0,0
67.35364583333333,67.4703125,0.11666666666667425,38,63,,0,0
67.4703125,67.52864583333333,0.05833333333332291,62,58,,0,0
67.4703125,67.52864583333333,0.05833333333332291,74,75,,0,0
67.58697916666667,67.64166666666667,0.0546875,62,56,,0,0
67.69739583333333,67.75208333333333,0.0546875,62,42,,0,0
67.80729166666667,67.86302083333334,0.05572916666666572,63,63,,0,0
67.91927083333333,67.975,0.05572916666666572,62,46,,0,0
68.03072916666666,68.0875,0.05677083333334565,60,54,,0,0
68.14427083333334,68.20104166666667,0.05677083333333144,62,44,,0,0
68.2578125,68.31458333333333,0.05677083333333144,62,58,,0,0
68.37135416666666,68.428125,0.05677083333333144,62,40,,0,0
68.4765625,68.5046875,0.028125000000002842,58,54,,0,0
68.55625,68.61302083333334,0.05677083333333144,62,38,,0,0
68.66979166666667,68.78385416666667,0.11406250000000284,60,64,,0,0
68.784375,68.84114583333333,0.05677083333333144,62,45,,0,0
68.89895833333333,68.95364583333333,0.0546875,57,56,,0,0
69.00885416666667,69.06354166666667,0.0546875,62,42,,0,0
69.11927083333333,69.175,0.05572916666666572,58,59,,0,0
69.23072916666666,69.28645833333333,0.05572916666666572,62,43,,0,0
69.3421875,69.39895833333333,0.05677083333333144,60,54,,0,0
69.45625,69.51302083333333,0.05677083333333144,62,41,,0,0
69.56979166666666,69.625,0.055208333333339965,57,58,,0,0
69.68020833333333,69.73541666666667,0.055208333333339965,62,42,,0,0
69.79114583333333,69.846875,0.05572916666666572,58,54,,0,0
69.903125,69.95885416666667,0.05572916666666572,62,38,,0,0
70.01510416666666,70.12447916666666,0.109375,55,64,,0,0
70.125,70.1796875,0.0546875,62,45,,0,0
70.23489583333333,70.290625,0.05572916666667993,57,56,,0,0
70.346875,70.40260416666666,0.05572916666666572,62,41,,0,0
70.45833333333333,70.51302083333333,0.0546875,58,58,,0,0
70.56875,70.6234375,0.0546875,62,41,,0,0
70.67916666666666,70.73489583333333,0.05572916666666572,60,52,,0,0
70.79114583333333,70.846875,0.05572916666666572,62,40,,0,0
70.903125,70.9578125,0.0546875,57,56,,0,0
71.01354166666667,71.06822916666667,0.0546875,62,40,,0,0
71.1234375,71.17864583333333,0.055208333333339965,58,51,,0,0
71.234375,71.28958333333333,0.055208333333325754,62,36,,0,0
71.34479166666667,71.45416666666667,0.109375,55,61,,0,0
71.4546875,71.509375,0.0546875,62,41,,0,0
71.5640625,71.61979166666667,0.05572916666666572,57,52,,0,0
71.6765625,71.73229166666667,0.05572916666666572,62,39,,0,0
71.78854166666666,71.84479166666667,0.056250000000005684,58,54,,0,0
71.9015625,71.9578125,0.056250000000005684,62,39,,0,0
72.01510416666666,72.071875,0.05677083333334565,55,48,,0,0
72.12864583333334,72.18541666666667,0.05677083333333144,62,36,,0,0
72.24322916666667,72.30052083333334,0.057291666666671404,53,51,,0,0
72.35885416666666,72.41666666666667,0.05781250000001137,62,37,,0,0
72.47447916666667,72.53229166666667,0.05781249999999716,51,46,,0,0
72.61875,72.6921875,0.07343749999999716,62,32,,0,0
72.8671875,72.92552083333334,0.05833333333333712,54,36,,0,0
72.8671875,72.92552083333334,0.05833333333333712,57,36,,0,0
72.98385416666666,73.0390625,0.055208333333339965,45,45,,0,0
73.0953125,73.15052083333333,0.055208333333325754,57,31,,0,0
73.0953125,73.15052083333333,0.055208333333325754,54,31,,0,0
73.20625,73.26197916666666,0.05572916666666572,50,42,,0,0
73.31770833333333,73.3734375,0.05572916666666572,57,34,,0,0
73.31770833333333,73.3734375,0.05572916666666572,54,34,,0,0
73.42916666666666,73.4859375,0.05677083333334565,51,49,,0,0
73.54322916666666,73.6,0.05677083333333144,57,33,,0,0
73.54322916666666,73.6,0.05677083333333144,54,33,,0,0
73.65677083333333,73.71197916666667,0.055208333333339965,49,54,,0,0
73.7671875,73.821875,0.0546875,57,35,,0,0
73.7671875,73.821875,0.0546875,54,35,,0,0
73.87708333333333,73.93229166666667,0.055208333333339965,50,51,,0,0
73.98802083333334,74.04322916666666,0.055208333333325754,57,34,,0,0
73.98802083333334,74.04322916666666,0.055208333333325754,54,34,,0,0
72.75052083333333,74.09895833333333,1.3484375000000028,38,45,,0,0
74.21302083333333,74.26979166666666,0.05677083333333144,55,36,,0,0
74.21302083333333,74.26979166666666,0.05677083333333144,58,36,,0,0
74.3265625,74.38125,0.0546875,45,49,,0,0
74.43697916666666,74.49166666666666,0.0546875,58,31,,0,0
74.43697916666666,74.49166666666666,0.0546875,55,31,,0,0
74.546875,74.60260416666667,0.05572916666666572,51,51,,0,0
74.65833333333333,74.7140625,0.05572916666666572,58,34,,0,0
74.65833333333333,74.7140625,0.05572916666666572,55,34,,0,0
74.7703125,74.82708333333333,0.05677083333333144,53,46,,0,0
74.88385416666667,74.940625,0.05677083333333144,58,29,,0,0
74.88385416666667,74.940625,0.05677083333333144,55,29,,0,0
74.99739583333333,75.05416666666666,0.05677083333333144,50,49,,0,0
75.1109375,75.16770833333334,0.05677083333333144,55,34,,0,0
75.1109375,75.16770833333334,0.05677083333333144,58,34,,0,0
75.22447916666667,75.28125,0.05677083333333144,51,46,,0,0
75.33854166666667,75.3953125,0.05677083333333144,58,31,,0,0
75.33854166666667,75.3953125,0.05677083333333144,55,31,,0,0
74.09895833333333,75.4515625,1.3526041666666657,38,56,,0,0
75.56875,75.62708333333333,0.05833333333333712,57,36,,0,0
75.56875,75.62708333333333,0.05833333333333712,54,36,,0,0
75.68541666666667,75.74010416666667,0.0546875,45,45,,0,0
75.79583333333333,75.85052083333333,0.0546875,57,31,,0,0
75.79583333333333,75.85052083333333,0.0546875,54,31,,0,0
75.90572916666666,75.96145833333333,0.05572916666666572,50,42,,0,0
76.01770833333333,76.0734375,0.05572916666666572,57,34,,0,0
76.01770833333333,76.0734375,0.05572916666666572,54,34,,0,0
76.12916666666666,76.1859375,0.05677083333333144,51,47,,0,0
76.24270833333333,76.29947916666667,0.05677083333334565,57,33,,0,0
76.24270833333333,76.29947916666667,0.05677083333334565,54,33,,0,0
76.35625,76.4109375,0.0546875,49,52,,0,0
76.46666666666667,76.52135416666667,0.0546875,57,35,,0,0
76.46666666666667,76.52135416666667,0.0546875,54,35,,0,0
76.57708333333333,76.6328125,0.05572916666666572,50,49,,0,0
76.6890625,76.74479166666667,0.05572916666666572,57,34,,0,0
76.6890625,76.74479166666667,0.05572916666666572,54,34,,0,0
75.45208333333333,76.80052083333334,1.3484375000000028,38,45,,0,0
76.9140625,76.9703125,0.056250000000005684,58,36,,0,0
76.9140625,76.9703125,0.056250000000005684,55,36,,0,0
77.02708333333334,77.08177083333334,0.0546875,45,46,,0,0
77.1375,77.1921875,0.0546875,58,31,,0,0
77.1375,77.1921875,0.0546875,55,31,,0,0
77.24791666666667,77.30364583333333,0.05572916666666572,51,48,,0,0
77.359375,77.41510416666667,0.05572916666666572,55,34,,0,0
77.359375,77.41510416666667,0.05572916666666572,58,34,,0,0
77.47083333333333,77.52760416666666,0.05677083333333144,53,45,,0,0
77.584375,77.64114583333333,0.05677083333333144,58,29,,0,0
77.584375,77.64114583333333,0.05677083333333144,55,29,,0,0
77.69791666666667,77.75364583333334,0.05572916666666572,50,47,,0,0
77.809375,77.86510416666667,0.05572916666666572,58,34,,0,0
77.809375,77.86510416666667,0.05572916666666572,55,34,,0,0
77.92135416666666,77.97760416666667,0.056250000000005684,51,44,,0,0
78.03385416666667,78.09010416666666,0.056249999999991473,58,31,,0,0
78.03385416666667,78.09010416666666,0.056249999999991473,55,31,,0,0
76.80052083333334,78.14635416666667,1.3458333333333314,38,54,,0,0
78.26354166666667,78.321875,0.05833333333333712,54,36,,0,0
78.26354166666667,78.321875,0.05833333333333712,57,36,,0,0
78.38020833333333,78.43489583333333,0.0546875,45,45,,0,0
78.490625,78.5453125,0.0546875,57,31,,0,0
78.490625,78.5453125,0.0546875,54,31,,0,0
78.60052083333333,78.65625,0.05572916666666572,50,42,,0,0
78.7125,78.76822916666667,0.05572916666666572,57,34,,0,0
78.7125,78.76822916666667,0.05572916666666572,54,34,,0,0
78.82395833333334,78.88072916666667,0.05677083333333144,51,47,,0,0
78.9375,78.99427083333333,0.05677083333333144,57,33,,0,0
78.9375,78.99427083333333,0.05677083333333144,54,33,,0,0
79.05104166666666,79.10625,0.055208333333339965,49,51,,0,0
79.16197916666667,79.2171875,0.055208333333325754,57,35,,0,0
79.16197916666667,79.2171875,0.055208333333325754,54,35,,0,0
79.2734375,79.32916666666667,0.05572916666666572,51,48,,0,0
79.38541666666667,79.44114583333334,0.05572916666666572,57,34,,0,0
79.38541666666667,79.44114583333334,0.05572916666666572,54,34,,0,0
79.49791666666667,79.5546875,0.05677083333333144,50,53,,0,0
79.6125,79.66927083333333,0.05677083333333144,54,36,,0,0
79.6125,79.66927083333333,0.05677083333333144,57,36,,0,0
79.72708333333333,79.78177083333333,0.0546875,51,46,,0,0
79.8375,79.8921875,0.0546875,57,31,,0,0
79.8375,79.8921875,0.0546875,54,31,,0,0
79.94739583333333,80.003125,0.05572916666666572,49,48,,0,0
80.059375,80.11510416666667,0.05572916666666572,57,34,,0,0
80.059375,80.11510416666667,0.05572916666666572,54,34,,0,0
80.17083333333333,80.22760416666667,0.05677083333333144,51,45,,0,0
80.284375,80.34114583333333,0.05677083333333144,57,29,,0,0
80.284375,80.34114583333333,0.05677083333333144,54,29,,0,0
80.39791666666666,80.4546875,0.05677083333334565,50,45,,0,0
80.51145833333334,80.56822916666667,0.05677083333333144,54,34,,0,0
80.51145833333334,80.56822916666667,0.05677083333333144,57,34,,0,0
80.625,80.68177083333333,0.05677083333333144,45,44,,0,0
80.7390625,80.79583333333333,0.05677083333333144,54,31,,0,0
80.7390625,80.79583333333333,0.05677083333333144,57,31,,0,0
78.146875,80.85260416666667,2.7057291666666714,38,45,,0,0
80.85260416666667,80.909375,0.05677083333333144,38,45,,0,0
80.96614583333333,81.02291666666666,0.05677083333333144,54,43,,0,0
81.0796875,81.13645833333334,0.05677083333333144,54,45,,0,0
81.19322916666667,81.25,0.05677083333333144,57,43,,0,0
81.30677083333333,81.36354166666666,0.05677083333333144,57,45,,0,0
81.42083333333333,81.47760416666667,0.05677083333333144,62,42,,0,0
81.534375,81.59114583333333,0.05677083333333144,62,45,,0,0
81.64791666666666,81.7046875,0.05677083333334565,66,42,,0,0
81.76145833333334,81.81822916666667,0.05677083333333144,66,44,,0,0
81.875,81.93177083333333,0.05677083333333144,69,41,,0,0
81.9890625,82.04583333333333,0.05677083333333144,69,43,,0,0
82.10260416666667,82.159375,0.05677083333333144,74,41,,0,0
82.21614583333333,82.27291666666666,0.05677083333333144,74,43,,0,0
82.3296875,82.38645833333334,0.05677083333333144,78,40,,0,0
82.44375,82.50052083333333,0.05677083333333144,78,42,,0,0
82.55833333333334,82.615625,0.05729166666665719,81,40,,0,0
82.6734375,82.73072916666666,0.05729166666665719,81,42,,0,0
82.7890625,82.846875,0.05781249999999716,86,39,,0,0
82.90520833333333,82.96354166666667,0.05833333333333712,86,41,,0,0
83.021875,83.08020833333333,0.05833333333333712,90,39,,0,0
83.13958333333333,83.1984375,0.05885416666666288,90,41,,0,0
83.2578125,83.3171875,0.05937500000000284,93,39,,0,0
83.3765625,83.43645833333333,0.059895833333328596,93,40,,0,0
83.49739583333333,83.5625,0.0651041666666714,98,39,,0,0
83.628125,85.72395833333333,2.0958333333333314,86,43,,0,0
83.628125,85.72395833333333,2.0958333333333314,90,43,,0,0
83.628125,85.72395833333333,2.0958333333333314,98,43,,0,0
83.628125,85.72395833333333,2.0958333333333314,74,34,,0,0
83.628125,85.72395833333333,2.0958333333333314,81,34,,0,0
86.68697916666666,88.14427083333334,1.457291666666677,86,65,,0,0
86.68697916666666,88.14427083333334,1.457291666666677,62,55,,0,0
88.14427083333334,88.51927083333334,0.375,84,57,,0,0
88.14427083333334,88.51927083333334,0.375,60,48,,0,0
88.51927083333334,88.89427083333334,0.375,86,57,,0,0
88.51927083333334,88.89427083333334,0.375,62,48,,0,0
90.20677083333334,90.2921875,0.08541666666666003,86,54,,0,0
88.89427083333334,90.2921875,1.39791666666666,89,64,,0,0
90.20677083333334,90.2921875,0.08541666666666003,62,45,,0,0
88.89427083333334,90.2921875,1.39791666666666,65,54,,0,0
90.29270833333334,90.378125,0.08541666666666003,87,54,,0,0
90.29270833333334,90.378125,0.08541666666666003,63,45,,0,0
90.378125,90.7328125,0.35468749999999716,86,60,,0,0
90.378125,90.7328125,0.35468749999999716,62,51,,0,0
90.73333333333333,91.10104166666666,0.36770833333332575,84,47,,0,0
90.73333333333333,91.10104166666666,0.36770833333332575,60,39,,0,0
91.1015625,92.59947916666667,1.4979166666666686,86,55,,0,0
91.1015625,92.59947916666667,1.4979166666666686,62,46,,0,0
92.59947916666667,93.49479166666667,0.8953125000000028,66,34,,0,0
93.49479166666667,96.0578125,2.5630208333333258,69,34,,0,0
93.49479166666667,96.0578125,2.5630208333333258,66,34,,0,0
92.59947916666667,96.05833333333334,3.4588541666666686,57,28,,0,0
92.59947916666667,96.05833333333334,3.4588541666666686,62,28,,0,0
92.59947916666667,96.05833333333334,3.4588541666666686,50,26,,0,0
92.59947916666667,96.05833333333334,3.4588541666666686,38,21,,0,0
96.05833333333334,97.60729166666667,1.5489583333333314,86,65,,0,0
96.05833333333334,97.60729166666667,1.5489583333333314,62,55,,0,0
97.6078125,97.98333333333333,0.37552083333333997,84,57,,0,0
97.6078125,97.98333333333333,0.37552083333333997,60,48,,0,0
97.98333333333333,98.35833333333333,0.375,86,57,,0,0
97.98333333333333,98.35833333333333,0.375,62,48,,0,0
99.67083333333333,99.75625,0.08541666666666003,86,54,,0,0
98.35833333333333,99.75625,1.39791666666666,89,64,,0,0
99.67083333333333,99.75625,0.08541666666666003,62,45,,0,0
98.35833333333333,99.75625,1.39791666666666,65,54,,0,0
99.75677083333333,99.8421875,0.08541666666666003,87,54,,0,0
99.75677083333333,99.8421875,0.08541666666666003,63,45,,0,0
99.8421875,100.19270833333333,0.3505208333333343,86,60,,0,0
99.8421875,100.19270833333333,0.3505208333333343,62,51,,0,0
100.19322916666667,100.565625,0.3723958333333286,84,47,,0,0
100.19322916666667,100.565625,0.3723958333333286,60,39,,0,0
100.56614583333334,102.06979166666666,1.503645833333323,86,55,,0,0
100.56614583333334,102.06979166666666,1.503645833333323,62,46,,0,0
102.06979166666666,102.971875,0.9020833333333371,62,34,,0,0
102.971875,105.56041666666667,2.5885416666666714,65,34,,0,0
102.06979166666666,105.56041666666667,3.4906250000000085,53,28,,0,0
102.06979166666666,105.56041666666667,3.4906250000000085,58,28,,0,0
102.971875,105.56041666666667,2.5885416666666714,62,34,,0,0
102.06979166666666,105.56041666666667,3.4906250000000085,46,26,,0,0
102.06979166666666,105.56041666666667,3.4906250000000085,34,21,,0,0
105.5609375,107.0828125,1.5218750000000085,86,62,,0,0
105.5609375,107.0828125,1.5218750000000085,62,52,,0,0
107.08333333333333,108.37708333333333,1.2937500000000028,85,56,,0,0
107.08333333333333,108.37708333333333,1.2937500000000028,61,48,,0,0
108.37708333333333,108.4609375,0.08385416666666856,82,48,,0,0
108.37708333333333,108.4609375,0.08385416666666856,58,40,,0,0
108.46145833333333,108.5453125,0.08385416666666856,84,46,,0,0
108.46145833333333,108.5453125,0.08385416666666856,60,39,,0,0
108.54583333333333,108.88072916666667,0.3348958333333343,82,54,,0,0
108.54583333333333,108.88072916666667,0.3348958333333343,58,45,,0,0
108.88125,109.22395833333333,0.3427083333333343,81,50,,0,0
108.88125,109.22395833333333,0.3427083333333343,57,41,,0,0
109.22395833333333,109.57239583333333,0.34843750000000284,79,52,,0,0
109.22395833333333,109.57239583333333,0.34843750000000284,55,44,,0,0
109.57291666666667,109.94322916666667,0.37031249999999716,82,46,,0,0
109.57291666666667,109.94322916666667,0.37031249999999716,58,38,,0,0
109.94322916666667,111.41822916666666,1.4749999999999943,81,52,,0,0
109.94322916666667,111.41822916666666,1.4749999999999943,57,44,,0,0
111.41875,112.30729166666667,0.8885416666666686,66,41,,0,0
112.30729166666667,114.97395833333333,2.666666666666657,69,41,,0,0
111.41875,114.97395833333333,3.5552083333333258,57,35,,0,0
111.41875,114.97395833333333,3.5552083333333258,62,35,,0,0
112.30729166666667,114.97395833333333,2.666666666666657,66,41,,0,0
111.41875,114.97395833333333,3.5552083333333258,38,26,,0,0
111.41875,114.97395833333333,3.5552083333333258,50,31,,0,0
114.97395833333333,116.55885416666666,1.5848958333333343,86,65,,0,0
114.97395833333333,116.55885416666666,1.5848958333333343,62,55,,0,0
116.559375,116.89635416666667,0.3369791666666657,87,65,,0,0
116.559375,116.89635416666667,0.3369791666666657,63,55,,0,0
116.89635416666667,117.23697916666667,0.34062500000000284,86,57,,0,0
116.89635416666667,117.23697916666667,0.34062500000000284,62,48,,0,0
117.2375,117.5859375,0.34843750000000284,85,59,,0,0
117.2375,117.5859375,0.34843750000000284,61,50,,0,0
117.58645833333333,117.7796875,0.19322916666666856,81,59,,0,0
117.58645833333333,117.7796875,0.19322916666666856,57,50,,0,0
117.7796875,117.86302083333334,0.08333333333334281,82,46,,0,0
117.7796875,117.86302083333334,0.08333333333334281,58,39,,0,0
117.86354166666666,117.94687499999999,0.0833333333333286,84,46,,0,0
117.86354166666666,117.94687499999999,0.0833333333333286,60,39,,0,0
117.94739583333333,118.27135416666667,0.3239583333333371,82,53,,0,0
117.94739583333333,118.27135416666667,0.3239583333333371,58,46,,0,0
118.271875,118.61666666666666,0.3447916666666657,81,52,,0,0
118.271875,118.61666666666666,0.3447916666666657,57,44,,0,0
118.61666666666666,118.97135416666667,0.35468750000001137,79,53,,0,0
118.61666666666666,118.97135416666667,0.35468750000001137,55,45,,0,0
118.971875,119.36354166666666,0.3916666666666657,82,47,,0,0
118.971875,119.36354166666666,0.3916666666666657,58,39,,0,0
119.36354166666666,120.88489583333333,1.5213541666666686,81,52,,0,0
119.36354166666666,120.88489583333333,1.5213541666666686,57,44,,0,0
120.88541666666667,121.79427083333333,0.9088541666666572,67,30,,0,0
120.88541666666667,121.79427083333333,0.9088541666666572,61,25,,0,0
120.88541666666667,121.79427083333333,0.9088541666666572,51,23,,0,0
120.88541666666667,124.56406249999999,3.67864583333332,57,25,,0,0
121.79479166666667,124.56458333333333,2.769791666666663,66,30,,0,0
121.79479166666667,124.56458333333333,2.769791666666663,62,30,,0,0
121.79479166666667,124.56458333333333,2.769791666666663,50,23,,0,0
125.04843749999999,126.01041666666667,0.9619791666666799,65,36,,0,0
125.04843749999999,126.01041666666667,0.9619791666666799,62,34,,0,0
124.56458333333333,126.01041666666667,1.44583333333334,58,41,,0,0
126.3796875,126.43958333333333,0.059895833333328596,66,48,,0,0
126.43958333333333,126.49947916666666,0.059895833333328596,68,50,,0,0
126.5,126.72604166666666,0.22604166666666003,66,57,,0,0
126.7265625,126.95260416666666,0.22604166666666003,65,53,,0,0
126.953125,127.17916666666666,0.22604166666666003,66,59,,0,0
127.17916666666666,127.40729166666667,0.22812500000000568,75,55,,0,0
126.5,127.40729166666667,0.9072916666666657,59,34,,0,0
126.5,127.40729166666667,0.9072916666666657,63,36,,0,0
126.0109375,127.40729166666667,1.3963541666666686,57,41,,0,0
127.40729166666667,128.79375,1.386458333333323,58,44,,0,0
127.878125,128.79427083333334,0.9161458333333456,65,48,,0,0
127.878125,128.79427083333334,0.9161458333333456,74,48,,0,0
127.878125,128.79427083333334,0.9161458333333456,62,34,,0,0
129.26666666666665,129.67135416666667,0.40468750000002274,73,56,,0,0
129.671875,130.11770833333333,0.44583333333332575,72,54,,0,0
129.26666666666665,130.11770833333333,0.8510416666666742,74,63,,0,0
129.671875,130.11770833333333,0.44583333333332575,54,41,,0,0
129.26666666666665,130.11770833333333,0.8510416666666742,62,48,,0,0
128.79427083333334,130.11770833333333,1.323437499999983,57,52,,0,0
130.5578125,131.00364583333334,0.44583333333332575,70,56,,0,0
131.00416666666666,131.45,0.44583333333332575,74,51,,0,0
130.5578125,131.45,0.8921874999999773,62,51,,0,0
130.11822916666665,131.45,1.3317708333333371,55,52,,0,0
131.89322916666666,132.34427083333333,0.45104166666666856,69,58,,0,0
132.34427083333333,132.8015625,0.4572916666666629,74,50,,0,0
131.89322916666666,132.8015625,0.9083333333333314,62,52,,0,0
131.45,132.8015625,1.3515625,53,53,,0,0
133.26875,133.74635416666666,0.4776041666666515,67,58,,0,0
132.8015625,134.29166666666666,1.4901041666666686,58,55,,0,0
133.746875,134.2921875,0.5453125000000227,74,50,,0,0
133.26875,134.2921875,1.0234375,62,51,,0,0
134.79270833333334,135.83385416666667,1.0411458333333314,67,30,,0,0
134.79270833333334,135.83385416666667,1.0411458333333314,61,25,,0,0
134.2921875,135.83385416666667,1.5416666666666572,57,39,,0,0
132.8015625,135.83385416666667,3.03229166666668,51,47,,0,0
136.84010416666666,137.303125,0.46302083333333144,66,45,,0,0
136.84010416666666,137.303125,0.46302083333333144,62,45,,0,0
136.3765625,137.303125,0.9265624999999886,57,45,,0,0
135.834375,137.303125,1.46875,50,50,,0,0
137.30364583333332,137.53489583333334,0.23125000000001705,60,52,,0,0
137.53541666666666,137.809375,0.27395833333332575,62,44,,0,0
137.809375,138.0375,0.22812500000000568,67,41,,0,0
137.809375,138.0375,0.22812500000000568,69,41,,0,0
137.809375,138.0375,0.22812500000000568,63,51,,0,0
138.0375,138.1515625,0.11406250000001705,65,55,,0,0
138.1515625,138.265625,0.11406249999998863,63,51,,0,0
138.26614583333333,138.49427083333333,0.22812500000000568,67,41,,0,0
138.26614583333333,138.49427083333333,0.22812500000000568,69,41,,0,0
138.26614583333333,138.49427083333333,0.22812500000000568,62,50,,0,0
138.49427083333333,138.72760416666665,0.23333333333332007,60,50,,0,0
139.6671875,140.13020833333334,0.46302083333333144,66,45,,0,0
139.6671875,140.13020833333334,0.46302083333333144,62,45,,0,0
139.20364583333333,140.13020833333334,0.926562500000017,57,50,,0,0
138.72760416666665,140.13020833333334,1.4026041666666913,50,56,,0,0
140.13072916666667,140.36197916666666,0.23124999999998863,60,52,,0,0
140.3625,140.59375,0.23124999999998863,62,44,,0,0
140.59375,140.821875,0.22812500000000568,67,41,,0,0
140.59375,140.821875,0.22812500000000568,69,41,,0,0
140.59375,140.821875,0.22812500000000568,63,51,,0,0
140.82239583333333,140.93645833333332,0.11406249999998863,65,55,,0,0
140.93645833333332,141.05052083333334,0.11406250000001705,63,51,,0,0
141.05052083333334,141.27864583333334,0.22812500000000568,67,41,,0,0
141.05052083333334,141.27864583333334,0.22812500000000568,69,41,,0,0
141.05052083333334,141.27864583333334,0.22812500000000568,62,50,,0,0
141.27864583333334,141.51197916666666,0.23333333333332007,60,50,,0,0
142.49791666666667,142.9828125,0.48489583333332575,66,45,,0,0
142.49791666666667,142.9828125,0.48489583333332575,62,45,,0,0
141.99791666666667,142.9828125,0.9848958333333258,57,50,,0,0
141.51197916666666,142.9828125,1.4708333333333314,50,56,,0,0
142.98333333333332,143.21458333333334,0.23125000000001705,84,66,,0,0
142.98333333333332,143.21458333333334,0.23125000000001705,60,61,,0,0
143.21510416666666,143.44635416666665,0.23124999999998863,86,63,,0,0
143.21510416666666,143.44635416666665,0.23124999999998863,62,57,,0,0
143.446875,143.6703125,0.22343749999998863,87,67,,0,0
143.446875,143.6703125,0.22343749999998863,63,62,,0,0
143.67083333333332,143.78489583333334,0.11406250000001705,89,65,,0,0
143.67083333333332,143.78489583333334,0.11406250000001705,65,60,,0,0
143.78489583333334,143.89895833333333,0.11406249999998863,87,62,,0,0
143.78489583333334,143.89895833333333,0.11406249999998863,63,56,,0,0
143.89895833333333,144.12708333333333,0.22812500000000568,86,66,,0,0
143.89895833333333,144.12708333333333,0.22812500000000568,62,61,,0,0
144.12708333333333,144.36041666666665,0.23333333333332007,84,55,,0,0
144.12708333333333,144.36041666666665,0.23333333333332007,60,51,,0,0
144.36041666666665,144.58645833333333,0.22604166666667425,86,65,,0,0
144.36041666666665,144.58645833333333,0.22604166666667425,62,60,,0,0
144.58697916666665,144.815625,0.22864583333335986,85,54,,0,0
144.58697916666665,144.815625,0.22864583333335986,61,49,,0,0
144.815625,145.04166666666666,0.22604166666664582,81,59,,0,0
144.815625,145.04166666666666,0.22604166666664582,57,54,,0,0
145.0421875,145.278125,0.23593749999997726,84,52,,0,0
145.0421875,145.278125,0.23593749999997726,60,47,,0,0
145.27864583333334,145.50989583333333,0.23124999999998863,83,54,,0,0
145.27864583333334,145.50989583333333,0.23124999999998863,59,50,,0,0
145.51041666666666,145.74739583333334,0.23697916666668561,79,50,,0,0
145.51041666666666,145.74739583333334,0.23697916666668561,55,46,,0,0
145.74739583333334,145.97708333333333,0.22968749999998295,82,54,,0,0
145.74739583333334,145.97708333333333,0.22968749999998295,58,49,,0,0
145.97760416666665,146.215625,0.23802083333333712,81,47,,0,0
145.97760416666665,146.215625,0.23802083333333712,57,44,,0,0
146.215625,146.45052083333334,0.23489583333335418,78,52,,0,0
146.215625,146.45052083333334,0.23489583333335418,54,47,,0,0
146.45052083333334,146.69114583333334,0.24062499999999432,80,46,,0,0
146.45052083333334,146.69114583333334,0.24062499999999432,56,43,,0,0
146.69166666666666,146.93229166666666,0.24062499999999432,79,51,,0,0
146.69166666666666,146.93229166666666,0.24062499999999432,55,46,,0,0
146.93229166666666,147.17916666666667,0.24687500000001705,75,47,,0,0
146.93229166666666,147.17916666666667,0.24687500000001705,51,44,,0,0
148.11875,148.58177083333334,0.46302083333333144,66,45,,0,0
148.11875,148.58177083333334,0.46302083333333144,62,45,,0,0
147.17916666666667,148.58177083333334,1.4026041666666629,50,56,,0,0
147.65572916666667,148.58229166666666,0.9265624999999886,57,51,,0,0
148.58229166666666,148.81875,0.23645833333333144,62,46,,0,0
148.81875,149.08802083333333,0.2692708333333371,63,39,,0,0
149.08854166666666,149.27395833333333,0.18541666666666856,65,45,,0,0
149.27395833333333,149.38802083333334,0.11406250000001705,67,49,,0,0
149.08854166666666,149.50208333333333,0.41354166666667425,68,36,,0,0
149.08854166666666,149.50208333333333,0.41354166666667425,72,36,,0,0
149.38802083333334,149.50208333333333,0.11406249999998863,65,45,,0,0
149.50208333333333,149.73020833333334,0.22812500000000568,63,45,,0,0
149.50208333333333,149.96354166666666,0.46145833333332575,68,36,,0,0
149.50208333333333,149.96354166666666,0.46145833333332575,72,36,,0,0
149.73020833333334,149.96354166666666,0.23333333333332007,62,45,,0,0
150.903125,151.36614583333332,0.46302083333333144,71,45,,0,0
150.903125,151.36614583333332,0.46302083333333144,67,45,,0,0
149.96354166666666,151.36614583333332,1.4026041666666629,55,56,,0,0
150.44010416666666,151.36666666666667,0.926562500000017,62,51,,0,0
151.36666666666667,151.59791666666666,0.23124999999998863,62,51,,0,0
151.5984375,151.8296875,0.23125000000001705,63,46,,0,0
151.83020833333333,152.05833333333334,0.22812500000000568,68,39,,0,0
151.83020833333333,152.05833333333334,0.22812500000000568,72,39,,0,0
151.83020833333333,152.05833333333334,0.22812500000000568,65,50,,0,0
152.05833333333334,152.17239583333333,0.11406249999998863,67,54,,0,0
152.17239583333333,152.28645833333334,0.11406250000001705,65,49,,0,0
152.28645833333334,152.51458333333332,0.22812499999997726,68,39,,0,0
152.28645833333334,152.51458333333332,0.22812499999997726,72,39,,0,0
152.28645833333334,152.51458333333332,0.22812499999997726,63,52,,0,0
152.51458333333332,152.74791666666667,0.2333333333333485,62,48,,0,0
153.23385416666667,154.21875,0.9848958333333258,62,50,,0,0
152.74791666666667,154.21875,1.4708333333333314,55,56,,0,0
153.734375,154.21927083333333,0.48489583333332575,71,45,,0,0
153.734375,154.21927083333333,0.48489583333332575,67,45,,0,0
154.21927083333333,154.45104166666667,0.2317708333333428,75,67,,0,0
154.4515625,154.68333333333334,0.2317708333333428,78,63,,0,0
154.21927083333333,154.68333333333334,0.46406250000001137,67,49,,0,0
154.21927083333333,154.68333333333334,0.46406250000001137,60,49,,0,0
154.68385416666666,154.91197916666667,0.22812500000000568,79,66,,0,0
154.91197916666667,155.02604166666666,0.11406249999998863,74,57,,0,0
155.02604166666666,155.14010416666667,0.11406250000001705,75,57,,0,0
154.68385416666666,155.14010416666667,0.45625000000001137,67,45,,0,0
154.68385416666666,155.14010416666667,0.45625000000001137,58,45,,0,0
155.14010416666667,155.36822916666665,0.22812499999997726,72,63,,0,0
155.36822916666665,155.6015625,0.2333333333333485,74,56,,0,0
155.14010416666667,155.6015625,0.46145833333332575,66,45,,0,0
155.14010416666667,155.6015625,0.46145833333332575,57,45,,0,0
155.6015625,155.82916666666665,0.2276041666666515,70,65,,0,0
155.8296875,156.0640625,0.234375,74,50,,0,0
155.6015625,156.0640625,0.4625000000000057,62,38,,0,0
155.6015625,156.0640625,0.4625000000000057,55,45,,0,0
156.06458333333333,156.29479166666667,0.23020833333333712,69,62,,0,0
156.29479166666667,156.53020833333332,0.2354166666666515,74,49,,0,0
156.06458333333333,156.53020833333332,0.46562499999998863,62,30,,0,0
156.06458333333333,156.53020833333332,0.46562499999998863,54,36,,0,0
156.53020833333332,156.76145833333334,0.23125000000001705,70,60,,0,0
156.76145833333334,156.996875,0.2354166666666515,74,49,,0,0
156.53020833333332,156.996875,0.46666666666666856,62,33,,0,0
156.53020833333332,156.996875,0.46666666666666856,55,39,,0,0
156.996875,157.22864583333333,0.2317708333333428,79,56,,0,0
157.22916666666666,157.4609375,0.2317708333333428,81,51,,0,0
156.996875,157.4609375,0.46406250000001137,70,50,,0,0
156.996875,157.4609375,0.46406250000001137,63,50,,0,0
157.46145833333333,157.68958333333333,0.22812500000000568,82,56,,0,0
157.68958333333333,157.80364583333332,0.11406249999998863,77,51,,0,0
157.80364583333332,157.91770833333334,0.11406250000001705,79,51,,0,0
157.46145833333333,157.91770833333334,0.45625000000001137,70,50,,0,0
157.46145833333333,157.91770833333334,0.45625000000001137,62,46,,0,0
157.91770833333334,158.14583333333334,0.22812500000000568,75,57,,0,0
158.14583333333334,158.37916666666666,0.23333333333332007,77,49,,0,0
157.91770833333334,158.37916666666666,0.46145833333332575,69,51,,0,0
157.91770833333334,158.37916666666666,0.46145833333332575,60,40,,0,0
158.37916666666666,158.60677083333334,0.22760416666667993,74,53,,0,0
158.60729166666667,158.84166666666667,0.234375,77,46,,0,0
158.37916666666666,158.84166666666667,0.4625000000000057,65,37,,0,0
158.37916666666666,158.84166666666667,0.4625000000000057,58,40,,0,0
158.8421875,159.07239583333333,0.23020833333333712,73,51,,0,0
159.07239583333333,159.3078125,0.23541666666667993,77,44,,0,0
158.8421875,159.3078125,0.46562500000001705,65,36,,0,0
158.8421875,159.3078125,0.46562500000001705,57,32,,0,0
159.3078125,159.5390625,0.23124999999998863,74,52,,0,0
159.3078125,159.77447916666665,0.46666666666664014,65,36,,0,0
159.3078125,159.77447916666665,0.46666666666664014,58,33,,0,0
159.53958333333333,159.775,0.23541666666667993,77,46,,0,0
159.775,160.00625,0.23124999999998863,80,57,,0,0
159.775,160.00625,0.23124999999998863,56,39,,0,0
160.00677083333332,160.2328125,0.22604166666667425,82,50,,0,0
160.00677083333332,160.2328125,0.22604166666667425,58,35,,0,0
160.2328125,160.45677083333334,0.2239583333333428,84,55,,0,0
160.2328125,160.45677083333334,0.2239583333333428,60,38,,0,0
160.45729166666666,160.5703125,0.11302083333333712,87,49,,0,0
160.45729166666666,160.5703125,0.11302083333333712,63,34,,0,0
160.5703125,160.62552083333333,0.055208333333325754,85,46,,0,0
160.5703125,160.62552083333333,0.055208333333325754,61,29,,0,0
160.62604166666665,160.68125,0.055208333333354176,87,47,,0,0
160.62604166666665,160.68125,0.055208333333354176,63,30,,0,0
160.68125,160.90885416666666,0.2276041666666515,85,55,,0,0
160.68125,160.90885416666666,0.2276041666666515,61,38,,0,0
160.909375,161.14270833333333,0.23333333333332007,84,48,,0,0
160.909375,161.14270833333333,0.23333333333332007,60,33,,0,0
161.14322916666666,161.36927083333333,0.22604166666667425,87,57,,0,0
161.14322916666666,161.36927083333333,0.22604166666667425,63,39,,0,0
161.36927083333333,161.48333333333332,0.11406249999998863,84,49,,0,0
161.36927083333333,161.48333333333332,0.11406249999998863,60,34,,0,0
161.48385416666667,161.540625,0.05677083333333144,82,44,,0,0
161.48385416666667,161.540625,0.05677083333333144,58,29,,0,0
161.54114583333333,161.59791666666666,0.05677083333333144,84,44,,0,0
161.54114583333333,161.59791666666666,0.05677083333333144,60,29,,0,0
161.5984375,161.82447916666666,0.22604166666667425,82,55,,0,0
161.5984375,161.82447916666666,0.22604166666667425,58,38,,0,0
161.825,162.06354166666665,0.23854166666666288,81,48,,0,0
161.825,162.06354166666665,0.23854166666666288,57,33,,0,0
162.0640625,162.30989583333334,0.24583333333333712,84,55,,0,0
162.0640625,162.30989583333334,0.24583333333333712,60,38,,0,0
162.30989583333334,162.58385416666667,0.27395833333332575,87,48,,0,0
162.30989583333334,162.58385416666667,0.27395833333332575,63,33,,0,0
162.58385416666667,162.828125,0.24427083333333144,63,55,,0,0
162.828125,163.090625,0.26249999999998863,65,46,,0,0
163.090625,163.31875,0.22812500000000568,67,55,,0,0
163.31875,163.4328125,0.11406250000001705,69,52,,0,0
163.4328125,163.50416666666666,0.07135416666665151,67,49,,0,0
162.58385416666667,163.50416666666666,0.9203124999999943,57,48,,0,0
162.58385416666667,163.50416666666666,0.9203124999999943,48,40,,0,0
163.50416666666666,163.73229166666667,0.22812500000000568,65,53,,0,0
163.73229166666667,163.965625,0.23333333333332007,63,53,,0,0
163.50416666666666,163.965625,0.46145833333332575,58,36,,0,0
163.50416666666666,163.965625,0.46145833333332575,55,36,,0,0
163.50416666666666,163.965625,0.46145833333332575,49,30,,0,0
164.90572916666667,165.36875,0.46302083333333144,66,45,,0,0
164.90572916666667,165.36875,0.46302083333333144,62,45,,0,0
164.4421875,165.36875,0.926562500000017,57,45,,0,0
163.96614583333334,165.36875,1.4026041666666629,50,50,,0,0
165.36927083333333,165.60052083333332,0.23124999999998863,63,52,,0,0
165.60104166666667,165.83229166666666,0.23124999999998863,65,44,,0,0
165.83229166666666,166.06041666666667,0.22812500000000568,69,41,,0,0
165.83229166666666,166.06041666666667,0.22812500000000568,72,41,,0,0
165.83229166666666,166.06041666666667,0.22812500000000568,67,51,,0,0
166.06041666666667,166.17447916666666,0.11406249999998863,69,55,,0,0
166.175,166.2890625,0.11406249999998863,67,51,,0,0
166.2890625,166.5171875,0.22812500000000568,69,41,,0,0
166.2890625,166.5171875,0.22812500000000568,72,41,,0,0
166.2890625,166.5171875,0.22812500000000568,65,50,,0,0
166.5171875,166.75052083333333,0.23333333333332007,63,50,,0,0
167.69010416666666,168.153125,0.46302083333333144,66,45,,0,0
167.69010416666666,168.153125,0.46302083333333144,62,45,,0,0
167.2265625,168.153125,0.9265624999999886,57,50,,0,0
166.75052083333333,168.153125,1.4026041666666629,50,56,,0,0
168.15364583333334,168.38489583333333,0.23124999999998863,63,52,,0,0
168.38541666666666,168.61666666666667,0.23125000000001705,65,44,,0,0
168.6171875,168.8453125,0.22812500000000568,69,41,,0,0
168.6171875,168.8453125,0.22812500000000568,72,41,,0,0
168.6171875,168.8453125,0.22812500000000568,67,51,,0,0
168.8453125,168.959375,0.11406249999998863,69,55,,0,0
168.959375,169.0734375,0.11406250000001705,67,51,,0,0
169.0734375,169.3015625,0.22812499999997726,69,41,,0,0
169.0734375,169.3015625,0.22812499999997726,72,41,,0,0
169.0734375,169.3015625,0.22812499999997726,65,50,,0,0
169.3015625,169.53489583333334,0.2333333333333485,63,50,,0,0
170.52083333333334,171.0484375,0.5276041666666629,66,45,,0,0
170.52083333333334,171.0484375,0.5276041666666629,62,45,,0,0
170.02083333333334,171.0484375,1.0276041666666629,57,50,,0,0
169.53489583333334,171.0484375,1.5135416666666686,50,56,,0,0
171.04895833333333,171.1703125,0.12135416666666288,58,45,,0,0
171.17083333333332,171.23125,0.06041666666666856,62,23,,0,0
171.17083333333332,171.23125,0.06041666666666856,65,28,,0,0
171.2921875,171.35052083333332,0.0583333333333087,61,40,,0,0
171.409375,171.46770833333332,0.0583333333333087,62,21,,0,0
171.409375,171.46770833333332,0.0583333333333087,65,26,,0,0
171.5265625,171.58541666666667,0.05885416666666288,62,42,,0,0
171.6453125,171.70416666666665,0.05885416666666288,62,21,,0,0
171.6453125,171.70416666666665,0.05885416666666288,65,26,,0,0
171.76354166666667,171.8234375,0.05989583333334281,65,42,,0,0
171.884375,171.94427083333332,0.059895833333314386,62,20,,0,0
171.884375,171.94427083333332,0.059895833333314386,65,26,,0,0
172.00520833333334,172.06354166666665,0.0583333333333087,61,41,,0,0
172.12291666666667,172.18125,0.05833333333333712,62,21,,0,0
172.12291666666667,172.18125,0.05833333333333712,65,26,,0,0
172.240625,172.30104166666666,0.06041666666666856,62,38,,0,0
172.36197916666666,172.42239583333333,0.06041666666666856,62,18,,0,0
172.36197916666666,172.42239583333333,0.06041666666666856,65,26,,0,0
172.48385416666667,172.603125,0.11927083333333144,53,45,,0,0
172.60364583333333,172.66302083333332,0.05937499999998863,57,23,,0,0
172.60364583333333,172.66302083333332,0.05937499999998863,60,23,,0,0
172.60364583333333,172.66302083333332,0.05937499999998863,65,28,,0,0
172.72291666666666,172.78229166666665,0.05937499999998863,56,40,,0,0
172.8421875,172.9015625,0.05937500000001705,57,20,,0,0
172.8421875,172.9015625,0.05937500000001705,65,26,,0,0
172.8421875,172.9015625,0.05937500000001705,60,22,,0,0
173.00364583333334,173.06197916666667,0.05833333333333712,57,41,,0,0
173.12083333333334,173.17916666666667,0.05833333333333712,57,20,,0,0
173.12083333333334,173.17916666666667,0.05833333333333712,65,26,,0,0
173.12083333333334,173.17916666666667,0.05833333333333712,60,22,,0,0
173.23802083333334,173.29739583333333,0.05937499999998863,60,37,,0,0
173.35729166666667,173.41666666666666,0.05937499999998863,57,19,,0,0
173.35729166666667,173.41666666666666,0.05937499999998863,65,26,,0,0
173.35729166666667,173.41666666666666,0.05937499999998863,60,22,,0,0
173.47604166666667,173.534375,0.05833333333333712,56,39,,0,0
173.59322916666667,173.6515625,0.05833333333333712,57,19,,0,0
173.59322916666667,173.6515625,0.05833333333333712,65,26,,0,0
173.59322916666667,173.6515625,0.05833333333333712,60,22,,0,0
173.71041666666667,173.77135416666667,0.060937499999994316,57,36,,0,0
173.83229166666666,173.89322916666666,0.060937499999994316,57,17,,0,0
173.83229166666666,173.89322916666666,0.060937499999994316,65,26,,0,0
173.83229166666666,173.89322916666666,0.060937499999994316,60,22,,0,0
173.9546875,174.0765625,0.12187499999998863,51,43,,0,0
174.0765625,174.1375,0.060937499999994316,58,22,,0,0
174.0765625,174.1375,0.060937499999994316,67,26,,0,0
174.0765625,174.1375,0.060937499999994316,61,22,,0,0
174.19895833333334,174.25833333333333,0.05937499999998863,57,37,,0,0
174.31822916666667,174.37760416666666,0.05937499999998863,58,18,,0,0
174.31822916666667,174.37760416666666,0.05937499999998863,67,24,,0,0
174.31822916666667,174.37760416666666,0.05937499999998863,61,20,,0,0
174.4375,174.49739583333334,0.05989583333334281,58,38,,0,0
174.5578125,174.61822916666665,0.06041666666664014,58,18,,0,0
174.5578125,174.61822916666665,0.06041666666664014,67,24,,0,0
174.5578125,174.61822916666665,0.06041666666664014,61,20,,0,0
174.6796875,174.740625,0.060937499999994316,55,34,,0,0
174.80208333333334,174.86354166666666,0.06145833333332007,58,17,,0,0
174.80208333333334,174.86354166666666,0.06145833333332007,67,24,,0,0
174.80208333333334,174.86354166666666,0.06145833333332007,61,20,,0,0
174.92552083333334,174.9875,0.061979166666674246,53,36,,0,0
175.05052083333334,175.11302083333334,0.0625,58,18,,0,0
175.05052083333334,175.11302083333334,0.0625,67,24,,0,0
175.05052083333334,175.11302083333334,0.0625,61,20,,0,0
175.1765625,175.24375,0.06718750000001705,51,33,,0,0
175.31197916666667,175.4796875,0.16770833333333712,58,15,,0,0
175.31197916666667,175.4796875,0.16770833333333712,67,24,,0,0
175.31197916666667,175.4796875,0.16770833333333712,61,20,,0,0
175.60364583333333,176.97552083333332,1.3718749999999886,86,65,,0,0
175.60364583333333,176.97552083333332,1.3718749999999886,62,55,,0,0
176.97552083333332,177.35052083333332,0.375,84,57,,0,0
176.97552083333332,177.35052083333332,0.375,60,48,,0,0
177.35052083333332,177.72552083333332,0.375,86,57,,0,0
177.35052083333332,177.72552083333332,0.375,62,48,,0,0
179.03802083333332,179.1234375,0.08541666666667425,86,54,,0,0
177.72552083333332,179.1234375,1.3979166666666742,89,64,,0,0
179.03802083333332,179.1234375,0.08541666666667425,62,45,,0,0
177.72552083333332,179.1234375,1.3979166666666742,65,54,,0,0
179.12395833333332,179.209375,0.08541666666667425,87,54,,0,0
179.12395833333332,179.209375,0.08541666666667425,63,45,,0,0
179.209375,179.5640625,0.35468750000001137,86,60,,0,0
179.209375,179.5640625,0.35468750000001137,62,51,,0,0
179.56458333333333,179.93229166666666,0.36770833333332575,84,47,,0,0
179.56458333333333,179.93229166666666,0.36770833333332575,60,39,,0,0
179.9328125,181.4734375,1.5406249999999773,86,55,,0,0
179.9328125,181.4734375,1.5406249999999773,62,46,,0,0
181.4734375,182.32604166666667,0.8526041666666799,66,34,,0,0
182.32604166666667,184.85416666666666,2.5281249999999886,69,34,,0,0
181.4734375,184.85416666666666,3.3807291666666686,57,28,,0,0
181.4734375,184.85416666666666,3.3807291666666686,62,28,,0,0
182.32604166666667,184.85416666666666,2.5281249999999886,66,34,,0,0
181.4734375,184.85416666666666,3.3807291666666686,50,26,,0,0
181.4734375,184.85416666666666,3.3807291666666686,38,21,,0,0
184.8546875,186.396875,1.542187499999983,86,65,,0,0
184.8546875,186.396875,1.542187499999983,62,55,,0,0
186.396875,186.771875,0.375,84,57,,0,0
186.396875,186.771875,0.375,60,48,,0,0
186.771875,187.1890625,0.41718750000001137,86,57,,0,0
186.771875,187.1890625,0.41718750000001137,62,48,,0,0
188.50208333333333,188.5875,0.08541666666667425,86,54,,0,0
187.18958333333333,188.5875,1.3979166666666742,89,64,,0,0
188.50208333333333,188.5875,0.08541666666667425,62,45,,0,0
187.18958333333333,188.5875,1.3979166666666742,65,54,,0,0
188.58802083333333,188.6734375,0.08541666666667425,87,54,,0,0
188.58802083333333,188.6734375,0.08541666666667425,63,45,,0,0
188.67395833333333,189.02447916666665,0.35052083333332007,86,60,,0,0
188.67395833333333,189.02447916666665,0.35052083333332007,62,51,,0,0
189.02447916666665,189.396875,0.3723958333333428,84,47,,0,0
189.02447916666665,189.396875,0.3723958333333428,60,39,,0,0
189.39739583333332,191.0203125,1.6229166666666686,86,55,,0,0
189.39739583333332,191.0203125,1.6229166666666686,62,46,,0,0
191.02083333333334,191.93802083333333,0.917187499999983,67,30,,0,0
191.02083333333334,191.93802083333333,0.917187499999983,61,25,,0,0
191.02083333333334,191.93802083333333,0.917187499999983,51,23,,0,0
191.93802083333333,194.86041666666665,2.9223958333333258,66,30,,0,0
191.93802083333333,194.86041666666665,2.9223958333333258,62,30,,0,0
191.02083333333334,194.86041666666665,3.8395833333333087,57,25,,0,0
191.93802083333333,194.86041666666665,2.9223958333333258,50,23,,0,0
194.86041666666665,195.01979166666666,0.15937500000001137,55,59,,0,0
195.01979166666666,195.078125,0.05833333333333712,62,31,,0,0
195.13697916666666,195.19166666666666,0.0546875,62,47,,0,0
195.246875,195.3015625,0.0546875,62,35,,0,0
195.35729166666667,195.41302083333332,0.05572916666665151,63,53,,0,0
195.46875,195.52447916666665,0.05572916666665151,62,39,,0,0
195.58020833333333,195.63697916666666,0.05677083333333144,60,45,,0,0
195.69427083333332,195.75104166666665,0.05677083333333144,62,37,,0,0
195.8078125,195.86458333333334,0.05677083333333144,62,49,,0,0
195.92135416666667,195.978125,0.05677083333333144,62,34,,0,0
196.03489583333334,196.09166666666667,0.05677083333333144,58,45,,0,0
196.1484375,196.20520833333333,0.05677083333333144,62,32,,0,0
196.26197916666666,196.37864583333334,0.11666666666667425,55,62,,0,0
196.37916666666666,196.4375,0.05833333333333712,62,31,,0,0
196.49583333333334,196.55104166666666,0.055208333333325754,62,47,,0,0
196.60625,196.66145833333334,0.055208333333354176,62,35,,0,0
196.7171875,196.7796875,0.0625,63,53,,0,0
196.871875,196.92760416666667,0.05572916666667993,62,39,,0,0
196.98385416666667,197.040625,0.05677083333333144,60,45,,0,0
197.09739583333334,197.15416666666667,0.05677083333333144,62,37,,0,0
197.2109375,197.26770833333333,0.05677083333333144,62,49,,0,0
197.32447916666666,197.38125,0.05677083333333144,62,34,,0,0
197.43802083333333,197.49479166666666,0.05677083333333144,58,45,,0,0
197.5515625,197.60833333333332,0.05677083333333144,62,32,,0,0
197.665625,197.78229166666665,0.11666666666664582,55,62,,0,0
197.78229166666665,197.840625,0.05833333333333712,62,31,,0,0
197.89895833333333,197.95416666666665,0.055208333333325754,62,47,,0,0
198.009375,198.06458333333333,0.055208333333325754,62,35,,0,0
198.1203125,198.17604166666666,0.05572916666665151,63,50,,0,0
198.23229166666667,198.28802083333332,0.05572916666665151,62,39,,0,0
198.34427083333333,198.40052083333333,0.056250000000005684,60,45,,0,0
198.45677083333334,198.51302083333334,0.056250000000005684,62,37,,0,0
198.56979166666667,198.6265625,0.05677083333333144,62,52,,0,0
198.68333333333334,198.74010416666667,0.05677083333333144,62,40,,0,0
198.796875,198.85364583333333,0.05677083333333144,58,48,,0,0
198.91041666666666,198.9671875,0.05677083333333144,62,37,,0,0
199.02447916666665,199.08125,0.05677083333335986,60,57,,0,0
199.13802083333334,199.19479166666667,0.05677083333333144,62,41,,0,0
199.2515625,199.30677083333333,0.055208333333325754,57,49,,0,0
199.3625,199.41770833333334,0.055208333333325754,62,35,,0,0
199.47395833333334,199.52916666666667,0.055208333333325754,58,53,,0,0
199.58489583333332,199.64010416666667,0.055208333333354176,62,39,,0,0
199.69583333333333,199.7515625,0.05572916666667993,60,49,,0,0
199.80833333333334,199.8640625,0.05572916666665151,62,34,,0,0
199.92083333333332,199.97708333333333,0.056250000000005684,57,51,,0,0
200.03385416666666,200.090625,0.05677083333333144,62,38,,0,0
200.14791666666667,200.2046875,0.05677083333333144,58,48,,0,0
200.26197916666666,200.3203125,0.05833333333333712,62,37,,0,0
200.37916666666666,200.49791666666667,0.11875000000000568,55,59,,0,0
200.49791666666667,200.55729166666666,0.05937499999998863,62,30,,0,0
200.6171875,200.671875,0.0546875,62,47,,0,0
200.72760416666665,200.78229166666665,0.0546875,62,35,,0,0
200.8375,200.89322916666666,0.05572916666665151,63,50,,0,0
200.94895833333334,201.0046875,0.05572916666665151,62,36,,0,0
201.0609375,201.11770833333333,0.05677083333333144,60,45,,0,0
201.17447916666666,201.23125,0.05677083333333144,62,31,,0,0
201.28802083333332,201.34479166666665,0.05677083333333144,62,51,,0,0
201.4015625,201.45833333333334,0.05677083333333144,62,36,,0,0
201.51510416666667,201.571875,0.05677083333333144,58,45,,0,0
201.62864583333334,201.68541666666667,0.05677083333333144,62,33,,0,0
201.74270833333333,201.859375,0.11666666666667425,55,62,,0,0
201.859375,201.91770833333334,0.05833333333333712,62,37,,0,0
201.97604166666667,202.03072916666667,0.0546875,62,50,,0,0
202.08541666666667,202.14010416666667,0.0546875,62,35,,0,0
202.19479166666667,202.25052083333333,0.05572916666665151,63,54,,0,0
202.30677083333333,202.3625,0.05572916666667993,62,39,,0,0
202.41875,202.47552083333332,0.05677083333333144,60,45,,0,0
202.53229166666665,202.5890625,0.05677083333335986,62,37,,0,0
202.64635416666667,202.703125,0.05677083333333144,62,49,,0,0
202.75989583333333,202.81666666666666,0.05677083333333144,62,34,,0,0
202.8734375,202.93020833333333,0.05677083333333144,58,45,,0,0
202.98697916666666,203.04375,0.05677083333333144,62,32,,0,0
203.10052083333332,203.2171875,0.11666666666667425,55,62,,0,0
203.2171875,203.27552083333333,0.05833333333333712,62,31,,0,0
203.334375,203.38958333333332,0.055208333333325754,62,47,,0,0
203.44479166666667,203.5,0.055208333333325754,62,35,,0,0
203.55572916666665,203.61145833333333,0.05572916666667993,63,50,,0,0
203.66770833333334,203.7234375,0.05572916666665151,62,39,,0,0
203.77916666666667,203.83541666666667,0.056250000000005684,60,45,,0,0
203.8921875,203.9484375,0.056250000000005684,62,37,,0,0
204.00520833333334,204.06197916666667,0.05677083333333144,62,52,,0,0
204.11875,204.17552083333334,0.05677083333333144,62,40,,0,0
204.23229166666667,204.2890625,0.05677083333333144,58,48,,0,0
204.34583333333333,204.40260416666666,0.05677083333333144,62,37,,0,0
204.459375,204.51614583333333,0.05677083333333144,60,55,,0,0
204.57291666666666,204.6296875,0.05677083333333144,62,41,,0,0
204.68697916666667,204.7421875,0.055208333333325754,57,49,,0,0
204.79791666666665,204.853125,0.055208333333354176,62,35,,0,0
204.90885416666666,204.9640625,0.055208333333354176,58,56,,0,0
205.0203125,205.07552083333334,0.055208333333354176,62,43,,0,0
205.13125,205.18697916666667,0.05572916666667993,55,51,,0,0
205.24375,205.29947916666666,0.05572916666665151,62,37,,0,0
205.35625,205.4125,0.056250000000005684,53,56,,0,0
205.46927083333333,205.52604166666666,0.05677083333333144,62,44,,0,0
205.5828125,205.64010416666667,0.057291666666685614,51,53,,0,0
205.69895833333334,205.75833333333333,0.05937499999998863,62,39,,0,0
205.81822916666667,205.9359375,0.11770833333332575,50,59,,0,0
205.93645833333332,205.99531249999998,0.05885416666666288,62,31,,0,0
206.05416666666667,206.10833333333332,0.054166666666645824,62,47,,0,0
206.16354166666667,206.21770833333332,0.054166666666645824,62,35,,0,0
206.27239583333332,206.328125,0.05572916666667993,63,53,,0,0
206.38385416666665,206.43958333333333,0.05572916666667993,62,39,,0,0
206.49583333333334,206.55260416666667,0.05677083333333144,60,45,,0,0
206.609375,206.66614583333333,0.05677083333333144,62,37,,0,0
206.72291666666666,206.7796875,0.05677083333333144,62,49,,0,0
206.83645833333333,206.89322916666666,0.05677083333333144,62,34,,0,0
206.95,207.00677083333332,0.05677083333333144,57,45,,0,0
207.06354166666665,207.12031249999998,0.05677083333333144,62,32,,0,0
207.17760416666667,207.29427083333334,0.11666666666667425,50,62,,0,0
207.29427083333334,207.35260416666665,0.0583333333333087,62,31,,0,0
207.4109375,207.465625,0.0546875,62,47,,0,0
207.52083333333334,207.57552083333334,0.0546875,62,35,,0,0
207.63072916666667,207.68645833333332,0.05572916666665151,63,53,,0,0
207.74270833333333,207.7984375,0.05572916666667993,62,39,,0,0
207.85468749999998,207.91145833333334,0.05677083333335986,60,45,,0,0
207.96822916666667,208.025,0.05677083333333144,62,37,,0,0
208.08177083333334,208.13854166666667,0.05677083333333144,62,49,,0,0
208.1953125,208.25208333333333,0.05677083333333144,62,34,,0,0
208.30885416666666,208.365625,0.05677083333333144,57,45,,0,0
208.42291666666665,208.47968749999998,0.05677083333333144,62,32,,0,0
208.53645833333334,208.653125,0.11666666666664582,50,62,,0,0
208.653125,208.71145833333333,0.05833333333333712,62,31,,0,0
208.76979166666666,208.825,0.055208333333325754,57,47,,0,0
208.88072916666667,208.9359375,0.055208333333325754,62,35,,0,0
208.99114583333332,209.046875,0.05572916666667993,60,52,,0,0
209.103125,209.15885416666666,0.05572916666665151,62,39,,0,0
209.21510416666666,209.27135416666667,0.056250000000005684,62,51,,0,0
209.328125,209.384375,0.056250000000005684,62,37,,0,0
209.44062499999998,209.49739583333334,0.05677083333335986,63,56,,0,0
209.55416666666667,209.6109375,0.05677083333333144,62,44,,0,0
209.66770833333334,209.72447916666667,0.05677083333333144,65,53,,0,0
209.78177083333333,209.83854166666666,0.05677083333333144,62,41,,0,0
209.8953125,209.95208333333332,0.05677083333333144,62,59,,0,0
210.00885416666665,210.06562499999998,0.05677083333333144,62,48,,0,0
210.12239583333334,210.17760416666667,0.055208333333325754,63,52,,0,0
210.23333333333332,210.28854166666667,0.055208333333354176,62,42,,0,0
210.34479166666665,210.4,0.055208333333354176,60,54,,0,0
210.45572916666666,210.51093749999998,0.055208333333325754,62,47,,0,0
210.56666666666666,210.62239583333334,0.05572916666667993,62,49,,0,0
210.67916666666667,210.73489583333333,0.05572916666665151,62,41,,0,0
210.79166666666666,210.84791666666666,0.056250000000005684,58,51,,0,0
210.9046875,210.96145833333333,0.05677083333333144,62,43,,0,0
211.01874999999998,211.07552083333334,0.05677083333335986,57,48,,0,0
211.1328125,211.19010416666666,0.05729166666665719,62,37,,0,0
211.24791666666667,211.365625,0.11770833333332575,50,59,,0,0
211.36614583333332,211.42499999999998,0.05885416666666288,62,31,,0,0
211.484375,211.5390625,0.0546875,62,47,,0,0
211.59479166666665,211.64947916666665,0.0546875,62,35,,0,0
211.7046875,211.76041666666666,0.05572916666665151,63,53,,0,0
211.81614583333334,211.871875,0.05572916666665151,62,39,,0,0
211.928125,211.98489583333333,0.05677083333333144,60,45,,0,0
212.04166666666666,212.0984375,0.05677083333333144,62,37,,0,0
212.15520833333332,212.21197916666665,0.05677083333333144,62,49,,0,0
212.26874999999998,212.32552083333334,0.05677083333335986,62,34,,0,0
212.38229166666667,212.4390625,0.05677083333333144,57,45,,0,0
212.49635416666666,212.553125,0.05677083333333144,62,32,,0,0
212.60989583333333,212.7265625,0.11666666666667425,50,62,,0,0
212.7265625,212.78489583333334,0.05833333333333712,62,31,,0,0
212.84322916666667,212.8984375,0.055208333333325754,62,47,,0,0
212.95416666666665,213.009375,0.055208333333354176,62,35,,0,0
213.06458333333333,213.12031249999998,0.05572916666665151,63,53,,0,0
213.1765625,213.23229166666667,0.05572916666667993,62,39,,0,0
213.28854166666667,213.3453125,0.05677083333333144,60,45,,0,0
213.40208333333334,213.45885416666667,0.05677083333333144,62,37,,0,0
213.515625,213.57239583333333,0.05677083333333144,62,49,,0,0
213.62916666666666,213.6859375,0.05677083333333144,62,34,,0,0
213.74322916666665,213.79999999999998,0.05677083333333144,57,45,,0,0
213.85677083333334,213.91354166666667,0.05677083333333144,62,32,,0,0
213.9703125,214.08697916666665,0.11666666666664582,50,62,,0,0
214.08697916666665,214.1453125,0.05833333333333712,62,31,,0,0
214.20364583333333,214.25885416666665,0.055208333333325754,60,47,,0,0
214.31458333333333,214.36979166666666,0.055208333333325754,62,35,,0,0
214.42499999999998,214.48072916666666,0.05572916666667993,62,52,,0,0
214.53697916666667,214.59270833333332,0.05572916666665151,62,39,,0,0
214.64895833333333,214.70520833333333,0.056250000000005684,63,51,,0,0
214.76197916666666,214.81822916666667,0.056250000000005684,62,37,,0,0
214.87447916666667,214.93125,0.05677083333333144,65,56,,0,0
214.98802083333334,215.04479166666667,0.05677083333333144,62,44,,0,0
215.10208333333333,215.15885416666666,0.05677083333333144,62,53,,0,0
215.215625,215.27239583333332,0.05677083333333144,62,41,,0,0
215.32916666666665,215.38593749999998,0.05677083333333144,63,59,,0,0
215.44270833333334,215.49947916666667,0.05677083333333144,62,48,,0,0
215.55625,215.61145833333333,0.055208333333325754,60,52,,0,0
215.66770833333334,215.72291666666666,0.055208333333325754,62,42,,0,0
215.77864583333334,215.83385416666667,0.055208333333325754,62,54,,0,0
215.88958333333332,215.94479166666667,0.055208333333354176,62,47,,0,0
216.00104166666665,216.05729166666666,0.056250000000005684,58,49,,0,0
216.11354166666666,216.1703125,0.05677083333333144,62,41,,0,0
216.22760416666665,216.28489583333334,0.057291666666685614,60,51,,0,0
216.34322916666667,216.40104166666666,0.05781249999998295,62,43,,0,0
216.45989583333332,216.51874999999998,0.05885416666666288,57,48,,0,0
216.578125,216.6375,0.05937499999998863,62,37,,0,0
216.69635416666665,216.81302083333333,0.11666666666667425,55,64,,0,0
216.81354166666665,216.871875,0.05833333333333712,62,34,,0,0
216.81354166666665,216.871875,0.05833333333333712,74,44,,0,0
216.93072916666665,216.984375,0.05364583333334849,62,51,,0,0
217.03854166666667,217.0921875,0.05364583333332007,62,38,,0,0
217.03854166666667,217.0921875,0.05364583333332007,74,49,,0,0
217.146875,217.20260416666667,0.05572916666667993,63,58,,0,0
217.25885416666665,217.31458333333333,0.05572916666667993,62,42,,0,0
217.25885416666665,217.31458333333333,0.05572916666667993,74,54,,0,0
217.37031249999998,217.42708333333334,0.05677083333335986,60,49,,0,0
217.48385416666667,217.540625,0.05677083333333144,62,40,,0,0
217.48385416666667,217.540625,0.05677083333333144,74,52,,0,0
217.59739583333334,217.65416666666667,0.05677083333333144,62,53,,0,0
217.7109375,217.76770833333333,0.05677083333333144,62,37,,0,0
217.7109375,217.76770833333333,0.05677083333333144,74,48,,0,0
217.82447916666666,217.88125,0.05677083333333144,58,49,,0,0
217.93854166666665,217.99531249999998,0.05677083333333144,62,35,,0,0
217.93854166666665,217.99531249999998,0.05677083333333144,74,45,,0,0
218.05208333333334,218.16875,0.11666666666664582,55,68,,0,0
218.16875,218.22708333333333,0.05833333333333712,62,34,,0,0
218.16875,218.22708333333333,0.05833333333333712,74,44,,0,0
218.28541666666666,218.33906249999998,0.05364583333332007,62,51,,0,0
218.39374999999998,218.44739583333333,0.05364583333334849,62,38,,0,0
218.39374999999998,218.44739583333333,0.05364583333334849,74,49,,0,0
218.50208333333333,218.55781249999998,0.05572916666665151,63,58,,0,0
218.6140625,218.66979166666667,0.05572916666667993,62,42,,0,0
218.6140625,218.66979166666667,0.05572916666667993,74,54,,0,0
218.72604166666667,218.7828125,0.05677083333333144,60,49,,0,0
218.83958333333334,218.89635416666667,0.05677083333333144,62,40,,0,0
218.83958333333334,218.89635416666667,0.05677083333333144,74,52,,0,0
218.953125,219.00989583333333,0.05677083333333144,62,53,,0,0
219.06666666666666,219.1234375,0.05677083333333144,62,37,,0,0
219.06666666666666,219.1234375,0.05677083333333144,74,48,,0,0
219.18020833333333,219.23697916666666,0.05677083333333144,58,49,,0,0
219.29427083333334,219.35104166666667,0.05677083333333144,62,35,,0,0
219.29427083333334,219.35104166666667,0.05677083333333144,74,45,,0,0
219.4078125,219.52447916666665,0.11666666666664582,55,68,,0,0
219.52447916666665,219.5828125,0.05833333333333712,62,34,,0,0
219.52447916666665,219.5828125,0.05833333333333712,74,44,,0,0
219.64114583333333,219.69635416666665,0.055208333333325754,62,51,,0,0
219.75208333333333,219.80729166666666,0.055208333333325754,62,38,,0,0
219.75208333333333,219.80729166666666,0.055208333333325754,74,49,,0,0
219.86249999999998,219.91822916666666,0.05572916666667993,63,55,,0,0
219.97447916666667,220.03020833333332,0.05572916666665151,62,42,,0,0
219.97447916666667,220.03020833333332,0.05572916666665151,74,54,,0,0
220.08645833333333,220.14270833333333,0.056250000000005684,60,49,,0,0
220.19947916666666,220.25572916666667,0.056250000000005684,62,40,,0,0
220.19947916666666,220.25572916666667,0.056250000000005684,74,52,,0,0
220.31197916666667,220.36875,0.05677083333333144,62,57,,0,0
220.42552083333334,220.48229166666667,0.05677083333333144,62,44,,0,0
220.42552083333334,220.48229166666667,0.05677083333333144,74,57,,0,0
220.5390625,220.59583333333333,0.05677083333333144,58,52,,0,0
220.653125,220.70989583333332,0.05677083333333144,62,40,,0,0
220.653125,220.70989583333332,0.05677083333333144,74,52,,0,0
220.76666666666665,220.82343749999998,0.05677083333333144,60,62,,0,0
220.88020833333334,220.93697916666667,0.05677083333333144,62,45,,0,0
220.88020833333334,220.93697916666667,0.05677083333333144,74,58,,0,0
220.99375,221.04895833333333,0.055208333333325754,57,53,,0,0
221.10520833333334,221.16041666666666,0.055208333333325754,62,38,,0,0
221.10520833333334,221.16041666666666,0.055208333333325754,74,49,,0,0
221.21614583333334,221.27135416666667,0.055208333333325754,58,58,,0,0
221.32708333333332,221.38229166666667,0.055208333333354176,62,42,,0,0
221.32708333333332,221.38229166666667,0.055208333333354176,74,54,,0,0
221.43854166666665,221.49427083333333,0.05572916666667993,60,53,,0,0
221.55052083333334,221.60625,0.05572916666665151,62,37,,0,0
221.55052083333334,221.60625,0.05572916666665151,74,48,,0,0
221.66302083333332,221.71927083333333,0.056250000000005684,57,56,,0,0
221.77604166666666,221.8328125,0.05677083333333144,62,41,,0,0
221.77604166666666,221.8328125,0.05677083333333144,74,53,,0,0
221.89010416666667,221.946875,0.05677083333333144,58,52,,0,0
222.00416666666666,222.06458333333333,0.06041666666666856,62,40,,0,0
222.00416666666666,222.06458333333333,0.06041666666666856,74,52,,0,0
222.12604166666665,222.24270833333333,0.11666666666667425,55,64,,0,0
222.24270833333333,222.30104166666666,0.05833333333333712,62,34,,0,0
222.24270833333333,222.30104166666666,0.05833333333333712,74,44,,0,0
222.359375,222.4140625,0.0546875,62,51,,0,0
222.46979166666665,222.52447916666665,0.0546875,62,38,,0,0
222.46979166666665,222.52447916666665,0.0546875,74,49,,0,0
222.5796875,222.63541666666666,0.05572916666665151,63,58,,0,0
222.69114583333334,222.746875,0.05572916666665151,62,42,,0,0
222.69114583333334,222.746875,0.05572916666665151,74,54,,0,0
222.803125,222.85989583333333,0.05677083333333144,60,49,,0,0
222.91666666666666,222.9734375,0.05677083333333144,62,40,,0,0
222.91666666666666,222.9734375,0.05677083333333144,74,52,,0,0
223.03020833333332,223.08697916666665,0.05677083333333144,62,53,,0,0
223.14374999999998,223.20052083333334,0.05677083333335986,62,37,,0,0
223.14374999999998,223.20052083333334,0.05677083333335986,74,48,,0,0
223.25729166666667,223.3140625,0.05677083333333144,58,49,,0,0
223.37083333333334,223.42760416666667,0.05677083333333144,62,35,,0,0
223.37083333333334,223.42760416666667,0.05677083333333144,74,45,,0,0
223.48489583333333,223.6015625,0.11666666666667425,55,68,,0,0
223.6015625,223.65989583333334,0.05833333333333712,62,34,,0,0
223.6015625,223.65989583333334,0.05833333333333712,74,44,,0,0
223.71822916666667,223.7734375,0.055208333333325754,62,51,,0,0
223.82864583333333,223.88385416666665,0.055208333333325754,62,38,,0,0
223.82864583333333,223.88385416666665,0.055208333333325754,74,49,,0,0
223.93958333333333,223.99531249999998,0.05572916666665151,63,58,,0,0
224.0515625,224.10729166666667,0.05572916666667993,62,42,,0,0
224.0515625,224.10729166666667,0.05572916666667993,74,54,,0,0
224.16354166666667,224.2203125,0.05677083333333144,60,49,,0,0
224.27708333333334,224.33385416666667,0.05677083333333144,62,40,,0,0
224.27708333333334,224.33385416666667,0.05677083333333144,74,52,,0,0
224.390625,224.44739583333333,0.05677083333333144,62,53,,0,0
224.50416666666666,224.5609375,0.05677083333333144,62,37,,0,0
224.50416666666666,224.5609375,0.05677083333333144,74,48,,0,0
224.61822916666665,224.67499999999998,0.05677083333333144,58,49,,0,0
224.73177083333334,224.78854166666667,0.05677083333333144,62,35,,0,0
224.73177083333334,224.78854166666667,0.05677083333333144,74,45,,0,0
224.8453125,224.96197916666665,0.11666666666664582,55,68,,0,0
224.96197916666665,225.0203125,0.05833333333333712,62,34,,0,0
224.96197916666665,225.0203125,0.05833333333333712,74,44,,0,0
225.07864583333333,225.13385416666665,0.055208333333325754,62,51,,0,0
225.18958333333333,225.24479166666666,0.055208333333325754,62,38,,0,0
225.18958333333333,225.24479166666666,0.055208333333325754,74,49,,0,0
225.29999999999998,225.35572916666666,0.05572916666667993,63,55,,0,0
225.41197916666667,225.46770833333332,0.05572916666665151,62,42,,0,0
225.41197916666667,225.46770833333332,0.05572916666665151,74,54,,0,0
225.52395833333333,225.58020833333333,0.056250000000005684,60,49,,0,0
225.63697916666666,225.69322916666667,0.056250000000005684,62,40,,0,0
225.63697916666666,225.69322916666667,0.056250000000005684,74,52,,0,0
225.74947916666667,225.80625,0.05677083333333144,62,57,,0,0
225.86302083333334,225.91979166666667,0.05677083333333144,62,44,,0,0
225.86302083333334,225.91979166666667,0.05677083333333144,74,57,,0,0
225.97708333333333,226.03385416666666,0.05677083333333144,58,52,,0,0
226.090625,226.14739583333332,0.05677083333333144,62,40,,0,0
226.090625,226.14739583333332,0.05677083333333144,74,52,,0,0
226.20416666666665,226.26093749999998,0.05677083333333144,60,62,,0,0
226.31770833333334,226.37447916666667,0.05677083333333144,62,45,,0,0
226.31770833333334,226.37447916666667,0.05677083333333144,74,58,,0,0
226.43125,226.4859375,0.0546875,57,53,,0,0
226.54114583333333,226.59583333333333,0.0546875,62,38,,0,0
226.54114583333333,226.59583333333333,0.0546875,74,49,,0,0
226.65104166666666,226.70624999999998,0.055208333333325754,58,62,,0,0
226.7625,226.81770833333334,0.055208333333354176,62,48,,0,0
226.7625,226.81770833333334,0.055208333333354176,74,62,,0,0
226.8734375,226.92916666666667,0.05572916666667993,55,58,,0,0
226.9859375,227.04166666666666,0.05572916666665151,62,42,,0,0
226.9859375,227.04166666666666,0.05572916666665151,74,54,,0,0
227.0984375,227.1546875,0.056250000000005684,53,64,,0,0
227.21145833333333,227.26874999999998,0.05729166666665719,62,51,,0,0
227.21145833333333,227.26874999999998,0.05729166666665719,74,66,,0,0
227.32760416666667,227.38645833333334,0.05885416666666288,51,62,,0,0
227.44583333333333,227.50572916666667,0.05989583333334281,62,45,,0,0
227.44583333333333,227.50572916666667,0.05989583333334281,74,58,,0,0
227.56770833333334,227.684375,0.11666666666664582,50,84,,0,0
227.56770833333334,227.684375,0.11666666666664582,38,71,,0,0
227.684375,227.75208333333333,0.06770833333334281,74,70,,0,0
227.684375,227.75208333333333,0.06770833333334281,86,83,,0,0
227.684375,227.75208333333333,0.06770833333334281,81,83,,0,0
227.684375,227.75208333333333,0.06770833333334281,78,70,,0,0
227.81979166666667,227.87447916666667,0.0546875,62,56,,0,0
227.9296875,227.984375,0.0546875,62,42,,0,0
227.9296875,227.984375,0.0546875,74,54,,0,0
228.0390625,228.09479166666665,0.05572916666665151,63,63,,0,0
228.15052083333333,228.20624999999998,0.05572916666665151,62,46,,0,0
228.15052083333333,228.20624999999998,0.05572916666665151,74,59,,0,0
228.26197916666666,228.31875,0.05677083333333144,60,54,,0,0
228.37552083333333,228.43229166666666,0.05677083333333144,62,44,,0,0
228.37552083333333,228.43229166666666,0.05677083333333144,74,57,,0,0
228.4890625,228.54583333333332,0.05677083333333144,62,58,,0,0
228.603125,228.65989583333334,0.05677083333333144,62,40,,0,0
228.603125,228.65989583333334,0.05677083333333144,74,52,,0,0
228.71666666666667,228.7734375,0.05677083333333144,57,54,,0,0
228.83020833333333,228.88697916666666,0.05677083333333144,62,38,,0,0
228.83020833333333,228.88697916666666,0.05677083333333144,74,49,,0,0
228.94375,229.06041666666667,0.11666666666667425,50,88,,0,0
228.94375,229.06041666666667,0.11666666666667425,38,74,,0,0
229.06041666666667,229.12708333333333,0.06666666666666288,74,72,,0,0
229.06041666666667,229.12708333333333,0.06666666666666288,86,85,,0,0
229.06041666666667,229.12708333333333,0.06666666666666288,81,85,,0,0
229.06041666666667,229.12708333333333,0.06666666666666288,78,72,,0,0
229.19427083333332,229.24895833333332,0.0546875,62,56,,0,0
229.30416666666667,229.35885416666667,0.0546875,62,42,,0,0
229.30416666666667,229.35885416666667,0.0546875,74,54,,0,0
229.4140625,229.46979166666665,0.05572916666665151,63,63,,0,0
229.52604166666666,229.58177083333334,0.05572916666667993,62,46,,0,0
229.52604166666666,229.58177083333334,0.05572916666667993,74,59,,0,0
229.63802083333334,229.69479166666667,0.05677083333333144,60,54,,0,0
229.7515625,229.80833333333334,0.05677083333333144,62,44,,0,0
229.7515625,229.80833333333334,0.05677083333333144,74,57,,0,0
229.865625,229.92239583333333,0.05677083333333144,62,58,,0,0
229.97916666666666,230.0359375,0.05677083333333144,62,40,,0,0
229.97916666666666,230.0359375,0.05677083333333144,74,52,,0,0
230.09270833333332,230.14947916666665,0.05677083333333144,57,54,,0,0
230.20624999999998,230.26302083333334,0.05677083333335986,62,38,,0,0
230.20624999999998,230.26302083333334,0.05677083333335986,74,49,,0,0
230.31979166666667,230.43645833333332,0.11666666666664582,50,88,,0,0
230.31979166666667,230.43645833333332,0.11666666666664582,38,74,,0,0
230.43645833333332,230.50208333333333,0.06562500000001137,74,70,,0,0
230.43645833333332,230.50208333333333,0.06562500000001137,86,83,,0,0
230.43645833333332,230.50208333333333,0.06562500000001137,81,83,,0,0
230.43645833333332,230.50208333333333,0.06562500000001137,78,70,,0,0
230.56875,230.6234375,0.0546875,57,56,,0,0
230.67864583333332,230.73333333333332,0.0546875,62,42,,0,0
230.67864583333332,230.73333333333332,0.0546875,74,54,,0,0
230.78854166666667,230.84427083333333,0.05572916666665151,60,62,,0,0
230.90052083333333,230.95624999999998,0.05572916666665151,62,46,,0,0
230.90052083333333,230.95624999999998,0.05572916666665151,74,59,,0,0
231.0125,231.06875,0.056250000000005684,62,61,,0,0
231.12552083333333,231.18177083333333,0.056250000000005684,62,44,,0,0
231.12552083333333,231.18177083333333,0.056250000000005684,74,57,,0,0
231.23802083333334,231.29479166666667,0.05677083333333144,63,67,,0,0
231.3515625,231.40833333333333,0.05677083333333144,62,52,,0,0
231.3515625,231.40833333333333,0.05677083333333144,74,67,,0,0
231.46510416666666,231.521875,0.05677083333333144,65,63,,0,0
231.57916666666665,231.63593749999998,0.05677083333333144,62,49,,0,0
231.57916666666665,231.63593749999998,0.05677083333333144,74,63,,0,0
231.69270833333334,231.74947916666667,0.05677083333333144,62,70,,0,0
231.80625,231.86302083333334,0.05677083333333144,62,54,,0,0
231.80625,231.86302083333334,0.05677083333333144,74,70,,0,0
231.91979166666667,231.975,0.055208333333325754,63,62,,0,0
232.03125,232.08645833333333,0.055208333333325754,62,50,,0,0
232.03125,232.08645833333333,0.055208333333325754,74,65,,0,0
232.1421875,232.19739583333333,0.055208333333325754,60,64,,0,0
232.25312499999998,232.30833333333334,0.055208333333354176,62,53,,0,0
232.25312499999998,232.30833333333334,0.055208333333354176,74,68,,0,0
232.36458333333334,232.4203125,0.05572916666665151,62,58,,0,0
232.4765625,232.53229166666665,0.05572916666665151,62,49,,0,0
232.4765625,232.53229166666665,0.05572916666665151,74,63,,0,0
232.58906249999998,232.6453125,0.056250000000005684,58,61,,0,0
232.70208333333332,232.75885416666665,0.05677083333333144,62,51,,0,0
232.70208333333332,232.75885416666665,0.05677083333333144,74,66,,0,0
232.81614583333334,232.87291666666667,0.05677083333333144,57,57,,0,0
232.93020833333333,232.98749999999998,0.05729166666665719,62,44,,0,0
232.93020833333333,232.98749999999998,0.05729166666665719,74,57,,0,0
233.0453125,233.16197916666667,0.11666666666667425,50,84,,0,0
233.0453125,233.16197916666667,0.11666666666667425,38,71,,0,0
233.16197916666667,233.22968749999998,0.06770833333331439,74,70,,0,0
233.16197916666667,233.22968749999998,0.06770833333331439,86,83,,0,0
233.16197916666667,233.22968749999998,0.06770833333331439,81,83,,0,0
233.16197916666667,233.22968749999998,0.06770833333331439,78,70,,0,0
233.2984375,233.353125,0.0546875,62,56,,0,0
233.40833333333333,233.46302083333333,0.0546875,62,42,,0,0
233.40833333333333,233.46302083333333,0.0546875,74,54,,0,0
233.51770833333333,233.57343749999998,0.05572916666665151,63,63,,0,0
233.62916666666666,233.68489583333334,0.05572916666667993,62,46,,0,0
233.62916666666666,233.68489583333334,0.05572916666667993,74,59,,0,0
233.740625,233.79739583333333,0.05677083333333144,60,54,,0,0
233.85416666666666,233.9109375,0.05677083333333144,62,44,,0,0
233.85416666666666,233.9109375,0.05677083333333144,74,57,,0,0
233.96770833333332,234.02447916666665,0.05677083333333144,62,58,,0,0
234.08177083333334,234.13854166666667,0.05677083333333144,62,40,,0,0
234.08177083333334,234.13854166666667,0.05677083333333144,74,52,,0,0
234.1953125,234.25208333333333,0.05677083333333144,57,54,,0,0
234.30885416666666,234.365625,0.05677083333333144,62,38,,0,0
234.30885416666666,234.365625,0.05677083333333144,74,49,,0,0
234.42239583333333,234.5390625,0.11666666666667425,50,88,,0,0
234.42239583333333,234.5390625,0.11666666666667425,38,74,,0,0
234.5390625,234.60677083333334,0.06770833333334281,74,72,,0,0
234.5390625,234.60677083333334,0.06770833333334281,86,85,,0,0
234.5390625,234.60677083333334,0.06770833333334281,81,85,,0,0
234.5390625,234.60677083333334,0.06770833333334281,78,72,,0,0
234.67499999999998,234.72968749999998,0.0546875,62,56,,0,0
234.78437499999998,234.83906249999998,0.0546875,62,42,,0,0
234.78437499999998,234.83906249999998,0.0546875,74,54,,0,0
234.89374999999998,234.94947916666666,0.05572916666667993,63,63,,0,0
235.00572916666667,235.06145833333332,0.05572916666665151,62,46,,0,0
235.00572916666667,235.06145833333332,0.05572916666665151,74,59,,0,0
235.11770833333333,235.17447916666666,0.05677083333333144,60,54,,0,0
235.23125,235.28802083333332,0.05677083333333144,62,44,,0,0
235.23125,235.28802083333332,0.05677083333333144,74,57,,0,0
235.34479166666665,235.40156249999998,0.05677083333333144,62,58,,0,0
235.45885416666667,235.515625,0.05677083333333144,62,40,,0,0
235.45885416666667,235.515625,0.05677083333333144,74,52,,0,0
235.57239583333333,235.62916666666666,0.05677083333333144,57,54,,0,0
235.6859375,235.74270833333333,0.05677083333333144,62,38,,0,0
235.6859375,235.74270833333333,0.05677083333333144,74,49,,0,0
235.79947916666666,235.91614583333333,0.11666666666667425,50,88,,0,0
235.79947916666666,235.91614583333333,0.11666666666667425,38,74,,0,0
235.91614583333333,235.98385416666667,0.06770833333334281,74,70,,0,0
235.91614583333333,235.98385416666667,0.06770833333334281,86,83,,0,0
235.91614583333333,235.98385416666667,0.06770833333334281,81,83,,0,0
235.91614583333333,235.98385416666667,0.06770833333334281,78,70,,0,0
236.05260416666667,236.1078125,0.055208333333325754,57,56,,0,0
236.16354166666667,236.21875,0.055208333333325754,62,42,,0,0
236.16354166666667,236.21875,0.055208333333325754,74,54,,0,0
236.27395833333333,236.3296875,0.05572916666667993,60,62,,0,0
236.38593749999998,236.44166666666666,0.05572916666667993,62,46,,0,0
236.38593749999998,236.44166666666666,0.05572916666667993,74,59,,0,0
236.49791666666667,236.55416666666667,0.056250000000005684,62,61,,0,0
236.6109375,236.66718749999998,0.05624999999997726,62,44,,0,0
236.6109375,236.66718749999998,0.05624999999997726,74,57,,0,0
236.7234375,236.78020833333332,0.05677083333333144,63,67,,0,0
236.83697916666665,236.89374999999998,0.05677083333333144,62,52,,0,0
236.83697916666665,236.89374999999998,0.05677083333333144,74,67,,0,0
236.95104166666667,237.0078125,0.05677083333333144,65,63,,0,0
237.06458333333333,237.12135416666666,0.05677083333333144,62,49,,0,0
237.06458333333333,237.12135416666666,0.05677083333333144,74,63,,0,0
237.178125,237.23489583333333,0.05677083333333144,62,70,,0,0
237.29166666666666,237.3484375,0.05677083333333144,62,55,,0,0
237.29166666666666,237.3484375,0.05677083333333144,74,71,,0,0
237.40520833333332,237.45989583333332,0.0546875,63,62,,0,0
237.515625,237.5703125,0.0546875,62,50,,0,0
237.515625,237.5703125,0.0546875,74,65,,0,0
237.62604166666665,237.68177083333333,0.05572916666667993,60,74,,0,0
237.73802083333334,237.79375,0.05572916666665151,62,56,,0,0
237.73802083333334,237.79375,0.05572916666665151,74,72,,0,0
237.85,237.90677083333333,0.05677083333333144,62,69,,0,0
237.96354166666666,238.02083333333334,0.057291666666685614,62,52,,0,0
237.96354166666666,238.02083333333334,0.057291666666685614,74,67,,0,0
238.07864583333333,238.13645833333334,0.05781250000001137,58,75,,0,0
238.19479166666667,238.25312499999998,0.0583333333333087,62,60,,0,0
238.19479166666667,238.25312499999998,0.0583333333333087,74,77,,0,0
238.31197916666667,238.37083333333334,0.05885416666666288,62,70,,0,0
238.43072916666665,238.49010416666667,0.05937500000001705,62,59,,0,0
238.43072916666665,238.49010416666667,0.05937500000001705,74,76,,0,0
238.55052083333334,238.66979166666667,0.11927083333333144,43,95,,0,0
238.55052083333334,238.66979166666667,0.11927083333333144,31,80,,0,0
238.6703125,238.74947916666667,0.07916666666667993,79,76,,0,0
238.6703125,238.74947916666667,0.07916666666667993,91,91,,0,0
238.6703125,238.74947916666667,0.07916666666667993,86,76,,0,0
238.6703125,238.74947916666667,0.07916666666667993,82,76,,0,0
238.82864583333333,238.88229166666667,0.05364583333334849,62,70,,0,0
238.93697916666667,238.990625,0.05364583333332007,62,52,,0,0
238.93697916666667,238.990625,0.05364583333332007,74,68,,0,0
239.0453125,239.10104166666667,0.05572916666667993,63,78,,0,0
239.15677083333333,239.2125,0.05572916666667993,62,57,,0,0
239.15677083333333,239.2125,0.05572916666667993,74,74,,0,0
239.26874999999998,239.32552083333334,0.05677083333335986,60,67,,0,0
239.38229166666667,239.4390625,0.05677083333333144,62,54,,0,0
239.38229166666667,239.4390625,0.05677083333333144,74,70,,0,0
239.49583333333334,239.55260416666667,0.05677083333333144,62,72,,0,0
239.69479166666667,239.7515625,0.05677083333333144,62,50,,0,0
239.69479166666667,239.7515625,0.05677083333333144,74,65,,0,0
239.80833333333334,239.86510416666667,0.05677083333333144,58,67,,0,0
239.921875,239.97864583333333,0.05677083333333144,62,47,,0,0
239.921875,239.97864583333333,0.05677083333333144,74,60,,0,0
240.03541666666666,240.15208333333334,0.11666666666667425,43,94,,0,0
240.03541666666666,240.15208333333334,0.11666666666667425,31,79,,0,0
240.15260416666666,240.23125,0.07864583333332575,79,79,,0,0
240.15260416666666,240.23125,0.07864583333332575,91,93,,0,0
240.15260416666666,240.23125,0.07864583333332575,86,79,,0,0
240.15260416666666,240.23125,0.07864583333332575,82,79,,0,0
240.31041666666667,240.36458333333334,0.054166666666674246,62,70,,0,0
240.41875,240.47291666666666,0.054166666666674246,62,52,,0,0
240.41875,240.47291666666666,0.054166666666674246,74,68,,0,0
240.52760416666666,240.58333333333334,0.05572916666667993,63,78,,0,0
240.63958333333332,240.6953125,0.05572916666667993,62,57,,0,0
240.63958333333332,240.6953125,0.05572916666667993,74,74,,0,0
240.7515625,240.80833333333334,0.05677083333333144,60,67,,0,0
240.86510416666667,240.921875,0.05677083333333144,62,54,,0,0
240.86510416666667,240.921875,0.05677083333333144,74,70,,0,0
240.97864583333333,241.03541666666666,0.05677083333333144,62,72,,0,0
241.09270833333332,241.14947916666665,0.05677083333333144,62,50,,0,0
241.09270833333332,241.14947916666665,0.05677083333333144,74,65,,0,0
241.20624999999998,241.26302083333334,0.05677083333335986,58,67,,0,0
241.31979166666667,241.3765625,0.05677083333333144,62,47,,0,0
241.31979166666667,241.3765625,0.05677083333333144,74,60,,0,0
241.43333333333334,241.54999999999998,0.11666666666664582,43,93,,0,0
241.43333333333334,241.54999999999998,0.11666666666664582,31,79,,0,0
241.54999999999998,241.62812499999998,0.078125,79,76,,0,0
241.54999999999998,241.62812499999998,0.078125,91,91,,0,0
241.54999999999998,241.62812499999998,0.078125,86,76,,0,0
241.54999999999998,241.62812499999998,0.078125,82,76,,0,0
241.70729166666666,241.7625,0.055208333333325754,62,67,,0,0
241.81770833333334,241.87291666666667,0.055208333333325754,62,50,,0,0
241.81770833333334,241.87291666666667,0.055208333333325754,74,65,,0,0
241.92864583333332,241.984375,0.05572916666667993,63,74,,0,0
242.040625,242.09635416666666,0.05572916666665151,62,53,,0,0
242.040625,242.09635416666666,0.05572916666665151,74,68,,0,0
242.15260416666666,242.20885416666667,0.056250000000005684,60,73,,0,0
242.26510416666667,242.32135416666665,0.05624999999997726,62,52,,0,0
242.26510416666667,242.32135416666665,0.05624999999997726,74,67,,0,0
242.37812499999998,242.42447916666666,0.046354166666674246,62,80,,0,0
242.44375,242.46302083333333,0.019270833333337123,62,55,,0,0
242.44375,242.46302083333333,0.019270833333337123,74,72,,0,0
242.51979166666666,242.5765625,0.05677083333333144,58,75,,0,0
242.63333333333333,242.69010416666666,0.05677083333333144,62,58,,0,0
242.63333333333333,242.69010416666666,0.05677083333333144,74,75,,0,0
242.74739583333334,242.80416666666667,0.05677083333333144,60,84,,0,0
242.8609375,242.91770833333334,0.05677083333333144,62,61,,0,0
242.8609375,242.91770833333334,0.05677083333333144,74,79,,0,0
242.97447916666667,243.0296875,0.055208333333325754,57,74,,0,0
243.08541666666667,243.140625,0.055208333333325754,62,54,,0,0
243.08541666666667,243.140625,0.055208333333325754,74,70,,0,0
243.196875,243.25208333333333,0.055208333333325754,58,76,,0,0
243.30781249999998,243.36302083333334,0.055208333333354176,62,60,,0,0
243.30781249999998,243.36302083333334,0.055208333333354176,74,78,,0,0
243.41875,243.47447916666667,0.05572916666667993,60,69,,0,0
243.53125,243.58697916666665,0.05572916666665151,62,52,,0,0
243.53125,243.58697916666665,0.05572916666665151,74,67,,0,0
243.64374999999998,243.7,0.056250000000005684,57,73,,0,0
243.75677083333332,243.81354166666665,0.05677083333333144,62,54,,0,0
243.75677083333332,243.81354166666665,0.05677083333333144,74,71,,0,0
243.87083333333334,243.92760416666667,0.05677083333333144,58,68,,0,0
243.98489583333333,244.0453125,0.06041666666666856,62,52,,0,0
243.98489583333333,244.0453125,0.06041666666666856,74,67,,0,0
244.10625,244.22291666666666,0.11666666666667425,49,96,,0,0
244.10625,244.22291666666666,0.11666666666667425,37,81,,0,0
244.2234375,244.31145833333332,0.08802083333333144,79,79,,0,0
244.2234375,244.31145833333332,0.08802083333333144,91,93,,0,0
244.2234375,244.31145833333332,0.08802083333333144,87,93,,0,0
244.2234375,244.31145833333332,0.08802083333333144,82,79,,0,0
244.39947916666665,244.453125,0.05364583333334849,63,70,,0,0
244.5078125,244.56145833333332,0.05364583333332007,63,52,,0,0
244.5078125,244.56145833333332,0.05364583333332007,75,68,,0,0
244.61614583333332,244.671875,0.05572916666667993,65,76,,0,0
244.728125,244.78385416666666,0.05572916666665151,63,57,,0,0
244.728125,244.78385416666666,0.05572916666665151,75,74,,0,0
244.84010416666666,244.896875,0.05677083333333144,62,67,,0,0
244.95364583333333,245.01041666666666,0.05677083333333144,63,54,,0,0
244.95364583333333,245.01041666666666,0.05677083333333144,75,70,,0,0
245.0671875,245.12395833333332,0.05677083333333144,63,72,,0,0
245.18125,245.23802083333334,0.05677083333333144,63,50,,0,0
245.18125,245.23802083333334,0.05677083333333144,75,65,,0,0
245.29479166666667,245.35260416666665,0.05781249999998295,58,67,,0,0
245.41041666666666,245.46822916666667,0.05781250000001137,63,47,,0,0
245.41041666666666,245.46822916666667,0.05781250000001137,75,60,,0,0
245.52656249999998,245.64322916666666,0.11666666666667425,49,94,,0,0
245.52656249999998,245.64322916666666,0.11666666666667425,37,79,,0,0
245.64322916666666,245.73072916666666,0.08750000000000568,79,79,,0,0
245.64322916666666,245.73072916666666,0.08750000000000568,91,93,,0,0
245.64322916666666,245.73072916666666,0.08750000000000568,87,93,,0,0
245.64322916666666,245.73072916666666,0.08750000000000568,82,79,,0,0
245.81875,245.87239583333334,0.05364583333334849,63,70,,0,0
245.92708333333334,245.98072916666666,0.05364583333332007,63,52,,0,0
245.92708333333334,245.98072916666666,0.05364583333332007,75,68,,0,0
246.03489583333334,246.090625,0.05572916666665151,65,77,,0,0
246.146875,246.20260416666667,0.05572916666667993,63,57,,0,0
246.146875,246.20260416666667,0.05572916666667993,75,74,,0,0
246.25885416666665,246.31562499999998,0.05677083333333144,62,67,,0,0
246.37239583333334,246.42916666666667,0.05677083333333144,63,54,,0,0
246.37239583333334,246.42916666666667,0.05677083333333144,75,70,,0,0
246.48645833333333,246.54322916666666,0.05677083333333144,63,72,,0,0
246.6,246.65677083333333,0.05677083333333144,63,50,,0,0
246.6,246.65677083333333,0.05677083333333144,75,65,,0,0
246.71354166666666,246.771875,0.05833333333333712,58,67,,0,0
246.83072916666666,246.8890625,0.05833333333333712,63,47,,0,0
246.83072916666666,246.8890625,0.05833333333333712,75,60,,0,0
246.94791666666666,247.06458333333333,0.11666666666667425,49,95,,0,0
246.94791666666666,247.06458333333333,0.11666666666667425,37,80,,0,0
247.06458333333333,247.15104166666666,0.08645833333332575,79,79,,0,0
247.06458333333333,247.15104166666666,0.08645833333332575,91,93,,0,0
247.06458333333333,247.15104166666666,0.08645833333332575,87,93,,0,0
247.06458333333333,247.15104166666666,0.08645833333332575,82,79,,0,0
247.23802083333334,247.29322916666666,0.055208333333325754,63,67,,0,0
247.34895833333334,247.40416666666667,0.055208333333325754,63,50,,0,0
247.34895833333334,247.40416666666667,0.055208333333325754,75,65,,0,0
247.459375,247.51510416666667,0.05572916666667993,65,75,,0,0
247.57135416666665,247.62708333333333,0.05572916666667993,63,55,,0,0
247.57135416666665,247.62708333333333,0.05572916666667993,75,71,,0,0
247.68333333333334,247.74010416666667,0.05677083333333144,62,64,,0,0
247.796875,247.85364583333333,0.05677083333333144,63,52,,0,0
247.796875,247.85364583333333,0.05677083333333144,75,67,,0,0
247.91041666666666,247.9671875,0.05677083333333144,63,69,,0,0
248.02447916666665,248.08124999999998,0.05677083333333144,63,48,,0,0
248.02447916666665,248.08124999999998,0.05677083333333144,75,62,,0,0
248.13802083333334,248.19479166666667,0.05677083333333144,58,64,,0,0
248.2515625,248.30833333333334,0.05677083333333144,63,45,,0,0
248.2515625,248.30833333333334,0.05677083333333144,75,58,,0,0
248.36510416666667,248.421875,0.05677083333333144,60,84,,0,0
248.47864583333333,248.53541666666666,0.05677083333333144,63,54,,0,0
248.47864583333333,248.53541666666666,0.05677083333333144,75,70,,0,0
248.59270833333332,248.64791666666667,0.055208333333354176,57,70,,0,0
248.70364583333333,248.75885416666665,0.055208333333325754,63,54,,0,0
248.70364583333333,248.75885416666665,0.055208333333325754,75,69,,0,0
248.81458333333333,248.86979166666666,0.055208333333325754,58,72,,0,0
248.92604166666666,248.98125,0.055208333333325754,63,55,,0,0
248.92604166666666,248.98125,0.055208333333325754,75,71,,0,0
249.03697916666667,249.09270833333332,0.05572916666665151,60,69,,0,0
249.14947916666665,249.20520833333333,0.05572916666667993,63,52,,0,0
249.14947916666665,249.20520833333333,0.05572916666667993,75,67,,0,0
249.26197916666666,249.31822916666667,0.056250000000005684,55,73,,0,0
249.375,249.43177083333333,0.05677083333333144,63,56,,0,0
249.375,249.43177083333333,0.05677083333333144,75,72,,0,0
249.48854166666666,249.5453125,0.05677083333333144,57,68,,0,0
249.603125,249.66041666666666,0.05729166666665719,63,52,,0,0
249.603125,249.66041666666666,0.05729166666665719,75,67,,0,0
249.71822916666667,249.83489583333332,0.11666666666664582,50,92,,0,0
249.71822916666667,249.83489583333332,0.11666666666664582,38,78,,0,0
249.83489583333332,249.92447916666666,0.08958333333333712,86,86,,0,0
249.83489583333332,249.92447916666666,0.08958333333333712,98,102,,0,0
249.83489583333332,249.92447916666666,0.08958333333333712,93,86,,0,0
249.83489583333332,249.92447916666666,0.08958333333333712,90,86,,0,0
250.01458333333332,250.06822916666667,0.05364583333334849,62,73,,0,0
250.12239583333334,250.17604166666666,0.05364583333332007,62,55,,0,0
250.12239583333334,250.17604166666666,0.05364583333332007,74,71,,0,0
250.23020833333334,250.2859375,0.05572916666665151,63,82,,0,0
250.34166666666667,250.39739583333332,0.05572916666665151,62,58,,0,0
250.34166666666667,250.39739583333332,0.05572916666665151,74,75,,0,0
250.453125,250.50989583333333,0.05677083333333144,61,70,,0,0
250.5671875,250.62395833333332,0.05677083333333144,62,57,,0,0
250.5671875,250.62395833333332,0.05677083333333144,74,73,,0,0
250.68072916666665,250.73749999999998,0.05677083333333144,62,75,,0,0
250.79427083333334,250.85104166666667,0.05677083333333144,62,52,,0,0
250.79427083333334,250.85104166666667,0.05677083333333144,74,68,,0,0
250.9078125,250.96458333333334,0.05677083333333144,57,70,,0,0
251.04739583333333,251.12447916666667,0.07708333333334849,62,49,,0,0
251.04739583333333,251.12447916666667,0.07708333333334849,74,63,,0,0
251.18489583333334,251.3015625,0.11666666666664582,49,94,,0,0
251.18489583333334,251.3015625,0.11666666666664582,37,79,,0,0
251.30208333333334,251.39166666666665,0.0895833333333087,87,86,,0,0
251.30208333333334,251.39166666666665,0.0895833333333087,99,102,,0,0
251.30208333333334,251.39166666666665,0.0895833333333087,94,86,,0,0
251.30208333333334,251.39166666666665,0.0895833333333087,91,86,,0,0
251.48125,251.53489583333334,0.05364583333334849,63,73,,0,0
251.58958333333334,251.64322916666666,0.05364583333332007,63,55,,0,0
251.58958333333334,251.64322916666666,0.05364583333332007,75,71,,0,0
251.69739583333333,251.75312499999998,0.05572916666665151,65,78,,0,0
251.809375,251.86510416666667,0.05572916666667993,63,60,,0,0
251.809375,251.86510416666667,0.05572916666667993,75,78,,0,0
251.92135416666667,251.978125,0.05677083333333144,62,70,,0,0
252.03489583333334,252.09166666666667,0.05677083333333144,63,57,,0,0
252.03489583333334,252.09166666666667,0.05677083333333144,75,73,,0,0
252.1484375,252.20520833333333,0.05677083333333144,63,75,,0,0
252.26197916666666,252.31875,0.05677083333333144,63,52,,0,0
252.26197916666666,252.31875,0.05677083333333144,75,68,,0,0
252.37552083333333,252.43229166666666,0.05677083333333144,58,70,,0,0
252.48958333333334,252.54791666666665,0.0583333333333087,63,49,,0,0
252.48958333333334,252.54791666666665,0.0583333333333087,75,63,,0,0
252.60677083333334,252.7234375,0.11666666666664582,50,89,,0,0
252.60677083333334,252.7234375,0.11666666666664582,38,75,,0,0
252.72395833333334,252.8125,0.08854166666665719,86,87,,0,0
252.72395833333334,252.8125,0.08854166666665719,98,103,,0,0
252.72395833333334,252.8125,0.08854166666665719,93,87,,0,0
252.72395833333334,252.8125,0.08854166666665719,90,87,,0,0
252.90104166666666,252.9546875,0.05364583333334849,62,73,,0,0
253.009375,253.06302083333333,0.05364583333332007,62,55,,0,0
253.009375,253.06302083333333,0.05364583333332007,74,71,,0,0
253.1171875,253.17291666666665,0.05572916666665151,63,78,,0,0
253.22864583333333,253.28437499999998,0.05572916666665151,62,58,,0,0
253.22864583333333,253.28437499999998,0.05572916666665151,74,75,,0,0
253.34010416666666,253.396875,0.05677083333333144,61,70,,0,0
253.47968749999998,253.553125,0.07343750000001137,62,57,,0,0
253.47968749999998,253.553125,0.07343750000001137,74,73,,0,0
253.60989583333333,253.66666666666666,0.05677083333333144,62,75,,0,0
253.72395833333334,253.78072916666667,0.05677083333333144,62,52,,0,0
253.72395833333334,253.78072916666667,0.05677083333333144,74,68,,0,0
253.8375,253.89427083333334,0.05677083333333144,57,70,,0,0
253.95104166666667,254.01041666666666,0.05937499999998863,62,49,,0,0
253.95104166666667,254.01041666666666,0.05937499999998863,74,63,,0,0
254.06979166666667,254.18645833333332,0.11666666666664582,49,94,,0,0
254.06979166666667,254.18645833333332,0.11666666666664582,37,79,,0,0
254.18697916666667,254.27447916666665,0.08749999999997726,87,86,,0,0
254.18697916666667,254.27447916666665,0.08749999999997726,99,102,,0,0
254.18697916666667,254.27447916666665,0.08749999999997726,94,86,,0,0
254.18697916666667,254.27447916666665,0.08749999999997726,91,86,,0,0
254.36197916666666,254.4109375,0.04895833333333144,63,73,,0,0
254.4296875,254.44739583333333,0.01770833333333144,63,55,,0,0
254.4296875,254.44739583333333,0.01770833333333144,75,71,,0,0
254.49427083333333,254.54999999999998,0.05572916666665151,65,79,,0,0
254.60625,254.66197916666667,0.05572916666667993,63,58,,0,0
254.60625,254.66197916666667,0.05572916666667993,75,75,,0,0
254.71822916666667,254.775,0.05677083333333144,62,70,,0,0
254.83177083333334,254.88854166666667,0.05677083333333144,63,57,,0,0
254.83177083333334,254.88854166666667,0.05677083333333144,75,73,,0,0
254.9453125,255.00208333333333,0.05677083333333144,63,75,,0,0
255.05885416666666,255.115625,0.05677083333333144,63,52,,0,0
255.05885416666666,255.115625,0.05677083333333144,75,68,,0,0
255.17291666666665,255.22968749999998,0.05677083333333144,58,70,,0,0
255.28645833333334,255.34322916666667,0.05677083333333144,63,49,,0,0
255.28645833333334,255.34322916666667,0.05677083333333144,75,63,,0,0
255.4,255.51666666666665,0.11666666666664582,50,89,,0,0
255.4,255.51666666666665,0.11666666666664582,38,75,,0,0
255.51666666666665,255.60729166666667,0.09062500000001705,86,86,,0,0
255.51666666666665,255.60729166666667,0.09062500000001705,98,102,,0,0
255.51666666666665,255.60729166666667,0.09062500000001705,93,86,,0,0
255.51666666666665,255.60729166666667,0.09062500000001705,90,86,,0,0
255.69843749999998,255.75312499999998,0.0546875,62,73,,0,0
255.80885416666666,255.86354166666666,0.0546875,62,55,,0,0
255.80885416666666,255.86354166666666,0.0546875,74,71,,0,0
255.91927083333334,255.975,0.05572916666665151,63,78,,0,0
256.0307291666667,256.0864583333333,0.05572916666665151,62,58,,0,0
256.0307291666667,256.0864583333333,0.05572916666665151,74,75,,0,0
256.1421875,256.19895833333334,0.05677083333333144,60,70,,0,0
256.2557291666667,256.3125,0.05677083333333144,62,57,,0,0
256.2557291666667,256.3125,0.05677083333333144,74,73,,0,0
256.3692708333333,256.42604166666666,0.05677083333333144,62,75,,0,0
256.4828125,256.5395833333333,0.05677083333333144,62,52,,0,0
256.4828125,256.5395833333333,0.05677083333333144,74,68,,0,0
256.596875,256.6536458333333,0.05677083333330302,58,70,,0,0
256.7104166666667,256.7671875,0.05677083333330302,62,49,,0,0
256.7104166666667,256.7671875,0.05677083333330302,74,63,,0,0
256.82395833333334,256.9380208333333,0.11406249999998863,60,76,,0,0
256.93854166666665,256.9953125,0.05677083333335986,62,53,,0,0
256.93854166666665,256.9953125,0.05677083333335986,74,68,,0,0
257.053125,257.1078125,0.0546875,57,67,,0,0
257.16302083333335,257.21770833333335,0.0546875,62,50,,0,0
257.16302083333335,257.21770833333335,0.0546875,74,65,,0,0
257.2734375,257.32916666666665,0.05572916666665151,58,70,,0,0
257.3848958333333,257.440625,0.05572916666670835,62,51,,0,0
257.3848958333333,257.440625,0.05572916666670835,74,66,,0,0
257.49635416666666,257.553125,0.05677083333335986,60,64,,0,0
257.61041666666665,257.6671875,0.05677083333335986,62,49,,0,0
257.61041666666665,257.6671875,0.05677083333335986,74,63,,0,0
257.7239583333333,257.77916666666664,0.055208333333325754,57,69,,0,0
257.834375,257.88958333333335,0.055208333333325754,62,50,,0,0
257.834375,257.88958333333335,0.055208333333325754,74,65,,0,0
257.9453125,258.00104166666665,0.05572916666665151,58,64,,0,0
258.0572916666667,258.11302083333334,0.05572916666665151,62,45,,0,0
258.0572916666667,258.11302083333334,0.05572916666665151,74,58,,0,0
258.1692708333333,258.2786458333333,0.109375,55,76,,0,0
258.27916666666664,258.33385416666664,0.0546875,62,53,,0,0
258.27916666666664,258.33385416666664,0.0546875,74,68,,0,0
258.3890625,258.4447916666667,0.05572916666665151,57,67,,0,0
258.50104166666665,258.5567708333333,0.05572916666665151,62,49,,0,0
258.50104166666665,258.5567708333333,0.05572916666665151,74,63,,0,0
258.61302083333334,258.66770833333334,0.0546875,58,69,,0,0
258.72291666666666,258.77760416666666,0.0546875,62,49,,0,0
258.72291666666666,258.77760416666666,0.0546875,74,63,,0,0
258.8333333333333,258.8890625,0.05572916666670835,60,62,,0,0
258.9453125,259.00104166666665,0.05572916666665151,62,48,,0,0
258.9453125,259.00104166666665,0.05572916666665151,74,62,,0,0
259.0572916666667,259.1119791666667,0.0546875,57,66,,0,0
259.16770833333334,259.22239583333334,0.0546875,62,48,,0,0
259.16770833333334,259.22239583333334,0.0546875,74,62,,0,0
259.278125,259.3333333333333,0.055208333333325754,58,61,,0,0
259.38854166666664,259.44375,0.0552083333333826,62,43,,0,0
259.38854166666664,259.44375,0.0552083333333826,74,55,,0,0
259.4994791666667,259.6088541666667,0.109375,55,72,,0,0
259.6088541666667,259.6635416666667,0.0546875,74,63,,0,0
259.6088541666667,259.6635416666667,0.0546875,62,49,,0,0
259.7182291666667,259.7739583333333,0.05572916666665151,57,62,,0,0
259.8307291666667,259.88645833333334,0.05572916666665151,62,46,,0,0
259.8307291666667,259.88645833333334,0.05572916666665151,74,59,,0,0
259.94322916666664,259.9994791666667,0.056250000000034106,58,64,,0,0
260.05572916666665,260.1119791666667,0.056250000000034106,62,46,,0,0
260.05572916666665,260.1119791666667,0.056250000000034106,74,59,,0,0
260.1692708333333,260.2260416666667,0.05677083333335986,55,57,,0,0
260.31145833333335,260.3822916666667,0.07083333333332575,62,43,,0,0
260.31145833333335,260.3822916666667,0.07083333333332575,74,55,,0,0
260.4401041666667,260.4973958333333,0.05729166666662877,53,60,,0,0
260.55572916666665,260.61354166666666,0.05781250000001137,62,44,,0,0
260.55572916666665,260.61354166666666,0.05781250000001137,74,57,,0,0
260.6713541666667,260.7291666666667,0.05781250000001137,51,55,,0,0
260.8098958333333,260.8890625,0.07916666666670835,62,38,,0,0
260.8098958333333,260.8890625,0.07916666666670835,74,49,,0,0
260.9473958333333,261.0640625,0.11666666666667425,50,74,,0,0
260.9473958333333,261.0640625,0.11666666666667425,38,63,,0,0
261.0640625,261.1119791666667,0.04791666666670835,62,58,,0,0
261.0640625,261.1119791666667,0.04791666666670835,74,75,,0,0
261.1322916666667,261.1505208333333,0.01822916666662877,62,56,,0,0
261.2057291666667,261.2604166666667,0.0546875,62,42,,0,0
261.31614583333334,261.371875,0.05572916666665151,63,61,,0,0
261.42760416666664,261.48333333333335,0.05572916666670835,62,46,,0,0
261.5390625,261.5958333333333,0.05677083333330302,60,54,,0,0
261.653125,261.70989583333335,0.05677083333335986,62,44,,0,0
261.76666666666665,261.8234375,0.05677083333335986,62,58,,0,0
261.8802083333333,261.9369791666667,0.05677083333335986,62,40,,0,0
261.99375,262.05052083333334,0.05677083333335986,58,54,,0,0
262.10729166666664,262.1640625,0.05677083333335986,62,38,,0,0
262.2213541666667,262.3354166666667,0.11406249999998863,60,64,,0,0
262.3354166666667,262.3921875,0.05677083333330302,62,45,,0,0
262.45,262.5046875,0.0546875,57,56,,0,0
262.56041666666664,262.61510416666664,0.0546875,62,42,,0,0
262.67083333333335,262.7265625,0.05572916666665151,58,59,,0,0
262.78229166666665,262.8380208333333,0.05572916666665151,62,43,,0,0
262.89375,262.9505208333333,0.05677083333330302,60,54,,0,0
263.0072916666667,263.0640625,0.05677083333330302,62,41,,0,0
263.12083333333334,263.17604166666666,0.055208333333325754,57,58,,0,0
263.2317708333333,263.28697916666664,0.055208333333325754,62,42,,0,0
263.34270833333335,263.3984375,0.05572916666665151,58,54,,0,0
263.45416666666665,263.5098958333333,0.05572916666665151,62,38,,0,0
263.56614583333334,263.67552083333334,0.109375,55,64,,0,0
263.67604166666666,263.73072916666666,0.0546875,62,45,,0,0
263.7859375,263.84166666666664,0.05572916666665151,57,56,,0,0
263.8979166666667,263.9536458333333,0.05572916666665151,62,41,,0,0
264.0098958333333,264.0645833333333,0.0546875,58,58,,0,0
264.1203125,264.175,0.0546875,62,41,,0,0
264.23072916666666,264.2864583333333,0.05572916666665151,60,52,,0,0
264.34270833333335,264.3984375,0.05572916666665151,62,40,,0,0
264.4546875,264.509375,0.0546875,57,56,,0,0
264.5645833333333,264.6192708333333,0.0546875,62,40,,0,0
264.675,264.73020833333334,0.055208333333325754,58,51,,0,0
264.7859375,264.8411458333333,0.055208333333325754,62,36,,0,0
264.89635416666664,265.00572916666664,0.109375,55,61,,0,0
265.00572916666664,265.06041666666664,0.0546875,62,41,,0,0
265.115625,265.1713541666667,0.05572916666665151,57,52,,0,0
265.22760416666665,265.2833333333333,0.05572916666665151,62,39,,0,0
265.34010416666666,265.39635416666664,0.05624999999997726,58,54,,0,0
265.5260416666667,265.5958333333333,0.0697916666666174,62,39,,0,0
265.653125,265.7104166666667,0.057291666666685614,55,48,,0,0
265.76927083333334,265.8276041666667,0.05833333333333712,62,36,,0,0
265.88645833333334,265.9453125,0.05885416666666288,53,51,,0,0
266.0046875,266.0640625,0.05937499999998863,62,37,,0,0
266.125,266.1848958333333,0.059895833333314386,51,46,,0,0
266.24322916666665,266.3015625,0.05833333333333712,62,32,,0,0
266.4765625,266.53489583333334,0.05833333333333712,57,36,,0,0
266.4765625,266.53489583333334,0.05833333333333712,54,36,,0,0
266.5932291666667,266.6484375,0.055208333333325754,45,45,,0,0
266.70416666666665,266.759375,0.055208333333325754,57,31,,0,0
266.70416666666665,266.759375,0.055208333333325754,54,31,,0,0
266.815625,266.87135416666666,0.05572916666665151,50,42,,0,0
266.9270833333333,266.9828125,0.05572916666670835,57,34,,0,0
266.9270833333333,266.9828125,0.05572916666670835,54,34,,0,0
267.0385416666667,267.0953125,0.05677083333330302,51,49,,0,0
267.15208333333334,267.20885416666664,0.05677083333330302,57,33,,0,0
267.15208333333334,267.20885416666664,0.05677083333330302,54,33,,0,0
267.265625,267.3208333333333,0.055208333333325754,49,54,,0,0
267.37604166666665,267.43072916666665,0.0546875,57,35,,0,0
267.37604166666665,267.43072916666665,0.0546875,54,35,,0,0
267.4859375,267.5411458333333,0.055208333333325754,50,51,,0,0
267.59739583333334,267.65260416666666,0.055208333333325754,57,34,,0,0
267.59739583333334,267.65260416666666,0.055208333333325754,54,34,,0,0
266.3598958333333,267.7083333333333,1.3484374999999886,38,45,,0,0
267.821875,267.87864583333334,0.05677083333335986,58,36,,0,0
267.821875,267.87864583333334,0.05677083333335986,55,36,,0,0
267.93541666666664,267.9953125,0.05989583333337123,45,49,,0,0
268.05625,268.11614583333335,0.05989583333337123,58,31,,0,0
268.05625,268.11614583333335,0.05989583333337123,55,31,,0,0
268.1765625,268.23229166666664,0.05572916666665151,55,56,,0,0
268.28802083333335,268.34375,0.05572916666665151,58,34,,0,0
268.28802083333335,268.34375,0.05572916666665151,55,34,,0,0
268.39947916666665,268.45625,0.05677083333335986,53,46,,0,0
268.51354166666664,268.5703125,0.05677083333335986,58,29,,0,0
268.51354166666664,268.5703125,0.05677083333335986,55,29,,0,0
268.6270833333333,268.68385416666666,0.05677083333335986,50,49,,0,0
268.740625,268.7973958333333,0.05677083333330302,58,34,,0,0
268.740625,268.7973958333333,0.05677083333330302,55,34,,0,0
268.8541666666667,268.9109375,0.05677083333330302,51,46,,0,0
268.96770833333335,269.02447916666665,0.05677083333330302,58,31,,0,0
268.96770833333335,269.02447916666665,0.05677083333330302,55,31,,0,0
267.7083333333333,269.08125,1.372916666666697,38,56,,0,0
269.1984375,269.25677083333335,0.05833333333333712,57,36,,0,0
269.1984375,269.25677083333335,0.05833333333333712,54,36,,0,0
269.3151041666667,269.3697916666667,0.0546875,45,45,,0,0
269.425,269.4796875,0.0546875,57,31,,0,0
269.425,269.4796875,0.0546875,54,31,,0,0
269.53541666666666,269.5911458333333,0.05572916666665151,50,42,,0,0
269.646875,269.7026041666667,0.05572916666665151,57,34,,0,0
269.646875,269.7026041666667,0.05572916666665151,54,34,,0,0
269.7583333333333,269.8151041666667,0.05677083333335986,51,47,,0,0
269.8723958333333,269.9291666666667,0.05677083333335986,57,33,,0,0
269.8723958333333,269.9291666666667,0.05677083333335986,54,33,,0,0
269.9859375,270.040625,0.0546875,49,52,,0,0
270.0963541666667,270.1510416666667,0.0546875,57,35,,0,0
270.0963541666667,270.1510416666667,0.0546875,54,35,,0,0
270.20625,270.26197916666666,0.05572916666665151,50,49,,0,0
270.31822916666664,270.37395833333335,0.05572916666670835,57,34,,0,0
270.31822916666664,270.37395833333335,0.05572916666670835,54,34,,0,0
269.08125,270.4296875,1.3484374999999886,38,45,,0,0
270.54375,270.6,0.056250000000034106,58,36,,0,0
270.54375,270.6,0.056250000000034106,55,36,,0,0
270.6567708333333,270.7114583333333,0.0546875,45,46,,0,0
270.7671875,270.821875,0.0546875,58,31,,0,0
270.7671875,270.821875,0.0546875,55,31,,0,0
270.8770833333333,270.9328125,0.05572916666670835,51,48,,0,0
270.9890625,271.04479166666664,0.05572916666665151,58,34,,0,0
270.9890625,271.04479166666664,0.05572916666665151,55,34,,0,0
271.10052083333335,271.15729166666665,0.05677083333330302,53,45,,0,0
271.2140625,271.2708333333333,0.05677083333330302,58,29,,0,0
271.2140625,271.2708333333333,0.05677083333330302,55,29,,0,0
271.3276041666667,271.3833333333333,0.05572916666665151,50,47,,0,0
271.4390625,271.4947916666667,0.05572916666670835,58,34,,0,0
271.4390625,271.4947916666667,0.05572916666670835,55,34,,0,0
271.55052083333334,271.6067708333333,0.05624999999997726,51,44,,0,0
271.6635416666667,271.71979166666665,0.05624999999997726,58,31,,0,0
271.6635416666667,271.71979166666665,0.05624999999997726,55,31,,0,0
270.4302083333333,271.7760416666667,1.3458333333333599,38,54,,0,0
271.8932291666667,271.9515625,0.05833333333333712,57,36,,0,0
271.8932291666667,271.9515625,0.05833333333333712,54,36,,0,0
272.0098958333333,272.0645833333333,0.0546875,45,45,,0,0
272.1197916666667,272.1744791666667,0.0546875,57,31,,0,0
272.1197916666667,272.1744791666667,0.0546875,54,31,,0,0
272.23020833333334,272.2859375,0.05572916666665151,50,42,,0,0
272.34166666666664,272.39739583333335,0.05572916666670835,57,34,,0,0
272.34166666666664,272.39739583333335,0.05572916666670835,54,34,,0,0
272.453125,272.5098958333333,0.05677083333330302,51,47,,0,0
272.5671875,272.62395833333335,0.05677083333335986,57,33,,0,0
272.5671875,272.62395833333335,0.05677083333335986,54,33,,0,0
272.68072916666665,272.7359375,0.055208333333325754,49,51,,0,0
272.7916666666667,272.846875,0.055208333333325754,57,35,,0,0
272.7916666666667,272.846875,0.055208333333325754,54,35,,0,0
272.90260416666666,272.9583333333333,0.05572916666665151,51,48,,0,0
273.0151041666667,273.0708333333333,0.05572916666665151,57,34,,0,0
273.0151041666667,273.0708333333333,0.05572916666665151,54,34,,0,0
273.1276041666667,273.184375,0.05677083333330302,50,53,,0,0
273.2421875,273.2989583333333,0.05677083333330302,57,36,,0,0
273.2421875,273.2989583333333,0.05677083333330302,54,36,,0,0
273.3567708333333,273.4114583333333,0.0546875,51,46,,0,0
273.46666666666664,273.52135416666664,0.0546875,57,31,,0,0
273.46666666666664,273.52135416666664,0.0546875,54,31,,0,0
273.57708333333335,273.6328125,0.05572916666665151,49,48,,0,0
273.68854166666665,273.7442708333333,0.05572916666665151,57,34,,0,0
273.68854166666665,273.7442708333333,0.05572916666665151,54,34,,0,0
273.8,273.8567708333333,0.05677083333330302,51,45,,0,0
273.9140625,273.9708333333333,0.05677083333330302,57,29,,0,0
273.9140625,273.9708333333333,0.05677083333330302,54,29,,0,0
274.02760416666666,274.084375,0.05677083333335986,50,45,,0,0
274.1411458333333,274.1979166666667,0.05677083333335986,57,34,,0,0
274.1411458333333,274.1979166666667,0.05677083333335986,54,34,,0,0
274.2546875,274.31145833333335,0.05677083333335986,45,44,,0,0
274.36822916666665,274.425,0.05677083333335986,57,31,,0,0
274.36822916666665,274.425,0.05677083333335986,54,31,,0,0
271.7760416666667,274.4817708333333,2.7057291666666288,38,45,,0,0
274.48229166666664,274.5390625,0.05677083333335986,38,45,,0,0
274.5958333333333,274.65260416666666,0.05677083333335986,54,43,,0,0
274.709375,274.7661458333333,0.05677083333330302,54,45,,0,0
274.8229166666667,274.86302083333334,0.04010416666665151,57,43,,0,0
274.89375,274.9505208333333,0.05677083333330302,57,45,,0,0
275.0078125,275.0645833333333,0.05677083333330302,62,42,,0,0
275.12135416666666,275.178125,0.05677083333335986,62,45,,0,0
275.2348958333333,275.2916666666667,0.05677083333335986,66,42,,0,0
275.3484375,275.40520833333335,0.05677083333335986,66,44,,0,0
275.46197916666665,275.51875,0.05677083333335986,69,41,,0,0
275.5755208333333,275.6322916666667,0.05677083333335986,69,43,,0,0
275.6895833333333,275.7442708333333,0.0546875,74,41,,0,0
275.7729166666667,275.8171875,0.044270833333314386,74,43,,0,0
275.87395833333335,275.93072916666665,0.05677083333330302,78,40,,0,0
275.98802083333334,276.04479166666664,0.05677083333330302,78,42,,0,0
276.10260416666665,276.15989583333334,0.057291666666685614,81,40,,0,0
276.21770833333335,276.275,0.05729166666662877,81,42,,0,0
276.3333333333333,276.3911458333333,0.05781250000001137,86,39,,0,0
276.44947916666666,276.5078125,0.05833333333333712,86,41,,0,0
276.5598958333333,276.5890625,0.029166666666696983,90,39,,0,0
276.6411458333333,276.7,0.05885416666666288,90,41,,0,0
276.759375,276.81875,0.059375000000045475,93,39,,0,0
276.878125,276.9380208333333,0.059895833333314386,93,40,,0,0
276.99895833333335,277.0640625,0.06510416666662877,98,39,,0,0
277.1296875,279.1401041666667,2.0104166666666856,98,43,,0,0
277.1296875,279.1401041666667,2.0104166666666856,90,43,,0,0
277.1296875,279.1401041666667,2.0104166666666856,86,43,,0,0
277.1296875,279.1401041666667,2.0104166666666856,74,34,,0,0
277.1296875,279.1401041666667,2.0104166666666856,81,34,,0,0
279.6645833333333,280.2083333333333,0.5437499999999886,62,45,,0,0
280.2083333333333,281.271875,1.0635416666667084,58,44,,0,0
280.2083333333333,281.271875,1.0635416666667084,55,44,,0,0
281.27239583333335,281.80625,0.5338541666666288,60,39,,0,0
280.2083333333333,281.80625,1.5979166666666629,67,49,,0,0
280.2083333333333,281.80625,1.5979166666666629,51,39,,0,0
281.80625,283.4088541666667,1.6026041666667084,58,38,,0,0
281.80625,283.4088541666667,1.6026041666667084,62,44,,0,0
281.80625,283.4088541666667,1.6026041666667084,53,36,,0,0
281.80625,283.4088541666667,1.6026041666667084,46,32,,0,0
283.4088541666667,284.47239583333334,1.0635416666666515,55,44,,0,0
284.47291666666666,285.0390625,0.5661458333333371,57,43,,0,0
283.4088541666667,285.0390625,1.6302083333333144,63,52,,0,0
283.4088541666667,285.0390625,1.6302083333333144,48,39,,0,0
285.0395833333333,286.7390625,1.6994791666666629,55,41,,0,0
285.0395833333333,286.7390625,1.6994791666666629,58,44,,0,0
285.0395833333333,286.7390625,1.6994791666666629,50,36,,0,0
285.0395833333333,286.7390625,1.6994791666666629,43,32,,0,0
286.7390625,287.7734375,1.0343750000000114,63,44,,0,0
286.7390625,287.7734375,1.0343750000000114,60,39,,0,0
287.7739583333333,288.3197916666667,0.5458333333333485,64,46,,0,0
286.7390625,288.3197916666667,1.5807291666666856,68,49,,0,0
287.7739583333333,288.3197916666667,0.5458333333333485,61,36,,0,0
288.3197916666667,289.36510416666664,1.045312499999966,68,49,,0,0
288.3197916666667,289.9161458333333,1.5963541666666288,63,44,,0,0
288.3197916666667,289.9161458333333,1.5963541666666288,60,39,,0,0
289.365625,289.9166666666667,0.5510416666666629,67,43,,0,0
289.9166666666667,291.51927083333334,1.6026041666666515,67,49,,0,0
289.9166666666667,292.0729166666667,2.15625,63,49,,0,0
289.9166666666667,292.0729166666667,2.15625,60,39,,0,0
292.0729166666667,292.684375,0.611458333333303,62,35,,0,0
292.0729166666667,292.684375,0.611458333333303,58,30,,0,0
291.51927083333334,293.30572916666665,1.7864583333333144,66,39,,0,0
292.6848958333333,293.30625,0.6213541666666629,60,30,,0,0
292.6848958333333,293.30625,0.6213541666666629,57,26,,0,0
289.9166666666667,293.30625,3.3895833333332916,50,32,,0,0
293.30625,293.4671875,0.16093750000004547,55,59,,0,0
293.46770833333335,293.5265625,0.05885416666666288,62,31,,0,0
293.5859375,293.6421875,0.05624999999997726,62,47,,0,0
293.69895833333334,293.7552083333333,0.05624999999997726,62,35,,0,0
293.8119791666667,293.8697916666667,0.05781250000001137,63,53,,0,0
293.92760416666664,293.98541666666665,0.05781250000001137,62,39,,0,0
294.04322916666666,294.1015625,0.05833333333333712,60,45,,0,0
294.1609375,294.2192708333333,0.05833333333333712,62,37,,0,0
294.2786458333333,294.33697916666665,0.05833333333333712,62,49,,0,0
294.39635416666664,294.4546875,0.05833333333333712,62,34,,0,0
294.5140625,294.5723958333333,0.05833333333328028,58,45,,0,0
294.63177083333335,294.6901041666667,0.05833333333333712,62,32,,0,0
294.7494791666667,294.88072916666664,0.1312499999999659,55,62,,0,0
294.88072916666664,294.9713541666667,0.09062500000004547,62,31,,0,0
295.03125,295.0875,0.05624999999997726,62,47,,0,0
295.14375,295.2,0.05624999999997726,62,35,,0,0
295.25677083333335,295.3140625,0.05729166666662877,63,53,,0,0
295.37135416666666,295.42864583333335,0.057291666666685614,62,39,,0,0
295.4864583333333,295.54479166666664,0.05833333333333712,60,45,,0,0
295.6036458333333,295.66197916666664,0.05833333333333712,62,37,,0,0
295.7208333333333,295.77916666666664,0.05833333333333712,62,49,,0,0
295.8380208333333,295.89635416666664,0.05833333333333712,62,34,,0,0
295.9552083333333,296.01354166666664,0.05833333333333712,58,45,,0,0
296.0723958333333,296.13072916666664,0.05833333333333712,62,32,,0,0
296.1895833333333,296.31354166666665,0.12395833333334849,55,56,,0,0
296.31354166666665,296.3755208333333,0.061979166666674246,62,29,,0,0
296.31354166666665,296.3755208333333,0.061979166666674246,67,29,,0,0
296.4375,296.49791666666664,0.06041666666664014,63,47,,0,0
296.4375,296.49791666666664,0.06041666666664014,70,42,,0,0
296.55833333333334,296.61875,0.06041666666664014,62,29,,0,0
296.55833333333334,296.61875,0.06041666666664014,67,29,,0,0
296.6796875,296.7390625,0.05937499999998863,61,52,,0,0
296.6796875,296.7390625,0.05937499999998863,70,46,,0,0
296.7984375,296.85729166666664,0.05885416666666288,62,31,,0,0
296.7984375,296.85729166666664,0.05885416666666288,67,31,,0,0
296.9171875,296.9760416666667,0.05885416666666288,63,48,,0,0
296.9171875,296.9760416666667,0.05885416666666288,70,43,,0,0
297.03489583333334,297.0932291666667,0.05833333333333712,62,33,,0,0
297.03489583333334,297.0932291666667,0.05833333333333712,67,33,,0,0
297.528125,297.6802083333333,0.15208333333333712,61,61,,0,0
297.528125,297.6802083333333,0.15208333333333712,70,55,,0,0
297.73854166666666,297.7963541666667,0.05781250000001137,62,37,,0,0
297.73854166666666,297.7963541666667,0.05781250000001137,67,37,,0,0
297.85520833333334,297.91302083333335,0.05781250000001137,63,59,,0,0
297.85520833333334,297.91302083333335,0.05781250000001137,70,53,,0,0
297.9708333333333,298.028125,0.057291666666685614,62,41,,0,0
297.9708333333333,298.028125,0.057291666666685614,67,41,,0,0
298.0864583333333,298.2052083333333,0.11874999999997726,61,71,,0,0
298.0864583333333,298.2052083333333,0.11874999999997726,70,64,,0,0
298.2052083333333,298.26458333333335,0.059375000000045475,62,44,,0,0
298.2052083333333,298.26458333333335,0.059375000000045475,67,44,,0,0
298.32447916666666,298.38177083333335,0.057291666666685614,63,66,,0,0
298.32447916666666,298.38177083333335,0.057291666666685614,70,58,,0,0
298.4395833333333,298.4973958333333,0.05781250000001137,62,48,,0,0
298.4395833333333,298.4973958333333,0.05781250000001137,67,48,,0,0
298.5552083333333,298.61354166666666,0.05833333333333712,61,75,,0,0
298.5552083333333,298.61354166666666,0.05833333333333712,70,63,,0,0
298.6723958333333,298.73072916666666,0.05833333333333712,62,54,,0,0
298.6723958333333,298.73072916666666,0.05833333333333712,67,54,,0,0
298.79010416666665,298.8489583333333,0.05885416666666288,63,73,,0,0
298.79010416666665,298.8489583333333,0.05885416666666288,70,59,,0,0
298.9088541666667,298.9682291666667,0.05937499999998863,62,57,,0,0
298.9088541666667,298.9682291666667,0.05937499999998863,67,57,,0,0
299.0286458333333,299.0885416666667,0.05989583333337123,61,80,,0,0
299.0286458333333,299.0885416666667,0.05989583333337123,70,67,,0,0
299.14947916666665,299.20989583333335,0.06041666666669698,62,63,,0,0
299.14947916666665,299.20989583333335,0.06041666666669698,67,63,,0,0
299.27135416666664,299.33229166666666,0.06093750000002274,63,78,,0,0
299.27135416666664,299.33229166666666,0.06093750000002274,70,63,,0,0
299.39427083333334,299.4557291666667,0.06145833333334849,62,66,,0,0
299.39427083333334,299.4557291666667,0.06145833333334849,67,66,,0,0
299.5182291666667,301.34375,1.8255208333333144,79,86,,0,0
299.5182291666667,301.34375,1.8255208333333144,86,86,,0,0
299.5182291666667,301.34375,1.8255208333333144,91,103,,0,0
299.5182291666667,301.34375,1.8255208333333144,58,82,,0,0
299.5182291666667,301.34375,1.8255208333333144,50,69,,0,0
299.5182291666667,301.34375,1.8255208333333144,43,69,,0,0
301.34375,304.73541666666665,3.3916666666666515,55,94,,0,0
301.34375,304.73541666666665,3.3916666666666515,31,78,,0,0
