start,end,duration,pitch,velocity,instrument,instr program,midi channel
1.117,1.174,0.058,62,31,Piano right,0,0
1.3439999999999999,1.3980000000000001,0.055,62,35,Piano right,0,0
1.566,1.62,0.055,62,39,Piano right,0,0
1.791,1.847,0.057,62,37,Piano right,0,0
2.018,2.074,0.057,62,34,Piano right,0,0
2.245,2.302,0.057,62,32,Piano right,0,0
2.476,2.533,0.058,62,31,Piano right,0,0
2.703,2.757,0.055,62,35,Piano right,0,0
2.926,2.981,0.056,62,39,Piano right,0,0
3.151,3.207,0.057,62,37,Piano right,0,0
3.379,3.434,0.056,62,34,Piano right,0,0
3.606,3.662,0.057,62,32,Piano right,0,0
3.836,3.895,0.059,62,31,Piano right,0,0
4.064,4.118,0.055,62,35,Piano right,0,0
4.286,4.3420000000000005,0.056,62,39,Piano right,0,0
4.511,4.567,0.056,62,37,Piano right,0,0
4.737,4.794,0.057,62,40,Piano right,0,0
4.965,5.021,0.057,62,37,Piano right,0,0
5.192,5.248,0.057,62,41,Piano right,0,0
5.417,5.471,0.055,62,35,Piano right,0,0
5.639,5.693,0.055,62,39,Piano right,0,0
5.862,5.919,0.057,62,34,Piano right,0,0
6.088,6.144,0.057,62,38,Piano right,0,0
6.316,6.374,0.059,62,37,Piano right,0,0
6.552,6.611,0.06,62,30,Piano right,0,0
6.781,6.836,0.056,62,35,Piano right,0,0
7.003,7.058,0.056,62,36,Piano right,0,0
7.228,7.284,0.057,62,31,Piano right,0,0
7.456,7.511,0.056,62,36,Piano right,0,0
7.683,7.74,0.057,62,33,Piano right,0,0
7.912,7.971,0.059,62,37,Piano right,0,0
8.14,8.193,0.054,62,35,Piano right,0,0
8.361,8.417,0.056,62,39,Piano right,0,0
8.587,8.643,0.056,62,37,Piano right,0,0
8.814,8.87,0.057,62,34,Piano right,0,0
9.041,9.097,0.057,62,32,Piano right,0,0
9.271,9.33,0.059,62,31,Piano right,0,0
9.499,9.554,0.055,62,35,Piano right,0,0
9.722,9.777,0.055,62,39,Piano right,0,0
9.946,10.003,0.057,62,37,Piano right,0,0
10.173,10.229,0.056,62,40,Piano right,0,0
10.4,10.457,0.057,62,37,Piano right,0,0
10.627,10.683,0.057,62,41,Piano right,0,0
10.852,10.906,0.055,62,35,Piano right,0,0
11.074,11.13,0.056,62,43,Piano right,0,0
11.298,11.354,0.056,62,37,Piano right,0,0
11.523,11.58,0.057,62,44,Piano right,0,0
11.753,11.812,0.06,62,39,Piano right,0,0
11.99,12.048,0.059,62,31,Piano right,0,0
12.217,12.271,0.055,62,35,Piano right,0,0
12.438,12.493,0.056,62,39,Piano right,0,0
12.662,12.719,0.057,62,37,Piano right,0,0
12.891,12.946,0.056,62,34,Piano right,0,0
13.118,13.174,0.057,62,32,Piano right,0,0
13.348,13.407,0.059,62,31,Piano right,0,0
13.575,13.63,0.055,62,35,Piano right,0,0
13.797,13.853,0.056,62,39,Piano right,0,0
14.022,14.079,0.057,62,37,Piano right,0,0
14.249,14.306,0.057,62,34,Piano right,0,0
14.477,14.533,0.057,62,32,Piano right,0,0
14.707,14.765,0.058,62,31,Piano right,0,0
14.935,14.99,0.055,62,35,Piano right,0,0
15.157,15.212,0.056,62,39,Piano right,0,0
15.382,15.438,0.056,62,37,Piano right,0,0
15.608,15.665,0.057,62,44,Piano right,0,0
15.836,15.892,0.056,62,41,Piano right,0,0
16.061999999999998,16.119,0.057,62,48,Piano right,0,0
16.288,16.342,0.055,62,42,Piano right,0,0
16.51,16.565,0.055,62,47,Piano right,0,0
16.733,16.789,0.056,62,41,Piano right,0,0
16.959,17.016,0.057,62,43,Piano right,0,0
17.187,17.244,0.057,62,37,Piano right,0,0
17.42,17.479,0.059,62,31,Piano right,0,0
17.649,17.704,0.055,62,35,Piano right,0,0
17.87,17.926,0.056,62,39,Piano right,0,0
18.096,18.152,0.056,62,37,Piano right,0,0
18.323,18.38,0.057,62,34,Piano right,0,0
18.55,18.607,0.057,62,32,Piano right,0,0
18.781,18.839,0.058,62,31,Piano right,0,0
19.008,19.062,0.055,62,35,Piano right,0,0
19.231,19.286,0.056,62,39,Piano right,0,0
19.456,19.512,0.057,62,37,Piano right,0,0
19.683,19.74,0.057,62,34,Piano right,0,0
19.911,19.968,0.057,62,32,Piano right,0,0
20.141,20.198,0.058,62,31,Piano right,0,0
20.369,20.423,0.055,62,35,Piano right,0,0
20.591,20.646,0.056,62,39,Piano right,0,0
20.816,20.871,0.056,62,37,Piano right,0,0
21.042,21.098,0.057,62,44,Piano right,0,0
21.27,21.326,0.056,62,41,Piano right,0,0
21.497,21.554,0.057,62,48,Piano right,0,0
21.722,21.777,0.055,62,42,Piano right,0,0
21.944,21.998,0.055,62,47,Piano right,0,0
22.168,22.224,0.057,62,41,Piano right,0,0
22.397,22.455,0.058,62,43,Piano right,0,0
22.632,22.692,0.06,62,37,Piano right,0,0
22.867,22.926,0.059,62,34,Piano right,0,0
22.867,22.926,0.059,74,44,Piano right,0,0
23.093,23.146,0.054,62,38,Piano right,0,0
23.093,23.146,0.054,74,49,Piano right,0,0
23.312,23.367,0.055,62,42,Piano right,0,0
23.312,23.367,0.055,74,54,Piano right,0,0
23.538,23.594,0.057,62,40,Piano right,0,0
23.538,23.594,0.057,74,52,Piano right,0,0
23.765,23.821,0.057,62,37,Piano right,0,0
23.765,23.821,0.057,74,48,Piano right,0,0
23.992,24.048,0.057,62,35,Piano right,0,0
23.992,24.048,0.057,74,45,Piano right,0,0
24.223,24.281,0.058,74,44,Piano right,0,0
24.223,24.281,0.058,62,34,Piano right,0,0
24.448,24.502,0.054,62,38,Piano right,0,0
24.448,24.502,0.054,74,49,Piano right,0,0
24.668,24.723,0.056,62,42,Piano right,0,0
24.668,24.723,0.056,74,54,Piano right,0,0
24.894,24.949,0.056,62,40,Piano right,0,0
24.894,24.949,0.056,74,52,Piano right,0,0
25.121,25.178,0.057,74,48,Piano right,0,0
25.121,25.178,0.057,62,37,Piano right,0,0
25.348,25.405,0.057,62,35,Piano right,0,0
25.348,25.405,0.057,74,45,Piano right,0,0
25.578,25.636,0.059,62,34,Piano right,0,0
25.578,25.636,0.059,74,44,Piano right,0,0
25.806,25.86,0.055,62,38,Piano right,0,0
25.806,25.86,0.055,74,49,Piano right,0,0
26.029,26.084,0.056,62,42,Piano right,0,0
26.029,26.084,0.056,74,54,Piano right,0,0
26.253,26.309,0.057,62,40,Piano right,0,0
26.253,26.309,0.057,74,52,Piano right,0,0
26.48,26.536,0.057,74,57,Piano right,0,0
26.48,26.536,0.057,62,44,Piano right,0,0
26.707,26.764,0.057,62,40,Piano right,0,0
26.707,26.764,0.057,74,52,Piano right,0,0
26.934,26.991,0.057,62,45,Piano right,0,0
26.934,26.991,0.057,74,58,Piano right,0,0
27.159,27.215,0.056,62,38,Piano right,0,0
27.159,27.215,0.056,74,49,Piano right,0,0
27.381,27.436,0.056,74,54,Piano right,0,0
27.381,27.436,0.056,62,42,Piano right,0,0
27.605,27.66,0.056,74,48,Piano right,0,0
27.605,27.66,0.056,62,37,Piano right,0,0
27.83,27.886,0.057,62,41,Piano right,0,0
27.83,27.886,0.057,74,53,Piano right,0,0
28.058,28.119,0.061,62,40,Piano right,0,0
28.058,28.119,0.061,74,52,Piano right,0,0
28.297,28.355,0.058,62,34,Piano right,0,0
28.297,28.355,0.058,74,44,Piano right,0,0
28.524,28.579,0.055,74,49,Piano right,0,0
28.524,28.579,0.055,62,38,Piano right,0,0
28.745,28.801,0.056,62,42,Piano right,0,0
28.745,28.801,0.056,74,54,Piano right,0,0
28.971,29.027,0.056,62,40,Piano right,0,0
28.971,29.027,0.056,74,52,Piano right,0,0
29.198,29.255,0.057,62,37,Piano right,0,0
29.198,29.255,0.057,74,48,Piano right,0,0
29.425,29.482,0.057,62,35,Piano right,0,0
29.425,29.482,0.057,74,45,Piano right,0,0
29.655,29.714,0.059,62,34,Piano right,0,0
29.655,29.714,0.059,74,44,Piano right,0,0
29.883,29.938,0.055,62,38,Piano right,0,0
29.883,29.938,0.055,74,49,Piano right,0,0
30.106,30.161,0.056,62,42,Piano right,0,0
30.106,30.161,0.056,74,54,Piano right,0,0
30.331,30.388,0.057,62,40,Piano right,0,0
30.331,30.388,0.057,74,52,Piano right,0,0
30.558,30.615,0.057,62,37,Piano right,0,0
30.558,30.615,0.057,74,48,Piano right,0,0
30.786,30.843,0.057,62,35,Piano right,0,0
30.786,30.843,0.057,74,45,Piano right,0,0
31.016,31.073,0.058,74,44,Piano right,0,0
31.016,31.073,0.058,62,34,Piano right,0,0
31.243,31.298,0.056,62,38,Piano right,0,0
31.243,31.298,0.056,74,49,Piano right,0,0
31.466,31.521,0.056,62,42,Piano right,0,0
31.466,31.521,0.056,74,54,Piano right,0,0
31.691,31.746,0.056,62,40,Piano right,0,0
31.691,31.746,0.056,74,52,Piano right,0,0
31.917,31.973,0.057,74,57,Piano right,0,0
31.917,31.973,0.057,62,44,Piano right,0,0
32.144999999999996,32.201,0.056,74,52,Piano right,0,0
32.144999999999996,32.201,0.056,62,40,Piano right,0,0
32.372,32.429,0.057,62,45,Piano right,0,0
32.372,32.429,0.057,74,58,Piano right,0,0
32.595,32.649,0.055,62,38,Piano right,0,0
32.595,32.649,0.055,74,49,Piano right,0,0
32.816,32.871,0.056,62,48,Piano right,0,0
32.816,32.871,0.056,74,62,Piano right,0,0
33.04,33.095,0.056,74,54,Piano right,0,0
33.04,33.095,0.056,62,42,Piano right,0,0
33.266,33.322,0.057,62,51,Piano right,0,0
33.266,33.322,0.057,74,66,Piano right,0,0
33.5,33.56,0.06,62,45,Piano right,0,0
33.5,33.56,0.06,74,58,Piano right,0,0
33.738,33.805,0.068,74,70,Piano right,0,0
33.738,33.805,0.068,78,70,Piano right,0,0
33.738,33.805,0.068,81,83,Piano right,0,0
33.738,33.805,0.068,86,83,Piano right,0,0
33.984,34.038,0.054,62,42,Piano right,0,0
33.984,34.038,0.054,74,54,Piano right,0,0
34.205,34.259,0.055,74,59,Piano right,0,0
34.205,34.259,0.055,62,46,Piano right,0,0
34.43,34.486,0.057,62,44,Piano right,0,0
34.43,34.486,0.057,74,57,Piano right,0,0
34.657,34.714,0.057,62,40,Piano right,0,0
34.657,34.714,0.057,74,52,Piano right,0,0
34.884,34.941,0.057,62,38,Piano right,0,0
34.884,34.941,0.057,74,49,Piano right,0,0
35.115,35.181,0.067,86,85,Piano right,0,0
35.115,35.181,0.067,78,72,Piano right,0,0
35.115,35.181,0.067,74,72,Piano right,0,0
35.115,35.181,0.067,81,85,Piano right,0,0
35.358,35.412,0.055,62,42,Piano right,0,0
35.358,35.412,0.055,74,54,Piano right,0,0
35.58,35.635,0.056,62,46,Piano right,0,0
35.58,35.635,0.056,74,59,Piano right,0,0
35.806,35.862,0.057,62,44,Piano right,0,0
35.806,35.862,0.057,74,57,Piano right,0,0
36.033,36.09,0.057,62,40,Piano right,0,0
36.033,36.09,0.057,74,52,Piano right,0,0
36.26,36.317,0.057,62,38,Piano right,0,0
36.26,36.317,0.057,74,49,Piano right,0,0
36.491,36.556,0.066,81,83,Piano right,0,0
36.491,36.556,0.066,86,83,Piano right,0,0
36.491,36.556,0.066,74,70,Piano right,0,0
36.491,36.556,0.066,78,70,Piano right,0,0
36.733,36.788,0.055,62,42,Piano right,0,0
36.733,36.788,0.055,74,54,Piano right,0,0
36.955,37.01,0.056,74,59,Piano right,0,0
36.955,37.01,0.056,62,46,Piano right,0,0
37.179,37.235,0.057,62,44,Piano right,0,0
37.179,37.235,0.057,74,57,Piano right,0,0
37.406,37.462,0.057,62,52,Piano right,0,0
37.406,37.462,0.057,74,67,Piano right,0,0
37.633,37.69,0.057,62,49,Piano right,0,0
37.633,37.69,0.057,74,63,Piano right,0,0
37.86,37.917,0.057,74,70,Piano right,0,0
37.86,37.917,0.057,62,54,Piano right,0,0
38.085,38.141,0.056,62,50,Piano right,0,0
38.085,38.141,0.056,74,65,Piano right,0,0
38.307,38.362,0.056,62,54,Piano right,0,0
38.307,38.362,0.056,74,69,Piano right,0,0
38.531,38.586,0.056,62,49,Piano right,0,0
38.531,38.586,0.056,74,63,Piano right,0,0
38.756,38.812,0.057,62,51,Piano right,0,0
38.756,38.812,0.057,74,66,Piano right,0,0
38.984,39.042,0.058,62,44,Piano right,0,0
38.984,39.042,0.058,74,57,Piano right,0,0
39.216,39.283,0.068,86,83,Piano right,0,0
39.216,39.283,0.068,81,83,Piano right,0,0
39.216,39.283,0.068,74,70,Piano right,0,0
39.216,39.283,0.068,78,70,Piano right,0,0
39.462,39.517,0.055,62,42,Piano right,0,0
39.462,39.517,0.055,74,54,Piano right,0,0
39.683,39.739,0.056,62,46,Piano right,0,0
39.683,39.739,0.056,74,59,Piano right,0,0
39.908,39.965,0.057,74,57,Piano right,0,0
39.908,39.965,0.057,62,44,Piano right,0,0
40.136,40.192,0.056,74,52,Piano right,0,0
40.136,40.192,0.056,62,40,Piano right,0,0
40.362,40.419,0.057,62,38,Piano right,0,0
40.362,40.419,0.057,74,49,Piano right,0,0
40.593,40.66,0.068,81,85,Piano right,0,0
40.593,40.66,0.068,78,72,Piano right,0,0
40.593,40.66,0.068,74,72,Piano right,0,0
40.593,40.66,0.068,86,85,Piano right,0,0
40.838,40.892,0.055,74,54,Piano right,0,0
40.838,40.892,0.055,62,42,Piano right,0,0
41.06,41.116,0.056,62,46,Piano right,0,0
41.06,41.116,0.056,74,59,Piano right,0,0
41.285,41.342,0.057,62,44,Piano right,0,0
41.285,41.342,0.057,74,57,Piano right,0,0
41.512,41.569,0.057,62,40,Piano right,0,0
41.512,41.569,0.057,74,52,Piano right,0,0
41.74,41.796,0.057,62,38,Piano right,0,0
41.74,41.796,0.057,74,49,Piano right,0,0
41.97,42.039,0.069,86,83,Piano right,0,0
41.97,42.039,0.069,78,70,Piano right,0,0
41.97,42.039,0.069,74,70,Piano right,0,0
41.97,42.039,0.069,81,83,Piano right,0,0
42.217,42.272,0.056,62,42,Piano right,0,0
42.217,42.272,0.056,74,54,Piano right,0,0
42.44,42.495,0.056,62,46,Piano right,0,0
42.44,42.495,0.056,74,59,Piano right,0,0
42.665,42.72,0.056,62,44,Piano right,0,0
42.665,42.72,0.056,74,57,Piano right,0,0
42.891,42.947,0.057,74,64,Piano right,0,0
42.891,42.947,0.057,62,50,Piano right,0,0
43.118,43.174,0.057,62,49,Piano right,0,0
43.118,43.174,0.057,74,63,Piano right,0,0
43.346,43.403,0.057,62,54,Piano right,0,0
43.346,43.403,0.057,74,70,Piano right,0,0
43.57,43.624,0.055,62,50,Piano right,0,0
43.57,43.624,0.055,74,65,Piano right,0,0
43.792,43.847,0.056,62,56,Piano right,0,0
43.792,43.847,0.056,74,72,Piano right,0,0
44.018,44.074,0.057,62,52,Piano right,0,0
44.018,44.074,0.057,74,67,Piano right,0,0
44.249,44.307,0.058,62,60,Piano right,0,0
44.249,44.307,0.058,74,77,Piano right,0,0
44.485,44.544,0.059,62,59,Piano right,0,0
44.485,44.544,0.059,74,76,Piano right,0,0
44.724,44.804,0.08,79,76,Piano right,0,0
44.724,44.804,0.08,82,76,Piano right,0,0
44.724,44.804,0.08,86,76,Piano right,0,0
44.724,44.804,0.08,91,91,Piano right,0,0
44.991,45.044,0.054,74,68,Piano right,0,0
44.991,45.044,0.054,62,52,Piano right,0,0
45.211,45.267,0.056,62,57,Piano right,0,0
45.211,45.267,0.056,74,74,Piano right,0,0
45.436,45.493,0.057,62,54,Piano right,0,0
45.436,45.493,0.057,74,70,Piano right,0,0
45.662,45.719,0.057,62,50,Piano right,0,0
45.662,45.719,0.057,74,65,Piano right,0,0
45.891,45.947,0.057,74,60,Piano right,0,0
45.891,45.947,0.057,62,47,Piano right,0,0
46.121,46.199,0.079,91,93,Piano right,0,0
46.121,46.199,0.079,82,79,Piano right,0,0
46.121,46.199,0.079,79,79,Piano right,0,0
46.121,46.199,0.079,86,79,Piano right,0,0
46.388,46.441,0.054,62,52,Piano right,0,0
46.388,46.441,0.054,74,68,Piano right,0,0
46.608,46.664,0.056,62,57,Piano right,0,0
46.608,46.664,0.056,74,74,Piano right,0,0
46.834,46.891,0.057,62,54,Piano right,0,0
46.834,46.891,0.057,74,70,Piano right,0,0
47.061,47.118,0.057,74,65,Piano right,0,0
47.061,47.118,0.057,62,50,Piano right,0,0
47.275,47.303,0.028,62,47,Piano right,0,0
47.275,47.303,0.028,74,60,Piano right,0,0
47.476,47.554,0.078,86,76,Piano right,0,0
47.476,47.554,0.078,91,91,Piano right,0,0
47.476,47.554,0.078,79,76,Piano right,0,0
47.476,47.554,0.078,82,76,Piano right,0,0
47.744,47.799,0.055,62,50,Piano right,0,0
47.744,47.799,0.055,74,65,Piano right,0,0
47.966,48.022,0.056,62,55,Piano right,0,0
47.966,48.022,0.056,74,71,Piano right,0,0
48.191,48.247,0.056,62,52,Piano right,0,0
48.191,48.247,0.056,74,67,Piano right,0,0
48.417,48.474,0.057,62,55,Piano right,0,0
48.417,48.474,0.057,74,72,Piano right,0,0
48.645,48.701,0.056,62,58,Piano right,0,0
48.645,48.701,0.056,74,75,Piano right,0,0
48.872,48.929,0.057,62,61,Piano right,0,0
48.872,48.929,0.057,74,79,Piano right,0,0
49.097,49.152,0.055,74,70,Piano right,0,0
49.097,49.152,0.055,62,54,Piano right,0,0
49.319,49.374,0.055,62,58,Piano right,0,0
49.319,49.374,0.055,74,75,Piano right,0,0
49.542,49.599,0.057,62,52,Piano right,0,0
49.542,49.599,0.057,74,67,Piano right,0,0
49.768,49.825,0.057,62,54,Piano right,0,0
49.768,49.825,0.057,74,71,Piano right,0,0
50.039,50.099,0.061,74,67,Piano right,0,0
50.039,50.099,0.061,62,52,Piano right,0,0
50.277,50.364,0.088,87,93,Piano right,0,0
50.277,50.364,0.088,82,79,Piano right,0,0
50.277,50.364,0.088,79,79,Piano right,0,0
50.277,50.364,0.088,91,93,Piano right,0,0
50.562,50.616,0.054,63,52,Piano right,0,0
50.562,50.616,0.054,75,68,Piano right,0,0
50.782,50.838,0.056,63,57,Piano right,0,0
50.782,50.838,0.056,75,74,Piano right,0,0
51.008,51.065,0.057,63,54,Piano right,0,0
51.008,51.065,0.057,75,70,Piano right,0,0
51.235,51.292,0.057,75,65,Piano right,0,0
51.235,51.292,0.057,63,50,Piano right,0,0
51.465,51.521,0.057,63,47,Piano right,0,0
51.465,51.521,0.057,75,60,Piano right,0,0
51.697,51.784,0.087,87,93,Piano right,0,0
51.697,51.784,0.087,82,79,Piano right,0,0
51.697,51.784,0.087,79,79,Piano right,0,0
51.697,51.784,0.087,91,93,Piano right,0,0
51.981,52.034,0.054,75,68,Piano right,0,0
51.981,52.034,0.054,63,52,Piano right,0,0
52.201,52.256,0.056,75,74,Piano right,0,0
52.201,52.256,0.056,63,57,Piano right,0,0
52.427,52.483,0.057,63,54,Piano right,0,0
52.427,52.483,0.057,75,70,Piano right,0,0
52.654,52.71,0.057,63,50,Piano right,0,0
52.654,52.71,0.057,75,65,Piano right,0,0
52.885,52.943,0.058,63,47,Piano right,0,0
52.885,52.943,0.058,75,60,Piano right,0,0
53.119,53.205,0.086,91,93,Piano right,0,0
53.119,53.205,0.086,82,79,Piano right,0,0
53.119,53.205,0.086,79,79,Piano right,0,0
53.119,53.205,0.086,87,93,Piano right,0,0
53.403,53.457,0.055,63,50,Piano right,0,0
53.403,53.457,0.055,75,65,Piano right,0,0
53.625,53.681,0.056,63,55,Piano right,0,0
53.625,53.681,0.056,75,71,Piano right,0,0
53.851,53.907,0.057,63,52,Piano right,0,0
53.851,53.907,0.057,75,67,Piano right,0,0
54.078,54.134,0.057,63,48,Piano right,0,0
54.078,54.134,0.057,75,62,Piano right,0,0
54.306,54.361,0.056,75,58,Piano right,0,0
54.306,54.361,0.056,63,45,Piano right,0,0
54.533,54.59,0.057,63,54,Piano right,0,0
54.533,54.59,0.057,75,70,Piano right,0,0
54.758,54.812,0.055,63,55,Piano right,0,0
54.758,54.812,0.055,75,71,Piano right,0,0
54.98,55.034,0.055,63,55,Piano right,0,0
54.98,55.034,0.055,75,71,Piano right,0,0
55.203,55.258,0.056,75,67,Piano right,0,0
55.203,55.258,0.056,63,52,Piano right,0,0
55.429,55.485,0.057,63,56,Piano right,0,0
55.429,55.485,0.057,75,72,Piano right,0,0
55.657,55.714,0.057,63,52,Piano right,0,0
55.657,55.714,0.057,75,67,Piano right,0,0
55.889,55.978,0.09,86,86,Piano right,0,0
55.889,55.978,0.09,90,86,Piano right,0,0
55.889,55.978,0.09,93,86,Piano right,0,0
55.889,55.978,0.09,98,102,Piano right,0,0
56.176,56.229,0.054,62,55,Piano right,0,0
56.176,56.229,0.054,74,71,Piano right,0,0
56.396,56.452,0.056,62,58,Piano right,0,0
56.396,56.452,0.056,74,75,Piano right,0,0
56.621,56.678,0.057,62,57,Piano right,0,0
56.621,56.678,0.057,74,73,Piano right,0,0
56.848,56.905,0.057,62,52,Piano right,0,0
56.848,56.905,0.057,74,68,Piano right,0,0
57.076,57.135,0.06,62,49,Piano right,0,0
57.076,57.135,0.06,74,63,Piano right,0,0
57.312,57.402,0.09,99,102,Piano right,0,0
57.312,57.402,0.09,94,86,Piano right,0,0
57.312,57.402,0.09,87,86,Piano right,0,0
57.312,57.402,0.09,91,86,Piano right,0,0
57.601,57.654,0.054,63,55,Piano right,0,0
57.601,57.654,0.054,75,71,Piano right,0,0
57.821,57.877,0.056,63,60,Piano right,0,0
57.821,57.877,0.056,75,78,Piano right,0,0
58.046,58.103,0.057,75,73,Piano right,0,0
58.046,58.103,0.057,63,57,Piano right,0,0
58.273,58.33,0.057,63,52,Piano right,0,0
58.273,58.33,0.057,75,68,Piano right,0,0
58.501,58.559,0.059,63,49,Piano right,0,0
58.501,58.559,0.059,75,63,Piano right,0,0
58.735,58.823,0.089,93,87,Piano right,0,0
58.735,58.823,0.089,98,103,Piano right,0,0
58.735,58.823,0.089,86,87,Piano right,0,0
58.735,58.823,0.089,90,87,Piano right,0,0
59.021,59.074,0.054,62,55,Piano right,0,0
59.021,59.074,0.054,74,71,Piano right,0,0
59.24,59.295,0.056,74,74,Piano right,0,0
59.24,59.295,0.056,62,57,Piano right,0,0
59.465,59.521,0.057,62,57,Piano right,0,0
59.465,59.521,0.057,74,73,Piano right,0,0
59.692,59.748,0.057,62,52,Piano right,0,0
59.692,59.748,0.057,74,68,Piano right,0,0
59.92,59.979,0.059,62,49,Piano right,0,0
59.92,59.979,0.059,74,63,Piano right,0,0
60.155,60.242,0.087,94,86,Piano right,0,0
60.155,60.242,0.087,91,86,Piano right,0,0
60.155,60.242,0.087,87,86,Piano right,0,0
60.155,60.242,0.087,99,102,Piano right,0,0
60.44,60.493,0.054,63,55,Piano right,0,0
60.44,60.493,0.054,75,71,Piano right,0,0
60.66,60.716,0.056,63,60,Piano right,0,0
60.66,60.716,0.056,75,78,Piano right,0,0
60.886,60.943,0.057,63,57,Piano right,0,0
60.886,60.943,0.057,75,73,Piano right,0,0
61.112,61.169,0.057,75,68,Piano right,0,0
61.112,61.169,0.057,63,52,Piano right,0,0
61.34,61.396,0.057,63,49,Piano right,0,0
61.34,61.396,0.057,75,63,Piano right,0,0
61.571,61.661,0.091,93,86,Piano right,0,0
61.571,61.661,0.091,98,102,Piano right,0,0
61.571,61.661,0.091,86,86,Piano right,0,0
61.571,61.661,0.091,90,86,Piano right,0,0
61.862,61.917,0.055,62,55,Piano right,0,0
61.862,61.917,0.055,74,71,Piano right,0,0
62.085,62.14,0.055,62,60,Piano right,0,0
62.085,62.14,0.055,74,78,Piano right,0,0
62.31,62.367,0.057,62,57,Piano right,0,0
62.31,62.367,0.057,74,73,Piano right,0,0
62.537,62.594,0.057,62,52,Piano right,0,0
62.537,62.594,0.057,74,68,Piano right,0,0
62.764,62.82,0.057,62,49,Piano right,0,0
62.764,62.82,0.057,74,63,Piano right,0,0
62.993,63.049,0.057,62,53,Piano right,0,0
62.993,63.049,0.057,74,68,Piano right,0,0
63.217,63.271,0.055,62,50,Piano right,0,0
63.217,63.271,0.055,74,65,Piano right,0,0
63.354,63.409,0.056,74,66,Piano right,0,0
63.354,63.409,0.056,62,51,Piano right,0,0
63.579,63.635,0.057,62,49,Piano right,0,0
63.579,63.635,0.057,74,63,Piano right,0,0
63.804,63.858,0.055,62,50,Piano right,0,0
63.804,63.858,0.055,74,65,Piano right,0,0
64.02600000000001,64.081,0.056,62,45,Piano right,0,0
64.02600000000001,64.081,0.056,74,58,Piano right,0,0
64.247,64.30199999999999,0.055,74,68,Piano right,0,0
64.247,64.30199999999999,0.055,62,53,Piano right,0,0
64.469,64.525,0.056,74,63,Piano right,0,0
64.469,64.525,0.056,62,49,Piano right,0,0
64.692,64.746,0.055,62,49,Piano right,0,0
64.692,64.746,0.055,74,63,Piano right,0,0
64.914,64.969,0.056,62,48,Piano right,0,0
64.914,64.969,0.056,74,62,Piano right,0,0
65.136,65.191,0.055,62,48,Piano right,0,0
65.136,65.191,0.055,74,62,Piano right,0,0
65.357,65.412,0.055,74,55,Piano right,0,0
65.357,65.412,0.055,62,43,Piano right,0,0
65.578,65.632,0.055,74,63,Piano right,0,0
65.578,65.632,0.055,62,49,Piano right,0,0
65.799,65.855,0.056,62,46,Piano right,0,0
65.799,65.855,0.056,74,59,Piano right,0,0
66.11,66.167,0.057,62,46,Piano right,0,0
66.11,66.167,0.057,74,59,Piano right,0,0
66.339,66.397,0.059,62,43,Piano right,0,0
66.339,66.397,0.059,74,55,Piano right,0,0
66.573,66.633,0.06,62,44,Piano right,0,0
66.573,66.633,0.06,74,57,Piano right,0,0
66.81,66.869,0.059,74,49,Piano right,0,0
66.81,66.869,0.059,62,38,Piano right,0,0
67.044,67.102,0.058,62,58,Piano right,0,0
67.044,67.102,0.058,74,75,Piano right,0,0
67.271,67.326,0.055,62,42,Piano right,0,0
67.493,67.547,0.055,62,46,Piano right,0,0
67.718,67.774,0.057,62,44,Piano right,0,0
67.945,68.002,0.057,62,40,Piano right,0,0
68.172,68.229,0.057,62,38,Piano right,0,0
68.4,68.458,0.058,62,45,Piano right,0,0
68.625,68.68,0.055,62,42,Piano right,0,0
68.804,68.86,0.056,62,43,Piano right,0,0
69.029,69.086,0.057,62,41,Piano right,0,0
69.254,69.309,0.055,62,42,Piano right,0,0
69.476,69.532,0.056,62,38,Piano right,0,0
69.698,69.753,0.055,62,45,Piano right,0,0
69.92,69.976,0.056,62,41,Piano right,0,0
70.142,70.197,0.055,62,41,Piano right,0,0
70.364,70.42,0.056,62,40,Piano right,0,0
70.587,70.642,0.055,62,40,Piano right,0,0
70.851,70.905,0.055,62,36,Piano right,0,0
71.071,71.126,0.055,62,41,Piano right,0,0
71.293,71.348,0.056,62,39,Piano right,0,0
71.518,71.573,0.056,62,39,Piano right,0,0
71.745,71.802,0.057,62,36,Piano right,0,0
71.975,72.033,0.058,62,37,Piano right,0,0
72.208,72.266,0.058,62,32,Piano right,0,0
72.441,72.498,0.058,54,36,Piano right,0,0
72.441,72.498,0.058,57,36,Piano right,0,0
72.669,72.723,0.055,57,31,Piano right,0,0
72.669,72.723,0.055,54,31,Piano right,0,0
72.891,72.946,0.056,57,34,Piano right,0,0
72.891,72.946,0.056,54,34,Piano right,0,0
73.117,73.172,0.056,57,33,Piano right,0,0
73.117,73.172,0.056,54,33,Piano right,0,0
73.341,73.395,0.055,57,35,Piano right,0,0
73.341,73.395,0.055,54,35,Piano right,0,0
73.562,73.617,0.055,57,34,Piano right,0,0
73.562,73.617,0.055,54,34,Piano right,0,0
73.786,73.843,0.057,55,36,Piano right,0,0
73.786,73.843,0.057,58,36,Piano right,0,0
74.01,74.066,0.056,58,31,Piano right,0,0
74.01,74.066,0.056,55,31,Piano right,0,0
74.232,74.288,0.056,58,34,Piano right,0,0
74.232,74.288,0.056,55,34,Piano right,0,0
74.457,74.514,0.057,58,29,Piano right,0,0
74.457,74.514,0.057,55,29,Piano right,0,0
74.685,74.741,0.056,55,34,Piano right,0,0
74.685,74.741,0.056,58,34,Piano right,0,0
74.912,74.969,0.057,58,31,Piano right,0,0
74.912,74.969,0.057,55,31,Piano right,0,0
75.142,75.201,0.059,57,36,Piano right,0,0
75.142,75.201,0.059,54,36,Piano right,0,0
75.369,75.423,0.055,57,31,Piano right,0,0
75.369,75.423,0.055,54,31,Piano right,0,0
75.591,75.646,0.056,57,34,Piano right,0,0
75.591,75.646,0.056,54,34,Piano right,0,0
75.816,75.872,0.057,57,33,Piano right,0,0
75.816,75.872,0.057,54,33,Piano right,0,0
76.04,76.094,0.055,57,35,Piano right,0,0
76.04,76.094,0.055,54,35,Piano right,0,0
76.262,76.318,0.056,57,34,Piano right,0,0
76.262,76.318,0.056,54,34,Piano right,0,0
76.488,76.543,0.056,58,36,Piano right,0,0
76.488,76.543,0.056,55,36,Piano right,0,0
76.711,76.766,0.055,58,31,Piano right,0,0
76.711,76.766,0.055,55,31,Piano right,0,0
76.933,76.989,0.056,55,34,Piano right,0,0
76.933,76.989,0.056,58,34,Piano right,0,0
77.158,77.215,0.057,58,29,Piano right,0,0
77.158,77.215,0.057,55,29,Piano right,0,0
77.383,77.439,0.056,58,34,Piano right,0,0
77.383,77.439,0.056,55,34,Piano right,0,0
77.608,77.664,0.056,58,31,Piano right,0,0
77.608,77.664,0.056,55,31,Piano right,0,0
77.837,77.895,0.058,54,36,Piano right,0,0
77.837,77.895,0.058,57,36,Piano right,0,0
78.064,78.118,0.055,57,31,Piano right,0,0
78.064,78.118,0.055,54,31,Piano right,0,0
78.286,78.342,0.056,57,34,Piano right,0,0
78.286,78.342,0.056,54,34,Piano right,0,0
78.511,78.568,0.057,57,33,Piano right,0,0
78.511,78.568,0.057,54,33,Piano right,0,0
78.736,78.791,0.055,57,35,Piano right,0,0
78.736,78.791,0.055,54,35,Piano right,0,0
78.959,79.015,0.056,57,34,Piano right,0,0
78.959,79.015,0.056,54,34,Piano right,0,0
79.186,79.243,0.057,54,36,Piano right,0,0
79.186,79.243,0.057,57,36,Piano right,0,0
79.411,79.466,0.055,57,31,Piano right,0,0
79.411,79.466,0.055,54,31,Piano right,0,0
79.633,79.688,0.055,57,34,Piano right,0,0
79.633,79.688,0.055,54,34,Piano right,0,0
79.824,79.833,0.009,57,29,Piano right,0,0
79.824,79.833,0.009,54,29,Piano right,0,0
79.871,79.928,0.057,54,34,Piano right,0,0
79.871,79.928,0.057,57,34,Piano right,0,0
80.098,80.155,0.057,54,31,Piano right,0,0
80.098,80.155,0.057,57,31,Piano right,0,0
80.327,80.383,0.057,54,43,Piano right,0,0
80.554,80.61,0.057,57,43,Piano right,0,0
80.78,80.837,0.057,62,42,Piano right,0,0
81.008,81.064,0.056,66,42,Piano right,0,0
81.235,81.292,0.057,69,41,Piano right,0,0
81.462,81.519,0.057,74,41,Piano right,0,0
81.69,81.746,0.057,78,40,Piano right,0,0
81.918,81.976,0.058,81,40,Piano right,0,0
82.149,82.207,0.058,86,39,Piano right,0,0
82.382,82.44,0.058,90,39,Piano right,0,0
82.66,82.72,0.06,93,39,Piano right,0,0
82.9,82.965,0.065,98,39,Piano right,0,0
83.031,85.297,2.266,86,43,Piano right,0,0
83.031,85.297,2.266,90,43,Piano right,0,0
83.031,85.297,2.266,98,43,Piano right,0,0
86.346,87.846,1.5,86,65,Piano right,0,0
87.846,88.221,0.375,84,57,Piano right,0,0
88.221,88.596,0.375,86,57,Piano right,0,0
89.908,89.994,0.086,86,54,Piano right,0,0
88.596,89.994,1.398,89,64,Piano right,0,0
89.994,90.08,0.086,87,54,Piano right,0,0
90.08,90.434,0.355,86,60,Piano right,0,0
90.435,90.803,0.368,84,47,Piano right,0,0
90.803,92.385,1.583,86,55,Piano right,0,0
92.386,93.282,0.896,66,34,Piano right,0,0
93.282,95.809,2.528,69,34,Piano right,0,0
93.282,95.809,2.528,66,34,Piano right,0,0
92.386,95.81,3.424,57,28,Piano right,0,0
92.386,95.81,3.424,62,28,Piano right,0,0
95.81,97.31,1.5,86,65,Piano right,0,0
97.31,97.685,0.375,84,57,Piano right,0,0
97.685,98.06,0.375,86,57,Piano right,0,0
99.373,99.458,0.085,86,54,Piano right,0,0
98.06,99.458,1.398,89,64,Piano right,0,0
99.458,99.544,0.086,87,54,Piano right,0,0
99.544,99.894,0.351,86,60,Piano right,0,0
99.895,100.268,0.373,84,47,Piano right,0,0
100.268,101.856,1.589,86,55,Piano right,0,0
101.857,102.758,0.902,62,34,Piano right,0,0
102.759,105.305,2.546,65,34,Piano right,0,0
101.857,105.305,3.448,53,28,Piano right,0,0
101.857,105.305,3.448,58,28,Piano right,0,0
102.759,105.305,2.546,62,34,Piano right,0,0
105.305,106.805,1.5,86,62,Piano right,0,0
106.805,108.079,1.274,85,56,Piano right,0,0
108.079,108.262,0.184,82,48,Piano right,0,0
108.263,108.374,0.111,84,46,Piano right,0,0
108.375,109.129,0.754,82,54,Piano right,0,0
109.129,111.016,1.887,81,50,Piano right,0,0
111.016,111.365,0.349,79,52,Piano right,0,0
111.365,111.971,0.606,82,46,Piano right,0,0
111.971,113.766,1.795,81,52,Piano right,0,0
113.766,114.653,0.888,66,41,Piano right,0,0
114.654,117.32,2.667,69,41,Piano right,0,0
113.766,117.32,3.555,57,35,Piano right,0,0
113.766,117.32,3.555,62,35,Piano right,0,0
114.654,117.32,2.667,66,41,Piano right,0,0
117.321,118.821,1.5,86,65,Piano right,0,0
118.821,119.158,0.337,87,65,Piano right,0,0
119.158,119.498,0.341,86,57,Piano right,0,0
119.499,119.848,0.349,85,59,Piano right,0,0
119.848,120.041,0.193,81,59,Piano right,0,0
120.041,123.916,3.876,82,46,Piano right,0,0
123.917,126.149,2.233,84,46,Piano right,0,0
126.149,132.509,6.36,82,53,Piano right,0,0
132.51,144.046,11.536,81,52,Piano right,0,0
144.046,145.212,1.167,79,53,Piano right,0,0
145.212,147.657,2.445,82,47,Piano right,0,0
147.658,149.43,1.772,81,52,Piano right,0,0
149.43,150.559,1.129,67,30,Piano right,0,0
149.43,150.559,1.129,61,25,Piano right,0,0
150.559,153.706,3.147,66,30,Piano right,0,0
150.559,153.706,3.147,62,30,Piano right,0,0
149.43,153.706,4.276,57,25,Piano right,0,0
154.233,155.159,0.927,65,36,Piano right,0,0
155.521,155.581,0.06,66,48,Piano right,0,0
155.581,155.642,0.061,68,50,Piano right,0,0
155.642,155.867,0.226,66,57,Piano right,0,0
155.868,156.094,0.227,65,53,Piano right,0,0
156.095,156.32,0.226,66,59,Piano right,0,0
156.321,156.548,0.228,75,55,Piano right,0,0
157.873,158.789,0.916,65,48,Piano right,0,0
157.873,158.789,0.916,74,48,Piano right,0,0
159.261,159.709,0.448,73,56,Piano right,0,0
159.709,160.155,0.446,72,54,Piano right,0,0
159.261,160.155,0.894,74,63,Piano right,0,0
160.595,161.041,0.446,70,56,Piano right,0,0
161.041,161.487,0.446,74,51,Piano right,0,0
160.595,161.487,0.892,62,51,Piano right,0,0
162.57,163.021,0.451,69,58,Piano right,0,0
163.021,163.479,0.458,74,50,Piano right,0,0
162.57,163.479,0.909,62,52,Piano right,0,0
163.946,164.423,0.478,67,58,Piano right,0,0
164.424,164.97,0.546,74,50,Piano right,0,0
163.946,164.97,1.024,62,51,Piano right,0,0
165.491,166.535,1.044,67,30,Piano right,0,0
165.491,166.535,1.044,61,25,Piano right,0,0
168.158,169.09,0.932,66,45,Piano right,0,0
168.158,169.09,0.932,62,45,Piano right,0,0
169.553,169.782,0.229,67,41,Piano right,0,0
169.553,169.782,0.229,69,41,Piano right,0,0
170.01,170.238,0.228,67,41,Piano right,0,0
170.01,170.238,0.228,69,41,Piano right,0,0
171.454,171.917,0.464,66,45,Piano right,0,0
171.454,171.917,0.464,62,45,Piano right,0,0
172.381,172.608,0.228,67,41,Piano right,0,0
172.381,172.608,0.228,69,41,Piano right,0,0
172.837,173.065,0.228,67,41,Piano right,0,0
172.837,173.065,0.228,69,41,Piano right,0,0
174.37,174.855,0.485,66,45,Piano right,0,0
174.37,174.855,0.485,62,45,Piano right,0,0
174.855,175.087,0.232,84,66,Piano right,0,0
175.087,175.319,0.232,86,63,Piano right,0,0
175.319,176.226,0.906,87,67,Piano right,0,0
176.226,176.339,0.114,89,65,Piano right,0,0
176.34,176.453,0.114,87,62,Piano right,0,0
176.454,176.681,0.228,86,66,Piano right,0,0
176.682,176.915,0.233,84,55,Piano right,0,0
176.915,177.141,0.227,86,65,Piano right,0,0
177.142,177.37,0.229,85,54,Piano right,0,0
177.371,177.596,0.226,81,59,Piano right,0,0
177.597,178.423,0.826,84,52,Piano right,0,0
178.423,180.496,2.073,83,54,Piano right,0,0
180.497,180.734,0.237,79,50,Piano right,0,0
180.734,199.262,18.529,82,54,Piano right,0,0
199.262,204.028,4.766,81,47,Piano right,0,0
204.029,204.349,0.32,78,52,Piano right,0,0
204.349,204.59,0.241,80,46,Piano right,0,0
204.59,204.83,0.241,79,51,Piano right,0,0
204.831,205.078,0.247,75,47,Piano right,0,0
206.018,206.48,0.463,66,45,Piano right,0,0
206.018,206.48,0.463,62,45,Piano right,0,0
206.945,207.998,1.053,68,36,Piano right,0,0
206.945,207.998,1.053,72,36,Piano right,0,0
207.998,208.486,0.489,68,36,Piano right,0,0
207.998,208.486,0.489,72,36,Piano right,0,0
209.783,210.247,0.464,71,45,Piano right,0,0
209.783,210.247,0.464,67,45,Piano right,0,0
210.71,210.995,0.285,68,39,Piano right,0,0
210.71,210.995,0.285,72,39,Piano right,0,0
211.55,211.779,0.229,68,39,Piano right,0,0
211.55,211.779,0.229,72,39,Piano right,0,0
213.467,213.952,0.485,71,45,Piano right,0,0
213.467,213.952,0.485,67,45,Piano right,0,0
213.953,214.184,0.232,75,67,Piano right,0,0
214.184,214.417,0.233,78,63,Piano right,0,0
213.953,214.417,0.465,67,49,Piano right,0,0
214.417,214.645,0.228,79,66,Piano right,0,0
214.645,217.246,2.601,74,57,Piano right,0,0
217.247,221.296,4.049,75,57,Piano right,0,0
214.417,221.296,6.879,67,45,Piano right,0,0
221.296,221.629,0.333,72,63,Piano right,0,0
221.629,221.863,0.234,74,56,Piano right,0,0
221.296,221.863,0.567,66,45,Piano right,0,0
221.864,222.262,0.398,70,65,Piano right,0,0
222.262,222.511,0.249,74,50,Piano right,0,0
221.864,222.511,0.647,62,38,Piano right,0,0
222.511,223.11,0.599,69,62,Piano right,0,0
223.111,223.73,0.619,74,49,Piano right,0,0
222.511,223.73,1.219,62,30,Piano right,0,0
223.73,224.431,0.701,70,60,Piano right,0,0
224.431,224.666,0.235,74,49,Piano right,0,0
223.73,224.666,0.936,62,33,Piano right,0,0
224.667,224.898,0.232,79,56,Piano right,0,0
224.898,226.792,1.893,81,51,Piano right,0,0
224.667,226.792,2.125,70,50,Piano right,0,0
226.792,235.47,8.679,82,56,Piano right,0,0
235.47,235.585,0.115,77,51,Piano right,0,0
235.585,235.699,0.114,79,51,Piano right,0,0
226.792,235.699,8.907,70,50,Piano right,0,0
235.699,235.927,0.228,75,57,Piano right,0,0
235.928,236.16,0.233,77,49,Piano right,0,0
235.699,236.16,0.461,69,51,Piano right,0,0
236.16,237.04,0.88,74,53,Piano right,0,0
237.041,237.569,0.528,77,46,Piano right,0,0
236.16,237.569,1.408,65,37,Piano right,0,0
237.569,238.987,1.419,73,51,Piano right,0,0
238.987,239.222,0.235,77,44,Piano right,0,0
237.569,239.222,1.654,65,36,Piano right,0,0
239.223,240.198,0.975,74,52,Piano right,0,0
240.198,241.226,1.028,77,46,Piano right,0,0
239.223,241.226,2.003,65,36,Piano right,0,0
241.226,241.84,0.615,80,57,Piano right,0,0
241.841,242.281,0.44,82,50,Piano right,0,0
242.281,242.505,0.224,84,55,Piano right,0,0
242.505,242.618,0.112,87,49,Piano right,0,0
242.618,242.674,0.056,85,46,Piano right,0,0
242.674,242.729,0.055,87,47,Piano right,0,0
242.729,243.304,0.574,85,55,Piano right,0,0
243.304,243.745,0.442,84,48,Piano right,0,0
243.746,243.971,0.226,87,57,Piano right,0,0
243.972,244.086,0.115,84,49,Piano right,0,0
244.087,244.144,0.057,82,44,Piano right,0,0
244.144,244.201,0.057,84,44,Piano right,0,0
244.201,245.171,0.971,82,55,Piano right,0,0
245.172,248.891,3.719,81,48,Piano right,0,0
248.891,249.392,0.502,84,55,Piano right,0,0
249.393,249.667,0.274,87,48,Piano right,0,0
249.667,249.898,0.232,63,55,Piano right,0,0
249.899,250.131,0.232,65,46,Piano right,0,0
250.131,250.358,0.228,67,55,Piano right,0,0
250.359,250.472,0.114,69,52,Piano right,0,0
250.473,250.586,0.114,67,49,Piano right,0,0
250.587,250.815,0.228,65,53,Piano right,0,0
250.815,251.048,0.234,63,53,Piano right,0,0
252.245,252.707,0.463,66,45,Piano right,0,0
252.245,252.707,0.463,62,45,Piano right,0,0
253.171,253.399,0.229,69,41,Piano right,0,0
253.171,253.399,0.229,72,41,Piano right,0,0
253.628,253.855,0.228,69,41,Piano right,0,0
253.628,253.855,0.228,72,41,Piano right,0,0
255.711,256.174,0.463,66,45,Piano right,0,0
255.711,256.174,0.463,62,45,Piano right,0,0
256.767,256.994,0.228,69,41,Piano right,0,0
256.767,256.994,0.228,72,41,Piano right,0,0
257.222,257.45,0.228,69,41,Piano right,0,0
257.222,257.45,0.228,72,41,Piano right,0,0
258.67,259.155,0.485,66,45,Piano right,0,0
258.67,259.155,0.485,62,45,Piano right,0,0
267.043,267.126,0.083,62,23,Piano right,0,0
267.043,267.126,0.083,65,28,Piano right,0,0
267.324,267.382,0.058,62,21,Piano right,0,0
267.324,267.382,0.058,65,26,Piano right,0,0
267.559,267.619,0.06,62,21,Piano right,0,0
267.559,267.619,0.06,65,26,Piano right,0,0
267.842,267.902,0.06,62,20,Piano right,0,0
267.842,267.902,0.06,65,26,Piano right,0,0
268.421,268.48,0.059,62,21,Piano right,0,0
268.421,268.48,0.059,65,26,Piano right,0,0
268.66,268.721,0.061,62,18,Piano right,0,0
268.66,268.721,0.061,65,26,Piano right,0,0
268.903,269.422,0.52,57,23,Piano right,0,0
268.903,269.422,0.52,60,23,Piano right,0,0
268.903,269.422,0.52,65,28,Piano right,0,0
274.047,274.107,0.06,57,20,Piano right,0,0
274.047,274.107,0.06,65,26,Piano right,0,0
274.047,274.107,0.06,60,22,Piano right,0,0
274.397,274.47,0.073,57,20,Piano right,0,0
274.397,274.47,0.073,65,26,Piano right,0,0
274.397,274.47,0.073,60,22,Piano right,0,0
274.648,274.707,0.059,57,19,Piano right,0,0
274.648,274.707,0.059,65,26,Piano right,0,0
274.648,274.707,0.059,60,22,Piano right,0,0
275.035,275.112,0.078,57,19,Piano right,0,0
275.035,275.112,0.078,65,26,Piano right,0,0
275.035,275.112,0.078,60,22,Piano right,0,0
275.379,275.44,0.061,57,17,Piano right,0,0
275.379,275.44,0.061,65,26,Piano right,0,0
275.379,275.44,0.061,60,22,Piano right,0,0
276.007,282.656,6.649,58,22,Piano right,0,0
276.007,282.656,6.649,67,26,Piano right,0,0
276.007,282.656,6.649,61,22,Piano right,0,0
286.66,286.84,0.18,58,18,Piano right,0,0
286.66,286.84,0.18,67,24,Piano right,0,0
286.66,286.84,0.18,61,20,Piano right,0,0
293.513,293.573,0.06,58,18,Piano right,0,0
293.513,293.573,0.06,67,24,Piano right,0,0
293.513,293.573,0.06,61,20,Piano right,0,0
293.757,293.818,0.061,58,17,Piano right,0,0
293.757,293.818,0.061,67,24,Piano right,0,0
293.757,293.818,0.061,61,20,Piano right,0,0
294.005,294.068,0.062,58,18,Piano right,0,0
294.005,294.068,0.062,67,24,Piano right,0,0
294.005,294.068,0.062,61,20,Piano right,0,0
294.266,294.434,0.168,58,15,Piano right,0,0
294.266,294.434,0.168,67,24,Piano right,0,0
294.266,294.434,0.168,61,20,Piano right,0,0
294.643,296.143,1.5,86,65,Piano right,0,0
296.143,296.518,0.375,84,57,Piano right,0,0
296.518,296.893,0.375,86,57,Piano right,0,0
298.206,298.292,0.086,86,54,Piano right,0,0
296.893,298.292,1.399,89,64,Piano right,0,0
298.292,298.377,0.085,87,54,Piano right,0,0
298.378,298.732,0.355,86,60,Piano right,0,0
298.732,299.1,0.368,84,47,Piano right,0,0
299.101,300.684,1.584,86,55,Piano right,0,0
300.684,301.579,0.895,66,34,Piano right,0,0
301.579,304.107,2.528,69,34,Piano right,0,0
301.579,304.107,2.528,66,34,Piano right,0,0
300.684,304.107,3.423,57,28,Piano right,0,0
300.684,304.107,3.423,62,28,Piano right,0,0
304.107,305.607,1.5,86,65,Piano right,0,0
305.607,305.982,0.375,84,57,Piano right,0,0
305.982,306.357,0.375,86,57,Piano right,0,0
307.67,307.756,0.086,86,54,Piano right,0,0
306.357,307.756,1.399,89,64,Piano right,0,0
307.756,307.841,0.085,87,54,Piano right,0,0
307.842,308.192,0.351,86,60,Piano right,0,0
308.192,308.565,0.373,84,47,Piano right,0,0
308.566,310.231,1.666,86,55,Piano right,0,0
310.231,311.191,0.96,67,30,Piano right,0,0
310.231,311.191,0.96,61,25,Piano right,0,0
310.231,314.071,3.84,57,25,Piano right,0,0
311.192,314.071,2.88,66,30,Piano right,0,0
311.192,314.071,2.88,62,30,Piano right,0,0
314.189,314.246,0.058,62,31,Piano right,0,0
314.416,314.47,0.055,62,35,Piano right,0,0
314.636,314.692,0.056,62,39,Piano right,0,0
314.862,314.918,0.056,62,37,Piano right,0,0
315.09,315.146,0.057,62,34,Piano right,0,0
315.317,315.373,0.057,62,32,Piano right,0,0
315.547,315.605,0.058,62,31,Piano right,0,0
315.774,315.829,0.055,62,35,Piano right,0,0
315.997,316.053,0.056,62,39,Piano right,0,0
316.222,316.279,0.057,62,37,Piano right,0,0
316.449,316.506,0.057,62,34,Piano right,0,0
316.678,316.734,0.057,62,32,Piano right,0,0
316.907,316.965,0.058,62,31,Piano right,0,0
317.135,317.19,0.055,62,35,Piano right,0,0
317.357,317.413,0.056,62,39,Piano right,0,0
317.582,317.638,0.056,62,37,Piano right,0,0
317.808,317.865,0.057,62,40,Piano right,0,0
318.036,318.092,0.056,62,37,Piano right,0,0
318.264,318.32,0.057,62,41,Piano right,0,0
318.489,318.543,0.055,62,35,Piano right,0,0
318.71,318.765,0.055,62,39,Piano right,0,0
318.933,318.989,0.056,62,34,Piano right,0,0
319.159,319.216,0.057,62,38,Piano right,0,0
319.388,319.446,0.059,62,37,Piano right,0,0
319.623,319.682,0.059,62,30,Piano right,0,0
319.853,319.907,0.055,62,35,Piano right,0,0
320.074,320.13,0.056,62,36,Piano right,0,0
320.299,320.356,0.057,62,31,Piano right,0,0
320.528,320.583,0.056,62,36,Piano right,0,0
320.754,320.811,0.057,62,33,Piano right,0,0
320.984,321.043,0.059,62,37,Piano right,0,0
321.21,321.265,0.055,62,35,Piano right,0,0
321.432,321.488,0.056,62,39,Piano right,0,0
321.657,321.714,0.057,62,37,Piano right,0,0
321.885,321.942,0.057,62,34,Piano right,0,0
322.112,322.169,0.057,62,32,Piano right,0,0
322.342,322.401,0.059,62,31,Piano right,0,0
322.57,322.625,0.055,62,35,Piano right,0,0
322.792,322.848,0.056,62,39,Piano right,0,0
323.017,323.074,0.057,62,37,Piano right,0,0
323.244,323.3,0.056,62,40,Piano right,0,0
323.471,323.528,0.057,62,37,Piano right,0,0
323.698,323.755,0.057,62,41,Piano right,0,0
323.923,323.978,0.055,62,35,Piano right,0,0
324.145,324.201,0.056,62,43,Piano right,0,0
324.369,324.425,0.056,62,37,Piano right,0,0
324.594,324.651,0.057,62,44,Piano right,0,0
324.824,324.884,0.06,62,39,Piano right,0,0
325.061,325.12,0.059,62,31,Piano right,0,0
325.289,325.343,0.055,62,35,Piano right,0,0
325.509,325.565,0.056,62,39,Piano right,0,0
325.734,325.791,0.057,62,37,Piano right,0,0
325.961,326.018,0.057,62,34,Piano right,0,0
326.19,326.246,0.057,62,32,Piano right,0,0
326.419,326.477,0.058,62,31,Piano right,0,0
326.646,326.701,0.055,62,35,Piano right,0,0
326.868,326.923,0.055,62,39,Piano right,0,0
327.093,327.15,0.057,62,37,Piano right,0,0
327.32,327.377,0.057,62,34,Piano right,0,0
327.548,327.604,0.056,62,32,Piano right,0,0
327.779,327.836,0.058,62,31,Piano right,0,0
328.005,328.061,0.056,62,35,Piano right,0,0
328.229,328.284,0.056,62,39,Piano right,0,0
328.454,328.509,0.056,62,37,Piano right,0,0
328.679,328.736,0.057,62,44,Piano right,0,0
328.906,328.963,0.057,62,41,Piano right,0,0
329.134,329.191,0.057,62,48,Piano right,0,0
329.359,329.414,0.055,62,42,Piano right,0,0
329.581,329.636,0.055,62,47,Piano right,0,0
329.804,329.86,0.056,62,41,Piano right,0,0
330.03,330.087,0.057,62,43,Piano right,0,0
330.258,330.315,0.057,62,37,Piano right,0,0
330.492,330.551,0.059,62,31,Piano right,0,0
330.72,330.775,0.055,62,35,Piano right,0,0
330.942,330.997,0.056,62,39,Piano right,0,0
331.167,331.223,0.057,62,37,Piano right,0,0
331.394,331.451,0.057,62,34,Piano right,0,0
331.621,331.678,0.057,62,32,Piano right,0,0
331.852,331.91,0.059,62,31,Piano right,0,0
332.079,332.134,0.055,62,35,Piano right,0,0
332.302,332.357,0.056,62,39,Piano right,0,0
332.528,332.584,0.057,62,37,Piano right,0,0
332.754,332.811,0.057,62,34,Piano right,0,0
332.982,333.038,0.056,62,32,Piano right,0,0
333.212,333.27,0.058,62,31,Piano right,0,0
333.44,333.495,0.056,62,35,Piano right,0,0
333.662,333.718,0.056,62,39,Piano right,0,0
333.888,333.943,0.056,62,37,Piano right,0,0
334.199,334.256,0.057,62,44,Piano right,0,0
334.426,334.482,0.057,62,41,Piano right,0,0
334.654,334.71,0.057,62,48,Piano right,0,0
334.878,334.933,0.056,62,42,Piano right,0,0
335.101,335.155,0.055,62,47,Piano right,0,0
335.325,335.381,0.056,62,41,Piano right,0,0
335.554,335.611,0.058,62,43,Piano right,0,0
335.789,335.848,0.06,62,37,Piano right,0,0
336.024,336.083,0.059,62,34,Piano right,0,0
336.024,336.083,0.059,74,44,Piano right,0,0
336.25,336.304,0.054,62,38,Piano right,0,0
336.25,336.304,0.054,74,49,Piano right,0,0
336.47,336.524,0.055,62,42,Piano right,0,0
336.47,336.524,0.055,74,54,Piano right,0,0
336.695,336.752,0.057,62,40,Piano right,0,0
336.695,336.752,0.057,74,52,Piano right,0,0
336.84,336.893,0.054,62,37,Piano right,0,0
336.84,336.893,0.054,74,48,Piano right,0,0
337.064,337.12,0.057,62,35,Piano right,0,0
337.064,337.12,0.057,74,45,Piano right,0,0
337.294,337.352,0.058,62,34,Piano right,0,0
337.294,337.352,0.058,74,44,Piano right,0,0
337.519,337.573,0.054,62,38,Piano right,0,0
337.519,337.573,0.054,74,49,Piano right,0,0
337.74,337.795,0.056,62,42,Piano right,0,0
337.74,337.795,0.056,74,54,Piano right,0,0
337.965,338.021,0.057,62,40,Piano right,0,0
337.965,338.021,0.057,74,52,Piano right,0,0
338.192,338.249,0.057,62,37,Piano right,0,0
338.192,338.249,0.057,74,48,Piano right,0,0
338.419,338.476,0.057,62,35,Piano right,0,0
338.419,338.476,0.057,74,45,Piano right,0,0
338.649,338.708,0.059,62,34,Piano right,0,0
338.649,338.708,0.059,74,44,Piano right,0,0
338.878,338.932,0.055,62,38,Piano right,0,0
338.878,338.932,0.055,74,49,Piano right,0,0
339.099,339.155,0.056,62,42,Piano right,0,0
339.099,339.155,0.056,74,54,Piano right,0,0
339.324,339.381,0.057,62,40,Piano right,0,0
339.324,339.381,0.057,74,52,Piano right,0,0
339.552,339.607,0.056,62,44,Piano right,0,0
339.552,339.607,0.056,74,57,Piano right,0,0
339.779,339.835,0.057,62,40,Piano right,0,0
339.779,339.835,0.057,74,52,Piano right,0,0
340.005,340.062,0.057,62,45,Piano right,0,0
340.005,340.062,0.057,74,58,Piano right,0,0
340.161,340.199,0.039,62,38,Piano right,0,0
340.161,340.199,0.039,74,49,Piano right,0,0
340.367,340.423,0.056,62,42,Piano right,0,0
340.367,340.423,0.056,74,54,Piano right,0,0
340.591,340.647,0.056,62,37,Piano right,0,0
340.591,340.647,0.056,74,48,Piano right,0,0
340.816,340.873,0.057,62,41,Piano right,0,0
340.816,340.873,0.057,74,53,Piano right,0,0
341.044,341.105,0.061,62,40,Piano right,0,0
341.044,341.105,0.061,74,52,Piano right,0,0
341.282,341.341,0.059,62,34,Piano right,0,0
341.282,341.341,0.059,74,44,Piano right,0,0
341.509,341.565,0.056,62,38,Piano right,0,0
341.509,341.565,0.056,74,49,Piano right,0,0
341.731,341.787,0.056,62,42,Piano right,0,0
341.731,341.787,0.056,74,54,Piano right,0,0
341.956,342.013,0.057,62,40,Piano right,0,0
341.956,342.013,0.057,74,52,Piano right,0,0
342.184,342.241,0.057,62,37,Piano right,0,0
342.184,342.241,0.057,74,48,Piano right,0,0
342.454,342.51,0.057,62,35,Piano right,0,0
342.454,342.51,0.057,74,45,Piano right,0,0
342.684,342.743,0.059,62,34,Piano right,0,0
342.684,342.743,0.059,74,44,Piano right,0,0
342.912,342.967,0.055,62,38,Piano right,0,0
342.912,342.967,0.055,74,49,Piano right,0,0
343.134,343.19,0.056,62,42,Piano right,0,0
343.134,343.19,0.056,74,54,Piano right,0,0
343.36,343.417,0.057,62,40,Piano right,0,0
343.36,343.417,0.057,74,52,Piano right,0,0
343.587,343.644,0.057,62,37,Piano right,0,0
343.587,343.644,0.057,74,48,Piano right,0,0
343.815,343.87,0.056,62,35,Piano right,0,0
343.815,343.87,0.056,74,45,Piano right,0,0
344.045,344.103,0.058,62,34,Piano right,0,0
344.045,344.103,0.058,74,44,Piano right,0,0
344.272,344.328,0.056,62,38,Piano right,0,0
344.272,344.328,0.056,74,49,Piano right,0,0
344.495,344.551,0.056,62,42,Piano right,0,0
344.495,344.551,0.056,74,54,Piano right,0,0
344.72,344.776,0.056,62,40,Piano right,0,0
344.72,344.776,0.056,74,52,Piano right,0,0
344.946,345.003,0.057,62,44,Piano right,0,0
344.946,345.003,0.057,74,57,Piano right,0,0
345.173,345.23,0.057,62,40,Piano right,0,0
345.173,345.23,0.057,74,52,Piano right,0,0
345.401,345.457,0.057,62,45,Piano right,0,0
345.401,345.457,0.057,74,58,Piano right,0,0
345.624,345.679,0.055,62,38,Piano right,0,0
345.624,345.679,0.055,74,49,Piano right,0,0
345.845,345.901,0.056,62,48,Piano right,0,0
345.845,345.901,0.056,74,62,Piano right,0,0
346.069,346.124,0.056,62,42,Piano right,0,0
346.069,346.124,0.056,74,54,Piano right,0,0
346.295,346.352,0.057,62,51,Piano right,0,0
346.295,346.352,0.057,74,66,Piano right,0,0
346.529,346.589,0.06,62,45,Piano right,0,0
346.529,346.589,0.06,74,58,Piano right,0,0
346.767,346.834,0.068,74,70,Piano right,0,0
346.767,346.834,0.068,86,83,Piano right,0,0
346.767,346.834,0.068,81,83,Piano right,0,0
346.767,346.834,0.068,78,70,Piano right,0,0
347.012,347.067,0.055,62,42,Piano right,0,0
347.012,347.067,0.055,74,54,Piano right,0,0
347.233,347.289,0.056,62,46,Piano right,0,0
347.233,347.289,0.056,74,59,Piano right,0,0
347.459,347.515,0.056,62,44,Piano right,0,0
347.459,347.515,0.056,74,57,Piano right,0,0
347.686,347.743,0.057,62,40,Piano right,0,0
347.686,347.743,0.057,74,52,Piano right,0,0
347.934,348.012,0.079,62,38,Piano right,0,0
347.934,348.012,0.079,74,49,Piano right,0,0
348.185,348.252,0.067,74,72,Piano right,0,0
348.185,348.252,0.067,86,85,Piano right,0,0
348.185,348.252,0.067,81,85,Piano right,0,0
348.185,348.252,0.067,78,72,Piano right,0,0
348.429,348.484,0.055,62,42,Piano right,0,0
348.429,348.484,0.055,74,54,Piano right,0,0
348.652,348.707,0.056,62,46,Piano right,0,0
348.652,348.707,0.056,74,59,Piano right,0,0
348.878,348.934,0.057,62,44,Piano right,0,0
348.878,348.934,0.057,74,57,Piano right,0,0
349.104,349.161,0.057,62,40,Piano right,0,0
349.104,349.161,0.057,74,52,Piano right,0,0
349.331,349.388,0.057,62,38,Piano right,0,0
349.331,349.388,0.057,74,49,Piano right,0,0
349.562,349.628,0.066,74,70,Piano right,0,0
349.562,349.628,0.066,86,83,Piano right,0,0
349.562,349.628,0.066,81,83,Piano right,0,0
349.562,349.628,0.066,78,70,Piano right,0,0
349.804,349.859,0.055,62,42,Piano right,0,0
349.804,349.859,0.055,74,54,Piano right,0,0
350.027,350.081,0.055,62,46,Piano right,0,0
350.027,350.081,0.055,74,59,Piano right,0,0
350.251,350.307,0.057,62,44,Piano right,0,0
350.251,350.307,0.057,74,57,Piano right,0,0
350.478,350.533,0.056,62,52,Piano right,0,0
350.478,350.533,0.056,74,67,Piano right,0,0
350.704,350.761,0.057,62,49,Piano right,0,0
350.704,350.761,0.057,74,63,Piano right,0,0
350.931,350.988,0.057,62,54,Piano right,0,0
350.931,350.988,0.057,74,70,Piano right,0,0
351.156,351.211,0.055,62,50,Piano right,0,0
351.156,351.211,0.055,74,65,Piano right,0,0
351.379,351.434,0.056,62,53,Piano right,0,0
351.379,351.434,0.056,74,68,Piano right,0,0
351.603,351.658,0.056,62,49,Piano right,0,0
351.603,351.658,0.056,74,63,Piano right,0,0
351.828,351.884,0.057,62,51,Piano right,0,0
351.828,351.884,0.057,74,66,Piano right,0,0
352.055,352.113,0.058,62,44,Piano right,0,0
352.055,352.113,0.058,74,57,Piano right,0,0
352.288,352.355,0.068,74,70,Piano right,0,0
352.288,352.355,0.068,86,83,Piano right,0,0
352.288,352.355,0.068,81,83,Piano right,0,0
352.288,352.355,0.068,78,70,Piano right,0,0
352.533,352.588,0.055,62,42,Piano right,0,0
352.533,352.588,0.055,74,54,Piano right,0,0
352.754,352.81,0.056,62,46,Piano right,0,0
352.754,352.81,0.056,74,59,Piano right,0,0
352.979,353.036,0.057,62,44,Piano right,0,0
352.979,353.036,0.057,74,57,Piano right,0,0
353.206,353.263,0.057,62,40,Piano right,0,0
353.206,353.263,0.057,74,52,Piano right,0,0
353.434,353.491,0.057,62,38,Piano right,0,0
353.434,353.491,0.057,74,49,Piano right,0,0
353.665,353.732,0.068,74,72,Piano right,0,0
353.665,353.732,0.068,86,85,Piano right,0,0
353.665,353.732,0.068,81,85,Piano right,0,0
353.665,353.732,0.068,78,72,Piano right,0,0
353.909,353.964,0.055,62,42,Piano right,0,0
353.909,353.964,0.055,74,54,Piano right,0,0
354.131,354.187,0.056,62,46,Piano right,0,0
354.131,354.187,0.056,74,59,Piano right,0,0
354.356,354.413,0.057,62,44,Piano right,0,0
354.356,354.413,0.057,74,57,Piano right,0,0
354.584,354.64,0.056,62,40,Piano right,0,0
354.584,354.64,0.056,74,52,Piano right,0,0
354.811,354.868,0.057,62,38,Piano right,0,0
354.811,354.868,0.057,74,49,Piano right,0,0
355.041,355.109,0.068,74,70,Piano right,0,0
355.041,355.109,0.068,86,83,Piano right,0,0
355.041,355.109,0.068,81,83,Piano right,0,0
355.041,355.109,0.068,78,70,Piano right,0,0
355.289,355.344,0.056,62,42,Piano right,0,0
355.289,355.344,0.056,74,54,Piano right,0,0
355.511,355.567,0.056,62,46,Piano right,0,0
355.511,355.567,0.056,74,59,Piano right,0,0
355.736,355.792,0.056,62,44,Piano right,0,0
355.736,355.792,0.056,74,57,Piano right,0,0
355.962,356.019,0.057,62,52,Piano right,0,0
355.962,356.019,0.057,74,67,Piano right,0,0
356.19,356.246,0.057,62,49,Piano right,0,0
356.19,356.246,0.057,74,63,Piano right,0,0
356.417,356.473,0.056,62,55,Piano right,0,0
356.417,356.473,0.056,74,71,Piano right,0,0
356.642,356.696,0.055,62,50,Piano right,0,0
356.642,356.696,0.055,74,65,Piano right,0,0
356.864,356.919,0.056,62,56,Piano right,0,0
356.864,356.919,0.056,74,72,Piano right,0,0
357.09,357.146,0.057,62,52,Piano right,0,0
357.09,357.146,0.057,74,67,Piano right,0,0
357.32,357.378,0.058,62,60,Piano right,0,0
357.32,357.378,0.058,74,77,Piano right,0,0
357.556,357.615,0.059,62,59,Piano right,0,0
357.556,357.615,0.059,74,76,Piano right,0,0
357.795,357.874,0.079,79,76,Piano right,0,0
357.795,357.874,0.079,91,91,Piano right,0,0
357.795,357.874,0.079,86,76,Piano right,0,0
357.795,357.874,0.079,82,76,Piano right,0,0
358.062,358.116,0.054,62,52,Piano right,0,0
358.062,358.116,0.054,74,68,Piano right,0,0
358.282,358.338,0.056,62,57,Piano right,0,0
358.282,358.338,0.056,74,74,Piano right,0,0
358.507,358.564,0.057,62,54,Piano right,0,0
358.507,358.564,0.057,74,70,Piano right,0,0
358.734,358.791,0.057,62,50,Piano right,0,0
358.734,358.791,0.057,74,65,Piano right,0,0
358.962,359.018,0.056,62,47,Piano right,0,0
358.962,359.018,0.056,74,60,Piano right,0,0
359.192,359.271,0.079,79,79,Piano right,0,0
359.192,359.271,0.079,91,93,Piano right,0,0
359.192,359.271,0.079,86,79,Piano right,0,0
359.192,359.271,0.079,82,79,Piano right,0,0
359.459,359.513,0.054,62,52,Piano right,0,0
359.459,359.513,0.054,74,68,Piano right,0,0
359.679,359.735,0.056,62,57,Piano right,0,0
359.679,359.735,0.056,74,74,Piano right,0,0
359.905,359.962,0.057,62,54,Piano right,0,0
359.905,359.962,0.057,74,70,Piano right,0,0
360.132,360.189,0.057,62,50,Piano right,0,0
360.132,360.189,0.057,74,65,Piano right,0,0
360.359,360.416,0.057,62,47,Piano right,0,0
360.359,360.416,0.057,74,60,Piano right,0,0
360.591,360.668,0.078,79,76,Piano right,0,0
360.591,360.668,0.078,91,91,Piano right,0,0
360.591,360.668,0.078,86,76,Piano right,0,0
360.591,360.668,0.078,82,76,Piano right,0,0
360.857,360.913,0.056,62,50,Piano right,0,0
360.857,360.913,0.056,74,65,Piano right,0,0
361.08,361.136,0.056,62,53,Piano right,0,0
361.08,361.136,0.056,74,68,Piano right,0,0
361.305,361.361,0.056,62,52,Piano right,0,0
361.305,361.361,0.056,74,67,Piano right,0,0
361.531,361.588,0.057,62,55,Piano right,0,0
361.531,361.588,0.057,74,72,Piano right,0,0
361.759,361.815,0.056,62,58,Piano right,0,0
361.759,361.815,0.056,74,75,Piano right,0,0
361.986,362.043,0.057,62,61,Piano right,0,0
361.986,362.043,0.057,74,79,Piano right,0,0
362.211,362.266,0.055,62,54,Piano right,0,0
362.211,362.266,0.055,74,70,Piano right,0,0
362.433,362.488,0.055,62,60,Piano right,0,0
362.433,362.488,0.055,74,78,Piano right,0,0
362.656,362.712,0.056,62,52,Piano right,0,0
362.656,362.712,0.056,74,67,Piano right,0,0
362.882,362.939,0.057,62,54,Piano right,0,0
362.882,362.939,0.057,74,71,Piano right,0,0
363.11,363.171,0.061,62,52,Piano right,0,0
363.11,363.171,0.061,74,67,Piano right,0,0
363.348,363.436,0.088,79,79,Piano right,0,0
363.348,363.436,0.088,91,93,Piano right,0,0
363.348,363.436,0.088,87,93,Piano right,0,0
363.348,363.436,0.088,82,79,Piano right,0,0
363.633,363.687,0.054,63,52,Piano right,0,0
363.633,363.687,0.054,75,68,Piano right,0,0
363.854,363.909,0.056,63,57,Piano right,0,0
363.854,363.909,0.056,75,74,Piano right,0,0
364.079,364.136,0.057,63,54,Piano right,0,0
364.079,364.136,0.057,75,70,Piano right,0,0
364.306,364.363,0.057,63,50,Piano right,0,0
364.306,364.363,0.057,75,65,Piano right,0,0
364.535,364.593,0.058,63,47,Piano right,0,0
364.535,364.593,0.058,75,60,Piano right,0,0
364.768,364.898,0.13,79,79,Piano right,0,0
364.768,364.898,0.13,91,93,Piano right,0,0
364.768,364.898,0.13,87,93,Piano right,0,0
364.768,364.898,0.13,82,79,Piano right,0,0
365.095,365.149,0.054,63,52,Piano right,0,0
365.095,365.149,0.054,75,68,Piano right,0,0
365.315,365.371,0.056,63,57,Piano right,0,0
365.315,365.371,0.056,75,74,Piano right,0,0
365.541,365.597,0.056,63,54,Piano right,0,0
365.541,365.597,0.056,75,70,Piano right,0,0
365.768,365.825,0.057,63,50,Piano right,0,0
365.768,365.825,0.057,75,65,Piano right,0,0
365.999,366.057,0.058,63,47,Piano right,0,0
365.999,366.057,0.058,75,60,Piano right,0,0
366.233,366.319,0.086,79,79,Piano right,0,0
366.233,366.319,0.086,91,93,Piano right,0,0
366.233,366.319,0.086,87,93,Piano right,0,0
366.233,366.319,0.086,82,79,Piano right,0,0
366.517,366.572,0.055,63,50,Piano right,0,0
366.517,366.572,0.055,75,65,Piano right,0,0
366.739,366.795,0.056,63,55,Piano right,0,0
366.739,366.795,0.056,75,71,Piano right,0,0
366.965,367.022,0.057,63,52,Piano right,0,0
366.965,367.022,0.057,75,67,Piano right,0,0
367.192,367.249,0.057,63,48,Piano right,0,0
367.192,367.249,0.057,75,62,Piano right,0,0
367.419,367.476,0.057,63,45,Piano right,0,0
367.419,367.476,0.057,75,58,Piano right,0,0
367.647,367.704,0.057,63,54,Piano right,0,0
367.647,367.704,0.057,75,70,Piano right,0,0
367.871,367.927,0.056,63,54,Piano right,0,0
367.871,367.927,0.056,75,69,Piano right,0,0
368.094,368.149,0.055,63,55,Piano right,0,0
368.094,368.149,0.055,75,71,Piano right,0,0
368.317,368.373,0.056,63,52,Piano right,0,0
368.317,368.373,0.056,75,67,Piano right,0,0
368.543,368.6,0.057,63,56,Piano right,0,0
368.543,368.6,0.057,75,72,Piano right,0,0
368.771,368.828,0.057,63,52,Piano right,0,0
368.771,368.828,0.057,75,67,Piano right,0,0
369.003,369.093,0.09,86,86,Piano right,0,0
369.003,369.093,0.09,98,102,Piano right,0,0
369.003,369.093,0.09,93,86,Piano right,0,0
369.003,369.093,0.09,90,86,Piano right,0,0
369.29,369.344,0.054,62,55,Piano right,0,0
369.29,369.344,0.054,74,71,Piano right,0,0
369.51,369.565,0.055,62,58,Piano right,0,0
369.51,369.565,0.055,74,75,Piano right,0,0
369.735,369.792,0.057,62,57,Piano right,0,0
369.735,369.792,0.057,74,73,Piano right,0,0
369.962,370.019,0.057,62,52,Piano right,0,0
369.962,370.019,0.057,74,68,Piano right,0,0
370.177,370.207,0.031,62,49,Piano right,0,0
370.177,370.207,0.031,74,63,Piano right,0,0
370.384,370.474,0.09,87,86,Piano right,0,0
370.384,370.474,0.09,99,102,Piano right,0,0
370.384,370.474,0.09,94,86,Piano right,0,0
370.384,370.474,0.09,91,86,Piano right,0,0
370.672,370.726,0.054,63,55,Piano right,0,0
370.672,370.726,0.054,75,71,Piano right,0,0
370.892,370.947,0.055,63,60,Piano right,0,0
370.892,370.947,0.055,75,78,Piano right,0,0
371.117,371.174,0.057,63,57,Piano right,0,0
371.117,371.174,0.057,75,73,Piano right,0,0
371.344,371.401,0.057,63,52,Piano right,0,0
371.344,371.401,0.057,75,68,Piano right,0,0
371.572,371.63,0.058,63,49,Piano right,0,0
371.572,371.63,0.058,75,63,Piano right,0,0
371.806,371.895,0.089,86,87,Piano right,0,0
371.806,371.895,0.089,98,103,Piano right,0,0
371.806,371.895,0.089,93,87,Piano right,0,0
371.806,371.895,0.089,90,87,Piano right,0,0
372.092,372.145,0.054,62,55,Piano right,0,0
372.092,372.145,0.054,74,71,Piano right,0,0
372.311,372.367,0.056,62,58,Piano right,0,0
372.311,372.367,0.056,74,75,Piano right,0,0
372.536,372.593,0.057,62,57,Piano right,0,0
372.536,372.593,0.057,74,73,Piano right,0,0
372.764,372.82,0.057,62,52,Piano right,0,0
372.764,372.82,0.057,74,68,Piano right,0,0
372.992,373.051,0.059,62,49,Piano right,0,0
372.992,373.051,0.059,74,63,Piano right,0,0
373.227,373.314,0.087,87,86,Piano right,0,0
373.227,373.314,0.087,99,102,Piano right,0,0
373.227,373.314,0.087,94,86,Piano right,0,0
373.227,373.314,0.087,91,86,Piano right,0,0
373.51,373.565,0.055,63,55,Piano right,0,0
373.51,373.565,0.055,75,71,Piano right,0,0
373.731,373.787,0.056,63,58,Piano right,0,0
373.731,373.787,0.056,75,75,Piano right,0,0
373.957,374.014,0.057,63,57,Piano right,0,0
373.957,374.014,0.057,75,73,Piano right,0,0
374.184,374.241,0.057,63,52,Piano right,0,0
374.184,374.241,0.057,75,68,Piano right,0,0
374.411,374.468,0.057,63,49,Piano right,0,0
374.411,374.468,0.057,75,63,Piano right,0,0
374.642,374.733,0.091,86,86,Piano right,0,0
374.642,374.733,0.091,98,102,Piano right,0,0
374.642,374.733,0.091,93,86,Piano right,0,0
374.642,374.733,0.091,90,86,Piano right,0,0
374.934,374.989,0.055,62,55,Piano right,0,0
374.934,374.989,0.055,74,71,Piano right,0,0
375.156,375.211,0.055,62,58,Piano right,0,0
375.156,375.211,0.055,74,75,Piano right,0,0
375.381,375.438,0.057,62,57,Piano right,0,0
375.381,375.438,0.057,74,73,Piano right,0,0
375.608,375.665,0.057,62,52,Piano right,0,0
375.608,375.665,0.057,74,68,Piano right,0,0
375.835,375.892,0.057,62,49,Piano right,0,0
375.835,375.892,0.057,74,63,Piano right,0,0
376.064,376.121,0.058,62,53,Piano right,0,0
376.064,376.121,0.058,74,68,Piano right,0,0
376.289,376.343,0.055,62,50,Piano right,0,0
376.289,376.343,0.055,74,65,Piano right,0,0
376.51,376.566,0.056,62,51,Piano right,0,0
376.51,376.566,0.056,74,66,Piano right,0,0
376.735,376.792,0.057,62,49,Piano right,0,0
376.735,376.792,0.057,74,63,Piano right,0,0
376.96,377.015,0.055,62,50,Piano right,0,0
376.96,377.015,0.055,74,65,Piano right,0,0
377.182,377.238,0.056,62,45,Piano right,0,0
377.182,377.238,0.056,74,58,Piano right,0,0
377.404,377.459,0.055,62,53,Piano right,0,0
377.404,377.459,0.055,74,68,Piano right,0,0
377.627,377.682,0.056,62,49,Piano right,0,0
377.627,377.682,0.056,74,63,Piano right,0,0
377.848,377.903,0.055,62,49,Piano right,0,0
377.848,377.903,0.055,74,63,Piano right,0,0
378.07,378.126,0.056,62,48,Piano right,0,0
378.07,378.126,0.056,74,62,Piano right,0,0
378.293,378.348,0.055,62,48,Piano right,0,0
378.293,378.348,0.055,74,62,Piano right,0,0
378.515,378.569,0.055,62,43,Piano right,0,0
378.515,378.569,0.055,74,55,Piano right,0,0
378.734,378.788,0.054,74,63,Piano right,0,0
378.734,378.788,0.054,62,49,Piano right,0,0
378.956,379.012,0.056,62,46,Piano right,0,0
378.956,379.012,0.056,74,59,Piano right,0,0
379.181,379.237,0.056,62,46,Piano right,0,0
379.181,379.237,0.056,74,59,Piano right,0,0
379.408,379.465,0.057,62,43,Piano right,0,0
379.408,379.465,0.057,74,55,Piano right,0,0
379.639,379.696,0.058,62,44,Piano right,0,0
379.639,379.696,0.058,74,57,Piano right,0,0
379.87,379.929,0.059,62,38,Piano right,0,0
379.87,379.929,0.059,74,49,Piano right,0,0
380.104,380.162,0.058,62,58,Piano right,0,0
380.104,380.162,0.058,74,75,Piano right,0,0
380.331,380.386,0.055,62,42,Piano right,0,0
380.554,380.608,0.055,62,46,Piano right,0,0
380.779,380.835,0.057,62,44,Piano right,0,0
381.005,381.062,0.057,62,40,Piano right,0,0
381.232,381.289,0.057,62,38,Piano right,0,0
381.461,381.518,0.057,62,45,Piano right,0,0
381.685,381.741,0.056,62,42,Piano right,0,0
381.907,381.963,0.056,62,43,Piano right,0,0
382.132,382.189,0.057,62,41,Piano right,0,0
382.357,382.412,0.055,62,42,Piano right,0,0
382.579,382.635,0.056,62,38,Piano right,0,0
382.802,382.856,0.055,62,45,Piano right,0,0
383.023,383.079,0.056,62,41,Piano right,0,0
383.245,383.3,0.055,62,41,Piano right,0,0
383.467,383.523,0.056,62,40,Piano right,0,0
383.691,383.745,0.055,62,40,Piano right,0,0
383.911,383.966,0.055,62,36,Piano right,0,0
384.131,384.186,0.055,62,41,Piano right,0,0
384.354,384.409,0.056,62,39,Piano right,0,0
384.579,384.635,0.057,62,39,Piano right,0,0
384.809,384.867,0.058,62,36,Piano right,0,0
385.044,385.104,0.06,62,37,Piano right,0,0
385.283,385.341,0.058,62,32,Piano right,0,0
385.517,385.576,0.059,57,36,Piano right,0,0
385.517,385.576,0.059,54,36,Piano right,0,0
385.744,385.8,0.056,57,31,Piano right,0,0
385.744,385.8,0.056,54,31,Piano right,0,0
385.967,386.022,0.055,57,34,Piano right,0,0
385.967,386.022,0.055,54,34,Piano right,0,0
386.192,386.249,0.057,57,33,Piano right,0,0
386.192,386.249,0.057,54,33,Piano right,0,0
386.417,386.471,0.055,57,35,Piano right,0,0
386.417,386.471,0.055,54,35,Piano right,0,0
386.638,386.692,0.055,57,34,Piano right,0,0
386.638,386.692,0.055,54,34,Piano right,0,0
386.862,386.918,0.056,58,36,Piano right,0,0
386.862,386.918,0.056,55,36,Piano right,0,0
387.096,387.156,0.06,58,31,Piano right,0,0
387.096,387.156,0.06,55,31,Piano right,0,0
387.329,387.384,0.056,58,34,Piano right,0,0
387.329,387.384,0.056,55,34,Piano right,0,0
387.554,387.61,0.057,58,29,Piano right,0,0
387.554,387.61,0.057,55,29,Piano right,0,0
387.78,387.837,0.057,58,34,Piano right,0,0
387.78,387.837,0.057,55,34,Piano right,0,0
388.007,388.064,0.057,58,31,Piano right,0,0
388.007,388.064,0.057,55,31,Piano right,0,0
388.239,388.296,0.058,57,36,Piano right,0,0
388.239,388.296,0.058,54,36,Piano right,0,0
388.466,388.52,0.055,57,31,Piano right,0,0
388.466,388.52,0.055,54,31,Piano right,0,0
388.688,388.742,0.055,57,34,Piano right,0,0
388.688,388.742,0.055,54,34,Piano right,0,0
388.912,388.969,0.057,57,33,Piano right,0,0
388.912,388.969,0.057,54,33,Piano right,0,0
389.136,389.191,0.055,57,35,Piano right,0,0
389.136,389.191,0.055,54,35,Piano right,0,0
389.358,389.414,0.056,57,34,Piano right,0,0
389.358,389.414,0.056,54,34,Piano right,0,0
389.583,389.64,0.057,58,36,Piano right,0,0
389.583,389.64,0.057,55,36,Piano right,0,0
389.807,389.862,0.055,58,31,Piano right,0,0
389.807,389.862,0.055,55,31,Piano right,0,0
390.029,390.084,0.056,58,34,Piano right,0,0
390.029,390.084,0.056,55,34,Piano right,0,0
390.254,390.31,0.056,58,29,Piano right,0,0
390.254,390.31,0.056,55,29,Piano right,0,0
390.479,390.535,0.056,58,34,Piano right,0,0
390.479,390.535,0.056,55,34,Piano right,0,0
390.704,390.759,0.056,58,31,Piano right,0,0
390.704,390.759,0.056,55,31,Piano right,0,0
390.933,390.991,0.058,57,36,Piano right,0,0
390.933,390.991,0.058,54,36,Piano right,0,0
391.16,391.215,0.055,57,31,Piano right,0,0
391.16,391.215,0.055,54,31,Piano right,0,0
391.381,391.437,0.056,57,34,Piano right,0,0
391.381,391.437,0.056,54,34,Piano right,0,0
391.607,391.663,0.056,57,33,Piano right,0,0
391.607,391.663,0.056,54,33,Piano right,0,0
391.831,391.887,0.056,57,35,Piano right,0,0
391.831,391.887,0.056,54,35,Piano right,0,0
392.055,392.111,0.056,57,34,Piano right,0,0
392.055,392.111,0.056,54,34,Piano right,0,0
392.282,392.339,0.057,57,36,Piano right,0,0
392.282,392.339,0.057,54,36,Piano right,0,0
392.506,392.562,0.056,57,31,Piano right,0,0
392.506,392.562,0.056,54,31,Piano right,0,0
392.729,392.784,0.056,57,34,Piano right,0,0
392.729,392.784,0.056,54,34,Piano right,0,0
392.954,393.01,0.057,57,29,Piano right,0,0
392.954,393.01,0.057,54,29,Piano right,0,0
393.181,393.238,0.057,57,34,Piano right,0,0
393.181,393.238,0.057,54,34,Piano right,0,0
393.408,393.465,0.057,57,31,Piano right,0,0
393.408,393.465,0.057,54,31,Piano right,0,0
393.635,393.692,0.057,54,43,Piano right,0,0
393.864,393.919,0.056,57,43,Piano right,0,0
394.091,394.147,0.057,62,42,Piano right,0,0
394.317,394.374,0.057,66,42,Piano right,0,0
394.544,394.601,0.057,69,41,Piano right,0,0
394.772,394.828,0.056,74,41,Piano right,0,0
394.999,395.056,0.057,78,40,Piano right,0,0
395.229,395.285,0.057,81,40,Piano right,0,0
395.458,395.516,0.058,86,39,Piano right,0,0
395.692,395.751,0.059,90,39,Piano right,0,0
395.928,395.986,0.059,93,39,Piano right,0,0
396.167,396.232,0.066,98,39,Piano right,0,0
396.297,398.393,2.096,98,43,Piano right,0,0
396.297,398.393,2.096,90,43,Piano right,0,0
396.297,398.393,2.096,86,43,Piano right,0,0
398.917,399.461,0.544,62,45,Piano right,0,0
399.461,400.525,1.064,58,44,Piano right,0,0
399.461,400.525,1.064,55,44,Piano right,0,0
400.526,401.059,0.534,60,39,Piano right,0,0
399.461,401.059,1.598,67,49,Piano right,0,0
401.059,402.662,1.603,58,38,Piano right,0,0
401.059,402.662,1.603,62,44,Piano right,0,0
402.662,403.726,1.064,55,44,Piano right,0,0
403.727,404.126,0.399,57,43,Piano right,0,0
402.662,404.126,1.463,63,52,Piano right,0,0
404.126,405.821,1.696,55,41,Piano right,0,0
404.126,405.821,1.696,58,44,Piano right,0,0
405.822,406.814,0.992,63,44,Piano right,0,0
406.814,407.36,0.546,64,46,Piano right,0,0
405.822,407.36,1.538,68,49,Piano right,0,0
407.36,408.362,1.002,68,49,Piano right,0,0
408.362,408.914,0.552,67,43,Piano right,0,0
407.36,408.914,1.554,63,44,Piano right,0,0
408.915,410.516,1.602,67,49,Piano right,0,0
408.915,410.611,1.696,63,49,Piano right,0,0
410.611,411.042,0.431,62,35,Piano right,0,0
411.042,411.664,0.622,60,30,Piano right,0,0
410.517,411.664,1.147,66,39,Piano right,0,0
411.782,411.842,0.06,62,31,Piano right,0,0
412.014,412.07,0.056,62,35,Piano right,0,0
412.242,412.3,0.058,62,39,Piano right,0,0
412.476,412.534,0.058,62,37,Piano right,0,0
412.711,412.77,0.059,62,34,Piano right,0,0
412.946,413.005,0.059,62,32,Piano right,0,0
413.183,413.243,0.06,62,31,Piano right,0,0
413.416,413.472,0.056,62,35,Piano right,0,0
413.643,413.701,0.058,62,39,Piano right,0,0
413.876,413.934,0.058,62,37,Piano right,0,0
414.11,414.169,0.059,62,34,Piano right,0,0
414.344,414.403,0.059,62,32,Piano right,0,0
414.585,414.647,0.062,62,29,Piano right,0,0
414.585,414.647,0.062,67,29,Piano right,0,0
414.83,414.891,0.061,62,29,Piano right,0,0
414.83,414.891,0.061,67,29,Piano right,0,0
415.07,415.13,0.06,62,31,Piano right,0,0
415.07,415.13,0.06,67,31,Piano right,0,0
415.307,415.366,0.059,62,33,Piano right,0,0
415.307,415.366,0.059,67,33,Piano right,0,0
415.541,415.6,0.059,62,37,Piano right,0,0
415.541,415.6,0.059,67,37,Piano right,0,0
415.774,415.831,0.057,62,41,Piano right,0,0
415.774,415.831,0.057,67,41,Piano right,0,0
416.008,416.067,0.059,62,44,Piano right,0,0
416.008,416.067,0.059,67,44,Piano right,0,0
416.242,416.3,0.058,62,48,Piano right,0,0
416.242,416.3,0.058,67,48,Piano right,0,0
416.475,416.534,0.059,62,54,Piano right,0,0
416.475,416.534,0.059,67,54,Piano right,0,0
416.711,416.771,0.06,62,57,Piano right,0,0
416.711,416.771,0.06,67,57,Piano right,0,0
416.952,417.013,0.061,62,63,Piano right,0,0
416.952,417.013,0.061,67,63,Piano right,0,0
417.197,417.258,0.061,62,66,Piano right,0,0
417.197,417.258,0.061,67,66,Piano right,0,0
417.321,418.814,1.493,79,86,Piano right,0,0
417.321,418.814,1.493,86,86,Piano right,0,0
417.321,418.814,1.493,91,103,Piano right,0,0
418.814,421.13,2.316,55,94,Piano right,0,0
1.0,1.117,0.117,55,59,Piano left,0,0
1.233,1.2890000000000001,0.056,62,47,Piano left,0,0
1.454,1.509,0.056,63,53,Piano left,0,0
1.677,1.733,0.057,60,45,Piano left,0,0
1.904,1.96,0.057,62,49,Piano left,0,0
2.1319999999999997,2.1879999999999997,0.056,58,45,Piano left,0,0
2.359,2.476,0.117,55,62,Piano left,0,0
2.592,2.647,0.056,62,47,Piano left,0,0
2.814,2.869,0.056,63,53,Piano left,0,0
3.038,3.093,0.056,60,45,Piano left,0,0
3.265,3.321,0.057,62,49,Piano left,0,0
3.492,3.548,0.057,58,45,Piano left,0,0
3.719,3.835,0.117,55,62,Piano left,0,0
3.953,4.007,0.055,62,46,Piano left,0,0
4.1739999999999995,4.23,0.056,63,50,Piano left,0,0
4.398,4.455,0.057,60,45,Piano left,0,0
4.624,4.681,0.057,62,52,Piano left,0,0
4.851,4.907,0.057,58,48,Piano left,0,0
5.078,5.134,0.057,60,57,Piano left,0,0
5.306,5.36,0.055,57,49,Piano left,0,0
5.528,5.582,0.055,58,53,Piano left,0,0
5.75,5.806,0.056,60,49,Piano left,0,0
5.975,6.031,0.056,57,51,Piano left,0,0
6.202,6.258,0.057,58,48,Piano left,0,0
6.433,6.552,0.119,55,59,Piano left,0,0
6.671,6.726,0.055,62,47,Piano left,0,0
6.892,6.946,0.055,63,50,Piano left,0,0
7.115,7.171,0.057,60,45,Piano left,0,0
7.342,7.398,0.057,62,51,Piano left,0,0
7.569,7.626,0.057,58,45,Piano left,0,0
7.797,7.912,0.116,55,62,Piano left,0,0
8.030000000000001,8.084,0.055,62,50,Piano left,0,0
8.248999999999999,8.305,0.056,63,54,Piano left,0,0
8.472999999999999,8.53,0.057,60,45,Piano left,0,0
8.699,8.756,0.057,62,49,Piano left,0,0
8.927,8.983,0.057,58,45,Piano left,0,0
9.155,9.27,0.116,55,62,Piano left,0,0
9.388,9.443,0.056,62,47,Piano left,0,0
9.61,9.666,0.056,63,50,Piano left,0,0
9.833,9.89,0.057,60,45,Piano left,0,0
10.059,10.116,0.057,62,52,Piano left,0,0
10.286,10.343,0.057,58,48,Piano left,0,0
10.514,10.569,0.056,60,57,Piano left,0,0
10.741,10.795,0.055,57,49,Piano left,0,0
10.962,11.018,0.056,58,56,Piano left,0,0
11.185,11.241,0.056,55,51,Piano left,0,0
11.41,11.467,0.057,53,56,Piano left,0,0
11.637,11.695,0.058,51,53,Piano left,0,0
11.872,11.99,0.118,50,59,Piano left,0,0
12.108,12.162,0.055,62,47,Piano left,0,0
12.327,12.381,0.055,63,53,Piano left,0,0
12.55,12.606,0.056,60,45,Piano left,0,0
12.777,12.833,0.057,62,49,Piano left,0,0
13.004,13.06,0.057,57,45,Piano left,0,0
13.231,13.347,0.117,50,62,Piano left,0,0
13.465,13.519,0.055,62,47,Piano left,0,0
13.685,13.741,0.056,63,53,Piano left,0,0
13.909,13.965,0.056,60,45,Piano left,0,0
14.136,14.193,0.057,62,49,Piano left,0,0
14.362,14.419,0.057,57,45,Piano left,0,0
14.59,14.706,0.117,50,62,Piano left,0,0
14.824,14.879,0.055,57,47,Piano left,0,0
15.045,15.101,0.056,60,52,Piano left,0,0
15.269,15.326,0.057,62,51,Piano left,0,0
15.495,15.552,0.057,63,56,Piano left,0,0
15.722,15.779,0.057,65,53,Piano left,0,0
15.949,16.006,0.057,62,56,Piano left,0,0
16.177,16.231,0.055,63,52,Piano left,0,0
16.399,16.454,0.055,60,54,Piano left,0,0
16.621,16.677,0.056,62,49,Piano left,0,0
16.846,16.902,0.056,58,51,Piano left,0,0
17.073,17.13,0.057,57,48,Piano left,0,0
17.302,17.419,0.118,50,59,Piano left,0,0
17.538,17.592,0.055,62,47,Piano left,0,0
17.759,17.815,0.056,63,53,Piano left,0,0
17.982,18.039,0.057,60,45,Piano left,0,0
18.209,18.266,0.057,62,49,Piano left,0,0
18.437,18.493,0.056,57,45,Piano left,0,0
18.664,18.78,0.117,50,62,Piano left,0,0
18.897,18.953,0.056,62,47,Piano left,0,0
19.119,19.174,0.056,63,53,Piano left,0,0
19.343,19.398,0.056,60,45,Piano left,0,0
19.57,19.627,0.057,62,49,Piano left,0,0
19.797,19.854,0.057,57,45,Piano left,0,0
20.024,20.141,0.117,50,62,Piano left,0,0
20.258,20.312,0.055,60,47,Piano left,0,0
20.479,20.534,0.056,62,52,Piano left,0,0
20.703,20.758,0.056,63,51,Piano left,0,0
20.929,20.984,0.056,65,56,Piano left,0,0
21.156,21.212,0.057,62,53,Piano left,0,0
21.383,21.44,0.057,63,59,Piano left,0,0
21.61,21.666,0.056,60,52,Piano left,0,0
21.833,21.888,0.055,62,54,Piano left,0,0
22.055,22.11,0.056,58,49,Piano left,0,0
22.282,22.339,0.057,60,51,Piano left,0,0
22.514,22.572,0.059,57,48,Piano left,0,0
22.75,22.867,0.117,55,64,Piano left,0,0
22.985,23.039,0.054,62,51,Piano left,0,0
23.201,23.256,0.056,63,58,Piano left,0,0
23.424,23.481,0.057,60,49,Piano left,0,0
23.651,23.707,0.057,62,53,Piano left,0,0
23.879,23.935,0.057,58,49,Piano left,0,0
24.106,24.222,0.117,55,68,Piano left,0,0
24.339,24.393,0.055,62,51,Piano left,0,0
24.556,24.611,0.056,63,58,Piano left,0,0
24.78,24.836,0.057,60,49,Piano left,0,0
25.007,25.064,0.057,62,53,Piano left,0,0
25.234,25.291,0.057,58,49,Piano left,0,0
25.462,25.578,0.116,55,68,Piano left,0,0
25.695,25.751,0.056,62,51,Piano left,0,0
25.917,25.972,0.056,63,55,Piano left,0,0
26.14,26.196,0.057,60,49,Piano left,0,0
26.366,26.422,0.057,62,57,Piano left,0,0
26.593,26.649,0.057,58,52,Piano left,0,0
26.821,26.877,0.056,60,62,Piano left,0,0
27.048,27.103,0.055,57,53,Piano left,0,0
27.27,27.326,0.056,58,58,Piano left,0,0
27.492,27.548,0.057,60,53,Piano left,0,0
27.717,27.773,0.057,57,56,Piano left,0,0
27.944,28.001,0.057,58,52,Piano left,0,0
28.18,28.296,0.117,55,64,Piano left,0,0
28.412,28.467,0.055,62,51,Piano left,0,0
28.634,28.69,0.056,63,58,Piano left,0,0
28.857,28.914,0.057,60,49,Piano left,0,0
29.084,29.141,0.057,62,53,Piano left,0,0
29.311,29.368,0.057,58,49,Piano left,0,0
29.539,29.654,0.116,55,68,Piano left,0,0
29.772,29.828,0.056,62,51,Piano left,0,0
29.994,30.049,0.056,63,58,Piano left,0,0
30.218,30.273,0.056,60,49,Piano left,0,0
30.445,30.502,0.057,62,53,Piano left,0,0
30.672,30.729,0.057,58,49,Piano left,0,0
30.899,31.016,0.117,55,68,Piano left,0,0
31.133,31.188,0.055,62,51,Piano left,0,0
31.354,31.409,0.056,63,55,Piano left,0,0
31.578,31.633,0.056,60,49,Piano left,0,0
31.804,31.859,0.056,62,57,Piano left,0,0
32.031,32.088,0.057,58,52,Piano left,0,0
32.257999999999996,32.315,0.057,60,62,Piano left,0,0
32.485,32.54,0.055,57,53,Piano left,0,0
32.705,32.76,0.056,58,60,Piano left,0,0
32.927,32.983,0.057,55,58,Piano left,0,0
33.152,33.208,0.057,53,64,Piano left,0,0
33.381,33.44,0.059,51,62,Piano left,0,0
33.622,33.738,0.116,38,71,Piano left,0,0
33.622,33.738,0.116,50,84,Piano left,0,0
33.874,33.929,0.055,62,56,Piano left,0,0
34.093,34.148,0.056,63,63,Piano left,0,0
34.316,34.372,0.057,60,54,Piano left,0,0
34.543,34.599,0.057,62,58,Piano left,0,0
34.771,34.827,0.056,57,54,Piano left,0,0
34.998,35.115,0.117,50,88,Piano left,0,0
34.998,35.115,0.117,38,74,Piano left,0,0
35.249,35.303,0.054,62,56,Piano left,0,0
35.468,35.523,0.056,63,63,Piano left,0,0
35.692,35.748,0.057,60,54,Piano left,0,0
35.919,35.976,0.057,62,58,Piano left,0,0
36.147,36.204,0.057,57,54,Piano left,0,0
36.374,36.491,0.117,50,88,Piano left,0,0
36.374,36.491,0.117,38,74,Piano left,0,0
36.623,36.678,0.055,57,56,Piano left,0,0
36.843,36.898,0.056,60,62,Piano left,0,0
37.067,37.122,0.056,62,61,Piano left,0,0
37.292,37.348,0.057,63,67,Piano left,0,0
37.519,37.576,0.057,65,63,Piano left,0,0
37.747,37.803,0.056,62,70,Piano left,0,0
37.974,38.029,0.055,63,62,Piano left,0,0
38.196,38.252,0.056,60,64,Piano left,0,0
38.418,38.474,0.057,62,58,Piano left,0,0
38.643,38.699,0.057,58,61,Piano left,0,0
38.87,38.927,0.057,57,57,Piano left,0,0
39.1,39.216,0.116,50,84,Piano left,0,0
39.1,39.216,0.116,38,71,Piano left,0,0
39.353,39.406,0.054,62,56,Piano left,0,0
39.572,39.627,0.055,63,63,Piano left,0,0
39.795,39.851,0.056,60,54,Piano left,0,0
40.022,40.079,0.057,62,58,Piano left,0,0
40.249,40.306,0.057,57,54,Piano left,0,0
40.476,40.592,0.117,38,74,Piano left,0,0
40.476,40.592,0.117,50,88,Piano left,0,0
40.729,40.783,0.055,62,56,Piano left,0,0
40.948,41.004,0.056,63,63,Piano left,0,0
41.172,41.229,0.057,60,54,Piano left,0,0
41.399,41.456,0.057,62,58,Piano left,0,0
41.626,41.682,0.057,57,54,Piano left,0,0
41.854,41.969,0.116,38,74,Piano left,0,0
41.854,41.969,0.116,50,88,Piano left,0,0
42.107,42.161,0.055,57,56,Piano left,0,0
42.328,42.383,0.056,60,62,Piano left,0,0
42.552,42.607,0.056,62,61,Piano left,0,0
42.778,42.833,0.056,63,67,Piano left,0,0
43.005,43.061,0.057,65,63,Piano left,0,0
43.232,43.289,0.057,62,70,Piano left,0,0
43.459,43.515,0.056,63,62,Piano left,0,0
43.68,43.735,0.056,60,74,Piano left,0,0
43.904,43.96,0.057,62,69,Piano left,0,0
44.133,44.191,0.058,58,75,Piano left,0,0
44.366,44.424,0.059,62,70,Piano left,0,0
44.605,44.723,0.119,31,80,Piano left,0,0
44.605,44.723,0.119,43,95,Piano left,0,0
44.883,44.936,0.054,62,70,Piano left,0,0
45.099,45.155,0.056,63,78,Piano left,0,0
45.323,45.379,0.056,60,67,Piano left,0,0
45.55,45.607,0.057,62,72,Piano left,0,0
45.777,45.833,0.057,58,67,Piano left,0,0
46.004,46.12,0.117,43,94,Piano left,0,0
46.004,46.12,0.117,31,79,Piano left,0,0
46.279,46.332,0.054,62,70,Piano left,0,0
46.496,46.552,0.056,63,78,Piano left,0,0
46.72,46.777,0.057,60,67,Piano left,0,0
46.948,47.004,0.056,62,72,Piano left,0,0
47.175,47.232,0.057,58,67,Piano left,0,0
47.359,47.476,0.117,43,93,Piano left,0,0
47.359,47.476,0.117,31,79,Piano left,0,0
47.633,47.688,0.055,62,67,Piano left,0,0
47.854,47.91,0.056,63,74,Piano left,0,0
48.078,48.135,0.057,60,73,Piano left,0,0
48.304,48.361,0.057,62,80,Piano left,0,0
48.531,48.588,0.057,58,75,Piano left,0,0
48.758,48.815,0.057,60,84,Piano left,0,0
48.986,49.041,0.055,57,74,Piano left,0,0
49.208,49.262,0.055,58,76,Piano left,0,0
49.43,49.486,0.056,60,69,Piano left,0,0
49.655,49.711,0.056,57,73,Piano left,0,0
49.882,49.939,0.057,58,68,Piano left,0,0
50.16,50.277,0.117,37,81,Piano left,0,0
50.16,50.277,0.117,49,96,Piano left,0,0
50.454,50.507,0.054,63,70,Piano left,0,0
50.67,50.726,0.056,65,74,Piano left,0,0
50.894,50.951,0.057,62,67,Piano left,0,0
51.121,51.178,0.057,63,72,Piano left,0,0
51.349,51.407,0.058,58,67,Piano left,0,0
51.58,51.696,0.117,49,94,Piano left,0,0
51.58,51.696,0.117,37,79,Piano left,0,0
51.873,51.927,0.054,63,70,Piano left,0,0
52.089,52.144,0.056,65,75,Piano left,0,0
52.312,52.369,0.057,62,67,Piano left,0,0
52.54,52.596,0.057,63,72,Piano left,0,0
52.768,52.826,0.058,58,67,Piano left,0,0
53.002,53.118,0.117,49,95,Piano left,0,0
53.002,53.118,0.117,37,80,Piano left,0,0
53.292,53.346,0.055,63,67,Piano left,0,0
53.514,53.568,0.055,65,74,Piano left,0,0
53.737,53.794,0.057,62,64,Piano left,0,0
53.965,54.02,0.056,63,69,Piano left,0,0
54.192,54.248,0.057,58,64,Piano left,0,0
54.419,54.476,0.057,60,84,Piano left,0,0
54.646,54.702,0.056,57,70,Piano left,0,0
54.869,54.923,0.055,58,72,Piano left,0,0
55.091,55.146,0.056,60,69,Piano left,0,0
55.316,55.371,0.056,55,73,Piano left,0,0
55.543,55.599,0.057,57,68,Piano left,0,0
55.772,55.889,0.117,50,92,Piano left,0,0
55.772,55.889,0.117,38,78,Piano left,0,0
56.068,56.121,0.054,62,73,Piano left,0,0
56.284,56.34,0.056,63,78,Piano left,0,0
56.507,56.564,0.057,61,70,Piano left,0,0
56.735,56.791,0.056,62,75,Piano left,0,0
56.962,57.019,0.057,57,70,Piano left,0,0
57.196,57.312,0.117,49,94,Piano left,0,0
57.196,57.312,0.117,37,79,Piano left,0,0
57.493,57.546,0.054,63,73,Piano left,0,0
57.709,57.765,0.056,65,82,Piano left,0,0
57.933,57.989,0.056,62,70,Piano left,0,0
58.16,58.217,0.057,63,75,Piano left,0,0
58.387,58.444,0.057,58,70,Piano left,0,0
58.618,58.734,0.117,50,89,Piano left,0,0
58.618,58.734,0.117,38,75,Piano left,0,0
58.912,58.966,0.054,62,73,Piano left,0,0
59.128,59.183,0.056,63,78,Piano left,0,0
59.352,59.407,0.056,61,70,Piano left,0,0
59.579,59.635,0.057,62,75,Piano left,0,0
59.806,59.862,0.057,57,70,Piano left,0,0
60.039,60.154,0.116,49,94,Piano left,0,0
60.039,60.154,0.116,37,79,Piano left,0,0
60.331,60.384,0.054,63,73,Piano left,0,0
60.548,60.604,0.056,65,79,Piano left,0,0
60.772,60.829,0.057,62,70,Piano left,0,0
60.999,61.056,0.057,63,75,Piano left,0,0
61.227,61.283,0.057,58,70,Piano left,0,0
61.454,61.57,0.117,50,89,Piano left,0,0
61.454,61.57,0.117,38,75,Piano left,0,0
61.753,61.807,0.055,62,73,Piano left,0,0
61.973,62.029,0.056,63,78,Piano left,0,0
62.196,62.253,0.057,61,70,Piano left,0,0
62.423,62.48,0.057,62,75,Piano left,0,0
62.651,62.707,0.057,58,70,Piano left,0,0
62.878,62.992,0.115,60,76,Piano left,0,0
63.107,63.161,0.055,57,67,Piano left,0,0
63.312,63.331,0.018,58,70,Piano left,0,0
63.466,63.521,0.056,60,64,Piano left,0,0
63.692,63.747,0.055,57,69,Piano left,0,0
63.914,63.969,0.056,58,64,Piano left,0,0
64.137,64.247,0.11,55,76,Piano left,0,0
64.357,64.413,0.056,57,67,Piano left,0,0
64.581,64.636,0.055,58,69,Piano left,0,0
64.802,64.857,0.056,60,62,Piano left,0,0
65.026,65.08,0.055,57,66,Piano left,0,0
65.246,65.301,0.055,58,61,Piano left,0,0
65.467,65.577,0.11,55,72,Piano left,0,0
65.686,65.742,0.056,57,62,Piano left,0,0
65.911,66.001,0.09,58,64,Piano left,0,0
66.224,66.282,0.058,55,57,Piano left,0,0
66.456,66.514,0.058,53,60,Piano left,0,0
66.693,66.752,0.059,51,55,Piano left,0,0
66.927,67.043,0.117,50,74,Piano left,0,0
66.927,67.043,0.117,38,63,Piano left,0,0
67.161,67.216,0.055,62,56,Piano left,0,0
67.381,67.436,0.056,63,63,Piano left,0,0
67.604,67.66,0.057,60,54,Piano left,0,0
67.831,67.888,0.057,62,58,Piano left,0,0
68.059,68.116,0.057,58,54,Piano left,0,0
68.286,68.399,0.114,60,64,Piano left,0,0
68.515,68.569,0.055,57,56,Piano left,0,0
68.73,68.757,0.027,58,59,Piano left,0,0
68.916,68.972,0.056,60,54,Piano left,0,0
69.143,69.198,0.055,57,58,Piano left,0,0
69.364,69.42,0.056,58,54,Piano left,0,0
69.588,69.698,0.11,55,64,Piano left,0,0
69.808,69.864,0.056,57,56,Piano left,0,0
70.032,70.087,0.055,58,58,Piano left,0,0
70.252,70.308,0.056,60,52,Piano left,0,0
70.476,70.531,0.055,57,56,Piano left,0,0
70.697,70.774,0.078,58,51,Piano left,0,0
70.961,71.071,0.11,55,61,Piano left,0,0
71.18,71.235,0.056,57,52,Piano left,0,0
71.405,71.46,0.056,58,54,Piano left,0,0
71.631,71.688,0.057,55,48,Piano left,0,0
71.86,71.917,0.057,53,51,Piano left,0,0
72.091,72.148,0.058,51,46,Piano left,0,0
72.558,72.612,0.055,45,45,Piano left,0,0
72.78,72.835,0.056,50,42,Piano left,0,0
73.003,73.059,0.057,51,49,Piano left,0,0
73.23,73.285,0.056,49,54,Piano left,0,0
73.451,73.505,0.055,50,51,Piano left,0,0
72.324,73.673,1.349,38,45,Piano left,0,0
73.9,73.955,0.055,45,49,Piano left,0,0
74.121,74.176,0.055,51,51,Piano left,0,0
74.344,74.401,0.057,53,46,Piano left,0,0
74.571,74.628,0.057,50,49,Piano left,0,0
74.798,74.855,0.057,51,46,Piano left,0,0
73.673,75.026,1.353,38,56,Piano left,0,0
75.259,75.314,0.055,45,45,Piano left,0,0
75.48,75.534,0.055,50,42,Piano left,0,0
75.703,75.758,0.056,51,47,Piano left,0,0
75.93,75.984,0.055,49,52,Piano left,0,0
76.15,76.206,0.056,50,49,Piano left,0,0
75.026,76.373,1.348,38,45,Piano left,0,0
76.601,76.655,0.055,45,46,Piano left,0,0
76.821,76.877,0.056,51,48,Piano left,0,0
77.044,77.101,0.057,53,45,Piano left,0,0
77.272,77.327,0.055,50,47,Piano left,0,0
77.495,77.551,0.056,51,44,Piano left,0,0
76.374,77.72,1.346,38,54,Piano left,0,0
77.954,78.008,0.055,45,45,Piano left,0,0
78.174,78.23,0.056,50,42,Piano left,0,0
78.397,78.454,0.057,51,47,Piano left,0,0
78.625,78.68,0.055,49,51,Piano left,0,0
78.847,78.903,0.056,51,48,Piano left,0,0
79.072,79.129,0.057,50,53,Piano left,0,0
79.301,79.355,0.055,51,46,Piano left,0,0
79.521,79.577,0.056,49,48,Piano left,0,0
79.744,79.801,0.057,51,45,Piano left,0,0
79.843,79.852,0.009,50,45,Piano left,0,0
79.985,80.042,0.057,45,44,Piano left,0,0
77.72,80.212,2.492,38,45,Piano left,0,0
80.212,80.269,0.057,38,45,Piano left,0,0
80.44,80.496,0.057,54,45,Piano left,0,0
80.667,80.723,0.056,57,45,Piano left,0,0
80.894,80.951,0.057,62,45,Piano left,0,0
81.121,81.178,0.057,66,44,Piano left,0,0
81.348,81.405,0.057,69,43,Piano left,0,0
81.577,81.633,0.057,74,43,Piano left,0,0
81.804,81.861,0.058,78,42,Piano left,0,0
82.033,82.091,0.058,81,42,Piano left,0,0
82.266,82.323,0.058,86,41,Piano left,0,0
82.499,82.569,0.069,90,41,Piano left,0,0
82.779,82.839,0.06,93,40,Piano left,0,0
83.031,85.297,2.266,74,34,Piano left,0,0
83.031,85.297,2.266,81,34,Piano left,0,0
86.346,87.846,1.5,62,55,Piano left,0,0
87.846,88.221,0.375,60,48,Piano left,0,0
88.221,88.596,0.375,62,48,Piano left,0,0
89.908,89.994,0.086,62,45,Piano left,0,0
88.596,89.994,1.398,65,54,Piano left,0,0
89.994,90.08,0.086,63,45,Piano left,0,0
90.08,90.434,0.355,62,51,Piano left,0,0
90.435,90.803,0.368,60,39,Piano left,0,0
90.803,92.385,1.583,62,46,Piano left,0,0
92.386,95.81,3.424,50,26,Piano left,0,0
92.386,95.81,3.424,38,21,Piano left,0,0
95.81,97.31,1.5,62,55,Piano left,0,0
97.31,97.685,0.375,60,48,Piano left,0,0
97.685,98.06,0.375,62,48,Piano left,0,0
99.373,99.458,0.085,62,45,Piano left,0,0
98.06,99.458,1.398,65,54,Piano left,0,0
99.458,99.544,0.086,63,45,Piano left,0,0
99.544,99.894,0.351,62,51,Piano left,0,0
99.895,100.268,0.373,60,39,Piano left,0,0
100.268,101.856,1.589,62,46,Piano left,0,0
101.857,105.305,3.448,46,26,Piano left,0,0
101.857,105.305,3.448,34,21,Piano left,0,0
105.305,106.805,1.5,62,52,Piano left,0,0
106.805,108.079,1.274,61,48,Piano left,0,0
108.079,108.262,0.184,58,40,Piano left,0,0
108.263,108.374,0.111,60,39,Piano left,0,0
108.375,109.129,0.754,58,45,Piano left,0,0
109.129,111.016,1.887,57,41,Piano left,0,0
111.016,111.365,0.349,55,44,Piano left,0,0
111.365,111.971,0.606,58,38,Piano left,0,0
111.971,113.766,1.795,57,44,Piano left,0,0
113.766,117.32,3.555,38,26,Piano left,0,0
113.766,117.32,3.555,50,31,Piano left,0,0
117.321,118.821,1.5,62,55,Piano left,0,0
118.821,119.158,0.337,63,55,Piano left,0,0
119.158,119.498,0.341,62,48,Piano left,0,0
119.499,119.848,0.349,61,50,Piano left,0,0
119.848,120.041,0.193,57,50,Piano left,0,0
120.041,123.916,3.876,58,39,Piano left,0,0
123.917,126.149,2.233,60,39,Piano left,0,0
126.149,132.509,6.36,58,46,Piano left,0,0
132.51,144.046,11.536,57,44,Piano left,0,0
144.046,145.212,1.167,55,45,Piano left,0,0
145.212,147.657,2.445,58,39,Piano left,0,0
147.658,149.43,1.772,57,44,Piano left,0,0
149.43,150.559,1.129,51,23,Piano left,0,0
150.559,153.706,3.147,50,23,Piano left,0,0
154.233,155.159,0.927,62,34,Piano left,0,0
153.706,155.16,1.454,58,41,Piano left,0,0
155.642,156.548,0.907,59,34,Piano left,0,0
155.642,156.548,0.907,63,36,Piano left,0,0
155.16,156.548,1.389,57,41,Piano left,0,0
157.873,158.789,0.916,62,34,Piano left,0,0
156.549,158.789,2.24,58,44,Piano left,0,0
159.709,160.155,0.446,54,41,Piano left,0,0
159.261,160.155,0.894,62,48,Piano left,0,0
158.789,160.155,1.366,57,52,Piano left,0,0
160.155,161.487,1.332,55,52,Piano left,0,0
161.487,163.479,1.992,53,53,Piano left,0,0
163.479,164.97,1.491,58,55,Piano left,0,0
164.97,166.535,1.565,57,39,Piano left,0,0
163.479,166.535,3.056,51,47,Piano left,0,0
166.535,169.09,2.555,50,50,Piano left,0,0
167.353,169.09,1.738,57,45,Piano left,0,0
169.09,169.322,0.232,60,52,Piano left,0,0
169.322,169.553,0.231,62,44,Piano left,0,0
169.553,169.782,0.229,63,51,Piano left,0,0
169.782,169.896,0.114,65,55,Piano left,0,0
169.896,170.009,0.114,63,51,Piano left,0,0
170.01,170.238,0.228,62,50,Piano left,0,0
170.238,170.514,0.276,60,50,Piano left,0,0
170.991,171.917,0.927,57,50,Piano left,0,0
170.514,171.917,1.404,50,56,Piano left,0,0
171.918,172.148,0.231,60,52,Piano left,0,0
172.149,172.381,0.232,62,44,Piano left,0,0
172.381,172.608,0.228,63,51,Piano left,0,0
172.609,172.722,0.114,65,55,Piano left,0,0
172.723,172.836,0.114,63,51,Piano left,0,0
172.837,173.065,0.228,62,50,Piano left,0,0
173.065,173.298,0.234,60,50,Piano left,0,0
173.87,174.855,0.985,57,50,Piano left,0,0
173.299,174.855,1.556,50,56,Piano left,0,0
174.855,175.087,0.232,60,61,Piano left,0,0
175.087,175.319,0.232,62,57,Piano left,0,0
175.319,176.226,0.906,63,62,Piano left,0,0
176.226,176.339,0.114,65,60,Piano left,0,0
176.34,176.453,0.114,63,56,Piano left,0,0
176.454,176.681,0.228,62,61,Piano left,0,0
176.682,176.915,0.233,60,51,Piano left,0,0
176.915,177.141,0.227,62,60,Piano left,0,0
177.142,177.37,0.229,61,49,Piano left,0,0
177.371,177.596,0.226,57,54,Piano left,0,0
177.597,178.423,0.826,60,47,Piano left,0,0
178.423,180.496,2.073,59,50,Piano left,0,0
180.497,180.734,0.237,55,46,Piano left,0,0
180.734,199.262,18.529,58,49,Piano left,0,0
199.262,204.028,4.766,57,44,Piano left,0,0
204.029,204.349,0.32,54,47,Piano left,0,0
204.349,204.59,0.241,56,43,Piano left,0,0
204.59,204.83,0.241,55,46,Piano left,0,0
204.831,205.078,0.247,51,44,Piano left,0,0
205.554,206.48,0.927,57,51,Piano left,0,0
205.078,206.48,1.403,50,56,Piano left,0,0
206.481,206.712,0.232,62,46,Piano left,0,0
206.712,206.944,0.232,63,39,Piano left,0,0
206.945,207.172,0.228,65,45,Piano left,0,0
207.173,207.884,0.711,67,49,Piano left,0,0
207.884,207.997,0.114,65,45,Piano left,0,0
207.998,208.226,0.228,63,45,Piano left,0,0
208.226,208.487,0.261,62,45,Piano left,0,0
209.32,210.247,0.927,62,51,Piano left,0,0
208.487,210.247,1.76,55,56,Piano left,0,0
210.247,210.478,0.231,62,51,Piano left,0,0
210.478,210.71,0.232,63,46,Piano left,0,0
210.71,210.995,0.285,65,50,Piano left,0,0
210.995,211.436,0.441,67,54,Piano left,0,0
211.436,211.549,0.114,65,49,Piano left,0,0
211.55,211.779,0.229,63,52,Piano left,0,0
211.779,212.481,0.702,62,48,Piano left,0,0
212.967,213.952,0.985,62,50,Piano left,0,0
212.481,213.952,1.471,55,56,Piano left,0,0
213.953,214.417,0.465,60,49,Piano left,0,0
214.417,221.296,6.879,58,45,Piano left,0,0
221.296,221.863,0.567,57,45,Piano left,0,0
221.864,222.511,0.647,55,45,Piano left,0,0
222.511,223.73,1.219,54,36,Piano left,0,0
223.73,224.666,0.936,55,39,Piano left,0,0
224.667,226.792,2.125,63,50,Piano left,0,0
226.792,235.699,8.907,62,46,Piano left,0,0
235.699,236.16,0.461,60,40,Piano left,0,0
236.16,237.569,1.408,58,40,Piano left,0,0
237.569,239.222,1.654,57,32,Piano left,0,0
239.223,241.226,2.003,58,33,Piano left,0,0
241.226,241.84,0.615,56,39,Piano left,0,0
241.841,242.281,0.44,58,35,Piano left,0,0
242.281,242.505,0.224,60,38,Piano left,0,0
242.505,242.618,0.112,63,34,Piano left,0,0
242.618,242.674,0.056,61,29,Piano left,0,0
242.674,242.729,0.055,63,30,Piano left,0,0
242.729,243.304,0.574,61,38,Piano left,0,0
243.304,243.745,0.442,60,33,Piano left,0,0
243.746,243.971,0.226,63,39,Piano left,0,0
243.972,244.086,0.115,60,34,Piano left,0,0
244.087,244.144,0.057,58,29,Piano left,0,0
244.144,244.201,0.057,60,29,Piano left,0,0
244.201,245.171,0.971,58,38,Piano left,0,0
245.172,248.891,3.719,57,33,Piano left,0,0
248.891,249.392,0.502,60,38,Piano left,0,0
249.393,249.667,0.274,63,33,Piano left,0,0
249.667,250.586,0.92,57,48,Piano left,0,0
249.667,250.586,0.92,48,40,Piano left,0,0
250.587,251.049,0.462,58,36,Piano left,0,0
250.587,251.049,0.462,55,36,Piano left,0,0
250.587,251.049,0.462,49,30,Piano left,0,0
251.781,252.707,0.927,57,45,Piano left,0,0
251.049,252.708,1.659,50,50,Piano left,0,0
252.708,252.94,0.232,63,52,Piano left,0,0
252.94,253.17,0.231,65,44,Piano left,0,0
253.171,253.399,0.229,67,51,Piano left,0,0
253.4,253.514,0.114,69,55,Piano left,0,0
253.514,253.627,0.114,67,51,Piano left,0,0
253.628,253.855,0.228,65,50,Piano left,0,0
253.856,254.298,0.443,63,50,Piano left,0,0
254.992,256.174,1.182,57,50,Piano left,0,0
254.299,256.174,1.876,50,56,Piano left,0,0
256.174,256.534,0.36,63,52,Piano left,0,0
256.534,256.766,0.232,65,44,Piano left,0,0
256.767,256.994,0.228,67,51,Piano left,0,0
256.994,257.108,0.114,69,55,Piano left,0,0
257.108,257.222,0.114,67,51,Piano left,0,0
257.222,257.45,0.228,65,50,Piano left,0,0
257.451,257.684,0.234,63,50,Piano left,0,0
258.17,259.155,0.985,57,50,Piano left,0,0
257.684,259.155,1.471,50,56,Piano left,0,0
259.155,267.042,7.887,58,45,Piano left,0,0
267.207,267.265,0.058,61,40,Piano left,0,0
267.442,267.501,0.059,62,42,Piano left,0,0
267.721,267.781,0.06,65,42,Piano left,0,0
268.192,268.362,0.17,61,41,Piano left,0,0
268.54,268.601,0.061,62,38,Piano left,0,0
268.782,268.902,0.12,53,45,Piano left,0,0
273.928,273.988,0.06,56,40,Piano left,0,0
274.166,274.244,0.078,57,41,Piano left,0,0
274.529,274.588,0.059,60,37,Piano left,0,0
274.767,274.825,0.058,56,39,Piano left,0,0
275.225,275.318,0.093,57,36,Piano left,0,0
275.885,276.007,0.122,51,43,Piano left,0,0
286.54,286.599,0.06,57,37,Piano left,0,0
289.798,291.31,1.512,58,38,Piano left,0,0
293.634,293.695,0.061,55,34,Piano left,0,0
293.88,293.943,0.062,53,36,Piano left,0,0
294.131,294.199,0.068,51,33,Piano left,0,0
294.643,296.143,1.5,62,55,Piano left,0,0
296.143,296.518,0.375,60,48,Piano left,0,0
296.518,296.893,0.375,62,48,Piano left,0,0
298.206,298.292,0.086,62,45,Piano left,0,0
296.893,298.292,1.399,65,54,Piano left,0,0
298.292,298.377,0.085,63,45,Piano left,0,0
298.378,298.732,0.355,62,51,Piano left,0,0
298.732,299.1,0.368,60,39,Piano left,0,0
299.101,300.684,1.584,62,46,Piano left,0,0
300.684,304.107,3.423,50,26,Piano left,0,0
300.684,304.107,3.423,38,21,Piano left,0,0
304.107,305.607,1.5,62,55,Piano left,0,0
305.607,305.982,0.375,60,48,Piano left,0,0
305.982,306.357,0.375,62,48,Piano left,0,0
307.67,307.756,0.086,62,45,Piano left,0,0
306.357,307.756,1.399,65,54,Piano left,0,0
307.756,307.841,0.085,63,45,Piano left,0,0
307.842,308.192,0.351,62,51,Piano left,0,0
308.192,308.565,0.373,60,39,Piano left,0,0
308.566,310.231,1.666,62,46,Piano left,0,0
310.231,311.191,0.96,51,23,Piano left,0,0
311.192,314.071,2.88,50,23,Piano left,0,0
314.071,314.188,0.117,55,59,Piano left,0,0
314.304,314.36,0.056,62,47,Piano left,0,0
314.526,314.581,0.056,63,53,Piano left,0,0
314.748,314.805,0.057,60,45,Piano left,0,0
314.976,315.032,0.057,62,49,Piano left,0,0
315.204,315.259,0.056,58,45,Piano left,0,0
315.43,315.547,0.117,55,62,Piano left,0,0
315.664,315.719,0.056,62,47,Piano left,0,0
315.885,315.941,0.056,63,53,Piano left,0,0
316.109,316.165,0.056,60,45,Piano left,0,0
316.336,316.393,0.057,62,49,Piano left,0,0
316.564,316.62,0.057,58,45,Piano left,0,0
316.791,316.907,0.117,55,62,Piano left,0,0
317.024,317.079,0.055,62,47,Piano left,0,0
317.245,317.301,0.056,63,50,Piano left,0,0
317.469,317.526,0.057,60,45,Piano left,0,0
317.695,317.752,0.057,62,52,Piano left,0,0
317.922,317.979,0.057,58,48,Piano left,0,0
318.149,318.206,0.057,60,57,Piano left,0,0
318.378,318.432,0.055,57,49,Piano left,0,0
318.599,318.654,0.055,58,53,Piano left,0,0
318.821,318.877,0.056,60,49,Piano left,0,0
319.046,319.102,0.056,57,51,Piano left,0,0
319.273,319.33,0.057,58,48,Piano left,0,0
319.504,319.623,0.119,55,59,Piano left,0,0
319.742,319.797,0.055,62,47,Piano left,0,0
319.964,320.018,0.055,63,50,Piano left,0,0
320.186,320.242,0.056,60,45,Piano left,0,0
320.414,320.47,0.057,62,51,Piano left,0,0
320.641,320.697,0.057,58,45,Piano left,0,0
320.867,320.984,0.117,55,62,Piano left,0,0
321.102,321.156,0.055,62,50,Piano left,0,0
321.32,321.376,0.056,63,54,Piano left,0,0
321.544,321.601,0.057,60,45,Piano left,0,0
321.771,321.828,0.057,62,49,Piano left,0,0
321.998,322.055,0.057,58,45,Piano left,0,0
322.227,322.342,0.116,55,62,Piano left,0,0
322.459,322.514,0.055,62,47,Piano left,0,0
322.68,322.736,0.056,63,50,Piano left,0,0
322.904,322.961,0.057,60,45,Piano left,0,0
323.13,323.187,0.057,62,52,Piano left,0,0
323.357,323.414,0.057,58,48,Piano left,0,0
323.584,323.641,0.057,60,55,Piano left,0,0
323.812,323.867,0.055,57,49,Piano left,0,0
324.034,324.089,0.055,58,56,Piano left,0,0
324.256,324.312,0.056,55,51,Piano left,0,0
324.481,324.537,0.056,53,56,Piano left,0,0
324.708,324.765,0.057,51,53,Piano left,0,0
324.943,325.061,0.118,50,59,Piano left,0,0
325.179,325.234,0.055,62,47,Piano left,0,0
325.397,325.453,0.056,63,53,Piano left,0,0
325.621,325.677,0.056,60,45,Piano left,0,0
325.848,325.905,0.057,62,49,Piano left,0,0
326.076,326.132,0.057,57,45,Piano left,0,0
326.303,326.419,0.117,50,62,Piano left,0,0
326.536,326.591,0.055,62,47,Piano left,0,0
326.756,326.812,0.056,63,53,Piano left,0,0
326.979,327.036,0.057,60,45,Piano left,0,0
327.207,327.264,0.057,62,49,Piano left,0,0
327.434,327.491,0.057,57,45,Piano left,0,0
327.661,327.778,0.117,50,62,Piano left,0,0
327.895,327.95,0.055,57,47,Piano left,0,0
328.117,328.172,0.056,60,52,Piano left,0,0
328.341,328.396,0.056,62,51,Piano left,0,0
328.567,328.622,0.056,63,56,Piano left,0,0
328.793,328.85,0.057,65,53,Piano left,0,0
329.02,329.077,0.057,62,59,Piano left,0,0
329.247,329.303,0.056,63,52,Piano left,0,0
329.47,329.525,0.055,60,54,Piano left,0,0
329.692,329.748,0.056,62,49,Piano left,0,0
329.917,329.973,0.056,58,51,Piano left,0,0
330.144,330.201,0.057,57,48,Piano left,0,0
330.373,330.491,0.118,50,59,Piano left,0,0
330.609,330.664,0.055,62,47,Piano left,0,0
330.83,330.886,0.056,63,53,Piano left,0,0
331.054,331.11,0.057,60,45,Piano left,0,0
331.28,331.337,0.057,62,49,Piano left,0,0
331.507,331.564,0.057,57,45,Piano left,0,0
331.735,331.851,0.116,50,62,Piano left,0,0
331.968,332.023,0.055,62,47,Piano left,0,0
332.191,332.246,0.056,63,53,Piano left,0,0
332.414,332.47,0.057,60,45,Piano left,0,0
332.642,332.698,0.057,62,49,Piano left,0,0
332.868,332.925,0.057,57,45,Piano left,0,0
333.095,333.212,0.117,50,62,Piano left,0,0
333.329,333.384,0.055,60,47,Piano left,0,0
333.551,333.606,0.056,62,52,Piano left,0,0
333.774,333.83,0.056,63,51,Piano left,0,0
334.001,334.056,0.056,65,56,Piano left,0,0
334.312,334.369,0.057,62,53,Piano left,0,0
334.54,334.596,0.057,63,59,Piano left,0,0
334.767,334.822,0.056,60,52,Piano left,0,0
334.99,335.044,0.055,62,54,Piano left,0,0
335.212,335.268,0.056,58,49,Piano left,0,0
335.439,335.495,0.057,60,51,Piano left,0,0
335.671,335.73,0.059,57,48,Piano left,0,0
335.907,336.023,0.117,55,64,Piano left,0,0
336.141,336.195,0.055,62,51,Piano left,0,0
336.358,336.414,0.056,63,58,Piano left,0,0
336.581,336.638,0.057,60,49,Piano left,0,0
336.802,336.82,0.019,62,53,Piano left,0,0
336.951,337.006,0.056,58,49,Piano left,0,0
337.178,337.294,0.117,55,68,Piano left,0,0
337.41,337.464,0.054,62,51,Piano left,0,0
337.628,337.683,0.056,63,58,Piano left,0,0
337.852,337.908,0.057,60,49,Piano left,0,0
338.079,338.135,0.057,62,53,Piano left,0,0
338.305,338.362,0.057,58,49,Piano left,0,0
338.533,338.649,0.116,55,68,Piano left,0,0
338.767,338.821,0.055,62,51,Piano left,0,0
338.989,339.043,0.055,63,55,Piano left,0,0
339.211,339.268,0.057,60,49,Piano left,0,0
339.438,339.494,0.057,62,57,Piano left,0,0
339.665,339.721,0.057,58,52,Piano left,0,0
339.892,339.948,0.057,60,62,Piano left,0,0
340.119,340.142,0.023,57,53,Piano left,0,0
340.256,340.312,0.056,58,58,Piano left,0,0
340.478,340.534,0.056,60,53,Piano left,0,0
340.703,340.76,0.057,57,56,Piano left,0,0
340.93,340.987,0.057,58,52,Piano left,0,0
341.166,341.282,0.116,55,64,Piano left,0,0
341.399,341.454,0.055,62,51,Piano left,0,0
341.62,341.676,0.056,63,58,Piano left,0,0
341.843,341.9,0.057,60,49,Piano left,0,0
342.07,342.127,0.057,62,53,Piano left,0,0
342.297,342.362,0.066,58,49,Piano left,0,0
342.568,342.683,0.116,55,68,Piano left,0,0
342.801,342.855,0.055,62,51,Piano left,0,0
343.023,343.078,0.055,63,58,Piano left,0,0
343.246,343.303,0.057,60,49,Piano left,0,0
343.474,343.53,0.056,62,53,Piano left,0,0
343.701,343.757,0.057,58,49,Piano left,0,0
343.928,344.044,0.117,55,68,Piano left,0,0
344.162,344.217,0.055,62,51,Piano left,0,0
344.383,344.439,0.056,63,55,Piano left,0,0
344.607,344.662,0.056,60,49,Piano left,0,0
344.833,344.889,0.056,62,57,Piano left,0,0
345.06,345.117,0.057,58,52,Piano left,0,0
345.287,345.344,0.057,60,62,Piano left,0,0
345.514,345.568,0.055,57,53,Piano left,0,0
345.734,345.79,0.056,58,62,Piano left,0,0
345.956,346.012,0.057,55,58,Piano left,0,0
346.181,346.238,0.057,53,64,Piano left,0,0
346.41,346.469,0.059,51,62,Piano left,0,0
346.65,346.767,0.117,50,84,Piano left,0,0
346.65,346.767,0.117,38,71,Piano left,0,0
346.903,346.957,0.055,62,56,Piano left,0,0
347.122,347.178,0.056,63,63,Piano left,0,0
347.345,347.402,0.057,60,54,Piano left,0,0
347.572,347.629,0.057,62,58,Piano left,0,0
347.799,347.856,0.057,57,54,Piano left,0,0
348.069,348.185,0.116,50,88,Piano left,0,0
348.069,348.185,0.116,38,74,Piano left,0,0
348.319,348.374,0.055,62,56,Piano left,0,0
348.54,348.595,0.056,63,63,Piano left,0,0
348.764,348.82,0.057,60,54,Piano left,0,0
348.991,349.047,0.057,62,58,Piano left,0,0
349.218,349.274,0.056,57,54,Piano left,0,0
349.445,349.562,0.117,50,88,Piano left,0,0
349.445,349.562,0.117,38,74,Piano left,0,0
349.694,349.749,0.055,57,56,Piano left,0,0
349.915,349.97,0.056,60,62,Piano left,0,0
350.138,350.194,0.057,62,61,Piano left,0,0
350.364,350.42,0.057,63,67,Piano left,0,0
350.591,350.647,0.057,65,63,Piano left,0,0
350.818,350.874,0.056,62,70,Piano left,0,0
351.045,351.1,0.055,63,62,Piano left,0,0
351.267,351.323,0.056,60,64,Piano left,0,0
351.49,351.545,0.056,62,58,Piano left,0,0
351.715,351.771,0.057,58,61,Piano left,0,0
351.942,351.998,0.057,57,57,Piano left,0,0
352.17,352.287,0.117,50,84,Piano left,0,0
352.17,352.287,0.117,38,71,Piano left,0,0
352.424,352.478,0.054,62,56,Piano left,0,0
352.643,352.698,0.055,63,63,Piano left,0,0
352.867,352.922,0.056,60,54,Piano left,0,0
353.093,353.15,0.057,62,58,Piano left,0,0
353.32,353.377,0.057,57,54,Piano left,0,0
353.547,353.664,0.117,50,88,Piano left,0,0
353.547,353.664,0.117,38,74,Piano left,0,0
353.801,353.855,0.055,62,56,Piano left,0,0
354.019,354.075,0.056,63,63,Piano left,0,0
354.243,354.3,0.057,60,54,Piano left,0,0
354.47,354.527,0.057,62,58,Piano left,0,0
354.697,354.754,0.057,57,54,Piano left,0,0
354.926,355.041,0.116,50,88,Piano left,0,0
354.926,355.041,0.116,38,74,Piano left,0,0
355.179,355.233,0.055,57,56,Piano left,0,0
355.399,355.455,0.056,60,62,Piano left,0,0
355.623,355.679,0.056,62,61,Piano left,0,0
355.848,355.905,0.057,63,67,Piano left,0,0
356.077,356.133,0.057,65,63,Piano left,0,0
356.304,356.36,0.057,62,70,Piano left,0,0
356.53,356.585,0.055,63,62,Piano left,0,0
356.752,356.807,0.056,60,74,Piano left,0,0
356.976,357.032,0.057,62,69,Piano left,0,0
357.204,357.261,0.058,58,75,Piano left,0,0
357.438,357.496,0.059,62,70,Piano left,0,0
357.677,357.795,0.119,43,95,Piano left,0,0
357.677,357.795,0.119,31,80,Piano left,0,0
357.954,358.008,0.054,62,70,Piano left,0,0
358.17,358.226,0.056,63,78,Piano left,0,0
358.393,358.45,0.057,60,67,Piano left,0,0
358.621,358.678,0.057,62,72,Piano left,0,0
358.848,358.905,0.057,58,67,Piano left,0,0
359.076,359.192,0.117,43,94,Piano left,0,0
359.076,359.192,0.117,31,79,Piano left,0,0
359.351,359.404,0.054,62,70,Piano left,0,0
359.567,359.623,0.056,63,78,Piano left,0,0
359.791,359.848,0.057,60,67,Piano left,0,0
360.018,360.075,0.057,62,72,Piano left,0,0
360.246,360.303,0.057,58,67,Piano left,0,0
360.473,360.59,0.117,43,93,Piano left,0,0
360.473,360.59,0.117,31,79,Piano left,0,0
360.747,360.802,0.055,62,67,Piano left,0,0
360.968,361.024,0.056,63,74,Piano left,0,0
361.192,361.248,0.056,60,73,Piano left,0,0
361.418,361.474,0.056,62,80,Piano left,0,0
361.645,361.702,0.057,58,75,Piano left,0,0
361.872,361.929,0.057,60,84,Piano left,0,0
362.099,362.155,0.056,57,74,Piano left,0,0
362.322,362.377,0.055,58,76,Piano left,0,0
362.544,362.6,0.056,60,69,Piano left,0,0
362.769,362.825,0.056,57,73,Piano left,0,0
362.996,363.053,0.057,58,68,Piano left,0,0
363.231,363.348,0.117,49,96,Piano left,0,0
363.231,363.348,0.117,37,81,Piano left,0,0
363.526,363.579,0.054,63,70,Piano left,0,0
363.742,363.797,0.056,65,76,Piano left,0,0
363.966,364.022,0.057,62,67,Piano left,0,0
364.192,364.249,0.057,63,72,Piano left,0,0
364.42,364.478,0.058,58,67,Piano left,0,0
364.652,364.768,0.117,49,94,Piano left,0,0
364.652,364.768,0.117,37,79,Piano left,0,0
364.986,365.041,0.055,63,70,Piano left,0,0
365.203,365.259,0.056,65,77,Piano left,0,0
365.427,365.484,0.057,62,67,Piano left,0,0
365.654,365.711,0.057,63,72,Piano left,0,0
365.881,365.94,0.059,58,67,Piano left,0,0
366.116,366.233,0.117,49,95,Piano left,0,0
366.116,366.233,0.117,37,80,Piano left,0,0
366.406,366.461,0.055,63,67,Piano left,0,0
366.627,366.683,0.056,65,75,Piano left,0,0
366.851,366.908,0.057,62,64,Piano left,0,0
367.079,367.135,0.056,63,69,Piano left,0,0
367.306,367.363,0.057,58,64,Piano left,0,0
367.533,367.59,0.057,60,84,Piano left,0,0
367.76,367.816,0.056,57,70,Piano left,0,0
367.983,368.038,0.055,58,72,Piano left,0,0
368.205,368.261,0.056,60,69,Piano left,0,0
368.43,368.486,0.056,55,73,Piano left,0,0
368.657,368.714,0.057,57,68,Piano left,0,0
368.886,369.003,0.117,50,92,Piano left,0,0
368.886,369.003,0.117,38,78,Piano left,0,0
369.182,369.236,0.054,62,73,Piano left,0,0
369.398,369.454,0.056,63,82,Piano left,0,0
369.621,369.678,0.057,61,70,Piano left,0,0
369.848,369.905,0.057,62,75,Piano left,0,0
370.076,370.133,0.057,57,70,Piano left,0,0
370.267,370.384,0.117,49,94,Piano left,0,0
370.267,370.384,0.117,37,79,Piano left,0,0
370.565,370.618,0.054,63,73,Piano left,0,0
370.78,370.836,0.056,65,78,Piano left,0,0
371.004,371.06,0.057,62,70,Piano left,0,0
371.231,371.288,0.057,63,75,Piano left,0,0
371.458,371.515,0.057,58,70,Piano left,0,0
371.69,371.806,0.117,50,89,Piano left,0,0
371.69,371.806,0.117,38,75,Piano left,0,0
371.984,372.037,0.053,62,73,Piano left,0,0
372.199,372.255,0.056,63,78,Piano left,0,0
372.422,372.479,0.057,61,70,Piano left,0,0
372.651,372.706,0.056,62,75,Piano left,0,0
372.878,372.934,0.057,57,70,Piano left,0,0
373.11,373.226,0.116,49,94,Piano left,0,0
373.11,373.226,0.116,37,79,Piano left,0,0
373.403,373.456,0.054,63,73,Piano left,0,0
373.619,373.675,0.056,65,79,Piano left,0,0
373.843,373.9,0.057,62,70,Piano left,0,0
374.07,374.127,0.057,63,75,Piano left,0,0
374.298,374.354,0.056,58,70,Piano left,0,0
374.526,374.642,0.117,50,89,Piano left,0,0
374.526,374.642,0.117,38,75,Piano left,0,0
374.823,374.879,0.056,62,73,Piano left,0,0
375.044,375.1,0.056,63,78,Piano left,0,0
375.267,375.324,0.057,60,70,Piano left,0,0
375.494,375.551,0.057,62,75,Piano left,0,0
375.722,375.778,0.056,58,70,Piano left,0,0
375.949,376.063,0.114,60,76,Piano left,0,0
376.179,376.233,0.055,57,67,Piano left,0,0
376.398,376.454,0.056,58,70,Piano left,0,0
376.622,376.678,0.056,60,64,Piano left,0,0
376.849,376.904,0.055,57,69,Piano left,0,0
377.07,377.126,0.056,58,64,Piano left,0,0
377.294,377.404,0.11,55,76,Piano left,0,0
377.515,377.57,0.056,57,67,Piano left,0,0
377.739,377.793,0.055,58,69,Piano left,0,0
377.958,378.014,0.056,60,62,Piano left,0,0
378.182,378.237,0.055,57,66,Piano left,0,0
378.404,378.458,0.055,58,61,Piano left,0,0
378.624,378.734,0.11,55,72,Piano left,0,0
378.843,378.899,0.056,57,62,Piano left,0,0
379.068,379.124,0.056,58,64,Piano left,0,0
379.294,379.351,0.057,55,57,Piano left,0,0
379.523,379.58,0.057,53,60,Piano left,0,0
379.754,379.812,0.058,51,55,Piano left,0,0
379.988,380.104,0.117,50,74,Piano left,0,0
379.988,380.104,0.117,38,63,Piano left,0,0
380.221,380.276,0.055,62,56,Piano left,0,0
380.442,380.497,0.056,63,61,Piano left,0,0
380.665,380.721,0.057,60,54,Piano left,0,0
380.892,380.948,0.056,62,58,Piano left,0,0
381.119,381.176,0.057,58,54,Piano left,0,0
381.346,381.461,0.115,60,64,Piano left,0,0
381.576,381.63,0.055,57,56,Piano left,0,0
381.796,381.851,0.055,58,59,Piano left,0,0
382.019,382.076,0.057,60,54,Piano left,0,0
382.246,382.301,0.055,57,58,Piano left,0,0
382.467,382.523,0.056,58,54,Piano left,0,0
382.692,382.802,0.11,55,64,Piano left,0,0
382.911,382.967,0.056,57,56,Piano left,0,0
383.135,383.19,0.055,58,58,Piano left,0,0
383.356,383.411,0.055,60,52,Piano left,0,0
383.579,383.635,0.056,57,56,Piano left,0,0
383.801,383.855,0.055,58,51,Piano left,0,0
384.021,384.131,0.11,55,61,Piano left,0,0
384.241,384.297,0.057,57,52,Piano left,0,0
384.466,384.522,0.057,58,54,Piano left,0,0
384.693,384.751,0.058,55,48,Piano left,0,0
384.927,384.985,0.059,53,51,Piano left,0,0
385.165,385.224,0.06,51,46,Piano left,0,0
385.633,385.688,0.055,45,45,Piano left,0,0
385.855,385.911,0.056,50,42,Piano left,0,0
386.079,386.135,0.057,51,49,Piano left,0,0
386.305,386.361,0.056,49,54,Piano left,0,0
386.527,386.581,0.055,50,51,Piano left,0,0
385.399,386.748,1.349,38,45,Piano left,0,0
386.976,387.035,0.06,45,49,Piano left,0,0
387.217,387.272,0.056,55,56,Piano left,0,0
387.44,387.496,0.057,53,46,Piano left,0,0
387.667,387.723,0.056,50,49,Piano left,0,0
387.894,387.951,0.057,51,46,Piano left,0,0
386.748,388.121,1.373,38,56,Piano left,0,0
388.355,388.41,0.055,45,45,Piano left,0,0
388.576,388.631,0.056,50,42,Piano left,0,0
388.798,388.855,0.057,51,47,Piano left,0,0
389.026,389.081,0.056,49,52,Piano left,0,0
389.246,389.302,0.056,50,49,Piano left,0,0
388.121,389.47,1.349,38,45,Piano left,0,0
389.696,389.751,0.055,45,46,Piano left,0,0
389.917,389.973,0.056,51,48,Piano left,0,0
390.141,390.197,0.057,53,45,Piano left,0,0
390.367,390.423,0.056,50,47,Piano left,0,0
390.591,390.647,0.057,51,44,Piano left,0,0
389.47,390.816,1.346,38,54,Piano left,0,0
391.049,391.104,0.055,45,45,Piano left,0,0
391.27,391.326,0.056,50,42,Piano left,0,0
391.493,391.55,0.057,51,47,Piano left,0,0
391.72,391.776,0.056,49,51,Piano left,0,0
391.942,391.999,0.057,51,48,Piano left,0,0
392.167,392.224,0.057,50,53,Piano left,0,0
392.396,392.451,0.055,51,46,Piano left,0,0
392.617,392.673,0.056,49,48,Piano left,0,0
392.841,392.897,0.057,51,45,Piano left,0,0
393.067,393.124,0.057,50,45,Piano left,0,0
393.294,393.351,0.057,45,44,Piano left,0,0
390.817,393.522,2.706,38,45,Piano left,0,0
393.522,393.578,0.056,38,45,Piano left,0,0
393.749,393.806,0.057,54,45,Piano left,0,0
393.977,394.033,0.057,57,45,Piano left,0,0
394.204,394.26,0.057,62,45,Piano left,0,0
394.431,394.488,0.057,66,44,Piano left,0,0
394.658,394.715,0.057,69,43,Piano left,0,0
394.885,394.942,0.057,74,43,Piano left,0,0
395.114,395.17,0.057,78,42,Piano left,0,0
395.343,395.4,0.057,81,42,Piano left,0,0
395.576,395.633,0.058,86,41,Piano left,0,0
395.809,395.868,0.059,90,41,Piano left,0,0
396.046,396.106,0.06,93,40,Piano left,0,0
396.297,398.393,2.096,74,34,Piano left,0,0
396.297,398.393,2.096,81,34,Piano left,0,0
399.461,401.059,1.598,51,39,Piano left,0,0
401.059,402.662,1.603,53,36,Piano left,0,0
401.059,402.662,1.603,46,32,Piano left,0,0
402.662,404.126,1.463,48,39,Piano left,0,0
404.126,405.821,1.696,50,36,Piano left,0,0
404.126,405.821,1.696,43,32,Piano left,0,0
405.822,406.814,0.992,60,39,Piano left,0,0
406.814,407.36,0.546,61,36,Piano left,0,0
407.36,408.914,1.554,60,39,Piano left,0,0
408.915,410.611,1.696,60,39,Piano left,0,0
410.611,411.042,0.431,58,30,Piano left,0,0
411.042,411.664,0.622,57,26,Piano left,0,0
408.915,411.664,2.749,50,32,Piano left,0,0
411.664,411.782,0.118,55,59,Piano left,0,0
411.901,411.957,0.056,62,47,Piano left,0,0
412.126,412.184,0.058,63,53,Piano left,0,0
412.358,412.417,0.059,60,45,Piano left,0,0
412.593,412.652,0.059,62,49,Piano left,0,0
412.829,412.887,0.058,58,45,Piano left,0,0
413.064,413.183,0.119,55,62,Piano left,0,0
413.303,413.359,0.056,62,47,Piano left,0,0
413.529,413.586,0.057,63,53,Piano left,0,0
413.758,413.817,0.059,60,45,Piano left,0,0
413.993,414.051,0.058,62,49,Piano left,0,0
414.227,414.286,0.059,58,45,Piano left,0,0
414.462,414.585,0.123,55,56,Piano left,0,0
414.709,414.77,0.061,63,47,Piano left,0,0
414.709,414.77,0.061,70,42,Piano left,0,0
414.951,415.011,0.06,61,52,Piano left,0,0
414.951,415.011,0.06,70,46,Piano left,0,0
415.189,415.248,0.059,63,48,Piano left,0,0
415.189,415.248,0.059,70,43,Piano left,0,0
415.424,415.483,0.059,61,61,Piano left,0,0
415.424,415.483,0.059,70,55,Piano left,0,0
415.658,415.716,0.058,63,59,Piano left,0,0
415.658,415.716,0.058,70,53,Piano left,0,0
415.889,416.008,0.119,61,71,Piano left,0,0
415.889,416.008,0.119,70,64,Piano left,0,0
416.127,416.184,0.057,63,66,Piano left,0,0
416.127,416.184,0.057,70,58,Piano left,0,0
416.358,416.416,0.058,61,75,Piano left,0,0
416.358,416.416,0.058,70,63,Piano left,0,0
416.593,416.652,0.059,63,73,Piano left,0,0
416.593,416.652,0.059,70,59,Piano left,0,0
416.831,416.892,0.061,61,80,Piano left,0,0
416.831,416.892,0.061,70,67,Piano left,0,0
417.074,417.135,0.061,63,78,Piano left,0,0
417.074,417.135,0.061,70,63,Piano left,0,0
417.321,418.814,1.493,58,82,Piano left,0,0
417.321,418.814,1.493,50,69,Piano left,0,0
417.321,418.814,1.493,43,69,Piano left,0,0
418.814,421.13,2.316,31,78,Piano left,0,0
0.0,0.5,0.5,69,0,shadow,0,15
