start,end,duration,pitch,velocity,instrument,instr program,midi channel
0.0,0.5,0.5,69,0,shadow,1,1
0.55,1.0,0.45,31,95,untitled,0,9
1.0,1.5,0.5,31,95,untitled,0,9
1.5,2.0,0.5,31,95,untitled,0,9
2.0,2.5,0.5,31,95,untitled,0,9
2.5,2.75,0.25,35,95,untitled,0,9
2.5,2.75,0.25,49,95,untitled,0,9
2.75,3.0,0.25,42,95,untitled,0,9
3.0,3.25,0.25,40,95,untitled,0,9
3.0,3.25,0.25,39,95,untitled,0,9
3.0,3.25,0.25,42,95,untitled,0,9
3.25,3.5,0.25,42,95,untitled,0,9
3.5,3.75,0.25,42,95,untitled,0,9
3.5,3.75,0.25,35,95,untitled,0,9
3.75,4.0,0.25,42,95,untitled,0,9
4.0,4.25,0.25,40,95,untitled,0,9
4.0,4.25,0.25,39,95,untitled,0,9
4.0,4.25,0.25,42,95,untitled,0,9
4.25,4.375,0.125,42,95,untitled,0,9
4.375,4.5,0.125,42,95,untitled,0,9
4.5,4.75,0.25,35,95,untitled,0,9
4.5,4.75,0.25,42,95,untitled,0,9
4.75,5.0,0.25,42,95,untitled,0,9
5.0,5.25,0.25,40,95,untitled,0,9
5.0,5.25,0.25,39,95,untitled,0,9
5.0,5.25,0.25,42,95,untitled,0,9
5.25,5.5,0.25,42,95,untitled,0,9
5.5,5.75,0.25,42,95,untitled,0,9
5.5,5.75,0.25,35,95,untitled,0,9
5.75,6.0,0.25,42,95,untitled,0,9
6.0,6.25,0.25,42,95,untitled,0,9
6.0,6.25,0.25,39,95,untitled,0,9
6.0,6.25,0.25,40,95,untitled,0,9
6.25,6.375,0.125,42,95,untitled,0,9
6.375,6.5,0.125,42,95,untitled,0,9
6.5,6.75,0.25,35,95,untitled,0,9
6.5,6.75,0.25,42,95,untitled,0,9
6.75,7.0,0.25,42,95,untitled,0,9
7.0,7.25,0.25,39,95,untitled,0,9
7.0,7.25,0.25,40,95,untitled,0,9
7.0,7.25,0.25,42,95,untitled,0,9
7.25,7.5,0.25,42,95,untitled,0,9
7.5,7.75,0.25,35,95,untitled,0,9
7.5,7.75,0.25,42,95,untitled,0,9
7.75,8.0,0.25,42,95,untitled,0,9
8.0,8.25,0.25,40,95,untitled,0,9
8.0,8.25,0.25,42,95,untitled,0,9
8.0,8.25,0.25,39,95,untitled,0,9
8.25,8.375,0.125,42,95,untitled,0,9
8.375,8.5,0.125,42,95,untitled,0,9
8.5,8.75,0.25,35,95,untitled,0,9
8.5,8.75,0.25,42,95,untitled,0,9
8.75,9.0,0.25,42,95,untitled,0,9
9.0,9.25,0.25,40,95,untitled,0,9
9.0,9.25,0.25,42,95,untitled,0,9
9.0,9.25,0.25,39,95,untitled,0,9
9.25,9.5,0.25,42,95,untitled,0,9
9.5,9.625,0.125,35,95,untitled,0,9
9.5,9.625,0.125,42,47,untitled,0,9
9.625,9.75,0.125,42,95,untitled,0,9
9.75,10.0,0.25,42,95,untitled,0,9
10.0,10.25,0.25,39,95,untitled,0,9
10.0,10.25,0.25,40,95,untitled,0,9
10.0,10.25,0.25,42,95,untitled,0,9
10.25,10.5,0.25,46,95,untitled,0,9
10.5,10.75,0.25,35,95,untitled,0,9
10.5,10.75,0.25,42,95,untitled,0,9
10.75,11.0,0.25,42,95,untitled,0,9
11.0,11.25,0.25,40,95,untitled,0,9
11.0,11.25,0.25,39,95,untitled,0,9
11.0,11.25,0.25,42,95,untitled,0,9
11.25,11.5,0.25,42,95,untitled,0,9
11.5,11.75,0.25,42,95,untitled,0,9
11.5,11.75,0.25,35,95,untitled,0,9
11.75,12.0,0.25,42,95,untitled,0,9
12.0,12.25,0.25,42,95,untitled,0,9
12.0,12.25,0.25,40,95,untitled,0,9
12.0,12.25,0.25,39,95,untitled,0,9
12.25,12.375,0.125,42,95,untitled,0,9
12.375,12.5,0.125,42,95,untitled,0,9
12.5,12.75,0.25,35,95,untitled,0,9
12.5,12.75,0.25,42,95,untitled,0,9
12.75,13.0,0.25,42,95,untitled,0,9
13.0,13.25,0.25,40,95,untitled,0,9
13.0,13.25,0.25,39,95,untitled,0,9
13.0,13.25,0.25,42,95,untitled,0,9
13.25,13.5,0.25,42,95,untitled,0,9
13.5,13.75,0.25,35,95,untitled,0,9
13.5,13.75,0.25,42,95,untitled,0,9
13.75,14.0,0.25,42,95,untitled,0,9
14.0,14.25,0.25,39,95,untitled,0,9
14.0,14.25,0.25,40,95,untitled,0,9
14.0,14.25,0.25,42,95,untitled,0,9
14.25,14.375,0.125,42,95,untitled,0,9
14.375,14.5,0.125,42,95,untitled,0,9
14.5,14.75,0.25,35,95,untitled,0,9
14.5,14.75,0.25,42,95,untitled,0,9
14.75,15.0,0.25,42,95,untitled,0,9
15.0,15.25,0.25,39,95,untitled,0,9
15.0,15.25,0.25,40,95,untitled,0,9
15.0,15.25,0.25,42,95,untitled,0,9
15.25,15.5,0.25,42,95,untitled,0,9
15.5,15.75,0.25,35,95,untitled,0,9
15.5,15.75,0.25,42,95,untitled,0,9
15.75,16.0,0.25,42,95,untitled,0,9
16.0,16.25,0.25,42,95,untitled,0,9
16.0,16.25,0.25,40,95,untitled,0,9
16.0,16.25,0.25,39,95,untitled,0,9
16.25,16.375,0.125,42,95,untitled,0,9
16.375,16.5,0.125,42,95,untitled,0,9
16.5,16.75,0.25,35,95,untitled,0,9
16.5,16.75,0.25,42,95,untitled,0,9
16.75,17.0,0.25,42,95,untitled,0,9
17.0,17.25,0.25,40,95,untitled,0,9
17.0,17.25,0.25,42,95,untitled,0,9
17.0,17.25,0.25,39,95,untitled,0,9
17.25,17.5,0.25,42,95,untitled,0,9
17.5,17.75,0.25,42,95,untitled,0,9
17.5,17.75,0.25,35,95,untitled,0,9
17.75,18.0,0.25,46,95,untitled,0,9
18.0,18.125,0.125,40,95,untitled,0,9
18.0,18.125,0.125,39,95,untitled,0,9
18.125,18.25,0.125,42,95,untitled,0,9
18.25,18.5,0.25,46,95,untitled,0,9
18.5,18.75,0.25,49,95,untitled,0,9
18.5,18.75,0.25,35,95,untitled,0,9
18.75,19.0,0.25,42,95,untitled,0,9
19.0,19.25,0.25,40,95,untitled,0,9
19.0,19.25,0.25,42,95,untitled,0,9
19.0,19.25,0.25,39,95,untitled,0,9
19.25,19.5,0.25,42,95,untitled,0,9
19.5,19.75,0.25,35,95,untitled,0,9
19.5,19.75,0.25,42,95,untitled,0,9
19.75,20.0,0.25,42,95,untitled,0,9
20.0,20.25,0.25,40,95,untitled,0,9
20.0,20.25,0.25,39,95,untitled,0,9
20.0,20.25,0.25,42,95,untitled,0,9
20.25,20.375,0.125,42,95,untitled,0,9
20.375,20.5,0.125,42,95,untitled,0,9
20.5,20.75,0.25,35,95,untitled,0,9
20.5,20.75,0.25,42,95,untitled,0,9
20.75,21.0,0.25,42,95,untitled,0,9
21.0,21.25,0.25,40,95,untitled,0,9
21.0,21.25,0.25,39,95,untitled,0,9
21.0,21.25,0.25,42,95,untitled,0,9
21.25,21.5,0.25,42,95,untitled,0,9
21.5,21.75,0.25,42,95,untitled,0,9
21.5,21.75,0.25,35,95,untitled,0,9
21.75,22.0,0.25,42,95,untitled,0,9
22.0,22.25,0.25,39,95,untitled,0,9
22.0,22.25,0.25,40,95,untitled,0,9
22.0,22.25,0.25,42,95,untitled,0,9
22.25,22.375,0.125,42,95,untitled,0,9
22.375,22.5,0.125,42,95,untitled,0,9
22.5,22.75,0.25,42,95,untitled,0,9
22.5,22.75,0.25,35,95,untitled,0,9
22.75,23.0,0.25,42,95,untitled,0,9
23.0,23.25,0.25,40,95,untitled,0,9
23.0,23.25,0.25,39,95,untitled,0,9
23.0,23.25,0.25,42,95,untitled,0,9
23.25,23.5,0.25,42,95,untitled,0,9
23.5,23.75,0.25,35,95,untitled,0,9
23.5,23.75,0.25,42,95,untitled,0,9
23.75,24.0,0.25,42,95,untitled,0,9
24.0,24.25,0.25,40,95,untitled,0,9
24.0,24.25,0.25,42,95,untitled,0,9
24.0,24.25,0.25,39,95,untitled,0,9
24.25,24.375,0.125,42,95,untitled,0,9
24.375,24.5,0.125,42,95,untitled,0,9
24.5,24.75,0.25,35,95,untitled,0,9
24.5,24.75,0.25,42,95,untitled,0,9
24.75,25.0,0.25,42,95,untitled,0,9
25.0,25.25,0.25,40,95,untitled,0,9
25.0,25.25,0.25,42,95,untitled,0,9
25.0,25.25,0.25,39,95,untitled,0,9
25.25,25.5,0.25,42,95,untitled,0,9
25.5,25.625,0.125,35,95,untitled,0,9
25.5,25.625,0.125,42,47,untitled,0,9
25.625,25.75,0.125,42,95,untitled,0,9
25.75,26.0,0.25,42,47,untitled,0,9
26.0,26.25,0.25,39,95,untitled,0,9
26.0,26.25,0.25,42,95,untitled,0,9
26.0,26.25,0.25,40,95,untitled,0,9
26.25,26.5,0.25,46,95,untitled,0,9
26.5,26.75,0.25,42,95,untitled,0,9
26.5,26.75,0.25,35,95,untitled,0,9
26.75,27.0,0.25,42,95,untitled,0,9
27.0,27.25,0.25,39,95,untitled,0,9
27.0,27.25,0.25,40,95,untitled,0,9
27.0,27.25,0.25,42,95,untitled,0,9
27.25,27.5,0.25,42,95,untitled,0,9
27.5,27.75,0.25,35,95,untitled,0,9
27.5,27.75,0.25,42,95,untitled,0,9
27.75,28.0,0.25,42,95,untitled,0,9
28.0,28.25,0.25,40,95,untitled,0,9
28.0,28.25,0.25,42,95,untitled,0,9
28.0,28.25,0.25,39,95,untitled,0,9
28.25,28.375,0.125,42,95,untitled,0,9
28.375,28.5,0.125,42,95,untitled,0,9
28.5,28.75,0.25,35,95,untitled,0,9
28.5,28.75,0.25,42,95,untitled,0,9
28.75,29.0,0.25,42,95,untitled,0,9
29.0,29.25,0.25,40,95,untitled,0,9
29.0,29.25,0.25,39,95,untitled,0,9
29.0,29.25,0.25,42,95,untitled,0,9
29.25,29.5,0.25,42,95,untitled,0,9
29.5,29.75,0.25,42,95,untitled,0,9
29.5,29.75,0.25,35,95,untitled,0,9
29.75,30.0,0.25,42,95,untitled,0,9
30.0,30.25,0.25,39,95,untitled,0,9
30.0,30.25,0.25,42,95,untitled,0,9
30.0,30.25,0.25,40,95,untitled,0,9
30.25,30.375,0.125,42,95,untitled,0,9
30.375,30.5,0.125,42,95,untitled,0,9
30.5,30.75,0.25,42,95,untitled,0,9
30.5,30.75,0.25,35,95,untitled,0,9
30.75,31.0,0.25,42,95,untitled,0,9
31.0,31.25,0.25,40,95,untitled,0,9
31.0,31.25,0.25,39,95,untitled,0,9
31.0,31.25,0.25,42,95,untitled,0,9
31.25,31.5,0.25,42,95,untitled,0,9
31.5,31.75,0.25,35,95,untitled,0,9
31.5,31.75,0.25,42,95,untitled,0,9
31.75,32.0,0.25,42,95,untitled,0,9
32.0,32.25,0.25,40,95,untitled,0,9
32.0,32.25,0.25,42,95,untitled,0,9
32.0,32.25,0.25,39,95,untitled,0,9
32.25,32.375,0.125,42,95,untitled,0,9
32.375,32.5,0.125,42,95,untitled,0,9
32.5,32.75,0.25,35,95,untitled,0,9
32.5,32.75,0.25,42,95,untitled,0,9
32.75,33.0,0.25,42,95,untitled,0,9
33.0,33.25,0.25,40,95,untitled,0,9
33.0,33.25,0.25,39,95,untitled,0,9
33.0,33.25,0.25,42,95,untitled,0,9
33.25,33.5,0.25,42,95,untitled,0,9
33.5,33.75,0.25,35,95,untitled,0,9
33.5,33.75,0.25,42,95,untitled,0,9
33.75,34.0,0.25,46,95,untitled,0,9
34.0,34.125,0.125,40,95,untitled,0,9
34.0,34.125,0.125,39,95,untitled,0,9
34.125,34.25,0.125,42,95,untitled,0,9
34.25,34.5,0.25,46,95,untitled,0,9
34.5,34.75,0.25,35,95,untitled,0,9
34.5,34.75,0.25,49,95,untitled,0,9
34.75,35.0,0.25,42,95,untitled,0,9
35.0,35.25,0.25,42,95,untitled,0,9
35.0,35.25,0.25,40,95,untitled,0,9
35.0,35.25,0.25,39,95,untitled,0,9
35.25,35.5,0.25,42,95,untitled,0,9
35.5,35.75,0.25,35,95,untitled,0,9
35.5,35.75,0.25,42,95,untitled,0,9
35.75,36.0,0.25,42,95,untitled,0,9
36.0,36.25,0.25,40,95,untitled,0,9
36.0,36.25,0.25,39,95,untitled,0,9
36.0,36.25,0.25,42,95,untitled,0,9
36.25,36.375,0.125,42,95,untitled,0,9
36.375,36.5,0.125,42,95,untitled,0,9
36.5,36.75,0.25,35,95,untitled,0,9
36.5,36.75,0.25,42,95,untitled,0,9
36.75,37.0,0.25,42,95,untitled,0,9
37.0,37.25,0.25,42,95,untitled,0,9
37.0,37.25,0.25,40,95,untitled,0,9
37.0,37.25,0.25,39,95,untitled,0,9
37.25,37.5,0.25,42,95,untitled,0,9
37.5,37.75,0.25,35,95,untitled,0,9
37.5,37.75,0.25,42,95,untitled,0,9
37.75,38.0,0.25,42,95,untitled,0,9
38.0,38.25,0.25,42,95,untitled,0,9
38.0,38.25,0.25,39,95,untitled,0,9
38.0,38.25,0.25,40,95,untitled,0,9
38.25,38.375,0.125,42,95,untitled,0,9
38.375,38.5,0.125,42,95,untitled,0,9
38.5,38.75,0.25,35,95,untitled,0,9
38.5,38.75,0.25,42,95,untitled,0,9
38.75,39.0,0.25,42,95,untitled,0,9
39.0,39.25,0.25,39,95,untitled,0,9
39.0,39.25,0.25,40,95,untitled,0,9
39.0,39.25,0.25,42,95,untitled,0,9
39.25,39.5,0.25,42,95,untitled,0,9
39.5,39.75,0.25,35,95,untitled,0,9
39.5,39.75,0.25,42,95,untitled,0,9
39.75,40.0,0.25,42,95,untitled,0,9
40.0,40.25,0.25,40,95,untitled,0,9
40.0,40.25,0.25,39,95,untitled,0,9
40.0,40.25,0.25,42,95,untitled,0,9
40.25,40.375,0.125,42,95,untitled,0,9
40.375,40.5,0.125,42,95,untitled,0,9
40.5,40.75,0.25,35,95,untitled,0,9
40.5,40.75,0.25,42,95,untitled,0,9
40.75,41.0,0.25,42,95,untitled,0,9
41.0,41.25,0.25,40,95,untitled,0,9
41.0,41.25,0.25,42,95,untitled,0,9
41.0,41.25,0.25,39,95,untitled,0,9
41.25,41.5,0.25,42,95,untitled,0,9
41.5,41.625,0.125,35,95,untitled,0,9
41.5,41.625,0.125,42,47,untitled,0,9
41.625,41.75,0.125,42,95,untitled,0,9
41.75,42.0,0.25,42,47,untitled,0,9
42.0,42.25,0.25,40,95,untitled,0,9
42.0,42.25,0.25,42,95,untitled,0,9
42.0,42.25,0.25,39,95,untitled,0,9
42.25,42.5,0.25,46,95,untitled,0,9
42.5,42.75,0.25,35,95,untitled,0,9
42.5,42.75,0.25,42,95,untitled,0,9
42.75,43.0,0.25,42,95,untitled,0,9
43.0,43.25,0.25,42,95,untitled,0,9
43.0,43.25,0.25,40,95,untitled,0,9
43.0,43.25,0.25,39,95,untitled,0,9
43.25,43.5,0.25,42,95,untitled,0,9
43.5,43.75,0.25,35,95,untitled,0,9
43.5,43.75,0.25,42,95,untitled,0,9
43.75,44.0,0.25,42,95,untitled,0,9
44.0,44.25,0.25,40,95,untitled,0,9
44.0,44.25,0.25,39,95,untitled,0,9
44.0,44.25,0.25,42,95,untitled,0,9
44.25,44.375,0.125,42,95,untitled,0,9
44.375,44.5,0.125,42,95,untitled,0,9
44.5,44.75,0.25,35,95,untitled,0,9
44.5,44.75,0.25,42,95,untitled,0,9
44.75,45.0,0.25,42,95,untitled,0,9
45.0,45.25,0.25,42,95,untitled,0,9
45.0,45.25,0.25,40,95,untitled,0,9
45.0,45.25,0.25,39,95,untitled,0,9
45.25,45.5,0.25,42,95,untitled,0,9
45.5,45.75,0.25,35,95,untitled,0,9
45.5,45.75,0.25,42,95,untitled,0,9
45.75,46.0,0.25,42,95,untitled,0,9
46.0,46.25,0.25,42,95,untitled,0,9
46.0,46.25,0.25,39,95,untitled,0,9
46.0,46.25,0.25,40,95,untitled,0,9
46.25,46.375,0.125,42,95,untitled,0,9
46.375,46.5,0.125,42,95,untitled,0,9
46.5,46.75,0.25,35,95,untitled,0,9
46.5,46.75,0.25,42,95,untitled,0,9
46.75,47.0,0.25,42,95,untitled,0,9
47.0,47.25,0.25,39,95,untitled,0,9
47.0,47.25,0.25,40,95,untitled,0,9
47.0,47.25,0.25,42,95,untitled,0,9
47.25,47.5,0.25,42,95,untitled,0,9
47.5,47.75,0.25,35,95,untitled,0,9
47.5,47.75,0.25,42,95,untitled,0,9
47.75,48.0,0.25,42,95,untitled,0,9
48.0,48.25,0.25,40,95,untitled,0,9
48.0,48.25,0.25,39,95,untitled,0,9
48.0,48.25,0.25,42,95,untitled,0,9
48.25,48.375,0.125,42,95,untitled,0,9
48.375,48.5,0.125,42,95,untitled,0,9
48.5,48.75,0.25,35,95,untitled,0,9
48.5,48.75,0.25,42,95,untitled,0,9
48.75,49.0,0.25,42,95,untitled,0,9
49.0,49.25,0.25,40,95,untitled,0,9
49.0,49.25,0.25,42,95,untitled,0,9
49.0,49.25,0.25,39,95,untitled,0,9
49.25,49.5,0.25,42,95,untitled,0,9
49.5,49.75,0.25,35,95,untitled,0,9
49.5,49.75,0.25,42,95,untitled,0,9
49.75,50.0,0.25,46,95,untitled,0,9
50.0,50.125,0.125,40,95,untitled,0,9
50.0,50.125,0.125,39,95,untitled,0,9
50.125,50.25,0.125,42,95,untitled,0,9
50.25,50.5,0.25,46,95,untitled,0,9
50.5,50.75,0.25,35,95,untitled,0,9
50.5,50.75,0.25,49,95,untitled,0,9
50.75,51.0,0.25,42,95,untitled,0,9
51.0,51.25,0.25,39,95,untitled,0,9
51.0,51.25,0.25,42,95,untitled,0,9
51.0,51.25,0.25,40,95,untitled,0,9
51.25,51.5,0.25,42,95,untitled,0,9
51.5,51.75,0.25,42,95,untitled,0,9
51.5,51.75,0.25,35,95,untitled,0,9
51.75,52.0,0.25,42,95,untitled,0,9
52.0,52.25,0.25,40,95,untitled,0,9
52.0,52.25,0.25,39,95,untitled,0,9
52.0,52.25,0.25,42,95,untitled,0,9
52.25,52.375,0.125,42,95,untitled,0,9
52.375,52.5,0.125,42,95,untitled,0,9
52.5,52.75,0.25,35,95,untitled,0,9
52.5,52.75,0.25,42,95,untitled,0,9
52.75,53.0,0.25,42,95,untitled,0,9
53.0,53.25,0.25,40,95,untitled,0,9
53.0,53.25,0.25,42,95,untitled,0,9
53.0,53.25,0.25,39,95,untitled,0,9
53.25,53.5,0.25,42,95,untitled,0,9
53.5,53.75,0.25,35,95,untitled,0,9
53.5,53.75,0.25,42,95,untitled,0,9
53.75,54.0,0.25,42,95,untitled,0,9
54.0,54.25,0.25,39,95,untitled,0,9
54.0,54.25,0.25,42,95,untitled,0,9
54.0,54.25,0.25,40,95,untitled,0,9
54.25,54.375,0.125,42,95,untitled,0,9
54.375,54.5,0.125,42,95,untitled,0,9
54.5,54.75,0.25,35,95,untitled,0,9
54.5,54.75,0.25,42,95,untitled,0,9
54.75,55.0,0.25,42,95,untitled,0,9
55.0,55.25,0.25,40,95,untitled,0,9
55.0,55.25,0.25,42,95,untitled,0,9
55.0,55.25,0.25,39,95,untitled,0,9
55.25,55.5,0.25,42,95,untitled,0,9
55.5,55.75,0.25,35,95,untitled,0,9
55.5,55.75,0.25,42,95,untitled,0,9
55.75,56.0,0.25,42,95,untitled,0,9
56.0,56.25,0.25,42,95,untitled,0,9
56.0,56.25,0.25,39,95,untitled,0,9
56.0,56.25,0.25,40,95,untitled,0,9
56.25,56.375,0.125,42,95,untitled,0,9
56.375,56.5,0.125,42,95,untitled,0,9
56.5,56.75,0.25,35,95,untitled,0,9
56.5,56.75,0.25,42,95,untitled,0,9
56.75,57.0,0.25,42,95,untitled,0,9
57.0,57.25,0.25,39,95,untitled,0,9
57.0,57.25,0.25,40,95,untitled,0,9
57.0,57.25,0.25,42,95,untitled,0,9
57.25,57.5,0.25,42,95,untitled,0,9
57.5,57.625,0.125,35,95,untitled,0,9
57.5,57.625,0.125,42,47,untitled,0,9
57.625,57.75,0.125,42,95,untitled,0,9
57.75,58.0,0.25,42,47,untitled,0,9
58.0,58.25,0.25,40,95,untitled,0,9
58.0,58.25,0.25,42,95,untitled,0,9
58.0,58.25,0.25,39,95,untitled,0,9
58.25,58.5,0.25,46,95,untitled,0,9
58.5,58.75,0.25,35,95,untitled,0,9
58.5,58.75,0.25,42,95,untitled,0,9
58.75,59.0,0.25,42,95,untitled,0,9
59.0,59.25,0.25,39,95,untitled,0,9
59.0,59.25,0.25,42,95,untitled,0,9
59.0,59.25,0.25,40,95,untitled,0,9
59.25,59.5,0.25,42,95,untitled,0,9
59.5,59.75,0.25,42,95,untitled,0,9
59.5,59.75,0.25,35,95,untitled,0,9
59.75,60.0,0.25,42,95,untitled,0,9
60.0,60.25,0.25,39,95,untitled,0,9
60.0,60.25,0.25,42,95,untitled,0,9
60.0,60.25,0.25,40,95,untitled,0,9
60.25,60.375,0.125,42,95,untitled,0,9
60.375,60.5,0.125,42,95,untitled,0,9
60.5,60.75,0.25,35,95,untitled,0,9
60.5,60.75,0.25,42,95,untitled,0,9
60.75,61.0,0.25,42,95,untitled,0,9
61.0,61.25,0.25,40,95,untitled,0,9
61.0,61.25,0.25,42,95,untitled,0,9
61.0,61.25,0.25,39,95,untitled,0,9
61.25,61.5,0.25,42,95,untitled,0,9
61.5,61.75,0.25,35,95,untitled,0,9
61.5,61.75,0.25,42,95,untitled,0,9
61.75,62.0,0.25,42,95,untitled,0,9
62.0,62.25,0.25,39,95,untitled,0,9
62.0,62.25,0.25,42,95,untitled,0,9
62.0,62.25,0.25,40,95,untitled,0,9
62.25,62.375,0.125,42,95,untitled,0,9
62.375,62.5,0.125,42,95,untitled,0,9
62.5,62.75,0.25,35,95,untitled,0,9
62.5,62.75,0.25,42,95,untitled,0,9
62.75,63.0,0.25,42,95,untitled,0,9
63.0,63.25,0.25,39,95,untitled,0,9
63.0,63.25,0.25,40,95,untitled,0,9
63.0,63.25,0.25,42,95,untitled,0,9
63.25,63.5,0.25,42,95,untitled,0,9
63.5,63.75,0.25,35,95,untitled,0,9
63.5,63.75,0.25,42,95,untitled,0,9
63.75,64.0,0.25,42,95,untitled,0,9
64.0,64.25,0.25,40,95,untitled,0,9
64.0,64.25,0.25,39,95,untitled,0,9
64.0,64.25,0.25,42,95,untitled,0,9
64.25,64.375,0.125,42,95,untitled,0,9
64.375,64.5,0.125,42,95,untitled,0,9
64.5,64.75,0.25,35,95,untitled,0,9
64.5,64.75,0.25,42,95,untitled,0,9
64.75,65.0,0.25,42,95,untitled,0,9
65.0,65.25,0.25,42,95,untitled,0,9
65.0,65.25,0.25,39,95,untitled,0,9
65.0,65.25,0.25,40,95,untitled,0,9
65.25,65.5,0.25,42,95,untitled,0,9
65.5,65.75,0.25,35,95,untitled,0,9
65.5,65.75,0.25,42,95,untitled,0,9
65.75,66.0,0.25,46,95,untitled,0,9
66.0,66.125,0.125,40,95,untitled,0,9
66.0,66.125,0.125,39,95,untitled,0,9
66.125,66.25,0.125,42,95,untitled,0,9
66.25,66.5,0.25,46,95,untitled,0,9
66.5,66.75,0.25,35,95,untitled,0,9
66.5,66.75,0.25,49,95,untitled,0,9
66.75,67.0,0.25,42,95,untitled,0,9
67.0,67.25,0.25,39,95,untitled,0,9
67.0,67.25,0.25,40,95,untitled,0,9
67.0,67.25,0.25,42,95,untitled,0,9
67.25,67.5,0.25,42,95,untitled,0,9
67.5,67.75,0.25,42,95,untitled,0,9
67.5,67.75,0.25,35,95,untitled,0,9
67.75,68.0,0.25,42,95,untitled,0,9
68.0,68.25,0.25,40,95,untitled,0,9
68.0,68.25,0.25,42,95,untitled,0,9
68.0,68.25,0.25,39,95,untitled,0,9
68.25,68.375,0.125,42,95,untitled,0,9
68.375,68.5,0.125,42,95,untitled,0,9
68.5,68.75,0.25,35,95,untitled,0,9
68.5,68.75,0.25,42,95,untitled,0,9
68.75,69.0,0.25,42,95,untitled,0,9
69.0,69.25,0.25,39,95,untitled,0,9
69.0,69.25,0.25,40,95,untitled,0,9
69.0,69.25,0.25,42,95,untitled,0,9
69.25,69.5,0.25,42,95,untitled,0,9
69.5,69.75,0.25,42,95,untitled,0,9
69.5,69.75,0.25,35,95,untitled,0,9
69.75,70.0,0.25,42,95,untitled,0,9
70.0,70.25,0.25,40,95,untitled,0,9
70.0,70.25,0.25,42,95,untitled,0,9
70.0,70.25,0.25,39,95,untitled,0,9
70.25,70.375,0.125,42,95,untitled,0,9
70.375,70.5,0.125,42,95,untitled,0,9
70.5,70.75,0.25,35,95,untitled,0,9
70.5,70.75,0.25,42,95,untitled,0,9
70.75,71.0,0.25,42,95,untitled,0,9
71.0,71.25,0.25,39,95,untitled,0,9
71.0,71.25,0.25,40,95,untitled,0,9
71.0,71.25,0.25,42,95,untitled,0,9
71.25,71.5,0.25,42,95,untitled,0,9
71.5,71.75,0.25,42,95,untitled,0,9
71.5,71.75,0.25,35,95,untitled,0,9
71.75,72.0,0.25,42,95,untitled,0,9
72.0,72.25,0.25,39,95,untitled,0,9
72.0,72.25,0.25,42,95,untitled,0,9
72.0,72.25,0.25,40,95,untitled,0,9
72.25,72.375,0.125,42,95,untitled,0,9
72.375,72.5,0.125,42,95,untitled,0,9
72.5,72.75,0.25,35,95,untitled,0,9
72.5,72.75,0.25,42,95,untitled,0,9
72.75,73.0,0.25,42,95,untitled,0,9
73.0,73.25,0.25,39,95,untitled,0,9
73.0,73.25,0.25,40,95,untitled,0,9
73.0,73.25,0.25,42,95,untitled,0,9
73.25,73.5,0.25,42,95,untitled,0,9
73.5,73.625,0.125,35,95,untitled,0,9
73.5,73.625,0.125,42,47,untitled,0,9
73.625,73.75,0.125,42,95,untitled,0,9
73.75,74.0,0.25,42,47,untitled,0,9
74.0,74.25,0.25,40,95,untitled,0,9
74.0,74.25,0.25,42,95,untitled,0,9
74.0,74.25,0.25,39,95,untitled,0,9
74.25,74.5,0.25,46,95,untitled,0,9
74.5,74.75,0.25,35,95,untitled,0,9
74.5,74.75,0.25,42,95,untitled,0,9
74.75,75.0,0.25,42,95,untitled,0,9
75.0,75.25,0.25,40,95,untitled,0,9
75.0,75.25,0.25,39,95,untitled,0,9
75.0,75.25,0.25,42,95,untitled,0,9
75.25,75.5,0.25,42,95,untitled,0,9
75.5,75.75,0.25,42,95,untitled,0,9
75.5,75.75,0.25,35,95,untitled,0,9
75.75,76.0,0.25,42,95,untitled,0,9
76.0,76.25,0.25,42,95,untitled,0,9
76.0,76.25,0.25,40,95,untitled,0,9
76.0,76.25,0.25,39,95,untitled,0,9
76.25,76.375,0.125,42,95,untitled,0,9
76.375,76.5,0.125,42,95,untitled,0,9
76.5,76.75,0.25,35,95,untitled,0,9
76.5,76.75,0.25,42,95,untitled,0,9
76.75,77.0,0.25,42,95,untitled,0,9
77.0,77.25,0.25,40,95,untitled,0,9
77.0,77.25,0.25,39,95,untitled,0,9
77.0,77.25,0.25,42,95,untitled,0,9
77.25,77.5,0.25,42,95,untitled,0,9
77.5,77.75,0.25,35,95,untitled,0,9
77.5,77.75,0.25,42,95,untitled,0,9
77.75,78.0,0.25,42,95,untitled,0,9
78.0,78.25,0.25,39,95,untitled,0,9
78.0,78.25,0.25,40,95,untitled,0,9
78.0,78.25,0.25,42,95,untitled,0,9
78.25,78.375,0.125,42,95,untitled,0,9
78.375,78.5,0.125,42,95,untitled,0,9
78.5,78.75,0.25,35,95,untitled,0,9
78.5,78.75,0.25,42,95,untitled,0,9
78.75,79.0,0.25,42,95,untitled,0,9
79.0,79.25,0.25,39,95,untitled,0,9
79.0,79.25,0.25,40,95,untitled,0,9
79.0,79.25,0.25,42,95,untitled,0,9
79.25,79.5,0.25,42,95,untitled,0,9
79.5,79.75,0.25,35,95,untitled,0,9
79.5,79.75,0.25,42,95,untitled,0,9
79.75,80.0,0.25,42,95,untitled,0,9
80.0,80.25,0.25,42,95,untitled,0,9
80.0,80.25,0.25,40,95,untitled,0,9
80.0,80.25,0.25,39,95,untitled,0,9
80.25,80.375,0.125,42,95,untitled,0,9
80.375,80.5,0.125,42,95,untitled,0,9
80.5,80.75,0.25,35,95,untitled,0,9
80.5,80.75,0.25,42,95,untitled,0,9
80.75,81.0,0.25,42,95,untitled,0,9
81.0,81.25,0.25,40,95,untitled,0,9
81.0,81.25,0.25,42,95,untitled,0,9
81.0,81.25,0.25,39,95,untitled,0,9
81.25,81.5,0.25,42,95,untitled,0,9
81.5,81.75,0.25,42,95,untitled,0,9
81.5,81.75,0.25,35,95,untitled,0,9
81.75,82.0,0.25,46,95,untitled,0,9
82.0,82.125,0.125,40,95,untitled,0,9
82.0,82.125,0.125,39,95,untitled,0,9
82.125,82.25,0.125,42,95,untitled,0,9
82.25,82.5,0.25,46,95,untitled,0,9
82.5,82.75,0.25,49,95,untitled,0,9
82.5,82.75,0.25,35,95,untitled,0,9
82.75,83.0,0.25,42,95,untitled,0,9
83.0,83.25,0.25,40,95,untitled,0,9
83.0,83.25,0.25,42,95,untitled,0,9
83.0,83.25,0.25,39,95,untitled,0,9
83.25,83.5,0.25,42,95,untitled,0,9
83.5,83.75,0.25,35,95,untitled,0,9
83.5,83.75,0.25,42,95,untitled,0,9
83.75,84.0,0.25,42,95,untitled,0,9
84.0,84.25,0.25,40,95,untitled,0,9
84.0,84.25,0.25,39,95,untitled,0,9
84.0,84.25,0.25,42,95,untitled,0,9
84.25,84.375,0.125,42,95,untitled,0,9
84.375,84.5,0.125,42,95,untitled,0,9
84.5,84.75,0.25,35,95,untitled,0,9
84.5,84.75,0.25,42,95,untitled,0,9
84.75,85.0,0.25,42,95,untitled,0,9
85.0,85.25,0.25,40,95,untitled,0,9
85.0,85.25,0.25,39,95,untitled,0,9
85.0,85.25,0.25,42,95,untitled,0,9
85.25,85.5,0.25,42,95,untitled,0,9
85.5,85.75,0.25,42,95,untitled,0,9
85.5,85.75,0.25,35,95,untitled,0,9
85.75,86.0,0.25,42,95,untitled,0,9
86.0,86.25,0.25,40,95,untitled,0,9
86.0,86.25,0.25,39,95,untitled,0,9
86.0,86.25,0.25,42,95,untitled,0,9
86.25,86.375,0.125,42,95,untitled,0,9
86.375,86.5,0.125,42,95,untitled,0,9
86.5,86.75,0.25,42,95,untitled,0,9
86.5,86.75,0.25,35,95,untitled,0,9
86.75,87.0,0.25,42,95,untitled,0,9
87.0,87.25,0.25,40,95,untitled,0,9
87.0,87.25,0.25,39,95,untitled,0,9
87.0,87.25,0.25,42,95,untitled,0,9
87.25,87.5,0.25,42,95,untitled,0,9
87.5,87.75,0.25,35,95,untitled,0,9
87.5,87.75,0.25,42,95,untitled,0,9
87.75,88.0,0.25,42,95,untitled,0,9
88.0,88.25,0.25,40,95,untitled,0,9
88.0,88.25,0.25,42,95,untitled,0,9
88.0,88.25,0.25,39,95,untitled,0,9
88.25,88.375,0.125,42,95,untitled,0,9
88.375,88.5,0.125,42,95,untitled,0,9
88.5,88.75,0.25,35,95,untitled,0,9
88.5,88.75,0.25,42,95,untitled,0,9
88.75,89.0,0.25,42,95,untitled,0,9
89.0,89.25,0.25,40,95,untitled,0,9
89.0,89.25,0.25,42,95,untitled,0,9
89.0,89.25,0.25,39,95,untitled,0,9
89.25,89.5,0.25,42,95,untitled,0,9
89.5,89.625,0.125,35,95,untitled,0,9
89.5,89.625,0.125,42,47,untitled,0,9
89.625,89.75,0.125,42,95,untitled,0,9
89.75,90.0,0.25,42,47,untitled,0,9
90.0,90.25,0.25,39,95,untitled,0,9
90.0,90.25,0.25,42,95,untitled,0,9
90.0,90.25,0.25,40,95,untitled,0,9
90.25,90.5,0.25,46,95,untitled,0,9
90.5,90.75,0.25,42,95,untitled,0,9
90.5,90.75,0.25,35,95,untitled,0,9
90.75,91.0,0.25,42,95,untitled,0,9
91.0,91.25,0.25,39,95,untitled,0,9
91.0,91.25,0.25,40,95,untitled,0,9
91.0,91.25,0.25,42,95,untitled,0,9
91.25,91.5,0.25,42,95,untitled,0,9
91.5,91.75,0.25,35,95,untitled,0,9
91.5,91.75,0.25,42,95,untitled,0,9
91.75,92.0,0.25,42,95,untitled,0,9
92.0,92.25,0.25,40,95,untitled,0,9
92.0,92.25,0.25,42,95,untitled,0,9
92.0,92.25,0.25,39,95,untitled,0,9
92.25,92.375,0.125,42,95,untitled,0,9
92.375,92.5,0.125,42,95,untitled,0,9
92.5,92.75,0.25,35,95,untitled,0,9
92.5,92.75,0.25,42,95,untitled,0,9
92.75,93.0,0.25,42,95,untitled,0,9
93.0,93.25,0.25,40,95,untitled,0,9
93.0,93.25,0.25,39,95,untitled,0,9
93.0,93.25,0.25,42,95,untitled,0,9
93.25,93.5,0.25,42,95,untitled,0,9
93.5,93.75,0.25,42,95,untitled,0,9
93.5,93.75,0.25,35,95,untitled,0,9
93.75,94.0,0.25,42,95,untitled,0,9
94.0,94.25,0.25,39,95,untitled,0,9
94.0,94.25,0.25,42,95,untitled,0,9
94.0,94.25,0.25,40,95,untitled,0,9
94.25,94.375,0.125,42,95,untitled,0,9
94.375,94.5,0.125,42,95,untitled,0,9
94.5,94.75,0.25,42,95,untitled,0,9
94.5,94.75,0.25,35,95,untitled,0,9
94.75,95.0,0.25,42,95,untitled,0,9
95.0,95.25,0.25,40,95,untitled,0,9
95.0,95.25,0.25,39,95,untitled,0,9
95.0,95.25,0.25,42,95,untitled,0,9
95.25,95.5,0.25,42,95,untitled,0,9
95.5,95.75,0.25,35,95,untitled,0,9
95.5,95.75,0.25,42,95,untitled,0,9
95.75,96.0,0.25,42,95,untitled,0,9
96.0,96.25,0.25,40,95,untitled,0,9
96.0,96.25,0.25,42,95,untitled,0,9
96.0,96.25,0.25,39,95,untitled,0,9
96.25,96.375,0.125,42,95,untitled,0,9
96.375,96.5,0.125,42,95,untitled,0,9
96.5,96.75,0.25,35,95,untitled,0,9
96.5,96.75,0.25,42,95,untitled,0,9
96.75,97.0,0.25,42,95,untitled,0,9
97.0,97.25,0.25,40,95,untitled,0,9
97.0,97.25,0.25,39,95,untitled,0,9
97.0,97.25,0.25,42,95,untitled,0,9
97.25,97.5,0.25,42,95,untitled,0,9
97.5,97.75,0.25,35,95,untitled,0,9
97.5,97.75,0.25,42,95,untitled,0,9
97.75,98.0,0.25,46,95,untitled,0,9
98.0,98.125,0.125,40,95,untitled,0,9
98.0,98.125,0.125,39,95,untitled,0,9
98.125,98.25,0.125,42,95,untitled,0,9
98.25,98.5,0.25,46,95,untitled,0,9
98.5,98.75,0.25,35,95,untitled,0,9
98.5,98.75,0.25,49,95,untitled,0,9
98.75,99.0,0.25,42,95,untitled,0,9
99.0,99.25,0.25,42,95,untitled,0,9
99.0,99.25,0.25,40,95,untitled,0,9
99.0,99.25,0.25,39,95,untitled,0,9
99.25,99.5,0.25,42,95,untitled,0,9
99.5,99.75,0.25,35,95,untitled,0,9
99.5,99.75,0.25,42,95,untitled,0,9
99.75,100.0,0.25,42,95,untitled,0,9
100.0,100.25,0.25,40,95,untitled,0,9
100.0,100.25,0.25,39,95,untitled,0,9
100.0,100.25,0.25,42,95,untitled,0,9
100.25,100.375,0.125,42,95,untitled,0,9
100.375,100.5,0.125,42,95,untitled,0,9
100.5,100.75,0.25,35,95,untitled,0,9
100.5,100.75,0.25,42,95,untitled,0,9
100.75,101.0,0.25,42,95,untitled,0,9
101.0,101.25,0.25,42,95,untitled,0,9
101.0,101.25,0.25,40,95,untitled,0,9
101.0,101.25,0.25,39,95,untitled,0,9
101.25,101.5,0.25,42,95,untitled,0,9
101.5,101.75,0.25,35,95,untitled,0,9
101.5,101.75,0.25,42,95,untitled,0,9
101.75,102.0,0.25,42,95,untitled,0,9
102.0,102.25,0.25,42,95,untitled,0,9
102.0,102.25,0.25,39,95,untitled,0,9
102.0,102.25,0.25,40,95,untitled,0,9
102.25,102.375,0.125,42,95,untitled,0,9
102.375,102.5,0.125,42,95,untitled,0,9
102.5,102.75,0.25,35,95,untitled,0,9
102.5,102.75,0.25,42,95,untitled,0,9
102.75,103.0,0.25,42,95,untitled,0,9
103.0,103.25,0.25,39,95,untitled,0,9
103.0,103.25,0.25,40,95,untitled,0,9
103.0,103.25,0.25,42,95,untitled,0,9
103.25,103.5,0.25,42,95,untitled,0,9
103.5,103.75,0.25,35,95,untitled,0,9
103.5,103.75,0.25,42,95,untitled,0,9
103.75,104.0,0.25,42,95,untitled,0,9
104.0,104.25,0.25,40,95,untitled,0,9
104.0,104.25,0.25,39,95,untitled,0,9
104.0,104.25,0.25,42,95,untitled,0,9
104.25,104.375,0.125,42,95,untitled,0,9
104.375,104.5,0.125,42,95,untitled,0,9
104.5,104.75,0.25,35,95,untitled,0,9
104.5,104.75,0.25,42,95,untitled,0,9
104.75,105.0,0.25,42,95,untitled,0,9
105.0,105.25,0.25,40,95,untitled,0,9
105.0,105.25,0.25,42,95,untitled,0,9
105.0,105.25,0.25,39,95,untitled,0,9
105.25,105.5,0.25,42,95,untitled,0,9
105.5,105.625,0.125,35,95,untitled,0,9
105.5,105.625,0.125,42,47,untitled,0,9
105.625,105.75,0.125,42,95,untitled,0,9
105.75,106.0,0.25,42,47,untitled,0,9
106.0,106.25,0.25,40,95,untitled,0,9
106.0,106.25,0.25,42,95,untitled,0,9
106.0,106.25,0.25,39,95,untitled,0,9
106.25,106.5,0.25,46,95,untitled,0,9
106.5,106.75,0.25,35,95,untitled,0,9
106.5,106.75,0.25,42,95,untitled,0,9
106.75,107.0,0.25,42,95,untitled,0,9
107.0,107.25,0.25,42,95,untitled,0,9
107.0,107.25,0.25,40,95,untitled,0,9
107.0,107.25,0.25,39,95,untitled,0,9
107.25,107.5,0.25,42,95,untitled,0,9
107.5,107.75,0.25,35,95,untitled,0,9
107.5,107.75,0.25,42,95,untitled,0,9
107.75,108.0,0.25,42,95,untitled,0,9
108.0,108.25,0.25,40,95,untitled,0,9
108.0,108.25,0.25,39,95,untitled,0,9
108.0,108.25,0.25,42,95,untitled,0,9
108.25,108.375,0.125,42,95,untitled,0,9
108.375,108.5,0.125,42,95,untitled,0,9
108.5,108.75,0.25,35,95,untitled,0,9
108.5,108.75,0.25,42,95,untitled,0,9
108.75,109.0,0.25,42,95,untitled,0,9
109.0,109.25,0.25,42,95,untitled,0,9
109.0,109.25,0.25,40,95,untitled,0,9
109.0,109.25,0.25,39,95,untitled,0,9
109.25,109.5,0.25,42,95,untitled,0,9
109.5,109.75,0.25,35,95,untitled,0,9
109.5,109.75,0.25,42,95,untitled,0,9
109.75,110.0,0.25,42,95,untitled,0,9
110.0,110.25,0.25,42,95,untitled,0,9
110.0,110.25,0.25,39,95,untitled,0,9
110.0,110.25,0.25,40,95,untitled,0,9
110.25,110.375,0.125,42,95,untitled,0,9
110.375,110.5,0.125,42,95,untitled,0,9
110.5,110.75,0.25,35,95,untitled,0,9
110.5,110.75,0.25,42,95,untitled,0,9
110.75,111.0,0.25,42,95,untitled,0,9
111.0,111.25,0.25,39,95,untitled,0,9
111.0,111.25,0.25,40,95,untitled,0,9
111.0,111.25,0.25,42,95,untitled,0,9
111.25,111.5,0.25,42,95,untitled,0,9
111.5,111.75,0.25,35,95,untitled,0,9
111.5,111.75,0.25,42,95,untitled,0,9
111.75,112.0,0.25,42,95,untitled,0,9
112.0,112.25,0.25,40,95,untitled,0,9
112.0,112.25,0.25,39,95,untitled,0,9
112.0,112.25,0.25,42,95,untitled,0,9
112.25,112.375,0.125,42,95,untitled,0,9
112.375,112.5,0.125,42,95,untitled,0,9
112.5,112.75,0.25,35,95,untitled,0,9
112.5,112.75,0.25,42,95,untitled,0,9
112.75,113.0,0.25,42,95,untitled,0,9
113.0,113.25,0.25,40,95,untitled,0,9
113.0,113.25,0.25,42,95,untitled,0,9
113.0,113.25,0.25,39,95,untitled,0,9
113.25,113.5,0.25,42,95,untitled,0,9
113.5,113.75,0.25,35,95,untitled,0,9
113.5,113.75,0.25,42,95,untitled,0,9
113.75,114.0,0.25,46,95,untitled,0,9
114.0,114.125,0.125,40,95,untitled,0,9
114.0,114.125,0.125,39,95,untitled,0,9
114.125,114.25,0.125,42,95,untitled,0,9
114.25,114.5,0.25,46,95,untitled,0,9
114.5,114.75,0.25,35,95,untitled,0,9
114.5,114.75,0.25,49,95,untitled,0,9
114.75,115.0,0.25,42,95,untitled,0,9
115.0,115.25,0.25,39,95,untitled,0,9
115.0,115.25,0.25,42,95,untitled,0,9
115.0,115.25,0.25,40,95,untitled,0,9
115.25,115.5,0.25,42,95,untitled,0,9
115.5,115.75,0.25,42,95,untitled,0,9
115.5,115.75,0.25,35,95,untitled,0,9
115.75,116.0,0.25,42,95,untitled,0,9
116.0,116.25,0.25,39,95,untitled,0,9
116.0,116.25,0.25,40,95,untitled,0,9
116.0,116.25,0.25,42,95,untitled,0,9
116.25,116.375,0.125,42,95,untitled,0,9
116.375,116.5,0.125,42,95,untitled,0,9
116.5,116.75,0.25,35,95,untitled,0,9
116.5,116.75,0.25,42,95,untitled,0,9
116.75,117.0,0.25,42,95,untitled,0,9
117.0,117.25,0.25,40,95,untitled,0,9
117.0,117.25,0.25,42,95,untitled,0,9
117.0,117.25,0.25,39,95,untitled,0,9
117.25,117.5,0.25,42,95,untitled,0,9
117.5,117.75,0.25,35,95,untitled,0,9
117.5,117.75,0.25,42,95,untitled,0,9
117.75,118.0,0.25,42,95,untitled,0,9
118.0,118.25,0.25,42,95,untitled,0,9
118.0,118.25,0.25,39,95,untitled,0,9
118.0,118.25,0.25,40,95,untitled,0,9
118.25,118.375,0.125,42,95,untitled,0,9
118.375,118.5,0.125,42,95,untitled,0,9
118.5,118.75,0.25,35,95,untitled,0,9
118.5,118.75,0.25,42,95,untitled,0,9
118.75,119.0,0.25,42,95,untitled,0,9
119.0,119.25,0.25,39,95,untitled,0,9
119.0,119.25,0.25,40,95,untitled,0,9
119.0,119.25,0.25,42,95,untitled,0,9
119.25,119.5,0.25,42,95,untitled,0,9
119.5,119.75,0.25,42,95,untitled,0,9
119.5,119.75,0.25,35,95,untitled,0,9
119.75,120.0,0.25,42,95,untitled,0,9
120.0,120.25,0.25,40,95,untitled,0,9
120.0,120.25,0.25,39,95,untitled,0,9
120.0,120.25,0.25,42,95,untitled,0,9
120.25,120.375,0.125,42,95,untitled,0,9
120.375,120.5,0.125,42,95,untitled,0,9
120.5,120.75,0.25,35,95,untitled,0,9
120.5,120.75,0.25,42,95,untitled,0,9
120.75,121.0,0.25,42,95,untitled,0,9
121.0,121.25,0.25,42,95,untitled,0,9
121.0,121.25,0.25,39,95,untitled,0,9
121.0,121.25,0.25,40,95,untitled,0,9
121.25,121.5,0.25,42,95,untitled,0,9
121.5,121.625,0.125,35,95,untitled,0,9
121.5,121.625,0.125,42,47,untitled,0,9
121.625,121.75,0.125,42,95,untitled,0,9
121.75,122.0,0.25,42,47,untitled,0,9
122.0,122.25,0.25,40,95,untitled,0,9
122.0,122.25,0.25,42,95,untitled,0,9
122.0,122.25,0.25,39,95,untitled,0,9
122.25,122.5,0.25,46,95,untitled,0,9
123.0,123.5,0.5,39,95,untitled,0,9
124.0,124.5,0.5,39,95,untitled,0,9
125.0,125.5,0.5,39,95,untitled,0,9
126.0,126.5,0.5,39,95,untitled,0,9
127.0,127.5,0.5,39,95,untitled,0,9
128.0,128.5,0.5,39,95,untitled,0,9
129.0,129.5,0.5,39,95,untitled,0,9
130.0,130.5,0.5,39,95,untitled,0,9
131.0,131.5,0.5,39,95,untitled,0,9
132.0,132.5,0.5,39,95,untitled,0,9
133.0,133.5,0.5,39,95,untitled,0,9
134.0,134.5,0.5,39,95,untitled,0,9
135.0,135.5,0.5,39,95,untitled,0,9
136.0,136.5,0.5,39,95,untitled,0,9
137.0,137.5,0.5,39,95,untitled,0,9
137.5,137.625,0.125,42,95,untitled,0,9
137.625,137.75,0.125,42,47,untitled,0,9
137.75,138.0,0.25,46,95,untitled,0,9
138.0,138.125,0.125,40,95,untitled,0,9
138.0,138.125,0.125,39,95,untitled,0,9
138.0,138.125,0.125,42,95,untitled,0,9
138.125,138.25,0.125,42,95,untitled,0,9
138.25,138.5,0.25,46,95,untitled,0,9
138.5,138.625,0.125,46,95,untitled,0,9
138.5,138.625,0.125,49,95,untitled,0,9
138.5,138.625,0.125,35,95,untitled,0,9
138.625,138.75,0.125,42,95,untitled,0,9
138.75,138.875,0.125,42,95,untitled,0,9
138.875,139.0,0.125,42,95,untitled,0,9
139.0,139.125,0.125,40,95,untitled,0,9
139.0,139.125,0.125,46,95,untitled,0,9
139.0,139.125,0.125,39,95,untitled,0,9
139.125,139.25,0.125,42,95,untitled,0,9
139.25,139.375,0.125,42,95,untitled,0,9
139.375,139.5,0.125,42,95,untitled,0,9
139.5,139.625,0.125,35,95,untitled,0,9
139.5,139.625,0.125,46,95,untitled,0,9
139.625,139.75,0.125,42,95,untitled,0,9
139.75,139.875,0.125,42,95,untitled,0,9
139.875,140.0,0.125,42,95,untitled,0,9
140.0,140.125,0.125,40,95,untitled,0,9
140.0,140.125,0.125,39,95,untitled,0,9
140.0,140.125,0.125,46,95,untitled,0,9
140.125,140.25,0.125,42,95,untitled,0,9
140.25,140.375,0.125,42,95,untitled,0,9
140.375,140.5,0.125,42,95,untitled,0,9
140.5,140.625,0.125,46,95,untitled,0,9
140.5,140.625,0.125,35,95,untitled,0,9
140.625,140.75,0.125,42,95,untitled,0,9
140.75,140.875,0.125,42,95,untitled,0,9
140.875,141.0,0.125,42,95,untitled,0,9
141.0,141.125,0.125,40,95,untitled,0,9
141.0,141.125,0.125,46,95,untitled,0,9
141.0,141.125,0.125,39,95,untitled,0,9
141.125,141.25,0.125,42,95,untitled,0,9
141.25,141.375,0.125,42,95,untitled,0,9
141.375,141.5,0.125,42,95,untitled,0,9
141.5,141.625,0.125,35,95,untitled,0,9
141.5,141.625,0.125,46,95,untitled,0,9
141.625,141.75,0.125,42,95,untitled,0,9
141.75,141.875,0.125,42,95,untitled,0,9
141.875,142.0,0.125,42,95,untitled,0,9
142.0,142.125,0.125,39,95,untitled,0,9
142.0,142.125,0.125,46,95,untitled,0,9
142.0,142.125,0.125,40,95,untitled,0,9
142.125,142.25,0.125,42,95,untitled,0,9
142.25,142.375,0.125,42,95,untitled,0,9
142.375,142.5,0.125,42,95,untitled,0,9
142.5,142.625,0.125,46,95,untitled,0,9
142.5,142.625,0.125,35,95,untitled,0,9
142.625,142.75,0.125,42,95,untitled,0,9
142.75,142.875,0.125,42,95,untitled,0,9
142.875,143.0,0.125,42,95,untitled,0,9
143.0,143.125,0.125,40,95,untitled,0,9
143.0,143.125,0.125,46,95,untitled,0,9
143.0,143.125,0.125,39,95,untitled,0,9
143.125,143.25,0.125,42,95,untitled,0,9
143.25,143.375,0.125,42,95,untitled,0,9
143.375,143.5,0.125,42,95,untitled,0,9
143.5,143.625,0.125,35,95,untitled,0,9
143.5,143.625,0.125,46,95,untitled,0,9
143.625,143.75,0.125,42,95,untitled,0,9
143.75,143.875,0.125,42,95,untitled,0,9
143.875,144.0,0.125,42,95,untitled,0,9
144.0,144.125,0.125,39,95,untitled,0,9
144.0,144.125,0.125,46,95,untitled,0,9
144.0,144.125,0.125,40,95,untitled,0,9
144.125,144.25,0.125,42,95,untitled,0,9
144.25,144.375,0.125,42,95,untitled,0,9
144.375,144.5,0.125,42,95,untitled,0,9
144.5,144.625,0.125,46,95,untitled,0,9
144.5,144.625,0.125,35,95,untitled,0,9
144.625,144.75,0.125,42,95,untitled,0,9
144.75,144.875,0.125,42,95,untitled,0,9
144.875,145.0,0.125,42,95,untitled,0,9
145.0,145.125,0.125,40,95,untitled,0,9
145.0,145.125,0.125,46,95,untitled,0,9
145.0,145.125,0.125,39,95,untitled,0,9
145.125,145.25,0.125,42,95,untitled,0,9
145.25,145.375,0.125,42,95,untitled,0,9
145.375,145.5,0.125,42,95,untitled,0,9
145.5,145.625,0.125,35,95,untitled,0,9
145.5,145.625,0.125,46,95,untitled,0,9
145.625,145.75,0.125,42,95,untitled,0,9
145.75,145.875,0.125,42,95,untitled,0,9
145.875,146.0,0.125,42,95,untitled,0,9
146.0,146.125,0.125,39,95,untitled,0,9
146.0,146.125,0.125,46,95,untitled,0,9
146.0,146.125,0.125,40,95,untitled,0,9
146.125,146.25,0.125,42,95,untitled,0,9
146.25,146.5,0.25,46,95,untitled,0,9
146.5,146.625,0.125,46,95,untitled,0,9
146.5,146.625,0.125,35,95,untitled,0,9
146.5,146.625,0.125,49,95,untitled,0,9
146.625,146.75,0.125,42,95,untitled,0,9
146.75,146.875,0.125,42,95,untitled,0,9
146.875,147.0,0.125,42,95,untitled,0,9
147.0,147.125,0.125,40,95,untitled,0,9
147.0,147.125,0.125,46,95,untitled,0,9
147.0,147.125,0.125,39,95,untitled,0,9
147.125,147.25,0.125,42,95,untitled,0,9
147.25,147.375,0.125,42,95,untitled,0,9
147.375,147.5,0.125,42,95,untitled,0,9
147.5,147.625,0.125,35,95,untitled,0,9
147.5,147.625,0.125,46,95,untitled,0,9
147.625,147.75,0.125,42,95,untitled,0,9
147.75,147.875,0.125,42,95,untitled,0,9
147.875,148.0,0.125,42,95,untitled,0,9
148.0,148.125,0.125,40,95,untitled,0,9
148.0,148.125,0.125,39,95,untitled,0,9
148.0,148.125,0.125,46,95,untitled,0,9
148.125,148.25,0.125,42,95,untitled,0,9
148.25,148.375,0.125,42,95,untitled,0,9
148.375,148.5,0.125,42,95,untitled,0,9
148.5,148.625,0.125,35,95,untitled,0,9
148.5,148.625,0.125,46,95,untitled,0,9
148.625,148.75,0.125,42,95,untitled,0,9
148.75,148.875,0.125,42,95,untitled,0,9
148.875,149.0,0.125,42,95,untitled,0,9
149.0,149.125,0.125,40,95,untitled,0,9
149.0,149.125,0.125,46,95,untitled,0,9
149.0,149.125,0.125,39,95,untitled,0,9
149.125,149.25,0.125,42,95,untitled,0,9
149.25,149.375,0.125,42,95,untitled,0,9
149.375,149.5,0.125,42,95,untitled,0,9
149.5,149.625,0.125,35,95,untitled,0,9
149.5,149.625,0.125,46,95,untitled,0,9
149.625,149.75,0.125,42,95,untitled,0,9
149.75,149.875,0.125,42,95,untitled,0,9
149.875,150.0,0.125,42,95,untitled,0,9
150.0,150.125,0.125,39,95,untitled,0,9
150.0,150.125,0.125,40,95,untitled,0,9
150.0,150.125,0.125,46,95,untitled,0,9
150.125,150.25,0.125,42,95,untitled,0,9
150.25,150.375,0.125,42,95,untitled,0,9
150.375,150.5,0.125,42,95,untitled,0,9
150.5,150.625,0.125,35,95,untitled,0,9
150.5,150.625,0.125,46,95,untitled,0,9
150.625,150.75,0.125,42,95,untitled,0,9
150.75,150.875,0.125,42,95,untitled,0,9
150.875,151.0,0.125,42,95,untitled,0,9
151.0,151.125,0.125,39,95,untitled,0,9
151.0,151.125,0.125,46,95,untitled,0,9
151.0,151.125,0.125,40,95,untitled,0,9
151.125,151.25,0.125,42,95,untitled,0,9
151.25,151.375,0.125,42,95,untitled,0,9
151.375,151.5,0.125,42,95,untitled,0,9
151.5,151.625,0.125,35,95,untitled,0,9
151.5,151.625,0.125,46,95,untitled,0,9
151.625,151.75,0.125,42,95,untitled,0,9
151.75,151.875,0.125,42,95,untitled,0,9
151.875,152.0,0.125,42,95,untitled,0,9
152.0,152.125,0.125,40,95,untitled,0,9
152.0,152.125,0.125,39,95,untitled,0,9
152.0,152.125,0.125,46,95,untitled,0,9
152.125,152.25,0.125,42,95,untitled,0,9
152.25,152.375,0.125,42,95,untitled,0,9
152.375,152.5,0.125,42,95,untitled,0,9
152.5,152.625,0.125,35,95,untitled,0,9
152.5,152.625,0.125,46,95,untitled,0,9
152.625,152.75,0.125,42,95,untitled,0,9
152.75,152.875,0.125,42,95,untitled,0,9
152.875,153.0,0.125,42,95,untitled,0,9
153.0,153.125,0.125,40,95,untitled,0,9
153.0,153.125,0.125,46,95,untitled,0,9
153.0,153.125,0.125,39,95,untitled,0,9
153.125,153.25,0.125,42,95,untitled,0,9
153.25,153.375,0.125,42,95,untitled,0,9
153.375,153.5,0.125,42,95,untitled,0,9
153.5,153.625,0.125,35,95,untitled,0,9
153.5,153.625,0.125,46,95,untitled,0,9
153.625,153.75,0.125,42,95,untitled,0,9
153.75,153.875,0.125,42,95,untitled,0,9
153.875,154.0,0.125,42,95,untitled,0,9
154.0,154.125,0.125,39,95,untitled,0,9
154.0,154.125,0.125,40,95,untitled,0,9
154.0,154.125,0.125,46,95,untitled,0,9
154.125,154.25,0.125,42,95,untitled,0,9
154.25,154.5,0.25,46,95,untitled,0,9
154.5,154.625,0.125,35,95,untitled,0,9
154.5,154.625,0.125,49,95,untitled,0,9
154.5,154.625,0.125,46,95,untitled,0,9
154.625,154.75,0.125,42,95,untitled,0,9
154.75,154.875,0.125,42,95,untitled,0,9
154.875,155.0,0.125,42,95,untitled,0,9
155.0,155.125,0.125,40,95,untitled,0,9
155.0,155.125,0.125,46,95,untitled,0,9
155.0,155.125,0.125,39,95,untitled,0,9
155.125,155.25,0.125,42,95,untitled,0,9
155.25,155.375,0.125,42,95,untitled,0,9
155.375,155.5,0.125,42,95,untitled,0,9
155.5,155.625,0.125,35,95,untitled,0,9
155.5,155.625,0.125,46,95,untitled,0,9
155.625,155.75,0.125,42,95,untitled,0,9
155.75,155.875,0.125,42,95,untitled,0,9
155.875,156.0,0.125,42,95,untitled,0,9
156.0,156.125,0.125,40,95,untitled,0,9
156.0,156.125,0.125,39,95,untitled,0,9
156.0,156.125,0.125,46,95,untitled,0,9
156.125,156.25,0.125,42,95,untitled,0,9
156.25,156.375,0.125,42,95,untitled,0,9
156.375,156.5,0.125,42,95,untitled,0,9
156.5,156.625,0.125,35,95,untitled,0,9
156.5,156.625,0.125,46,95,untitled,0,9
156.625,156.75,0.125,42,95,untitled,0,9
156.75,156.875,0.125,42,95,untitled,0,9
156.875,157.0,0.125,42,95,untitled,0,9
157.0,157.125,0.125,40,95,untitled,0,9
157.0,157.125,0.125,46,95,untitled,0,9
157.0,157.125,0.125,39,95,untitled,0,9
157.125,157.25,0.125,42,95,untitled,0,9
157.25,157.375,0.125,42,95,untitled,0,9
157.375,157.5,0.125,42,95,untitled,0,9
157.5,157.625,0.125,35,95,untitled,0,9
157.5,157.625,0.125,46,95,untitled,0,9
157.625,157.75,0.125,42,95,untitled,0,9
157.75,157.875,0.125,42,95,untitled,0,9
157.875,158.0,0.125,42,95,untitled,0,9
158.0,158.125,0.125,40,95,untitled,0,9
158.0,158.125,0.125,39,95,untitled,0,9
158.0,158.125,0.125,46,95,untitled,0,9
158.125,158.25,0.125,42,95,untitled,0,9
158.25,158.375,0.125,42,95,untitled,0,9
158.375,158.5,0.125,42,95,untitled,0,9
158.5,158.625,0.125,35,95,untitled,0,9
158.5,158.625,0.125,46,95,untitled,0,9
158.625,158.75,0.125,42,95,untitled,0,9
158.75,158.875,0.125,42,95,untitled,0,9
158.875,159.0,0.125,42,95,untitled,0,9
159.0,159.125,0.125,40,95,untitled,0,9
159.0,159.125,0.125,46,95,untitled,0,9
159.0,159.125,0.125,39,95,untitled,0,9
159.125,159.25,0.125,42,95,untitled,0,9
159.25,159.375,0.125,42,95,untitled,0,9
159.375,159.5,0.125,42,95,untitled,0,9
159.5,159.625,0.125,35,95,untitled,0,9
159.5,159.625,0.125,46,95,untitled,0,9
159.625,159.75,0.125,42,95,untitled,0,9
159.75,159.875,0.125,42,95,untitled,0,9
159.875,160.0,0.125,42,95,untitled,0,9
160.0,160.125,0.125,40,95,untitled,0,9
160.0,160.125,0.125,39,95,untitled,0,9
160.0,160.125,0.125,46,95,untitled,0,9
160.125,160.25,0.125,42,95,untitled,0,9
160.25,160.375,0.125,42,95,untitled,0,9
160.375,160.5,0.125,42,95,untitled,0,9
160.5,160.625,0.125,35,95,untitled,0,9
160.5,160.625,0.125,46,95,untitled,0,9
160.625,160.75,0.125,42,95,untitled,0,9
160.75,160.875,0.125,42,95,untitled,0,9
160.875,161.0,0.125,42,95,untitled,0,9
161.0,161.125,0.125,40,95,untitled,0,9
161.0,161.125,0.125,46,95,untitled,0,9
161.0,161.125,0.125,39,95,untitled,0,9
161.125,161.25,0.125,42,95,untitled,0,9
161.25,161.375,0.125,42,95,untitled,0,9
161.375,161.5,0.125,42,95,untitled,0,9
161.5,161.625,0.125,35,95,untitled,0,9
161.5,161.625,0.125,46,95,untitled,0,9
161.625,161.75,0.125,42,95,untitled,0,9
161.75,161.875,0.125,42,95,untitled,0,9
161.875,162.0,0.125,42,95,untitled,0,9
162.0,162.125,0.125,40,95,untitled,0,9
162.0,162.125,0.125,39,95,untitled,0,9
162.0,162.125,0.125,46,95,untitled,0,9
162.125,162.25,0.125,42,95,untitled,0,9
162.25,162.5,0.25,46,95,untitled,0,9
162.5,162.625,0.125,35,95,untitled,0,9
162.5,162.625,0.125,49,95,untitled,0,9
162.5,162.625,0.125,46,95,untitled,0,9
162.625,162.75,0.125,42,95,untitled,0,9
162.75,162.875,0.125,42,95,untitled,0,9
162.875,163.0,0.125,42,95,untitled,0,9
163.0,163.125,0.125,40,95,untitled,0,9
163.0,163.125,0.125,46,95,untitled,0,9
163.0,163.125,0.125,39,95,untitled,0,9
163.125,163.25,0.125,42,95,untitled,0,9
163.25,163.375,0.125,42,95,untitled,0,9
163.375,163.5,0.125,42,95,untitled,0,9
163.5,163.625,0.125,35,95,untitled,0,9
163.5,163.625,0.125,46,95,untitled,0,9
163.625,163.75,0.125,42,95,untitled,0,9
163.75,163.875,0.125,42,95,untitled,0,9
163.875,164.0,0.125,42,95,untitled,0,9
164.0,164.125,0.125,40,95,untitled,0,9
164.0,164.125,0.125,39,95,untitled,0,9
164.0,164.125,0.125,46,95,untitled,0,9
164.125,164.25,0.125,42,95,untitled,0,9
164.25,164.375,0.125,42,95,untitled,0,9
164.375,164.5,0.125,42,95,untitled,0,9
164.5,164.625,0.125,35,95,untitled,0,9
164.5,164.625,0.125,46,95,untitled,0,9
164.625,164.75,0.125,42,95,untitled,0,9
164.75,164.875,0.125,42,95,untitled,0,9
164.875,165.0,0.125,42,95,untitled,0,9
165.0,165.125,0.125,40,95,untitled,0,9
165.0,165.125,0.125,46,95,untitled,0,9
165.0,165.125,0.125,39,95,untitled,0,9
165.125,165.25,0.125,42,95,untitled,0,9
165.25,165.375,0.125,42,95,untitled,0,9
165.375,165.5,0.125,42,95,untitled,0,9
165.5,165.625,0.125,35,95,untitled,0,9
165.5,165.625,0.125,46,95,untitled,0,9
165.625,165.75,0.125,42,95,untitled,0,9
165.75,165.875,0.125,42,95,untitled,0,9
165.875,166.0,0.125,42,95,untitled,0,9
166.0,166.125,0.125,40,95,untitled,0,9
166.0,166.125,0.125,39,95,untitled,0,9
166.0,166.125,0.125,46,95,untitled,0,9
166.125,166.25,0.125,42,95,untitled,0,9
166.25,166.375,0.125,42,95,untitled,0,9
166.375,166.5,0.125,42,95,untitled,0,9
166.5,166.625,0.125,35,95,untitled,0,9
166.5,166.625,0.125,46,95,untitled,0,9
166.625,166.75,0.125,42,95,untitled,0,9
166.75,166.875,0.125,42,95,untitled,0,9
166.875,167.0,0.125,42,95,untitled,0,9
167.0,167.125,0.125,40,95,untitled,0,9
167.0,167.125,0.125,46,95,untitled,0,9
167.0,167.125,0.125,39,95,untitled,0,9
167.125,167.25,0.125,42,95,untitled,0,9
167.25,167.375,0.125,42,95,untitled,0,9
167.375,167.5,0.125,42,95,untitled,0,9
167.5,167.625,0.125,35,95,untitled,0,9
167.5,167.625,0.125,46,95,untitled,0,9
167.625,167.75,0.125,42,95,untitled,0,9
167.75,167.875,0.125,42,95,untitled,0,9
167.875,168.0,0.125,42,95,untitled,0,9
168.0,168.125,0.125,40,95,untitled,0,9
168.0,168.125,0.125,39,95,untitled,0,9
168.0,168.125,0.125,46,95,untitled,0,9
168.125,168.25,0.125,42,95,untitled,0,9
168.25,168.375,0.125,42,95,untitled,0,9
168.375,168.5,0.125,42,95,untitled,0,9
168.5,168.625,0.125,35,95,untitled,0,9
168.5,168.625,0.125,46,95,untitled,0,9
168.625,168.75,0.125,42,95,untitled,0,9
168.75,168.875,0.125,42,95,untitled,0,9
168.875,169.0,0.125,42,95,untitled,0,9
169.0,169.125,0.125,40,95,untitled,0,9
169.0,169.125,0.125,46,95,untitled,0,9
169.0,169.125,0.125,39,95,untitled,0,9
169.125,169.25,0.125,42,95,untitled,0,9
169.25,169.375,0.125,42,95,untitled,0,9
169.375,169.5,0.125,42,95,untitled,0,9
169.5,169.625,0.125,35,95,untitled,0,9
169.5,169.625,0.125,46,95,untitled,0,9
169.625,169.75,0.125,42,95,untitled,0,9
169.75,169.875,0.125,42,95,untitled,0,9
169.875,170.0,0.125,42,95,untitled,0,9
170.0,170.125,0.125,40,95,untitled,0,9
170.0,170.125,0.125,39,95,untitled,0,9
170.0,170.125,0.125,46,95,untitled,0,9
170.125,170.25,0.125,42,95,untitled,0,9
170.25,170.5,0.25,46,95,untitled,0,9
170.5,170.625,0.125,35,95,untitled,0,9
170.5,170.625,0.125,46,95,untitled,0,9
170.5,170.625,0.125,49,95,untitled,0,9
170.625,170.75,0.125,42,95,untitled,0,9
170.75,170.875,0.125,42,95,untitled,0,9
170.875,171.0,0.125,42,95,untitled,0,9
171.0,171.125,0.125,46,95,untitled,0,9
171.0,171.125,0.125,40,95,untitled,0,9
171.0,171.125,0.125,39,95,untitled,0,9
171.125,171.25,0.125,42,95,untitled,0,9
171.25,171.375,0.125,42,95,untitled,0,9
171.375,171.5,0.125,42,95,untitled,0,9
171.5,171.625,0.125,46,95,untitled,0,9
171.5,171.625,0.125,35,95,untitled,0,9
171.625,171.75,0.125,42,95,untitled,0,9
171.75,171.875,0.125,42,95,untitled,0,9
171.875,172.0,0.125,42,95,untitled,0,9
172.0,172.125,0.125,40,95,untitled,0,9
172.0,172.125,0.125,39,95,untitled,0,9
172.0,172.125,0.125,46,95,untitled,0,9
172.125,172.25,0.125,42,95,untitled,0,9
172.25,172.375,0.125,42,95,untitled,0,9
172.375,172.5,0.125,42,95,untitled,0,9
172.5,172.625,0.125,35,95,untitled,0,9
172.5,172.625,0.125,46,95,untitled,0,9
172.625,172.75,0.125,42,95,untitled,0,9
172.75,172.875,0.125,42,95,untitled,0,9
172.875,173.0,0.125,42,95,untitled,0,9
173.0,173.125,0.125,46,95,untitled,0,9
173.0,173.125,0.125,40,95,untitled,0,9
173.0,173.125,0.125,39,95,untitled,0,9
173.125,173.25,0.125,42,95,untitled,0,9
173.25,173.375,0.125,42,95,untitled,0,9
173.375,173.5,0.125,42,95,untitled,0,9
173.5,173.625,0.125,35,95,untitled,0,9
173.5,173.625,0.125,46,95,untitled,0,9
173.625,173.75,0.125,42,95,untitled,0,9
173.75,173.875,0.125,42,95,untitled,0,9
173.875,174.0,0.125,42,95,untitled,0,9
174.0,174.125,0.125,40,95,untitled,0,9
174.0,174.125,0.125,39,95,untitled,0,9
174.0,174.125,0.125,46,95,untitled,0,9
174.125,174.25,0.125,42,95,untitled,0,9
174.25,174.375,0.125,42,95,untitled,0,9
174.375,174.5,0.125,42,95,untitled,0,9
174.5,174.625,0.125,35,95,untitled,0,9
174.5,174.625,0.125,46,95,untitled,0,9
174.625,174.75,0.125,42,95,untitled,0,9
174.75,174.875,0.125,42,95,untitled,0,9
174.875,175.0,0.125,42,95,untitled,0,9
175.0,175.125,0.125,40,95,untitled,0,9
175.0,175.125,0.125,46,95,untitled,0,9
175.0,175.125,0.125,39,95,untitled,0,9
175.125,175.25,0.125,42,95,untitled,0,9
175.25,175.375,0.125,42,95,untitled,0,9
175.375,175.5,0.125,42,95,untitled,0,9
175.5,175.625,0.125,35,95,untitled,0,9
175.5,175.625,0.125,46,95,untitled,0,9
175.625,175.75,0.125,42,95,untitled,0,9
175.75,175.875,0.125,42,95,untitled,0,9
175.875,176.0,0.125,42,95,untitled,0,9
176.0,176.125,0.125,40,95,untitled,0,9
176.0,176.125,0.125,39,95,untitled,0,9
176.0,176.125,0.125,46,95,untitled,0,9
176.125,176.25,0.125,42,95,untitled,0,9
176.25,176.375,0.125,42,95,untitled,0,9
176.375,176.5,0.125,42,95,untitled,0,9
176.5,176.625,0.125,35,95,untitled,0,9
176.5,176.625,0.125,46,95,untitled,0,9
176.625,176.75,0.125,42,95,untitled,0,9
176.75,176.875,0.125,42,95,untitled,0,9
176.875,177.0,0.125,42,95,untitled,0,9
177.0,177.125,0.125,40,95,untitled,0,9
177.0,177.125,0.125,46,95,untitled,0,9
177.0,177.125,0.125,39,95,untitled,0,9
177.125,177.25,0.125,42,95,untitled,0,9
177.25,177.375,0.125,42,95,untitled,0,9
177.375,177.5,0.125,42,95,untitled,0,9
177.5,177.625,0.125,35,95,untitled,0,9
177.5,177.625,0.125,46,95,untitled,0,9
177.625,177.75,0.125,42,95,untitled,0,9
177.75,177.875,0.125,42,95,untitled,0,9
177.875,178.0,0.125,42,95,untitled,0,9
178.0,178.125,0.125,40,95,untitled,0,9
178.0,178.125,0.125,39,95,untitled,0,9
178.0,178.125,0.125,46,95,untitled,0,9
178.125,178.25,0.125,42,95,untitled,0,9
178.25,178.5,0.25,46,95,untitled,0,9
178.5,178.625,0.125,35,95,untitled,0,9
178.5,178.625,0.125,46,95,untitled,0,9
178.5,178.625,0.125,49,95,untitled,0,9
178.625,178.75,0.125,42,95,untitled,0,9
178.75,178.875,0.125,42,95,untitled,0,9
178.875,179.0,0.125,42,95,untitled,0,9
179.0,179.125,0.125,46,95,untitled,0,9
179.0,179.125,0.125,40,95,untitled,0,9
179.0,179.125,0.125,39,95,untitled,0,9
179.125,179.25,0.125,42,95,untitled,0,9
179.25,179.375,0.125,42,95,untitled,0,9
179.375,179.5,0.125,42,95,untitled,0,9
179.5,179.625,0.125,46,95,untitled,0,9
179.5,179.625,0.125,35,95,untitled,0,9
179.625,179.75,0.125,42,95,untitled,0,9
179.75,179.875,0.125,42,95,untitled,0,9
179.875,180.0,0.125,42,95,untitled,0,9
180.0,180.125,0.125,40,95,untitled,0,9
180.0,180.125,0.125,39,95,untitled,0,9
180.0,180.125,0.125,46,95,untitled,0,9
180.125,180.25,0.125,42,95,untitled,0,9
180.25,180.375,0.125,42,95,untitled,0,9
180.375,180.5,0.125,42,95,untitled,0,9
180.5,180.625,0.125,35,95,untitled,0,9
180.5,180.625,0.125,46,95,untitled,0,9
180.625,180.75,0.125,42,95,untitled,0,9
180.75,180.875,0.125,42,95,untitled,0,9
180.875,181.0,0.125,42,95,untitled,0,9
181.0,181.125,0.125,46,95,untitled,0,9
181.0,181.125,0.125,40,95,untitled,0,9
181.0,181.125,0.125,39,95,untitled,0,9
181.125,181.25,0.125,42,95,untitled,0,9
181.25,181.375,0.125,42,95,untitled,0,9
181.375,181.5,0.125,42,95,untitled,0,9
181.5,181.625,0.125,35,95,untitled,0,9
181.5,181.625,0.125,46,95,untitled,0,9
181.625,181.75,0.125,42,95,untitled,0,9
181.75,181.875,0.125,42,95,untitled,0,9
181.875,182.0,0.125,42,95,untitled,0,9
182.0,182.125,0.125,40,95,untitled,0,9
182.0,182.125,0.125,39,95,untitled,0,9
182.0,182.125,0.125,46,95,untitled,0,9
182.125,182.25,0.125,42,95,untitled,0,9
182.25,182.375,0.125,42,95,untitled,0,9
182.375,182.5,0.125,42,95,untitled,0,9
182.5,182.625,0.125,35,95,untitled,0,9
182.5,182.625,0.125,46,95,untitled,0,9
182.625,182.75,0.125,42,95,untitled,0,9
182.75,182.875,0.125,42,95,untitled,0,9
182.875,183.0,0.125,42,95,untitled,0,9
183.0,183.125,0.125,40,95,untitled,0,9
183.0,183.125,0.125,46,95,untitled,0,9
183.0,183.125,0.125,39,95,untitled,0,9
183.125,183.25,0.125,42,95,untitled,0,9
183.25,183.375,0.125,42,95,untitled,0,9
183.375,183.5,0.125,42,95,untitled,0,9
183.5,183.625,0.125,35,95,untitled,0,9
183.5,183.625,0.125,46,95,untitled,0,9
183.625,183.75,0.125,42,95,untitled,0,9
183.75,183.875,0.125,42,95,untitled,0,9
183.875,184.0,0.125,42,95,untitled,0,9
184.0,184.125,0.125,40,95,untitled,0,9
184.0,184.125,0.125,39,95,untitled,0,9
184.0,184.125,0.125,46,95,untitled,0,9
184.125,184.25,0.125,42,95,untitled,0,9
184.25,184.375,0.125,42,95,untitled,0,9
184.375,184.5,0.125,42,95,untitled,0,9
184.5,184.625,0.125,35,95,untitled,0,9
184.5,184.625,0.125,46,95,untitled,0,9
184.625,184.75,0.125,42,95,untitled,0,9
184.75,184.875,0.125,42,95,untitled,0,9
184.875,185.0,0.125,42,95,untitled,0,9
185.0,185.125,0.125,40,95,untitled,0,9
185.0,185.125,0.125,46,95,untitled,0,9
185.0,185.125,0.125,39,95,untitled,0,9
185.125,185.25,0.125,42,95,untitled,0,9
185.25,185.375,0.125,42,95,untitled,0,9
185.375,185.5,0.125,42,95,untitled,0,9
185.5,185.625,0.125,35,95,untitled,0,9
185.5,185.625,0.125,46,95,untitled,0,9
185.625,185.75,0.125,42,95,untitled,0,9
185.75,185.875,0.125,42,95,untitled,0,9
185.875,186.0,0.125,42,95,untitled,0,9
186.0,186.125,0.125,40,95,untitled,0,9
186.0,186.125,0.125,39,95,untitled,0,9
186.0,186.125,0.125,46,95,untitled,0,9
186.125,186.25,0.125,42,95,untitled,0,9
186.25,186.5,0.25,46,95,untitled,0,9
186.5,186.625,0.125,35,95,untitled,0,9
186.5,186.625,0.125,49,95,untitled,0,9
186.5,186.625,0.125,46,95,untitled,0,9
186.625,186.75,0.125,42,95,untitled,0,9
186.75,186.875,0.125,42,95,untitled,0,9
186.875,187.0,0.125,42,95,untitled,0,9
187.0,187.125,0.125,46,95,untitled,0,9
187.0,187.125,0.125,40,95,untitled,0,9
187.0,187.125,0.125,39,95,untitled,0,9
187.125,187.25,0.125,42,95,untitled,0,9
187.25,187.375,0.125,42,95,untitled,0,9
187.375,187.5,0.125,42,95,untitled,0,9
187.5,187.625,0.125,35,95,untitled,0,9
187.5,187.625,0.125,46,95,untitled,0,9
187.625,187.75,0.125,42,95,untitled,0,9
187.75,187.875,0.125,42,95,untitled,0,9
187.875,188.0,0.125,42,95,untitled,0,9
188.0,188.125,0.125,40,95,untitled,0,9
188.0,188.125,0.125,39,95,untitled,0,9
188.0,188.125,0.125,46,95,untitled,0,9
188.125,188.25,0.125,42,95,untitled,0,9
188.25,188.375,0.125,42,95,untitled,0,9
188.375,188.5,0.125,42,95,untitled,0,9
188.5,188.625,0.125,35,95,untitled,0,9
188.5,188.625,0.125,46,95,untitled,0,9
188.625,188.75,0.125,42,95,untitled,0,9
188.75,188.875,0.125,42,95,untitled,0,9
188.875,189.0,0.125,42,95,untitled,0,9
189.0,189.125,0.125,40,95,untitled,0,9
189.0,189.125,0.125,39,95,untitled,0,9
189.0,189.125,0.125,46,95,untitled,0,9
189.125,189.25,0.125,42,95,untitled,0,9
189.25,189.375,0.125,42,95,untitled,0,9
189.375,189.5,0.125,42,95,untitled,0,9
189.5,189.625,0.125,35,95,untitled,0,9
189.5,189.625,0.125,46,95,untitled,0,9
189.625,189.75,0.125,42,95,untitled,0,9
189.75,189.875,0.125,42,95,untitled,0,9
189.875,190.0,0.125,42,95,untitled,0,9
190.0,190.125,0.125,40,95,untitled,0,9
190.0,190.125,0.125,46,95,untitled,0,9
190.0,190.125,0.125,39,95,untitled,0,9
190.125,190.25,0.125,42,95,untitled,0,9
190.25,190.375,0.125,42,95,untitled,0,9
190.375,190.5,0.125,42,95,untitled,0,9
190.5,190.625,0.125,35,95,untitled,0,9
190.5,190.625,0.125,46,95,untitled,0,9
190.625,190.75,0.125,42,95,untitled,0,9
190.75,190.875,0.125,42,95,untitled,0,9
190.875,191.0,0.125,42,95,untitled,0,9
191.0,191.125,0.125,46,95,untitled,0,9
191.0,191.125,0.125,40,95,untitled,0,9
191.0,191.125,0.125,39,95,untitled,0,9
191.125,191.25,0.125,42,95,untitled,0,9
191.25,191.375,0.125,42,95,untitled,0,9
191.375,191.5,0.125,42,95,untitled,0,9
191.5,191.625,0.125,35,95,untitled,0,9
191.5,191.625,0.125,46,95,untitled,0,9
191.625,191.75,0.125,42,95,untitled,0,9
191.75,191.875,0.125,42,95,untitled,0,9
191.875,192.0,0.125,42,95,untitled,0,9
192.0,192.125,0.125,39,95,untitled,0,9
192.0,192.125,0.125,46,95,untitled,0,9
192.0,192.125,0.125,40,95,untitled,0,9
192.125,192.25,0.125,42,95,untitled,0,9
192.25,192.375,0.125,42,95,untitled,0,9
192.375,192.5,0.125,42,95,untitled,0,9
192.5,192.625,0.125,35,95,untitled,0,9
192.5,192.625,0.125,46,95,untitled,0,9
192.625,192.75,0.125,42,95,untitled,0,9
192.75,192.875,0.125,42,95,untitled,0,9
192.875,193.0,0.125,42,95,untitled,0,9
193.0,193.125,0.125,40,95,untitled,0,9
193.0,193.125,0.125,39,95,untitled,0,9
193.0,193.125,0.125,46,95,untitled,0,9
193.125,193.25,0.125,42,95,untitled,0,9
193.25,193.375,0.125,42,95,untitled,0,9
193.375,193.5,0.125,42,95,untitled,0,9
193.5,193.625,0.125,35,95,untitled,0,9
193.5,193.625,0.125,46,95,untitled,0,9
193.625,193.75,0.125,42,95,untitled,0,9
193.75,193.875,0.125,42,95,untitled,0,9
193.875,194.0,0.125,42,95,untitled,0,9
194.0,194.125,0.125,40,95,untitled,0,9
194.0,194.125,0.125,46,95,untitled,0,9
194.0,194.125,0.125,39,95,untitled,0,9
194.125,194.25,0.125,42,95,untitled,0,9
194.25,194.5,0.25,46,95,untitled,0,9
194.5,194.625,0.125,35,95,untitled,0,9
194.5,194.625,0.125,46,95,untitled,0,9
194.625,194.75,0.125,42,95,untitled,0,9
194.75,194.875,0.125,42,95,untitled,0,9
194.875,195.0,0.125,42,95,untitled,0,9
195.0,195.125,0.125,39,95,untitled,0,9
195.0,195.125,0.125,46,95,untitled,0,9
195.0,195.125,0.125,40,95,untitled,0,9
195.125,195.25,0.125,42,95,untitled,0,9
195.25,195.375,0.125,42,95,untitled,0,9
195.375,195.5,0.125,42,95,untitled,0,9
195.5,195.625,0.125,35,95,untitled,0,9
195.5,195.625,0.125,46,95,untitled,0,9
195.625,195.75,0.125,42,95,untitled,0,9
195.75,195.875,0.125,42,95,untitled,0,9
195.875,196.0,0.125,42,95,untitled,0,9
196.0,196.125,0.125,40,95,untitled,0,9
196.0,196.125,0.125,39,95,untitled,0,9
196.0,196.125,0.125,46,95,untitled,0,9
196.125,196.25,0.125,42,95,untitled,0,9
196.25,196.375,0.125,42,95,untitled,0,9
196.375,196.5,0.125,42,95,untitled,0,9
196.5,196.625,0.125,35,95,untitled,0,9
196.5,196.625,0.125,46,95,untitled,0,9
196.625,196.75,0.125,42,95,untitled,0,9
196.75,196.875,0.125,42,95,untitled,0,9
196.875,197.0,0.125,42,95,untitled,0,9
197.0,197.125,0.125,40,95,untitled,0,9
197.0,197.125,0.125,46,95,untitled,0,9
197.0,197.125,0.125,39,95,untitled,0,9
197.125,197.25,0.125,42,95,untitled,0,9
197.25,197.375,0.125,42,95,untitled,0,9
197.375,197.5,0.125,42,95,untitled,0,9
197.5,197.625,0.125,35,95,untitled,0,9
197.5,197.625,0.125,46,95,untitled,0,9
197.625,197.75,0.125,42,95,untitled,0,9
197.75,197.875,0.125,42,95,untitled,0,9
197.875,198.0,0.125,42,95,untitled,0,9
198.0,198.125,0.125,40,95,untitled,0,9
198.0,198.125,0.125,46,95,untitled,0,9
198.0,198.125,0.125,39,95,untitled,0,9
198.125,198.25,0.125,42,95,untitled,0,9
198.25,198.375,0.125,42,95,untitled,0,9
198.375,198.5,0.125,42,95,untitled,0,9
198.5,198.625,0.125,35,95,untitled,0,9
198.5,198.625,0.125,46,95,untitled,0,9
198.625,198.75,0.125,42,95,untitled,0,9
198.75,198.875,0.125,42,95,untitled,0,9
198.875,199.0,0.125,42,95,untitled,0,9
199.0,199.125,0.125,46,95,untitled,0,9
199.0,199.125,0.125,40,95,untitled,0,9
199.0,199.125,0.125,39,95,untitled,0,9
199.125,199.25,0.125,42,95,untitled,0,9
199.25,199.375,0.125,42,95,untitled,0,9
199.375,199.5,0.125,42,95,untitled,0,9
199.5,199.625,0.125,35,95,untitled,0,9
199.5,199.625,0.125,46,95,untitled,0,9
199.625,199.75,0.125,42,95,untitled,0,9
199.75,199.875,0.125,42,95,untitled,0,9
199.875,200.0,0.125,42,95,untitled,0,9
200.0,200.125,0.125,39,95,untitled,0,9
200.0,200.125,0.125,46,95,untitled,0,9
200.0,200.125,0.125,40,95,untitled,0,9
200.125,200.25,0.125,42,95,untitled,0,9
200.25,200.375,0.125,42,95,untitled,0,9
200.375,200.5,0.125,42,95,untitled,0,9
200.5,200.625,0.125,35,95,untitled,0,9
200.5,200.625,0.125,46,95,untitled,0,9
200.625,200.75,0.125,42,95,untitled,0,9
200.75,200.875,0.125,42,95,untitled,0,9
200.875,201.0,0.125,42,95,untitled,0,9
201.0,201.125,0.125,40,95,untitled,0,9
201.0,201.125,0.125,46,95,untitled,0,9
201.0,201.125,0.125,39,95,untitled,0,9
201.125,201.25,0.125,42,95,untitled,0,9
201.25,201.375,0.125,42,95,untitled,0,9
201.375,201.5,0.125,42,95,untitled,0,9
201.5,201.625,0.125,35,95,untitled,0,9
201.5,201.625,0.125,46,95,untitled,0,9
201.625,201.75,0.125,42,95,untitled,0,9
201.75,201.875,0.125,42,95,untitled,0,9
201.875,202.0,0.125,42,95,untitled,0,9
202.0,202.125,0.125,40,95,untitled,0,9
202.0,202.125,0.125,46,95,untitled,0,9
202.0,202.125,0.125,39,95,untitled,0,9
202.125,202.25,0.125,42,95,untitled,0,9
202.25,202.5,0.25,46,95,untitled,0,9
202.5,202.625,0.125,35,95,untitled,0,9
202.5,202.625,0.125,49,95,untitled,0,9
202.5,202.625,0.125,46,95,untitled,0,9
202.625,202.75,0.125,42,95,untitled,0,9
202.75,202.875,0.125,42,95,untitled,0,9
202.875,203.0,0.125,42,95,untitled,0,9
203.0,203.125,0.125,46,95,untitled,0,9
203.0,203.125,0.125,40,95,untitled,0,9
203.0,203.125,0.125,39,95,untitled,0,9
203.125,203.25,0.125,42,95,untitled,0,9
203.25,203.375,0.125,42,95,untitled,0,9
203.375,203.5,0.125,42,95,untitled,0,9
203.5,203.625,0.125,35,95,untitled,0,9
203.5,203.625,0.125,46,95,untitled,0,9
203.625,203.75,0.125,42,95,untitled,0,9
203.75,203.875,0.125,42,95,untitled,0,9
203.875,204.0,0.125,42,95,untitled,0,9
204.0,204.125,0.125,40,95,untitled,0,9
204.0,204.125,0.125,39,95,untitled,0,9
204.0,204.125,0.125,46,95,untitled,0,9
204.125,204.25,0.125,42,95,untitled,0,9
204.25,204.375,0.125,42,95,untitled,0,9
204.375,204.5,0.125,42,95,untitled,0,9
204.5,204.625,0.125,35,95,untitled,0,9
204.5,204.625,0.125,46,95,untitled,0,9
204.625,204.75,0.125,42,95,untitled,0,9
204.75,204.875,0.125,42,95,untitled,0,9
204.875,205.0,0.125,42,95,untitled,0,9
205.0,205.125,0.125,40,95,untitled,0,9
205.0,205.125,0.125,39,95,untitled,0,9
205.0,205.125,0.125,46,95,untitled,0,9
205.125,205.25,0.125,42,95,untitled,0,9
205.25,205.375,0.125,42,95,untitled,0,9
205.375,205.5,0.125,42,95,untitled,0,9
205.5,205.625,0.125,35,95,untitled,0,9
205.5,205.625,0.125,46,95,untitled,0,9
205.625,205.75,0.125,42,95,untitled,0,9
205.75,205.875,0.125,42,95,untitled,0,9
205.875,206.0,0.125,42,95,untitled,0,9
206.0,206.125,0.125,40,95,untitled,0,9
206.0,206.125,0.125,46,95,untitled,0,9
206.0,206.125,0.125,39,95,untitled,0,9
206.125,206.25,0.125,42,95,untitled,0,9
206.25,206.375,0.125,42,95,untitled,0,9
206.375,206.5,0.125,42,95,untitled,0,9
206.5,206.625,0.125,35,95,untitled,0,9
206.5,206.625,0.125,46,95,untitled,0,9
206.625,206.75,0.125,42,95,untitled,0,9
206.75,206.875,0.125,42,95,untitled,0,9
206.875,207.0,0.125,42,95,untitled,0,9
207.0,207.125,0.125,39,95,untitled,0,9
207.0,207.125,0.125,46,95,untitled,0,9
207.0,207.125,0.125,40,95,untitled,0,9
207.125,207.25,0.125,42,95,untitled,0,9
207.25,207.375,0.125,42,95,untitled,0,9
207.375,207.5,0.125,42,95,untitled,0,9
207.5,207.625,0.125,35,95,untitled,0,9
207.5,207.625,0.125,46,95,untitled,0,9
207.625,207.75,0.125,42,95,untitled,0,9
207.75,207.875,0.125,42,95,untitled,0,9
207.875,208.0,0.125,42,95,untitled,0,9
208.0,208.125,0.125,40,95,untitled,0,9
208.0,208.125,0.125,46,95,untitled,0,9
208.0,208.125,0.125,39,95,untitled,0,9
208.125,208.25,0.125,42,95,untitled,0,9
208.25,208.375,0.125,42,95,untitled,0,9
208.375,208.5,0.125,42,95,untitled,0,9
208.5,208.625,0.125,35,95,untitled,0,9
208.5,208.625,0.125,46,95,untitled,0,9
208.625,208.75,0.125,42,95,untitled,0,9
208.75,208.875,0.125,42,95,untitled,0,9
208.875,209.0,0.125,42,95,untitled,0,9
209.0,209.125,0.125,40,95,untitled,0,9
209.0,209.125,0.125,39,95,untitled,0,9
209.0,209.125,0.125,46,95,untitled,0,9
209.125,209.25,0.125,42,95,untitled,0,9
209.25,209.375,0.125,42,95,untitled,0,9
209.375,209.5,0.125,42,95,untitled,0,9
209.5,209.625,0.125,35,95,untitled,0,9
209.5,209.625,0.125,46,95,untitled,0,9
209.625,209.75,0.125,42,95,untitled,0,9
209.75,209.875,0.125,42,95,untitled,0,9
209.875,210.0,0.125,42,95,untitled,0,9
210.0,210.125,0.125,40,95,untitled,0,9
210.0,210.125,0.125,46,95,untitled,0,9
210.0,210.125,0.125,39,95,untitled,0,9
210.125,210.25,0.125,42,95,untitled,0,9
210.25,210.5,0.25,46,95,untitled,0,9
210.5,210.625,0.125,35,95,untitled,0,9
210.5,210.625,0.125,49,95,untitled,0,9
210.5,210.625,0.125,46,95,untitled,0,9
210.625,210.75,0.125,42,95,untitled,0,9
210.75,210.875,0.125,42,95,untitled,0,9
210.875,211.0,0.125,42,95,untitled,0,9
211.0,211.125,0.125,46,95,untitled,0,9
211.0,211.125,0.125,40,95,untitled,0,9
211.0,211.125,0.125,39,95,untitled,0,9
211.125,211.25,0.125,42,95,untitled,0,9
211.25,211.375,0.125,42,95,untitled,0,9
211.375,211.5,0.125,42,95,untitled,0,9
211.5,211.625,0.125,35,95,untitled,0,9
211.5,211.625,0.125,46,95,untitled,0,9
211.625,211.75,0.125,42,95,untitled,0,9
211.75,211.875,0.125,42,95,untitled,0,9
211.875,212.0,0.125,42,95,untitled,0,9
212.0,212.125,0.125,40,95,untitled,0,9
212.0,212.125,0.125,39,95,untitled,0,9
212.0,212.125,0.125,46,95,untitled,0,9
212.125,212.25,0.125,42,95,untitled,0,9
212.25,212.375,0.125,42,95,untitled,0,9
212.375,212.5,0.125,42,95,untitled,0,9
212.5,212.625,0.125,35,95,untitled,0,9
212.5,212.625,0.125,46,95,untitled,0,9
212.625,212.75,0.125,42,95,untitled,0,9
212.75,212.875,0.125,42,95,untitled,0,9
212.875,213.0,0.125,42,95,untitled,0,9
213.0,213.125,0.125,40,95,untitled,0,9
213.0,213.125,0.125,46,95,untitled,0,9
213.0,213.125,0.125,39,95,untitled,0,9
213.125,213.25,0.125,42,95,untitled,0,9
213.25,213.375,0.125,42,95,untitled,0,9
213.375,213.5,0.125,42,95,untitled,0,9
213.5,213.625,0.125,35,95,untitled,0,9
213.5,213.625,0.125,46,95,untitled,0,9
213.625,213.75,0.125,42,95,untitled,0,9
213.75,213.875,0.125,42,95,untitled,0,9
213.875,214.0,0.125,42,95,untitled,0,9
214.0,214.125,0.125,40,95,untitled,0,9
214.0,214.125,0.125,46,95,untitled,0,9
214.0,214.125,0.125,39,95,untitled,0,9
214.125,214.25,0.125,42,95,untitled,0,9
214.25,214.375,0.125,42,95,untitled,0,9
214.375,214.5,0.125,42,95,untitled,0,9
214.5,214.625,0.125,35,95,untitled,0,9
214.5,214.625,0.125,46,95,untitled,0,9
214.625,214.75,0.125,42,95,untitled,0,9
214.75,214.875,0.125,42,95,untitled,0,9
214.875,215.0,0.125,42,95,untitled,0,9
215.0,215.125,0.125,39,95,untitled,0,9
215.0,215.125,0.125,46,95,untitled,0,9
215.0,215.125,0.125,40,95,untitled,0,9
215.125,215.25,0.125,42,95,untitled,0,9
215.25,215.375,0.125,42,95,untitled,0,9
215.375,215.5,0.125,42,95,untitled,0,9
215.5,215.625,0.125,35,95,untitled,0,9
215.5,215.625,0.125,46,95,untitled,0,9
215.625,215.75,0.125,42,95,untitled,0,9
215.75,215.875,0.125,42,95,untitled,0,9
215.875,216.0,0.125,42,95,untitled,0,9
216.0,216.125,0.125,40,95,untitled,0,9
216.0,216.125,0.125,46,95,untitled,0,9
216.0,216.125,0.125,39,95,untitled,0,9
216.125,216.25,0.125,42,95,untitled,0,9
216.25,216.375,0.125,42,95,untitled,0,9
216.375,216.5,0.125,42,95,untitled,0,9
216.5,216.625,0.125,35,95,untitled,0,9
216.5,216.625,0.125,46,95,untitled,0,9
216.625,216.75,0.125,42,95,untitled,0,9
216.75,216.875,0.125,42,95,untitled,0,9
216.875,217.0,0.125,42,95,untitled,0,9
217.0,217.125,0.125,40,95,untitled,0,9
217.0,217.125,0.125,39,95,untitled,0,9
217.0,217.125,0.125,46,95,untitled,0,9
217.125,217.25,0.125,42,95,untitled,0,9
217.25,217.375,0.125,42,95,untitled,0,9
217.375,217.5,0.125,42,95,untitled,0,9
217.5,217.625,0.125,35,95,untitled,0,9
217.5,217.625,0.125,46,95,untitled,0,9
217.625,217.75,0.125,42,95,untitled,0,9
217.75,218.0,0.25,46,95,untitled,0,9
218.0,218.125,0.125,40,95,untitled,0,9
218.0,218.125,0.125,42,95,untitled,0,9
218.0,218.125,0.125,39,95,untitled,0,9
218.125,218.25,0.125,42,95,untitled,0,9
218.25,218.5,0.25,46,95,untitled,0,9
218.5,218.75,0.25,35,95,untitled,0,9
218.5,218.75,0.25,49,95,untitled,0,9
218.75,219.0,0.25,42,95,untitled,0,9
219.0,219.25,0.25,42,95,untitled,0,9
219.0,219.25,0.25,40,95,untitled,0,9
219.0,219.25,0.25,39,95,untitled,0,9
219.25,219.5,0.25,42,95,untitled,0,9
219.5,219.75,0.25,35,95,untitled,0,9
219.5,219.75,0.25,42,95,untitled,0,9
219.75,220.0,0.25,42,95,untitled,0,9
220.0,220.25,0.25,42,95,untitled,0,9
220.0,220.25,0.25,39,95,untitled,0,9
220.0,220.25,0.25,40,95,untitled,0,9
220.25,220.375,0.125,42,95,untitled,0,9
220.375,220.5,0.125,42,95,untitled,0,9
220.5,220.75,0.25,35,95,untitled,0,9
220.5,220.75,0.25,42,95,untitled,0,9
220.75,221.0,0.25,42,95,untitled,0,9
221.0,221.25,0.25,42,95,untitled,0,9
221.0,221.25,0.25,40,95,untitled,0,9
221.0,221.25,0.25,39,95,untitled,0,9
221.25,221.5,0.25,42,95,untitled,0,9
221.5,221.75,0.25,35,95,untitled,0,9
221.5,221.75,0.25,42,95,untitled,0,9
221.75,222.0,0.25,42,95,untitled,0,9
222.0,222.25,0.25,42,95,untitled,0,9
222.0,222.25,0.25,39,95,untitled,0,9
222.0,222.25,0.25,40,95,untitled,0,9
222.25,222.375,0.125,42,95,untitled,0,9
222.375,222.5,0.125,42,95,untitled,0,9
222.5,222.75,0.25,35,95,untitled,0,9
222.5,222.75,0.25,42,95,untitled,0,9
222.75,223.0,0.25,42,95,untitled,0,9
223.0,223.25,0.25,39,95,untitled,0,9
223.0,223.25,0.25,40,95,untitled,0,9
223.0,223.25,0.25,42,95,untitled,0,9
223.25,223.5,0.25,42,95,untitled,0,9
223.5,223.75,0.25,42,95,untitled,0,9
223.5,223.75,0.25,35,95,untitled,0,9
223.75,224.0,0.25,42,95,untitled,0,9
224.0,224.25,0.25,40,95,untitled,0,9
224.0,224.25,0.25,42,95,untitled,0,9
224.0,224.25,0.25,39,95,untitled,0,9
224.25,224.375,0.125,42,95,untitled,0,9
224.375,224.5,0.125,42,95,untitled,0,9
224.5,224.75,0.25,35,95,untitled,0,9
224.5,224.75,0.25,42,95,untitled,0,9
224.75,225.0,0.25,42,95,untitled,0,9
225.0,225.25,0.25,40,95,untitled,0,9
225.0,225.25,0.25,42,95,untitled,0,9
225.0,225.25,0.25,39,95,untitled,0,9
225.25,225.5,0.25,42,95,untitled,0,9
225.5,225.625,0.125,35,95,untitled,0,9
225.5,225.625,0.125,42,47,untitled,0,9
225.625,225.75,0.125,42,95,untitled,0,9
225.75,226.0,0.25,42,95,untitled,0,9
226.0,226.25,0.25,40,95,untitled,0,9
226.0,226.25,0.25,42,95,untitled,0,9
226.0,226.25,0.25,39,95,untitled,0,9
226.25,226.5,0.25,46,95,untitled,0,9
226.5,226.75,0.25,35,95,untitled,0,9
226.5,226.75,0.25,42,95,untitled,0,9
226.75,227.0,0.25,42,95,untitled,0,9
227.0,227.25,0.25,42,95,untitled,0,9
227.0,227.25,0.25,40,95,untitled,0,9
227.0,227.25,0.25,39,95,untitled,0,9
227.25,227.5,0.25,42,95,untitled,0,9
227.5,227.75,0.25,42,95,untitled,0,9
227.5,227.75,0.25,35,95,untitled,0,9
227.75,228.0,0.25,42,95,untitled,0,9
228.0,228.25,0.25,40,95,untitled,0,9
228.0,228.25,0.25,42,95,untitled,0,9
228.0,228.25,0.25,39,95,untitled,0,9
228.25,228.375,0.125,42,95,untitled,0,9
228.375,228.5,0.125,42,95,untitled,0,9
228.5,228.75,0.25,35,95,untitled,0,9
228.5,228.75,0.25,42,95,untitled,0,9
228.75,229.0,0.25,42,95,untitled,0,9
229.0,229.25,0.25,42,95,untitled,0,9
229.0,229.25,0.25,40,95,untitled,0,9
229.0,229.25,0.25,39,95,untitled,0,9
229.25,229.5,0.25,42,95,untitled,0,9
229.5,229.75,0.25,35,95,untitled,0,9
229.5,229.75,0.25,42,95,untitled,0,9
229.75,230.0,0.25,42,95,untitled,0,9
230.0,230.25,0.25,39,95,untitled,0,9
230.0,230.25,0.25,40,95,untitled,0,9
230.0,230.25,0.25,42,95,untitled,0,9
230.25,230.375,0.125,42,95,untitled,0,9
230.375,230.5,0.125,42,95,untitled,0,9
230.5,230.75,0.25,35,95,untitled,0,9
230.5,230.75,0.25,42,95,untitled,0,9
230.75,231.0,0.25,42,95,untitled,0,9
231.0,231.25,0.25,39,95,untitled,0,9
231.0,231.25,0.25,40,95,untitled,0,9
231.0,231.25,0.25,42,95,untitled,0,9
231.25,231.5,0.25,42,95,untitled,0,9
231.5,231.75,0.25,42,95,untitled,0,9
231.5,231.75,0.25,35,95,untitled,0,9
231.75,232.0,0.25,42,95,untitled,0,9
232.0,232.25,0.25,42,95,untitled,0,9
232.0,232.25,0.25,40,95,untitled,0,9
232.0,232.25,0.25,39,95,untitled,0,9
232.25,232.375,0.125,42,95,untitled,0,9
232.375,232.5,0.125,42,95,untitled,0,9
232.5,232.75,0.25,35,95,untitled,0,9
232.5,232.75,0.25,42,95,untitled,0,9
232.75,233.0,0.25,42,95,untitled,0,9
233.0,233.25,0.25,40,95,untitled,0,9
233.0,233.25,0.25,42,95,untitled,0,9
233.0,233.25,0.25,39,95,untitled,0,9
233.25,233.5,0.25,42,95,untitled,0,9
233.5,233.75,0.25,42,95,untitled,0,9
233.5,233.75,0.25,35,95,untitled,0,9
233.75,234.0,0.25,46,95,untitled,0,9
234.0,234.125,0.125,40,95,untitled,0,9
234.0,234.125,0.125,39,95,untitled,0,9
234.125,234.25,0.125,42,95,untitled,0,9
234.25,234.5,0.25,46,95,untitled,0,9
234.5,234.75,0.25,35,95,untitled,0,9
234.5,234.75,0.25,49,95,untitled,0,9
234.75,235.0,0.25,42,95,untitled,0,9
235.0,235.25,0.25,42,95,untitled,0,9
235.0,235.25,0.25,40,95,untitled,0,9
235.0,235.25,0.25,39,95,untitled,0,9
235.25,235.5,0.25,42,95,untitled,0,9
235.5,235.75,0.25,35,95,untitled,0,9
235.5,235.75,0.25,42,95,untitled,0,9
235.75,236.0,0.25,42,95,untitled,0,9
236.0,236.25,0.25,42,95,untitled,0,9
236.0,236.25,0.25,39,95,untitled,0,9
236.0,236.25,0.25,40,95,untitled,0,9
236.25,236.375,0.125,42,95,untitled,0,9
236.375,236.5,0.125,42,95,untitled,0,9
236.5,236.75,0.25,35,95,untitled,0,9
236.5,236.75,0.25,42,95,untitled,0,9
236.75,237.0,0.25,42,95,untitled,0,9
237.0,237.25,0.25,42,95,untitled,0,9
237.0,237.25,0.25,40,95,untitled,0,9
237.0,237.25,0.25,39,95,untitled,0,9
237.25,237.5,0.25,42,95,untitled,0,9
237.5,237.75,0.25,35,95,untitled,0,9
237.5,237.75,0.25,42,95,untitled,0,9
237.75,238.0,0.25,42,95,untitled,0,9
238.0,238.25,0.25,42,95,untitled,0,9
238.0,238.25,0.25,39,95,untitled,0,9
238.0,238.25,0.25,40,95,untitled,0,9
238.25,238.375,0.125,42,95,untitled,0,9
238.375,238.5,0.125,42,95,untitled,0,9
238.5,238.75,0.25,35,95,untitled,0,9
238.5,238.75,0.25,42,95,untitled,0,9
238.75,239.0,0.25,42,95,untitled,0,9
239.0,239.25,0.25,39,95,untitled,0,9
239.0,239.25,0.25,40,95,untitled,0,9
239.0,239.25,0.25,42,95,untitled,0,9
239.25,239.5,0.25,42,95,untitled,0,9
239.5,239.75,0.25,42,95,untitled,0,9
239.5,239.75,0.25,35,95,untitled,0,9
239.75,240.0,0.25,42,95,untitled,0,9
240.0,240.25,0.25,40,95,untitled,0,9
240.0,240.25,0.25,42,95,untitled,0,9
240.0,240.25,0.25,39,95,untitled,0,9
240.25,240.375,0.125,42,95,untitled,0,9
240.375,240.5,0.125,42,95,untitled,0,9
240.5,240.75,0.25,35,95,untitled,0,9
240.5,240.75,0.25,42,95,untitled,0,9
240.75,241.0,0.25,42,95,untitled,0,9
241.0,241.25,0.25,40,95,untitled,0,9
241.0,241.25,0.25,42,95,untitled,0,9
241.0,241.25,0.25,39,95,untitled,0,9
241.25,241.5,0.25,42,95,untitled,0,9
241.5,241.625,0.125,35,95,untitled,0,9
241.5,241.625,0.125,42,47,untitled,0,9
241.625,241.75,0.125,42,95,untitled,0,9
241.75,242.0,0.25,42,95,untitled,0,9
242.0,242.25,0.25,39,95,untitled,0,9
242.0,242.25,0.25,40,95,untitled,0,9
242.0,242.25,0.25,42,95,untitled,0,9
242.25,242.5,0.25,46,95,untitled,0,9
2.5,2.5260416666666665,0.02604166666666652,50,95,untitled,27,10
2.625,2.6510416666666665,0.02604166666666652,50,95,untitled,27,10
2.75,2.875,0.125,57,95,untitled,27,10
2.75,2.875,0.125,62,95,untitled,27,10
2.75,2.875,0.125,66,47,untitled,27,10
2.875,2.9010416666666665,0.02604166666666652,50,95,untitled,27,10
3.0,3.125,0.125,54,95,untitled,27,10
3.125,3.25,0.125,57,95,untitled,27,10
3.125,3.25,0.125,62,95,untitled,27,10
3.125,3.25,0.125,66,47,untitled,27,10
3.25,3.2760416666666665,0.02604166666666652,50,95,untitled,27,10
3.375,3.5,0.125,62,95,untitled,27,10
3.375,3.5,0.125,59,95,untitled,27,10
3.5,3.625,0.125,59,95,untitled,27,10
3.5,3.625,0.125,66,95,untitled,27,10
3.5,3.625,0.125,62,95,untitled,27,10
3.625,3.6510416666666665,0.02604166666666652,50,95,untitled,27,10
3.75,3.875,0.125,59,95,untitled,27,10
3.75,3.875,0.125,62,95,untitled,27,10
3.875,4.0,0.125,59,95,untitled,27,10
3.875,4.0,0.125,62,95,untitled,27,10
3.875,4.0,0.125,66,95,untitled,27,10
4.0,4.026041666666666,0.02604166666666652,50,95,untitled,27,10
4.125,4.151041666666666,0.02604166666666652,50,95,untitled,27,10
4.25,4.375,0.125,59,95,untitled,27,10
4.25,4.375,0.125,66,95,untitled,27,10
4.25,4.375,0.125,62,95,untitled,27,10
4.375,4.5,0.125,62,95,untitled,27,10
4.375,4.5,0.125,66,95,untitled,27,10
4.375,4.5,0.125,59,95,untitled,27,10
4.5,4.526041666666667,0.026041666666666963,50,95,untitled,27,10
4.625,4.651041666666667,0.026041666666666963,50,95,untitled,27,10
4.75,4.875,0.125,57,95,untitled,27,10
4.75,4.875,0.125,62,95,untitled,27,10
4.75,4.875,0.125,66,95,untitled,27,10
4.875,4.901041666666667,0.026041666666666963,50,95,untitled,27,10
5.0,5.026041666666667,0.026041666666666963,50,95,untitled,27,10
5.125,5.25,0.125,57,95,untitled,27,10
5.125,5.25,0.125,62,95,untitled,27,10
5.125,5.25,0.125,66,95,untitled,27,10
5.25,5.276041666666667,0.026041666666666963,50,95,untitled,27,10
5.375,5.401041666666667,0.026041666666666963,50,95,untitled,27,10
5.375,5.5,0.125,62,95,untitled,27,10
5.5,5.625,0.125,57,95,untitled,27,10
5.5,5.625,0.125,66,47,untitled,27,10
5.5,5.625,0.125,62,95,untitled,27,10
5.625,5.651041666666667,0.026041666666666963,50,95,untitled,27,10
5.75,5.776041666666667,0.026041666666666963,50,95,untitled,27,10
5.75,5.875,0.125,62,95,untitled,27,10
5.875,6.0,0.125,57,95,untitled,27,10
5.875,6.0,0.125,62,95,untitled,27,10
5.875,6.0,0.125,66,47,untitled,27,10
6.0,6.026041666666667,0.026041666666666963,50,95,untitled,27,10
6.0,6.25,0.25,61,95,untitled,27,10
6.25,6.375,0.125,57,95,untitled,27,10
6.25,6.375,0.125,66,95,untitled,27,10
6.25,6.375,0.125,62,95,untitled,27,10
6.375,6.5,0.125,62,95,untitled,27,10
6.375,6.5,0.125,66,95,untitled,27,10
6.375,6.5,0.125,57,95,untitled,27,10
6.5,6.625,0.125,69,95,untitled,27,10
6.5,6.625,0.125,73,95,untitled,27,10
6.625,6.651041666666667,0.026041666666666963,59,95,untitled,27,10
6.625,6.75,0.125,73,95,untitled,27,10
6.75,6.776041666666667,0.026041666666666963,59,95,untitled,27,10
6.75,6.875,0.125,73,47,untitled,27,10
6.875,6.901041666666667,0.026041666666666963,59,95,untitled,27,10
7.0,7.026041666666667,0.026041666666666963,59,95,untitled,27,10
7.0,7.125,0.125,61,95,untitled,27,10
7.125,7.25,0.125,61,95,untitled,27,10
7.125,7.25,0.125,66,95,untitled,27,10
7.125,7.25,0.125,69,95,untitled,27,10
7.25,7.276041666666667,0.026041666666666963,50,95,untitled,27,10
7.375,7.401041666666667,0.026041666666666963,55,95,untitled,27,10
7.375,7.5,0.125,61,47,untitled,27,10
7.5,7.625,0.125,69,95,untitled,27,10
7.5,7.625,0.125,61,95,untitled,27,10
7.5,7.625,0.125,66,95,untitled,27,10
7.625,7.651041666666667,0.026041666666666963,50,95,untitled,27,10
7.75,7.776041666666667,0.026041666666666963,55,95,untitled,27,10
7.75,7.875,0.125,61,95,untitled,27,10
7.875,8.0,0.125,61,95,untitled,27,10
7.875,8.0,0.125,66,95,untitled,27,10
7.875,8.0,0.125,69,95,untitled,27,10
8.0,8.026041666666668,0.026041666666666963,50,95,untitled,27,10
8.125,8.151041666666668,0.026041666666666963,55,95,untitled,27,10
8.125,8.151041666666668,0.026041666666666963,59,95,untitled,27,10
8.125,8.25,0.125,61,95,untitled,27,10
8.25,8.5,0.25,69,95,untitled,27,10
8.25,8.5,0.25,66,95,untitled,27,10
8.25,8.5,0.25,61,95,untitled,27,10
8.5,8.526041666666666,0.026041666666666075,50,95,untitled,27,10
8.625,8.651041666666666,0.026041666666666075,50,95,untitled,27,10
8.75,8.875,0.125,59,47,untitled,27,10
8.75,8.875,0.125,64,95,untitled,27,10
8.75,8.875,0.125,68,47,untitled,27,10
8.875,8.901041666666666,0.026041666666666075,50,95,untitled,27,10
9.0,9.125,0.125,59,95,untitled,27,10
9.0,9.125,0.125,68,47,untitled,27,10
9.0,9.125,0.125,64,47,untitled,27,10
9.125,9.25,0.125,59,47,untitled,27,10
9.125,9.25,0.125,64,95,untitled,27,10
9.125,9.25,0.125,68,47,untitled,27,10
9.25,9.276041666666666,0.026041666666666075,64,95,untitled,27,10
9.375,9.5,0.125,64,95,untitled,27,10
9.375,9.5,0.125,68,47,untitled,27,10
9.375,9.5,0.125,59,47,untitled,27,10
9.5,9.526041666666666,0.026041666666666075,55,95,untitled,27,10
9.625,9.651041666666666,0.026041666666666075,64,95,untitled,27,10
9.75,9.875,0.125,59,47,untitled,27,10
9.75,9.875,0.125,68,47,untitled,27,10
9.75,9.875,0.125,64,95,untitled,27,10
9.875,9.901041666666666,0.026041666666666075,55,95,untitled,27,10
10.0,10.026041666666666,0.026041666666666075,55,95,untitled,27,10
10.125,10.151041666666666,0.026041666666666075,64,95,untitled,27,10
10.25,10.375,0.125,68,47,untitled,27,10
10.25,10.375,0.125,59,95,untitled,27,10
10.25,10.375,0.125,64,95,untitled,27,10
10.375,10.5,0.125,64,95,untitled,27,10
10.375,10.5,0.125,59,95,untitled,27,10
10.375,10.5,0.125,68,47,untitled,27,10
10.5,10.526041666666666,0.026041666666666075,50,95,untitled,27,10
10.625,10.651041666666666,0.026041666666666075,50,95,untitled,27,10
10.75,10.875,0.125,57,95,untitled,27,10
10.75,10.875,0.125,62,95,untitled,27,10
10.75,10.875,0.125,66,47,untitled,27,10
10.875,10.901041666666666,0.026041666666666075,50,95,untitled,27,10
11.0,11.125,0.125,54,95,untitled,27,10
11.125,11.25,0.125,57,95,untitled,27,10
11.125,11.25,0.125,62,95,untitled,27,10
11.125,11.25,0.125,66,47,untitled,27,10
11.25,11.276041666666666,0.026041666666666075,50,95,untitled,27,10
11.375,11.5,0.125,62,95,untitled,27,10
11.375,11.5,0.125,66,47,untitled,27,10
11.375,11.5,0.125,59,95,untitled,27,10
11.5,11.526041666666666,0.026041666666666075,62,95,untitled,27,10
11.625,11.651041666666666,0.026041666666666075,62,95,untitled,27,10
11.75,11.776041666666666,0.026041666666666075,59,95,untitled,27,10
11.75,11.875,0.125,66,95,untitled,27,10
11.75,11.875,0.125,62,95,untitled,27,10
11.875,11.901041666666666,0.026041666666666075,59,95,untitled,27,10
11.875,12.0,0.125,62,95,untitled,27,10
11.875,12.0,0.125,66,95,untitled,27,10
12.0,12.026041666666666,0.026041666666666075,50,95,untitled,27,10
12.125,12.151041666666666,0.026041666666666075,50,95,untitled,27,10
12.25,12.375,0.125,59,95,untitled,27,10
12.25,12.375,0.125,66,95,untitled,27,10
12.25,12.375,0.125,62,95,untitled,27,10
12.375,12.5,0.125,59,95,untitled,27,10
12.375,12.5,0.125,62,95,untitled,27,10
12.375,12.5,0.125,66,95,untitled,27,10
12.5,12.526041666666666,0.026041666666666075,50,95,untitled,27,10
12.625,12.651041666666666,0.026041666666666075,50,95,untitled,27,10
12.75,12.875,0.125,57,95,untitled,27,10
12.75,12.875,0.125,62,95,untitled,27,10
12.75,12.875,0.125,66,95,untitled,27,10
12.875,12.901041666666666,0.026041666666666075,50,95,untitled,27,10
13.0,13.026041666666666,0.026041666666666075,50,95,untitled,27,10
13.125,13.25,0.125,57,95,untitled,27,10
13.125,13.25,0.125,62,95,untitled,27,10
13.125,13.25,0.125,66,95,untitled,27,10
13.25,13.276041666666666,0.026041666666666075,50,95,untitled,27,10
13.375,13.401041666666666,0.026041666666666075,50,95,untitled,27,10
13.375,13.5,0.125,62,95,untitled,27,10
13.5,13.625,0.125,66,95,untitled,27,10
13.5,13.625,0.125,57,95,untitled,27,10
13.5,13.625,0.125,62,95,untitled,27,10
13.625,13.651041666666666,0.026041666666666075,50,95,untitled,27,10
13.75,13.776041666666666,0.026041666666666075,50,95,untitled,27,10
13.75,13.875,0.125,62,95,untitled,27,10
13.875,14.0,0.125,57,95,untitled,27,10
13.875,14.0,0.125,62,95,untitled,27,10
13.875,14.0,0.125,66,95,untitled,27,10
14.0,14.026041666666666,0.026041666666666075,50,95,untitled,27,10
14.0,14.25,0.25,61,95,untitled,27,10
14.25,14.375,0.125,57,95,untitled,27,10
14.25,14.375,0.125,66,95,untitled,27,10
14.25,14.375,0.125,62,95,untitled,27,10
14.375,14.5,0.125,62,95,untitled,27,10
14.375,14.5,0.125,66,95,untitled,27,10
14.375,14.5,0.125,57,95,untitled,27,10
14.5,14.526041666666666,0.026041666666666075,50,95,untitled,27,10
14.625,14.651041666666666,0.026041666666666075,50,95,untitled,27,10
14.75,14.776041666666666,0.026041666666666075,64,95,untitled,27,10
14.875,14.901041666666666,0.026041666666666075,50,95,untitled,27,10
14.875,14.901041666666666,0.026041666666666075,64,95,untitled,27,10
15.0,15.026041666666666,0.026041666666666075,59,95,untitled,27,10
15.0,15.125,0.125,61,95,untitled,27,10
15.125,15.25,0.125,61,95,untitled,27,10
15.125,15.25,0.125,66,95,untitled,27,10
15.125,15.25,0.125,69,95,untitled,27,10
15.25,15.276041666666666,0.026041666666666075,50,95,untitled,27,10
15.375,15.401041666666666,0.026041666666666075,55,95,untitled,27,10
15.375,15.5,0.125,61,47,untitled,27,10
15.5,15.625,0.125,69,95,untitled,27,10
15.5,15.625,0.125,61,95,untitled,27,10
15.5,15.625,0.125,66,95,untitled,27,10
15.625,15.651041666666666,0.026041666666666075,50,95,untitled,27,10
15.75,15.776041666666666,0.026041666666666075,55,95,untitled,27,10
15.75,15.875,0.125,61,95,untitled,27,10
15.875,16.0,0.125,61,95,untitled,27,10
15.875,16.0,0.125,66,95,untitled,27,10
15.875,16.0,0.125,69,95,untitled,27,10
16.0,16.026041666666664,0.026041666666666075,50,95,untitled,27,10
16.125,16.25,0.125,66,95,untitled,27,10
16.125,16.25,0.125,61,95,untitled,27,10
16.25,16.375,0.125,61,95,untitled,27,10
16.25,16.375,0.125,69,47,untitled,27,10
16.25,16.375,0.125,66,95,untitled,27,10
16.375,16.5,0.125,61,95,untitled,27,10
16.375,16.5,0.125,66,95,untitled,27,10
16.375,16.5,0.125,69,95,untitled,27,10
16.5,16.526041666666668,0.02604166666666785,50,95,untitled,27,10
16.625,16.651041666666668,0.02604166666666785,50,95,untitled,27,10
16.75,16.875,0.125,59,95,untitled,27,10
16.75,16.875,0.125,64,95,untitled,27,10
16.75,16.875,0.125,68,47,untitled,27,10
16.875,16.901041666666668,0.02604166666666785,50,95,untitled,27,10
17.0,17.125,0.125,59,95,untitled,27,10
17.0,17.125,0.125,68,47,untitled,27,10
17.0,17.125,0.125,64,47,untitled,27,10
17.125,17.25,0.125,59,95,untitled,27,10
17.125,17.25,0.125,68,47,untitled,27,10
17.125,17.25,0.125,64,95,untitled,27,10
17.25,17.276041666666668,0.02604166666666785,64,95,untitled,27,10
17.375,17.5,0.125,59,95,untitled,27,10
17.375,17.5,0.125,68,47,untitled,27,10
17.375,17.5,0.125,64,95,untitled,27,10
17.5,17.526041666666668,0.02604166666666785,55,95,untitled,27,10
17.625,17.651041666666668,0.02604166666666785,64,95,untitled,27,10
17.75,17.875,0.125,68,47,untitled,27,10
17.75,17.875,0.125,59,95,untitled,27,10
17.75,17.875,0.125,64,95,untitled,27,10
17.875,17.901041666666668,0.02604166666666785,55,95,untitled,27,10
18.0,18.026041666666668,0.02604166666666785,55,95,untitled,27,10
18.125,18.151041666666668,0.02604166666666785,64,95,untitled,27,10
18.25,18.375,0.125,59,95,untitled,27,10
18.25,18.375,0.125,64,95,untitled,27,10
18.25,18.375,0.125,68,47,untitled,27,10
18.375,18.5,0.125,59,95,untitled,27,10
18.375,18.5,0.125,64,95,untitled,27,10
18.375,18.5,0.125,68,47,untitled,27,10
18.5,18.526041666666668,0.02604166666666785,50,95,untitled,27,10
18.625,18.651041666666668,0.02604166666666785,50,95,untitled,27,10
18.75,18.875,0.125,59,95,untitled,27,10
18.75,18.875,0.125,62,95,untitled,27,10
18.75,18.875,0.125,66,95,untitled,27,10
18.875,18.901041666666668,0.02604166666666785,50,95,untitled,27,10
19.0,19.026041666666668,0.02604166666666785,50,95,untitled,27,10
19.0,19.09375,0.09375,62,95,untitled,27,10
19.125,19.151041666666668,0.02604166666666785,50,95,untitled,27,10
19.125,19.21875,0.09375,66,95,untitled,27,10
19.25,19.276041666666668,0.02604166666666785,50,95,untitled,27,10
19.25,19.34375,0.09375,64,95,untitled,27,10
19.375,19.401041666666668,0.02604166666666785,55,95,untitled,27,10
19.375,19.46875,0.09375,59,95,untitled,27,10
19.5,19.625,0.125,66,95,untitled,27,10
19.5,19.625,0.125,59,95,untitled,27,10
19.5,19.625,0.125,62,95,untitled,27,10
19.625,19.651041666666668,0.02604166666666785,50,95,untitled,27,10
19.75,19.776041666666668,0.02604166666666785,50,95,untitled,27,10
19.875,20.0,0.125,59,95,untitled,27,10
19.875,20.0,0.125,62,95,untitled,27,10
19.875,20.0,0.125,66,95,untitled,27,10
20.0,20.026041666666668,0.02604166666666785,50,95,untitled,27,10
20.125,20.151041666666668,0.02604166666666785,50,95,untitled,27,10
20.25,20.375,0.125,66,95,untitled,27,10
20.25,20.375,0.125,62,95,untitled,27,10
20.25,20.375,0.125,59,95,untitled,27,10
20.375,20.5,0.125,66,95,untitled,27,10
20.375,20.5,0.125,62,95,untitled,27,10
20.375,20.5,0.125,59,95,untitled,27,10
20.5,20.526041666666668,0.02604166666666785,50,95,untitled,27,10
20.625,20.651041666666668,0.02604166666666785,50,95,untitled,27,10
20.75,20.875,0.125,57,95,untitled,27,10
20.75,20.875,0.125,62,95,untitled,27,10
20.75,20.875,0.125,66,95,untitled,27,10
20.875,20.901041666666668,0.02604166666666785,50,95,untitled,27,10
21.0,21.026041666666668,0.02604166666666785,50,95,untitled,27,10
21.125,21.25,0.125,57,95,untitled,27,10
21.125,21.25,0.125,62,95,untitled,27,10
21.125,21.25,0.125,66,95,untitled,27,10
21.25,21.276041666666668,0.02604166666666785,50,95,untitled,27,10
21.25,21.375,0.125,66,47,untitled,27,10
21.375,21.401041666666668,0.02604166666666785,50,95,untitled,27,10
21.375,21.5,0.125,62,95,untitled,27,10
21.5,21.526041666666668,0.02604166666666785,50,95,untitled,27,10
21.625,21.651041666666668,0.02604166666666785,50,95,untitled,27,10
21.75,21.776041666666668,0.02604166666666785,50,95,untitled,27,10
21.875,22.0,0.125,57,95,untitled,27,10
21.875,22.0,0.125,62,95,untitled,27,10
21.875,22.0,0.125,66,47,untitled,27,10
22.0,22.026041666666668,0.02604166666666785,50,95,untitled,27,10
22.125,22.151041666666668,0.02604166666666785,50,95,untitled,27,10
22.25,22.375,0.125,57,95,untitled,27,10
22.25,22.375,0.125,62,95,untitled,27,10
22.375,22.5,0.125,57,95,untitled,27,10
22.375,22.5,0.125,66,95,untitled,27,10
22.375,22.5,0.125,62,95,untitled,27,10
22.5,22.526041666666668,0.02604166666666785,50,95,untitled,27,10
22.625,22.651041666666668,0.02604166666666785,50,95,untitled,27,10
22.75,22.875,0.125,61,95,untitled,27,10
22.75,22.875,0.125,66,95,untitled,27,10
22.875,22.901041666666668,0.02604166666666785,50,95,untitled,27,10
23.0,23.026041666666668,0.02604166666666785,62,95,untitled,27,10
23.125,23.25,0.125,61,95,untitled,27,10
23.125,23.25,0.125,66,95,untitled,27,10
23.25,23.276041666666668,0.02604166666666785,51,95,untitled,27,10
23.25,23.276041666666668,0.02604166666666785,55,95,untitled,27,10
23.375,23.401041666666668,0.02604166666666785,50,95,untitled,27,10
23.5,23.625,0.125,66,95,untitled,27,10
23.5,23.625,0.125,61,95,untitled,27,10
23.625,23.651041666666668,0.02604166666666785,50,95,untitled,27,10
23.75,23.776041666666668,0.02604166666666785,62,95,untitled,27,10
23.875,24.0,0.125,61,95,untitled,27,10
23.875,24.0,0.125,66,95,untitled,27,10
24.0,24.026041666666668,0.02604166666666785,50,95,untitled,27,10
24.125,24.151041666666668,0.02604166666666785,50,95,untitled,27,10
24.25,24.375,0.125,69,47,untitled,27,10
24.25,24.375,0.125,66,95,untitled,27,10
24.25,24.375,0.125,61,95,untitled,27,10
24.375,24.5,0.125,69,47,untitled,27,10
24.375,24.5,0.125,66,95,untitled,27,10
24.375,24.5,0.125,61,95,untitled,27,10
24.5,24.526041666666668,0.02604166666666785,50,95,untitled,27,10
24.625,24.651041666666668,0.02604166666666785,50,95,untitled,27,10
24.75,24.875,0.125,59,47,untitled,27,10
24.75,24.875,0.125,64,95,untitled,27,10
24.75,24.875,0.125,68,95,untitled,27,10
24.75,24.875,0.125,71,95,untitled,27,10
24.875,24.901041666666668,0.02604166666666785,50,95,untitled,27,10
24.875,25.0,0.125,71,95,untitled,27,10
25.0,25.026041666666668,0.02604166666666785,50,95,untitled,27,10
25.0,25.125,0.125,68,95,untitled,27,10
25.125,25.25,0.125,59,95,untitled,27,10
25.125,25.25,0.125,64,95,untitled,27,10
25.25,25.276041666666668,0.02604166666666785,50,95,untitled,27,10
25.375,25.401041666666668,0.02604166666666785,50,95,untitled,27,10
25.5,25.625,0.125,64,95,untitled,27,10
25.5,25.625,0.125,59,47,untitled,27,10
25.625,25.651041666666668,0.02604166666666785,50,95,untitled,27,10
25.75,25.776041666666668,0.02604166666666785,50,95,untitled,27,10
25.875,26.0,0.125,59,47,untitled,27,10
25.875,26.0,0.125,64,95,untitled,27,10
26.0,26.026041666666668,0.02604166666666785,50,95,untitled,27,10
26.125,26.151041666666668,0.02604166666666785,50,95,untitled,27,10
26.25,26.375,0.125,59,95,untitled,27,10
26.25,26.375,0.125,68,47,untitled,27,10
26.25,26.375,0.125,64,95,untitled,27,10
26.375,26.5,0.125,59,95,untitled,27,10
26.375,26.5,0.125,68,47,untitled,27,10
26.375,26.5,0.125,64,95,untitled,27,10
26.5,26.526041666666668,0.02604166666666785,50,95,untitled,27,10
26.625,26.651041666666668,0.02604166666666785,50,95,untitled,27,10
26.75,26.875,0.125,59,95,untitled,27,10
26.75,26.875,0.125,62,95,untitled,27,10
26.75,26.875,0.125,66,95,untitled,27,10
26.875,26.901041666666668,0.02604166666666785,50,95,untitled,27,10
27.0,27.026041666666668,0.02604166666666785,50,95,untitled,27,10
27.0,27.125,0.125,62,95,untitled,27,10
27.125,27.25,0.125,59,95,untitled,27,10
27.125,27.25,0.125,62,95,untitled,27,10
27.125,27.25,0.125,66,95,untitled,27,10
27.25,27.276041666666668,0.02604166666666785,50,95,untitled,27,10
27.25,27.375,0.125,62,95,untitled,27,10
27.375,27.401041666666668,0.02604166666666785,55,95,untitled,27,10
27.375,27.5,0.125,59,95,untitled,27,10
27.5,27.625,0.125,66,95,untitled,27,10
27.5,27.625,0.125,59,95,untitled,27,10
27.5,27.625,0.125,62,95,untitled,27,10
27.625,27.651041666666668,0.02604166666666785,50,95,untitled,27,10
27.75,27.776041666666668,0.02604166666666785,50,95,untitled,27,10
27.875,28.0,0.125,59,95,untitled,27,10
27.875,28.0,0.125,62,95,untitled,27,10
27.875,28.0,0.125,66,95,untitled,27,10
28.0,28.026041666666668,0.02604166666666785,50,95,untitled,27,10
28.125,28.151041666666668,0.02604166666666785,50,95,untitled,27,10
28.25,28.375,0.125,66,95,untitled,27,10
28.25,28.375,0.125,62,95,untitled,27,10
28.25,28.375,0.125,59,95,untitled,27,10
28.375,28.5,0.125,66,95,untitled,27,10
28.375,28.5,0.125,59,95,untitled,27,10
28.375,28.5,0.125,62,95,untitled,27,10
28.5,28.526041666666668,0.02604166666666785,50,95,untitled,27,10
28.625,28.651041666666668,0.02604166666666785,50,95,untitled,27,10
28.75,28.875,0.125,57,95,untitled,27,10
28.75,28.875,0.125,62,95,untitled,27,10
28.75,28.875,0.125,66,95,untitled,27,10
28.875,28.901041666666668,0.02604166666666785,50,95,untitled,27,10
29.0,29.026041666666668,0.02604166666666785,50,95,untitled,27,10
29.125,29.25,0.125,57,95,untitled,27,10
29.125,29.25,0.125,62,95,untitled,27,10
29.125,29.25,0.125,66,95,untitled,27,10
29.25,29.276041666666668,0.02604166666666785,50,95,untitled,27,10
29.25,29.375,0.125,66,47,untitled,27,10
29.375,29.401041666666668,0.02604166666666785,50,95,untitled,27,10
29.375,29.5,0.125,62,95,untitled,27,10
29.5,29.625,0.125,66,95,untitled,27,10
29.5,29.625,0.125,57,95,untitled,27,10
29.5,29.625,0.125,62,95,untitled,27,10
29.625,29.651041666666668,0.02604166666666785,50,95,untitled,27,10
29.75,29.776041666666668,0.02604166666666785,50,95,untitled,27,10
29.875,30.0,0.125,57,95,untitled,27,10
29.875,30.0,0.125,62,95,untitled,27,10
29.875,30.0,0.125,66,47,untitled,27,10
30.0,30.026041666666668,0.02604166666666785,50,95,untitled,27,10
30.125,30.151041666666668,0.02604166666666785,50,95,untitled,27,10
30.25,30.375,0.125,57,95,untitled,27,10
30.25,30.375,0.125,62,95,untitled,27,10
30.375,30.5,0.125,57,95,untitled,27,10
30.375,30.5,0.125,62,95,untitled,27,10
30.375,30.5,0.125,66,95,untitled,27,10
30.5,30.526041666666668,0.02604166666666785,50,95,untitled,27,10
30.625,30.651041666666668,0.02604166666666785,50,95,untitled,27,10
30.75,30.875,0.125,61,95,untitled,27,10
30.75,30.875,0.125,66,95,untitled,27,10
30.75,30.875,0.125,73,47,untitled,27,10
30.75,30.875,0.125,69,47,untitled,27,10
30.875,31.0,0.125,61,95,untitled,27,10
30.875,31.0,0.125,73,47,untitled,27,10
30.875,31.0,0.125,66,95,untitled,27,10
30.875,31.0,0.125,69,47,untitled,27,10
31.0,31.026041666666668,0.02604166666666785,62,95,untitled,27,10
31.125,31.25,0.125,61,95,untitled,27,10
31.125,31.25,0.125,66,95,untitled,27,10
31.125,31.25,0.125,69,47,untitled,27,10
31.25,31.276041666666668,0.02604166666666785,51,95,untitled,27,10
31.25,31.276041666666668,0.02604166666666785,55,95,untitled,27,10
31.375,31.401041666666668,0.02604166666666785,50,95,untitled,27,10
31.5,31.625,0.125,69,47,untitled,27,10
31.5,31.625,0.125,61,95,untitled,27,10
31.5,31.625,0.125,66,95,untitled,27,10
31.625,31.651041666666668,0.02604166666666785,50,95,untitled,27,10
31.75,31.776041666666668,0.02604166666666785,62,95,untitled,27,10
31.875,32.0,0.125,61,95,untitled,27,10
31.875,32.0,0.125,66,95,untitled,27,10
31.875,32.0,0.125,69,47,untitled,27,10
32.0,32.02604166666667,0.02604166666666785,50,95,untitled,27,10
32.125,32.15104166666667,0.02604166666666785,50,95,untitled,27,10
32.25,32.375,0.125,61,95,untitled,27,10
32.25,32.375,0.125,69,47,untitled,27,10
32.25,32.375,0.125,66,95,untitled,27,10
32.375,32.5,0.125,66,95,untitled,27,10
32.375,32.5,0.125,69,47,untitled,27,10
32.375,32.5,0.125,61,95,untitled,27,10
32.5,32.526041666666664,0.026041666666664298,50,95,untitled,27,10
32.625,32.651041666666664,0.026041666666664298,50,95,untitled,27,10
32.75,32.875,0.125,59,47,untitled,27,10
32.75,32.875,0.125,64,95,untitled,27,10
32.75,32.875,0.125,68,47,untitled,27,10
32.75,32.875,0.125,71,47,untitled,27,10
32.875,33.0,0.125,59,95,untitled,27,10
32.875,33.0,0.125,64,95,untitled,27,10
32.875,33.0,0.125,71,47,untitled,27,10
32.875,33.0,0.125,68,47,untitled,27,10
33.0,33.026041666666664,0.026041666666664298,50,95,untitled,27,10
33.125,33.25,0.125,59,95,untitled,27,10
33.125,33.25,0.125,64,95,untitled,27,10
33.125,33.25,0.125,68,47,untitled,27,10
33.25,33.276041666666664,0.026041666666664298,50,95,untitled,27,10
33.375,33.401041666666664,0.026041666666664298,50,95,untitled,27,10
33.5,33.625,0.125,68,47,untitled,27,10
33.5,33.625,0.125,59,47,untitled,27,10
33.5,33.625,0.125,64,95,untitled,27,10
33.625,33.651041666666664,0.026041666666664298,50,95,untitled,27,10
33.75,33.776041666666664,0.026041666666664298,50,95,untitled,27,10
33.875,34.0,0.125,68,47,untitled,27,10
33.875,34.0,0.125,59,47,untitled,27,10
33.875,34.0,0.125,64,95,untitled,27,10
34.0,34.026041666666664,0.026041666666664298,50,95,untitled,27,10
34.125,34.151041666666664,0.026041666666664298,50,95,untitled,27,10
34.25,34.375,0.125,68,47,untitled,27,10
34.25,34.375,0.125,64,95,untitled,27,10
34.25,34.375,0.125,59,95,untitled,27,10
34.375,34.5,0.125,68,47,untitled,27,10
34.375,34.5,0.125,59,95,untitled,27,10
34.375,34.5,0.125,64,95,untitled,27,10
34.5,34.526041666666664,0.026041666666664298,50,95,untitled,27,10
34.625,34.651041666666664,0.026041666666664298,50,95,untitled,27,10
34.75,34.875,0.125,59,95,untitled,27,10
34.75,34.875,0.125,62,95,untitled,27,10
34.75,34.875,0.125,71,47,untitled,27,10
34.75,34.875,0.125,66,95,untitled,27,10
34.875,35.0,0.125,59,95,untitled,27,10
34.875,35.0,0.125,71,47,untitled,27,10
34.875,35.0,0.125,62,95,untitled,27,10
34.875,35.0,0.125,66,95,untitled,27,10
35.0,35.026041666666664,0.026041666666664298,50,95,untitled,27,10
35.125,35.25,0.125,59,95,untitled,27,10
35.125,35.25,0.125,71,95,untitled,27,10
35.125,35.25,0.125,62,95,untitled,27,10
35.125,35.25,0.125,66,95,untitled,27,10
35.25,35.276041666666664,0.026041666666664298,59,95,untitled,27,10
35.375,35.5,0.125,59,95,untitled,27,10
35.375,35.5,0.125,62,95,untitled,27,10
35.5,35.625,0.125,62,95,untitled,27,10
35.5,35.625,0.125,59,95,untitled,27,10
35.5,35.625,0.125,66,95,untitled,27,10
35.5,35.625,0.125,71,95,untitled,27,10
35.625,35.651041666666664,0.026041666666664298,59,95,untitled,27,10
35.75,35.875,0.125,59,95,untitled,27,10
35.75,35.875,0.125,62,95,untitled,27,10
35.875,36.0,0.125,59,95,untitled,27,10
35.875,36.0,0.125,71,95,untitled,27,10
35.875,36.0,0.125,62,95,untitled,27,10
35.875,36.0,0.125,66,95,untitled,27,10
36.0,36.026041666666664,0.026041666666664298,50,95,untitled,27,10
36.0,36.125,0.125,62,95,untitled,27,10
36.125,36.151041666666664,0.026041666666664298,50,95,untitled,27,10
36.25,36.375,0.125,59,95,untitled,27,10
36.25,36.375,0.125,66,95,untitled,27,10
36.25,36.375,0.125,62,95,untitled,27,10
36.375,36.5,0.125,66,95,untitled,27,10
36.375,36.5,0.125,59,95,untitled,27,10
36.375,36.5,0.125,62,95,untitled,27,10
36.375,36.5,0.125,71,95,untitled,27,10
36.5,36.526041666666664,0.026041666666664298,50,95,untitled,27,10
36.625,36.651041666666664,0.026041666666664298,50,95,untitled,27,10
36.75,36.875,0.125,57,95,untitled,27,10
36.75,36.875,0.125,62,95,untitled,27,10
36.75,36.875,0.125,69,47,untitled,27,10
36.75,36.875,0.125,66,95,untitled,27,10
36.875,37.0,0.125,57,95,untitled,27,10
36.875,37.0,0.125,69,47,untitled,27,10
36.875,37.0,0.125,62,95,untitled,27,10
36.875,37.0,0.125,66,95,untitled,27,10
37.0,37.026041666666664,0.026041666666664298,50,95,untitled,27,10
37.125,37.25,0.125,57,95,untitled,27,10
37.125,37.25,0.125,69,95,untitled,27,10
37.125,37.25,0.125,62,95,untitled,27,10
37.125,37.25,0.125,66,95,untitled,27,10
37.25,37.276041666666664,0.026041666666664298,59,95,untitled,27,10
37.375,37.5,0.125,57,95,untitled,27,10
37.375,37.5,0.125,62,95,untitled,27,10
37.5,37.625,0.125,62,95,untitled,27,10
37.5,37.625,0.125,57,95,untitled,27,10
37.5,37.625,0.125,66,95,untitled,27,10
37.5,37.625,0.125,69,95,untitled,27,10
37.625,37.651041666666664,0.026041666666664298,59,95,untitled,27,10
37.75,37.875,0.125,57,95,untitled,27,10
37.75,37.875,0.125,62,95,untitled,27,10
37.875,38.0,0.125,57,95,untitled,27,10
37.875,38.0,0.125,69,95,untitled,27,10
37.875,38.0,0.125,66,95,untitled,27,10
37.875,38.0,0.125,62,95,untitled,27,10
38.0,38.026041666666664,0.026041666666664298,50,95,untitled,27,10
38.0,38.125,0.125,62,95,untitled,27,10
38.125,38.151041666666664,0.026041666666664298,50,95,untitled,27,10
38.25,38.375,0.125,57,95,untitled,27,10
38.25,38.375,0.125,66,95,untitled,27,10
38.25,38.375,0.125,62,95,untitled,27,10
38.375,38.5,0.125,66,95,untitled,27,10
38.375,38.5,0.125,69,95,untitled,27,10
38.375,38.5,0.125,62,95,untitled,27,10
38.375,38.5,0.125,57,95,untitled,27,10
38.5,38.526041666666664,0.026041666666664298,50,95,untitled,27,10
38.625,38.651041666666664,0.026041666666664298,50,95,untitled,27,10
38.75,38.875,0.125,61,95,untitled,27,10
38.75,38.875,0.125,69,95,untitled,27,10
38.75,38.875,0.125,73,47,untitled,27,10
38.75,38.875,0.125,66,95,untitled,27,10
38.875,38.901041666666664,0.026041666666664298,50,95,untitled,27,10
39.0,39.125,0.125,61,95,untitled,27,10
39.0,39.125,0.125,66,95,untitled,27,10
39.0,39.125,0.125,69,95,untitled,27,10
39.125,39.25,0.125,61,95,untitled,27,10
39.125,39.25,0.125,73,47,untitled,27,10
39.125,39.25,0.125,66,95,untitled,27,10
39.125,39.25,0.125,69,95,untitled,27,10
39.25,39.276041666666664,0.026041666666664298,50,95,untitled,27,10
39.375,39.401041666666664,0.026041666666664298,50,95,untitled,27,10
39.5,39.625,0.125,61,95,untitled,27,10
39.5,39.625,0.125,73,47,untitled,27,10
39.5,39.625,0.125,66,95,untitled,27,10
39.5,39.625,0.125,69,95,untitled,27,10
39.625,39.651041666666664,0.026041666666664298,50,95,untitled,27,10
39.75,39.776041666666664,0.026041666666664298,50,95,untitled,27,10
39.75,39.875,0.125,66,95,untitled,27,10
39.875,40.0,0.125,61,95,untitled,27,10
39.875,40.0,0.125,73,47,untitled,27,10
39.875,40.0,0.125,69,95,untitled,27,10
39.875,40.0,0.125,66,95,untitled,27,10
40.0,40.026041666666664,0.026041666666664298,50,95,untitled,27,10
40.125,40.151041666666664,0.026041666666664298,50,95,untitled,27,10
40.25,40.375,0.125,61,95,untitled,27,10
40.25,40.375,0.125,66,95,untitled,27,10
40.375,40.5,0.125,66,95,untitled,27,10
40.375,40.5,0.125,69,95,untitled,27,10
40.375,40.5,0.125,61,95,untitled,27,10
40.5,40.526041666666664,0.026041666666664298,50,95,untitled,27,10
40.625,40.651041666666664,0.026041666666664298,50,95,untitled,27,10
40.75,40.875,0.125,59,95,untitled,27,10
40.75,40.875,0.125,68,95,untitled,27,10
40.75,40.875,0.125,71,47,untitled,27,10
40.75,40.875,0.125,64,95,untitled,27,10
40.875,41.0,0.125,59,95,untitled,27,10
40.875,41.0,0.125,68,95,untitled,27,10
40.875,41.0,0.125,64,95,untitled,27,10
41.0,41.125,0.125,59,95,untitled,27,10
41.125,41.25,0.125,59,95,untitled,27,10
41.125,41.25,0.125,71,47,untitled,27,10
41.125,41.25,0.125,64,95,untitled,27,10
41.125,41.25,0.125,68,95,untitled,27,10
41.25,41.276041666666664,0.026041666666664298,50,95,untitled,27,10
41.375,41.401041666666664,0.026041666666664298,50,95,untitled,27,10
41.5,41.625,0.125,59,95,untitled,27,10
41.5,41.625,0.125,71,47,untitled,27,10
41.5,41.625,0.125,64,95,untitled,27,10
41.5,41.625,0.125,68,95,untitled,27,10
41.625,41.651041666666664,0.026041666666664298,50,95,untitled,27,10
41.75,41.875,0.125,59,95,untitled,27,10
41.75,41.875,0.125,64,95,untitled,27,10
41.875,42.0,0.125,59,95,untitled,27,10
41.875,42.0,0.125,71,47,untitled,27,10
41.875,42.0,0.125,68,95,untitled,27,10
41.875,42.0,0.125,64,95,untitled,27,10
42.0,42.026041666666664,0.026041666666664298,50,95,untitled,27,10
42.125,42.151041666666664,0.026041666666664298,50,95,untitled,27,10
42.25,42.375,0.125,59,95,untitled,27,10
42.25,42.375,0.125,64,95,untitled,27,10
42.375,42.5,0.125,59,95,untitled,27,10
42.375,42.5,0.125,68,95,untitled,27,10
42.375,42.5,0.125,64,95,untitled,27,10
42.5,42.526041666666664,0.026041666666664298,50,95,untitled,27,10
42.625,42.651041666666664,0.026041666666664298,50,95,untitled,27,10
42.75,42.875,0.125,59,95,untitled,27,10
42.75,42.875,0.125,62,95,untitled,27,10
42.75,42.875,0.125,71,47,untitled,27,10
42.75,42.875,0.125,66,47,untitled,27,10
42.875,43.0,0.125,59,95,untitled,27,10
42.875,43.0,0.125,71,47,untitled,27,10
42.875,43.0,0.125,62,95,untitled,27,10
42.875,43.0,0.125,66,95,untitled,27,10
43.0,43.026041666666664,0.026041666666664298,50,95,untitled,27,10
43.125,43.25,0.125,59,95,untitled,27,10
43.125,43.25,0.125,71,47,untitled,27,10
43.125,43.25,0.125,62,95,untitled,27,10
43.125,43.25,0.125,66,95,untitled,27,10
43.25,43.276041666666664,0.026041666666664298,59,95,untitled,27,10
43.375,43.5,0.125,59,95,untitled,27,10
43.375,43.5,0.125,62,95,untitled,27,10
43.5,43.625,0.125,62,95,untitled,27,10
43.5,43.625,0.125,59,95,untitled,27,10
43.5,43.625,0.125,66,47,untitled,27,10
43.5,43.625,0.125,71,47,untitled,27,10
43.625,43.651041666666664,0.026041666666664298,59,95,untitled,27,10
43.75,43.875,0.125,59,95,untitled,27,10
43.75,43.875,0.125,62,47,untitled,27,10
43.875,44.0,0.125,59,95,untitled,27,10
43.875,44.0,0.125,71,47,untitled,27,10
43.875,44.0,0.125,62,95,untitled,27,10
43.875,44.0,0.125,66,95,untitled,27,10
44.0,44.026041666666664,0.026041666666664298,50,95,untitled,27,10
44.0,44.125,0.125,62,47,untitled,27,10
44.125,44.151041666666664,0.026041666666664298,50,95,untitled,27,10
44.25,44.375,0.125,59,95,untitled,27,10
44.25,44.375,0.125,66,95,untitled,27,10
44.25,44.375,0.125,62,47,untitled,27,10
44.375,44.5,0.125,66,47,untitled,27,10
44.375,44.5,0.125,59,95,untitled,27,10
44.375,44.5,0.125,62,95,untitled,27,10
44.375,44.5,0.125,71,47,untitled,27,10
44.5,44.526041666666664,0.026041666666664298,50,95,untitled,27,10
44.625,44.651041666666664,0.026041666666664298,50,95,untitled,27,10
44.75,44.875,0.125,57,95,untitled,27,10
44.75,44.875,0.125,62,47,untitled,27,10
44.75,44.875,0.125,69,47,untitled,27,10
44.75,44.875,0.125,66,95,untitled,27,10
44.875,45.0,0.125,57,95,untitled,27,10
44.875,45.0,0.125,69,47,untitled,27,10
44.875,45.0,0.125,62,95,untitled,27,10
44.875,45.0,0.125,66,95,untitled,27,10
45.0,45.026041666666664,0.026041666666664298,50,95,untitled,27,10
45.125,45.25,0.125,57,95,untitled,27,10
45.125,45.25,0.125,69,95,untitled,27,10
45.125,45.25,0.125,62,95,untitled,27,10
45.125,45.25,0.125,66,95,untitled,27,10
45.25,45.276041666666664,0.026041666666664298,59,95,untitled,27,10
45.375,45.5,0.125,57,95,untitled,27,10
45.375,45.5,0.125,62,95,untitled,27,10
45.5,45.625,0.125,62,95,untitled,27,10
45.5,45.625,0.125,57,95,untitled,27,10
45.5,45.625,0.125,66,47,untitled,27,10
45.5,45.625,0.125,69,47,untitled,27,10
45.625,45.651041666666664,0.026041666666664298,59,95,untitled,27,10
45.75,45.875,0.125,57,47,untitled,27,10
45.75,45.875,0.125,62,47,untitled,27,10
45.875,46.0,0.125,57,95,untitled,27,10
45.875,46.0,0.125,69,47,untitled,27,10
45.875,46.0,0.125,66,47,untitled,27,10
45.875,46.0,0.125,62,95,untitled,27,10
46.0,46.026041666666664,0.026041666666664298,50,95,untitled,27,10
46.0,46.125,0.125,62,47,untitled,27,10
46.125,46.151041666666664,0.026041666666664298,50,95,untitled,27,10
46.25,46.375,0.125,57,47,untitled,27,10
46.25,46.375,0.125,66,95,untitled,27,10
46.25,46.375,0.125,62,95,untitled,27,10
46.375,46.5,0.125,66,95,untitled,27,10
46.375,46.5,0.125,69,95,untitled,27,10
46.375,46.5,0.125,62,47,untitled,27,10
46.375,46.5,0.125,57,95,untitled,27,10
46.5,46.526041666666664,0.026041666666664298,50,95,untitled,27,10
46.625,46.651041666666664,0.026041666666664298,50,95,untitled,27,10
46.75,46.875,0.125,61,95,untitled,27,10
46.75,46.875,0.125,69,95,untitled,27,10
46.75,46.875,0.125,73,47,untitled,27,10
46.75,46.875,0.125,66,47,untitled,27,10
46.875,46.901041666666664,0.026041666666664298,50,95,untitled,27,10
47.0,47.125,0.125,61,47,untitled,27,10
47.0,47.125,0.125,66,47,untitled,27,10
47.0,47.125,0.125,69,95,untitled,27,10
47.125,47.25,0.125,61,47,untitled,27,10
47.125,47.25,0.125,73,47,untitled,27,10
47.125,47.25,0.125,66,95,untitled,27,10
47.125,47.25,0.125,69,95,untitled,27,10
47.25,47.276041666666664,0.026041666666664298,50,95,untitled,27,10
47.375,47.401041666666664,0.026041666666664298,50,95,untitled,27,10
47.5,47.625,0.125,61,95,untitled,27,10
47.5,47.625,0.125,73,47,untitled,27,10
47.5,47.625,0.125,66,47,untitled,27,10
47.5,47.625,0.125,69,95,untitled,27,10
47.625,47.651041666666664,0.026041666666664298,50,95,untitled,27,10
47.75,47.776041666666664,0.026041666666664298,50,95,untitled,27,10
47.75,47.875,0.125,66,47,untitled,27,10
47.875,48.0,0.125,61,95,untitled,27,10
47.875,48.0,0.125,69,95,untitled,27,10
47.875,48.0,0.125,73,47,untitled,27,10
47.875,48.0,0.125,66,95,untitled,27,10
48.0,48.026041666666664,0.026041666666664298,50,95,untitled,27,10
48.125,48.151041666666664,0.026041666666664298,50,95,untitled,27,10
48.25,48.375,0.125,61,95,untitled,27,10
48.25,48.375,0.125,66,47,untitled,27,10
48.375,48.5,0.125,66,95,untitled,27,10
48.375,48.5,0.125,69,95,untitled,27,10
48.375,48.5,0.125,61,95,untitled,27,10
48.5,48.526041666666664,0.026041666666664298,50,95,untitled,27,10
48.625,48.651041666666664,0.026041666666664298,50,95,untitled,27,10
48.75,48.875,0.125,59,95,untitled,27,10
48.75,48.875,0.125,64,47,untitled,27,10
48.75,48.875,0.125,68,47,untitled,27,10
48.875,49.0,0.125,59,47,untitled,27,10
48.875,49.0,0.125,68,47,untitled,27,10
48.875,49.0,0.125,64,95,untitled,27,10
49.0,49.125,0.125,59,95,untitled,27,10
49.125,49.25,0.125,59,47,untitled,27,10
49.125,49.25,0.125,64,95,untitled,27,10
49.125,49.25,0.125,68,47,untitled,27,10
49.25,49.276041666666664,0.026041666666664298,50,95,untitled,27,10
49.375,49.401041666666664,0.026041666666664298,50,95,untitled,27,10
49.5,49.625,0.125,68,47,untitled,27,10
49.5,49.625,0.125,59,47,untitled,27,10
49.5,49.625,0.125,64,95,untitled,27,10
49.625,49.651041666666664,0.026041666666664298,50,95,untitled,27,10
49.75,49.875,0.125,59,47,untitled,27,10
49.75,49.875,0.125,64,95,untitled,27,10
49.875,50.0,0.125,59,95,untitled,27,10
49.875,50.0,0.125,68,95,untitled,27,10
49.875,50.0,0.125,64,47,untitled,27,10
50.0,50.026041666666664,0.026041666666664298,50,95,untitled,27,10
50.0,50.25,0.25,62,95,untitled,27,10
50.25,50.276041666666664,0.026041666666664298,50,95,untitled,27,10
50.25,50.5,0.25,61,95,untitled,27,10
50.5,50.526041666666664,0.026041666666664298,50,95,untitled,27,10
50.625,50.651041666666664,0.026041666666664298,50,95,untitled,27,10
50.75,50.875,0.125,59,95,untitled,27,10
50.75,50.875,0.125,62,95,untitled,27,10
50.75,50.875,0.125,66,95,untitled,27,10
50.875,50.901041666666664,0.026041666666664298,50,95,untitled,27,10
51.0,51.026041666666664,0.026041666666664298,50,95,untitled,27,10
51.125,51.25,0.125,64,95,untitled,27,10
51.25,51.276041666666664,0.026041666666664298,50,95,untitled,27,10
51.25,51.375,0.125,62,95,untitled,27,10
51.375,51.5,0.125,59,95,untitled,27,10
51.5,51.625,0.125,59,95,untitled,27,10
51.5,51.625,0.125,62,95,untitled,27,10
51.5,51.625,0.125,66,95,untitled,27,10
51.625,51.75,0.125,59,95,untitled,27,10
51.75,51.776041666666664,0.026041666666664298,50,95,untitled,27,10
51.875,52.0,0.125,59,95,untitled,27,10
51.875,52.0,0.125,62,95,untitled,27,10
51.875,52.0,0.125,66,95,untitled,27,10
52.0,52.125,0.125,59,95,untitled,27,10
52.125,52.151041666666664,0.026041666666664298,50,95,untitled,27,10
52.25,52.5,0.25,59,95,untitled,27,10
52.25,52.5,0.25,66,95,untitled,27,10
52.25,52.5,0.25,62,95,untitled,27,10
52.5,52.526041666666664,0.026041666666664298,50,95,untitled,27,10
52.625,52.651041666666664,0.026041666666664298,50,95,untitled,27,10
52.75,52.875,0.125,57,95,untitled,27,10
52.75,52.875,0.125,62,95,untitled,27,10
52.75,52.875,0.125,66,95,untitled,27,10
52.875,52.901041666666664,0.026041666666664298,50,95,untitled,27,10
53.0,53.026041666666664,0.026041666666664298,50,95,untitled,27,10
53.125,53.25,0.125,57,95,untitled,27,10
53.125,53.25,0.125,62,95,untitled,27,10
53.25,53.375,0.125,62,95,untitled,27,10
53.375,53.401041666666664,0.026041666666664298,50,95,untitled,27,10
53.5,53.625,0.125,57,95,untitled,27,10
53.5,53.625,0.125,62,95,untitled,27,10
53.5,53.625,0.125,66,95,untitled,27,10
53.625,53.651041666666664,0.026041666666664298,50,95,untitled,27,10
53.625,53.75,0.125,62,95,untitled,27,10
53.75,53.875,0.125,57,95,untitled,27,10
53.875,54.0,0.125,57,95,untitled,27,10
53.875,54.0,0.125,62,95,untitled,27,10
53.875,54.0,0.125,66,95,untitled,27,10
54.0,54.026041666666664,0.026041666666664298,50,95,untitled,27,10
54.0,54.125,0.125,62,95,untitled,27,10
54.125,54.151041666666664,0.026041666666664298,57,95,untitled,27,10
54.25,54.5,0.25,57,95,untitled,27,10
54.25,54.5,0.25,66,95,untitled,27,10
54.25,54.5,0.25,62,95,untitled,27,10
54.5,54.526041666666664,0.026041666666664298,50,95,untitled,27,10
54.625,54.651041666666664,0.026041666666664298,50,95,untitled,27,10
54.75,54.875,0.125,61,95,untitled,27,10
54.75,54.875,0.125,69,47,untitled,27,10
54.75,54.875,0.125,66,95,untitled,27,10
54.875,54.901041666666664,0.026041666666664298,50,95,untitled,27,10
55.0,55.026041666666664,0.026041666666664298,50,95,untitled,27,10
55.125,55.25,0.125,57,47,untitled,27,10
55.125,55.25,0.125,61,95,untitled,27,10
55.125,55.25,0.125,66,95,untitled,27,10
55.25,55.276041666666664,0.026041666666664298,50,95,untitled,27,10
55.375,55.5,0.125,61,95,untitled,27,10
55.5,55.625,0.125,57,47,untitled,27,10
55.5,55.625,0.125,66,95,untitled,27,10
55.5,55.625,0.125,69,47,untitled,27,10
55.5,55.625,0.125,61,95,untitled,27,10
55.625,55.651041666666664,0.026041666666664298,50,95,untitled,27,10
55.625,55.75,0.125,66,95,untitled,27,10
55.75,55.875,0.125,57,47,untitled,27,10
55.75,55.875,0.125,61,95,untitled,27,10
55.875,56.0,0.125,57,47,untitled,27,10
55.875,56.0,0.125,66,95,untitled,27,10
55.875,56.0,0.125,69,47,untitled,27,10
55.875,56.0,0.125,61,95,untitled,27,10
56.0,56.026041666666664,0.026041666666664298,55,95,untitled,27,10
56.125,56.151041666666664,0.026041666666664298,55,95,untitled,27,10
56.25,56.5,0.25,66,95,untitled,27,10
56.25,56.5,0.25,61,95,untitled,27,10
56.25,56.5,0.25,69,47,untitled,27,10
56.25,56.5,0.25,57,47,untitled,27,10
56.5,56.526041666666664,0.026041666666664298,50,95,untitled,27,10
56.625,56.651041666666664,0.026041666666664298,50,95,untitled,27,10
56.75,56.776041666666664,0.026041666666664298,59,95,untitled,27,10
56.875,56.901041666666664,0.026041666666664298,55,95,untitled,27,10
56.875,57.0,0.125,59,47,untitled,27,10
57.0,57.026041666666664,0.026041666666664298,55,95,untitled,27,10
57.0,57.125,0.125,59,95,untitled,27,10
57.125,57.25,0.125,59,95,untitled,27,10
57.125,57.25,0.125,64,95,untitled,27,10
57.125,57.25,0.125,71,47,untitled,27,10
57.125,57.25,0.125,68,95,untitled,27,10
57.25,57.375,0.125,59,95,untitled,27,10
57.25,57.375,0.125,64,47,untitled,27,10
57.375,57.401041666666664,0.026041666666664298,50,95,untitled,27,10
57.5,57.625,0.125,59,95,untitled,27,10
57.625,57.75,0.125,64,95,untitled,27,10
57.75,57.875,0.125,59,95,untitled,27,10
57.875,57.901041666666664,0.026041666666664298,50,95,untitled,27,10
58.0,58.25,0.25,62,95,untitled,27,10
58.25,58.5,0.25,61,95,untitled,27,10
58.5,58.526041666666664,0.026041666666664298,50,95,untitled,27,10
58.625,58.651041666666664,0.026041666666664298,50,95,untitled,27,10
58.75,58.875,0.125,59,95,untitled,27,10
58.75,58.875,0.125,62,95,untitled,27,10
58.75,58.875,0.125,66,95,untitled,27,10
58.875,58.901041666666664,0.026041666666664298,50,95,untitled,27,10
59.0,59.026041666666664,0.026041666666664298,50,95,untitled,27,10
59.125,59.25,0.125,64,95,untitled,27,10
59.25,59.276041666666664,0.026041666666664298,50,95,untitled,27,10
59.25,59.375,0.125,62,95,untitled,27,10
59.375,59.5,0.125,59,95,untitled,27,10
59.5,59.625,0.125,59,95,untitled,27,10
59.5,59.625,0.125,62,95,untitled,27,10
59.5,59.625,0.125,66,95,untitled,27,10
59.625,59.75,0.125,59,47,untitled,27,10
59.75,59.776041666666664,0.026041666666664298,50,95,untitled,27,10
59.875,60.0,0.125,59,95,untitled,27,10
59.875,60.0,0.125,62,95,untitled,27,10
59.875,60.0,0.125,66,95,untitled,27,10
60.0,60.125,0.125,62,47,untitled,27,10
60.0,60.125,0.125,59,95,untitled,27,10
60.125,60.151041666666664,0.026041666666664298,50,95,untitled,27,10
60.25,60.5,0.25,66,95,untitled,27,10
60.25,60.5,0.25,59,95,untitled,27,10
60.25,60.5,0.25,62,95,untitled,27,10
60.5,60.526041666666664,0.026041666666664298,50,95,untitled,27,10
60.625,60.651041666666664,0.026041666666664298,50,95,untitled,27,10
60.75,60.875,0.125,57,95,untitled,27,10
60.75,60.875,0.125,62,95,untitled,27,10
60.75,60.875,0.125,66,95,untitled,27,10
60.875,60.901041666666664,0.026041666666664298,50,95,untitled,27,10
61.0,61.026041666666664,0.026041666666664298,50,95,untitled,27,10
61.125,61.25,0.125,57,95,untitled,27,10
61.125,61.25,0.125,62,95,untitled,27,10
61.25,61.375,0.125,62,95,untitled,27,10
61.375,61.401041666666664,0.026041666666664298,50,95,untitled,27,10
61.5,61.625,0.125,57,47,untitled,27,10
61.5,61.625,0.125,62,95,untitled,27,10
61.5,61.625,0.125,66,95,untitled,27,10
61.625,61.651041666666664,0.026041666666664298,50,95,untitled,27,10
61.625,61.75,0.125,62,95,untitled,27,10
61.75,61.875,0.125,57,95,untitled,27,10
61.875,62.0,0.125,57,95,untitled,27,10
61.875,62.0,0.125,62,47,untitled,27,10
61.875,62.0,0.125,66,95,untitled,27,10
62.0,62.026041666666664,0.026041666666664298,50,95,untitled,27,10
62.0,62.125,0.125,62,95,untitled,27,10
62.125,62.151041666666664,0.026041666666664298,57,95,untitled,27,10
62.25,62.5,0.25,57,95,untitled,27,10
62.25,62.5,0.25,66,95,untitled,27,10
62.25,62.5,0.25,62,95,untitled,27,10
62.5,62.526041666666664,0.026041666666664298,50,95,untitled,27,10
62.625,62.651041666666664,0.026041666666664298,50,95,untitled,27,10
62.75,62.875,0.125,61,95,untitled,27,10
62.75,62.875,0.125,66,95,untitled,27,10
62.75,62.875,0.125,69,47,untitled,27,10
62.875,62.901041666666664,0.026041666666664298,50,95,untitled,27,10
63.0,63.026041666666664,0.026041666666664298,50,95,untitled,27,10
63.125,63.25,0.125,57,47,untitled,27,10
63.125,63.25,0.125,61,95,untitled,27,10
63.125,63.25,0.125,66,95,untitled,27,10
63.25,63.276041666666664,0.026041666666664298,50,95,untitled,27,10
63.375,63.5,0.125,61,95,untitled,27,10
63.5,63.625,0.125,61,95,untitled,27,10
63.5,63.625,0.125,57,47,untitled,27,10
63.5,63.625,0.125,66,95,untitled,27,10
63.5,63.625,0.125,69,47,untitled,27,10
63.625,63.651041666666664,0.026041666666664298,50,95,untitled,27,10
63.625,63.75,0.125,66,95,untitled,27,10
63.75,63.875,0.125,57,47,untitled,27,10
63.75,63.875,0.125,61,95,untitled,27,10
63.875,64.0,0.125,61,95,untitled,27,10
63.875,64.0,0.125,66,95,untitled,27,10
63.875,64.0,0.125,57,47,untitled,27,10
63.875,64.0,0.125,69,47,untitled,27,10
64.0,64.02604166666666,0.026041666666664298,55,95,untitled,27,10
64.125,64.15104166666666,0.026041666666664298,55,95,untitled,27,10
64.25,64.5,0.25,61,95,untitled,27,10
64.25,64.5,0.25,57,47,untitled,27,10
64.25,64.5,0.25,69,47,untitled,27,10
64.25,64.5,0.25,66,95,untitled,27,10
64.5,64.52604166666667,0.026041666666671404,50,95,untitled,27,10
64.625,64.65104166666667,0.026041666666671404,50,95,untitled,27,10
64.75,64.875,0.125,59,95,untitled,27,10
64.75,64.875,0.125,64,95,untitled,27,10
64.875,64.90104166666667,0.026041666666671404,59,95,untitled,27,10
65.0,65.02604166666667,0.026041666666671404,59,95,untitled,27,10
65.125,65.25,0.125,59,95,untitled,27,10
65.125,65.25,0.125,68,47,untitled,27,10
65.125,65.25,0.125,71,47,untitled,27,10
65.125,65.25,0.125,64,95,untitled,27,10
65.25,65.27604166666667,0.026041666666671404,50,95,untitled,27,10
65.375,65.40104166666667,0.026041666666671404,50,95,untitled,27,10
65.5,65.625,0.125,59,95,untitled,27,10
65.5,65.625,0.125,64,47,untitled,27,10
65.625,65.75,0.125,59,47,untitled,27,10
65.625,65.75,0.125,64,95,untitled,27,10
65.75,65.875,0.125,59,95,untitled,27,10
65.875,65.90104166666667,0.026041666666671404,50,95,untitled,27,10
66.0,66.25,0.25,62,95,untitled,27,10
66.25,66.5,0.25,61,95,untitled,27,10
66.5,66.52604166666667,0.026041666666671404,50,95,untitled,27,10
66.625,66.65104166666667,0.026041666666671404,50,95,untitled,27,10
66.75,66.875,0.125,59,95,untitled,27,10
66.75,66.875,0.125,62,95,untitled,27,10
66.75,66.875,0.125,66,95,untitled,27,10
66.875,66.90104166666667,0.026041666666671404,50,95,untitled,27,10
67.0,67.02604166666667,0.026041666666671404,50,95,untitled,27,10
67.125,67.25,0.125,59,95,untitled,27,10
67.125,67.25,0.125,62,95,untitled,27,10
67.125,67.25,0.125,66,95,untitled,27,10
67.25,67.27604166666667,0.026041666666671404,50,95,untitled,27,10
67.25,67.375,0.125,62,95,untitled,27,10
67.375,67.5,0.125,59,95,untitled,27,10
67.5,67.625,0.125,59,95,untitled,27,10
67.5,67.625,0.125,62,95,untitled,27,10
67.625,67.75,0.125,59,95,untitled,27,10
67.75,67.77604166666667,0.026041666666671404,50,95,untitled,27,10
67.875,68.0,0.125,59,95,untitled,27,10
67.875,68.0,0.125,62,95,untitled,27,10
68.0,68.02604166666667,0.026041666666671404,50,95,untitled,27,10
68.0,68.125,0.125,62,95,untitled,27,10
68.125,68.15104166666667,0.026041666666671404,50,95,untitled,27,10
68.25,68.5,0.25,66,95,untitled,27,10
68.25,68.5,0.25,62,95,untitled,27,10
68.25,68.5,0.25,59,95,untitled,27,10
68.5,68.52604166666667,0.026041666666671404,50,95,untitled,27,10
68.625,68.65104166666667,0.026041666666671404,50,95,untitled,27,10
68.75,68.875,0.125,57,95,untitled,27,10
68.75,68.875,0.125,62,95,untitled,27,10
68.75,68.875,0.125,66,95,untitled,27,10
68.875,68.90104166666667,0.026041666666671404,50,95,untitled,27,10
69.0,69.02604166666667,0.026041666666671404,50,95,untitled,27,10
69.125,69.25,0.125,57,95,untitled,27,10
69.125,69.25,0.125,62,95,untitled,27,10
69.125,69.25,0.125,66,95,untitled,27,10
69.25,69.27604166666667,0.026041666666671404,50,95,untitled,27,10
69.25,69.375,0.125,62,95,untitled,27,10
69.375,69.5,0.125,57,95,untitled,27,10
69.5,69.625,0.125,57,95,untitled,27,10
69.5,69.625,0.125,62,95,untitled,27,10
69.625,69.65104166666667,0.026041666666671404,57,95,untitled,27,10
69.75,69.77604166666667,0.026041666666671404,50,95,untitled,27,10
69.875,70.0,0.125,57,95,untitled,27,10
69.875,70.0,0.125,62,95,untitled,27,10
70.0,70.02604166666667,0.026041666666671404,50,95,untitled,27,10
70.0,70.125,0.125,62,95,untitled,27,10
70.125,70.15104166666667,0.026041666666671404,50,95,untitled,27,10
70.25,70.5,0.25,66,95,untitled,27,10
70.25,70.5,0.25,62,95,untitled,27,10
70.25,70.5,0.25,57,95,untitled,27,10
70.5,70.52604166666667,0.026041666666671404,50,95,untitled,27,10
70.5,70.625,0.125,73,95,untitled,27,10
70.5,70.625,0.125,69,95,untitled,27,10
70.625,70.65104166666667,0.026041666666671404,50,95,untitled,27,10
70.625,70.65104166666667,0.026041666666671404,69,95,untitled,27,10
70.75,70.875,0.125,61,95,untitled,27,10
70.75,70.875,0.125,66,95,untitled,27,10
70.75,70.875,0.125,69,47,untitled,27,10
70.875,70.90104166666667,0.026041666666671404,50,95,untitled,27,10
71.0,71.02604166666667,0.026041666666671404,50,95,untitled,27,10
71.125,71.25,0.125,61,95,untitled,27,10
71.125,71.25,0.125,66,95,untitled,27,10
71.125,71.25,0.125,69,47,untitled,27,10
71.25,71.27604166666667,0.026041666666671404,50,95,untitled,27,10
71.25,71.375,0.125,66,95,untitled,27,10
71.375,71.5,0.125,61,95,untitled,27,10
71.5,71.625,0.125,57,47,untitled,27,10
71.5,71.625,0.125,61,95,untitled,27,10
71.5,71.625,0.125,66,95,untitled,27,10
71.625,71.65104166666667,0.026041666666671404,57,95,untitled,27,10
71.75,71.77604166666667,0.026041666666671404,50,95,untitled,27,10
71.875,72.0,0.125,61,95,untitled,27,10
71.875,72.0,0.125,66,95,untitled,27,10
72.0,72.02604166666667,0.026041666666671404,50,95,untitled,27,10
72.0,72.125,0.125,66,95,untitled,27,10
72.0,72.125,0.125,57,47,untitled,27,10
72.125,72.15104166666667,0.026041666666671404,50,95,untitled,27,10
72.25,72.5,0.25,69,47,untitled,27,10
72.25,72.5,0.25,66,95,untitled,27,10
72.25,72.5,0.25,61,95,untitled,27,10
72.5,72.52604166666667,0.026041666666671404,50,95,untitled,27,10
72.625,72.65104166666667,0.026041666666671404,50,95,untitled,27,10
72.75,72.875,0.125,59,47,untitled,27,10
72.75,72.875,0.125,64,95,untitled,27,10
72.75,72.875,0.125,68,47,untitled,27,10
72.875,73.0,0.125,59,95,untitled,27,10
73.0,73.02604166666667,0.026041666666671404,50,95,untitled,27,10
73.125,73.25,0.125,59,47,untitled,27,10
73.125,73.25,0.125,64,95,untitled,27,10
73.125,73.25,0.125,68,47,untitled,27,10
73.25,73.27604166666667,0.026041666666671404,50,95,untitled,27,10
73.25,73.375,0.125,64,95,untitled,27,10
73.375,73.40104166666667,0.026041666666671404,59,95,untitled,27,10
73.5,73.625,0.125,59,95,untitled,27,10
73.5,73.625,0.125,68,47,untitled,27,10
73.5,73.625,0.125,64,95,untitled,27,10
73.625,73.65104166666667,0.026041666666671404,57,95,untitled,27,10
73.75,73.77604166666667,0.026041666666671404,50,95,untitled,27,10
73.875,74.0,0.125,59,95,untitled,27,10
73.875,74.0,0.125,64,95,untitled,27,10
73.875,74.0,0.125,68,47,untitled,27,10
74.0,74.25,0.25,62,95,untitled,27,10
74.25,74.5,0.25,61,95,untitled,27,10
74.5,74.52604166666667,0.026041666666671404,50,95,untitled,27,10
74.625,74.65104166666667,0.026041666666671404,50,95,untitled,27,10
74.75,74.875,0.125,57,95,untitled,27,10
74.75,74.875,0.125,62,95,untitled,27,10
74.75,74.875,0.125,66,47,untitled,27,10
74.875,74.90104166666667,0.026041666666671404,50,95,untitled,27,10
75.0,75.125,0.125,54,95,untitled,27,10
75.125,75.25,0.125,57,95,untitled,27,10
75.125,75.25,0.125,62,95,untitled,27,10
75.125,75.25,0.125,66,47,untitled,27,10
75.25,75.27604166666667,0.026041666666671404,50,95,untitled,27,10
75.375,75.5,0.125,62,95,untitled,27,10
75.375,75.5,0.125,66,47,untitled,27,10
75.375,75.5,0.125,59,95,untitled,27,10
75.5,75.52604166666667,0.026041666666671404,62,95,untitled,27,10
75.625,75.65104166666667,0.026041666666671404,62,95,untitled,27,10
75.75,75.77604166666667,0.026041666666671404,59,95,untitled,27,10
75.75,75.875,0.125,66,95,untitled,27,10
75.75,75.875,0.125,62,95,untitled,27,10
75.875,75.90104166666667,0.026041666666671404,59,95,untitled,27,10
75.875,76.0,0.125,62,95,untitled,27,10
75.875,76.0,0.125,66,95,untitled,27,10
76.0,76.02604166666667,0.026041666666671404,50,95,untitled,27,10
76.125,76.15104166666667,0.026041666666671404,50,95,untitled,27,10
76.25,76.375,0.125,59,47,untitled,27,10
76.25,76.375,0.125,66,95,untitled,27,10
76.25,76.375,0.125,62,95,untitled,27,10
76.375,76.5,0.125,59,47,untitled,27,10
76.375,76.5,0.125,62,95,untitled,27,10
76.375,76.5,0.125,66,95,untitled,27,10
76.5,76.52604166666667,0.026041666666671404,50,95,untitled,27,10
76.625,76.65104166666667,0.026041666666671404,50,95,untitled,27,10
76.75,76.875,0.125,57,95,untitled,27,10
76.75,76.875,0.125,62,95,untitled,27,10
76.75,76.875,0.125,66,95,untitled,27,10
76.875,76.90104166666667,0.026041666666671404,50,95,untitled,27,10
77.0,77.02604166666667,0.026041666666671404,50,95,untitled,27,10
77.125,77.25,0.125,57,95,untitled,27,10
77.125,77.25,0.125,62,95,untitled,27,10
77.125,77.25,0.125,66,95,untitled,27,10
77.25,77.27604166666667,0.026041666666671404,50,95,untitled,27,10
77.375,77.40104166666667,0.026041666666671404,50,95,untitled,27,10
77.375,77.5,0.125,62,95,untitled,27,10
77.5,77.625,0.125,66,95,untitled,27,10
77.5,77.625,0.125,57,95,untitled,27,10
77.5,77.625,0.125,62,95,untitled,27,10
77.625,77.65104166666667,0.026041666666671404,50,95,untitled,27,10
77.75,77.77604166666667,0.026041666666671404,50,95,untitled,27,10
77.75,77.875,0.125,62,95,untitled,27,10
77.875,78.0,0.125,57,95,untitled,27,10
77.875,78.0,0.125,62,95,untitled,27,10
77.875,78.0,0.125,66,95,untitled,27,10
78.0,78.02604166666667,0.026041666666671404,50,95,untitled,27,10
78.0,78.25,0.25,61,95,untitled,27,10
78.25,78.375,0.125,57,95,untitled,27,10
78.25,78.375,0.125,66,95,untitled,27,10
78.25,78.375,0.125,62,95,untitled,27,10
78.375,78.5,0.125,62,95,untitled,27,10
78.375,78.5,0.125,66,95,untitled,27,10
78.375,78.5,0.125,57,95,untitled,27,10
78.5,78.52604166666667,0.026041666666671404,50,95,untitled,27,10
78.625,78.65104166666667,0.026041666666671404,50,95,untitled,27,10
78.75,78.77604166666667,0.026041666666671404,64,95,untitled,27,10
78.875,78.90104166666667,0.026041666666671404,50,95,untitled,27,10
78.875,78.90104166666667,0.026041666666671404,64,95,untitled,27,10
79.0,79.02604166666667,0.026041666666671404,59,95,untitled,27,10
79.0,79.125,0.125,61,95,untitled,27,10
79.125,79.25,0.125,61,95,untitled,27,10
79.125,79.25,0.125,66,95,untitled,27,10
79.125,79.25,0.125,69,95,untitled,27,10
79.25,79.27604166666667,0.026041666666671404,50,95,untitled,27,10
79.375,79.40104166666667,0.026041666666671404,55,95,untitled,27,10
79.375,79.5,0.125,61,47,untitled,27,10
79.5,79.625,0.125,69,95,untitled,27,10
79.5,79.625,0.125,61,95,untitled,27,10
79.5,79.625,0.125,66,95,untitled,27,10
79.625,79.65104166666667,0.026041666666671404,50,95,untitled,27,10
79.75,79.77604166666667,0.026041666666671404,55,95,untitled,27,10
79.75,79.875,0.125,61,95,untitled,27,10
79.875,80.0,0.125,61,95,untitled,27,10
79.875,80.0,0.125,66,95,untitled,27,10
79.875,80.0,0.125,69,95,untitled,27,10
80.0,80.02604166666667,0.026041666666671404,50,95,untitled,27,10
80.125,80.25,0.125,66,95,untitled,27,10
80.125,80.25,0.125,61,95,untitled,27,10
80.25,80.375,0.125,61,95,untitled,27,10
80.25,80.375,0.125,69,47,untitled,27,10
80.25,80.375,0.125,66,95,untitled,27,10
80.375,80.5,0.125,61,95,untitled,27,10
80.375,80.5,0.125,66,95,untitled,27,10
80.375,80.5,0.125,69,95,untitled,27,10
80.5,80.52604166666667,0.026041666666671404,50,95,untitled,27,10
80.625,80.65104166666667,0.026041666666671404,50,95,untitled,27,10
80.75,80.875,0.125,59,95,untitled,27,10
80.75,80.875,0.125,64,95,untitled,27,10
80.75,80.875,0.125,68,47,untitled,27,10
80.875,80.90104166666667,0.026041666666671404,50,95,untitled,27,10
81.0,81.125,0.125,59,95,untitled,27,10
81.0,81.125,0.125,68,47,untitled,27,10
81.0,81.125,0.125,64,47,untitled,27,10
81.125,81.25,0.125,59,95,untitled,27,10
81.125,81.25,0.125,68,47,untitled,27,10
81.125,81.25,0.125,64,95,untitled,27,10
81.25,81.27604166666667,0.026041666666671404,64,95,untitled,27,10
81.375,81.5,0.125,59,95,untitled,27,10
81.375,81.5,0.125,68,47,untitled,27,10
81.375,81.5,0.125,64,95,untitled,27,10
81.5,81.52604166666667,0.026041666666671404,55,95,untitled,27,10
81.625,81.65104166666667,0.026041666666671404,64,95,untitled,27,10
81.75,81.875,0.125,68,47,untitled,27,10
81.75,81.875,0.125,59,95,untitled,27,10
81.75,81.875,0.125,64,95,untitled,27,10
81.875,81.90104166666667,0.026041666666671404,55,95,untitled,27,10
82.0,82.02604166666667,0.026041666666671404,55,95,untitled,27,10
82.125,82.15104166666667,0.026041666666671404,64,95,untitled,27,10
82.25,82.375,0.125,59,95,untitled,27,10
82.25,82.375,0.125,64,95,untitled,27,10
82.25,82.375,0.125,68,47,untitled,27,10
82.375,82.5,0.125,59,95,untitled,27,10
82.375,82.5,0.125,64,95,untitled,27,10
82.375,82.5,0.125,68,47,untitled,27,10
82.5,82.52604166666667,0.026041666666671404,50,95,untitled,27,10
82.625,82.65104166666667,0.026041666666671404,50,95,untitled,27,10
82.75,82.875,0.125,59,47,untitled,27,10
82.75,82.875,0.125,62,95,untitled,27,10
82.75,82.875,0.125,66,95,untitled,27,10
82.875,82.90104166666667,0.026041666666671404,50,95,untitled,27,10
83.0,83.02604166666667,0.026041666666671404,50,95,untitled,27,10
83.0,83.09375,0.09375,62,47,untitled,27,10
83.125,83.15104166666667,0.026041666666671404,50,95,untitled,27,10
83.125,83.21875,0.09375,66,95,untitled,27,10
83.25,83.27604166666667,0.026041666666671404,50,95,untitled,27,10
83.25,83.34375,0.09375,64,95,untitled,27,10
83.375,83.40104166666667,0.026041666666671404,55,95,untitled,27,10
83.375,83.46875,0.09375,59,95,untitled,27,10
83.5,83.625,0.125,66,47,untitled,27,10
83.5,83.625,0.125,59,95,untitled,27,10
83.5,83.625,0.125,62,95,untitled,27,10
83.625,83.65104166666667,0.026041666666671404,50,95,untitled,27,10
83.75,83.77604166666667,0.026041666666671404,50,95,untitled,27,10
83.875,84.0,0.125,59,95,untitled,27,10
83.875,84.0,0.125,62,95,untitled,27,10
83.875,84.0,0.125,66,47,untitled,27,10
84.0,84.02604166666667,0.026041666666671404,50,95,untitled,27,10
84.125,84.15104166666667,0.026041666666671404,50,95,untitled,27,10
84.25,84.375,0.125,66,95,untitled,27,10
84.25,84.375,0.125,62,95,untitled,27,10
84.25,84.375,0.125,59,95,untitled,27,10
84.375,84.5,0.125,66,95,untitled,27,10
84.375,84.5,0.125,62,95,untitled,27,10
84.375,84.5,0.125,59,95,untitled,27,10
84.5,84.52604166666667,0.026041666666671404,50,95,untitled,27,10
84.625,84.65104166666667,0.026041666666671404,50,95,untitled,27,10
84.75,84.875,0.125,57,95,untitled,27,10
84.75,84.875,0.125,62,95,untitled,27,10
84.75,84.875,0.125,66,47,untitled,27,10
84.875,84.90104166666667,0.026041666666671404,50,95,untitled,27,10
85.0,85.02604166666667,0.026041666666671404,50,95,untitled,27,10
85.125,85.25,0.125,57,95,untitled,27,10
85.125,85.25,0.125,62,95,untitled,27,10
85.125,85.25,0.125,66,47,untitled,27,10
85.25,85.27604166666667,0.026041666666671404,50,95,untitled,27,10
85.25,85.375,0.125,66,95,untitled,27,10
85.375,85.40104166666667,0.026041666666671404,50,95,untitled,27,10
85.375,85.5,0.125,62,95,untitled,27,10
85.5,85.52604166666667,0.026041666666671404,50,95,untitled,27,10
85.625,85.65104166666667,0.026041666666671404,50,95,untitled,27,10
85.75,85.77604166666667,0.026041666666671404,50,95,untitled,27,10
85.875,86.0,0.125,57,95,untitled,27,10
85.875,86.0,0.125,62,95,untitled,27,10
85.875,86.0,0.125,66,47,untitled,27,10
86.0,86.02604166666667,0.026041666666671404,50,95,untitled,27,10
86.125,86.15104166666667,0.026041666666671404,50,95,untitled,27,10
86.25,86.375,0.125,57,95,untitled,27,10
86.25,86.375,0.125,62,95,untitled,27,10
86.375,86.5,0.125,57,95,untitled,27,10
86.375,86.5,0.125,66,47,untitled,27,10
86.375,86.5,0.125,62,95,untitled,27,10
86.5,86.52604166666667,0.026041666666671404,50,95,untitled,27,10
86.625,86.65104166666667,0.026041666666671404,50,95,untitled,27,10
86.75,86.875,0.125,61,95,untitled,27,10
86.75,86.875,0.125,66,47,untitled,27,10
86.75,86.875,0.125,69,95,untitled,27,10
86.875,86.90104166666667,0.026041666666671404,50,95,untitled,27,10
87.0,87.02604166666667,0.026041666666671404,62,95,untitled,27,10
87.125,87.25,0.125,61,47,untitled,27,10
87.125,87.25,0.125,66,95,untitled,27,10
87.125,87.25,0.125,69,47,untitled,27,10
87.25,87.27604166666667,0.026041666666671404,51,95,untitled,27,10
87.25,87.27604166666667,0.026041666666671404,55,95,untitled,27,10
87.375,87.40104166666667,0.026041666666671404,50,95,untitled,27,10
87.5,87.625,0.125,69,47,untitled,27,10
87.5,87.625,0.125,61,95,untitled,27,10
87.5,87.625,0.125,66,95,untitled,27,10
87.625,87.65104166666667,0.026041666666671404,50,95,untitled,27,10
87.75,87.77604166666667,0.026041666666671404,62,95,untitled,27,10
87.875,88.0,0.125,61,95,untitled,27,10
87.875,88.0,0.125,66,95,untitled,27,10
87.875,88.0,0.125,69,47,untitled,27,10
88.0,88.02604166666667,0.026041666666671404,50,95,untitled,27,10
88.125,88.15104166666667,0.026041666666671404,50,95,untitled,27,10
88.25,88.375,0.125,69,47,untitled,27,10
88.25,88.375,0.125,66,95,untitled,27,10
88.25,88.375,0.125,61,95,untitled,27,10
88.375,88.5,0.125,69,47,untitled,27,10
88.375,88.5,0.125,66,95,untitled,27,10
88.375,88.5,0.125,61,95,untitled,27,10
88.5,88.52604166666667,0.026041666666671404,50,95,untitled,27,10
88.625,88.65104166666667,0.026041666666671404,50,95,untitled,27,10
88.75,88.875,0.125,59,47,untitled,27,10
88.75,88.875,0.125,64,47,untitled,27,10
88.75,88.875,0.125,68,95,untitled,27,10
88.75,88.875,0.125,71,47,untitled,27,10
88.875,88.90104166666667,0.026041666666671404,50,95,untitled,27,10
88.875,89.0,0.125,71,47,untitled,27,10
89.0,89.02604166666667,0.026041666666671404,50,95,untitled,27,10
89.0,89.125,0.125,68,95,untitled,27,10
89.125,89.25,0.125,59,95,untitled,27,10
89.125,89.25,0.125,64,95,untitled,27,10
89.25,89.27604166666667,0.026041666666671404,50,95,untitled,27,10
89.375,89.40104166666667,0.026041666666671404,50,95,untitled,27,10
89.5,89.625,0.125,64,95,untitled,27,10
89.5,89.625,0.125,59,47,untitled,27,10
89.625,89.65104166666667,0.026041666666671404,50,95,untitled,27,10
89.75,89.77604166666667,0.026041666666671404,50,95,untitled,27,10
89.875,90.0,0.125,59,47,untitled,27,10
89.875,90.0,0.125,64,95,untitled,27,10
90.0,90.02604166666667,0.026041666666671404,50,95,untitled,27,10
90.125,90.15104166666667,0.026041666666671404,50,95,untitled,27,10
90.25,90.375,0.125,59,95,untitled,27,10
90.25,90.375,0.125,68,47,untitled,27,10
90.25,90.375,0.125,64,95,untitled,27,10
90.375,90.5,0.125,59,95,untitled,27,10
90.375,90.5,0.125,68,47,untitled,27,10
90.375,90.5,0.125,64,95,untitled,27,10
90.5,90.52604166666667,0.026041666666671404,50,95,untitled,27,10
90.625,90.65104166666667,0.026041666666671404,50,95,untitled,27,10
90.75,90.875,0.125,59,95,untitled,27,10
90.75,90.875,0.125,62,47,untitled,27,10
90.75,90.875,0.125,66,95,untitled,27,10
90.875,90.90104166666667,0.026041666666671404,50,95,untitled,27,10
91.0,91.02604166666667,0.026041666666671404,50,95,untitled,27,10
91.0,91.125,0.125,62,95,untitled,27,10
91.125,91.25,0.125,59,95,untitled,27,10
91.125,91.25,0.125,62,95,untitled,27,10
91.125,91.25,0.125,66,47,untitled,27,10
91.25,91.27604166666667,0.026041666666671404,50,95,untitled,27,10
91.25,91.375,0.125,62,95,untitled,27,10
91.375,91.40104166666667,0.026041666666671404,55,95,untitled,27,10
91.375,91.5,0.125,59,95,untitled,27,10
91.5,91.625,0.125,66,47,untitled,27,10
91.5,91.625,0.125,59,95,untitled,27,10
91.5,91.625,0.125,62,95,untitled,27,10
91.625,91.65104166666667,0.026041666666671404,50,95,untitled,27,10
91.75,91.77604166666667,0.026041666666671404,50,95,untitled,27,10
91.875,92.0,0.125,59,95,untitled,27,10
91.875,92.0,0.125,62,95,untitled,27,10
91.875,92.0,0.125,66,47,untitled,27,10
92.0,92.02604166666667,0.026041666666671404,50,95,untitled,27,10
92.125,92.15104166666667,0.026041666666671404,50,95,untitled,27,10
92.25,92.375,0.125,66,47,untitled,27,10
92.25,92.375,0.125,62,95,untitled,27,10
92.25,92.375,0.125,59,95,untitled,27,10
92.375,92.5,0.125,66,47,untitled,27,10
92.375,92.5,0.125,62,95,untitled,27,10
92.375,92.5,0.125,59,95,untitled,27,10
92.5,92.52604166666667,0.026041666666671404,50,95,untitled,27,10
92.625,92.65104166666667,0.026041666666671404,50,95,untitled,27,10
92.75,92.875,0.125,57,95,untitled,27,10
92.75,92.875,0.125,62,95,untitled,27,10
92.75,92.875,0.125,66,95,untitled,27,10
92.875,92.90104166666667,0.026041666666671404,50,95,untitled,27,10
93.0,93.02604166666667,0.026041666666671404,50,95,untitled,27,10
93.125,93.25,0.125,57,47,untitled,27,10
93.125,93.25,0.125,62,95,untitled,27,10
93.125,93.25,0.125,66,95,untitled,27,10
93.25,93.27604166666667,0.026041666666671404,50,95,untitled,27,10
93.25,93.375,0.125,66,47,untitled,27,10
93.375,93.40104166666667,0.026041666666671404,50,95,untitled,27,10
93.375,93.5,0.125,62,95,untitled,27,10
93.5,93.625,0.125,66,95,untitled,27,10
93.5,93.625,0.125,57,95,untitled,27,10
93.5,93.625,0.125,62,95,untitled,27,10
93.625,93.65104166666667,0.026041666666671404,50,95,untitled,27,10
93.75,93.77604166666667,0.026041666666671404,50,95,untitled,27,10
93.875,94.0,0.125,57,95,untitled,27,10
93.875,94.0,0.125,62,95,untitled,27,10
93.875,94.0,0.125,66,47,untitled,27,10
94.0,94.02604166666667,0.026041666666671404,50,95,untitled,27,10
94.125,94.15104166666667,0.026041666666671404,50,95,untitled,27,10
94.25,94.375,0.125,57,95,untitled,27,10
94.25,94.375,0.125,62,95,untitled,27,10
94.375,94.5,0.125,57,95,untitled,27,10
94.375,94.5,0.125,62,95,untitled,27,10
94.375,94.5,0.125,66,95,untitled,27,10
94.5,94.52604166666667,0.026041666666671404,50,95,untitled,27,10
94.625,94.65104166666667,0.026041666666671404,50,95,untitled,27,10
94.75,94.875,0.125,61,95,untitled,27,10
94.75,94.875,0.125,66,95,untitled,27,10
94.75,94.875,0.125,73,47,untitled,27,10
94.75,94.875,0.125,69,47,untitled,27,10
94.875,95.0,0.125,61,47,untitled,27,10
94.875,95.0,0.125,73,47,untitled,27,10
94.875,95.0,0.125,66,95,untitled,27,10
94.875,95.0,0.125,69,47,untitled,27,10
95.0,95.02604166666667,0.026041666666671404,62,95,untitled,27,10
95.125,95.25,0.125,61,95,untitled,27,10
95.125,95.25,0.125,66,95,untitled,27,10
95.125,95.25,0.125,69,47,untitled,27,10
95.25,95.27604166666667,0.026041666666671404,51,95,untitled,27,10
95.25,95.27604166666667,0.026041666666671404,55,95,untitled,27,10
95.375,95.40104166666667,0.026041666666671404,50,95,untitled,27,10
95.5,95.625,0.125,69,47,untitled,27,10
95.5,95.625,0.125,61,47,untitled,27,10
95.5,95.625,0.125,66,95,untitled,27,10
95.625,95.65104166666667,0.026041666666671404,50,95,untitled,27,10
95.75,95.77604166666667,0.026041666666671404,62,95,untitled,27,10
95.875,96.0,0.125,61,95,untitled,27,10
95.875,96.0,0.125,66,95,untitled,27,10
95.875,96.0,0.125,69,47,untitled,27,10
96.0,96.02604166666667,0.026041666666671404,50,95,untitled,27,10
96.125,96.15104166666667,0.026041666666671404,50,95,untitled,27,10
96.25,96.375,0.125,61,47,untitled,27,10
96.25,96.375,0.125,69,95,untitled,27,10
96.25,96.375,0.125,66,95,untitled,27,10
96.375,96.5,0.125,66,47,untitled,27,10
96.375,96.5,0.125,69,47,untitled,27,10
96.375,96.5,0.125,61,95,untitled,27,10
96.5,96.52604166666667,0.026041666666671404,50,95,untitled,27,10
96.625,96.65104166666667,0.026041666666671404,50,95,untitled,27,10
96.75,96.875,0.125,59,47,untitled,27,10
96.75,96.875,0.125,64,95,untitled,27,10
96.75,96.875,0.125,68,47,untitled,27,10
96.75,96.875,0.125,71,47,untitled,27,10
96.875,97.0,0.125,59,95,untitled,27,10
96.875,97.0,0.125,64,47,untitled,27,10
96.875,97.0,0.125,71,47,untitled,27,10
96.875,97.0,0.125,68,47,untitled,27,10
97.0,97.02604166666667,0.026041666666671404,50,95,untitled,27,10
97.125,97.25,0.125,59,95,untitled,27,10
97.125,97.25,0.125,64,95,untitled,27,10
97.125,97.25,0.125,68,47,untitled,27,10
97.25,97.27604166666667,0.026041666666671404,50,95,untitled,27,10
97.375,97.40104166666667,0.026041666666671404,50,95,untitled,27,10
97.5,97.625,0.125,68,47,untitled,27,10
97.5,97.625,0.125,59,47,untitled,27,10
97.5,97.625,0.125,64,95,untitled,27,10
97.625,97.65104166666667,0.026041666666671404,50,95,untitled,27,10
97.75,97.77604166666667,0.026041666666671404,50,95,untitled,27,10
97.875,98.0,0.125,68,47,untitled,27,10
97.875,98.0,0.125,59,47,untitled,27,10
97.875,98.0,0.125,64,95,untitled,27,10
98.0,98.02604166666667,0.026041666666671404,50,95,untitled,27,10
98.125,98.15104166666667,0.026041666666671404,50,95,untitled,27,10
98.25,98.375,0.125,68,47,untitled,27,10
98.25,98.375,0.125,64,95,untitled,27,10
98.25,98.375,0.125,59,47,untitled,27,10
98.375,98.5,0.125,68,47,untitled,27,10
98.375,98.5,0.125,59,95,untitled,27,10
98.375,98.5,0.125,64,95,untitled,27,10
98.5,98.52604166666667,0.026041666666671404,50,95,untitled,27,10
98.625,98.65104166666667,0.026041666666671404,50,95,untitled,27,10
98.75,98.875,0.125,59,95,untitled,27,10
98.75,98.875,0.125,62,95,untitled,27,10
98.75,98.875,0.125,71,47,untitled,27,10
98.75,98.875,0.125,66,95,untitled,27,10
98.875,99.0,0.125,59,95,untitled,27,10
98.875,99.0,0.125,71,47,untitled,27,10
98.875,99.0,0.125,62,95,untitled,27,10
98.875,99.0,0.125,66,95,untitled,27,10
99.0,99.02604166666667,0.026041666666671404,50,95,untitled,27,10
99.125,99.25,0.125,59,95,untitled,27,10
99.125,99.25,0.125,71,47,untitled,27,10
99.125,99.25,0.125,62,95,untitled,27,10
99.125,99.25,0.125,66,95,untitled,27,10
99.25,99.27604166666667,0.026041666666671404,59,95,untitled,27,10
99.375,99.5,0.125,59,95,untitled,27,10
99.375,99.5,0.125,62,95,untitled,27,10
99.5,99.625,0.125,62,95,untitled,27,10
99.5,99.625,0.125,59,47,untitled,27,10
99.5,99.625,0.125,66,47,untitled,27,10
99.5,99.625,0.125,71,47,untitled,27,10
99.625,99.65104166666667,0.026041666666671404,59,95,untitled,27,10
99.75,99.875,0.125,59,95,untitled,27,10
99.75,99.875,0.125,62,95,untitled,27,10
99.875,100.0,0.125,59,95,untitled,27,10
99.875,100.0,0.125,71,47,untitled,27,10
99.875,100.0,0.125,62,95,untitled,27,10
99.875,100.0,0.125,66,47,untitled,27,10
100.0,100.02604166666667,0.026041666666671404,50,95,untitled,27,10
100.0,100.125,0.125,62,95,untitled,27,10
100.125,100.15104166666667,0.026041666666671404,50,95,untitled,27,10
100.25,100.375,0.125,59,95,untitled,27,10
100.25,100.375,0.125,66,95,untitled,27,10
100.25,100.375,0.125,62,95,untitled,27,10
100.375,100.5,0.125,66,95,untitled,27,10
100.375,100.5,0.125,59,95,untitled,27,10
100.375,100.5,0.125,62,95,untitled,27,10
100.375,100.5,0.125,71,95,untitled,27,10
100.5,100.52604166666667,0.026041666666671404,50,95,untitled,27,10
100.625,100.65104166666667,0.026041666666671404,50,95,untitled,27,10
100.75,100.875,0.125,57,95,untitled,27,10
100.75,100.875,0.125,62,95,untitled,27,10
100.75,100.875,0.125,69,47,untitled,27,10
100.75,100.875,0.125,66,95,untitled,27,10
100.875,101.0,0.125,57,95,untitled,27,10
100.875,101.0,0.125,69,47,untitled,27,10
100.875,101.0,0.125,62,95,untitled,27,10
100.875,101.0,0.125,66,95,untitled,27,10
101.0,101.02604166666667,0.026041666666671404,50,95,untitled,27,10
101.125,101.25,0.125,57,95,untitled,27,10
101.125,101.25,0.125,69,47,untitled,27,10
101.125,101.25,0.125,62,95,untitled,27,10
101.125,101.25,0.125,66,47,untitled,27,10
101.25,101.27604166666667,0.026041666666671404,59,95,untitled,27,10
101.375,101.5,0.125,57,95,untitled,27,10
101.375,101.5,0.125,62,95,untitled,27,10
101.5,101.625,0.125,62,47,untitled,27,10
101.5,101.625,0.125,57,95,untitled,27,10
101.5,101.625,0.125,66,47,untitled,27,10
101.5,101.625,0.125,69,47,untitled,27,10
101.625,101.65104166666667,0.026041666666671404,59,95,untitled,27,10
101.75,101.875,0.125,57,95,untitled,27,10
101.75,101.875,0.125,62,95,untitled,27,10
101.875,102.0,0.125,57,95,untitled,27,10
101.875,102.0,0.125,69,47,untitled,27,10
101.875,102.0,0.125,66,47,untitled,27,10
101.875,102.0,0.125,62,95,untitled,27,10
102.0,102.02604166666667,0.026041666666671404,50,95,untitled,27,10
102.0,102.125,0.125,62,95,untitled,27,10
102.125,102.15104166666667,0.026041666666671404,50,95,untitled,27,10
102.25,102.375,0.125,57,95,untitled,27,10
102.25,102.375,0.125,66,47,untitled,27,10
102.25,102.375,0.125,62,95,untitled,27,10
102.375,102.5,0.125,66,47,untitled,27,10
102.375,102.5,0.125,69,47,untitled,27,10
102.375,102.5,0.125,62,95,untitled,27,10
102.375,102.5,0.125,57,95,untitled,27,10
102.5,102.52604166666667,0.026041666666671404,50,95,untitled,27,10
102.625,102.65104166666667,0.026041666666671404,50,95,untitled,27,10
102.75,102.875,0.125,61,95,untitled,27,10
102.75,102.875,0.125,69,95,untitled,27,10
102.75,102.875,0.125,73,47,untitled,27,10
102.75,102.875,0.125,66,95,untitled,27,10
102.875,102.90104166666667,0.026041666666671404,50,95,untitled,27,10
103.0,103.125,0.125,61,95,untitled,27,10
103.0,103.125,0.125,66,95,untitled,27,10
103.0,103.125,0.125,69,47,untitled,27,10
103.125,103.25,0.125,61,95,untitled,27,10
103.125,103.25,0.125,73,47,untitled,27,10
103.125,103.25,0.125,66,47,untitled,27,10
103.125,103.25,0.125,69,47,untitled,27,10
103.25,103.27604166666667,0.026041666666671404,50,95,untitled,27,10
103.375,103.40104166666667,0.026041666666671404,50,95,untitled,27,10
103.5,103.625,0.125,61,95,untitled,27,10
103.5,103.625,0.125,73,47,untitled,27,10
103.5,103.625,0.125,66,47,untitled,27,10
103.5,103.625,0.125,69,95,untitled,27,10
103.625,103.65104166666667,0.026041666666671404,50,95,untitled,27,10
103.75,103.77604166666667,0.026041666666671404,50,95,untitled,27,10
103.75,103.875,0.125,66,95,untitled,27,10
103.875,104.0,0.125,61,95,untitled,27,10
103.875,104.0,0.125,73,47,untitled,27,10
103.875,104.0,0.125,69,95,untitled,27,10
103.875,104.0,0.125,66,47,untitled,27,10
104.0,104.02604166666667,0.026041666666671404,50,95,untitled,27,10
104.125,104.15104166666667,0.026041666666671404,50,95,untitled,27,10
104.25,104.375,0.125,61,95,untitled,27,10
104.25,104.375,0.125,66,95,untitled,27,10
104.375,104.5,0.125,66,47,untitled,27,10
104.375,104.5,0.125,69,95,untitled,27,10
104.375,104.5,0.125,61,95,untitled,27,10
104.5,104.52604166666667,0.026041666666671404,50,95,untitled,27,10
104.625,104.65104166666667,0.026041666666671404,50,95,untitled,27,10
104.75,104.875,0.125,59,95,untitled,27,10
104.75,104.875,0.125,68,95,untitled,27,10
104.75,104.875,0.125,71,47,untitled,27,10
104.75,104.875,0.125,64,95,untitled,27,10
104.875,105.0,0.125,59,95,untitled,27,10
104.875,105.0,0.125,68,95,untitled,27,10
104.875,105.0,0.125,64,95,untitled,27,10
105.0,105.125,0.125,59,95,untitled,27,10
105.125,105.25,0.125,59,47,untitled,27,10
105.125,105.25,0.125,71,47,untitled,27,10
105.125,105.25,0.125,64,95,untitled,27,10
105.125,105.25,0.125,68,95,untitled,27,10
105.25,105.27604166666667,0.026041666666671404,50,95,untitled,27,10
105.375,105.40104166666667,0.026041666666671404,50,95,untitled,27,10
105.5,105.625,0.125,59,47,untitled,27,10
105.5,105.625,0.125,71,47,untitled,27,10
105.5,105.625,0.125,64,47,untitled,27,10
105.5,105.625,0.125,68,95,untitled,27,10
105.625,105.65104166666667,0.026041666666671404,50,95,untitled,27,10
105.75,105.875,0.125,59,95,untitled,27,10
105.75,105.875,0.125,64,95,untitled,27,10
105.875,106.0,0.125,59,47,untitled,27,10
105.875,106.0,0.125,71,47,untitled,27,10
105.875,106.0,0.125,68,95,untitled,27,10
105.875,106.0,0.125,64,47,untitled,27,10
106.0,106.02604166666667,0.026041666666671404,50,95,untitled,27,10
106.125,106.15104166666667,0.026041666666671404,50,95,untitled,27,10
106.25,106.375,0.125,59,95,untitled,27,10
106.25,106.375,0.125,64,95,untitled,27,10
106.375,106.5,0.125,59,95,untitled,27,10
106.375,106.5,0.125,68,47,untitled,27,10
106.375,106.5,0.125,64,95,untitled,27,10
106.5,106.52604166666667,0.026041666666671404,50,95,untitled,27,10
106.625,106.65104166666667,0.026041666666671404,50,95,untitled,27,10
106.75,106.875,0.125,59,95,untitled,27,10
106.75,106.875,0.125,62,95,untitled,27,10
106.75,106.875,0.125,71,47,untitled,27,10
106.75,106.875,0.125,66,47,untitled,27,10
106.875,107.0,0.125,59,95,untitled,27,10
106.875,107.0,0.125,71,47,untitled,27,10
106.875,107.0,0.125,62,95,untitled,27,10
106.875,107.0,0.125,66,95,untitled,27,10
107.0,107.02604166666667,0.026041666666671404,50,95,untitled,27,10
107.125,107.25,0.125,59,95,untitled,27,10
107.125,107.25,0.125,71,47,untitled,27,10
107.125,107.25,0.125,62,95,untitled,27,10
107.125,107.25,0.125,66,95,untitled,27,10
107.25,107.27604166666667,0.026041666666671404,59,95,untitled,27,10
107.375,107.5,0.125,59,95,untitled,27,10
107.375,107.5,0.125,62,95,untitled,27,10
107.5,107.625,0.125,62,95,untitled,27,10
107.5,107.625,0.125,59,95,untitled,27,10
107.5,107.625,0.125,66,47,untitled,27,10
107.5,107.625,0.125,71,47,untitled,27,10
107.625,107.65104166666667,0.026041666666671404,59,95,untitled,27,10
107.75,107.875,0.125,59,95,untitled,27,10
107.75,107.875,0.125,62,47,untitled,27,10
107.875,108.0,0.125,59,95,untitled,27,10
107.875,108.0,0.125,71,47,untitled,27,10
107.875,108.0,0.125,62,95,untitled,27,10
107.875,108.0,0.125,66,95,untitled,27,10
108.0,108.02604166666667,0.026041666666671404,50,95,untitled,27,10
108.0,108.125,0.125,62,47,untitled,27,10
108.125,108.15104166666667,0.026041666666671404,50,95,untitled,27,10
108.25,108.375,0.125,59,95,untitled,27,10
108.25,108.375,0.125,66,95,untitled,27,10
108.25,108.375,0.125,62,47,untitled,27,10
108.375,108.5,0.125,66,47,untitled,27,10
108.375,108.5,0.125,59,95,untitled,27,10
108.375,108.5,0.125,62,95,untitled,27,10
108.375,108.5,0.125,71,47,untitled,27,10
108.5,108.52604166666667,0.026041666666671404,50,95,untitled,27,10
108.625,108.65104166666667,0.026041666666671404,50,95,untitled,27,10
108.75,108.875,0.125,57,95,untitled,27,10
108.75,108.875,0.125,62,47,untitled,27,10
108.75,108.875,0.125,69,47,untitled,27,10
108.75,108.875,0.125,66,95,untitled,27,10
108.875,109.0,0.125,57,95,untitled,27,10
108.875,109.0,0.125,69,47,untitled,27,10
108.875,109.0,0.125,62,95,untitled,27,10
108.875,109.0,0.125,66,95,untitled,27,10
109.0,109.02604166666667,0.026041666666671404,50,95,untitled,27,10
109.125,109.25,0.125,57,95,untitled,27,10
109.125,109.25,0.125,69,95,untitled,27,10
109.125,109.25,0.125,62,95,untitled,27,10
109.125,109.25,0.125,66,95,untitled,27,10
109.25,109.27604166666667,0.026041666666671404,59,95,untitled,27,10
109.375,109.5,0.125,57,95,untitled,27,10
109.375,109.5,0.125,62,95,untitled,27,10
109.5,109.625,0.125,62,95,untitled,27,10
109.5,109.625,0.125,57,95,untitled,27,10
109.5,109.625,0.125,66,47,untitled,27,10
109.5,109.625,0.125,69,47,untitled,27,10
109.625,109.65104166666667,0.026041666666671404,59,95,untitled,27,10
109.75,109.875,0.125,57,47,untitled,27,10
109.75,109.875,0.125,62,47,untitled,27,10
109.875,110.0,0.125,57,95,untitled,27,10
109.875,110.0,0.125,69,47,untitled,27,10
109.875,110.0,0.125,66,47,untitled,27,10
109.875,110.0,0.125,62,95,untitled,27,10
110.0,110.02604166666667,0.026041666666671404,50,95,untitled,27,10
110.0,110.125,0.125,62,47,untitled,27,10
110.125,110.15104166666667,0.026041666666671404,50,95,untitled,27,10
110.25,110.375,0.125,57,47,untitled,27,10
110.25,110.375,0.125,66,95,untitled,27,10
110.25,110.375,0.125,62,95,untitled,27,10
110.375,110.5,0.125,66,95,untitled,27,10
110.375,110.5,0.125,69,95,untitled,27,10
110.375,110.5,0.125,62,47,untitled,27,10
110.375,110.5,0.125,57,95,untitled,27,10
110.5,110.52604166666667,0.026041666666671404,50,95,untitled,27,10
110.625,110.65104166666667,0.026041666666671404,50,95,untitled,27,10
110.75,110.875,0.125,61,95,untitled,27,10
110.75,110.875,0.125,69,95,untitled,27,10
110.75,110.875,0.125,73,47,untitled,27,10
110.75,110.875,0.125,66,47,untitled,27,10
110.875,110.90104166666667,0.026041666666671404,50,95,untitled,27,10
111.0,111.125,0.125,61,47,untitled,27,10
111.0,111.125,0.125,66,47,untitled,27,10
111.0,111.125,0.125,69,95,untitled,27,10
111.125,111.25,0.125,61,47,untitled,27,10
111.125,111.25,0.125,73,47,untitled,27,10
111.125,111.25,0.125,66,95,untitled,27,10
111.125,111.25,0.125,69,95,untitled,27,10
111.25,111.27604166666667,0.026041666666671404,50,95,untitled,27,10
111.375,111.40104166666667,0.026041666666671404,50,95,untitled,27,10
111.5,111.625,0.125,61,95,untitled,27,10
111.5,111.625,0.125,73,47,untitled,27,10
111.5,111.625,0.125,66,47,untitled,27,10
111.5,111.625,0.125,69,95,untitled,27,10
111.625,111.65104166666667,0.026041666666671404,50,95,untitled,27,10
111.75,111.77604166666667,0.026041666666671404,50,95,untitled,27,10
111.75,111.875,0.125,66,47,untitled,27,10
111.875,112.0,0.125,61,95,untitled,27,10
111.875,112.0,0.125,69,95,untitled,27,10
111.875,112.0,0.125,73,47,untitled,27,10
111.875,112.0,0.125,66,95,untitled,27,10
112.0,112.02604166666667,0.026041666666671404,50,95,untitled,27,10
112.125,112.15104166666667,0.026041666666671404,50,95,untitled,27,10
112.25,112.375,0.125,61,95,untitled,27,10
112.25,112.375,0.125,66,47,untitled,27,10
112.375,112.5,0.125,66,95,untitled,27,10
112.375,112.5,0.125,69,95,untitled,27,10
112.375,112.5,0.125,61,95,untitled,27,10
112.5,112.52604166666667,0.026041666666671404,50,95,untitled,27,10
112.625,112.65104166666667,0.026041666666671404,50,95,untitled,27,10
112.75,112.875,0.125,59,95,untitled,27,10
112.75,112.875,0.125,64,47,untitled,27,10
112.75,112.875,0.125,68,47,untitled,27,10
112.875,113.0,0.125,59,47,untitled,27,10
112.875,113.0,0.125,68,47,untitled,27,10
112.875,113.0,0.125,64,95,untitled,27,10
113.0,113.125,0.125,59,95,untitled,27,10
113.125,113.25,0.125,59,47,untitled,27,10
113.125,113.25,0.125,64,95,untitled,27,10
113.125,113.25,0.125,68,47,untitled,27,10
113.25,113.27604166666667,0.026041666666671404,50,95,untitled,27,10
113.375,113.40104166666667,0.026041666666671404,50,95,untitled,27,10
113.5,113.625,0.125,68,47,untitled,27,10
113.5,113.625,0.125,59,47,untitled,27,10
113.5,113.625,0.125,64,95,untitled,27,10
113.625,113.65104166666667,0.026041666666671404,50,95,untitled,27,10
113.75,113.875,0.125,59,47,untitled,27,10
113.75,113.875,0.125,64,95,untitled,27,10
113.875,114.0,0.125,59,95,untitled,27,10
113.875,114.0,0.125,68,95,untitled,27,10
113.875,114.0,0.125,64,47,untitled,27,10
114.0,114.02604166666667,0.026041666666671404,50,95,untitled,27,10
114.0,114.25,0.25,62,95,untitled,27,10
114.25,114.27604166666667,0.026041666666671404,50,95,untitled,27,10
114.25,114.5,0.25,61,95,untitled,27,10
114.5,114.52604166666667,0.026041666666671404,50,95,untitled,27,10
114.625,114.65104166666667,0.026041666666671404,50,95,untitled,27,10
114.75,114.875,0.125,59,95,untitled,27,10
114.75,114.875,0.125,62,95,untitled,27,10
114.75,114.875,0.125,66,95,untitled,27,10
114.875,114.90104166666667,0.026041666666671404,50,95,untitled,27,10
115.0,115.02604166666667,0.026041666666671404,50,95,untitled,27,10
115.125,115.25,0.125,64,95,untitled,27,10
115.25,115.27604166666667,0.026041666666671404,50,95,untitled,27,10
115.25,115.375,0.125,62,95,untitled,27,10
115.375,115.5,0.125,59,95,untitled,27,10
115.5,115.625,0.125,59,95,untitled,27,10
115.5,115.625,0.125,62,95,untitled,27,10
115.5,115.625,0.125,66,95,untitled,27,10
115.625,115.75,0.125,59,95,untitled,27,10
115.75,115.77604166666667,0.026041666666671404,50,95,untitled,27,10
115.875,116.0,0.125,59,95,untitled,27,10
115.875,116.0,0.125,62,95,untitled,27,10
115.875,116.0,0.125,66,95,untitled,27,10
116.0,116.125,0.125,59,95,untitled,27,10
116.125,116.15104166666667,0.026041666666671404,50,95,untitled,27,10
116.25,116.5,0.25,66,95,untitled,27,10
116.25,116.5,0.25,59,95,untitled,27,10
116.25,116.5,0.25,62,95,untitled,27,10
116.5,116.52604166666667,0.026041666666671404,50,95,untitled,27,10
116.625,116.65104166666667,0.026041666666671404,50,95,untitled,27,10
116.75,116.875,0.125,57,95,untitled,27,10
116.75,116.875,0.125,62,95,untitled,27,10
116.75,116.875,0.125,66,95,untitled,27,10
116.875,116.90104166666667,0.026041666666671404,50,95,untitled,27,10
117.0,117.02604166666667,0.026041666666671404,50,95,untitled,27,10
117.125,117.25,0.125,57,95,untitled,27,10
117.125,117.25,0.125,62,95,untitled,27,10
117.25,117.375,0.125,62,95,untitled,27,10
117.375,117.40104166666667,0.026041666666671404,50,95,untitled,27,10
117.5,117.625,0.125,57,95,untitled,27,10
117.5,117.625,0.125,62,95,untitled,27,10
117.5,117.625,0.125,66,95,untitled,27,10
117.625,117.65104166666667,0.026041666666671404,50,95,untitled,27,10
117.625,117.75,0.125,62,95,untitled,27,10
117.75,117.875,0.125,57,95,untitled,27,10
117.875,118.0,0.125,57,95,untitled,27,10
117.875,118.0,0.125,62,95,untitled,27,10
117.875,118.0,0.125,66,95,untitled,27,10
118.0,118.02604166666667,0.026041666666671404,50,95,untitled,27,10
118.0,118.125,0.125,62,95,untitled,27,10
118.125,118.15104166666667,0.026041666666671404,57,95,untitled,27,10
118.25,118.5,0.25,57,95,untitled,27,10
118.25,118.5,0.25,66,95,untitled,27,10
118.25,118.5,0.25,62,95,untitled,27,10
118.5,118.52604166666667,0.026041666666671404,50,95,untitled,27,10
118.625,118.65104166666667,0.026041666666671404,50,95,untitled,27,10
118.75,118.875,0.125,61,95,untitled,27,10
118.75,118.875,0.125,66,95,untitled,27,10
118.75,118.875,0.125,69,47,untitled,27,10
118.875,118.90104166666667,0.026041666666671404,50,95,untitled,27,10
119.0,119.02604166666667,0.026041666666671404,50,95,untitled,27,10
119.125,119.25,0.125,57,47,untitled,27,10
119.125,119.25,0.125,61,95,untitled,27,10
119.125,119.25,0.125,66,95,untitled,27,10
119.25,119.27604166666667,0.026041666666671404,50,95,untitled,27,10
119.375,119.5,0.125,61,95,untitled,27,10
119.5,119.625,0.125,57,47,untitled,27,10
119.5,119.625,0.125,61,95,untitled,27,10
119.5,119.625,0.125,66,95,untitled,27,10
119.5,119.625,0.125,69,47,untitled,27,10
119.625,119.65104166666667,0.026041666666671404,50,95,untitled,27,10
119.625,119.75,0.125,66,95,untitled,27,10
119.75,119.875,0.125,61,95,untitled,27,10
119.75,119.875,0.125,57,47,untitled,27,10
119.875,120.0,0.125,57,47,untitled,27,10
119.875,120.0,0.125,61,95,untitled,27,10
119.875,120.0,0.125,66,95,untitled,27,10
119.875,120.0,0.125,69,47,untitled,27,10
120.0,120.02604166666667,0.026041666666671404,55,95,untitled,27,10
120.125,120.15104166666667,0.026041666666671404,55,95,untitled,27,10
120.25,120.5,0.25,69,47,untitled,27,10
120.25,120.5,0.25,61,95,untitled,27,10
120.25,120.5,0.25,66,95,untitled,27,10
120.25,120.5,0.25,57,47,untitled,27,10
120.5,120.52604166666667,0.026041666666671404,50,95,untitled,27,10
120.625,120.65104166666667,0.026041666666671404,50,95,untitled,27,10
120.75,120.875,0.125,59,95,untitled,27,10
120.75,120.875,0.125,64,95,untitled,27,10
120.875,120.90104166666667,0.026041666666671404,59,95,untitled,27,10
121.0,121.02604166666667,0.026041666666671404,59,95,untitled,27,10
121.125,121.25,0.125,59,95,untitled,27,10
121.125,121.25,0.125,68,95,untitled,27,10
121.125,121.25,0.125,71,47,untitled,27,10
121.125,121.25,0.125,64,95,untitled,27,10
121.25,121.27604166666667,0.026041666666671404,50,95,untitled,27,10
121.375,121.40104166666667,0.026041666666671404,50,95,untitled,27,10
121.5,121.625,0.125,59,95,untitled,27,10
121.5,121.625,0.125,64,95,untitled,27,10
121.5,121.625,0.125,68,95,untitled,27,10
121.625,121.75,0.125,64,95,untitled,27,10
121.75,121.875,0.125,59,95,untitled,27,10
121.875,121.90104166666667,0.026041666666671404,50,95,untitled,27,10
122.0,122.25,0.25,62,95,untitled,27,10
122.25,122.5,0.25,61,95,untitled,27,10
122.5,122.52604166666667,0.026041666666671404,50,95,untitled,27,10
122.625,122.65104166666667,0.026041666666671404,50,95,untitled,27,10
122.75,122.875,0.125,59,95,untitled,27,10
122.75,122.875,0.125,66,95,untitled,27,10
122.75,122.875,0.125,62,95,untitled,27,10
122.875,122.90104166666667,0.026041666666671404,50,95,untitled,27,10
123.0,123.02604166666667,0.026041666666671404,50,95,untitled,27,10
123.125,123.25,0.125,64,95,untitled,27,10
123.25,123.27604166666667,0.026041666666671404,50,95,untitled,27,10
123.25,123.375,0.125,62,95,untitled,27,10
123.375,123.5,0.125,59,95,untitled,27,10
123.5,123.625,0.125,59,95,untitled,27,10
123.5,123.625,0.125,62,95,untitled,27,10
123.5,123.625,0.125,66,95,untitled,27,10
123.625,123.75,0.125,59,47,untitled,27,10
123.75,123.77604166666667,0.026041666666671404,50,95,untitled,27,10
123.875,124.0,0.125,59,95,untitled,27,10
123.875,124.0,0.125,62,95,untitled,27,10
123.875,124.0,0.125,66,95,untitled,27,10
124.0,124.125,0.125,59,95,untitled,27,10
124.0,124.125,0.125,62,47,untitled,27,10
124.125,124.15104166666667,0.026041666666671404,50,95,untitled,27,10
124.25,124.5,0.25,59,95,untitled,27,10
124.25,124.5,0.25,66,95,untitled,27,10
124.25,124.5,0.25,62,95,untitled,27,10
124.5,124.52604166666667,0.026041666666671404,50,95,untitled,27,10
124.625,124.65104166666667,0.026041666666671404,50,95,untitled,27,10
124.75,124.875,0.125,57,95,untitled,27,10
124.75,124.875,0.125,66,95,untitled,27,10
124.75,124.875,0.125,62,95,untitled,27,10
124.875,124.90104166666667,0.026041666666671404,50,95,untitled,27,10
125.0,125.02604166666667,0.026041666666671404,50,95,untitled,27,10
125.125,125.25,0.125,57,95,untitled,27,10
125.125,125.25,0.125,62,95,untitled,27,10
125.25,125.375,0.125,62,95,untitled,27,10
125.375,125.40104166666667,0.026041666666671404,50,95,untitled,27,10
125.5,125.625,0.125,57,47,untitled,27,10
125.5,125.625,0.125,62,95,untitled,27,10
125.5,125.625,0.125,66,95,untitled,27,10
125.625,125.65104166666667,0.026041666666671404,50,95,untitled,27,10
125.625,125.75,0.125,62,95,untitled,27,10
125.75,125.875,0.125,57,95,untitled,27,10
125.875,126.0,0.125,57,95,untitled,27,10
125.875,126.0,0.125,62,47,untitled,27,10
125.875,126.0,0.125,66,95,untitled,27,10
126.0,126.02604166666667,0.026041666666671404,50,95,untitled,27,10
126.0,126.125,0.125,62,95,untitled,27,10
126.125,126.15104166666667,0.026041666666671404,57,95,untitled,27,10
126.25,126.5,0.25,57,95,untitled,27,10
126.25,126.5,0.25,66,95,untitled,27,10
126.25,126.5,0.25,62,95,untitled,27,10
126.5,126.52604166666667,0.026041666666671404,50,95,untitled,27,10
126.625,126.65104166666667,0.026041666666671404,50,95,untitled,27,10
126.75,126.875,0.125,61,95,untitled,27,10
126.75,126.875,0.125,66,95,untitled,27,10
126.75,126.875,0.125,69,47,untitled,27,10
126.875,126.90104166666667,0.026041666666671404,50,95,untitled,27,10
127.0,127.02604166666667,0.026041666666671404,50,95,untitled,27,10
127.125,127.25,0.125,61,95,untitled,27,10
127.125,127.25,0.125,66,95,untitled,27,10
127.25,127.27604166666667,0.026041666666671404,50,95,untitled,27,10
127.375,127.5,0.125,61,95,untitled,27,10
127.5,127.625,0.125,61,95,untitled,27,10
127.5,127.625,0.125,66,95,untitled,27,10
127.5,127.625,0.125,69,47,untitled,27,10
127.625,127.65104166666667,0.026041666666671404,50,95,untitled,27,10
127.625,127.75,0.125,66,95,untitled,27,10
127.75,127.875,0.125,61,95,untitled,27,10
127.875,128.0,0.125,61,95,untitled,27,10
127.875,128.0,0.125,66,95,untitled,27,10
127.875,128.0,0.125,69,47,untitled,27,10
128.0,128.02604166666669,0.026041666666671404,55,95,untitled,27,10
128.125,128.15104166666669,0.026041666666671404,55,95,untitled,27,10
128.25,128.5,0.25,61,95,untitled,27,10
128.25,128.5,0.25,69,47,untitled,27,10
128.25,128.5,0.25,66,95,untitled,27,10
128.5,128.52604166666666,0.026041666666657193,50,95,untitled,27,10
128.625,128.65104166666666,0.026041666666657193,50,95,untitled,27,10
128.75,128.875,0.125,64,95,untitled,27,10
128.75,128.875,0.125,59,95,untitled,27,10
128.875,128.90104166666666,0.026041666666657193,59,95,untitled,27,10
129.0,129.02604166666666,0.026041666666657193,59,95,untitled,27,10
129.125,129.25,0.125,59,95,untitled,27,10
129.125,129.25,0.125,64,95,untitled,27,10
129.125,129.25,0.125,68,47,untitled,27,10
129.125,129.25,0.125,71,47,untitled,27,10
129.25,129.27604166666666,0.026041666666657193,50,95,untitled,27,10
129.375,129.40104166666666,0.026041666666657193,50,95,untitled,27,10
129.5,129.625,0.125,59,95,untitled,27,10
129.5,129.625,0.125,64,47,untitled,27,10
129.625,129.75,0.125,64,95,untitled,27,10
129.625,129.75,0.125,59,47,untitled,27,10
129.75,129.875,0.125,59,95,untitled,27,10
129.875,129.90104166666666,0.026041666666657193,50,95,untitled,27,10
130.0,130.25,0.25,62,95,untitled,27,10
130.25,130.5,0.25,61,95,untitled,27,10
130.5,130.52604166666666,0.026041666666657193,50,95,untitled,27,10
130.625,130.65104166666666,0.026041666666657193,50,95,untitled,27,10
130.75,130.875,0.125,59,95,untitled,27,10
130.75,130.875,0.125,66,95,untitled,27,10
130.75,130.875,0.125,62,95,untitled,27,10
130.875,130.90104166666666,0.026041666666657193,50,95,untitled,27,10
131.0,131.02604166666666,0.026041666666657193,50,95,untitled,27,10
131.125,131.25,0.125,59,95,untitled,27,10
131.125,131.25,0.125,62,95,untitled,27,10
131.125,131.25,0.125,66,95,untitled,27,10
131.25,131.27604166666666,0.026041666666657193,50,95,untitled,27,10
131.25,131.375,0.125,62,95,untitled,27,10
131.375,131.5,0.125,59,95,untitled,27,10
131.5,131.625,0.125,59,95,untitled,27,10
131.5,131.625,0.125,62,95,untitled,27,10
131.625,131.75,0.125,59,95,untitled,27,10
131.75,131.77604166666666,0.026041666666657193,50,95,untitled,27,10
131.875,132.0,0.125,59,95,untitled,27,10
131.875,132.0,0.125,62,95,untitled,27,10
132.0,132.02604166666666,0.026041666666657193,50,95,untitled,27,10
132.0,132.125,0.125,62,95,untitled,27,10
132.125,132.15104166666666,0.026041666666657193,50,95,untitled,27,10
132.25,132.5,0.25,62,95,untitled,27,10
132.25,132.5,0.25,66,95,untitled,27,10
132.25,132.5,0.25,59,95,untitled,27,10
132.5,132.52604166666666,0.026041666666657193,50,95,untitled,27,10
132.625,132.65104166666666,0.026041666666657193,50,95,untitled,27,10
132.75,132.875,0.125,62,95,untitled,27,10
132.75,132.875,0.125,66,95,untitled,27,10
132.75,132.875,0.125,57,95,untitled,27,10
132.875,132.90104166666666,0.026041666666657193,50,95,untitled,27,10
133.0,133.02604166666666,0.026041666666657193,50,95,untitled,27,10
133.125,133.25,0.125,57,95,untitled,27,10
133.125,133.25,0.125,62,95,untitled,27,10
133.125,133.25,0.125,66,95,untitled,27,10
133.25,133.27604166666666,0.026041666666657193,50,95,untitled,27,10
133.25,133.375,0.125,62,95,untitled,27,10
133.375,133.5,0.125,57,95,untitled,27,10
133.5,133.625,0.125,57,95,untitled,27,10
133.5,133.625,0.125,62,95,untitled,27,10
133.625,133.65104166666666,0.026041666666657193,57,95,untitled,27,10
133.75,133.77604166666666,0.026041666666657193,50,95,untitled,27,10
133.875,134.0,0.125,57,95,untitled,27,10
133.875,134.0,0.125,62,95,untitled,27,10
134.0,134.02604166666666,0.026041666666657193,50,95,untitled,27,10
134.0,134.125,0.125,62,95,untitled,27,10
134.125,134.15104166666666,0.026041666666657193,50,95,untitled,27,10
134.25,134.5,0.25,69,47,untitled,27,10
134.25,134.5,0.25,62,95,untitled,27,10
134.25,134.5,0.25,66,47,untitled,27,10
134.25,134.5,0.25,57,95,untitled,27,10
134.5,134.52604166666666,0.026041666666657193,50,95,untitled,27,10
134.5,134.625,0.125,73,95,untitled,27,10
134.5,134.625,0.125,69,95,untitled,27,10
134.625,134.65104166666666,0.026041666666657193,50,95,untitled,27,10
134.625,134.65104166666666,0.026041666666657193,69,95,untitled,27,10
134.75,134.875,0.125,66,95,untitled,27,10
134.75,134.875,0.125,69,47,untitled,27,10
134.75,134.875,0.125,61,95,untitled,27,10
134.875,134.90104166666666,0.026041666666657193,50,95,untitled,27,10
135.0,135.02604166666666,0.026041666666657193,50,95,untitled,27,10
135.125,135.25,0.125,61,95,untitled,27,10
135.125,135.25,0.125,66,95,untitled,27,10
135.125,135.25,0.125,69,47,untitled,27,10
135.25,135.27604166666666,0.026041666666657193,50,95,untitled,27,10
135.25,135.375,0.125,66,95,untitled,27,10
135.375,135.5,0.125,61,95,untitled,27,10
135.5,135.625,0.125,57,47,untitled,27,10
135.5,135.625,0.125,66,95,untitled,27,10
135.5,135.625,0.125,61,95,untitled,27,10
135.625,135.65104166666666,0.026041666666657193,57,95,untitled,27,10
135.75,135.77604166666666,0.026041666666657193,50,95,untitled,27,10
135.875,136.0,0.125,61,95,untitled,27,10
135.875,136.0,0.125,66,95,untitled,27,10
136.0,136.02604166666666,0.026041666666657193,50,95,untitled,27,10
136.0,136.125,0.125,66,95,untitled,27,10
136.0,136.125,0.125,57,47,untitled,27,10
136.125,136.15104166666666,0.026041666666657193,50,95,untitled,27,10
136.25,136.5,0.25,69,47,untitled,27,10
136.25,136.5,0.25,66,95,untitled,27,10
136.25,136.5,0.25,61,95,untitled,27,10
136.5,136.52604166666666,0.026041666666657193,50,95,untitled,27,10
136.625,136.65104166666666,0.026041666666657193,50,95,untitled,27,10
136.75,136.875,0.125,59,47,untitled,27,10
136.75,136.875,0.125,68,47,untitled,27,10
136.75,136.875,0.125,64,95,untitled,27,10
136.875,137.0,0.125,59,95,untitled,27,10
137.0,137.02604166666666,0.026041666666657193,50,95,untitled,27,10
137.125,137.25,0.125,59,47,untitled,27,10
137.125,137.25,0.125,64,95,untitled,27,10
137.125,137.25,0.125,68,47,untitled,27,10
137.25,137.27604166666666,0.026041666666657193,50,95,untitled,27,10
137.25,137.375,0.125,64,95,untitled,27,10
137.375,137.40104166666666,0.026041666666657193,59,95,untitled,27,10
137.5,137.625,0.125,59,95,untitled,27,10
137.5,137.625,0.125,64,95,untitled,27,10
137.5,137.625,0.125,68,47,untitled,27,10
137.625,137.65104166666666,0.026041666666657193,57,95,untitled,27,10
137.75,137.77604166666666,0.026041666666657193,50,95,untitled,27,10
137.875,138.0,0.125,59,95,untitled,27,10
137.875,138.0,0.125,64,95,untitled,27,10
137.875,138.0,0.125,68,47,untitled,27,10
138.0,138.25,0.25,62,95,untitled,27,10
138.25,138.5,0.25,61,95,untitled,27,10
138.5,138.52604166666666,0.026041666666657193,55,95,untitled,27,10
138.625,138.75,0.125,83,95,untitled,27,10
138.625,138.75,0.125,78,95,untitled,27,10
138.75,138.875,0.125,78,95,untitled,27,10
138.75,138.875,0.125,83,95,untitled,27,10
138.875,139.0,0.125,83,95,untitled,27,10
138.875,139.0,0.125,78,95,untitled,27,10
139.0,139.02604166666666,0.026041666666657193,78,95,untitled,27,10
139.125,139.25,0.125,78,95,untitled,27,10
139.125,139.25,0.125,83,95,untitled,27,10
139.25,139.27604166666666,0.026041666666657193,59,95,untitled,27,10
139.375,139.5,0.125,78,95,untitled,27,10
139.375,139.5,0.125,83,95,untitled,27,10
139.5,139.625,0.125,78,95,untitled,27,10
139.5,139.625,0.125,83,95,untitled,27,10
139.625,139.75,0.125,78,95,untitled,27,10
139.625,139.75,0.125,83,95,untitled,27,10
139.75,139.875,0.125,83,95,untitled,27,10
139.75,139.875,0.125,78,95,untitled,27,10
139.875,140.0,0.125,83,95,untitled,27,10
139.875,140.0,0.125,78,95,untitled,27,10
140.0,140.125,0.125,78,95,untitled,27,10
140.0,140.125,0.125,83,95,untitled,27,10
140.125,140.25,0.125,71,95,untitled,27,10
140.25,140.375,0.125,71,95,untitled,27,10
140.375,140.5,0.125,71,95,untitled,27,10
140.5,140.52604166666666,0.026041666666657193,55,95,untitled,27,10
140.625,140.75,0.125,74,95,untitled,27,10
140.75,140.875,0.125,74,95,untitled,27,10
140.875,141.0,0.125,74,95,untitled,27,10
141.0,141.02604166666666,0.026041666666657193,55,95,untitled,27,10
141.125,141.25,0.125,74,95,untitled,27,10
141.25,141.27604166666666,0.026041666666657193,55,95,untitled,27,10
141.375,141.5,0.125,74,95,untitled,27,10
141.5,141.625,0.125,74,95,untitled,27,10
141.625,141.65104166666666,0.026041666666657193,55,95,untitled,27,10
141.625,141.75,0.125,74,95,untitled,27,10
141.75,141.77604166666666,0.026041666666657193,55,95,untitled,27,10
141.75,141.875,0.125,74,95,untitled,27,10
141.875,141.90104166666666,0.026041666666657193,55,95,untitled,27,10
142.0,142.02604166666666,0.026041666666657193,55,95,untitled,27,10
142.125,142.25,0.125,74,95,untitled,27,10
142.125,142.25,0.125,69,95,untitled,27,10
142.25,142.375,0.125,74,95,untitled,27,10
142.25,142.375,0.125,69,47,untitled,27,10
142.375,142.5,0.125,69,95,untitled,27,10
142.375,142.5,0.125,74,95,untitled,27,10
142.5,142.52604166666666,0.026041666666657193,55,95,untitled,27,10
142.625,142.75,0.125,73,95,untitled,27,10
142.75,142.875,0.125,73,95,untitled,27,10
142.875,143.0,0.125,73,95,untitled,27,10
143.0,143.02604166666666,0.026041666666657193,59,95,untitled,27,10
143.125,143.25,0.125,73,95,untitled,27,10
143.25,143.27604166666666,0.026041666666657193,59,95,untitled,27,10
143.375,143.5,0.125,73,95,untitled,27,10
143.5,143.625,0.125,73,95,untitled,27,10
143.625,143.75,0.125,73,95,untitled,27,10
143.75,143.875,0.125,73,95,untitled,27,10
143.875,143.90104166666666,0.026041666666657193,55,95,untitled,27,10
144.0,144.02604166666666,0.026041666666657193,55,95,untitled,27,10
144.125,144.25,0.125,73,95,untitled,27,10
144.25,144.375,0.125,73,95,untitled,27,10
144.375,144.5,0.125,72,95,untitled,27,10
144.5,144.52604166666666,0.026041666666657193,55,95,untitled,27,10
144.625,144.75,0.125,71,95,untitled,27,10
144.75,144.875,0.125,71,95,untitled,27,10
144.875,145.0,0.125,71,95,untitled,27,10
145.0,145.02604166666666,0.026041666666657193,71,95,untitled,27,10
145.125,145.25,0.125,71,95,untitled,27,10
145.25,145.27604166666666,0.026041666666657193,59,95,untitled,27,10
145.375,145.5,0.125,71,95,untitled,27,10
145.5,145.625,0.125,71,95,untitled,27,10
145.625,145.75,0.125,71,95,untitled,27,10
145.75,145.875,0.125,71,95,untitled,27,10
145.875,145.90104166666666,0.026041666666657193,59,95,untitled,27,10
146.0,146.02604166666666,0.026041666666657193,59,95,untitled,27,10
146.125,146.25,0.125,71,95,untitled,27,10
146.25,146.375,0.125,71,95,untitled,27,10
146.375,146.5,0.125,64,95,untitled,27,10
146.5,146.52604166666666,0.026041666666657193,55,95,untitled,27,10
146.625,146.75,0.125,71,95,untitled,27,10
146.75,146.875,0.125,71,95,untitled,27,10
146.875,147.0,0.125,71,95,untitled,27,10
147.0,147.02604166666666,0.026041666666657193,59,95,untitled,27,10
147.125,147.25,0.125,71,95,untitled,27,10
147.25,147.27604166666666,0.026041666666657193,59,95,untitled,27,10
147.375,147.5,0.125,71,95,untitled,27,10
147.5,147.625,0.125,71,95,untitled,27,10
147.625,147.75,0.125,71,95,untitled,27,10
147.75,147.875,0.125,71,95,untitled,27,10
147.875,147.90104166666666,0.026041666666657193,59,95,untitled,27,10
148.0,148.02604166666666,0.026041666666657193,71,95,untitled,27,10
148.125,148.25,0.125,71,95,untitled,27,10
148.25,148.375,0.125,71,95,untitled,27,10
148.375,148.5,0.125,71,95,untitled,27,10
148.5,148.52604166666666,0.026041666666657193,55,95,untitled,27,10
148.625,148.75,0.125,74,95,untitled,27,10
148.75,148.875,0.125,74,95,untitled,27,10
148.875,149.0,0.125,74,95,untitled,27,10
149.0,149.02604166666666,0.026041666666657193,55,95,untitled,27,10
149.125,149.25,0.125,74,95,untitled,27,10
149.25,149.27604166666666,0.026041666666657193,55,95,untitled,27,10
149.375,149.5,0.125,74,95,untitled,27,10
149.5,149.625,0.125,74,95,untitled,27,10
149.625,149.65104166666666,0.026041666666657193,55,95,untitled,27,10
149.625,149.75,0.125,74,95,untitled,27,10
149.75,149.77604166666666,0.026041666666657193,55,95,untitled,27,10
149.75,149.875,0.125,74,95,untitled,27,10
149.875,149.90104166666666,0.026041666666657193,55,95,untitled,27,10
150.0,150.02604166666666,0.026041666666657193,55,95,untitled,27,10
150.125,150.25,0.125,74,95,untitled,27,10
150.125,150.25,0.125,69,95,untitled,27,10
150.25,150.375,0.125,74,95,untitled,27,10
150.25,150.375,0.125,69,47,untitled,27,10
150.375,150.5,0.125,69,95,untitled,27,10
150.375,150.5,0.125,74,95,untitled,27,10
150.5,150.52604166666666,0.026041666666657193,55,95,untitled,27,10
150.625,150.75,0.125,73,95,untitled,27,10
150.75,150.875,0.125,73,95,untitled,27,10
150.875,151.0,0.125,73,95,untitled,27,10
151.0,151.02604166666666,0.026041666666657193,59,95,untitled,27,10
151.125,151.25,0.125,73,95,untitled,27,10
151.25,151.27604166666666,0.026041666666657193,59,95,untitled,27,10
151.375,151.5,0.125,73,95,untitled,27,10
151.5,151.625,0.125,73,95,untitled,27,10
151.625,151.75,0.125,73,95,untitled,27,10
151.75,151.875,0.125,73,95,untitled,27,10
151.875,151.90104166666666,0.026041666666657193,55,95,untitled,27,10
152.0,152.02604166666666,0.026041666666657193,55,95,untitled,27,10
152.125,152.25,0.125,73,95,untitled,27,10
152.25,152.375,0.125,73,95,untitled,27,10
152.375,152.5,0.125,72,95,untitled,27,10
152.5,152.52604166666666,0.026041666666657193,55,95,untitled,27,10
152.625,152.75,0.125,71,95,untitled,27,10
152.75,152.875,0.125,71,95,untitled,27,10
152.875,153.0,0.125,71,95,untitled,27,10
153.0,153.02604166666666,0.026041666666657193,59,95,untitled,27,10
153.125,153.25,0.125,71,95,untitled,27,10
153.25,153.27604166666666,0.026041666666657193,59,95,untitled,27,10
153.375,153.5,0.125,71,95,untitled,27,10
153.5,153.625,0.125,71,95,untitled,27,10
153.625,153.75,0.125,71,95,untitled,27,10
153.75,153.875,0.125,71,95,untitled,27,10
153.875,153.90104166666666,0.026041666666657193,59,95,untitled,27,10
154.0,154.02604166666666,0.026041666666657193,71,95,untitled,27,10
154.125,154.25,0.125,71,95,untitled,27,10
154.25,154.375,0.125,71,95,untitled,27,10
154.375,154.5,0.125,71,95,untitled,27,10
154.5,154.52604166666666,0.026041666666657193,55,95,untitled,27,10
154.625,154.75,0.125,71,95,untitled,27,10
154.75,154.875,0.125,71,95,untitled,27,10
154.875,155.0,0.125,71,95,untitled,27,10
155.0,155.02604166666666,0.026041666666657193,59,95,untitled,27,10
155.125,155.25,0.125,71,95,untitled,27,10
155.25,155.27604166666666,0.026041666666657193,59,95,untitled,27,10
155.375,155.40104166666666,0.026041666666657193,59,95,untitled,27,10
155.5,155.625,0.125,78,95,untitled,27,10
155.5,155.625,0.125,83,95,untitled,27,10
155.625,155.75,0.125,83,95,untitled,27,10
155.625,155.75,0.125,78,95,untitled,27,10
155.75,155.875,0.125,78,95,untitled,27,10
155.75,155.875,0.125,83,95,untitled,27,10
155.875,156.0,0.125,83,95,untitled,27,10
155.875,156.0,0.125,78,95,untitled,27,10
156.0,156.125,0.125,83,47,untitled,27,10
156.0,156.125,0.125,78,95,untitled,27,10
156.125,156.25,0.125,78,95,untitled,27,10
156.125,156.25,0.125,83,95,untitled,27,10
156.25,156.375,0.125,78,95,untitled,27,10
156.25,156.375,0.125,83,95,untitled,27,10
156.375,156.5,0.125,83,95,untitled,27,10
156.375,156.5,0.125,78,95,untitled,27,10
156.5,156.52604166666666,0.026041666666657193,55,95,untitled,27,10
156.625,156.75,0.125,74,95,untitled,27,10
156.75,156.875,0.125,74,95,untitled,27,10
156.875,157.0,0.125,74,95,untitled,27,10
157.0,157.02604166666666,0.026041666666657193,55,95,untitled,27,10
157.125,157.25,0.125,74,95,untitled,27,10
157.25,157.27604166666666,0.026041666666657193,55,95,untitled,27,10
157.375,157.5,0.125,74,95,untitled,27,10
157.5,157.625,0.125,74,95,untitled,27,10
157.625,157.65104166666666,0.026041666666657193,55,95,untitled,27,10
157.625,157.75,0.125,74,95,untitled,27,10
157.75,157.77604166666666,0.026041666666657193,55,95,untitled,27,10
157.75,157.875,0.125,74,95,untitled,27,10
157.875,157.90104166666666,0.026041666666657193,55,95,untitled,27,10
158.0,158.02604166666666,0.026041666666657193,55,95,untitled,27,10
158.125,158.25,0.125,69,95,untitled,27,10
158.125,158.25,0.125,74,95,untitled,27,10
158.25,158.375,0.125,69,47,untitled,27,10
158.25,158.375,0.125,74,95,untitled,27,10
158.375,158.5,0.125,74,95,untitled,27,10
158.375,158.5,0.125,69,95,untitled,27,10
158.5,158.52604166666666,0.026041666666657193,55,95,untitled,27,10
158.625,158.75,0.125,73,95,untitled,27,10
158.75,158.875,0.125,73,95,untitled,27,10
158.875,159.0,0.125,73,95,untitled,27,10
159.0,159.02604166666666,0.026041666666657193,59,95,untitled,27,10
159.125,159.25,0.125,73,95,untitled,27,10
159.25,159.27604166666666,0.026041666666657193,59,95,untitled,27,10
159.375,159.5,0.125,73,95,untitled,27,10
159.5,159.625,0.125,73,95,untitled,27,10
159.625,159.75,0.125,73,95,untitled,27,10
159.75,159.875,0.125,73,95,untitled,27,10
159.875,159.90104166666666,0.026041666666657193,55,95,untitled,27,10
160.0,160.02604166666666,0.026041666666657193,55,95,untitled,27,10
160.125,160.25,0.125,73,95,untitled,27,10
160.25,160.375,0.125,73,95,untitled,27,10
160.375,160.5,0.125,72,95,untitled,27,10
160.5,160.52604166666666,0.026041666666657193,55,95,untitled,27,10
160.625,160.75,0.125,71,95,untitled,27,10
160.75,160.875,0.125,71,95,untitled,27,10
160.875,161.0,0.125,71,95,untitled,27,10
161.0,161.02604166666666,0.026041666666657193,59,95,untitled,27,10
161.125,161.25,0.125,71,95,untitled,27,10
161.25,161.27604166666666,0.026041666666657193,59,95,untitled,27,10
161.375,161.5,0.125,71,95,untitled,27,10
161.5,161.625,0.125,71,95,untitled,27,10
161.625,161.75,0.125,71,95,untitled,27,10
161.75,161.875,0.125,71,95,untitled,27,10
161.875,161.90104166666666,0.026041666666657193,59,95,untitled,27,10
162.0,162.02604166666666,0.026041666666657193,71,95,untitled,27,10
162.125,162.25,0.125,71,95,untitled,27,10
162.25,162.375,0.125,71,95,untitled,27,10
162.375,162.5,0.125,71,95,untitled,27,10
162.5,162.52604166666666,0.026041666666657193,55,95,untitled,27,10
162.625,162.75,0.125,78,95,untitled,27,10
162.625,162.75,0.125,83,47,untitled,27,10
162.75,162.875,0.125,78,95,untitled,27,10
162.75,162.875,0.125,83,47,untitled,27,10
162.875,163.0,0.125,78,95,untitled,27,10
162.875,163.0,0.125,83,47,untitled,27,10
163.0,163.02604166666666,0.026041666666657193,59,95,untitled,27,10
163.125,163.25,0.125,78,95,untitled,27,10
163.25,163.27604166666666,0.026041666666657193,59,95,untitled,27,10
163.375,163.5,0.125,83,47,untitled,27,10
163.375,163.5,0.125,78,95,untitled,27,10
163.5,163.625,0.125,78,95,untitled,27,10
163.5,163.625,0.125,83,95,untitled,27,10
163.625,163.75,0.125,83,95,untitled,27,10
163.625,163.75,0.125,78,95,untitled,27,10
163.75,163.875,0.125,78,95,untitled,27,10
163.75,163.875,0.125,83,95,untitled,27,10
163.875,164.0,0.125,83,95,untitled,27,10
163.875,164.0,0.125,78,95,untitled,27,10
164.0,164.125,0.125,83,47,untitled,27,10
164.0,164.125,0.125,78,95,untitled,27,10
164.125,164.25,0.125,78,95,untitled,27,10
164.125,164.25,0.125,83,47,untitled,27,10
164.25,164.375,0.125,78,95,untitled,27,10
164.25,164.375,0.125,83,47,untitled,27,10
164.375,164.5,0.125,83,47,untitled,27,10
164.375,164.5,0.125,78,95,untitled,27,10
164.5,164.52604166666666,0.026041666666657193,55,95,untitled,27,10
164.625,164.75,0.125,74,95,untitled,27,10
164.75,164.875,0.125,74,95,untitled,27,10
164.875,165.0,0.125,74,95,untitled,27,10
165.0,165.02604166666666,0.026041666666657193,55,95,untitled,27,10
165.125,165.25,0.125,74,95,untitled,27,10
165.25,165.27604166666666,0.026041666666657193,55,95,untitled,27,10
165.375,165.5,0.125,74,95,untitled,27,10
165.5,165.625,0.125,74,95,untitled,27,10
165.625,165.65104166666666,0.026041666666657193,55,95,untitled,27,10
165.625,165.75,0.125,74,95,untitled,27,10
165.75,165.77604166666666,0.026041666666657193,55,95,untitled,27,10
165.75,165.875,0.125,74,95,untitled,27,10
165.875,165.90104166666666,0.026041666666657193,55,95,untitled,27,10
166.0,166.02604166666666,0.026041666666657193,55,95,untitled,27,10
166.125,166.25,0.125,66,47,untitled,27,10
166.125,166.25,0.125,74,95,untitled,27,10
166.125,166.25,0.125,69,95,untitled,27,10
166.25,166.375,0.125,66,47,untitled,27,10
166.25,166.375,0.125,74,95,untitled,27,10
166.25,166.375,0.125,69,47,untitled,27,10
166.375,166.5,0.125,74,95,untitled,27,10
166.375,166.5,0.125,66,47,untitled,27,10
166.375,166.5,0.125,69,95,untitled,27,10
166.5,166.52604166666666,0.026041666666657193,55,95,untitled,27,10
166.625,166.75,0.125,73,95,untitled,27,10
166.75,166.875,0.125,73,95,untitled,27,10
166.875,167.0,0.125,73,95,untitled,27,10
167.0,167.02604166666666,0.026041666666657193,59,95,untitled,27,10
167.125,167.25,0.125,73,95,untitled,27,10
167.25,167.27604166666666,0.026041666666657193,59,95,untitled,27,10
167.375,167.5,0.125,73,95,untitled,27,10
167.5,167.625,0.125,73,95,untitled,27,10
167.625,167.75,0.125,73,95,untitled,27,10
167.75,167.875,0.125,73,95,untitled,27,10
167.875,167.90104166666666,0.026041666666657193,55,95,untitled,27,10
168.0,168.02604166666666,0.026041666666657193,55,95,untitled,27,10
168.125,168.25,0.125,73,95,untitled,27,10
168.25,168.375,0.125,73,95,untitled,27,10
168.375,168.5,0.125,72,95,untitled,27,10
168.5,168.52604166666666,0.026041666666657193,55,95,untitled,27,10
168.625,168.75,0.125,71,95,untitled,27,10
168.75,168.875,0.125,71,95,untitled,27,10
168.875,169.0,0.125,71,95,untitled,27,10
169.0,169.02604166666666,0.026041666666657193,59,95,untitled,27,10
169.125,169.25,0.125,71,95,untitled,27,10
169.25,169.27604166666666,0.026041666666657193,59,95,untitled,27,10
169.375,169.5,0.125,71,95,untitled,27,10
169.5,169.625,0.125,71,95,untitled,27,10
169.625,169.75,0.125,71,95,untitled,27,10
169.75,169.875,0.125,71,95,untitled,27,10
169.875,169.90104166666666,0.026041666666657193,59,95,untitled,27,10
170.0,170.02604166666666,0.026041666666657193,71,95,untitled,27,10
170.125,170.15104166666666,0.026041666666657193,64,95,untitled,27,10
170.125,170.25,0.125,71,95,untitled,27,10
170.25,170.27604166666666,0.026041666666657193,64,95,untitled,27,10
170.25,170.375,0.125,71,95,untitled,27,10
170.375,170.5,0.125,71,95,untitled,27,10
170.5,170.52604166666666,0.026041666666657193,50,95,untitled,27,10
170.625,170.65104166666666,0.026041666666657193,50,95,untitled,27,10
170.75,170.875,0.125,66,47,untitled,27,10
170.75,170.875,0.125,59,95,untitled,27,10
170.75,170.875,0.125,62,95,untitled,27,10
170.875,170.90104166666666,0.026041666666657193,50,95,untitled,27,10
171.0,171.02604166666666,0.026041666666657193,50,95,untitled,27,10
171.125,171.25,0.125,59,95,untitled,27,10
171.125,171.25,0.125,66,47,untitled,27,10
171.125,171.25,0.125,62,95,untitled,27,10
171.25,171.27604166666666,0.026041666666657193,50,95,untitled,27,10
171.375,171.5,0.125,59,95,untitled,27,10
171.375,171.5,0.125,62,95,untitled,27,10
171.375,171.5,0.125,66,47,untitled,27,10
171.5,171.52604166666666,0.026041666666657193,62,95,untitled,27,10
171.625,171.65104166666666,0.026041666666657193,62,95,untitled,27,10
171.75,171.77604166666666,0.026041666666657193,59,95,untitled,27,10
171.75,171.875,0.125,66,95,untitled,27,10
171.75,171.875,0.125,62,95,untitled,27,10
171.875,171.90104166666666,0.026041666666657193,59,95,untitled,27,10
171.875,172.0,0.125,62,95,untitled,27,10
171.875,172.0,0.125,66,95,untitled,27,10
172.0,172.02604166666666,0.026041666666657193,50,95,untitled,27,10
172.125,172.15104166666666,0.026041666666657193,50,95,untitled,27,10
172.25,172.375,0.125,59,47,untitled,27,10
172.25,172.375,0.125,66,95,untitled,27,10
172.25,172.375,0.125,62,95,untitled,27,10
172.375,172.5,0.125,66,95,untitled,27,10
172.375,172.5,0.125,62,95,untitled,27,10
172.375,172.5,0.125,59,47,untitled,27,10
172.5,172.52604166666666,0.026041666666657193,50,95,untitled,27,10
172.625,172.65104166666666,0.026041666666657193,50,95,untitled,27,10
172.75,172.875,0.125,66,47,untitled,27,10
172.75,172.875,0.125,57,47,untitled,27,10
172.75,172.875,0.125,62,95,untitled,27,10
172.875,172.90104166666666,0.026041666666657193,50,95,untitled,27,10
173.0,173.02604166666666,0.026041666666657193,50,95,untitled,27,10
173.125,173.25,0.125,57,95,untitled,27,10
173.125,173.25,0.125,66,95,untitled,27,10
173.125,173.25,0.125,62,47,untitled,27,10
173.25,173.27604166666666,0.026041666666657193,50,95,untitled,27,10
173.375,173.40104166666666,0.026041666666657193,50,95,untitled,27,10
173.375,173.5,0.125,62,95,untitled,27,10
173.5,173.625,0.125,57,95,untitled,27,10
173.5,173.625,0.125,66,95,untitled,27,10
173.5,173.625,0.125,62,47,untitled,27,10
173.625,173.65104166666666,0.026041666666657193,50,95,untitled,27,10
173.75,173.77604166666666,0.026041666666657193,50,95,untitled,27,10
173.75,173.875,0.125,62,95,untitled,27,10
173.875,174.0,0.125,57,95,untitled,27,10
173.875,174.0,0.125,66,95,untitled,27,10
173.875,174.0,0.125,62,47,untitled,27,10
174.0,174.02604166666666,0.026041666666657193,50,95,untitled,27,10
174.125,174.25,0.125,66,47,untitled,27,10
174.125,174.25,0.125,62,47,untitled,27,10
174.125,174.25,0.125,57,47,untitled,27,10
174.25,174.375,0.125,57,95,untitled,27,10
174.25,174.375,0.125,66,47,untitled,27,10
174.25,174.375,0.125,62,95,untitled,27,10
174.375,174.5,0.125,66,95,untitled,27,10
174.375,174.5,0.125,62,95,untitled,27,10
174.375,174.5,0.125,57,95,untitled,27,10
174.5,174.52604166666666,0.026041666666657193,50,95,untitled,27,10
174.625,174.65104166666666,0.026041666666657193,50,95,untitled,27,10
174.75,174.875,0.125,61,95,untitled,27,10
174.75,174.875,0.125,66,95,untitled,27,10
174.875,174.90104166666666,0.026041666666657193,50,95,untitled,27,10
174.875,174.90104166666666,0.026041666666657193,64,95,untitled,27,10
175.0,175.02604166666666,0.026041666666657193,59,95,untitled,27,10
175.0,175.125,0.125,61,95,untitled,27,10
175.125,175.25,0.125,69,95,untitled,27,10
175.125,175.25,0.125,61,95,untitled,27,10
175.125,175.25,0.125,66,95,untitled,27,10
175.25,175.27604166666666,0.026041666666657193,50,95,untitled,27,10
175.375,175.40104166666666,0.026041666666657193,55,95,untitled,27,10
175.375,175.5,0.125,61,47,untitled,27,10
175.5,175.625,0.125,61,95,untitled,27,10
175.5,175.625,0.125,69,95,untitled,27,10
175.5,175.625,0.125,66,95,untitled,27,10
175.625,175.65104166666666,0.026041666666657193,50,95,untitled,27,10
175.75,175.77604166666666,0.026041666666657193,55,95,untitled,27,10
175.75,175.875,0.125,61,95,untitled,27,10
175.875,176.0,0.125,61,95,untitled,27,10
175.875,176.0,0.125,69,95,untitled,27,10
175.875,176.0,0.125,66,95,untitled,27,10
176.0,176.02604166666666,0.026041666666657193,50,95,untitled,27,10
176.125,176.25,0.125,66,95,untitled,27,10
176.125,176.25,0.125,61,95,untitled,27,10
176.25,176.375,0.125,61,95,untitled,27,10
176.25,176.375,0.125,69,47,untitled,27,10
176.25,176.375,0.125,66,95,untitled,27,10
176.375,176.5,0.125,69,95,untitled,27,10
176.375,176.5,0.125,66,95,untitled,27,10
176.375,176.5,0.125,61,95,untitled,27,10
176.5,176.52604166666666,0.026041666666657193,50,95,untitled,27,10
176.625,176.65104166666666,0.026041666666657193,50,95,untitled,27,10
176.75,176.77604166666666,0.026041666666657193,64,95,untitled,27,10
176.875,177.0,0.125,59,95,untitled,27,10
176.875,177.0,0.125,64,95,untitled,27,10
177.0,177.02604166666666,0.026041666666657193,59,95,untitled,27,10
177.0,177.02604166666666,0.026041666666657193,59,95,untitled,27,10
177.125,177.25,0.125,64,95,untitled,27,10
177.125,177.25,0.125,68,47,untitled,27,10
177.125,177.25,0.125,59,95,untitled,27,10
177.25,177.27604166666666,0.026041666666657193,50,95,untitled,27,10
177.375,177.40104166666666,0.026041666666657193,55,95,untitled,27,10
177.375,177.5,0.125,59,47,untitled,27,10
177.5,177.625,0.125,59,95,untitled,27,10
177.5,177.625,0.125,68,47,untitled,27,10
177.5,177.625,0.125,64,95,untitled,27,10
177.625,177.65104166666666,0.026041666666657193,50,95,untitled,27,10
177.75,177.77604166666666,0.026041666666657193,55,95,untitled,27,10
177.75,177.875,0.125,59,95,untitled,27,10
177.875,178.0,0.125,64,95,untitled,27,10
177.875,178.0,0.125,59,95,untitled,27,10
177.875,178.0,0.125,68,47,untitled,27,10
178.0,178.02604166666666,0.026041666666657193,50,95,untitled,27,10
178.125,178.25,0.125,59,95,untitled,27,10
178.125,178.25,0.125,64,95,untitled,27,10
178.25,178.375,0.125,68,47,untitled,27,10
178.25,178.375,0.125,59,95,untitled,27,10
178.25,178.375,0.125,64,95,untitled,27,10
178.375,178.5,0.125,59,95,untitled,27,10
178.375,178.5,0.125,68,95,untitled,27,10
178.375,178.5,0.125,64,95,untitled,27,10
178.5,178.52604166666666,0.026041666666657193,50,95,untitled,27,10
178.625,178.65104166666666,0.026041666666657193,50,95,untitled,27,10
178.75,178.875,0.125,66,47,untitled,27,10
178.75,178.875,0.125,59,95,untitled,27,10
178.75,178.875,0.125,62,95,untitled,27,10
178.875,178.90104166666666,0.026041666666657193,50,95,untitled,27,10
179.0,179.02604166666666,0.026041666666657193,50,95,untitled,27,10
179.125,179.25,0.125,59,95,untitled,27,10
179.125,179.25,0.125,66,47,untitled,27,10
179.125,179.25,0.125,62,95,untitled,27,10
179.25,179.27604166666666,0.026041666666657193,50,95,untitled,27,10
179.375,179.5,0.125,59,95,untitled,27,10
179.375,179.5,0.125,62,95,untitled,27,10
179.375,179.5,0.125,66,47,untitled,27,10
179.5,179.52604166666666,0.026041666666657193,62,95,untitled,27,10
179.625,179.65104166666666,0.026041666666657193,62,95,untitled,27,10
179.75,179.77604166666666,0.026041666666657193,59,95,untitled,27,10
179.75,179.875,0.125,66,95,untitled,27,10
179.75,179.875,0.125,62,95,untitled,27,10
179.875,179.90104166666666,0.026041666666657193,59,95,untitled,27,10
179.875,180.0,0.125,62,95,untitled,27,10
179.875,180.0,0.125,66,95,untitled,27,10
180.0,180.02604166666666,0.026041666666657193,50,95,untitled,27,10
180.125,180.15104166666666,0.026041666666657193,50,95,untitled,27,10
180.25,180.375,0.125,59,47,untitled,27,10
180.25,180.375,0.125,66,95,untitled,27,10
180.25,180.375,0.125,62,95,untitled,27,10
180.375,180.5,0.125,66,95,untitled,27,10
180.375,180.5,0.125,62,95,untitled,27,10
180.375,180.5,0.125,59,47,untitled,27,10
180.5,180.52604166666666,0.026041666666657193,50,95,untitled,27,10
180.625,180.65104166666666,0.026041666666657193,50,95,untitled,27,10
180.75,180.875,0.125,66,47,untitled,27,10
180.75,180.875,0.125,57,47,untitled,27,10
180.75,180.875,0.125,62,95,untitled,27,10
180.875,180.90104166666666,0.026041666666657193,50,95,untitled,27,10
181.0,181.02604166666666,0.026041666666657193,50,95,untitled,27,10
181.125,181.25,0.125,57,95,untitled,27,10
181.125,181.25,0.125,66,95,untitled,27,10
181.125,181.25,0.125,62,47,untitled,27,10
181.25,181.27604166666666,0.026041666666657193,50,95,untitled,27,10
181.375,181.40104166666666,0.026041666666657193,50,95,untitled,27,10
181.375,181.5,0.125,62,95,untitled,27,10
181.5,181.625,0.125,57,95,untitled,27,10
181.5,181.625,0.125,66,95,untitled,27,10
181.5,181.625,0.125,62,47,untitled,27,10
181.625,181.65104166666666,0.026041666666657193,50,95,untitled,27,10
181.75,181.77604166666666,0.026041666666657193,50,95,untitled,27,10
181.75,181.875,0.125,62,95,untitled,27,10
181.875,182.0,0.125,57,95,untitled,27,10
181.875,182.0,0.125,66,95,untitled,27,10
181.875,182.0,0.125,62,47,untitled,27,10
182.0,182.02604166666666,0.026041666666657193,50,95,untitled,27,10
182.125,182.25,0.125,66,47,untitled,27,10
182.125,182.25,0.125,62,47,untitled,27,10
182.125,182.25,0.125,57,47,untitled,27,10
182.25,182.375,0.125,57,95,untitled,27,10
182.25,182.375,0.125,66,47,untitled,27,10
182.25,182.375,0.125,62,95,untitled,27,10
182.375,182.5,0.125,66,95,untitled,27,10
182.375,182.5,0.125,62,95,untitled,27,10
182.375,182.5,0.125,57,95,untitled,27,10
182.5,182.52604166666666,0.026041666666657193,50,95,untitled,27,10
182.625,182.65104166666666,0.026041666666657193,50,95,untitled,27,10
182.75,182.875,0.125,61,95,untitled,27,10
182.75,182.875,0.125,66,95,untitled,27,10
182.875,182.90104166666666,0.026041666666657193,50,95,untitled,27,10
182.875,182.90104166666666,0.026041666666657193,64,95,untitled,27,10
183.0,183.02604166666666,0.026041666666657193,59,95,untitled,27,10
183.0,183.125,0.125,61,95,untitled,27,10
183.125,183.25,0.125,69,47,untitled,27,10
183.125,183.25,0.125,61,95,untitled,27,10
183.125,183.25,0.125,66,47,untitled,27,10
183.25,183.27604166666666,0.026041666666657193,50,95,untitled,27,10
183.375,183.40104166666666,0.026041666666657193,55,95,untitled,27,10
183.375,183.5,0.125,61,47,untitled,27,10
183.5,183.625,0.125,61,95,untitled,27,10
183.5,183.625,0.125,69,47,untitled,27,10
183.5,183.625,0.125,66,95,untitled,27,10
183.625,183.65104166666666,0.026041666666657193,50,95,untitled,27,10
183.75,183.77604166666666,0.026041666666657193,55,95,untitled,27,10
183.75,183.875,0.125,61,95,untitled,27,10
183.875,184.0,0.125,69,47,untitled,27,10
183.875,184.0,0.125,66,95,untitled,27,10
183.875,184.0,0.125,61,95,untitled,27,10
184.0,184.02604166666666,0.026041666666657193,50,95,untitled,27,10
184.125,184.25,0.125,66,95,untitled,27,10
184.125,184.25,0.125,61,95,untitled,27,10
184.25,184.375,0.125,61,95,untitled,27,10
184.25,184.375,0.125,69,47,untitled,27,10
184.25,184.375,0.125,66,95,untitled,27,10
184.375,184.5,0.125,69,95,untitled,27,10
184.375,184.5,0.125,66,95,untitled,27,10
184.375,184.5,0.125,61,95,untitled,27,10
184.5,184.52604166666666,0.026041666666657193,50,95,untitled,27,10
184.625,184.65104166666666,0.026041666666657193,50,95,untitled,27,10
184.75,184.875,0.125,64,95,untitled,27,10
184.75,184.875,0.125,68,47,untitled,27,10
184.75,184.875,0.125,59,95,untitled,27,10
184.875,185.0,0.125,59,47,untitled,27,10
184.875,185.0,0.125,64,47,untitled,27,10
185.0,185.02604166666666,0.026041666666657193,59,95,untitled,27,10
185.0,185.02604166666666,0.026041666666657193,59,47,untitled,27,10
185.125,185.25,0.125,64,95,untitled,27,10
185.125,185.25,0.125,68,47,untitled,27,10
185.125,185.25,0.125,59,95,untitled,27,10
185.25,185.27604166666666,0.026041666666657193,50,95,untitled,27,10
185.375,185.40104166666666,0.026041666666657193,55,95,untitled,27,10
185.375,185.5,0.125,59,47,untitled,27,10
185.5,185.625,0.125,59,95,untitled,27,10
185.5,185.625,0.125,68,47,untitled,27,10
185.5,185.625,0.125,64,95,untitled,27,10
185.625,185.65104166666666,0.026041666666657193,50,95,untitled,27,10
185.75,185.77604166666666,0.026041666666657193,55,95,untitled,27,10
185.75,185.875,0.125,59,47,untitled,27,10
185.875,186.0,0.125,64,95,untitled,27,10
185.875,186.0,0.125,59,95,untitled,27,10
185.875,186.0,0.125,68,47,untitled,27,10
186.0,186.02604166666666,0.026041666666657193,50,95,untitled,27,10
186.125,186.25,0.125,59,47,untitled,27,10
186.125,186.25,0.125,64,47,untitled,27,10
186.25,186.375,0.125,68,47,untitled,27,10
186.25,186.375,0.125,59,95,untitled,27,10
186.25,186.375,0.125,64,95,untitled,27,10
186.375,186.5,0.125,68,95,untitled,27,10
186.375,186.5,0.125,64,95,untitled,27,10
186.375,186.5,0.125,59,95,untitled,27,10
186.5,186.52604166666666,0.026041666666657193,50,95,untitled,27,10
186.625,186.65104166666666,0.026041666666657193,50,95,untitled,27,10
186.75,186.875,0.125,66,95,untitled,27,10
186.75,186.875,0.125,62,47,untitled,27,10
186.875,187.0,0.125,62,47,untitled,27,10
186.875,187.0,0.125,66,95,untitled,27,10
187.0,187.02604166666666,0.026041666666657193,50,95,untitled,27,10
187.125,187.25,0.125,62,47,untitled,27,10
187.125,187.25,0.125,66,95,untitled,27,10
187.25,187.27604166666666,0.026041666666657193,50,95,untitled,27,10
187.375,187.40104166666666,0.026041666666657193,50,95,untitled,27,10
187.5,187.625,0.125,62,47,untitled,27,10
187.5,187.625,0.125,66,95,untitled,27,10
187.625,187.65104166666666,0.026041666666657193,50,95,untitled,27,10
187.75,187.77604166666666,0.026041666666657193,50,95,untitled,27,10
187.875,188.0,0.125,66,95,untitled,27,10
188.0,188.125,0.125,66,95,untitled,27,10
188.125,188.25,0.125,62,47,untitled,27,10
188.125,188.25,0.125,66,95,untitled,27,10
188.25,188.375,0.125,62,47,untitled,27,10
188.25,188.375,0.125,57,47,untitled,27,10
188.25,188.375,0.125,66,95,untitled,27,10
188.375,188.40104166666666,0.026041666666657193,50,95,untitled,27,10
188.375,188.5,0.125,62,95,untitled,27,10
188.375,188.5,0.125,66,95,untitled,27,10
188.5,188.52604166666666,0.026041666666657193,50,95,untitled,27,10
188.625,188.65104166666666,0.026041666666657193,50,95,untitled,27,10
188.75,188.875,0.125,66,95,untitled,27,10
188.75,188.875,0.125,62,47,untitled,27,10
188.875,189.0,0.125,66,47,untitled,27,10
189.0,189.125,0.125,62,47,untitled,27,10
189.0,189.125,0.125,66,95,untitled,27,10
189.125,189.25,0.125,62,47,untitled,27,10
189.125,189.25,0.125,66,95,untitled,27,10
189.25,189.27604166666666,0.026041666666657193,50,95,untitled,27,10
189.375,189.40104166666666,0.026041666666657193,50,95,untitled,27,10
189.5,189.625,0.125,62,47,untitled,27,10
189.5,189.625,0.125,66,95,untitled,27,10
189.625,189.75,0.125,62,47,untitled,27,10
189.625,189.75,0.125,66,95,untitled,27,10
189.75,189.875,0.125,62,47,untitled,27,10
189.75,189.875,0.125,66,95,untitled,27,10
189.875,189.90104166666666,0.026041666666657193,50,95,untitled,27,10
189.875,190.0,0.125,66,47,untitled,27,10
190.0,190.02604166666666,0.026041666666657193,55,95,untitled,27,10
190.125,190.25,0.125,66,95,untitled,27,10
190.25,190.375,0.125,62,47,untitled,27,10
190.25,190.375,0.125,66,95,untitled,27,10
190.375,190.5,0.125,66,95,untitled,27,10
190.375,190.5,0.125,62,47,untitled,27,10
190.5,190.52604166666666,0.026041666666657193,50,95,untitled,27,10
190.625,190.65104166666666,0.026041666666657193,50,95,untitled,27,10
190.75,190.875,0.125,66,95,untitled,27,10
190.875,191.0,0.125,66,95,untitled,27,10
191.0,191.02604166666666,0.026041666666657193,50,95,untitled,27,10
191.125,191.25,0.125,66,95,untitled,27,10
191.25,191.27604166666666,0.026041666666657193,50,95,untitled,27,10
191.375,191.40104166666666,0.026041666666657193,55,95,untitled,27,10
191.5,191.625,0.125,66,95,untitled,27,10
191.625,191.75,0.125,66,95,untitled,27,10
191.75,191.875,0.125,61,47,untitled,27,10
191.75,191.875,0.125,66,95,untitled,27,10
191.875,192.0,0.125,69,47,untitled,27,10
191.875,192.0,0.125,61,47,untitled,27,10
191.875,192.0,0.125,66,95,untitled,27,10
192.0,192.02604166666666,0.026041666666657193,59,95,untitled,27,10
192.125,192.25,0.125,61,47,untitled,27,10
192.125,192.25,0.125,66,95,untitled,27,10
192.25,192.375,0.125,66,95,untitled,27,10
192.25,192.375,0.125,69,47,untitled,27,10
192.25,192.375,0.125,61,47,untitled,27,10
192.375,192.5,0.125,66,95,untitled,27,10
192.375,192.5,0.125,61,95,untitled,27,10
192.375,192.5,0.125,69,47,untitled,27,10
192.5,192.52604166666666,0.026041666666657193,55,95,untitled,27,10
192.625,192.65104166666666,0.026041666666657193,55,95,untitled,27,10
192.75,192.875,0.125,64,95,untitled,27,10
192.875,193.0,0.125,64,47,untitled,27,10
193.0,193.125,0.125,59,47,untitled,27,10
193.0,193.125,0.125,64,95,untitled,27,10
193.125,193.25,0.125,59,47,untitled,27,10
193.125,193.25,0.125,64,95,untitled,27,10
193.25,193.27604166666666,0.026041666666657193,55,95,untitled,27,10
193.375,193.40104166666666,0.026041666666657193,55,95,untitled,27,10
193.5,193.625,0.125,64,95,untitled,27,10
193.625,193.75,0.125,64,95,untitled,27,10
193.75,193.875,0.125,59,47,untitled,27,10
193.75,193.875,0.125,64,95,untitled,27,10
193.875,194.0,0.125,59,47,untitled,27,10
193.875,194.0,0.125,64,95,untitled,27,10
194.0,194.02604166666666,0.026041666666657193,55,95,untitled,27,10
194.125,194.25,0.125,64,95,untitled,27,10
194.25,194.375,0.125,59,47,untitled,27,10
194.25,194.375,0.125,64,95,untitled,27,10
194.375,194.5,0.125,64,95,untitled,27,10
194.375,194.5,0.125,59,47,untitled,27,10
194.5,194.52604166666666,0.026041666666657193,50,95,untitled,27,10
194.625,194.65104166666666,0.026041666666657193,50,95,untitled,27,10
194.75,194.875,0.125,66,95,untitled,27,10
194.875,195.0,0.125,66,95,untitled,27,10
195.0,195.02604166666666,0.026041666666657193,50,95,untitled,27,10
195.125,195.25,0.125,62,47,untitled,27,10
195.125,195.25,0.125,66,95,untitled,27,10
195.25,195.27604166666666,0.026041666666657193,50,95,untitled,27,10
195.375,195.40104166666666,0.026041666666657193,50,95,untitled,27,10
195.5,195.625,0.125,62,47,untitled,27,10
195.5,195.625,0.125,66,95,untitled,27,10
195.625,195.65104166666666,0.026041666666657193,50,95,untitled,27,10
195.75,195.77604166666666,0.026041666666657193,50,95,untitled,27,10
195.875,196.0,0.125,66,95,untitled,27,10
196.0,196.125,0.125,66,95,untitled,27,10
196.125,196.25,0.125,62,47,untitled,27,10
196.125,196.25,0.125,66,95,untitled,27,10
196.25,196.375,0.125,62,47,untitled,27,10
196.25,196.375,0.125,57,47,untitled,27,10
196.25,196.375,0.125,66,95,untitled,27,10
196.375,196.40104166666666,0.026041666666657193,50,95,untitled,27,10
196.375,196.5,0.125,62,95,untitled,27,10
196.375,196.5,0.125,66,95,untitled,27,10
196.5,196.52604166666666,0.026041666666657193,50,95,untitled,27,10
196.625,196.65104166666666,0.026041666666657193,50,95,untitled,27,10
196.75,196.875,0.125,66,95,untitled,27,10
196.875,197.0,0.125,66,47,untitled,27,10
197.0,197.125,0.125,66,95,untitled,27,10
197.125,197.25,0.125,66,95,untitled,27,10
197.25,197.27604166666666,0.026041666666657193,50,95,untitled,27,10
197.375,197.40104166666666,0.026041666666657193,50,95,untitled,27,10
197.5,197.625,0.125,62,47,untitled,27,10
197.5,197.625,0.125,66,95,untitled,27,10
197.625,197.75,0.125,62,47,untitled,27,10
197.625,197.75,0.125,66,95,untitled,27,10
197.75,197.875,0.125,62,47,untitled,27,10
197.75,197.875,0.125,66,95,untitled,27,10
197.875,197.90104166666666,0.026041666666657193,50,95,untitled,27,10
197.875,198.0,0.125,62,47,untitled,27,10
197.875,198.0,0.125,66,47,untitled,27,10
198.0,198.02604166666666,0.026041666666657193,55,95,untitled,27,10
198.125,198.25,0.125,62,47,untitled,27,10
198.125,198.25,0.125,66,95,untitled,27,10
198.25,198.375,0.125,62,47,untitled,27,10
198.25,198.375,0.125,66,95,untitled,27,10
198.375,198.5,0.125,66,95,untitled,27,10
198.375,198.5,0.125,62,47,untitled,27,10
198.5,198.52604166666666,0.026041666666657193,50,95,untitled,27,10
198.625,198.65104166666666,0.026041666666657193,50,95,untitled,27,10
198.75,198.875,0.125,66,95,untitled,27,10
198.875,199.0,0.125,61,47,untitled,27,10
198.875,199.0,0.125,66,95,untitled,27,10
199.0,199.02604166666666,0.026041666666657193,50,95,untitled,27,10
199.125,199.25,0.125,61,47,untitled,27,10
199.125,199.25,0.125,66,95,untitled,27,10
199.25,199.27604166666666,0.026041666666657193,50,95,untitled,27,10
199.375,199.40104166666666,0.026041666666657193,55,95,untitled,27,10
199.5,199.625,0.125,66,95,untitled,27,10
199.625,199.75,0.125,66,95,untitled,27,10
199.75,199.875,0.125,66,95,untitled,27,10
199.875,200.0,0.125,69,47,untitled,27,10
199.875,200.0,0.125,61,47,untitled,27,10
199.875,200.0,0.125,66,95,untitled,27,10
200.0,200.02604166666666,0.026041666666657193,59,95,untitled,27,10
200.125,200.25,0.125,69,47,untitled,27,10
200.125,200.25,0.125,61,47,untitled,27,10
200.125,200.25,0.125,66,95,untitled,27,10
200.25,200.375,0.125,66,95,untitled,27,10
200.25,200.375,0.125,69,47,untitled,27,10
200.25,200.375,0.125,61,47,untitled,27,10
200.375,200.5,0.125,66,95,untitled,27,10
200.375,200.5,0.125,61,95,untitled,27,10
200.375,200.5,0.125,69,47,untitled,27,10
200.5,200.52604166666666,0.026041666666657193,55,95,untitled,27,10
200.625,200.65104166666666,0.026041666666657193,55,95,untitled,27,10
200.75,200.875,0.125,64,95,untitled,27,10
200.875,201.0,0.125,59,47,untitled,27,10
200.875,201.0,0.125,64,47,untitled,27,10
201.0,201.125,0.125,64,95,untitled,27,10
201.125,201.25,0.125,59,47,untitled,27,10
201.125,201.25,0.125,64,95,untitled,27,10
201.25,201.27604166666666,0.026041666666657193,55,95,untitled,27,10
201.375,201.40104166666666,0.026041666666657193,55,95,untitled,27,10
201.5,201.625,0.125,64,95,untitled,27,10
201.625,201.75,0.125,64,95,untitled,27,10
201.75,201.875,0.125,59,47,untitled,27,10
201.75,201.875,0.125,64,95,untitled,27,10
201.875,202.0,0.125,59,47,untitled,27,10
201.875,202.0,0.125,64,95,untitled,27,10
202.0,202.02604166666666,0.026041666666657193,55,95,untitled,27,10
202.125,202.25,0.125,59,47,untitled,27,10
202.125,202.25,0.125,64,95,untitled,27,10
202.25,202.375,0.125,59,47,untitled,27,10
202.25,202.375,0.125,64,95,untitled,27,10
202.375,202.5,0.125,64,95,untitled,27,10
202.375,202.5,0.125,59,47,untitled,27,10
202.5,202.52604166666666,0.026041666666657193,50,95,untitled,27,10
202.625,202.65104166666666,0.026041666666657193,50,95,untitled,27,10
202.75,202.875,0.125,66,95,untitled,27,10
202.875,203.0,0.125,66,95,untitled,27,10
203.0,203.02604166666666,0.026041666666657193,50,95,untitled,27,10
203.125,203.25,0.125,62,47,untitled,27,10
203.125,203.25,0.125,66,95,untitled,27,10
203.25,203.27604166666666,0.026041666666657193,50,95,untitled,27,10
203.375,203.40104166666666,0.026041666666657193,50,95,untitled,27,10
203.5,203.625,0.125,62,47,untitled,27,10
203.5,203.625,0.125,66,95,untitled,27,10
203.625,203.65104166666666,0.026041666666657193,50,95,untitled,27,10
203.75,203.77604166666666,0.026041666666657193,50,95,untitled,27,10
203.875,204.0,0.125,62,47,untitled,27,10
203.875,204.0,0.125,66,95,untitled,27,10
204.0,204.125,0.125,66,95,untitled,27,10
204.125,204.25,0.125,62,47,untitled,27,10
204.125,204.25,0.125,66,95,untitled,27,10
204.25,204.375,0.125,57,47,untitled,27,10
204.25,204.375,0.125,62,47,untitled,27,10
204.25,204.375,0.125,66,95,untitled,27,10
204.375,204.40104166666666,0.026041666666657193,50,95,untitled,27,10
204.375,204.5,0.125,62,95,untitled,27,10
204.375,204.5,0.125,66,95,untitled,27,10
204.5,204.52604166666666,0.026041666666657193,50,95,untitled,27,10
204.625,204.65104166666666,0.026041666666657193,50,95,untitled,27,10
204.75,204.875,0.125,66,95,untitled,27,10
204.75,204.875,0.125,62,47,untitled,27,10
204.875,205.0,0.125,66,47,untitled,27,10
205.0,205.125,0.125,62,47,untitled,27,10
205.0,205.125,0.125,66,95,untitled,27,10
205.125,205.25,0.125,62,47,untitled,27,10
205.125,205.25,0.125,66,95,untitled,27,10
205.25,205.27604166666666,0.026041666666657193,50,95,untitled,27,10
205.375,205.40104166666666,0.026041666666657193,50,95,untitled,27,10
205.5,205.625,0.125,66,95,untitled,27,10
205.625,205.75,0.125,66,95,untitled,27,10
205.75,205.875,0.125,66,95,untitled,27,10
205.875,205.90104166666666,0.026041666666657193,50,95,untitled,27,10
205.875,206.0,0.125,66,47,untitled,27,10
206.0,206.02604166666666,0.026041666666657193,55,95,untitled,27,10
206.125,206.25,0.125,66,95,untitled,27,10
206.25,206.375,0.125,66,95,untitled,27,10
206.375,206.5,0.125,66,95,untitled,27,10
206.5,206.52604166666666,0.026041666666657193,50,95,untitled,27,10
206.625,206.65104166666666,0.026041666666657193,50,95,untitled,27,10
206.75,206.875,0.125,66,95,untitled,27,10
206.875,207.0,0.125,66,95,untitled,27,10
207.0,207.02604166666666,0.026041666666657193,50,95,untitled,27,10
207.125,207.25,0.125,66,95,untitled,27,10
207.25,207.27604166666666,0.026041666666657193,50,95,untitled,27,10
207.375,207.40104166666666,0.026041666666657193,55,95,untitled,27,10
207.5,207.625,0.125,66,95,untitled,27,10
207.625,207.75,0.125,66,95,untitled,27,10
207.75,207.875,0.125,66,95,untitled,27,10
207.875,208.0,0.125,66,95,untitled,27,10
207.875,208.0,0.125,69,47,untitled,27,10
207.875,208.0,0.125,61,47,untitled,27,10
208.0,208.02604166666666,0.026041666666657193,59,95,untitled,27,10
208.125,208.25,0.125,61,47,untitled,27,10
208.125,208.25,0.125,69,47,untitled,27,10
208.125,208.25,0.125,66,95,untitled,27,10
208.25,208.375,0.125,61,47,untitled,27,10
208.25,208.375,0.125,66,95,untitled,27,10
208.25,208.375,0.125,69,47,untitled,27,10
208.375,208.5,0.125,69,47,untitled,27,10
208.375,208.5,0.125,61,95,untitled,27,10
208.375,208.5,0.125,66,95,untitled,27,10
208.5,208.52604166666666,0.026041666666657193,55,95,untitled,27,10
208.625,208.65104166666666,0.026041666666657193,55,95,untitled,27,10
208.75,208.875,0.125,64,95,untitled,27,10
208.875,209.0,0.125,64,47,untitled,27,10
209.0,209.125,0.125,64,95,untitled,27,10
209.125,209.25,0.125,64,95,untitled,27,10
209.25,209.27604166666666,0.026041666666657193,55,95,untitled,27,10
209.375,209.40104166666666,0.026041666666657193,55,95,untitled,27,10
209.5,209.625,0.125,64,95,untitled,27,10
209.625,209.75,0.125,64,95,untitled,27,10
209.625,209.75,0.125,59,47,untitled,27,10
209.75,209.875,0.125,59,47,untitled,27,10
209.75,209.875,0.125,64,95,untitled,27,10
209.875,210.0,0.125,59,47,untitled,27,10
209.875,210.0,0.125,64,95,untitled,27,10
210.0,210.02604166666666,0.026041666666657193,55,95,untitled,27,10
210.125,210.25,0.125,59,47,untitled,27,10
210.125,210.25,0.125,64,95,untitled,27,10
210.25,210.375,0.125,59,47,untitled,27,10
210.25,210.375,0.125,64,95,untitled,27,10
210.375,210.5,0.125,59,47,untitled,27,10
210.375,210.5,0.125,56,47,untitled,27,10
210.375,210.5,0.125,64,95,untitled,27,10
210.5,210.52604166666666,0.026041666666657193,50,95,untitled,27,10
210.625,210.65104166666666,0.026041666666657193,50,95,untitled,27,10
210.75,210.875,0.125,66,95,untitled,27,10
210.875,211.0,0.125,62,47,untitled,27,10
210.875,211.0,0.125,66,95,untitled,27,10
211.0,211.02604166666666,0.026041666666657193,50,95,untitled,27,10
211.125,211.25,0.125,62,47,untitled,27,10
211.125,211.25,0.125,66,95,untitled,27,10
211.25,211.27604166666666,0.026041666666657193,50,95,untitled,27,10
211.375,211.40104166666666,0.026041666666657193,50,95,untitled,27,10
211.5,211.625,0.125,66,95,untitled,27,10
211.625,211.65104166666666,0.026041666666657193,50,95,untitled,27,10
211.75,211.77604166666666,0.026041666666657193,50,95,untitled,27,10
211.875,212.0,0.125,66,95,untitled,27,10
212.0,212.125,0.125,66,95,untitled,27,10
212.125,212.25,0.125,62,47,untitled,27,10
212.125,212.25,0.125,66,95,untitled,27,10
212.25,212.375,0.125,57,47,untitled,27,10
212.25,212.375,0.125,62,47,untitled,27,10
212.25,212.375,0.125,66,95,untitled,27,10
212.375,212.40104166666666,0.026041666666657193,50,95,untitled,27,10
212.375,212.5,0.125,62,95,untitled,27,10
212.375,212.5,0.125,66,95,untitled,27,10
212.5,212.52604166666666,0.026041666666657193,50,95,untitled,27,10
212.625,212.65104166666666,0.026041666666657193,50,95,untitled,27,10
212.75,212.875,0.125,66,95,untitled,27,10
212.875,213.0,0.125,66,47,untitled,27,10
213.0,213.125,0.125,66,95,untitled,27,10
213.125,213.25,0.125,66,95,untitled,27,10
213.25,213.27604166666666,0.026041666666657193,50,95,untitled,27,10
213.375,213.40104166666666,0.026041666666657193,50,95,untitled,27,10
213.5,213.625,0.125,62,47,untitled,27,10
213.5,213.625,0.125,66,95,untitled,27,10
213.625,213.75,0.125,62,47,untitled,27,10
213.625,213.75,0.125,66,95,untitled,27,10
213.75,213.875,0.125,62,47,untitled,27,10
213.75,213.875,0.125,66,95,untitled,27,10
213.875,213.90104166666666,0.026041666666657193,50,95,untitled,27,10
213.875,214.0,0.125,62,47,untitled,27,10
213.875,214.0,0.125,66,47,untitled,27,10
214.0,214.02604166666666,0.026041666666657193,55,95,untitled,27,10
214.125,214.25,0.125,62,47,untitled,27,10
214.125,214.25,0.125,66,95,untitled,27,10
214.25,214.375,0.125,62,47,untitled,27,10
214.25,214.375,0.125,66,95,untitled,27,10
214.375,214.5,0.125,66,95,untitled,27,10
214.375,214.5,0.125,62,47,untitled,27,10
214.5,214.52604166666666,0.026041666666657193,50,95,untitled,27,10
214.625,214.65104166666666,0.026041666666657193,50,95,untitled,27,10
214.75,214.875,0.125,66,95,untitled,27,10
214.875,215.0,0.125,66,95,untitled,27,10
215.0,215.02604166666666,0.026041666666657193,50,95,untitled,27,10
215.125,215.25,0.125,66,95,untitled,27,10
215.25,215.27604166666666,0.026041666666657193,50,95,untitled,27,10
215.375,215.40104166666666,0.026041666666657193,55,95,untitled,27,10
215.5,215.625,0.125,66,95,untitled,27,10
215.625,215.75,0.125,66,95,untitled,27,10
215.75,215.875,0.125,66,95,untitled,27,10
215.875,216.0,0.125,66,95,untitled,27,10
215.875,216.0,0.125,69,47,untitled,27,10
215.875,216.0,0.125,61,47,untitled,27,10
216.0,216.02604166666666,0.026041666666657193,59,95,untitled,27,10
216.125,216.25,0.125,61,47,untitled,27,10
216.125,216.25,0.125,69,47,untitled,27,10
216.125,216.25,0.125,66,95,untitled,27,10
216.25,216.375,0.125,61,47,untitled,27,10
216.25,216.375,0.125,66,95,untitled,27,10
216.25,216.375,0.125,69,47,untitled,27,10
216.375,216.5,0.125,69,47,untitled,27,10
216.375,216.5,0.125,61,95,untitled,27,10
216.375,216.5,0.125,66,95,untitled,27,10
216.5,216.52604166666666,0.026041666666657193,55,95,untitled,27,10
216.625,216.65104166666666,0.026041666666657193,55,95,untitled,27,10
216.75,216.875,0.125,64,95,untitled,27,10
216.875,217.0,0.125,64,47,untitled,27,10
217.0,217.125,0.125,64,95,untitled,27,10
217.125,217.25,0.125,64,95,untitled,27,10
217.25,217.27604166666666,0.026041666666657193,55,95,untitled,27,10
217.375,217.40104166666666,0.026041666666657193,55,95,untitled,27,10
217.5,217.625,0.125,64,95,untitled,27,10
217.625,217.75,0.125,64,95,untitled,27,10
217.75,217.875,0.125,61,47,untitled,27,10
217.75,217.875,0.125,64,95,untitled,27,10
217.875,218.0,0.125,61,47,untitled,27,10
217.875,218.0,0.125,64,95,untitled,27,10
218.0,218.02604166666666,0.026041666666657193,55,95,untitled,27,10
218.125,218.25,0.125,61,47,untitled,27,10
218.125,218.25,0.125,64,95,untitled,27,10
218.25,218.375,0.125,61,47,untitled,27,10
218.25,218.375,0.125,64,95,untitled,27,10
218.375,218.5,0.125,64,95,untitled,27,10
218.375,218.5,0.125,61,47,untitled,27,10
218.5,218.52604166666666,0.026041666666657193,50,95,untitled,27,10
218.625,218.65104166666666,0.026041666666657193,50,95,untitled,27,10
218.75,218.875,0.125,57,95,untitled,27,10
218.75,218.875,0.125,62,95,untitled,27,10
218.75,218.875,0.125,66,47,untitled,27,10
218.875,218.90104166666666,0.026041666666657193,50,95,untitled,27,10
219.0,219.125,0.125,54,95,untitled,27,10
219.125,219.25,0.125,57,95,untitled,27,10
219.125,219.25,0.125,66,47,untitled,27,10
219.125,219.25,0.125,62,95,untitled,27,10
219.25,219.27604166666666,0.026041666666657193,50,95,untitled,27,10
219.375,219.5,0.125,62,95,untitled,27,10
219.375,219.5,0.125,59,95,untitled,27,10
219.5,219.625,0.125,59,95,untitled,27,10
219.5,219.625,0.125,62,95,untitled,27,10
219.5,219.625,0.125,66,95,untitled,27,10
219.625,219.65104166666666,0.026041666666657193,50,95,untitled,27,10
219.75,219.875,0.125,59,95,untitled,27,10
219.75,219.875,0.125,62,95,untitled,27,10
219.875,220.0,0.125,59,95,untitled,27,10
219.875,220.0,0.125,62,95,untitled,27,10
219.875,220.0,0.125,66,95,untitled,27,10
220.0,220.02604166666666,0.026041666666657193,50,95,untitled,27,10
220.125,220.15104166666666,0.026041666666657193,50,95,untitled,27,10
220.25,220.375,0.125,59,95,untitled,27,10
220.25,220.375,0.125,66,95,untitled,27,10
220.25,220.375,0.125,62,95,untitled,27,10
220.375,220.5,0.125,62,95,untitled,27,10
220.375,220.5,0.125,66,95,untitled,27,10
220.375,220.5,0.125,59,95,untitled,27,10
220.5,220.52604166666666,0.026041666666657193,50,95,untitled,27,10
220.625,220.65104166666666,0.026041666666657193,50,95,untitled,27,10
220.75,220.875,0.125,57,95,untitled,27,10
220.75,220.875,0.125,62,95,untitled,27,10
220.75,220.875,0.125,66,95,untitled,27,10
220.875,220.90104166666666,0.026041666666657193,50,95,untitled,27,10
221.0,221.02604166666666,0.026041666666657193,50,95,untitled,27,10
221.125,221.25,0.125,57,95,untitled,27,10
221.125,221.25,0.125,66,95,untitled,27,10
221.125,221.25,0.125,62,95,untitled,27,10
221.25,221.27604166666666,0.026041666666657193,50,95,untitled,27,10
221.375,221.40104166666666,0.026041666666657193,50,95,untitled,27,10
221.375,221.5,0.125,62,95,untitled,27,10
221.5,221.625,0.125,57,95,untitled,27,10
221.5,221.625,0.125,62,95,untitled,27,10
221.5,221.625,0.125,66,47,untitled,27,10
221.625,221.65104166666666,0.026041666666657193,50,95,untitled,27,10
221.75,221.77604166666666,0.026041666666657193,50,95,untitled,27,10
221.75,221.875,0.125,62,95,untitled,27,10
221.875,222.0,0.125,57,95,untitled,27,10
221.875,222.0,0.125,62,95,untitled,27,10
221.875,222.0,0.125,66,47,untitled,27,10
222.0,222.02604166666666,0.026041666666657193,50,95,untitled,27,10
222.0,222.25,0.25,61,95,untitled,27,10
222.25,222.375,0.125,57,95,untitled,27,10
222.25,222.375,0.125,62,95,untitled,27,10
222.25,222.375,0.125,66,95,untitled,27,10
222.375,222.5,0.125,66,95,untitled,27,10
222.375,222.5,0.125,62,95,untitled,27,10
222.375,222.5,0.125,57,95,untitled,27,10
222.5,222.52604166666666,0.026041666666657193,59,95,untitled,27,10
222.625,222.65104166666666,0.026041666666657193,59,95,untitled,27,10
222.75,222.77604166666666,0.026041666666657193,59,95,untitled,27,10
222.75,222.875,0.125,61,95,untitled,27,10
222.75,222.875,0.125,66,95,untitled,27,10
222.875,222.90104166666666,0.026041666666657193,59,95,untitled,27,10
223.0,223.02604166666666,0.026041666666657193,59,95,untitled,27,10
223.0,223.125,0.125,61,95,untitled,27,10
223.125,223.25,0.125,66,95,untitled,27,10
223.125,223.25,0.125,69,47,untitled,27,10
223.125,223.25,0.125,61,95,untitled,27,10
223.25,223.27604166666666,0.026041666666657193,50,95,untitled,27,10
223.375,223.40104166666666,0.026041666666657193,55,95,untitled,27,10
223.375,223.5,0.125,61,47,untitled,27,10
223.5,223.625,0.125,69,47,untitled,27,10
223.5,223.625,0.125,61,95,untitled,27,10
223.5,223.625,0.125,66,95,untitled,27,10
223.625,223.65104166666666,0.026041666666657193,50,95,untitled,27,10
223.75,223.77604166666666,0.026041666666657193,55,95,untitled,27,10
223.75,223.875,0.125,61,95,untitled,27,10
223.875,224.0,0.125,66,95,untitled,27,10
223.875,224.0,0.125,69,47,untitled,27,10
223.875,224.0,0.125,61,95,untitled,27,10
224.0,224.02604166666666,0.026041666666657193,50,95,untitled,27,10
224.125,224.15104166666666,0.026041666666657193,55,95,untitled,27,10
224.125,224.15104166666666,0.026041666666657193,59,95,untitled,27,10
224.125,224.25,0.125,61,95,untitled,27,10
224.25,224.5,0.25,69,47,untitled,27,10
224.25,224.5,0.25,66,95,untitled,27,10
224.25,224.5,0.25,61,95,untitled,27,10
224.5,224.52604166666666,0.026041666666657193,50,95,untitled,27,10
224.625,224.65104166666666,0.026041666666657193,50,95,untitled,27,10
224.75,224.875,0.125,59,47,untitled,27,10
224.75,224.875,0.125,64,95,untitled,27,10
224.75,224.875,0.125,68,47,untitled,27,10
224.875,224.90104166666666,0.026041666666657193,50,95,untitled,27,10
225.0,225.125,0.125,59,95,untitled,27,10
225.0,225.125,0.125,64,47,untitled,27,10
225.0,225.125,0.125,68,47,untitled,27,10
225.125,225.25,0.125,59,47,untitled,27,10
225.125,225.25,0.125,68,47,untitled,27,10
225.125,225.25,0.125,64,95,untitled,27,10
225.25,225.27604166666666,0.026041666666657193,64,95,untitled,27,10
225.375,225.5,0.125,59,47,untitled,27,10
225.375,225.5,0.125,68,47,untitled,27,10
225.375,225.5,0.125,64,95,untitled,27,10
225.5,225.52604166666666,0.026041666666657193,55,95,untitled,27,10
225.625,225.65104166666666,0.026041666666657193,64,95,untitled,27,10
225.75,225.875,0.125,59,47,untitled,27,10
225.75,225.875,0.125,64,95,untitled,27,10
225.75,225.875,0.125,68,47,untitled,27,10
225.875,225.90104166666666,0.026041666666657193,55,95,untitled,27,10
226.0,226.25,0.25,57,95,untitled,27,10
226.0,226.25,0.25,66,47,untitled,27,10
226.0,226.25,0.25,62,95,untitled,27,10
226.25,226.5,0.25,61,95,untitled,27,10
226.25,226.5,0.25,66,47,untitled,27,10
226.25,226.5,0.25,57,95,untitled,27,10
226.5,226.52604166666666,0.026041666666657193,50,95,untitled,27,10
226.625,226.65104166666666,0.026041666666657193,50,95,untitled,27,10
226.75,226.875,0.125,57,95,untitled,27,10
226.75,226.875,0.125,62,95,untitled,27,10
226.75,226.875,0.125,66,47,untitled,27,10
226.875,226.90104166666666,0.026041666666657193,50,95,untitled,27,10
227.0,227.125,0.125,54,95,untitled,27,10
227.125,227.25,0.125,57,95,untitled,27,10
227.125,227.25,0.125,66,47,untitled,27,10
227.125,227.25,0.125,62,95,untitled,27,10
227.25,227.27604166666666,0.026041666666657193,50,95,untitled,27,10
227.375,227.5,0.125,59,95,untitled,27,10
227.375,227.5,0.125,66,47,untitled,27,10
227.375,227.5,0.125,62,95,untitled,27,10
227.5,227.52604166666666,0.026041666666657193,62,95,untitled,27,10
227.625,227.65104166666666,0.026041666666657193,62,95,untitled,27,10
227.75,227.77604166666666,0.026041666666657193,59,95,untitled,27,10
227.75,227.875,0.125,62,95,untitled,27,10
227.75,227.875,0.125,66,95,untitled,27,10
227.875,227.90104166666666,0.026041666666657193,59,95,untitled,27,10
227.875,228.0,0.125,62,95,untitled,27,10
227.875,228.0,0.125,66,95,untitled,27,10
228.0,228.02604166666666,0.026041666666657193,50,95,untitled,27,10
228.125,228.15104166666666,0.026041666666657193,50,95,untitled,27,10
228.25,228.375,0.125,59,95,untitled,27,10
228.25,228.375,0.125,66,95,untitled,27,10
228.25,228.375,0.125,62,95,untitled,27,10
228.375,228.5,0.125,62,95,untitled,27,10
228.375,228.5,0.125,66,95,untitled,27,10
228.375,228.5,0.125,59,95,untitled,27,10
228.5,228.52604166666666,0.026041666666657193,50,95,untitled,27,10
228.625,228.65104166666666,0.026041666666657193,50,95,untitled,27,10
228.75,228.875,0.125,57,95,untitled,27,10
228.75,228.875,0.125,62,95,untitled,27,10
228.75,228.875,0.125,66,95,untitled,27,10
228.875,228.90104166666666,0.026041666666657193,50,95,untitled,27,10
229.0,229.02604166666666,0.026041666666657193,50,95,untitled,27,10
229.125,229.25,0.125,57,95,untitled,27,10
229.125,229.25,0.125,66,95,untitled,27,10
229.125,229.25,0.125,62,95,untitled,27,10
229.25,229.27604166666666,0.026041666666657193,50,95,untitled,27,10
229.375,229.40104166666666,0.026041666666657193,50,95,untitled,27,10
229.375,229.5,0.125,62,95,untitled,27,10
229.5,229.625,0.125,57,95,untitled,27,10
229.5,229.625,0.125,62,95,untitled,27,10
229.5,229.625,0.125,66,95,untitled,27,10
229.625,229.65104166666666,0.026041666666657193,50,95,untitled,27,10
229.75,229.77604166666666,0.026041666666657193,50,95,untitled,27,10
229.75,229.875,0.125,62,95,untitled,27,10
229.875,230.0,0.125,57,95,untitled,27,10
229.875,230.0,0.125,62,95,untitled,27,10
229.875,230.0,0.125,66,95,untitled,27,10
230.0,230.02604166666666,0.026041666666657193,50,95,untitled,27,10
230.0,230.25,0.25,61,95,untitled,27,10
230.25,230.375,0.125,62,95,untitled,27,10
230.25,230.375,0.125,57,95,untitled,27,10
230.25,230.375,0.125,66,95,untitled,27,10
230.375,230.5,0.125,66,95,untitled,27,10
230.375,230.5,0.125,62,95,untitled,27,10
230.375,230.5,0.125,57,95,untitled,27,10
230.5,230.52604166666666,0.026041666666657193,50,95,untitled,27,10
230.625,230.65104166666666,0.026041666666657193,50,95,untitled,27,10
230.75,230.77604166666666,0.026041666666657193,64,95,untitled,27,10
230.875,230.90104166666666,0.026041666666657193,50,95,untitled,27,10
230.875,230.90104166666666,0.026041666666657193,64,95,untitled,27,10
231.0,231.02604166666666,0.026041666666657193,59,95,untitled,27,10
231.0,231.125,0.125,61,95,untitled,27,10
231.125,231.25,0.125,66,95,untitled,27,10
231.125,231.25,0.125,69,47,untitled,27,10
231.125,231.25,0.125,61,95,untitled,27,10
231.25,231.27604166666666,0.026041666666657193,50,95,untitled,27,10
231.375,231.40104166666666,0.026041666666657193,55,95,untitled,27,10
231.375,231.5,0.125,61,47,untitled,27,10
231.5,231.625,0.125,69,47,untitled,27,10
231.5,231.625,0.125,61,95,untitled,27,10
231.5,231.625,0.125,66,95,untitled,27,10
231.625,231.65104166666666,0.026041666666657193,50,95,untitled,27,10
231.75,231.77604166666666,0.026041666666657193,55,95,untitled,27,10
231.75,231.875,0.125,61,95,untitled,27,10
231.875,232.0,0.125,66,95,untitled,27,10
231.875,232.0,0.125,69,47,untitled,27,10
231.875,232.0,0.125,61,95,untitled,27,10
232.0,232.02604166666666,0.026041666666657193,50,95,untitled,27,10
232.125,232.25,0.125,66,95,untitled,27,10
232.125,232.25,0.125,61,95,untitled,27,10
232.25,232.375,0.125,61,95,untitled,27,10
232.25,232.375,0.125,69,47,untitled,27,10
232.25,232.375,0.125,66,95,untitled,27,10
232.375,232.5,0.125,66,95,untitled,27,10
232.375,232.5,0.125,69,95,untitled,27,10
232.375,232.5,0.125,61,95,untitled,27,10
232.5,232.52604166666666,0.026041666666657193,50,95,untitled,27,10
232.625,232.65104166666666,0.026041666666657193,50,95,untitled,27,10
232.75,232.875,0.125,59,95,untitled,27,10
232.75,232.875,0.125,64,95,untitled,27,10
232.75,232.875,0.125,68,47,untitled,27,10
232.875,232.90104166666666,0.026041666666657193,50,95,untitled,27,10
233.0,233.125,0.125,59,95,untitled,27,10
233.0,233.125,0.125,64,47,untitled,27,10
233.0,233.125,0.125,68,47,untitled,27,10
233.125,233.25,0.125,59,95,untitled,27,10
233.125,233.25,0.125,68,47,untitled,27,10
233.125,233.25,0.125,64,95,untitled,27,10
233.25,233.27604166666666,0.026041666666657193,64,95,untitled,27,10
233.375,233.5,0.125,59,95,untitled,27,10
233.375,233.5,0.125,68,47,untitled,27,10
233.375,233.5,0.125,64,95,untitled,27,10
233.5,233.52604166666666,0.026041666666657193,55,95,untitled,27,10
233.625,233.65104166666666,0.026041666666657193,64,95,untitled,27,10
233.75,233.875,0.125,59,95,untitled,27,10
233.75,233.875,0.125,64,95,untitled,27,10
233.75,233.875,0.125,68,47,untitled,27,10
233.875,233.90104166666666,0.026041666666657193,55,95,untitled,27,10
234.0,234.02604166666666,0.026041666666657193,55,95,untitled,27,10
234.125,234.15104166666666,0.026041666666657193,64,95,untitled,27,10
234.25,234.375,0.125,59,95,untitled,27,10
234.25,234.375,0.125,64,95,untitled,27,10
234.25,234.375,0.125,68,47,untitled,27,10
234.375,234.5,0.125,59,95,untitled,27,10
234.375,234.5,0.125,68,47,untitled,27,10
234.375,234.5,0.125,64,95,untitled,27,10
234.5,234.52604166666666,0.026041666666657193,50,95,untitled,27,10
234.625,234.65104166666666,0.026041666666657193,50,95,untitled,27,10
234.75,234.875,0.125,57,95,untitled,27,10
234.75,234.875,0.125,62,95,untitled,27,10
234.75,234.875,0.125,66,47,untitled,27,10
234.875,234.90104166666666,0.026041666666657193,50,95,untitled,27,10
235.0,235.125,0.125,54,95,untitled,27,10
235.125,235.25,0.125,57,95,untitled,27,10
235.125,235.25,0.125,66,47,untitled,27,10
235.125,235.25,0.125,62,95,untitled,27,10
235.25,235.27604166666666,0.026041666666657193,50,95,untitled,27,10
235.375,235.5,0.125,62,95,untitled,27,10
235.375,235.5,0.125,59,95,untitled,27,10
235.5,235.625,0.125,59,95,untitled,27,10
235.5,235.625,0.125,62,95,untitled,27,10
235.5,235.625,0.125,66,95,untitled,27,10
235.625,235.65104166666666,0.026041666666657193,50,95,untitled,27,10
235.75,235.875,0.125,59,95,untitled,27,10
235.75,235.875,0.125,62,95,untitled,27,10
235.875,236.0,0.125,59,95,untitled,27,10
235.875,236.0,0.125,62,95,untitled,27,10
235.875,236.0,0.125,66,95,untitled,27,10
236.0,236.02604166666666,0.026041666666657193,50,95,untitled,27,10
236.125,236.15104166666666,0.026041666666657193,50,95,untitled,27,10
236.25,236.375,0.125,59,95,untitled,27,10
236.25,236.375,0.125,66,95,untitled,27,10
236.25,236.375,0.125,62,95,untitled,27,10
236.375,236.5,0.125,59,95,untitled,27,10
236.375,236.5,0.125,62,95,untitled,27,10
236.375,236.5,0.125,66,95,untitled,27,10
236.5,236.52604166666666,0.026041666666657193,50,95,untitled,27,10
236.625,236.65104166666666,0.026041666666657193,50,95,untitled,27,10
236.75,236.875,0.125,57,95,untitled,27,10
236.75,236.875,0.125,62,95,untitled,27,10
236.75,236.875,0.125,66,95,untitled,27,10
236.875,236.90104166666666,0.026041666666657193,50,95,untitled,27,10
237.0,237.02604166666666,0.026041666666657193,50,95,untitled,27,10
237.125,237.25,0.125,57,95,untitled,27,10
237.125,237.25,0.125,66,95,untitled,27,10
237.125,237.25,0.125,62,95,untitled,27,10
237.25,237.27604166666666,0.026041666666657193,50,95,untitled,27,10
237.375,237.40104166666666,0.026041666666657193,50,95,untitled,27,10
237.375,237.5,0.125,62,95,untitled,27,10
237.5,237.625,0.125,57,95,untitled,27,10
237.5,237.625,0.125,62,95,untitled,27,10
237.5,237.625,0.125,66,47,untitled,27,10
237.625,237.65104166666666,0.026041666666657193,50,95,untitled,27,10
237.75,237.77604166666666,0.026041666666657193,50,95,untitled,27,10
237.75,237.875,0.125,62,95,untitled,27,10
237.875,238.0,0.125,57,95,untitled,27,10
237.875,238.0,0.125,62,95,untitled,27,10
237.875,238.0,0.125,66,47,untitled,27,10
238.0,238.02604166666666,0.026041666666657193,50,95,untitled,27,10
238.0,238.25,0.25,61,95,untitled,27,10
238.25,238.375,0.125,57,95,untitled,27,10
238.25,238.375,0.125,62,95,untitled,27,10
238.25,238.375,0.125,66,95,untitled,27,10
238.375,238.5,0.125,66,95,untitled,27,10
238.375,238.5,0.125,62,95,untitled,27,10
238.375,238.5,0.125,57,95,untitled,27,10
238.5,238.625,0.125,66,95,untitled,27,10
238.5,238.625,0.125,69,95,untitled,27,10
238.625,238.65104166666666,0.026041666666657193,59,95,untitled,27,10
238.75,238.77604166666666,0.026041666666657193,59,95,untitled,27,10
238.75,238.875,0.125,61,95,untitled,27,10
238.75,238.875,0.125,66,95,untitled,27,10
238.875,238.90104166666666,0.026041666666657193,59,95,untitled,27,10
239.0,239.02604166666666,0.026041666666657193,59,95,untitled,27,10
239.0,239.125,0.125,61,95,untitled,27,10
239.125,239.25,0.125,66,95,untitled,27,10
239.125,239.25,0.125,69,47,untitled,27,10
239.125,239.25,0.125,61,95,untitled,27,10
239.25,239.27604166666666,0.026041666666657193,50,95,untitled,27,10
239.375,239.40104166666666,0.026041666666657193,55,95,untitled,27,10
239.375,239.5,0.125,61,47,untitled,27,10
239.5,239.625,0.125,69,47,untitled,27,10
239.5,239.625,0.125,61,95,untitled,27,10
239.5,239.625,0.125,66,95,untitled,27,10
239.625,239.65104166666666,0.026041666666657193,50,95,untitled,27,10
239.75,239.77604166666666,0.026041666666657193,55,95,untitled,27,10
239.75,239.875,0.125,61,95,untitled,27,10
239.875,240.0,0.125,66,95,untitled,27,10
239.875,240.0,0.125,69,47,untitled,27,10
239.875,240.0,0.125,61,95,untitled,27,10
240.0,240.02604166666666,0.026041666666657193,50,95,untitled,27,10
240.125,240.15104166666666,0.026041666666657193,55,95,untitled,27,10
240.125,240.15104166666666,0.026041666666657193,59,95,untitled,27,10
240.125,240.25,0.125,61,95,untitled,27,10
240.25,240.5,0.25,69,95,untitled,27,10
240.25,240.5,0.25,66,95,untitled,27,10
240.25,240.5,0.25,61,95,untitled,27,10
240.5,240.52604166666666,0.026041666666657193,50,95,untitled,27,10
240.625,240.65104166666666,0.026041666666657193,50,95,untitled,27,10
240.75,240.875,0.125,59,47,untitled,27,10
240.75,240.875,0.125,64,95,untitled,27,10
240.75,240.875,0.125,68,47,untitled,27,10
240.875,240.90104166666666,0.026041666666657193,50,95,untitled,27,10
241.0,241.125,0.125,59,95,untitled,27,10
241.0,241.125,0.125,64,47,untitled,27,10
241.0,241.125,0.125,68,47,untitled,27,10
241.125,241.25,0.125,59,47,untitled,27,10
241.125,241.25,0.125,68,47,untitled,27,10
241.125,241.25,0.125,64,95,untitled,27,10
241.25,241.27604166666666,0.026041666666657193,64,95,untitled,27,10
241.375,241.5,0.125,59,47,untitled,27,10
241.375,241.5,0.125,68,47,untitled,27,10
241.375,241.5,0.125,64,95,untitled,27,10
241.5,241.52604166666666,0.026041666666657193,55,95,untitled,27,10
241.625,241.65104166666666,0.026041666666657193,64,95,untitled,27,10
241.75,241.875,0.125,59,47,untitled,27,10
241.75,241.875,0.125,64,95,untitled,27,10
241.75,241.875,0.125,68,47,untitled,27,10
241.875,241.90104166666666,0.026041666666657193,55,95,untitled,27,10
242.0,242.02604166666666,0.026041666666657193,55,95,untitled,27,10
242.125,242.15104166666666,0.026041666666657193,64,95,untitled,27,10
242.25,242.375,0.125,59,95,untitled,27,10
242.25,242.375,0.125,64,95,untitled,27,10
242.25,242.375,0.125,68,47,untitled,27,10
242.375,242.5,0.125,68,47,untitled,27,10
242.375,242.5,0.125,64,95,untitled,27,10
242.375,242.5,0.125,59,95,untitled,27,10
2.75,3.0,0.25,57,95,untitled,5,11
2.75,3.0,0.25,62,95,untitled,5,11
3.25,3.5,0.25,62,95,untitled,5,11
3.25,3.5,0.25,57,95,untitled,5,11
3.75,4.0,0.25,57,95,untitled,5,11
3.75,4.0,0.25,62,95,untitled,5,11
4.125,4.25,0.125,57,95,untitled,5,11
4.125,4.25,0.125,62,95,untitled,5,11
4.25,4.5,0.25,57,95,untitled,5,11
4.25,4.5,0.25,62,95,untitled,5,11
4.75,5.0,0.25,57,95,untitled,5,11
4.75,5.0,0.25,64,95,untitled,5,11
4.75,5.0,0.25,62,95,untitled,5,11
5.25,5.5,0.25,62,95,untitled,5,11
5.25,5.5,0.25,64,47,untitled,5,11
5.25,5.5,0.25,57,95,untitled,5,11
5.75,6.0,0.25,57,95,untitled,5,11
5.75,6.0,0.25,64,47,untitled,5,11
5.75,6.0,0.25,62,95,untitled,5,11
6.125,6.25,0.125,57,95,untitled,5,11
6.125,6.25,0.125,64,47,untitled,5,11
6.125,6.25,0.125,62,95,untitled,5,11
6.25,6.5,0.25,62,95,untitled,5,11
6.25,6.5,0.25,57,95,untitled,5,11
6.25,6.5,0.25,64,47,untitled,5,11
6.75,7.0,0.25,64,95,untitled,5,11
6.75,7.0,0.25,61,95,untitled,5,11
7.25,7.5,0.25,64,95,untitled,5,11
7.25,7.5,0.25,61,95,untitled,5,11
7.75,8.0,0.25,61,95,untitled,5,11
7.75,8.0,0.25,64,95,untitled,5,11
8.125,8.25,0.125,64,95,untitled,5,11
8.125,8.25,0.125,61,95,untitled,5,11
8.25,8.5,0.25,64,95,untitled,5,11
8.25,8.5,0.25,61,95,untitled,5,11
8.75,9.0,0.25,59,95,untitled,5,11
8.75,9.0,0.25,64,95,untitled,5,11
9.25,9.5,0.25,64,95,untitled,5,11
9.25,9.5,0.25,59,95,untitled,5,11
9.75,10.0,0.25,64,95,untitled,5,11
9.75,10.0,0.25,59,95,untitled,5,11
10.0,10.25,0.25,62,95,untitled,5,11
10.0,10.25,0.25,59,95,untitled,5,11
10.25,10.5,0.25,59,95,untitled,5,11
10.25,10.5,0.25,61,95,untitled,5,11
10.75,11.0,0.25,59,95,untitled,5,11
10.75,11.0,0.25,62,95,untitled,5,11
11.25,11.5,0.25,62,95,untitled,5,11
11.25,11.5,0.25,59,95,untitled,5,11
11.75,12.0,0.25,62,95,untitled,5,11
11.75,12.0,0.25,59,95,untitled,5,11
12.125,12.25,0.125,59,95,untitled,5,11
12.125,12.25,0.125,62,95,untitled,5,11
12.25,12.5,0.25,59,95,untitled,5,11
12.25,12.5,0.25,62,95,untitled,5,11
12.75,13.0,0.25,57,95,untitled,5,11
12.75,13.0,0.25,64,95,untitled,5,11
12.75,13.0,0.25,62,95,untitled,5,11
13.25,13.5,0.25,64,47,untitled,5,11
13.25,13.5,0.25,62,95,untitled,5,11
13.25,13.5,0.25,57,95,untitled,5,11
13.75,14.0,0.25,57,95,untitled,5,11
13.75,14.0,0.25,64,47,untitled,5,11
13.75,14.0,0.25,62,95,untitled,5,11
14.125,14.25,0.125,57,95,untitled,5,11
14.125,14.25,0.125,64,47,untitled,5,11
14.125,14.25,0.125,62,95,untitled,5,11
14.25,14.5,0.25,57,95,untitled,5,11
14.25,14.5,0.25,62,95,untitled,5,11
14.25,14.5,0.25,64,47,untitled,5,11
14.75,15.0,0.25,61,95,untitled,5,11
14.75,15.0,0.25,64,95,untitled,5,11
15.25,15.5,0.25,64,95,untitled,5,11
15.25,15.5,0.25,61,95,untitled,5,11
15.75,16.0,0.25,64,95,untitled,5,11
15.75,16.0,0.25,61,95,untitled,5,11
16.125,16.25,0.125,61,95,untitled,5,11
16.125,16.25,0.125,64,95,untitled,5,11
16.25,16.5,0.25,61,95,untitled,5,11
16.25,16.5,0.25,64,95,untitled,5,11
16.75,17.0,0.25,59,95,untitled,5,11
16.75,17.0,0.25,64,95,untitled,5,11
17.25,17.5,0.25,64,95,untitled,5,11
17.25,17.5,0.25,59,95,untitled,5,11
17.75,18.0,0.25,59,95,untitled,5,11
17.75,18.0,0.25,64,95,untitled,5,11
18.0,18.25,0.25,62,95,untitled,5,11
18.0,18.25,0.25,59,95,untitled,5,11
18.25,18.5,0.25,59,95,untitled,5,11
18.25,18.5,0.25,61,95,untitled,5,11
74.75,75.0,0.25,59,95,untitled,5,11
74.75,75.0,0.25,62,95,untitled,5,11
75.25,75.5,0.25,62,95,untitled,5,11
75.25,75.5,0.25,59,95,untitled,5,11
75.75,76.0,0.25,62,95,untitled,5,11
75.75,76.0,0.25,59,95,untitled,5,11
76.125,76.25,0.125,59,95,untitled,5,11
76.125,76.25,0.125,62,95,untitled,5,11
76.25,76.5,0.25,59,95,untitled,5,11
76.25,76.5,0.25,62,95,untitled,5,11
76.75,77.0,0.25,57,95,untitled,5,11
76.75,77.0,0.25,64,95,untitled,5,11
76.75,77.0,0.25,62,95,untitled,5,11
77.25,77.5,0.25,64,47,untitled,5,11
77.25,77.5,0.25,62,95,untitled,5,11
77.25,77.5,0.25,57,95,untitled,5,11
77.75,78.0,0.25,57,95,untitled,5,11
77.75,78.0,0.25,64,47,untitled,5,11
77.75,78.0,0.25,62,95,untitled,5,11
78.125,78.25,0.125,57,95,untitled,5,11
78.125,78.25,0.125,64,47,untitled,5,11
78.125,78.25,0.125,62,95,untitled,5,11
78.25,78.5,0.25,57,95,untitled,5,11
78.25,78.5,0.25,62,95,untitled,5,11
78.25,78.5,0.25,64,47,untitled,5,11
78.75,79.0,0.25,61,95,untitled,5,11
78.75,79.0,0.25,64,95,untitled,5,11
79.25,79.5,0.25,64,95,untitled,5,11
79.25,79.5,0.25,61,95,untitled,5,11
79.75,80.0,0.25,64,95,untitled,5,11
79.75,80.0,0.25,61,95,untitled,5,11
80.125,80.25,0.125,61,95,untitled,5,11
80.125,80.25,0.125,64,95,untitled,5,11
80.25,80.5,0.25,61,95,untitled,5,11
80.25,80.5,0.25,64,95,untitled,5,11
80.75,81.0,0.25,59,47,untitled,5,11
80.75,81.0,0.25,64,47,untitled,5,11
81.25,81.5,0.25,64,47,untitled,5,11
81.25,81.5,0.25,59,47,untitled,5,11
81.75,82.0,0.25,59,47,untitled,5,11
81.75,82.0,0.25,64,47,untitled,5,11
82.0,82.25,0.25,62,47,untitled,5,11
82.0,82.25,0.25,59,47,untitled,5,11
82.25,82.5,0.25,59,47,untitled,5,11
82.25,82.5,0.25,61,47,untitled,5,11
190.5,192.5,2.0,54,95,untitled,5,11
192.5,194.5,2.0,52,95,untitled,5,11
194.75,195.25,0.5,66,95,untitled,5,11
195.25,195.75,0.5,74,95,untitled,5,11
198.75,199.75,1.0,64,95,untitled,5,11
199.75,200.5,0.75,69,95,untitled,5,11
200.5,202.5,2.0,71,95,untitled,5,11
218.75,219.0,0.25,62,95,untitled,5,11
218.75,219.0,0.25,57,95,untitled,5,11
219.25,219.5,0.25,62,95,untitled,5,11
219.25,219.5,0.25,57,95,untitled,5,11
219.75,220.0,0.25,57,95,untitled,5,11
219.75,220.0,0.25,62,95,untitled,5,11
220.125,220.25,0.125,62,95,untitled,5,11
220.125,220.25,0.125,57,95,untitled,5,11
220.25,220.5,0.25,57,95,untitled,5,11
220.25,220.5,0.25,62,95,untitled,5,11
220.75,221.0,0.25,62,95,untitled,5,11
220.75,221.0,0.25,64,95,untitled,5,11
220.75,221.0,0.25,57,95,untitled,5,11
221.25,221.5,0.25,57,95,untitled,5,11
221.25,221.5,0.25,64,47,untitled,5,11
221.25,221.5,0.25,62,95,untitled,5,11
221.75,222.0,0.25,57,95,untitled,5,11
221.75,222.0,0.25,62,95,untitled,5,11
221.75,222.0,0.25,64,47,untitled,5,11
222.125,222.25,0.125,57,95,untitled,5,11
222.125,222.25,0.125,62,95,untitled,5,11
222.125,222.25,0.125,64,47,untitled,5,11
222.25,222.5,0.25,57,95,untitled,5,11
222.25,222.5,0.25,62,95,untitled,5,11
222.25,222.5,0.25,64,47,untitled,5,11
222.75,223.0,0.25,64,95,untitled,5,11
222.75,223.0,0.25,61,95,untitled,5,11
223.25,223.5,0.25,64,95,untitled,5,11
223.25,223.5,0.25,61,95,untitled,5,11
223.75,224.0,0.25,61,95,untitled,5,11
223.75,224.0,0.25,64,95,untitled,5,11
224.125,224.25,0.125,64,95,untitled,5,11
224.125,224.25,0.125,61,95,untitled,5,11
224.25,224.5,0.25,61,95,untitled,5,11
224.25,224.5,0.25,64,95,untitled,5,11
224.75,225.0,0.25,64,95,untitled,5,11
224.75,225.0,0.25,59,95,untitled,5,11
225.25,225.5,0.25,64,95,untitled,5,11
225.25,225.5,0.25,59,95,untitled,5,11
225.75,226.0,0.25,64,95,untitled,5,11
225.75,226.0,0.25,59,95,untitled,5,11
226.0,226.25,0.25,62,95,untitled,5,11
226.0,226.25,0.25,59,95,untitled,5,11
226.25,226.5,0.25,59,95,untitled,5,11
226.25,226.5,0.25,61,95,untitled,5,11
226.75,227.0,0.25,62,95,untitled,5,11
226.75,227.0,0.25,59,95,untitled,5,11
227.25,227.5,0.25,62,95,untitled,5,11
227.25,227.5,0.25,59,95,untitled,5,11
227.75,228.0,0.25,59,95,untitled,5,11
227.75,228.0,0.25,62,95,untitled,5,11
228.125,228.25,0.125,59,95,untitled,5,11
228.125,228.25,0.125,62,95,untitled,5,11
228.25,228.5,0.25,59,95,untitled,5,11
228.25,228.5,0.25,62,95,untitled,5,11
228.75,229.0,0.25,62,95,untitled,5,11
228.75,229.0,0.25,64,95,untitled,5,11
228.75,229.0,0.25,57,95,untitled,5,11
229.25,229.5,0.25,57,95,untitled,5,11
229.25,229.5,0.25,64,47,untitled,5,11
229.25,229.5,0.25,62,95,untitled,5,11
229.75,230.0,0.25,62,95,untitled,5,11
229.75,230.0,0.25,57,95,untitled,5,11
229.75,230.0,0.25,64,47,untitled,5,11
230.125,230.25,0.125,62,95,untitled,5,11
230.125,230.25,0.125,64,47,untitled,5,11
230.125,230.25,0.125,57,95,untitled,5,11
230.25,230.5,0.25,57,95,untitled,5,11
230.25,230.5,0.25,64,47,untitled,5,11
230.25,230.5,0.25,62,95,untitled,5,11
230.75,231.0,0.25,61,95,untitled,5,11
230.75,231.0,0.25,64,95,untitled,5,11
231.25,231.5,0.25,64,95,untitled,5,11
231.25,231.5,0.25,61,95,untitled,5,11
231.75,232.0,0.25,64,95,untitled,5,11
231.75,232.0,0.25,61,95,untitled,5,11
232.125,232.25,0.125,61,95,untitled,5,11
232.125,232.25,0.125,64,95,untitled,5,11
232.25,232.5,0.25,61,95,untitled,5,11
232.25,232.5,0.25,64,95,untitled,5,11
232.75,233.0,0.25,64,95,untitled,5,11
232.75,233.0,0.25,59,95,untitled,5,11
233.25,233.5,0.25,64,95,untitled,5,11
233.25,233.5,0.25,59,95,untitled,5,11
233.75,234.0,0.25,64,95,untitled,5,11
233.75,234.0,0.25,59,95,untitled,5,11
234.0,234.25,0.25,59,95,untitled,5,11
234.0,234.25,0.25,62,95,untitled,5,11
234.25,234.5,0.25,59,95,untitled,5,11
234.25,234.5,0.25,61,95,untitled,5,11
234.75,235.0,0.25,62,95,untitled,5,11
234.75,235.0,0.25,57,95,untitled,5,11
235.25,235.5,0.25,62,95,untitled,5,11
235.25,235.5,0.25,57,95,untitled,5,11
235.75,236.0,0.25,57,95,untitled,5,11
235.75,236.0,0.25,62,95,untitled,5,11
236.125,236.25,0.125,62,95,untitled,5,11
236.125,236.25,0.125,57,95,untitled,5,11
236.25,236.5,0.25,57,95,untitled,5,11
236.25,236.5,0.25,62,95,untitled,5,11
236.75,237.0,0.25,62,95,untitled,5,11
236.75,237.0,0.25,64,95,untitled,5,11
236.75,237.0,0.25,57,95,untitled,5,11
237.25,237.5,0.25,57,95,untitled,5,11
237.25,237.5,0.25,64,47,untitled,5,11
237.25,237.5,0.25,62,95,untitled,5,11
237.75,238.0,0.25,57,95,untitled,5,11
237.75,238.0,0.25,62,95,untitled,5,11
237.75,238.0,0.25,64,47,untitled,5,11
238.125,238.25,0.125,57,95,untitled,5,11
238.125,238.25,0.125,62,95,untitled,5,11
238.125,238.25,0.125,64,47,untitled,5,11
238.25,238.5,0.25,57,95,untitled,5,11
238.25,238.5,0.25,62,95,untitled,5,11
238.25,238.5,0.25,64,47,untitled,5,11
238.75,239.0,0.25,64,95,untitled,5,11
238.75,239.0,0.25,61,95,untitled,5,11
239.25,239.5,0.25,64,95,untitled,5,11
239.25,239.5,0.25,61,95,untitled,5,11
239.75,240.0,0.25,61,95,untitled,5,11
239.75,240.0,0.25,64,95,untitled,5,11
240.125,240.25,0.125,64,95,untitled,5,11
240.125,240.25,0.125,61,95,untitled,5,11
240.25,240.5,0.25,61,95,untitled,5,11
240.25,240.5,0.25,64,95,untitled,5,11
240.75,241.0,0.25,64,95,untitled,5,11
240.75,241.0,0.25,59,95,untitled,5,11
241.25,241.5,0.25,64,95,untitled,5,11
241.25,241.5,0.25,59,95,untitled,5,11
241.75,242.0,0.25,64,95,untitled,5,11
241.75,242.0,0.25,59,95,untitled,5,11
242.0,242.25,0.25,62,95,untitled,5,11
242.0,242.25,0.25,59,95,untitled,5,11
242.25,242.5,0.25,59,95,untitled,5,11
242.25,242.5,0.25,61,95,untitled,5,11
2.5,3.0,0.5,35,95,untitled,33,12
3.0,3.25,0.25,35,95,untitled,33,12
3.46875,3.5,0.03125,34,95,untitled,33,12
3.5,3.75,0.25,35,95,untitled,33,12
4.0,4.25,0.25,35,95,untitled,33,12
4.5,5.0,0.5,38,95,untitled,33,12
5.0,5.25,0.25,38,95,untitled,33,12
5.46875,5.5,0.03125,37,95,untitled,33,12
5.5,5.75,0.25,38,95,untitled,33,12
6.0,6.25,0.25,38,95,untitled,33,12
6.5,7.0,0.5,42,95,untitled,33,12
7.0,7.25,0.25,42,95,untitled,33,12
7.375,7.5,0.125,42,95,untitled,33,12
7.5,7.625,0.125,42,95,untitled,33,12
7.75,8.125,0.375,42,95,untitled,33,12
8.25,8.5,0.25,42,95,untitled,33,12
8.5,9.0,0.5,40,95,untitled,33,12
9.0,9.25,0.25,40,95,untitled,33,12
9.375,9.5,0.125,40,95,untitled,33,12
9.5,9.625,0.125,40,95,untitled,33,12
10.25,10.375,0.125,40,95,untitled,33,12
10.375,10.5,0.125,38,95,untitled,33,12
10.5,11.0,0.5,35,95,untitled,33,12
11.0,11.25,0.25,35,95,untitled,33,12
11.375,11.5,0.125,35,95,untitled,33,12
11.5,11.625,0.125,35,95,untitled,33,12
12.25,12.375,0.125,35,95,untitled,33,12
12.375,12.5,0.125,37,95,untitled,33,12
12.5,13.0,0.5,38,95,untitled,33,12
13.0,13.25,0.25,38,95,untitled,33,12
13.375,13.5,0.125,38,95,untitled,33,12
13.5,13.625,0.125,38,95,untitled,33,12
13.75,13.875,0.125,38,95,untitled,33,12
14.0,14.125,0.125,37,95,untitled,33,12
14.125,14.25,0.125,38,95,untitled,33,12
14.25,14.375,0.125,40,95,untitled,33,12
14.5,15.0,0.5,42,95,untitled,33,12
15.0,15.25,0.25,42,95,untitled,33,12
15.375,15.5,0.125,30,95,untitled,33,12
15.5,15.625,0.125,30,95,untitled,33,12
15.75,16.0,0.25,30,95,untitled,33,12
16.25,16.375,0.125,30,95,untitled,33,12
16.375,16.5,0.125,30,95,untitled,33,12
16.5,17.0,0.5,28,95,untitled,33,12
17.0,17.25,0.25,28,95,untitled,33,12
17.375,17.5,0.125,28,95,untitled,33,12
17.5,17.625,0.125,28,95,untitled,33,12
17.75,18.0,0.25,28,95,untitled,33,12
18.0,18.125,0.125,29,95,untitled,33,12
18.125,18.25,0.125,30,95,untitled,33,12
18.25,18.375,0.125,31,95,untitled,33,12
18.5,19.0,0.5,35,95,untitled,33,12
19.0,19.25,0.25,35,95,untitled,33,12
19.375,19.5,0.125,35,95,untitled,33,12
19.5,19.625,0.125,35,95,untitled,33,12
19.75,20.25,0.5,35,95,untitled,33,12
20.25,20.375,0.125,35,95,untitled,33,12
20.375,20.5,0.125,37,95,untitled,33,12
20.5,21.0,0.5,38,95,untitled,33,12
21.0,21.25,0.25,38,95,untitled,33,12
21.375,21.5,0.125,38,95,untitled,33,12
21.5,21.625,0.125,38,95,untitled,33,12
21.75,22.0,0.25,38,95,untitled,33,12
22.125,22.25,0.125,38,95,untitled,33,12
22.25,22.5,0.25,38,95,untitled,33,12
22.5,23.0,0.5,30,95,untitled,33,12
23.0,23.25,0.25,30,95,untitled,33,12
23.375,23.5,0.125,42,95,untitled,33,12
23.5,23.625,0.125,30,95,untitled,33,12
23.75,24.0,0.25,30,95,untitled,33,12
24.25,24.375,0.125,30,95,untitled,33,12
24.375,24.5,0.125,30,95,untitled,33,12
24.5,25.0,0.5,28,95,untitled,33,12
25.0,25.25,0.25,28,95,untitled,33,12
25.5,25.625,0.125,28,95,untitled,33,12
25.75,25.875,0.125,40,95,untitled,33,12
26.0,26.25,0.25,28,95,untitled,33,12
26.25,26.375,0.125,28,95,untitled,33,12
26.375,26.5,0.125,28,95,untitled,33,12
26.5,27.0,0.5,35,95,untitled,33,12
27.0,27.25,0.25,35,95,untitled,33,12
27.375,27.5,0.125,35,95,untitled,33,12
27.5,27.625,0.125,47,95,untitled,33,12
27.75,28.0,0.25,35,95,untitled,33,12
28.25,28.375,0.125,35,95,untitled,33,12
28.375,28.5,0.125,37,95,untitled,33,12
28.5,29.0,0.5,38,95,untitled,33,12
29.0,29.25,0.25,38,95,untitled,33,12
29.375,29.5,0.125,38,95,untitled,33,12
29.5,29.625,0.125,38,95,untitled,33,12
29.75,30.0,0.25,37,95,untitled,33,12
30.0,30.25,0.25,38,95,untitled,33,12
30.25,30.5,0.25,40,95,untitled,33,12
30.5,31.0,0.5,30,95,untitled,33,12
31.0,31.25,0.25,30,95,untitled,33,12
31.375,31.5,0.125,30,95,untitled,33,12
31.5,31.625,0.125,42,95,untitled,33,12
31.75,32.0,0.25,30,95,untitled,33,12
32.25,32.5,0.25,30,95,untitled,33,12
32.5,33.0,0.5,28,95,untitled,33,12
33.0,33.25,0.25,28,95,untitled,33,12
33.375,33.5,0.125,28,95,untitled,33,12
33.5,33.625,0.125,28,95,untitled,33,12
33.75,33.875,0.125,28,95,untitled,33,12
33.875,34.0,0.125,30,95,untitled,33,12
34.0,34.125,0.125,32,95,untitled,33,12
34.125,34.25,0.125,35,95,untitled,33,12
34.25,34.375,0.125,35,95,untitled,33,12
34.375,34.5,0.125,35,95,untitled,33,12
34.5,35.0,0.5,35,95,untitled,33,12
35.0,35.25,0.25,35,95,untitled,33,12
35.375,35.5,0.125,35,95,untitled,33,12
35.5,35.625,0.125,35,95,untitled,33,12
35.75,36.0,0.25,35,95,untitled,33,12
36.0,36.125,0.125,35,95,untitled,33,12
36.25,36.5,0.25,35,95,untitled,33,12
36.5,37.0,0.5,38,95,untitled,33,12
37.0,37.25,0.25,38,95,untitled,33,12
37.375,37.5,0.125,38,95,untitled,33,12
37.5,37.625,0.125,38,95,untitled,33,12
37.75,38.0,0.25,38,95,untitled,33,12
38.0,38.125,0.125,38,95,untitled,33,12
38.25,38.5,0.25,40,95,untitled,33,12
38.5,39.0,0.5,30,95,untitled,33,12
39.0,39.25,0.25,30,95,untitled,33,12
39.375,39.5,0.125,30,95,untitled,33,12
39.5,39.625,0.125,30,95,untitled,33,12
39.75,40.0,0.25,30,95,untitled,33,12
40.0,40.125,0.125,30,95,untitled,33,12
40.25,40.5,0.25,30,95,untitled,33,12
40.5,41.0,0.5,28,95,untitled,33,12
41.0,41.25,0.25,28,95,untitled,33,12
41.375,41.5,0.125,40,95,untitled,33,12
41.5,41.625,0.125,40,95,untitled,33,12
41.75,42.0,0.25,42,95,untitled,33,12
42.0,42.125,0.125,45,95,untitled,33,12
42.125,42.25,0.125,47,95,untitled,33,12
42.25,42.5,0.25,47,95,untitled,33,12
42.5,43.0,0.5,35,95,untitled,33,12
43.0,43.25,0.25,35,95,untitled,33,12
43.375,43.5,0.125,35,95,untitled,33,12
43.5,43.625,0.125,35,95,untitled,33,12
43.75,44.0,0.25,35,95,untitled,33,12
44.0,44.125,0.125,35,95,untitled,33,12
44.25,44.5,0.25,35,95,untitled,33,12
44.5,45.0,0.5,38,95,untitled,33,12
45.0,45.25,0.25,38,95,untitled,33,12
45.375,45.5,0.125,38,95,untitled,33,12
45.5,45.625,0.125,38,95,untitled,33,12
45.75,46.0,0.25,38,95,untitled,33,12
46.0,46.125,0.125,38,95,untitled,33,12
46.25,46.5,0.25,38,95,untitled,33,12
46.5,47.0,0.5,30,95,untitled,33,12
47.0,47.25,0.25,30,95,untitled,33,12
47.375,47.5,0.125,30,95,untitled,33,12
47.5,47.625,0.125,30,95,untitled,33,12
47.75,48.0,0.25,30,95,untitled,33,12
48.0,48.125,0.125,30,95,untitled,33,12
48.25,48.5,0.25,30,95,untitled,33,12
48.5,49.0,0.5,28,95,untitled,33,12
49.0,49.25,0.25,28,95,untitled,33,12
49.375,49.5,0.125,28,95,untitled,33,12
49.5,49.625,0.125,28,95,untitled,33,12
49.75,50.0,0.25,40,95,untitled,33,12
50.0,50.125,0.125,40,95,untitled,33,12
50.125,50.25,0.125,40,95,untitled,33,12
50.25,50.5,0.25,40,95,untitled,33,12
50.5,51.0,0.5,35,95,untitled,33,12
51.0,51.25,0.25,35,95,untitled,33,12
51.375,51.5,0.125,35,95,untitled,33,12
51.5,51.625,0.125,35,95,untitled,33,12
51.75,52.0,0.25,35,95,untitled,33,12
52.0,52.125,0.125,35,95,untitled,33,12
52.25,52.5,0.25,35,95,untitled,33,12
52.5,53.0,0.5,38,95,untitled,33,12
53.0,53.25,0.25,38,95,untitled,33,12
53.375,53.5,0.125,38,95,untitled,33,12
53.625,53.75,0.125,38,95,untitled,33,12
53.75,53.875,0.125,38,95,untitled,33,12
54.0,54.25,0.25,38,95,untitled,33,12
54.25,54.375,0.125,37,95,untitled,33,12
54.375,54.5,0.125,33,95,untitled,33,12
54.5,55.0,0.5,30,95,untitled,33,12
55.0,55.25,0.25,30,95,untitled,33,12
55.5,55.75,0.25,30,95,untitled,33,12
55.75,55.875,0.125,30,95,untitled,33,12
56.0,56.25,0.25,30,95,untitled,33,12
56.25,56.5,0.25,30,95,untitled,33,12
56.5,57.0,0.5,28,95,untitled,33,12
57.0,57.25,0.25,28,95,untitled,33,12
57.5,57.75,0.25,28,95,untitled,33,12
57.75,57.875,0.125,40,95,untitled,33,12
57.875,58.25,0.375,28,95,untitled,33,12
58.25,58.375,0.125,30,95,untitled,33,12
58.375,58.5,0.125,31,95,untitled,33,12
58.5,59.0,0.5,35,95,untitled,33,12
59.0,59.25,0.25,35,95,untitled,33,12
59.5,59.625,0.125,35,95,untitled,33,12
59.75,60.0,0.25,35,95,untitled,33,12
60.0,60.125,0.125,35,95,untitled,33,12
60.25,60.5,0.25,35,95,untitled,33,12
60.5,61.0,0.5,38,95,untitled,33,12
61.0,61.25,0.25,38,95,untitled,33,12
61.5,61.75,0.25,38,95,untitled,33,12
61.75,62.0,0.25,38,95,untitled,33,12
62.0,62.125,0.125,38,95,untitled,33,12
62.25,62.5,0.25,38,95,untitled,33,12
62.5,63.0,0.5,30,95,untitled,33,12
63.0,63.25,0.25,30,95,untitled,33,12
63.375,63.5,0.125,30,95,untitled,33,12
63.5,63.625,0.125,30,95,untitled,33,12
63.625,63.875,0.25,42,95,untitled,33,12
63.875,64.0,0.125,30,95,untitled,33,12
64.0,64.125,0.125,30,95,untitled,33,12
64.125,64.5,0.375,42,95,untitled,33,12
64.5,65.0,0.5,28,95,untitled,33,12
65.0,65.25,0.25,28,95,untitled,33,12
65.375,65.5,0.125,35,95,untitled,33,12
65.5,65.625,0.125,40,95,untitled,33,12
65.625,65.75,0.125,35,95,untitled,33,12
65.75,65.875,0.125,40,95,untitled,33,12
65.875,66.0,0.125,35,95,untitled,33,12
66.0,66.125,0.125,40,95,untitled,33,12
66.125,66.25,0.125,35,95,untitled,33,12
66.25,66.375,0.125,40,95,untitled,33,12
66.375,66.5,0.125,42,95,untitled,33,12
66.5,67.0,0.5,35,95,untitled,33,12
67.0,67.25,0.25,35,95,untitled,33,12
67.375,67.5,0.125,35,95,untitled,33,12
67.5,67.75,0.25,35,95,untitled,33,12
68.0,68.25,0.25,35,95,untitled,33,12
68.5,69.0,0.5,38,95,untitled,33,12
69.0,69.25,0.25,38,95,untitled,33,12
69.375,69.5,0.125,38,95,untitled,33,12
69.5,69.75,0.25,38,95,untitled,33,12
70.0,70.25,0.25,38,95,untitled,33,12
70.375,70.5,0.125,33,95,untitled,33,12
70.5,71.0,0.5,30,95,untitled,33,12
71.0,71.25,0.25,30,95,untitled,33,12
71.375,71.5,0.125,30,95,untitled,33,12
71.5,71.625,0.125,42,95,untitled,33,12
71.75,72.0,0.25,30,95,untitled,33,12
72.0,72.125,0.125,30,95,untitled,33,12
72.25,72.5,0.25,30,95,untitled,33,12
72.5,73.0,0.5,28,95,untitled,33,12
73.0,73.25,0.25,28,95,untitled,33,12
73.375,73.5,0.125,28,95,untitled,33,12
73.5,73.625,0.125,28,95,untitled,33,12
74.25,74.375,0.125,40,95,untitled,33,12
74.375,74.5,0.125,38,95,untitled,33,12
74.5,75.0,0.5,35,95,untitled,33,12
75.0,75.25,0.25,35,95,untitled,33,12
75.375,75.5,0.125,35,95,untitled,33,12
75.5,75.625,0.125,35,95,untitled,33,12
76.25,76.375,0.125,35,95,untitled,33,12
76.375,76.5,0.125,37,95,untitled,33,12
76.5,77.0,0.5,38,95,untitled,33,12
77.0,77.25,0.25,38,95,untitled,33,12
77.375,77.5,0.125,38,95,untitled,33,12
77.5,77.625,0.125,38,95,untitled,33,12
77.75,77.875,0.125,38,95,untitled,33,12
78.0,78.125,0.125,37,95,untitled,33,12
78.125,78.25,0.125,38,95,untitled,33,12
78.25,78.375,0.125,40,95,untitled,33,12
78.5,79.0,0.5,42,95,untitled,33,12
79.0,79.25,0.25,42,95,untitled,33,12
79.375,79.5,0.125,30,95,untitled,33,12
79.5,79.625,0.125,30,95,untitled,33,12
79.75,80.0,0.25,30,95,untitled,33,12
80.25,80.375,0.125,30,95,untitled,33,12
80.375,80.5,0.125,30,95,untitled,33,12
80.5,81.0,0.5,28,95,untitled,33,12
81.0,81.25,0.25,28,95,untitled,33,12
81.375,81.5,0.125,28,95,untitled,33,12
81.5,81.625,0.125,28,95,untitled,33,12
81.75,82.0,0.25,28,95,untitled,33,12
82.0,82.125,0.125,29,95,untitled,33,12
82.125,82.25,0.125,30,95,untitled,33,12
82.25,82.375,0.125,31,95,untitled,33,12
82.5,83.0,0.5,35,95,untitled,33,12
83.0,83.25,0.25,35,95,untitled,33,12
83.375,83.5,0.125,35,95,untitled,33,12
83.5,83.625,0.125,35,95,untitled,33,12
83.75,84.25,0.5,35,95,untitled,33,12
84.25,84.375,0.125,35,95,untitled,33,12
84.375,84.5,0.125,37,95,untitled,33,12
84.5,85.0,0.5,38,95,untitled,33,12
85.0,85.25,0.25,38,95,untitled,33,12
85.375,85.5,0.125,38,95,untitled,33,12
85.5,85.625,0.125,38,95,untitled,33,12
85.75,86.125,0.375,38,95,untitled,33,12
86.125,86.25,0.125,38,95,untitled,33,12
86.25,86.5,0.25,38,95,untitled,33,12
86.5,87.0,0.5,30,95,untitled,33,12
87.0,87.25,0.25,30,95,untitled,33,12
87.375,87.5,0.125,42,95,untitled,33,12
87.5,87.625,0.125,30,95,untitled,33,12
87.75,88.0,0.25,30,95,untitled,33,12
88.25,88.375,0.125,30,95,untitled,33,12
88.375,88.5,0.125,30,95,untitled,33,12
88.5,89.0,0.5,28,95,untitled,33,12
89.0,89.25,0.25,28,95,untitled,33,12
89.5,89.625,0.125,28,95,untitled,33,12
89.75,89.875,0.125,40,95,untitled,33,12
90.0,90.25,0.25,28,95,untitled,33,12
90.25,90.375,0.125,28,95,untitled,33,12
90.375,90.5,0.125,28,95,untitled,33,12
90.5,91.0,0.5,35,95,untitled,33,12
91.0,91.25,0.25,35,95,untitled,33,12
91.375,91.5,0.125,35,95,untitled,33,12
91.5,91.625,0.125,47,95,untitled,33,12
91.75,92.0,0.25,35,95,untitled,33,12
92.25,92.375,0.125,35,95,untitled,33,12
92.375,92.5,0.125,37,95,untitled,33,12
92.5,93.0,0.5,38,95,untitled,33,12
93.0,93.25,0.25,38,95,untitled,33,12
93.375,93.5,0.125,38,95,untitled,33,12
93.5,93.625,0.125,38,95,untitled,33,12
93.75,94.0,0.25,37,95,untitled,33,12
94.0,94.25,0.25,38,95,untitled,33,12
94.25,94.5,0.25,40,95,untitled,33,12
94.5,95.0,0.5,30,95,untitled,33,12
95.0,95.25,0.25,30,95,untitled,33,12
95.375,95.5,0.125,30,95,untitled,33,12
95.5,95.625,0.125,42,95,untitled,33,12
95.75,96.0,0.25,30,95,untitled,33,12
96.25,96.5,0.25,30,95,untitled,33,12
96.5,97.0,0.5,28,95,untitled,33,12
97.0,97.25,0.25,28,95,untitled,33,12
97.375,97.5,0.125,28,95,untitled,33,12
97.5,97.625,0.125,28,95,untitled,33,12
97.75,97.875,0.125,28,95,untitled,33,12
97.875,98.0,0.125,30,95,untitled,33,12
98.0,98.125,0.125,32,95,untitled,33,12
98.125,98.25,0.125,35,95,untitled,33,12
98.25,98.375,0.125,35,95,untitled,33,12
98.375,98.5,0.125,35,95,untitled,33,12
98.5,99.0,0.5,35,95,untitled,33,12
99.0,99.25,0.25,35,95,untitled,33,12
99.375,99.5,0.125,35,95,untitled,33,12
99.5,99.625,0.125,35,95,untitled,33,12
99.75,100.0,0.25,35,95,untitled,33,12
100.0,100.125,0.125,35,95,untitled,33,12
100.25,100.5,0.25,35,95,untitled,33,12
100.5,101.0,0.5,38,95,untitled,33,12
101.0,101.25,0.25,38,95,untitled,33,12
101.375,101.5,0.125,38,95,untitled,33,12
101.5,101.625,0.125,38,95,untitled,33,12
101.75,102.0,0.25,38,95,untitled,33,12
102.0,102.125,0.125,38,95,untitled,33,12
102.25,102.5,0.25,40,95,untitled,33,12
102.5,103.0,0.5,30,95,untitled,33,12
103.0,103.25,0.25,30,95,untitled,33,12
103.375,103.5,0.125,30,95,untitled,33,12
103.5,103.625,0.125,42,95,untitled,33,12
103.75,104.0,0.25,30,95,untitled,33,12
104.0,104.125,0.125,30,95,untitled,33,12
104.25,104.5,0.25,30,95,untitled,33,12
104.5,105.0,0.5,28,95,untitled,33,12
105.0,105.25,0.25,28,95,untitled,33,12
105.375,105.5,0.125,28,95,untitled,33,12
105.5,105.625,0.125,28,95,untitled,33,12
105.75,106.0,0.25,42,95,untitled,33,12
106.0,106.125,0.125,45,95,untitled,33,12
106.125,106.25,0.125,47,95,untitled,33,12
106.25,106.5,0.25,47,95,untitled,33,12
106.5,107.0,0.5,35,95,untitled,33,12
107.0,107.25,0.25,35,95,untitled,33,12
107.375,107.5,0.125,35,95,untitled,33,12
107.5,107.625,0.125,35,95,untitled,33,12
107.75,108.0,0.25,35,95,untitled,33,12
108.0,108.125,0.125,35,95,untitled,33,12
108.25,108.5,0.25,35,95,untitled,33,12
108.5,109.0,0.5,38,95,untitled,33,12
109.0,109.25,0.25,38,95,untitled,33,12
109.375,109.5,0.125,38,95,untitled,33,12
109.5,109.625,0.125,38,95,untitled,33,12
109.75,110.0,0.25,38,95,untitled,33,12
110.0,110.125,0.125,38,95,untitled,33,12
110.25,110.5,0.25,38,95,untitled,33,12
110.5,111.0,0.5,30,95,untitled,33,12
111.0,111.25,0.25,30,95,untitled,33,12
111.375,111.5,0.125,42,95,untitled,33,12
111.5,111.625,0.125,30,95,untitled,33,12
111.75,112.0,0.25,30,95,untitled,33,12
112.0,112.125,0.125,30,95,untitled,33,12
112.25,112.5,0.25,30,95,untitled,33,12
112.5,113.0,0.5,28,95,untitled,33,12
113.0,113.25,0.25,28,95,untitled,33,12
113.375,113.5,0.125,28,95,untitled,33,12
113.5,113.625,0.125,40,95,untitled,33,12
113.75,114.0,0.25,40,95,untitled,33,12
114.0,114.125,0.125,40,95,untitled,33,12
114.125,114.25,0.125,40,95,untitled,33,12
114.25,114.5,0.25,40,95,untitled,33,12
114.5,115.0,0.5,35,95,untitled,33,12
115.0,115.25,0.25,35,95,untitled,33,12
115.375,115.5,0.125,35,95,untitled,33,12
115.5,115.625,0.125,35,95,untitled,33,12
115.75,116.0,0.25,35,95,untitled,33,12
116.0,116.125,0.125,35,95,untitled,33,12
116.25,116.5,0.25,35,95,untitled,33,12
116.5,117.0,0.5,38,95,untitled,33,12
117.0,117.25,0.25,38,95,untitled,33,12
117.375,117.5,0.125,38,95,untitled,33,12
117.625,117.75,0.125,38,95,untitled,33,12
117.875,118.125,0.25,38,95,untitled,33,12
118.125,118.25,0.125,38,95,untitled,33,12
118.25,118.375,0.125,37,95,untitled,33,12
118.375,118.5,0.125,33,95,untitled,33,12
118.5,119.0,0.5,30,95,untitled,33,12
119.0,119.25,0.25,30,95,untitled,33,12
119.5,119.75,0.25,30,95,untitled,33,12
119.75,119.875,0.125,30,95,untitled,33,12
120.0,120.25,0.25,30,95,untitled,33,12
120.25,120.5,0.25,30,95,untitled,33,12
120.5,121.0,0.5,28,95,untitled,33,12
121.0,121.25,0.25,28,95,untitled,33,12
121.5,121.75,0.25,28,95,untitled,33,12
121.75,121.875,0.125,40,95,untitled,33,12
121.875,122.25,0.375,28,95,untitled,33,12
122.25,122.375,0.125,30,95,untitled,33,12
122.375,122.5,0.125,31,95,untitled,33,12
137.5,137.625,0.125,42,95,untitled,33,12
137.625,137.75,0.125,42,47,untitled,33,12
137.75,138.0,0.25,42,95,untitled,33,12
138.0,138.125,0.125,45,95,untitled,33,12
138.125,138.25,0.125,47,95,untitled,33,12
138.25,138.5,0.25,45,95,untitled,33,12
146.5,147.0,0.5,35,95,untitled,33,12
147.0,147.125,0.125,35,95,untitled,33,12
147.25,147.375,0.125,35,95,untitled,33,12
147.5,147.625,0.125,35,95,untitled,33,12
147.75,148.0,0.25,35,95,untitled,33,12
148.0,148.125,0.125,35,95,untitled,33,12
148.25,148.5,0.25,35,95,untitled,33,12
148.5,149.0,0.5,38,95,untitled,33,12
149.0,149.125,0.125,38,95,untitled,33,12
149.25,149.375,0.125,38,95,untitled,33,12
149.5,149.625,0.125,38,95,untitled,33,12
149.75,150.0,0.25,38,95,untitled,33,12
150.0,150.125,0.125,38,95,untitled,33,12
150.25,150.5,0.25,38,95,untitled,33,12
150.5,151.0,0.5,30,95,untitled,33,12
151.0,151.125,0.125,30,95,untitled,33,12
151.25,151.375,0.125,30,95,untitled,33,12
151.5,151.625,0.125,30,95,untitled,33,12
151.75,152.0,0.25,30,95,untitled,33,12
152.0,152.125,0.125,30,95,untitled,33,12
152.25,152.5,0.25,30,95,untitled,33,12
152.5,153.0,0.5,28,95,untitled,33,12
153.0,153.25,0.25,28,95,untitled,33,12
153.375,153.5,0.125,28,95,untitled,33,12
153.5,153.625,0.125,35,95,untitled,33,12
153.625,153.75,0.125,37,95,untitled,33,12
153.75,153.875,0.125,40,95,untitled,33,12
153.875,154.0,0.125,42,95,untitled,33,12
154.0,154.125,0.125,40,95,untitled,33,12
154.125,154.25,0.125,37,95,untitled,33,12
154.25,154.375,0.125,35,95,untitled,33,12
154.375,154.5,0.125,28,95,untitled,33,12
154.5,155.0,0.5,35,95,untitled,33,12
155.0,155.125,0.125,35,95,untitled,33,12
155.25,155.375,0.125,35,95,untitled,33,12
155.5,155.625,0.125,35,95,untitled,33,12
155.75,156.0,0.25,35,95,untitled,33,12
156.0,156.125,0.125,35,95,untitled,33,12
156.25,156.5,0.25,35,95,untitled,33,12
156.5,157.0,0.5,38,95,untitled,33,12
157.0,157.125,0.125,38,95,untitled,33,12
157.25,157.375,0.125,38,95,untitled,33,12
157.5,157.625,0.125,38,95,untitled,33,12
157.75,158.0,0.25,38,95,untitled,33,12
158.0,158.125,0.125,38,95,untitled,33,12
158.25,158.5,0.25,38,95,untitled,33,12
158.5,159.0,0.5,30,95,untitled,33,12
159.0,159.125,0.125,30,95,untitled,33,12
159.25,159.375,0.125,30,95,untitled,33,12
159.5,159.625,0.125,30,95,untitled,33,12
159.75,160.0,0.25,30,95,untitled,33,12
160.0,160.125,0.125,30,95,untitled,33,12
160.25,160.5,0.25,30,95,untitled,33,12
160.5,161.0,0.5,28,95,untitled,33,12
161.0,161.25,0.25,28,95,untitled,33,12
161.375,161.5,0.125,28,95,untitled,33,12
161.5,161.625,0.125,35,95,untitled,33,12
161.625,161.75,0.125,37,95,untitled,33,12
161.75,161.875,0.125,40,95,untitled,33,12
161.875,162.0,0.125,42,95,untitled,33,12
162.0,162.125,0.125,40,95,untitled,33,12
162.125,162.25,0.125,37,95,untitled,33,12
162.25,162.375,0.125,35,95,untitled,33,12
162.375,162.5,0.125,28,95,untitled,33,12
162.5,163.0,0.5,35,95,untitled,33,12
163.0,163.125,0.125,35,95,untitled,33,12
163.25,163.375,0.125,35,95,untitled,33,12
163.5,163.625,0.125,35,95,untitled,33,12
163.75,164.0,0.25,35,95,untitled,33,12
164.0,164.125,0.125,35,95,untitled,33,12
164.25,164.5,0.25,35,95,untitled,33,12
164.5,165.0,0.5,38,95,untitled,33,12
165.0,165.125,0.125,38,95,untitled,33,12
165.25,165.375,0.125,38,95,untitled,33,12
165.5,165.625,0.125,38,95,untitled,33,12
165.75,166.0,0.25,38,95,untitled,33,12
166.0,166.125,0.125,38,95,untitled,33,12
166.25,166.5,0.25,38,95,untitled,33,12
166.5,167.0,0.5,30,95,untitled,33,12
167.0,167.125,0.125,30,95,untitled,33,12
167.25,167.375,0.125,30,95,untitled,33,12
167.5,167.625,0.125,30,95,untitled,33,12
167.75,168.0,0.25,30,95,untitled,33,12
168.0,168.125,0.125,30,95,untitled,33,12
168.25,168.5,0.25,30,95,untitled,33,12
168.5,169.0,0.5,28,95,untitled,33,12
169.0,169.25,0.25,28,95,untitled,33,12
169.375,169.5,0.125,28,95,untitled,33,12
169.5,169.625,0.125,35,95,untitled,33,12
169.625,169.75,0.125,37,95,untitled,33,12
169.75,169.875,0.125,40,95,untitled,33,12
169.875,170.0,0.125,42,95,untitled,33,12
170.0,170.125,0.125,40,95,untitled,33,12
170.125,170.25,0.125,37,95,untitled,33,12
170.25,170.375,0.125,35,95,untitled,33,12
170.375,170.5,0.125,28,95,untitled,33,12
170.5,171.0,0.5,35,95,untitled,33,12
171.0,171.125,0.125,35,95,untitled,33,12
171.25,171.375,0.125,35,95,untitled,33,12
171.5,171.625,0.125,35,95,untitled,33,12
171.75,172.0,0.25,35,95,untitled,33,12
172.0,172.125,0.125,35,95,untitled,33,12
172.25,172.5,0.25,35,95,untitled,33,12
172.5,173.0,0.5,38,95,untitled,33,12
173.0,173.125,0.125,38,95,untitled,33,12
173.25,173.375,0.125,38,95,untitled,33,12
173.5,173.625,0.125,38,95,untitled,33,12
173.75,174.0,0.25,38,95,untitled,33,12
174.0,174.125,0.125,38,95,untitled,33,12
174.25,174.5,0.25,38,95,untitled,33,12
174.5,175.0,0.5,30,95,untitled,33,12
175.0,175.125,0.125,30,95,untitled,33,12
175.25,175.375,0.125,30,95,untitled,33,12
175.5,175.625,0.125,30,95,untitled,33,12
175.75,176.0,0.25,30,95,untitled,33,12
176.0,176.125,0.125,30,95,untitled,33,12
176.25,176.5,0.25,30,95,untitled,33,12
176.5,177.0,0.5,28,95,untitled,33,12
177.0,177.25,0.25,28,95,untitled,33,12
177.375,177.5,0.125,28,95,untitled,33,12
177.5,177.625,0.125,35,95,untitled,33,12
177.625,177.75,0.125,37,95,untitled,33,12
177.75,177.875,0.125,40,95,untitled,33,12
177.875,178.0,0.125,42,95,untitled,33,12
178.0,178.125,0.125,40,95,untitled,33,12
178.125,178.25,0.125,37,95,untitled,33,12
178.25,178.375,0.125,35,95,untitled,33,12
178.375,178.5,0.125,28,95,untitled,33,12
178.5,179.0,0.5,35,95,untitled,33,12
179.0,179.125,0.125,35,95,untitled,33,12
179.25,179.375,0.125,35,95,untitled,33,12
179.5,179.625,0.125,35,95,untitled,33,12
179.75,180.0,0.25,35,95,untitled,33,12
180.0,180.125,0.125,35,95,untitled,33,12
180.25,180.5,0.25,35,95,untitled,33,12
180.5,181.0,0.5,38,95,untitled,33,12
181.0,181.125,0.125,38,95,untitled,33,12
181.25,181.375,0.125,38,95,untitled,33,12
181.5,181.625,0.125,38,95,untitled,33,12
181.75,182.0,0.25,38,95,untitled,33,12
182.0,182.125,0.125,38,95,untitled,33,12
182.25,182.5,0.25,38,95,untitled,33,12
182.5,183.0,0.5,30,95,untitled,33,12
183.0,183.125,0.125,30,95,untitled,33,12
183.25,183.375,0.125,30,95,untitled,33,12
183.5,183.625,0.125,30,95,untitled,33,12
183.75,184.0,0.25,30,95,untitled,33,12
184.0,184.125,0.125,30,95,untitled,33,12
184.25,184.5,0.25,30,95,untitled,33,12
184.5,185.0,0.5,28,95,untitled,33,12
185.0,185.25,0.25,28,95,untitled,33,12
185.375,185.5,0.125,28,95,untitled,33,12
185.5,185.625,0.125,35,95,untitled,33,12
185.625,185.75,0.125,37,95,untitled,33,12
185.75,185.875,0.125,40,95,untitled,33,12
185.875,186.0,0.125,42,95,untitled,33,12
186.0,186.125,0.125,40,95,untitled,33,12
186.125,186.25,0.125,37,95,untitled,33,12
186.25,186.375,0.125,35,95,untitled,33,12
186.375,186.5,0.125,28,95,untitled,33,12
186.5,187.0,0.5,35,95,untitled,33,12
187.0,187.125,0.125,35,95,untitled,33,12
187.25,187.375,0.125,35,95,untitled,33,12
187.5,187.625,0.125,35,95,untitled,33,12
187.75,188.0,0.25,35,95,untitled,33,12
188.0,188.125,0.125,35,95,untitled,33,12
188.25,188.5,0.25,35,95,untitled,33,12
188.5,189.0,0.5,38,95,untitled,33,12
189.0,189.125,0.125,38,95,untitled,33,12
189.25,189.375,0.125,38,95,untitled,33,12
189.5,189.625,0.125,38,95,untitled,33,12
189.75,190.0,0.25,38,95,untitled,33,12
190.0,190.125,0.125,38,95,untitled,33,12
190.25,190.5,0.25,38,95,untitled,33,12
190.5,191.0,0.5,30,95,untitled,33,12
191.0,191.125,0.125,30,95,untitled,33,12
191.25,191.375,0.125,42,95,untitled,33,12
191.375,191.5,0.125,30,95,untitled,33,12
191.5,191.625,0.125,30,95,untitled,33,12
191.75,192.0,0.25,30,95,untitled,33,12
192.0,192.125,0.125,30,95,untitled,33,12
192.25,192.5,0.25,30,95,untitled,33,12
192.5,193.0,0.5,28,95,untitled,33,12
193.0,193.25,0.25,28,95,untitled,33,12
193.375,193.5,0.125,28,95,untitled,33,12
193.5,193.625,0.125,35,95,untitled,33,12
193.625,193.75,0.125,37,95,untitled,33,12
193.75,193.875,0.125,40,95,untitled,33,12
193.875,194.0,0.125,42,95,untitled,33,12
194.0,194.125,0.125,40,95,untitled,33,12
194.125,194.25,0.125,37,95,untitled,33,12
194.25,194.375,0.125,35,95,untitled,33,12
194.375,194.5,0.125,28,95,untitled,33,12
194.5,195.0,0.5,35,95,untitled,33,12
195.0,195.125,0.125,35,95,untitled,33,12
195.25,195.375,0.125,35,95,untitled,33,12
195.5,195.625,0.125,35,95,untitled,33,12
195.75,196.0,0.25,35,95,untitled,33,12
196.0,196.125,0.125,35,95,untitled,33,12
196.25,196.5,0.25,35,95,untitled,33,12
196.5,197.0,0.5,38,95,untitled,33,12
197.0,197.125,0.125,38,95,untitled,33,12
197.25,197.375,0.125,38,95,untitled,33,12
197.375,197.5,0.125,38,95,untitled,33,12
197.5,197.625,0.125,38,95,untitled,33,12
197.75,198.0,0.25,38,95,untitled,33,12
198.0,198.125,0.125,38,95,untitled,33,12
198.25,198.5,0.25,38,95,untitled,33,12
198.5,199.0,0.5,30,95,untitled,33,12
199.0,199.125,0.125,30,95,untitled,33,12
199.25,199.375,0.125,30,95,untitled,33,12
199.5,199.625,0.125,30,95,untitled,33,12
199.75,200.0,0.25,30,95,untitled,33,12
200.0,200.125,0.125,30,95,untitled,33,12
200.25,200.5,0.25,30,95,untitled,33,12
200.5,201.0,0.5,28,95,untitled,33,12
201.0,201.25,0.25,28,95,untitled,33,12
201.375,201.5,0.125,28,95,untitled,33,12
201.5,201.625,0.125,35,95,untitled,33,12
201.625,201.75,0.125,37,95,untitled,33,12
201.75,201.875,0.125,40,95,untitled,33,12
201.875,202.0,0.125,42,95,untitled,33,12
202.0,202.125,0.125,40,95,untitled,33,12
202.125,202.25,0.125,37,95,untitled,33,12
202.25,202.375,0.125,35,95,untitled,33,12
202.375,202.5,0.125,28,95,untitled,33,12
202.5,203.0,0.5,35,95,untitled,33,12
203.0,203.125,0.125,35,95,untitled,33,12
203.25,203.375,0.125,35,95,untitled,33,12
203.375,203.5,0.125,35,95,untitled,33,12
203.5,203.625,0.125,35,95,untitled,33,12
203.75,204.0,0.25,35,95,untitled,33,12
204.0,204.125,0.125,35,95,untitled,33,12
204.25,204.5,0.25,35,95,untitled,33,12
204.5,205.0,0.5,38,95,untitled,33,12
205.0,205.125,0.125,38,95,untitled,33,12
205.25,205.375,0.125,38,95,untitled,33,12
205.5,205.625,0.125,38,95,untitled,33,12
205.75,206.0,0.25,38,95,untitled,33,12
206.0,206.125,0.125,38,95,untitled,33,12
206.25,206.5,0.25,38,95,untitled,33,12
206.5,207.0,0.5,30,95,untitled,33,12
207.0,207.125,0.125,30,95,untitled,33,12
207.25,207.375,0.125,30,95,untitled,33,12
207.5,207.625,0.125,30,95,untitled,33,12
207.75,208.0,0.25,30,95,untitled,33,12
208.0,208.125,0.125,30,95,untitled,33,12
208.25,208.5,0.25,30,95,untitled,33,12
208.5,209.0,0.5,28,95,untitled,33,12
209.0,209.25,0.25,28,95,untitled,33,12
209.375,209.5,0.125,28,95,untitled,33,12
209.5,209.625,0.125,35,95,untitled,33,12
209.625,209.75,0.125,37,95,untitled,33,12
209.75,209.875,0.125,40,95,untitled,33,12
209.875,210.0,0.125,42,95,untitled,33,12
210.0,210.125,0.125,40,95,untitled,33,12
210.125,210.25,0.125,37,95,untitled,33,12
210.25,210.375,0.125,35,95,untitled,33,12
210.375,210.5,0.125,28,95,untitled,33,12
210.5,211.0,0.5,35,95,untitled,33,12
211.0,211.125,0.125,35,95,untitled,33,12
211.25,211.375,0.125,35,95,untitled,33,12
211.5,211.625,0.125,35,95,untitled,33,12
211.75,212.0,0.25,35,95,untitled,33,12
212.0,212.125,0.125,35,95,untitled,33,12
212.25,212.5,0.25,35,95,untitled,33,12
212.5,213.0,0.5,38,95,untitled,33,12
213.0,213.125,0.125,38,95,untitled,33,12
213.25,213.375,0.125,38,95,untitled,33,12
213.5,213.625,0.125,38,95,untitled,33,12
213.75,214.0,0.25,38,95,untitled,33,12
214.0,214.125,0.125,38,95,untitled,33,12
214.25,214.5,0.25,38,95,untitled,33,12
214.5,215.0,0.5,30,95,untitled,33,12
215.0,215.125,0.125,30,95,untitled,33,12
215.25,215.375,0.125,30,95,untitled,33,12
215.5,215.625,0.125,30,95,untitled,33,12
215.75,216.0,0.25,30,95,untitled,33,12
216.0,216.125,0.125,30,95,untitled,33,12
216.25,216.5,0.25,30,95,untitled,33,12
216.5,217.0,0.5,28,95,untitled,33,12
217.0,217.25,0.25,28,95,untitled,33,12
217.375,217.5,0.125,28,95,untitled,33,12
217.5,217.625,0.125,35,95,untitled,33,12
217.625,217.75,0.125,37,95,untitled,33,12
217.75,217.875,0.125,40,95,untitled,33,12
217.875,218.0,0.125,42,95,untitled,33,12
218.0,218.125,0.125,40,95,untitled,33,12
218.125,218.25,0.125,37,95,untitled,33,12
218.25,218.375,0.125,35,95,untitled,33,12
218.375,218.5,0.125,28,95,untitled,33,12
218.5,219.0,0.5,35,95,untitled,33,12
219.0,219.25,0.25,35,95,untitled,33,12
219.46875,219.5,0.03125,34,95,untitled,33,12
219.5,219.75,0.25,35,95,untitled,33,12
220.0,220.25,0.25,35,95,untitled,33,12
220.375,220.5,0.125,37,95,untitled,33,12
220.5,221.0,0.5,38,95,untitled,33,12
221.0,221.25,0.25,38,95,untitled,33,12
221.46875,221.5,0.03125,37,95,untitled,33,12
221.5,221.75,0.25,38,95,untitled,33,12
222.0,222.25,0.25,38,95,untitled,33,12
222.5,223.0,0.5,42,95,untitled,33,12
223.0,223.25,0.25,42,95,untitled,33,12
223.375,223.5,0.125,42,95,untitled,33,12
223.5,223.625,0.125,42,95,untitled,33,12
223.75,224.125,0.375,42,95,untitled,33,12
224.25,224.5,0.25,42,95,untitled,33,12
224.5,225.0,0.5,40,95,untitled,33,12
225.0,225.25,0.25,40,95,untitled,33,12
225.375,225.5,0.125,40,95,untitled,33,12
225.5,225.625,0.125,40,95,untitled,33,12
226.25,226.375,0.125,40,95,untitled,33,12
226.375,226.5,0.125,38,95,untitled,33,12
226.5,227.0,0.5,35,95,untitled,33,12
227.0,227.25,0.25,35,95,untitled,33,12
227.375,227.5,0.125,35,95,untitled,33,12
227.5,227.625,0.125,35,95,untitled,33,12
228.25,228.375,0.125,35,95,untitled,33,12
228.375,228.5,0.125,37,95,untitled,33,12
228.5,229.0,0.5,38,95,untitled,33,12
229.0,229.25,0.25,38,95,untitled,33,12
229.375,229.5,0.125,38,95,untitled,33,12
229.5,229.625,0.125,38,95,untitled,33,12
229.75,229.875,0.125,38,95,untitled,33,12
230.0,230.125,0.125,37,95,untitled,33,12
230.125,230.25,0.125,38,95,untitled,33,12
230.25,230.375,0.125,40,95,untitled,33,12
230.5,231.0,0.5,42,95,untitled,33,12
231.0,231.25,0.25,42,95,untitled,33,12
231.375,231.5,0.125,30,95,untitled,33,12
231.5,231.625,0.125,30,95,untitled,33,12
231.75,232.0,0.25,30,95,untitled,33,12
232.25,232.375,0.125,30,95,untitled,33,12
232.375,232.5,0.125,30,95,untitled,33,12
232.5,233.0,0.5,28,95,untitled,33,12
233.0,233.25,0.25,28,95,untitled,33,12
233.375,233.5,0.125,28,95,untitled,33,12
233.5,233.625,0.125,28,95,untitled,33,12
233.75,234.0,0.25,28,95,untitled,33,12
234.0,234.125,0.125,29,95,untitled,33,12
234.125,234.25,0.125,30,95,untitled,33,12
234.25,234.375,0.125,31,95,untitled,33,12
234.5,235.0,0.5,35,95,untitled,33,12
235.0,235.25,0.25,35,95,untitled,33,12
235.46875,235.5,0.03125,34,95,untitled,33,12
235.5,235.75,0.25,35,95,untitled,33,12
236.0,236.25,0.25,35,95,untitled,33,12
236.5,237.0,0.5,38,95,untitled,33,12
237.0,237.25,0.25,38,95,untitled,33,12
237.46875,237.5,0.03125,37,95,untitled,33,12
237.5,237.75,0.25,38,95,untitled,33,12
238.0,238.25,0.25,38,95,untitled,33,12
238.5,239.0,0.5,42,95,untitled,33,12
239.0,239.25,0.25,42,95,untitled,33,12
239.375,239.5,0.125,42,95,untitled,33,12
239.5,239.625,0.125,42,95,untitled,33,12
239.75,240.125,0.375,42,95,untitled,33,12
240.25,240.5,0.25,42,95,untitled,33,12
240.5,241.0,0.5,40,95,untitled,33,12
241.0,241.25,0.25,40,95,untitled,33,12
241.375,241.5,0.125,40,95,untitled,33,12
241.5,241.625,0.125,40,95,untitled,33,12
242.25,242.375,0.125,40,95,untitled,33,12
242.375,242.5,0.125,38,95,untitled,33,12
2.5,3.0,0.5,35,95,untitled,33,12
3.0,3.25,0.25,35,95,untitled,33,12
3.46875,3.5,0.03125,34,95,untitled,33,12
3.5,3.75,0.25,35,95,untitled,33,12
4.0,4.25,0.25,35,95,untitled,33,12
4.5,5.0,0.5,38,95,untitled,33,12
5.0,5.25,0.25,38,95,untitled,33,12
5.46875,5.5,0.03125,37,95,untitled,33,12
5.5,5.75,0.25,38,95,untitled,33,12
6.0,6.25,0.25,38,95,untitled,33,12
6.5,7.0,0.5,42,95,untitled,33,12
7.0,7.25,0.25,42,95,untitled,33,12
7.375,7.5,0.125,42,95,untitled,33,12
7.5,7.625,0.125,42,95,untitled,33,12
7.75,8.125,0.375,42,95,untitled,33,12
8.25,8.5,0.25,42,95,untitled,33,12
8.5,9.0,0.5,40,95,untitled,33,12
9.0,9.25,0.25,40,95,untitled,33,12
9.375,9.5,0.125,40,95,untitled,33,12
9.5,9.625,0.125,40,95,untitled,33,12
10.25,10.375,0.125,40,95,untitled,33,12
10.375,10.5,0.125,38,95,untitled,33,12
10.5,11.0,0.5,35,95,untitled,33,12
11.0,11.25,0.25,35,95,untitled,33,12
11.375,11.5,0.125,35,95,untitled,33,12
11.5,11.625,0.125,35,95,untitled,33,12
12.25,12.375,0.125,35,95,untitled,33,12
12.375,12.5,0.125,37,95,untitled,33,12
12.5,13.0,0.5,38,95,untitled,33,12
13.0,13.25,0.25,38,95,untitled,33,12
13.375,13.5,0.125,38,95,untitled,33,12
13.5,13.625,0.125,38,95,untitled,33,12
13.75,13.875,0.125,38,95,untitled,33,12
14.0,14.125,0.125,37,95,untitled,33,12
14.125,14.25,0.125,38,95,untitled,33,12
14.25,14.375,0.125,40,95,untitled,33,12
14.5,15.0,0.5,42,95,untitled,33,12
15.0,15.25,0.25,42,95,untitled,33,12
15.375,15.5,0.125,30,95,untitled,33,12
15.5,15.625,0.125,30,95,untitled,33,12
15.75,16.0,0.25,30,95,untitled,33,12
16.25,16.375,0.125,30,95,untitled,33,12
16.375,16.5,0.125,30,95,untitled,33,12
16.5,17.0,0.5,28,95,untitled,33,12
17.0,17.25,0.25,28,95,untitled,33,12
17.375,17.5,0.125,28,95,untitled,33,12
17.5,17.625,0.125,28,95,untitled,33,12
17.75,18.0,0.25,28,95,untitled,33,12
18.0,18.125,0.125,29,95,untitled,33,12
18.125,18.25,0.125,30,95,untitled,33,12
18.25,18.375,0.125,31,95,untitled,33,12
18.5,19.0,0.5,23,95,untitled,33,12
19.0,19.25,0.25,23,95,untitled,33,12
19.375,19.5,0.125,23,95,untitled,33,12
19.5,19.625,0.125,23,95,untitled,33,12
19.75,20.25,0.5,23,95,untitled,33,12
20.25,20.375,0.125,23,95,untitled,33,12
20.375,20.5,0.125,25,95,untitled,33,12
20.5,21.0,0.5,26,95,untitled,33,12
21.0,21.25,0.25,26,95,untitled,33,12
21.375,21.5,0.125,38,95,untitled,33,12
21.5,21.625,0.125,38,95,untitled,33,12
21.75,21.875,0.125,26,95,untitled,33,12
22.0,22.25,0.25,26,95,untitled,33,12
22.25,22.375,0.125,26,95,untitled,33,12
22.375,22.5,0.125,28,95,untitled,33,12
22.5,23.0,0.5,30,95,untitled,33,12
23.0,23.25,0.25,30,95,untitled,33,12
23.375,23.5,0.125,42,95,untitled,33,12
23.5,23.625,0.125,30,95,untitled,33,12
23.75,24.0,0.25,30,95,untitled,33,12
24.25,24.375,0.125,30,95,untitled,33,12
24.375,24.5,0.125,30,95,untitled,33,12
24.5,25.0,0.5,28,95,untitled,33,12
25.0,25.25,0.25,28,95,untitled,33,12
25.5,25.625,0.125,28,95,untitled,33,12
25.75,25.875,0.125,40,95,untitled,33,12
26.0,26.25,0.25,28,95,untitled,33,12
26.25,26.375,0.125,28,95,untitled,33,12
26.375,26.5,0.125,28,95,untitled,33,12
26.5,27.0,0.5,23,95,untitled,33,12
27.0,27.25,0.25,23,95,untitled,33,12
27.375,27.5,0.125,35,95,untitled,33,12
27.5,27.625,0.125,23,95,untitled,33,12
27.75,28.0,0.25,23,95,untitled,33,12
28.25,28.375,0.125,23,95,untitled,33,12
28.375,28.5,0.125,25,95,untitled,33,12
28.5,29.0,0.5,26,95,untitled,33,12
29.0,29.25,0.25,26,95,untitled,33,12
29.375,29.5,0.125,26,95,untitled,33,12
29.5,29.625,0.125,26,95,untitled,33,12
29.75,30.0,0.25,25,95,untitled,33,12
30.0,30.25,0.25,26,95,untitled,33,12
30.25,30.5,0.25,28,95,untitled,33,12
30.5,31.0,0.5,30,95,untitled,33,12
31.0,31.25,0.25,30,95,untitled,33,12
31.375,31.5,0.125,30,95,untitled,33,12
31.5,31.625,0.125,42,95,untitled,33,12
31.75,32.0,0.25,30,95,untitled,33,12
32.125,32.25,0.125,30,95,untitled,33,12
32.25,32.5,0.25,30,95,untitled,33,12
32.5,33.0,0.5,28,95,untitled,33,12
33.0,33.25,0.25,28,95,untitled,33,12
33.375,33.5,0.125,28,95,untitled,33,12
33.5,33.625,0.125,28,95,untitled,33,12
33.75,33.875,0.125,28,95,untitled,33,12
33.875,34.0,0.125,30,95,untitled,33,12
34.0,34.125,0.125,32,95,untitled,33,12
34.125,34.25,0.125,35,95,untitled,33,12
34.25,34.375,0.125,35,95,untitled,33,12
34.375,34.5,0.125,35,95,untitled,33,12
34.5,35.0,0.5,23,95,untitled,33,12
35.0,35.25,0.25,23,95,untitled,33,12
35.375,35.5,0.125,23,95,untitled,33,12
35.5,35.625,0.125,23,95,untitled,33,12
35.75,36.0,0.25,23,95,untitled,33,12
36.0,36.125,0.125,23,95,untitled,33,12
36.25,36.5,0.25,23,95,untitled,33,12
36.5,37.0,0.5,26,95,untitled,33,12
37.0,37.25,0.25,26,95,untitled,33,12
37.375,37.5,0.125,26,95,untitled,33,12
37.5,37.625,0.125,26,95,untitled,33,12
37.75,38.0,0.25,26,95,untitled,33,12
38.0,38.125,0.125,26,95,untitled,33,12
38.25,38.5,0.25,28,95,untitled,33,12
38.5,39.0,0.5,30,95,untitled,33,12
39.0,39.25,0.25,30,95,untitled,33,12
39.375,39.5,0.125,42,95,untitled,33,12
39.5,39.625,0.125,30,95,untitled,33,12
39.75,40.0,0.25,30,95,untitled,33,12
40.0,40.125,0.125,30,95,untitled,33,12
40.25,40.5,0.25,30,95,untitled,33,12
40.5,41.0,0.5,28,95,untitled,33,12
41.0,41.25,0.25,28,95,untitled,33,12
41.375,41.5,0.125,28,95,untitled,33,12
41.5,41.625,0.125,28,95,untitled,33,12
41.75,42.0,0.25,42,95,untitled,33,12
42.0,42.125,0.125,45,95,untitled,33,12
42.125,42.25,0.125,47,95,untitled,33,12
42.25,42.5,0.25,47,95,untitled,33,12
42.5,43.0,0.5,35,95,untitled,33,12
43.0,43.25,0.25,35,95,untitled,33,12
43.375,43.5,0.125,35,95,untitled,33,12
43.5,43.625,0.125,35,95,untitled,33,12
43.75,44.0,0.25,23,95,untitled,33,12
44.0,44.125,0.125,23,95,untitled,33,12
44.25,44.5,0.25,23,95,untitled,33,12
44.5,45.0,0.5,26,95,untitled,33,12
45.0,45.25,0.25,26,95,untitled,33,12
45.375,45.5,0.125,26,95,untitled,33,12
45.5,45.625,0.125,26,95,untitled,33,12
45.75,46.0,0.25,26,95,untitled,33,12
46.0,46.125,0.125,26,95,untitled,33,12
46.25,46.5,0.25,28,95,untitled,33,12
46.5,47.0,0.5,30,95,untitled,33,12
47.0,47.25,0.25,30,95,untitled,33,12
47.375,47.5,0.125,42,95,untitled,33,12
47.5,47.625,0.125,30,95,untitled,33,12
47.75,48.0,0.25,30,95,untitled,33,12
48.0,48.125,0.125,30,95,untitled,33,12
48.25,48.5,0.25,30,95,untitled,33,12
48.5,49.0,0.5,28,95,untitled,33,12
49.0,49.25,0.25,28,95,untitled,33,12
49.375,49.5,0.125,40,95,untitled,33,12
49.5,49.625,0.125,40,95,untitled,33,12
49.75,50.0,0.25,40,95,untitled,33,12
50.0,50.125,0.125,40,95,untitled,33,12
50.125,50.25,0.125,40,95,untitled,33,12
50.25,50.5,0.25,40,95,untitled,33,12
50.5,51.0,0.5,23,95,untitled,33,12
51.0,51.25,0.25,23,95,untitled,33,12
51.375,51.5,0.125,23,95,untitled,33,12
51.5,51.625,0.125,23,95,untitled,33,12
51.75,52.0,0.25,23,95,untitled,33,12
52.0,52.125,0.125,23,95,untitled,33,12
52.25,52.375,0.125,23,95,untitled,33,12
52.375,52.5,0.125,25,95,untitled,33,12
52.5,53.0,0.5,26,95,untitled,33,12
53.0,53.25,0.25,26,95,untitled,33,12
53.375,53.5,0.125,26,95,untitled,33,12
53.5,53.625,0.125,26,95,untitled,33,12
53.625,53.75,0.125,26,95,untitled,33,12
53.75,53.875,0.125,26,95,untitled,33,12
54.0,54.125,0.125,26,95,untitled,33,12
54.25,54.375,0.125,26,95,untitled,33,12
54.375,54.5,0.125,26,95,untitled,33,12
54.5,55.0,0.5,30,95,untitled,33,12
55.0,55.25,0.25,30,95,untitled,33,12
55.5,55.75,0.25,30,95,untitled,33,12
55.75,55.875,0.125,30,95,untitled,33,12
56.0,56.25,0.25,30,95,untitled,33,12
56.375,56.5,0.125,30,95,untitled,33,12
56.5,57.0,0.5,28,95,untitled,33,12
57.0,57.25,0.25,28,95,untitled,33,12
57.5,57.75,0.25,28,95,untitled,33,12
57.75,57.875,0.125,40,95,untitled,33,12
57.875,58.0,0.125,28,95,untitled,33,12
58.0,58.25,0.25,30,95,untitled,33,12
58.25,58.5,0.25,35,95,untitled,33,12
58.5,59.0,0.5,23,95,untitled,33,12
59.0,59.25,0.25,23,95,untitled,33,12
59.5,59.625,0.125,23,95,untitled,33,12
59.75,60.0,0.25,23,95,untitled,33,12
60.0,60.125,0.125,23,95,untitled,33,12
60.25,60.5,0.25,23,95,untitled,33,12
60.5,61.0,0.5,26,95,untitled,33,12
61.0,61.25,0.25,26,95,untitled,33,12
61.5,61.75,0.25,26,95,untitled,33,12
61.75,62.0,0.25,38,95,untitled,33,12
62.0,62.25,0.25,26,95,untitled,33,12
62.25,62.375,0.125,26,95,untitled,33,12
62.375,62.5,0.125,26,95,untitled,33,12
62.5,63.0,0.5,30,95,untitled,33,12
63.0,63.25,0.25,30,95,untitled,33,12
63.375,63.5,0.125,30,95,untitled,33,12
63.5,63.625,0.125,30,95,untitled,33,12
63.625,63.875,0.25,42,95,untitled,33,12
63.875,64.0,0.125,30,95,untitled,33,12
64.0,64.125,0.125,30,95,untitled,33,12
64.125,64.5,0.375,42,95,untitled,33,12
64.5,65.0,0.5,28,95,untitled,33,12
65.0,65.25,0.25,28,95,untitled,33,12
65.375,65.5,0.125,35,95,untitled,33,12
65.5,65.625,0.125,40,95,untitled,33,12
65.625,65.75,0.125,35,95,untitled,33,12
65.75,65.875,0.125,40,95,untitled,33,12
65.875,66.0,0.125,35,95,untitled,33,12
66.0,66.125,0.125,40,95,untitled,33,12
66.125,66.25,0.125,35,95,untitled,33,12
66.25,66.5,0.25,42,95,untitled,33,12
66.5,67.0,0.5,23,95,untitled,33,12
67.0,67.25,0.25,23,95,untitled,33,12
67.375,67.5,0.125,23,95,untitled,33,12
67.5,67.75,0.25,23,95,untitled,33,12
68.0,68.25,0.25,23,95,untitled,33,12
68.375,68.5,0.125,23,95,untitled,33,12
68.5,69.0,0.5,26,95,untitled,33,12
69.0,69.25,0.25,26,95,untitled,33,12
69.375,69.5,0.125,26,95,untitled,33,12
69.5,69.75,0.25,26,95,untitled,33,12
70.0,70.25,0.25,26,95,untitled,33,12
70.375,70.5,0.125,28,95,untitled,33,12
70.5,71.0,0.5,30,95,untitled,33,12
71.0,71.25,0.25,30,95,untitled,33,12
71.375,71.5,0.125,30,95,untitled,33,12
71.5,71.625,0.125,30,95,untitled,33,12
71.75,72.0,0.25,42,95,untitled,33,12
72.0,72.125,0.125,30,95,untitled,33,12
72.25,72.5,0.25,30,95,untitled,33,12
72.5,73.0,0.5,40,95,untitled,33,12
73.0,73.25,0.25,40,95,untitled,33,12
73.375,73.5,0.125,40,95,untitled,33,12
73.5,73.625,0.125,40,95,untitled,33,12
74.25,74.375,0.125,40,95,untitled,33,12
74.375,74.5,0.125,38,95,untitled,33,12
74.5,75.0,0.5,35,95,untitled,33,12
75.0,75.25,0.25,35,95,untitled,33,12
75.375,75.5,0.125,35,95,untitled,33,12
75.5,75.625,0.125,35,95,untitled,33,12
76.25,76.375,0.125,35,95,untitled,33,12
76.375,76.5,0.125,37,95,untitled,33,12
76.5,77.0,0.5,38,95,untitled,33,12
77.0,77.25,0.25,38,95,untitled,33,12
77.375,77.5,0.125,38,95,untitled,33,12
77.5,77.625,0.125,38,95,untitled,33,12
77.75,77.875,0.125,38,95,untitled,33,12
78.0,78.125,0.125,37,95,untitled,33,12
78.125,78.25,0.125,38,95,untitled,33,12
78.25,78.375,0.125,40,95,untitled,33,12
78.5,79.0,0.5,42,95,untitled,33,12
79.0,79.25,0.25,42,95,untitled,33,12
79.375,79.5,0.125,30,95,untitled,33,12
79.5,79.625,0.125,30,95,untitled,33,12
79.75,80.0,0.25,30,95,untitled,33,12
80.25,80.375,0.125,30,95,untitled,33,12
80.375,80.5,0.125,30,95,untitled,33,12
80.5,81.0,0.5,28,95,untitled,33,12
81.0,81.25,0.25,28,95,untitled,33,12
81.375,81.5,0.125,28,95,untitled,33,12
81.5,81.625,0.125,28,95,untitled,33,12
81.75,82.0,0.25,28,95,untitled,33,12
82.0,82.125,0.125,29,95,untitled,33,12
82.125,82.25,0.125,30,95,untitled,33,12
82.25,82.375,0.125,31,95,untitled,33,12
82.5,83.0,0.5,23,95,untitled,33,12
83.0,83.25,0.25,23,95,untitled,33,12
83.375,83.5,0.125,23,95,untitled,33,12
83.5,83.625,0.125,23,95,untitled,33,12
83.75,84.25,0.5,23,95,untitled,33,12
84.25,84.375,0.125,23,95,untitled,33,12
84.375,84.5,0.125,25,95,untitled,33,12
84.5,85.0,0.5,26,95,untitled,33,12
85.0,85.25,0.25,26,95,untitled,33,12
85.375,85.5,0.125,26,95,untitled,33,12
85.5,85.625,0.125,26,95,untitled,33,12
85.75,86.0,0.25,26,95,untitled,33,12
86.125,86.375,0.25,26,95,untitled,33,12
86.375,86.5,0.125,26,95,untitled,33,12
86.5,87.0,0.5,30,95,untitled,33,12
87.0,87.25,0.25,30,95,untitled,33,12
87.375,87.5,0.125,42,95,untitled,33,12
87.5,87.625,0.125,30,95,untitled,33,12
87.75,88.0,0.25,30,95,untitled,33,12
88.25,88.375,0.125,30,95,untitled,33,12
88.375,88.5,0.125,30,95,untitled,33,12
88.5,89.0,0.5,28,95,untitled,33,12
89.0,89.25,0.25,28,95,untitled,33,12
89.5,89.625,0.125,28,95,untitled,33,12
89.75,89.875,0.125,40,95,untitled,33,12
90.0,90.25,0.25,28,95,untitled,33,12
90.25,90.375,0.125,28,95,untitled,33,12
90.375,90.5,0.125,28,95,untitled,33,12
90.5,91.0,0.5,23,95,untitled,33,12
91.0,91.25,0.25,23,95,untitled,33,12
91.375,91.5,0.125,23,95,untitled,33,12
91.5,91.625,0.125,35,95,untitled,33,12
91.75,92.0,0.25,23,95,untitled,33,12
92.25,92.375,0.125,23,95,untitled,33,12
92.375,92.5,0.125,25,95,untitled,33,12
92.5,93.0,0.5,26,95,untitled,33,12
93.0,93.25,0.25,26,95,untitled,33,12
93.375,93.5,0.125,26,95,untitled,33,12
93.5,93.625,0.125,26,95,untitled,33,12
93.75,94.0,0.25,25,95,untitled,33,12
94.0,94.25,0.25,26,95,untitled,33,12
94.25,94.5,0.25,28,95,untitled,33,12
94.5,95.0,0.5,30,95,untitled,33,12
95.0,95.25,0.25,30,95,untitled,33,12
95.375,95.5,0.125,30,95,untitled,33,12
95.5,95.625,0.125,42,95,untitled,33,12
95.75,96.0,0.25,30,95,untitled,33,12
96.25,96.5,0.25,30,95,untitled,33,12
96.5,97.0,0.5,28,95,untitled,33,12
97.0,97.25,0.25,28,95,untitled,33,12
97.375,97.5,0.125,28,95,untitled,33,12
97.5,97.625,0.125,28,95,untitled,33,12
97.75,97.875,0.125,28,95,untitled,33,12
97.875,98.0,0.125,30,95,untitled,33,12
98.0,98.125,0.125,32,95,untitled,33,12
98.125,98.25,0.125,35,95,untitled,33,12
98.25,98.375,0.125,35,95,untitled,33,12
98.375,98.5,0.125,35,95,untitled,33,12
98.5,99.0,0.5,35,95,untitled,33,12
99.0,99.25,0.25,35,95,untitled,33,12
99.375,99.5,0.125,35,95,untitled,33,12
99.5,99.625,0.125,23,95,untitled,33,12
99.75,100.0,0.25,23,95,untitled,33,12
100.0,100.125,0.125,23,95,untitled,33,12
100.25,100.5,0.25,23,95,untitled,33,12
100.5,101.0,0.5,26,95,untitled,33,12
101.0,101.25,0.25,26,95,untitled,33,12
101.375,101.5,0.125,26,95,untitled,33,12
101.5,101.625,0.125,26,95,untitled,33,12
101.75,102.0,0.25,26,95,untitled,33,12
102.0,102.125,0.125,26,95,untitled,33,12
102.25,102.5,0.25,28,95,untitled,33,12
102.5,103.0,0.5,30,95,untitled,33,12
103.0,103.25,0.25,30,95,untitled,33,12
103.375,103.5,0.125,30,95,untitled,33,12
103.5,103.625,0.125,42,95,untitled,33,12
103.75,104.0,0.25,30,95,untitled,33,12
104.0,104.125,0.125,30,95,untitled,33,12
104.25,104.5,0.25,30,95,untitled,33,12
104.5,105.0,0.5,28,95,untitled,33,12
105.0,105.25,0.25,28,95,untitled,33,12
105.375,105.5,0.125,28,95,untitled,33,12
105.5,105.625,0.125,28,95,untitled,33,12
105.75,106.0,0.25,42,95,untitled,33,12
106.0,106.125,0.125,45,95,untitled,33,12
106.125,106.25,0.125,47,95,untitled,33,12
106.25,106.5,0.25,47,95,untitled,33,12
106.5,107.0,0.5,35,95,untitled,33,12
107.0,107.25,0.25,35,95,untitled,33,12
107.375,107.5,0.125,35,95,untitled,33,12
107.5,107.625,0.125,35,95,untitled,33,12
107.75,108.0,0.25,23,95,untitled,33,12
108.0,108.125,0.125,23,95,untitled,33,12
108.25,108.5,0.25,23,95,untitled,33,12
108.5,109.0,0.5,26,95,untitled,33,12
109.0,109.25,0.25,26,95,untitled,33,12
109.375,109.5,0.125,26,95,untitled,33,12
109.5,109.625,0.125,38,95,untitled,33,12
109.75,110.0,0.25,26,95,untitled,33,12
110.0,110.125,0.125,26,95,untitled,33,12
110.25,110.5,0.25,26,95,untitled,33,12
110.5,111.0,0.5,30,95,untitled,33,12
111.0,111.25,0.25,30,95,untitled,33,12
111.375,111.5,0.125,42,95,untitled,33,12
111.5,111.625,0.125,30,95,untitled,33,12
111.75,112.0,0.25,30,95,untitled,33,12
112.0,112.125,0.125,30,95,untitled,33,12
112.25,112.5,0.25,30,95,untitled,33,12
112.5,113.0,0.5,28,95,untitled,33,12
113.0,113.25,0.25,28,95,untitled,33,12
113.375,113.5,0.125,28,95,untitled,33,12
113.5,113.625,0.125,40,95,untitled,33,12
113.75,114.0,0.25,40,95,untitled,33,12
114.0,114.125,0.125,40,95,untitled,33,12
114.125,114.25,0.125,40,95,untitled,33,12
114.25,114.5,0.25,40,95,untitled,33,12
114.5,115.0,0.5,35,95,untitled,33,12
115.0,115.25,0.25,35,95,untitled,33,12
115.375,115.5,0.125,35,95,untitled,33,12
115.5,115.625,0.125,35,95,untitled,33,12
115.75,116.0,0.25,23,95,untitled,33,12
116.0,116.125,0.125,23,95,untitled,33,12
116.125,116.25,0.125,23,95,untitled,33,12
116.25,116.5,0.25,23,95,untitled,33,12
116.5,117.0,0.5,26,95,untitled,33,12
117.0,117.25,0.25,26,95,untitled,33,12
117.375,117.5,0.125,26,95,untitled,33,12
117.625,117.75,0.125,26,95,untitled,33,12
117.75,117.875,0.125,26,95,untitled,33,12
118.0,118.125,0.125,26,95,untitled,33,12
118.25,118.5,0.25,26,95,untitled,33,12
118.5,119.0,0.5,30,95,untitled,33,12
119.0,119.25,0.25,30,95,untitled,33,12
119.5,119.75,0.25,30,95,untitled,33,12
119.75,119.875,0.125,30,95,untitled,33,12
120.0,120.25,0.25,30,95,untitled,33,12
120.25,120.5,0.25,30,95,untitled,33,12
120.5,121.0,0.5,28,95,untitled,33,12
121.0,121.25,0.25,28,95,untitled,33,12
121.5,121.75,0.25,28,95,untitled,33,12
121.75,121.875,0.125,40,95,untitled,33,12
121.875,122.25,0.375,28,95,untitled,33,12
122.25,122.375,0.125,30,95,untitled,33,12
122.375,122.5,0.125,31,95,untitled,33,12
137.5,137.625,0.125,42,95,untitled,33,12
137.625,137.75,0.125,42,47,untitled,33,12
137.75,138.0,0.25,42,95,untitled,33,12
138.0,138.125,0.125,45,95,untitled,33,12
138.125,138.25,0.125,47,95,untitled,33,12
138.25,138.5,0.25,45,95,untitled,33,12
146.5,147.0,0.5,23,95,untitled,33,12
147.0,147.125,0.125,23,95,untitled,33,12
147.25,147.375,0.125,23,95,untitled,33,12
147.5,147.625,0.125,23,95,untitled,33,12
147.75,148.0,0.25,23,95,untitled,33,12
148.0,148.125,0.125,23,95,untitled,33,12
148.25,148.5,0.25,23,95,untitled,33,12
148.5,149.0,0.5,26,95,untitled,33,12
149.0,149.125,0.125,26,95,untitled,33,12
149.25,149.375,0.125,26,95,untitled,33,12
149.5,149.625,0.125,26,95,untitled,33,12
149.75,150.0,0.25,26,95,untitled,33,12
150.0,150.125,0.125,26,95,untitled,33,12
150.25,150.5,0.25,26,95,untitled,33,12
150.5,151.0,0.5,30,95,untitled,33,12
151.0,151.125,0.125,30,95,untitled,33,12
151.25,151.375,0.125,30,95,untitled,33,12
151.5,151.625,0.125,30,95,untitled,33,12
151.75,152.0,0.25,30,95,untitled,33,12
152.0,152.125,0.125,30,95,untitled,33,12
152.25,152.5,0.25,30,95,untitled,33,12
152.5,153.0,0.5,28,95,untitled,33,12
153.0,153.25,0.25,28,95,untitled,33,12
153.375,153.5,0.125,28,95,untitled,33,12
153.5,153.625,0.125,35,95,untitled,33,12
153.625,153.75,0.125,37,95,untitled,33,12
153.75,153.875,0.125,40,95,untitled,33,12
153.875,154.0,0.125,42,95,untitled,33,12
154.0,154.125,0.125,40,95,untitled,33,12
154.125,154.25,0.125,37,95,untitled,33,12
154.25,154.375,0.125,35,95,untitled,33,12
154.375,154.5,0.125,28,95,untitled,33,12
154.5,155.0,0.5,23,95,untitled,33,12
155.0,155.125,0.125,23,95,untitled,33,12
155.25,155.375,0.125,23,95,untitled,33,12
155.5,155.625,0.125,23,95,untitled,33,12
155.75,156.0,0.25,23,95,untitled,33,12
156.0,156.125,0.125,23,95,untitled,33,12
156.25,156.5,0.25,23,95,untitled,33,12
156.5,157.0,0.5,26,95,untitled,33,12
157.0,157.125,0.125,26,95,untitled,33,12
157.25,157.375,0.125,26,95,untitled,33,12
157.5,157.625,0.125,26,95,untitled,33,12
157.75,158.0,0.25,26,95,untitled,33,12
158.0,158.125,0.125,26,95,untitled,33,12
158.25,158.5,0.25,26,95,untitled,33,12
158.5,159.0,0.5,30,95,untitled,33,12
159.0,159.125,0.125,30,95,untitled,33,12
159.25,159.375,0.125,30,95,untitled,33,12
159.5,159.625,0.125,30,95,untitled,33,12
159.75,160.0,0.25,30,95,untitled,33,12
160.0,160.125,0.125,30,95,untitled,33,12
160.25,160.5,0.25,30,95,untitled,33,12
160.5,161.0,0.5,28,95,untitled,33,12
161.0,161.25,0.25,28,95,untitled,33,12
161.375,161.5,0.125,28,95,untitled,33,12
161.5,161.625,0.125,35,95,untitled,33,12
161.625,161.75,0.125,37,95,untitled,33,12
161.75,161.875,0.125,40,95,untitled,33,12
161.875,162.0,0.125,42,95,untitled,33,12
162.0,162.125,0.125,40,95,untitled,33,12
162.125,162.25,0.125,37,95,untitled,33,12
162.25,162.375,0.125,35,95,untitled,33,12
162.375,162.5,0.125,28,95,untitled,33,12
162.5,163.0,0.5,23,95,untitled,33,12
163.0,163.125,0.125,23,95,untitled,33,12
163.25,163.375,0.125,23,95,untitled,33,12
163.5,163.625,0.125,23,95,untitled,33,12
163.75,164.0,0.25,23,95,untitled,33,12
164.0,164.125,0.125,23,95,untitled,33,12
164.25,164.5,0.25,23,95,untitled,33,12
164.5,165.0,0.5,26,95,untitled,33,12
165.0,165.125,0.125,26,95,untitled,33,12
165.25,165.375,0.125,26,95,untitled,33,12
165.5,165.625,0.125,26,95,untitled,33,12
165.75,166.0,0.25,26,95,untitled,33,12
166.0,166.125,0.125,26,95,untitled,33,12
166.25,166.5,0.25,26,95,untitled,33,12
166.5,167.0,0.5,30,95,untitled,33,12
167.0,167.125,0.125,30,95,untitled,33,12
167.25,167.375,0.125,30,95,untitled,33,12
167.5,167.625,0.125,30,95,untitled,33,12
167.75,168.0,0.25,30,95,untitled,33,12
168.0,168.125,0.125,30,95,untitled,33,12
168.25,168.5,0.25,30,95,untitled,33,12
168.5,169.0,0.5,28,95,untitled,33,12
169.0,169.25,0.25,28,95,untitled,33,12
169.375,169.5,0.125,28,95,untitled,33,12
169.5,169.625,0.125,35,95,untitled,33,12
169.625,169.75,0.125,37,95,untitled,33,12
169.75,169.875,0.125,40,95,untitled,33,12
169.875,170.0,0.125,42,95,untitled,33,12
170.0,170.125,0.125,40,95,untitled,33,12
170.125,170.25,0.125,37,95,untitled,33,12
170.25,170.375,0.125,35,95,untitled,33,12
170.375,170.5,0.125,28,95,untitled,33,12
170.5,171.0,0.5,23,95,untitled,33,12
171.0,171.125,0.125,23,95,untitled,33,12
171.25,171.375,0.125,23,95,untitled,33,12
171.5,171.625,0.125,23,95,untitled,33,12
171.75,172.0,0.25,23,95,untitled,33,12
172.0,172.125,0.125,23,95,untitled,33,12
172.25,172.5,0.25,23,95,untitled,33,12
172.5,173.0,0.5,26,95,untitled,33,12
173.0,173.125,0.125,26,95,untitled,33,12
173.25,173.375,0.125,26,95,untitled,33,12
173.5,173.625,0.125,26,95,untitled,33,12
173.75,174.0,0.25,26,95,untitled,33,12
174.0,174.125,0.125,26,95,untitled,33,12
174.25,174.5,0.25,26,95,untitled,33,12
174.5,175.0,0.5,30,95,untitled,33,12
175.0,175.125,0.125,30,95,untitled,33,12
175.25,175.375,0.125,30,95,untitled,33,12
175.5,175.625,0.125,30,95,untitled,33,12
175.75,176.0,0.25,30,95,untitled,33,12
176.0,176.125,0.125,30,95,untitled,33,12
176.25,176.5,0.25,30,95,untitled,33,12
176.5,177.0,0.5,28,95,untitled,33,12
177.0,177.25,0.25,28,95,untitled,33,12
177.375,177.5,0.125,28,95,untitled,33,12
177.5,177.625,0.125,35,95,untitled,33,12
177.625,177.75,0.125,37,95,untitled,33,12
177.75,177.875,0.125,40,95,untitled,33,12
177.875,178.0,0.125,42,95,untitled,33,12
178.0,178.125,0.125,40,95,untitled,33,12
178.125,178.25,0.125,37,95,untitled,33,12
178.25,178.375,0.125,35,95,untitled,33,12
178.375,178.5,0.125,28,95,untitled,33,12
178.5,179.0,0.5,23,95,untitled,33,12
179.0,179.125,0.125,23,95,untitled,33,12
179.25,179.375,0.125,23,95,untitled,33,12
179.5,179.625,0.125,23,95,untitled,33,12
179.75,180.0,0.25,23,95,untitled,33,12
180.0,180.125,0.125,23,95,untitled,33,12
180.25,180.5,0.25,23,95,untitled,33,12
180.5,181.0,0.5,26,95,untitled,33,12
181.0,181.125,0.125,26,95,untitled,33,12
181.25,181.375,0.125,26,95,untitled,33,12
181.5,181.625,0.125,26,95,untitled,33,12
181.75,182.0,0.25,26,95,untitled,33,12
182.0,182.125,0.125,26,95,untitled,33,12
182.25,182.5,0.25,26,95,untitled,33,12
182.5,183.0,0.5,30,95,untitled,33,12
183.0,183.125,0.125,30,95,untitled,33,12
183.25,183.375,0.125,30,95,untitled,33,12
183.5,183.625,0.125,30,95,untitled,33,12
183.75,184.0,0.25,30,95,untitled,33,12
184.0,184.125,0.125,30,95,untitled,33,12
184.25,184.5,0.25,30,95,untitled,33,12
184.5,185.0,0.5,28,95,untitled,33,12
185.0,185.25,0.25,28,95,untitled,33,12
185.375,185.5,0.125,28,95,untitled,33,12
185.5,185.625,0.125,35,95,untitled,33,12
185.625,185.75,0.125,37,95,untitled,33,12
185.75,185.875,0.125,40,95,untitled,33,12
185.875,186.0,0.125,42,95,untitled,33,12
186.0,186.125,0.125,40,95,untitled,33,12
186.125,186.25,0.125,37,95,untitled,33,12
186.25,186.375,0.125,35,95,untitled,33,12
186.375,186.5,0.125,28,95,untitled,33,12
186.5,187.0,0.5,23,95,untitled,33,12
187.0,187.125,0.125,23,95,untitled,33,12
187.25,187.375,0.125,35,95,untitled,33,12
187.375,187.5,0.125,35,95,untitled,33,12
187.5,187.625,0.125,23,95,untitled,33,12
187.75,188.0,0.25,23,95,untitled,33,12
188.0,188.125,0.125,23,95,untitled,33,12
188.25,188.375,0.125,23,95,untitled,33,12
188.375,188.5,0.125,25,95,untitled,33,12
188.5,189.0,0.5,26,95,untitled,33,12
189.0,189.125,0.125,26,95,untitled,33,12
189.25,189.375,0.125,26,95,untitled,33,12
189.5,189.625,0.125,26,95,untitled,33,12
189.75,190.0,0.25,26,95,untitled,33,12
190.0,190.125,0.125,26,95,untitled,33,12
190.25,190.5,0.25,26,95,untitled,33,12
190.5,191.0,0.5,30,95,untitled,33,12
191.0,191.125,0.125,30,95,untitled,33,12
191.25,191.375,0.125,42,95,untitled,33,12
191.375,191.5,0.125,30,95,untitled,33,12
191.5,191.625,0.125,30,95,untitled,33,12
191.75,192.0,0.25,30,95,untitled,33,12
192.0,192.125,0.125,30,95,untitled,33,12
192.25,192.5,0.25,30,95,untitled,33,12
192.5,193.0,0.5,28,95,untitled,33,12
193.0,193.25,0.25,28,95,untitled,33,12
193.375,193.5,0.125,28,95,untitled,33,12
193.5,193.625,0.125,35,95,untitled,33,12
193.625,193.75,0.125,37,95,untitled,33,12
193.75,193.875,0.125,40,95,untitled,33,12
193.875,194.0,0.125,42,95,untitled,33,12
194.0,194.125,0.125,40,95,untitled,33,12
194.125,194.25,0.125,37,95,untitled,33,12
194.25,194.375,0.125,35,95,untitled,33,12
194.375,194.5,0.125,28,95,untitled,33,12
194.5,195.0,0.5,23,95,untitled,33,12
195.0,195.125,0.125,23,95,untitled,33,12
195.25,195.375,0.125,35,95,untitled,33,12
195.375,195.5,0.125,35,95,untitled,33,12
195.5,195.625,0.125,23,95,untitled,33,12
195.75,196.0,0.25,23,95,untitled,33,12
196.0,196.125,0.125,23,95,untitled,33,12
196.25,196.375,0.125,23,95,untitled,33,12
196.375,196.5,0.125,25,95,untitled,33,12
196.5,197.0,0.5,26,95,untitled,33,12
197.0,197.125,0.125,26,95,untitled,33,12
197.25,197.375,0.125,38,95,untitled,33,12
197.375,197.5,0.125,26,95,untitled,33,12
197.5,197.625,0.125,26,95,untitled,33,12
197.75,198.0,0.25,26,95,untitled,33,12
198.0,198.125,0.125,26,95,untitled,33,12
198.25,198.5,0.25,26,95,untitled,33,12
198.5,199.0,0.5,30,95,untitled,33,12
199.0,199.125,0.125,30,95,untitled,33,12
199.25,199.375,0.125,42,95,untitled,33,12
199.375,199.5,0.125,30,95,untitled,33,12
199.5,199.625,0.125,30,95,untitled,33,12
199.75,200.0,0.25,30,95,untitled,33,12
200.0,200.125,0.125,30,95,untitled,33,12
200.25,200.5,0.25,30,95,untitled,33,12
200.5,201.0,0.5,28,95,untitled,33,12
201.0,201.25,0.25,28,95,untitled,33,12
201.375,201.5,0.125,28,95,untitled,33,12
201.5,201.625,0.125,35,95,untitled,33,12
201.625,201.75,0.125,37,95,untitled,33,12
201.75,201.875,0.125,40,95,untitled,33,12
201.875,202.0,0.125,42,95,untitled,33,12
202.0,202.125,0.125,40,95,untitled,33,12
202.125,202.25,0.125,37,95,untitled,33,12
202.25,202.375,0.125,35,95,untitled,33,12
202.375,202.5,0.125,28,95,untitled,33,12
202.5,203.0,0.5,23,95,untitled,33,12
203.0,203.125,0.125,23,95,untitled,33,12
203.25,203.375,0.125,35,95,untitled,33,12
203.375,203.5,0.125,35,95,untitled,33,12
203.5,203.625,0.125,23,95,untitled,33,12
203.75,204.0,0.25,23,95,untitled,33,12
204.0,204.125,0.125,23,95,untitled,33,12
204.25,204.375,0.125,23,95,untitled,33,12
204.375,204.5,0.125,25,95,untitled,33,12
204.5,205.0,0.5,26,95,untitled,33,12
205.0,205.125,0.125,26,95,untitled,33,12
205.25,205.375,0.125,38,95,untitled,33,12
205.375,205.5,0.125,26,95,untitled,33,12
205.5,205.625,0.125,26,95,untitled,33,12
205.75,206.0,0.25,26,95,untitled,33,12
206.0,206.125,0.125,26,95,untitled,33,12
206.25,206.5,0.25,26,95,untitled,33,12
206.5,207.0,0.5,30,95,untitled,33,12
207.0,207.125,0.125,30,95,untitled,33,12
207.25,207.375,0.125,42,95,untitled,33,12
207.375,207.5,0.125,30,95,untitled,33,12
207.5,207.625,0.125,30,95,untitled,33,12
207.75,208.0,0.25,30,95,untitled,33,12
208.0,208.125,0.125,30,95,untitled,33,12
208.25,208.5,0.25,30,95,untitled,33,12
208.5,209.0,0.5,28,95,untitled,33,12
209.0,209.25,0.25,28,95,untitled,33,12
209.375,209.5,0.125,28,95,untitled,33,12
209.5,209.625,0.125,35,95,untitled,33,12
209.625,209.75,0.125,37,95,untitled,33,12
209.75,209.875,0.125,40,95,untitled,33,12
209.875,210.0,0.125,42,95,untitled,33,12
210.0,210.125,0.125,40,95,untitled,33,12
210.125,210.25,0.125,37,95,untitled,33,12
210.25,210.375,0.125,35,95,untitled,33,12
210.375,210.5,0.125,28,95,untitled,33,12
210.5,211.0,0.5,23,95,untitled,33,12
211.0,211.125,0.125,23,95,untitled,33,12
211.25,211.375,0.125,35,95,untitled,33,12
211.375,211.5,0.125,35,95,untitled,33,12
211.5,211.625,0.125,23,95,untitled,33,12
211.75,212.0,0.25,23,95,untitled,33,12
212.0,212.125,0.125,23,95,untitled,33,12
212.25,212.375,0.125,23,95,untitled,33,12
212.375,212.5,0.125,25,95,untitled,33,12
212.5,213.0,0.5,26,95,untitled,33,12
213.0,213.125,0.125,26,95,untitled,33,12
213.25,213.375,0.125,38,95,untitled,33,12
213.375,213.5,0.125,26,95,untitled,33,12
213.5,213.625,0.125,26,95,untitled,33,12
213.75,214.0,0.25,26,95,untitled,33,12
214.0,214.125,0.125,26,95,untitled,33,12
214.25,214.5,0.25,26,95,untitled,33,12
214.5,215.0,0.5,30,95,untitled,33,12
215.0,215.125,0.125,30,95,untitled,33,12
215.25,215.375,0.125,42,95,untitled,33,12
215.375,215.5,0.125,30,95,untitled,33,12
215.5,215.625,0.125,30,95,untitled,33,12
215.75,216.0,0.25,30,95,untitled,33,12
216.0,216.125,0.125,30,95,untitled,33,12
216.25,216.5,0.25,30,95,untitled,33,12
216.5,217.0,0.5,28,95,untitled,33,12
217.0,217.25,0.25,28,95,untitled,33,12
217.375,217.5,0.125,28,95,untitled,33,12
217.5,217.625,0.125,40,95,untitled,33,12
217.625,217.75,0.125,42,95,untitled,33,12
217.75,218.0,0.25,42,95,untitled,33,12
218.0,218.125,0.125,45,95,untitled,33,12
218.125,218.25,0.125,47,95,untitled,33,12
218.25,218.5,0.25,45,95,untitled,33,12
218.5,219.0,0.5,35,95,untitled,33,12
219.0,219.25,0.25,35,95,untitled,33,12
219.46875,219.5,0.03125,34,95,untitled,33,12
219.5,219.75,0.25,35,95,untitled,33,12
220.0,220.25,0.25,35,95,untitled,33,12
220.375,220.5,0.125,37,95,untitled,33,12
220.5,221.0,0.5,38,95,untitled,33,12
221.0,221.25,0.25,38,95,untitled,33,12
221.46875,221.5,0.03125,37,95,untitled,33,12
221.5,221.75,0.25,38,95,untitled,33,12
222.0,222.25,0.25,38,95,untitled,33,12
222.5,223.0,0.5,42,95,untitled,33,12
223.0,223.25,0.25,42,95,untitled,33,12
223.375,223.5,0.125,42,95,untitled,33,12
223.5,223.625,0.125,42,95,untitled,33,12
223.75,224.125,0.375,42,95,untitled,33,12
224.25,224.5,0.25,42,95,untitled,33,12
224.5,225.0,0.5,40,95,untitled,33,12
225.0,225.25,0.25,40,95,untitled,33,12
225.375,225.5,0.125,40,95,untitled,33,12
225.5,225.625,0.125,40,95,untitled,33,12
226.25,226.375,0.125,40,95,untitled,33,12
226.375,226.5,0.125,38,95,untitled,33,12
226.5,227.0,0.5,35,95,untitled,33,12
227.0,227.25,0.25,35,95,untitled,33,12
227.375,227.5,0.125,35,95,untitled,33,12
227.5,227.625,0.125,35,95,untitled,33,12
228.25,228.375,0.125,35,95,untitled,33,12
228.375,228.5,0.125,37,95,untitled,33,12
228.5,229.0,0.5,38,95,untitled,33,12
229.0,229.25,0.25,38,95,untitled,33,12
229.375,229.5,0.125,38,95,untitled,33,12
229.5,229.625,0.125,38,95,untitled,33,12
229.75,229.875,0.125,38,95,untitled,33,12
230.0,230.125,0.125,37,95,untitled,33,12
230.125,230.25,0.125,38,95,untitled,33,12
230.25,230.375,0.125,40,95,untitled,33,12
230.5,231.0,0.5,42,95,untitled,33,12
231.0,231.25,0.25,42,95,untitled,33,12
231.375,231.5,0.125,30,95,untitled,33,12
231.5,231.625,0.125,30,95,untitled,33,12
231.75,232.0,0.25,30,95,untitled,33,12
232.25,232.375,0.125,30,95,untitled,33,12
232.375,232.5,0.125,30,95,untitled,33,12
232.5,233.0,0.5,28,95,untitled,33,12
233.0,233.25,0.25,28,95,untitled,33,12
233.375,233.5,0.125,28,95,untitled,33,12
233.5,233.625,0.125,28,95,untitled,33,12
233.75,234.0,0.25,28,95,untitled,33,12
234.0,234.125,0.125,29,95,untitled,33,12
234.125,234.25,0.125,30,95,untitled,33,12
234.25,234.375,0.125,31,95,untitled,33,12
234.5,235.0,0.5,35,95,untitled,33,12
235.0,235.25,0.25,35,95,untitled,33,12
235.46875,235.5,0.03125,34,95,untitled,33,12
235.5,235.75,0.25,35,95,untitled,33,12
236.0,236.25,0.25,35,95,untitled,33,12
236.5,237.0,0.5,38,95,untitled,33,12
237.0,237.25,0.25,38,95,untitled,33,12
237.46875,237.5,0.03125,37,95,untitled,33,12
237.5,237.75,0.25,38,95,untitled,33,12
238.0,238.25,0.25,38,95,untitled,33,12
238.5,239.0,0.5,42,95,untitled,33,12
239.0,239.25,0.25,42,95,untitled,33,12
239.375,239.5,0.125,42,95,untitled,33,12
239.5,239.625,0.125,42,95,untitled,33,12
239.75,240.125,0.375,42,95,untitled,33,12
240.25,240.5,0.25,42,95,untitled,33,12
240.5,241.0,0.5,40,95,untitled,33,12
241.0,241.25,0.25,40,95,untitled,33,12
241.375,241.5,0.125,40,95,untitled,33,12
241.5,241.625,0.125,40,95,untitled,33,12
242.25,242.375,0.125,40,95,untitled,33,12
242.375,242.5,0.125,38,95,untitled,33,12
2.5,4.5,2.0,59,95,untitled,0,13
2.5,4.5,2.0,62,95,untitled,0,13
2.5,4.5,2.0,66,95,untitled,0,13
4.5,6.5,2.0,69,95,untitled,0,13
4.5,6.5,2.0,66,95,untitled,0,13
4.5,6.5,2.0,74,95,untitled,0,13
6.5,8.5,2.0,73,95,untitled,0,13
6.5,8.5,2.0,66,95,untitled,0,13
6.5,8.5,2.0,69,95,untitled,0,13
8.5,10.5,2.0,64,95,untitled,0,13
8.5,10.5,2.0,71,95,untitled,0,13
8.5,10.5,2.0,68,95,untitled,0,13
10.5,12.5,2.0,59,95,untitled,0,13
10.5,12.5,2.0,62,95,untitled,0,13
10.5,12.5,2.0,66,95,untitled,0,13
12.5,14.5,2.0,69,95,untitled,0,13
12.5,14.5,2.0,74,95,untitled,0,13
12.5,14.5,2.0,66,95,untitled,0,13
14.5,16.5,2.0,73,95,untitled,0,13
14.5,16.5,2.0,66,95,untitled,0,13
14.5,16.5,2.0,69,95,untitled,0,13
16.5,18.5,2.0,64,95,untitled,0,13
16.5,18.5,2.0,71,95,untitled,0,13
16.5,18.5,2.0,68,95,untitled,0,13
18.5,20.5,2.0,62,95,untitled,0,13
18.5,20.5,2.0,66,95,untitled,0,13
18.5,20.5,2.0,59,95,untitled,0,13
20.5,22.5,2.0,74,95,untitled,0,13
20.5,22.5,2.0,69,95,untitled,0,13
20.5,22.5,2.0,66,95,untitled,0,13
22.5,24.5,2.0,69,95,untitled,0,13
22.5,24.5,2.0,66,95,untitled,0,13
22.5,24.5,2.0,73,95,untitled,0,13
24.5,26.5,2.0,71,95,untitled,0,13
24.5,26.5,2.0,64,95,untitled,0,13
24.5,26.5,2.0,68,95,untitled,0,13
26.5,28.5,2.0,62,95,untitled,0,13
26.5,28.5,2.0,66,95,untitled,0,13
26.5,28.5,2.0,59,95,untitled,0,13
28.5,30.5,2.0,69,95,untitled,0,13
28.5,30.5,2.0,74,95,untitled,0,13
28.5,30.5,2.0,66,95,untitled,0,13
30.5,32.5,2.0,69,95,untitled,0,13
30.5,32.5,2.0,66,95,untitled,0,13
30.5,32.5,2.0,73,95,untitled,0,13
32.5,34.5,2.0,64,95,untitled,0,13
32.5,34.5,2.0,68,95,untitled,0,13
32.5,34.5,2.0,71,95,untitled,0,13
34.5,36.5,2.0,66,95,untitled,0,13
34.5,36.5,2.0,59,95,untitled,0,13
34.5,36.5,2.0,62,95,untitled,0,13
36.5,38.5,2.0,66,95,untitled,0,13
36.5,38.5,2.0,74,95,untitled,0,13
36.5,38.5,2.0,69,95,untitled,0,13
38.5,40.5,2.0,66,95,untitled,0,13
38.5,40.5,2.0,69,95,untitled,0,13
38.5,40.5,2.0,73,95,untitled,0,13
40.5,42.5,2.0,64,95,untitled,0,13
40.5,42.5,2.0,68,95,untitled,0,13
40.5,42.5,2.0,71,95,untitled,0,13
42.5,44.5,2.0,66,95,untitled,0,13
42.5,44.5,2.0,59,95,untitled,0,13
42.5,44.5,2.0,62,95,untitled,0,13
44.5,46.5,2.0,66,95,untitled,0,13
44.5,46.5,2.0,74,95,untitled,0,13
44.5,46.5,2.0,69,95,untitled,0,13
46.5,48.5,2.0,66,95,untitled,0,13
46.5,48.5,2.0,69,95,untitled,0,13
46.5,48.5,2.0,73,95,untitled,0,13
48.5,50.5,2.0,64,95,untitled,0,13
48.5,50.5,2.0,68,95,untitled,0,13
48.5,50.5,2.0,71,95,untitled,0,13
50.5,52.5,2.0,66,95,untitled,0,13
50.5,52.5,2.0,62,95,untitled,0,13
50.5,52.5,2.0,59,95,untitled,0,13
52.5,54.5,2.0,74,95,untitled,0,13
52.5,54.5,2.0,69,95,untitled,0,13
52.5,54.5,2.0,66,95,untitled,0,13
54.5,56.5,2.0,54,95,untitled,0,13
56.5,58.5,2.0,52,95,untitled,0,13
58.5,60.5,2.0,66,95,untitled,0,13
58.5,60.5,2.0,59,95,untitled,0,13
58.5,60.5,2.0,62,95,untitled,0,13
60.5,62.5,2.0,74,95,untitled,0,13
60.5,62.5,2.0,66,95,untitled,0,13
60.5,62.5,2.0,69,95,untitled,0,13
62.5,64.5,2.0,66,95,untitled,0,13
62.5,64.5,2.0,69,95,untitled,0,13
62.5,64.5,2.0,73,95,untitled,0,13
64.5,66.5,2.0,68,95,untitled,0,13
64.5,66.5,2.0,71,95,untitled,0,13
64.5,66.5,2.0,64,95,untitled,0,13
66.5,68.5,2.0,62,95,untitled,0,13
66.5,68.5,2.0,59,95,untitled,0,13
66.5,68.5,2.0,66,95,untitled,0,13
68.5,70.5,2.0,66,95,untitled,0,13
68.5,70.5,2.0,69,95,untitled,0,13
68.5,70.5,2.0,74,95,untitled,0,13
70.5,72.5,2.0,66,95,untitled,0,13
70.5,72.5,2.0,69,95,untitled,0,13
70.5,72.5,2.0,73,95,untitled,0,13
72.5,74.5,2.0,64,95,untitled,0,13
72.5,74.5,2.0,68,95,untitled,0,13
72.5,74.5,2.0,71,95,untitled,0,13
74.5,76.5,2.0,59,95,untitled,0,13
74.5,76.5,2.0,62,95,untitled,0,13
74.5,76.5,2.0,66,95,untitled,0,13
76.5,78.5,2.0,69,95,untitled,0,13
76.5,78.5,2.0,74,95,untitled,0,13
76.5,78.5,2.0,66,95,untitled,0,13
78.5,80.5,2.0,73,95,untitled,0,13
78.5,80.5,2.0,66,95,untitled,0,13
78.5,80.5,2.0,69,95,untitled,0,13
80.5,82.5,2.0,64,95,untitled,0,13
80.5,82.5,2.0,71,95,untitled,0,13
80.5,82.5,2.0,68,95,untitled,0,13
82.5,84.5,2.0,62,95,untitled,0,13
82.5,84.5,2.0,66,95,untitled,0,13
82.5,84.5,2.0,59,95,untitled,0,13
84.5,86.5,2.0,69,95,untitled,0,13
84.5,86.5,2.0,66,95,untitled,0,13
84.5,86.5,2.0,74,95,untitled,0,13
86.5,88.5,2.0,66,95,untitled,0,13
86.5,88.5,2.0,73,95,untitled,0,13
86.5,88.5,2.0,69,95,untitled,0,13
88.5,90.5,2.0,68,95,untitled,0,13
88.5,90.5,2.0,71,95,untitled,0,13
88.5,90.5,2.0,64,95,untitled,0,13
90.5,92.5,2.0,59,95,untitled,0,13
90.5,92.5,2.0,66,95,untitled,0,13
90.5,92.5,2.0,62,95,untitled,0,13
92.5,94.5,2.0,74,95,untitled,0,13
92.5,94.5,2.0,66,95,untitled,0,13
92.5,94.5,2.0,69,95,untitled,0,13
94.5,96.5,2.0,69,95,untitled,0,13
94.5,96.5,2.0,66,95,untitled,0,13
94.5,96.5,2.0,73,95,untitled,0,13
96.5,98.5,2.0,64,95,untitled,0,13
96.5,98.5,2.0,68,95,untitled,0,13
96.5,98.5,2.0,71,95,untitled,0,13
98.5,100.5,2.0,66,95,untitled,0,13
98.5,100.5,2.0,59,95,untitled,0,13
98.5,100.5,2.0,62,95,untitled,0,13
100.5,102.5,2.0,66,95,untitled,0,13
100.5,102.5,2.0,74,95,untitled,0,13
100.5,102.5,2.0,69,95,untitled,0,13
102.5,104.5,2.0,66,95,untitled,0,13
102.5,104.5,2.0,69,95,untitled,0,13
102.5,104.5,2.0,73,95,untitled,0,13
104.5,106.5,2.0,64,95,untitled,0,13
104.5,106.5,2.0,68,95,untitled,0,13
104.5,106.5,2.0,71,95,untitled,0,13
106.5,108.5,2.0,66,95,untitled,0,13
106.5,108.5,2.0,59,95,untitled,0,13
106.5,108.5,2.0,62,95,untitled,0,13
108.5,110.5,2.0,66,95,untitled,0,13
108.5,110.5,2.0,74,95,untitled,0,13
108.5,110.5,2.0,69,95,untitled,0,13
110.5,112.5,2.0,66,95,untitled,0,13
110.5,112.5,2.0,69,95,untitled,0,13
110.5,112.5,2.0,73,95,untitled,0,13
112.5,114.5,2.0,64,95,untitled,0,13
112.5,114.5,2.0,68,95,untitled,0,13
112.5,114.5,2.0,71,95,untitled,0,13
114.5,116.5,2.0,66,95,untitled,0,13
114.5,116.5,2.0,62,95,untitled,0,13
114.5,116.5,2.0,59,95,untitled,0,13
116.5,118.5,2.0,66,95,untitled,0,13
116.5,118.5,2.0,74,95,untitled,0,13
116.5,118.5,2.0,69,95,untitled,0,13
118.5,120.5,2.0,66,95,untitled,0,13
118.5,120.5,2.0,69,95,untitled,0,13
118.5,120.5,2.0,73,95,untitled,0,13
120.5,122.5,2.0,71,95,untitled,0,13
120.5,122.5,2.0,64,95,untitled,0,13
120.5,122.5,2.0,68,95,untitled,0,13
122.5,124.5,2.0,71,95,untitled,0,13
122.5,124.5,2.0,66,95,untitled,0,13
122.5,124.5,2.0,59,95,untitled,0,13
122.5,124.5,2.0,62,95,untitled,0,13
124.5,126.5,2.0,74,95,untitled,0,13
124.5,126.5,2.0,81,47,untitled,0,13
124.5,126.5,2.0,66,95,untitled,0,13
124.5,126.5,2.0,78,47,untitled,0,13
124.5,126.5,2.0,69,95,untitled,0,13
124.5,126.5,2.0,62,95,untitled,0,13
126.5,128.5,2.0,73,95,untitled,0,13
126.5,128.5,2.0,69,95,untitled,0,13
126.5,128.5,2.0,66,95,untitled,0,13
126.5,128.5,2.0,81,95,untitled,0,13
126.5,128.5,2.0,78,95,untitled,0,13
128.5,130.5,2.0,71,95,untitled,0,13
128.5,130.5,2.0,76,95,untitled,0,13
128.5,130.5,2.0,64,95,untitled,0,13
128.5,130.5,2.0,68,95,untitled,0,13
130.5,132.5,2.0,71,95,untitled,0,13
130.5,132.5,2.0,66,95,untitled,0,13
130.5,132.5,2.0,59,95,untitled,0,13
130.5,132.5,2.0,62,95,untitled,0,13
132.5,134.5,2.0,69,95,untitled,0,13
132.5,134.5,2.0,66,95,untitled,0,13
132.5,134.5,2.0,62,95,untitled,0,13
134.5,136.5,2.0,66,95,untitled,0,13
134.5,136.5,2.0,61,95,untitled,0,13
134.5,136.5,2.0,69,95,untitled,0,13
136.5,138.5,2.0,64,95,untitled,0,13
136.5,138.5,2.0,71,95,untitled,0,13
136.5,138.5,2.0,68,95,untitled,0,13
136.5,138.5,2.0,59,95,untitled,0,13
138.5,140.5,2.0,71,95,untitled,0,13
138.5,140.5,2.0,66,95,untitled,0,13
138.5,140.5,2.0,74,95,untitled,0,13
140.5,142.5,2.0,69,95,untitled,0,13
140.5,142.5,2.0,66,95,untitled,0,13
140.5,142.5,2.0,74,95,untitled,0,13
142.5,144.5,2.0,66,95,untitled,0,13
142.5,144.5,2.0,69,95,untitled,0,13
142.5,144.5,2.0,61,95,untitled,0,13
144.5,146.5,2.0,59,47,untitled,0,13
144.5,146.5,2.0,52,95,untitled,0,13
144.5,146.5,2.0,64,47,untitled,0,13
146.5,148.5,2.0,71,95,untitled,0,13
146.5,148.5,2.0,74,95,untitled,0,13
146.5,148.5,2.0,66,95,untitled,0,13
148.5,150.5,2.0,74,95,untitled,0,13
148.5,150.5,2.0,69,95,untitled,0,13
148.5,150.5,2.0,66,95,untitled,0,13
150.5,152.5,2.0,69,95,untitled,0,13
150.5,152.5,2.0,61,95,untitled,0,13
150.5,152.5,2.0,66,95,untitled,0,13
152.5,154.5,2.0,59,47,untitled,0,13
152.5,154.5,2.0,64,47,untitled,0,13
152.5,154.5,2.0,52,95,untitled,0,13
154.5,156.5,2.0,66,95,untitled,0,13
154.5,156.5,2.0,74,95,untitled,0,13
154.5,156.5,2.0,71,95,untitled,0,13
156.5,158.5,2.0,69,95,untitled,0,13
156.5,158.5,2.0,66,95,untitled,0,13
156.5,158.5,2.0,74,95,untitled,0,13
158.5,160.5,2.0,69,95,untitled,0,13
158.5,160.5,2.0,66,95,untitled,0,13
158.5,160.5,2.0,61,95,untitled,0,13
160.5,162.5,2.0,64,47,untitled,0,13
160.5,162.5,2.0,52,95,untitled,0,13
160.5,162.5,2.0,59,47,untitled,0,13
162.5,164.5,2.0,71,95,untitled,0,13
162.5,164.5,2.0,74,95,untitled,0,13
162.5,164.5,2.0,66,95,untitled,0,13
164.5,166.5,2.0,74,95,untitled,0,13
164.5,166.5,2.0,69,95,untitled,0,13
164.5,166.5,2.0,66,95,untitled,0,13
166.5,168.5,2.0,69,95,untitled,0,13
166.5,168.5,2.0,66,95,untitled,0,13
166.5,168.5,2.0,61,95,untitled,0,13
168.5,170.5,2.0,59,47,untitled,0,13
168.5,170.5,2.0,52,95,untitled,0,13
168.5,170.5,2.0,64,47,untitled,0,13
170.5,172.5,2.0,71,95,untitled,0,13
170.5,172.5,2.0,74,95,untitled,0,13
170.5,172.5,2.0,66,95,untitled,0,13
172.5,174.5,2.0,66,95,untitled,0,13
172.5,174.5,2.0,74,95,untitled,0,13
172.5,174.5,2.0,69,95,untitled,0,13
174.5,176.5,2.0,61,95,untitled,0,13
174.5,176.5,2.0,66,95,untitled,0,13
174.5,176.5,2.0,69,95,untitled,0,13
176.5,178.5,2.0,64,47,untitled,0,13
176.5,178.5,2.0,59,95,untitled,0,13
176.5,178.5,2.0,52,95,untitled,0,13
178.5,180.5,2.0,71,95,untitled,0,13
178.5,180.5,2.0,74,95,untitled,0,13
178.5,180.5,2.0,66,95,untitled,0,13
180.5,182.5,2.0,66,95,untitled,0,13
180.5,182.5,2.0,74,95,untitled,0,13
180.5,182.5,2.0,69,95,untitled,0,13
182.5,184.5,2.0,61,95,untitled,0,13
182.5,184.5,2.0,66,95,untitled,0,13
182.5,184.5,2.0,69,95,untitled,0,13
184.5,186.5,2.0,52,95,untitled,0,13
184.5,186.5,2.0,64,95,untitled,0,13
184.5,186.5,2.0,59,95,untitled,0,13
186.5,188.5,2.0,62,95,untitled,0,13
186.5,188.5,2.0,71,95,untitled,0,13
186.5,188.5,2.0,59,95,untitled,0,13
186.5,188.5,2.0,66,95,untitled,0,13
188.5,190.5,2.0,74,95,untitled,0,13
188.5,190.5,2.0,81,95,untitled,0,13
188.5,190.5,2.0,66,95,untitled,0,13
188.5,190.5,2.0,69,95,untitled,0,13
188.5,190.5,2.0,78,95,untitled,0,13
190.5,192.5,2.0,69,95,untitled,0,13
190.5,192.5,2.0,73,95,untitled,0,13
190.5,192.5,2.0,78,95,untitled,0,13
190.5,192.5,2.0,81,95,untitled,0,13
190.5,192.5,2.0,66,95,untitled,0,13
192.5,194.5,2.0,71,95,untitled,0,13
192.5,194.5,2.0,68,95,untitled,0,13
192.5,194.5,2.0,64,95,untitled,0,13
192.5,194.5,2.0,76,95,untitled,0,13
194.5,196.5,2.0,59,95,untitled,0,13
194.5,196.5,2.0,66,95,untitled,0,13
194.5,196.5,2.0,71,95,untitled,0,13
194.5,196.5,2.0,62,95,untitled,0,13
196.5,198.5,2.0,81,95,untitled,0,13
196.5,198.5,2.0,69,95,untitled,0,13
196.5,198.5,2.0,66,95,untitled,0,13
196.5,198.5,2.0,78,95,untitled,0,13
196.5,198.5,2.0,74,95,untitled,0,13
198.5,200.5,2.0,73,95,untitled,0,13
198.5,200.5,2.0,69,95,untitled,0,13
198.5,200.5,2.0,66,95,untitled,0,13
198.5,200.5,2.0,81,95,untitled,0,13
198.5,200.5,2.0,78,95,untitled,0,13
200.5,202.5,2.0,71,95,untitled,0,13
200.5,202.5,2.0,76,95,untitled,0,13
200.5,202.5,2.0,64,95,untitled,0,13
200.5,202.5,2.0,68,95,untitled,0,13
202.5,204.5,2.0,66,95,untitled,0,13
202.5,204.5,2.0,62,95,untitled,0,13
202.5,204.5,2.0,59,95,untitled,0,13
202.5,204.5,2.0,71,95,untitled,0,13
204.5,206.5,2.0,66,95,untitled,0,13
204.5,206.5,2.0,74,95,untitled,0,13
204.5,206.5,2.0,78,95,untitled,0,13
204.5,206.5,2.0,81,95,untitled,0,13
204.5,206.5,2.0,69,95,untitled,0,13
206.5,208.5,2.0,81,95,untitled,0,13
206.5,208.5,2.0,66,95,untitled,0,13
206.5,208.5,2.0,73,95,untitled,0,13
206.5,208.5,2.0,78,95,untitled,0,13
206.5,208.5,2.0,69,95,untitled,0,13
208.5,210.5,2.0,76,95,untitled,0,13
208.5,210.5,2.0,64,95,untitled,0,13
208.5,210.5,2.0,71,95,untitled,0,13
208.5,210.5,2.0,68,95,untitled,0,13
210.5,212.5,2.0,71,95,untitled,0,13
210.5,212.5,2.0,62,95,untitled,0,13
210.5,212.5,2.0,66,95,untitled,0,13
210.5,212.5,2.0,59,95,untitled,0,13
212.5,214.5,2.0,81,95,untitled,0,13
212.5,214.5,2.0,69,95,untitled,0,13
212.5,214.5,2.0,66,95,untitled,0,13
212.5,214.5,2.0,74,95,untitled,0,13
212.5,214.5,2.0,78,95,untitled,0,13
214.5,216.5,2.0,81,95,untitled,0,13
214.5,216.5,2.0,66,95,untitled,0,13
214.5,216.5,2.0,73,95,untitled,0,13
214.5,216.5,2.0,78,95,untitled,0,13
214.5,216.5,2.0,69,95,untitled,0,13
216.5,218.5,2.0,64,95,untitled,0,13
216.5,218.5,2.0,71,95,untitled,0,13
216.5,218.5,2.0,76,95,untitled,0,13
216.5,218.5,2.0,68,95,untitled,0,13
218.5,220.5,2.0,62,95,untitled,0,13
218.5,220.5,2.0,66,95,untitled,0,13
218.5,220.5,2.0,59,95,untitled,0,13
220.5,222.5,2.0,66,95,untitled,0,13
220.5,222.5,2.0,69,95,untitled,0,13
220.5,222.5,2.0,74,95,untitled,0,13
222.5,224.5,2.0,66,95,untitled,0,13
222.5,224.5,2.0,73,95,untitled,0,13
222.5,224.5,2.0,69,95,untitled,0,13
224.5,226.5,2.0,68,95,untitled,0,13
224.5,226.5,2.0,64,95,untitled,0,13
224.5,226.5,2.0,71,95,untitled,0,13
226.5,228.5,2.0,59,95,untitled,0,13
226.5,228.5,2.0,62,95,untitled,0,13
226.5,228.5,2.0,66,95,untitled,0,13
228.5,230.5,2.0,66,95,untitled,0,13
228.5,230.5,2.0,69,95,untitled,0,13
228.5,230.5,2.0,74,95,untitled,0,13
230.5,232.5,2.0,66,95,untitled,0,13
230.5,232.5,2.0,69,95,untitled,0,13
230.5,232.5,2.0,73,95,untitled,0,13
232.5,234.5,2.0,68,95,untitled,0,13
232.5,234.5,2.0,71,95,untitled,0,13
232.5,234.5,2.0,64,95,untitled,0,13
234.5,236.5,2.0,62,95,untitled,0,13
234.5,236.5,2.0,59,95,untitled,0,13
234.5,236.5,2.0,66,95,untitled,0,13
236.5,238.5,2.0,66,95,untitled,0,13
236.5,238.5,2.0,69,95,untitled,0,13
236.5,238.5,2.0,74,95,untitled,0,13
238.5,240.5,2.0,66,95,untitled,0,13
238.5,240.5,2.0,69,95,untitled,0,13
238.5,240.5,2.0,73,95,untitled,0,13
240.5,242.5,2.0,64,95,untitled,0,13
240.5,242.5,2.0,71,95,untitled,0,13
240.5,242.5,2.0,68,95,untitled,0,13
17.0,17.25,0.25,52,95,untitled,65,14
17.25,17.5,0.25,52,95,untitled,65,14
17.5,17.75,0.25,59,95,untitled,65,14
17.75,17.875,0.125,57,95,untitled,65,14
17.875,18.125,0.25,56,95,untitled,65,14
18.125,18.375,0.25,57,95,untitled,65,14
18.375,18.625,0.25,56,95,untitled,65,14
18.625,19.0,0.375,54,95,untitled,65,14
21.25,21.5,0.25,54,95,untitled,65,14
21.5,21.75,0.25,59,95,untitled,65,14
21.75,21.875,0.125,57,95,untitled,65,14
21.875,22.125,0.25,56,95,untitled,65,14
22.125,22.375,0.25,57,95,untitled,65,14
22.375,22.625,0.25,56,95,untitled,65,14
22.625,23.0,0.375,54,95,untitled,65,14
25.25,25.5,0.25,52,95,untitled,65,14
25.5,25.75,0.25,59,95,untitled,65,14
25.75,25.875,0.125,57,95,untitled,65,14
25.875,26.125,0.25,56,95,untitled,65,14
26.125,26.375,0.25,57,95,untitled,65,14
26.375,26.625,0.25,56,95,untitled,65,14
26.625,27.0,0.375,57,95,untitled,65,14
28.25,28.5,0.25,52,95,untitled,65,14
28.5,29.0,0.5,54,95,untitled,65,14
29.25,29.5,0.25,54,95,untitled,65,14
29.5,29.75,0.25,59,95,untitled,65,14
29.75,29.875,0.125,57,95,untitled,65,14
29.875,30.125,0.25,56,95,untitled,65,14
30.125,30.375,0.25,57,95,untitled,65,14
30.375,30.625,0.25,56,95,untitled,65,14
30.625,31.0,0.375,54,95,untitled,65,14
34.5,35.75,1.25,62,95,untitled,65,14
35.75,36.0,0.25,61,95,untitled,65,14
36.0,36.25,0.25,62,95,untitled,65,14
36.25,37.75,1.5,66,95,untitled,65,14
37.75,38.0,0.25,69,47,untitled,65,14
37.75,38.0,0.25,62,95,untitled,65,14
37.75,38.0,0.25,66,95,untitled,65,14
38.0,38.25,0.25,71,47,untitled,65,14
38.0,38.25,0.25,68,95,untitled,65,14
38.0,38.25,0.25,64,95,untitled,65,14
38.25,39.75,1.5,69,95,untitled,65,14
38.25,39.75,1.5,73,47,untitled,65,14
38.25,39.75,1.5,66,95,untitled,65,14
39.75,40.0,0.25,69,95,untitled,65,14
39.75,40.0,0.25,61,47,untitled,65,14
39.75,40.0,0.25,66,95,untitled,65,14
40.0,40.25,0.25,68,95,untitled,65,14
40.0,40.25,0.25,64,47,untitled,65,14
40.0,40.25,0.25,71,95,untitled,65,14
40.25,42.0,1.75,71,47,untitled,65,14
40.25,42.0,1.75,68,95,untitled,65,14
40.25,42.0,1.75,64,95,untitled,65,14
42.25,42.5,0.25,57,95,untitled,65,14
42.5,43.75,1.25,62,95,untitled,65,14
43.75,44.0,0.25,61,95,untitled,65,14
44.0,44.25,0.25,62,95,untitled,65,14
44.25,45.75,1.5,66,95,untitled,65,14
45.75,46.0,0.25,69,47,untitled,65,14
45.75,46.0,0.25,61,95,untitled,65,14
45.75,46.0,0.25,66,95,untitled,65,14
46.0,46.25,0.25,71,47,untitled,65,14
46.0,46.25,0.25,68,95,untitled,65,14
46.0,46.25,0.25,64,95,untitled,65,14
46.25,47.75,1.5,69,95,untitled,65,14
46.25,47.75,1.5,73,47,untitled,65,14
46.25,47.75,1.5,66,95,untitled,65,14
47.75,48.0,0.25,66,95,untitled,65,14
47.75,48.0,0.25,61,95,untitled,65,14
48.0,48.25,0.25,69,95,untitled,65,14
48.0,48.25,0.25,66,47,untitled,65,14
48.0,48.25,0.25,73,95,untitled,65,14
48.25,50.0,1.75,68,95,untitled,65,14
48.25,50.0,1.75,64,47,untitled,65,14
48.25,50.0,1.75,71,95,untitled,65,14
50.75,50.875,0.125,62,95,untitled,65,14
50.875,51.125,0.25,62,95,untitled,65,14
51.125,51.375,0.25,62,95,untitled,65,14
51.375,51.625,0.25,62,95,untitled,65,14
51.625,51.75,0.125,62,95,untitled,65,14
51.75,52.0,0.25,62,95,untitled,65,14
52.0,52.5,0.5,64,95,untitled,65,14
52.75,52.875,0.125,62,95,untitled,65,14
52.875,53.125,0.25,62,95,untitled,65,14
53.125,53.375,0.25,62,95,untitled,65,14
53.375,53.625,0.25,62,95,untitled,65,14
53.625,53.75,0.125,62,95,untitled,65,14
53.75,54.0,0.25,62,95,untitled,65,14
54.0,54.5,0.5,64,95,untitled,65,14
54.75,54.875,0.125,61,95,untitled,65,14
54.875,55.125,0.25,61,95,untitled,65,14
55.125,55.375,0.25,61,95,untitled,65,14
55.375,55.625,0.25,61,95,untitled,65,14
55.625,55.75,0.125,61,95,untitled,65,14
55.75,56.0,0.25,61,95,untitled,65,14
56.0,56.5,0.5,64,95,untitled,65,14
56.75,56.875,0.125,59,95,untitled,65,14
56.875,57.125,0.25,59,95,untitled,65,14
57.125,57.375,0.25,59,95,untitled,65,14
57.375,57.625,0.25,59,95,untitled,65,14
57.625,57.75,0.125,59,95,untitled,65,14
57.75,58.0,0.25,61,95,untitled,65,14
58.0,58.25,0.25,59,95,untitled,65,14
58.25,58.5,0.25,57,95,untitled,65,14
58.75,58.875,0.125,62,95,untitled,65,14
58.875,59.125,0.25,62,95,untitled,65,14
59.125,59.375,0.25,62,95,untitled,65,14
59.375,59.625,0.25,62,95,untitled,65,14
59.625,59.75,0.125,62,95,untitled,65,14
59.75,60.0,0.25,62,95,untitled,65,14
60.0,60.5,0.5,64,95,untitled,65,14
60.75,60.875,0.125,62,95,untitled,65,14
60.875,61.125,0.25,62,95,untitled,65,14
61.125,61.375,0.25,62,95,untitled,65,14
61.375,61.625,0.25,62,95,untitled,65,14
61.625,61.75,0.125,62,95,untitled,65,14
61.75,62.0,0.25,62,95,untitled,65,14
62.0,62.5,0.5,64,95,untitled,65,14
62.75,62.875,0.125,61,95,untitled,65,14
62.875,63.125,0.25,61,95,untitled,65,14
63.125,63.375,0.25,61,95,untitled,65,14
63.375,63.625,0.25,61,95,untitled,65,14
63.625,63.75,0.125,61,95,untitled,65,14
63.75,64.0,0.25,61,95,untitled,65,14
64.0,64.5,0.5,64,95,untitled,65,14
64.75,64.875,0.125,59,95,untitled,65,14
64.875,65.125,0.25,59,95,untitled,65,14
65.125,65.375,0.25,59,95,untitled,65,14
65.375,65.625,0.25,59,95,untitled,65,14
65.625,65.75,0.125,59,95,untitled,65,14
65.75,66.0,0.25,61,95,untitled,65,14
66.0,66.25,0.25,59,95,untitled,65,14
66.25,66.5,0.25,57,95,untitled,65,14
66.75,66.875,0.125,59,95,untitled,65,14
66.875,67.125,0.25,59,95,untitled,65,14
67.125,67.375,0.25,59,95,untitled,65,14
67.375,67.625,0.25,59,95,untitled,65,14
67.625,67.75,0.125,59,95,untitled,65,14
67.75,68.0,0.25,61,95,untitled,65,14
68.0,68.25,0.25,59,95,untitled,65,14
68.25,68.5,0.25,57,95,untitled,65,14
68.75,68.875,0.125,59,95,untitled,65,14
68.875,69.125,0.25,59,95,untitled,65,14
69.125,69.375,0.25,59,95,untitled,65,14
69.375,69.625,0.25,59,95,untitled,65,14
69.625,69.75,0.125,59,95,untitled,65,14
69.75,70.0,0.25,61,95,untitled,65,14
70.0,70.25,0.25,59,95,untitled,65,14
70.25,70.5,0.25,57,95,untitled,65,14
70.75,70.875,0.125,59,95,untitled,65,14
70.875,71.125,0.25,59,95,untitled,65,14
71.125,71.375,0.25,59,95,untitled,65,14
71.375,71.625,0.25,59,95,untitled,65,14
71.625,71.75,0.125,59,95,untitled,65,14
71.75,72.0,0.25,61,95,untitled,65,14
72.0,72.25,0.25,59,95,untitled,65,14
72.25,72.5,0.25,57,95,untitled,65,14
72.75,72.875,0.125,59,95,untitled,65,14
72.875,73.125,0.25,59,95,untitled,65,14
73.125,73.375,0.25,59,95,untitled,65,14
73.375,73.625,0.25,59,95,untitled,65,14
73.625,73.75,0.125,59,95,untitled,65,14
73.75,74.0,0.25,61,95,untitled,65,14
74.0,74.25,0.25,59,95,untitled,65,14
74.25,74.5,0.25,57,95,untitled,65,14
81.0,81.25,0.25,52,95,untitled,65,14
81.25,81.5,0.25,52,95,untitled,65,14
81.5,81.75,0.25,59,95,untitled,65,14
81.75,81.875,0.125,57,95,untitled,65,14
81.875,82.125,0.25,56,95,untitled,65,14
82.125,82.375,0.25,57,95,untitled,65,14
82.375,82.625,0.25,56,95,untitled,65,14
82.625,83.0,0.375,54,95,untitled,65,14
85.25,85.5,0.25,54,95,untitled,65,14
85.5,85.75,0.25,59,95,untitled,65,14
85.75,85.875,0.125,57,47,untitled,65,14
85.875,86.125,0.25,56,95,untitled,65,14
86.125,86.375,0.25,57,95,untitled,65,14
86.375,86.625,0.25,56,95,untitled,65,14
86.625,87.0,0.375,54,95,untitled,65,14
89.5,89.625,0.125,59,95,untitled,65,14
89.625,89.875,0.25,57,95,untitled,65,14
89.875,90.125,0.25,56,95,untitled,65,14
90.125,90.375,0.25,57,95,untitled,65,14
90.375,90.625,0.25,56,95,untitled,65,14
90.625,91.0,0.375,54,95,untitled,65,14
93.25,93.5,0.25,54,95,untitled,65,14
93.5,93.75,0.25,59,95,untitled,65,14
93.75,93.875,0.125,57,95,untitled,65,14
93.875,94.125,0.25,56,95,untitled,65,14
94.125,94.375,0.25,57,95,untitled,65,14
94.375,94.625,0.25,56,95,untitled,65,14
94.625,95.0,0.375,54,95,untitled,65,14
98.5,99.75,1.25,62,95,untitled,65,14
99.75,100.0,0.25,61,95,untitled,65,14
100.0,100.25,0.25,62,95,untitled,65,14
100.25,101.75,1.5,66,95,untitled,65,14
101.75,102.0,0.25,69,47,untitled,65,14
101.75,102.0,0.25,62,95,untitled,65,14
101.75,102.0,0.25,66,95,untitled,65,14
102.0,102.25,0.25,71,47,untitled,65,14
102.0,102.25,0.25,68,95,untitled,65,14
102.0,102.25,0.25,64,95,untitled,65,14
102.25,103.75,1.5,69,95,untitled,65,14
102.25,103.75,1.5,73,47,untitled,65,14
102.25,103.75,1.5,66,95,untitled,65,14
103.75,104.0,0.25,69,95,untitled,65,14
103.75,104.0,0.25,61,47,untitled,65,14
103.75,104.0,0.25,66,95,untitled,65,14
104.0,104.25,0.25,68,95,untitled,65,14
104.0,104.25,0.25,64,47,untitled,65,14
104.0,104.25,0.25,71,95,untitled,65,14
104.25,106.0,1.75,71,47,untitled,65,14
104.25,106.0,1.75,68,95,untitled,65,14
104.25,106.0,1.75,64,95,untitled,65,14
106.25,106.5,0.25,57,95,untitled,65,14
106.5,107.75,1.25,62,95,untitled,65,14
107.75,108.0,0.25,61,95,untitled,65,14
108.0,108.25,0.25,62,95,untitled,65,14
108.25,109.75,1.5,66,95,untitled,65,14
109.75,110.0,0.25,69,47,untitled,65,14
109.75,110.0,0.25,61,95,untitled,65,14
109.75,110.0,0.25,66,95,untitled,65,14
110.0,110.25,0.25,71,47,untitled,65,14
110.0,110.25,0.25,68,95,untitled,65,14
110.0,110.25,0.25,64,95,untitled,65,14
110.25,111.75,1.5,69,95,untitled,65,14
110.25,111.75,1.5,73,47,untitled,65,14
110.25,111.75,1.5,66,95,untitled,65,14
111.75,112.0,0.25,66,95,untitled,65,14
111.75,112.0,0.25,61,95,untitled,65,14
112.0,112.25,0.25,69,95,untitled,65,14
112.0,112.25,0.25,66,47,untitled,65,14
112.0,112.25,0.25,73,95,untitled,65,14
112.25,114.0,1.75,68,95,untitled,65,14
112.25,114.0,1.75,64,47,untitled,65,14
112.25,114.0,1.75,71,95,untitled,65,14
114.75,114.875,0.125,62,95,untitled,65,14
114.875,115.125,0.25,62,95,untitled,65,14
115.125,115.375,0.25,62,95,untitled,65,14
115.375,115.625,0.25,62,95,untitled,65,14
115.625,115.75,0.125,62,95,untitled,65,14
115.75,116.0,0.25,62,95,untitled,65,14
116.0,116.5,0.5,64,95,untitled,65,14
116.75,116.875,0.125,62,95,untitled,65,14
116.875,117.125,0.25,62,95,untitled,65,14
117.125,117.375,0.25,62,95,untitled,65,14
117.375,117.625,0.25,62,95,untitled,65,14
117.625,117.75,0.125,62,95,untitled,65,14
117.75,118.0,0.25,62,95,untitled,65,14
118.0,118.5,0.5,64,95,untitled,65,14
118.75,118.875,0.125,61,95,untitled,65,14
118.875,119.125,0.25,61,95,untitled,65,14
119.125,119.375,0.25,61,95,untitled,65,14
119.375,119.625,0.25,61,95,untitled,65,14
119.625,119.75,0.125,61,95,untitled,65,14
119.75,120.0,0.25,61,95,untitled,65,14
120.0,120.5,0.5,64,95,untitled,65,14
120.75,120.875,0.125,59,95,untitled,65,14
120.875,121.125,0.25,59,95,untitled,65,14
121.125,121.375,0.25,59,95,untitled,65,14
121.375,121.625,0.25,59,95,untitled,65,14
121.625,121.75,0.125,59,95,untitled,65,14
121.75,122.0,0.25,61,95,untitled,65,14
122.0,122.25,0.25,59,95,untitled,65,14
122.25,122.5,0.25,57,95,untitled,65,14
122.75,122.875,0.125,62,95,untitled,65,14
122.875,123.125,0.25,62,95,untitled,65,14
123.125,123.375,0.25,62,95,untitled,65,14
123.375,123.625,0.25,62,95,untitled,65,14
123.625,123.75,0.125,62,95,untitled,65,14
123.75,124.0,0.25,62,95,untitled,65,14
124.0,124.5,0.5,64,95,untitled,65,14
124.75,124.875,0.125,62,95,untitled,65,14
124.875,125.125,0.25,62,95,untitled,65,14
125.125,125.375,0.25,62,95,untitled,65,14
125.375,125.625,0.25,62,95,untitled,65,14
125.625,125.75,0.125,62,95,untitled,65,14
125.75,126.0,0.25,62,95,untitled,65,14
126.0,126.5,0.5,64,95,untitled,65,14
126.75,126.875,0.125,61,95,untitled,65,14
126.875,127.125,0.25,61,95,untitled,65,14
127.125,127.375,0.25,61,95,untitled,65,14
127.375,127.625,0.25,61,95,untitled,65,14
127.625,127.75,0.125,61,95,untitled,65,14
127.75,128.0,0.25,61,95,untitled,65,14
128.0,128.5,0.5,64,95,untitled,65,14
128.75,128.875,0.125,59,95,untitled,65,14
128.875,129.125,0.25,59,95,untitled,65,14
129.125,129.375,0.25,59,95,untitled,65,14
129.375,129.625,0.25,59,95,untitled,65,14
129.625,129.75,0.125,59,95,untitled,65,14
129.75,130.0,0.25,61,95,untitled,65,14
130.0,130.25,0.25,59,95,untitled,65,14
130.25,130.5,0.25,57,95,untitled,65,14
130.75,130.875,0.125,59,95,untitled,65,14
130.875,131.125,0.25,59,95,untitled,65,14
131.125,131.375,0.25,59,95,untitled,65,14
131.375,131.625,0.25,59,95,untitled,65,14
131.625,131.75,0.125,59,95,untitled,65,14
131.75,132.0,0.25,61,95,untitled,65,14
132.0,132.25,0.25,59,95,untitled,65,14
132.25,132.5,0.25,57,95,untitled,65,14
132.75,132.875,0.125,59,95,untitled,65,14
132.875,133.125,0.25,59,95,untitled,65,14
133.125,133.375,0.25,59,95,untitled,65,14
133.375,133.625,0.25,59,95,untitled,65,14
133.625,133.75,0.125,59,95,untitled,65,14
133.75,134.0,0.25,61,95,untitled,65,14
134.0,134.25,0.25,59,95,untitled,65,14
134.25,134.5,0.25,57,95,untitled,65,14
134.75,134.875,0.125,59,95,untitled,65,14
134.875,135.125,0.25,59,95,untitled,65,14
135.125,135.375,0.25,59,95,untitled,65,14
135.375,135.625,0.25,59,95,untitled,65,14
135.625,135.75,0.125,59,95,untitled,65,14
135.75,136.0,0.25,61,95,untitled,65,14
136.0,136.25,0.25,59,95,untitled,65,14
136.25,136.5,0.25,57,95,untitled,65,14
136.75,136.875,0.125,59,95,untitled,65,14
136.875,137.125,0.25,59,95,untitled,65,14
137.125,137.375,0.25,59,95,untitled,65,14
137.375,137.625,0.25,59,95,untitled,65,14
137.625,137.75,0.125,59,95,untitled,65,14
137.75,138.0,0.25,61,95,untitled,65,14
138.0,138.25,0.25,59,95,untitled,65,14
138.25,138.5,0.25,57,95,untitled,65,14
170.5,171.75,1.25,62,95,untitled,65,14
171.75,172.0,0.25,61,95,untitled,65,14
172.0,172.25,0.25,62,95,untitled,65,14
172.25,173.75,1.5,66,95,untitled,65,14
173.75,174.0,0.25,66,95,untitled,65,14
173.75,174.0,0.25,69,47,untitled,65,14
173.75,174.0,0.25,62,95,untitled,65,14
174.0,174.25,0.25,71,47,untitled,65,14
174.0,174.25,0.25,68,95,untitled,65,14
174.0,174.25,0.25,64,95,untitled,65,14
174.25,175.75,1.5,69,95,untitled,65,14
174.25,175.75,1.5,73,47,untitled,65,14
174.25,175.75,1.5,66,95,untitled,65,14
175.75,176.0,0.25,66,95,untitled,65,14
175.75,176.0,0.25,69,95,untitled,65,14
175.75,176.0,0.25,61,47,untitled,65,14
176.0,176.25,0.25,68,95,untitled,65,14
176.0,176.25,0.25,64,47,untitled,65,14
176.0,176.25,0.25,71,95,untitled,65,14
176.25,178.0,1.75,64,95,untitled,65,14
176.25,178.0,1.75,71,47,untitled,65,14
176.25,178.0,1.75,68,95,untitled,65,14
178.25,178.5,0.25,57,95,untitled,65,14
178.5,179.75,1.25,62,95,untitled,65,14
179.75,180.0,0.25,61,95,untitled,65,14
180.0,180.25,0.25,62,95,untitled,65,14
180.25,181.75,1.5,66,95,untitled,65,14
181.75,182.0,0.25,66,95,untitled,65,14
181.75,182.0,0.25,69,47,untitled,65,14
181.75,182.0,0.25,61,95,untitled,65,14
182.0,182.25,0.25,71,47,untitled,65,14
182.0,182.25,0.25,68,95,untitled,65,14
182.0,182.25,0.25,64,95,untitled,65,14
182.25,183.75,1.5,69,95,untitled,65,14
182.25,183.75,1.5,73,47,untitled,65,14
182.25,183.75,1.5,66,95,untitled,65,14
183.75,184.0,0.25,61,95,untitled,65,14
183.75,184.0,0.25,66,95,untitled,65,14
184.0,184.25,0.25,69,95,untitled,65,14
184.0,184.25,0.25,66,47,untitled,65,14
184.0,184.25,0.25,73,95,untitled,65,14
184.25,186.0,1.75,68,95,untitled,65,14
184.25,186.0,1.75,71,95,untitled,65,14
184.25,186.0,1.75,64,47,untitled,65,14
186.75,186.875,0.125,62,95,untitled,65,14
186.875,187.125,0.25,62,95,untitled,65,14
187.125,187.375,0.25,62,95,untitled,65,14
187.375,187.625,0.25,62,95,untitled,65,14
187.625,187.75,0.125,62,95,untitled,65,14
187.75,188.0,0.25,62,95,untitled,65,14
188.0,188.5,0.5,64,95,untitled,65,14
188.75,188.875,0.125,62,95,untitled,65,14
188.875,189.125,0.25,62,95,untitled,65,14
189.125,189.375,0.25,62,95,untitled,65,14
189.375,189.625,0.25,62,95,untitled,65,14
189.625,189.75,0.125,62,95,untitled,65,14
189.75,190.0,0.25,62,95,untitled,65,14
190.0,190.5,0.5,64,95,untitled,65,14
190.75,190.875,0.125,61,95,untitled,65,14
190.875,191.125,0.25,61,95,untitled,65,14
191.125,191.375,0.25,61,95,untitled,65,14
191.375,191.625,0.25,61,95,untitled,65,14
191.625,191.75,0.125,61,95,untitled,65,14
191.75,192.0,0.25,61,95,untitled,65,14
192.0,192.5,0.5,64,95,untitled,65,14
192.75,192.875,0.125,59,95,untitled,65,14
192.875,193.125,0.25,59,95,untitled,65,14
193.125,193.375,0.25,59,95,untitled,65,14
193.375,193.625,0.25,59,95,untitled,65,14
193.625,193.75,0.125,59,95,untitled,65,14
193.75,194.0,0.25,61,95,untitled,65,14
194.0,194.25,0.25,59,95,untitled,65,14
194.25,194.5,0.25,57,95,untitled,65,14
194.75,194.875,0.125,62,95,untitled,65,14
194.875,195.125,0.25,62,95,untitled,65,14
195.125,195.375,0.25,62,95,untitled,65,14
195.375,195.625,0.25,62,95,untitled,65,14
195.625,195.75,0.125,62,95,untitled,65,14
195.75,196.0,0.25,62,95,untitled,65,14
196.0,196.5,0.5,64,95,untitled,65,14
196.75,196.875,0.125,62,95,untitled,65,14
196.875,197.125,0.25,62,95,untitled,65,14
197.125,197.375,0.25,62,95,untitled,65,14
197.375,197.625,0.25,62,95,untitled,65,14
197.625,197.75,0.125,62,95,untitled,65,14
197.75,198.0,0.25,62,95,untitled,65,14
198.0,198.5,0.5,64,95,untitled,65,14
198.75,198.875,0.125,61,95,untitled,65,14
198.875,199.125,0.25,61,95,untitled,65,14
199.125,199.375,0.25,61,95,untitled,65,14
199.375,199.625,0.25,61,95,untitled,65,14
199.625,199.75,0.125,61,95,untitled,65,14
199.75,200.0,0.25,61,95,untitled,65,14
200.0,200.5,0.5,64,95,untitled,65,14
200.75,200.875,0.125,59,95,untitled,65,14
200.875,201.125,0.25,59,95,untitled,65,14
201.125,201.375,0.25,59,95,untitled,65,14
201.375,201.625,0.25,59,95,untitled,65,14
201.625,201.75,0.125,59,95,untitled,65,14
201.75,202.0,0.25,61,95,untitled,65,14
202.0,202.25,0.25,59,95,untitled,65,14
202.25,202.5,0.25,57,95,untitled,65,14
202.75,202.875,0.125,59,95,untitled,65,14
202.875,203.125,0.25,59,95,untitled,65,14
203.125,203.375,0.25,59,95,untitled,65,14
203.375,203.625,0.25,59,95,untitled,65,14
203.625,203.75,0.125,59,95,untitled,65,14
203.75,204.0,0.25,61,95,untitled,65,14
204.0,204.25,0.25,59,95,untitled,65,14
204.25,204.5,0.25,57,95,untitled,65,14
204.75,204.875,0.125,59,95,untitled,65,14
204.875,205.125,0.25,59,95,untitled,65,14
205.125,205.375,0.25,59,95,untitled,65,14
205.375,205.625,0.25,59,95,untitled,65,14
205.625,205.75,0.125,59,95,untitled,65,14
205.75,206.0,0.25,61,95,untitled,65,14
206.0,206.25,0.25,59,95,untitled,65,14
206.25,206.5,0.25,57,95,untitled,65,14
206.75,206.875,0.125,59,95,untitled,65,14
206.875,207.125,0.25,59,95,untitled,65,14
207.125,207.375,0.25,59,95,untitled,65,14
207.375,207.625,0.25,59,95,untitled,65,14
207.625,207.75,0.125,59,95,untitled,65,14
207.75,208.0,0.25,61,95,untitled,65,14
208.0,208.25,0.25,59,95,untitled,65,14
208.25,208.5,0.25,57,95,untitled,65,14
208.75,208.875,0.125,59,95,untitled,65,14
208.875,209.125,0.25,59,95,untitled,65,14
209.125,209.375,0.25,59,95,untitled,65,14
209.375,209.625,0.25,59,95,untitled,65,14
209.625,209.75,0.125,59,95,untitled,65,14
209.75,210.0,0.25,61,95,untitled,65,14
210.0,210.25,0.25,59,95,untitled,65,14
210.25,210.5,0.25,57,95,untitled,65,14
210.75,210.875,0.125,59,95,untitled,65,14
210.875,211.125,0.25,59,95,untitled,65,14
211.125,211.375,0.25,59,95,untitled,65,14
211.375,211.625,0.25,59,95,untitled,65,14
211.625,211.75,0.125,59,95,untitled,65,14
211.75,212.0,0.25,61,95,untitled,65,14
212.0,212.25,0.25,59,95,untitled,65,14
212.25,212.5,0.25,57,95,untitled,65,14
212.75,212.875,0.125,59,95,untitled,65,14
212.875,213.125,0.25,59,95,untitled,65,14
213.125,213.375,0.25,59,95,untitled,65,14
213.375,213.625,0.25,59,95,untitled,65,14
213.625,213.75,0.125,59,95,untitled,65,14
213.75,214.0,0.25,61,95,untitled,65,14
214.0,214.25,0.25,59,95,untitled,65,14
214.25,214.5,0.25,57,95,untitled,65,14
214.75,214.875,0.125,59,95,untitled,65,14
214.875,215.125,0.25,59,95,untitled,65,14
215.125,215.375,0.25,59,95,untitled,65,14
215.375,215.625,0.25,59,95,untitled,65,14
215.625,215.75,0.125,59,95,untitled,65,14
215.75,216.0,0.25,61,95,untitled,65,14
216.0,216.25,0.25,59,95,untitled,65,14
216.25,216.5,0.25,57,95,untitled,65,14
216.75,216.875,0.125,59,95,untitled,65,14
216.875,217.125,0.25,59,95,untitled,65,14
217.125,217.375,0.25,59,95,untitled,65,14
217.375,217.625,0.25,59,95,untitled,65,14
217.625,217.75,0.125,59,95,untitled,65,14
217.75,218.0,0.25,61,95,untitled,65,14
218.0,218.25,0.25,59,95,untitled,65,14
218.25,218.5,0.25,57,95,untitled,65,14
138.75,138.875,0.125,62,95,untitled,7,15
138.75,138.875,0.125,66,95,untitled,7,15
138.875,139.125,0.25,50,95,untitled,7,15
139.125,139.25,0.125,62,95,untitled,7,15
139.125,139.25,0.125,66,95,untitled,7,15
139.25,139.375,0.125,38,95,untitled,7,15
139.375,139.5,0.125,50,95,untitled,7,15
139.625,139.75,0.125,50,95,untitled,7,15
139.75,140.0,0.25,50,95,untitled,7,15
140.75,140.875,0.125,62,95,untitled,7,15
140.75,140.875,0.125,66,95,untitled,7,15
140.875,141.125,0.25,50,95,untitled,7,15
141.125,141.25,0.125,62,95,untitled,7,15
141.125,141.25,0.125,66,95,untitled,7,15
141.25,141.375,0.125,38,95,untitled,7,15
141.375,141.5,0.125,50,95,untitled,7,15
141.625,141.75,0.125,50,95,untitled,7,15
141.75,142.0,0.25,50,95,untitled,7,15
142.75,142.875,0.125,66,95,untitled,7,15
142.75,142.875,0.125,69,95,untitled,7,15
142.875,143.125,0.25,54,95,untitled,7,15
143.125,143.25,0.125,66,95,untitled,7,15
143.125,143.25,0.125,69,95,untitled,7,15
143.25,143.375,0.125,42,95,untitled,7,15
143.375,143.5,0.125,54,95,untitled,7,15
143.625,143.75,0.125,54,95,untitled,7,15
143.75,144.0,0.25,54,95,untitled,7,15
144.75,144.875,0.125,64,95,untitled,7,15
144.75,144.875,0.125,68,95,untitled,7,15
144.875,145.125,0.25,52,95,untitled,7,15
145.125,145.25,0.125,64,95,untitled,7,15
145.125,145.25,0.125,68,95,untitled,7,15
145.25,145.375,0.125,40,95,untitled,7,15
145.375,145.5,0.125,52,95,untitled,7,15
145.625,145.75,0.125,52,95,untitled,7,15
145.75,146.0,0.25,52,95,untitled,7,15
146.75,146.875,0.125,62,95,untitled,7,15
146.75,146.875,0.125,66,95,untitled,7,15
146.875,147.125,0.25,50,95,untitled,7,15
147.125,147.25,0.125,62,95,untitled,7,15
147.125,147.25,0.125,66,95,untitled,7,15
147.25,147.375,0.125,38,95,untitled,7,15
147.375,147.5,0.125,50,95,untitled,7,15
147.625,147.75,0.125,50,95,untitled,7,15
147.75,148.0,0.25,50,95,untitled,7,15
148.75,148.875,0.125,62,95,untitled,7,15
148.75,148.875,0.125,66,95,untitled,7,15
148.875,149.125,0.25,50,95,untitled,7,15
149.125,149.25,0.125,62,95,untitled,7,15
149.125,149.25,0.125,66,95,untitled,7,15
149.25,149.375,0.125,38,95,untitled,7,15
149.375,149.5,0.125,50,95,untitled,7,15
149.625,149.75,0.125,50,95,untitled,7,15
149.75,150.0,0.25,50,95,untitled,7,15
150.75,150.875,0.125,66,95,untitled,7,15
150.75,150.875,0.125,69,95,untitled,7,15
150.875,151.125,0.25,54,95,untitled,7,15
151.125,151.25,0.125,66,95,untitled,7,15
151.125,151.25,0.125,69,95,untitled,7,15
151.25,151.375,0.125,42,95,untitled,7,15
151.375,151.5,0.125,54,95,untitled,7,15
151.625,151.75,0.125,54,95,untitled,7,15
151.75,152.0,0.25,54,95,untitled,7,15
152.75,152.875,0.125,64,95,untitled,7,15
152.75,152.875,0.125,68,95,untitled,7,15
152.875,153.125,0.25,52,95,untitled,7,15
153.125,153.25,0.125,64,95,untitled,7,15
153.125,153.25,0.125,68,95,untitled,7,15
153.25,153.375,0.125,40,95,untitled,7,15
153.375,153.5,0.125,52,95,untitled,7,15
153.625,153.75,0.125,52,95,untitled,7,15
153.75,154.0,0.25,52,95,untitled,7,15
154.75,154.875,0.125,62,95,untitled,7,15
154.75,154.875,0.125,66,95,untitled,7,15
154.875,155.125,0.25,50,95,untitled,7,15
155.125,155.25,0.125,62,95,untitled,7,15
155.125,155.25,0.125,66,95,untitled,7,15
155.25,155.375,0.125,38,95,untitled,7,15
155.375,155.5,0.125,50,95,untitled,7,15
155.625,155.75,0.125,50,95,untitled,7,15
155.75,156.0,0.25,50,95,untitled,7,15
156.75,156.875,0.125,62,95,untitled,7,15
156.75,156.875,0.125,66,95,untitled,7,15
156.875,157.125,0.25,50,95,untitled,7,15
157.125,157.25,0.125,62,95,untitled,7,15
157.125,157.25,0.125,66,95,untitled,7,15
157.25,157.375,0.125,38,95,untitled,7,15
157.375,157.5,0.125,50,95,untitled,7,15
157.625,157.75,0.125,50,95,untitled,7,15
157.75,158.0,0.25,50,95,untitled,7,15
158.75,158.875,0.125,66,95,untitled,7,15
158.75,158.875,0.125,69,95,untitled,7,15
158.875,159.125,0.25,54,95,untitled,7,15
159.125,159.25,0.125,66,95,untitled,7,15
159.125,159.25,0.125,69,95,untitled,7,15
159.25,159.375,0.125,42,95,untitled,7,15
159.375,159.5,0.125,54,95,untitled,7,15
159.625,159.75,0.125,54,95,untitled,7,15
159.75,160.0,0.25,54,95,untitled,7,15
160.75,160.875,0.125,64,95,untitled,7,15
160.75,160.875,0.125,68,95,untitled,7,15
160.875,161.125,0.25,52,95,untitled,7,15
161.125,161.25,0.125,64,95,untitled,7,15
161.125,161.25,0.125,68,95,untitled,7,15
161.25,161.375,0.125,40,95,untitled,7,15
161.375,161.5,0.125,52,95,untitled,7,15
161.625,161.75,0.125,52,95,untitled,7,15
161.75,162.0,0.25,52,95,untitled,7,15
162.75,162.875,0.125,62,95,untitled,7,15
162.75,162.875,0.125,66,95,untitled,7,15
162.875,163.125,0.25,50,95,untitled,7,15
163.125,163.25,0.125,62,95,untitled,7,15
163.125,163.25,0.125,66,95,untitled,7,15
163.25,163.375,0.125,38,95,untitled,7,15
163.375,163.5,0.125,50,95,untitled,7,15
163.625,163.75,0.125,50,95,untitled,7,15
163.75,164.0,0.25,50,95,untitled,7,15
164.75,164.875,0.125,62,95,untitled,7,15
164.75,164.875,0.125,66,95,untitled,7,15
164.875,165.125,0.25,50,95,untitled,7,15
165.125,165.25,0.125,62,95,untitled,7,15
165.125,165.25,0.125,66,95,untitled,7,15
165.25,165.375,0.125,38,95,untitled,7,15
165.375,165.5,0.125,50,95,untitled,7,15
165.625,165.75,0.125,50,95,untitled,7,15
165.75,166.0,0.25,50,95,untitled,7,15
166.75,166.875,0.125,66,95,untitled,7,15
166.75,166.875,0.125,69,95,untitled,7,15
166.875,167.125,0.25,54,95,untitled,7,15
167.125,167.25,0.125,66,95,untitled,7,15
167.125,167.25,0.125,69,95,untitled,7,15
167.25,167.375,0.125,42,95,untitled,7,15
167.375,167.5,0.125,54,95,untitled,7,15
167.625,167.75,0.125,54,95,untitled,7,15
167.75,168.0,0.25,54,95,untitled,7,15
168.75,168.875,0.125,64,95,untitled,7,15
168.75,168.875,0.125,68,95,untitled,7,15
168.875,169.125,0.25,52,95,untitled,7,15
169.125,169.25,0.125,64,95,untitled,7,15
169.125,169.25,0.125,68,95,untitled,7,15
169.25,169.375,0.125,40,95,untitled,7,15
169.375,169.5,0.125,52,95,untitled,7,15
169.625,169.75,0.125,52,95,untitled,7,15
169.75,170.0,0.25,52,95,untitled,7,15
170.75,170.875,0.125,62,95,untitled,7,15
170.75,170.875,0.125,66,95,untitled,7,15
170.875,171.125,0.25,50,95,untitled,7,15
171.125,171.25,0.125,62,95,untitled,7,15
171.125,171.25,0.125,66,95,untitled,7,15
171.25,171.375,0.125,38,95,untitled,7,15
171.375,171.5,0.125,50,95,untitled,7,15
171.625,171.75,0.125,50,95,untitled,7,15
171.75,172.0,0.25,50,95,untitled,7,15
172.75,172.875,0.125,62,95,untitled,7,15
172.75,172.875,0.125,66,95,untitled,7,15
172.875,173.125,0.25,50,95,untitled,7,15
173.125,173.25,0.125,62,95,untitled,7,15
173.125,173.25,0.125,66,95,untitled,7,15
173.25,173.375,0.125,38,95,untitled,7,15
173.375,173.5,0.125,50,95,untitled,7,15
173.625,173.75,0.125,50,95,untitled,7,15
173.75,174.0,0.25,50,95,untitled,7,15
174.75,174.875,0.125,66,95,untitled,7,15
174.75,174.875,0.125,69,95,untitled,7,15
174.875,175.125,0.25,54,95,untitled,7,15
175.125,175.25,0.125,66,95,untitled,7,15
175.125,175.25,0.125,69,95,untitled,7,15
175.25,175.375,0.125,42,95,untitled,7,15
175.375,175.5,0.125,54,95,untitled,7,15
175.625,175.75,0.125,54,95,untitled,7,15
175.75,176.0,0.25,54,95,untitled,7,15
176.75,176.875,0.125,68,95,untitled,7,15
176.75,176.875,0.125,64,95,untitled,7,15
176.875,177.125,0.25,52,95,untitled,7,15
177.125,177.25,0.125,64,95,untitled,7,15
177.125,177.25,0.125,68,95,untitled,7,15
177.25,177.375,0.125,40,95,untitled,7,15
177.375,177.5,0.125,52,95,untitled,7,15
177.625,177.75,0.125,52,95,untitled,7,15
177.75,178.0,0.25,52,95,untitled,7,15
178.75,178.875,0.125,62,95,untitled,7,15
178.75,178.875,0.125,66,95,untitled,7,15
178.875,179.125,0.25,50,95,untitled,7,15
179.125,179.25,0.125,62,95,untitled,7,15
179.125,179.25,0.125,66,95,untitled,7,15
179.25,179.375,0.125,38,95,untitled,7,15
179.375,179.5,0.125,50,95,untitled,7,15
179.625,179.75,0.125,50,95,untitled,7,15
179.75,180.0,0.25,50,95,untitled,7,15
180.75,180.875,0.125,62,95,untitled,7,15
180.75,180.875,0.125,66,95,untitled,7,15
180.875,181.125,0.25,50,95,untitled,7,15
181.125,181.25,0.125,62,95,untitled,7,15
181.125,181.25,0.125,66,95,untitled,7,15
181.25,181.375,0.125,38,95,untitled,7,15
181.375,181.5,0.125,50,95,untitled,7,15
181.625,181.75,0.125,50,95,untitled,7,15
181.75,182.0,0.25,50,95,untitled,7,15
182.75,182.875,0.125,66,95,untitled,7,15
182.75,182.875,0.125,69,95,untitled,7,15
182.875,183.125,0.25,54,95,untitled,7,15
183.125,183.25,0.125,66,95,untitled,7,15
183.125,183.25,0.125,69,95,untitled,7,15
183.25,183.375,0.125,42,95,untitled,7,15
183.375,183.5,0.125,54,95,untitled,7,15
183.625,183.75,0.125,54,95,untitled,7,15
183.75,184.0,0.25,54,95,untitled,7,15
184.75,184.875,0.125,64,95,untitled,7,15
184.75,184.875,0.125,68,95,untitled,7,15
184.875,185.125,0.25,52,95,untitled,7,15
185.125,185.25,0.125,64,95,untitled,7,15
185.125,185.25,0.125,68,95,untitled,7,15
185.25,185.375,0.125,40,95,untitled,7,15
185.375,185.5,0.125,52,95,untitled,7,15
185.625,185.75,0.125,52,95,untitled,7,15
185.75,186.0,0.25,52,95,untitled,7,15
146.5,146.625,0.125,64,95,untitled,7,15
146.625,146.75,0.125,66,95,untitled,7,15
146.875,147.0,0.125,69,95,untitled,7,15
147.125,147.25,0.125,66,95,untitled,7,15
147.375,147.625,0.25,71,95,untitled,7,15
147.375,147.625,0.25,73,95,untitled,7,15
147.625,147.75,0.125,69,95,untitled,7,15
147.875,148.0,0.125,66,95,untitled,7,15
148.25,148.375,0.125,66,47,untitled,7,15
148.375,148.75,0.375,68,95,untitled,7,15
148.75,148.875,0.125,66,95,untitled,7,15
149.125,149.25,0.125,64,95,untitled,7,15
149.375,149.5,0.125,66,95,untitled,7,15
149.5,149.625,0.125,73,95,untitled,7,15
149.75,149.875,0.125,71,95,untitled,7,15
150.0,150.125,0.125,69,95,untitled,7,15
150.25,150.375,0.125,66,95,untitled,7,15
150.375,150.75,0.375,71,95,untitled,7,15
150.75,150.875,0.125,66,95,untitled,7,15
150.875,151.0,0.125,66,95,untitled,7,15
151.0,151.125,0.125,66,95,untitled,7,15
151.25,151.375,0.125,66,95,untitled,7,15
151.375,151.625,0.25,66,95,untitled,7,15
151.375,151.625,0.25,69,95,untitled,7,15
151.625,151.75,0.125,66,95,untitled,7,15
151.625,151.75,0.125,69,95,untitled,7,15
151.75,152.0,0.25,71,95,untitled,7,15
151.75,152.0,0.25,66,95,untitled,7,15
152.0,152.25,0.25,73,95,untitled,7,15
152.0,152.25,0.25,66,95,untitled,7,15
152.25,152.5,0.25,66,95,untitled,7,15
152.25,152.5,0.25,71,95,untitled,7,15
152.625,152.75,0.125,64,95,untitled,7,15
152.75,152.875,0.125,64,95,untitled,7,15
152.875,153.0,0.125,64,95,untitled,7,15
153.125,153.25,0.125,64,95,untitled,7,15
153.25,153.375,0.125,59,95,untitled,7,15
153.375,153.5,0.125,59,95,untitled,7,15
153.375,153.5,0.125,64,95,untitled,7,15
153.375,153.5,0.125,68,47,untitled,7,15
153.625,153.75,0.125,58,95,untitled,7,15
153.625,153.75,0.125,64,95,untitled,7,15
153.625,153.75,0.125,68,47,untitled,7,15
153.75,153.875,0.125,59,95,untitled,7,15
153.875,154.0,0.125,61,95,untitled,7,15
154.0,154.125,0.125,64,95,untitled,7,15
154.25,154.375,0.125,66,95,untitled,7,15
154.375,154.75,0.375,69,95,untitled,7,15
154.75,154.875,0.125,66,95,untitled,7,15
155.375,155.625,0.25,57,95,untitled,7,15
155.375,155.625,0.25,66,47,untitled,7,15
155.375,155.625,0.25,62,95,untitled,7,15
155.625,155.75,0.125,57,95,untitled,7,15
155.625,155.75,0.125,62,95,untitled,7,15
155.625,155.75,0.125,66,47,untitled,7,15
155.75,156.0,0.25,62,95,untitled,7,15
155.75,156.0,0.25,66,47,untitled,7,15
155.75,156.0,0.25,57,95,untitled,7,15
156.0,156.25,0.25,69,47,untitled,7,15
156.0,156.25,0.25,62,95,untitled,7,15
156.0,156.25,0.25,66,95,untitled,7,15
156.25,156.5,0.25,69,47,untitled,7,15
156.25,156.5,0.25,62,95,untitled,7,15
156.25,156.5,0.25,66,95,untitled,7,15
156.5,156.75,0.25,66,95,untitled,7,15
156.75,156.875,0.125,66,95,untitled,7,15
156.875,157.0,0.125,62,95,untitled,7,15
157.125,157.25,0.125,62,95,untitled,7,15
157.375,157.625,0.25,57,95,untitled,7,15
157.375,157.625,0.25,66,47,untitled,7,15
157.375,157.625,0.25,62,47,untitled,7,15
157.625,157.75,0.125,57,95,untitled,7,15
157.625,157.75,0.125,66,47,untitled,7,15
157.625,157.75,0.125,62,95,untitled,7,15
157.75,158.0,0.25,62,95,untitled,7,15
157.75,158.0,0.25,66,47,untitled,7,15
157.75,158.0,0.25,57,95,untitled,7,15
158.0,158.25,0.25,66,95,untitled,7,15
158.0,158.25,0.25,62,95,untitled,7,15
158.0,158.25,0.25,69,47,untitled,7,15
158.25,158.5,0.25,69,47,untitled,7,15
158.25,158.5,0.25,62,95,untitled,7,15
158.25,158.5,0.25,66,95,untitled,7,15
158.5,158.75,0.25,69,95,untitled,7,15
158.75,158.875,0.125,69,95,untitled,7,15
158.875,159.0,0.125,66,95,untitled,7,15
159.125,159.25,0.125,66,95,untitled,7,15
159.375,159.625,0.25,61,95,untitled,7,15
159.375,159.625,0.25,69,47,untitled,7,15
159.375,159.625,0.25,66,47,untitled,7,15
159.625,159.75,0.125,61,95,untitled,7,15
159.625,159.75,0.125,66,95,untitled,7,15
159.625,159.75,0.125,69,47,untitled,7,15
159.75,160.0,0.25,66,95,untitled,7,15
159.75,160.0,0.25,61,95,untitled,7,15
159.75,160.0,0.25,69,47,untitled,7,15
160.0,160.25,0.25,66,95,untitled,7,15
160.0,160.25,0.25,69,95,untitled,7,15
160.0,160.25,0.25,73,47,untitled,7,15
160.25,160.5,0.25,69,95,untitled,7,15
160.25,160.5,0.25,73,47,untitled,7,15
160.25,160.5,0.25,66,95,untitled,7,15
160.5,160.75,0.25,68,95,untitled,7,15
160.75,160.875,0.125,68,95,untitled,7,15
160.875,161.0,0.125,64,95,untitled,7,15
161.125,161.25,0.125,64,95,untitled,7,15
161.375,161.625,0.25,59,95,untitled,7,15
161.375,161.625,0.25,68,47,untitled,7,15
161.375,161.625,0.25,64,47,untitled,7,15
161.625,161.75,0.125,59,95,untitled,7,15
161.625,161.75,0.125,64,95,untitled,7,15
161.625,161.75,0.125,68,47,untitled,7,15
161.75,162.0,0.25,59,95,untitled,7,15
161.75,162.0,0.25,68,47,untitled,7,15
161.75,162.0,0.25,64,95,untitled,7,15
162.0,162.25,0.25,68,95,untitled,7,15
162.0,162.25,0.25,64,95,untitled,7,15
162.0,162.25,0.25,71,47,untitled,7,15
162.25,162.375,0.125,64,95,untitled,7,15
162.25,162.375,0.125,68,95,untitled,7,15
162.25,162.375,0.125,71,47,untitled,7,15
162.375,162.75,0.375,69,95,untitled,7,15
162.75,162.875,0.125,66,95,untitled,7,15
163.375,163.625,0.25,57,95,untitled,7,15
163.375,163.625,0.25,66,47,untitled,7,15
163.375,163.625,0.25,62,95,untitled,7,15
163.625,163.75,0.125,57,95,untitled,7,15
163.625,163.75,0.125,62,95,untitled,7,15
163.625,163.75,0.125,66,47,untitled,7,15
163.75,164.0,0.25,62,95,untitled,7,15
163.75,164.0,0.25,66,47,untitled,7,15
163.75,164.0,0.25,57,95,untitled,7,15
164.0,164.25,0.25,69,47,untitled,7,15
164.0,164.25,0.25,62,95,untitled,7,15
164.0,164.25,0.25,66,95,untitled,7,15
164.25,164.5,0.25,69,47,untitled,7,15
164.25,164.5,0.25,62,95,untitled,7,15
164.25,164.5,0.25,66,95,untitled,7,15
164.5,164.75,0.25,66,95,untitled,7,15
164.75,164.875,0.125,66,95,untitled,7,15
164.875,165.0,0.125,62,95,untitled,7,15
165.125,165.25,0.125,62,95,untitled,7,15
165.375,165.625,0.25,57,95,untitled,7,15
165.375,165.625,0.25,66,47,untitled,7,15
165.375,165.625,0.25,62,47,untitled,7,15
165.625,165.75,0.125,57,95,untitled,7,15
165.625,165.75,0.125,66,47,untitled,7,15
165.625,165.75,0.125,62,95,untitled,7,15
165.75,166.0,0.25,62,95,untitled,7,15
165.75,166.0,0.25,66,47,untitled,7,15
165.75,166.0,0.25,57,95,untitled,7,15
166.0,166.25,0.25,66,95,untitled,7,15
166.0,166.25,0.25,62,95,untitled,7,15
166.0,166.25,0.25,69,47,untitled,7,15
166.25,166.5,0.25,62,95,untitled,7,15
166.25,166.5,0.25,66,95,untitled,7,15
166.25,166.5,0.25,69,47,untitled,7,15
166.5,166.75,0.25,69,95,untitled,7,15
166.75,166.875,0.125,69,95,untitled,7,15
166.875,167.0,0.125,66,95,untitled,7,15
167.125,167.25,0.125,66,95,untitled,7,15
167.375,167.625,0.25,61,95,untitled,7,15
167.375,167.625,0.25,69,47,untitled,7,15
167.375,167.625,0.25,66,47,untitled,7,15
167.625,167.75,0.125,61,95,untitled,7,15
167.625,167.75,0.125,66,95,untitled,7,15
167.625,167.75,0.125,69,47,untitled,7,15
167.75,168.0,0.25,66,95,untitled,7,15
167.75,168.0,0.25,61,95,untitled,7,15
167.75,168.0,0.25,69,47,untitled,7,15
168.0,168.25,0.25,66,95,untitled,7,15
168.0,168.25,0.25,69,95,untitled,7,15
168.0,168.25,0.25,73,47,untitled,7,15
168.25,168.5,0.25,69,95,untitled,7,15
168.25,168.5,0.25,73,47,untitled,7,15
168.25,168.5,0.25,66,95,untitled,7,15
168.5,168.75,0.25,68,95,untitled,7,15
168.75,168.875,0.125,68,95,untitled,7,15
168.875,169.0,0.125,64,95,untitled,7,15
169.125,169.25,0.125,64,95,untitled,7,15
169.375,169.625,0.25,59,95,untitled,7,15
169.375,169.625,0.25,68,47,untitled,7,15
169.375,169.625,0.25,64,47,untitled,7,15
169.625,169.75,0.125,59,95,untitled,7,15
169.625,169.75,0.125,64,95,untitled,7,15
169.625,169.75,0.125,68,47,untitled,7,15
169.75,170.0,0.25,59,95,untitled,7,15
169.75,170.0,0.25,68,47,untitled,7,15
169.75,170.0,0.25,64,95,untitled,7,15
170.0,170.25,0.25,68,95,untitled,7,15
170.0,170.25,0.25,64,95,untitled,7,15
170.0,170.25,0.25,71,47,untitled,7,15
170.25,170.5,0.25,64,95,untitled,7,15
170.25,170.5,0.25,68,95,untitled,7,15
170.25,170.5,0.25,71,47,untitled,7,15
170.5,170.75,0.25,66,95,untitled,7,15
170.75,170.875,0.125,66,95,untitled,7,15
170.875,171.0,0.125,62,95,untitled,7,15
171.125,171.25,0.125,62,95,untitled,7,15
171.375,171.625,0.25,66,47,untitled,7,15
171.375,171.625,0.25,62,47,untitled,7,15
171.375,171.625,0.25,57,95,untitled,7,15
171.625,171.75,0.125,57,95,untitled,7,15
171.625,171.75,0.125,66,47,untitled,7,15
171.625,171.75,0.125,62,95,untitled,7,15
171.75,172.0,0.25,57,95,untitled,7,15
171.75,172.0,0.25,62,95,untitled,7,15
171.75,172.0,0.25,66,47,untitled,7,15
172.0,172.25,0.25,66,95,untitled,7,15
172.0,172.25,0.25,69,47,untitled,7,15
172.0,172.25,0.25,62,95,untitled,7,15
172.25,172.5,0.25,62,95,untitled,7,15
172.25,172.5,0.25,66,95,untitled,7,15
172.25,172.5,0.25,69,47,untitled,7,15
172.5,172.75,0.25,66,95,untitled,7,15
172.75,172.875,0.125,66,95,untitled,7,15
172.875,173.0,0.125,62,95,untitled,7,15
173.125,173.25,0.125,62,95,untitled,7,15
173.375,173.625,0.25,62,47,untitled,7,15
173.375,173.625,0.25,66,47,untitled,7,15
173.375,173.625,0.25,57,95,untitled,7,15
173.625,173.75,0.125,57,95,untitled,7,15
173.625,173.75,0.125,66,47,untitled,7,15
173.625,173.75,0.125,62,95,untitled,7,15
173.75,174.0,0.25,62,95,untitled,7,15
173.75,174.0,0.25,66,47,untitled,7,15
173.75,174.0,0.25,57,95,untitled,7,15
174.0,174.25,0.25,69,47,untitled,7,15
174.0,174.25,0.25,66,95,untitled,7,15
174.0,174.25,0.25,62,95,untitled,7,15
174.25,174.5,0.25,62,95,untitled,7,15
174.25,174.5,0.25,69,47,untitled,7,15
174.25,174.5,0.25,66,95,untitled,7,15
174.5,174.75,0.25,69,95,untitled,7,15
174.75,174.875,0.125,69,95,untitled,7,15
174.875,175.0,0.125,66,95,untitled,7,15
175.125,175.25,0.125,66,95,untitled,7,15
175.375,175.625,0.25,61,95,untitled,7,15
175.375,175.625,0.25,66,47,untitled,7,15
175.375,175.625,0.25,69,47,untitled,7,15
175.625,175.75,0.125,66,95,untitled,7,15
175.625,175.75,0.125,69,47,untitled,7,15
175.625,175.75,0.125,61,95,untitled,7,15
175.75,176.0,0.25,66,95,untitled,7,15
175.75,176.0,0.25,69,47,untitled,7,15
175.75,176.0,0.25,61,95,untitled,7,15
176.0,176.25,0.25,73,47,untitled,7,15
176.0,176.25,0.25,69,95,untitled,7,15
176.0,176.25,0.25,66,95,untitled,7,15
176.25,176.5,0.25,66,95,untitled,7,15
176.25,176.5,0.25,73,47,untitled,7,15
176.25,176.5,0.25,69,95,untitled,7,15
176.5,176.75,0.25,68,95,untitled,7,15
176.75,176.875,0.125,68,95,untitled,7,15
176.875,177.0,0.125,64,95,untitled,7,15
177.125,177.25,0.125,64,95,untitled,7,15
177.375,177.625,0.25,59,95,untitled,7,15
177.375,177.625,0.25,68,47,untitled,7,15
177.375,177.625,0.25,64,47,untitled,7,15
177.625,177.75,0.125,59,95,untitled,7,15
177.625,177.75,0.125,68,47,untitled,7,15
177.625,177.75,0.125,64,95,untitled,7,15
177.75,178.0,0.25,64,95,untitled,7,15
177.75,178.0,0.25,59,95,untitled,7,15
177.75,178.0,0.25,68,47,untitled,7,15
178.0,178.25,0.25,68,95,untitled,7,15
178.0,178.25,0.25,64,95,untitled,7,15
178.0,178.25,0.25,71,47,untitled,7,15
178.25,178.5,0.25,64,95,untitled,7,15
178.25,178.5,0.25,71,47,untitled,7,15
178.25,178.5,0.25,68,95,untitled,7,15
178.5,178.75,0.25,66,95,untitled,7,15
178.75,178.875,0.125,66,95,untitled,7,15
178.875,179.0,0.125,62,95,untitled,7,15
179.125,179.25,0.125,62,95,untitled,7,15
179.375,179.625,0.25,66,47,untitled,7,15
179.375,179.625,0.25,62,47,untitled,7,15
179.375,179.625,0.25,57,95,untitled,7,15
179.625,179.75,0.125,57,95,untitled,7,15
179.625,179.75,0.125,66,47,untitled,7,15
179.625,179.75,0.125,62,95,untitled,7,15
179.75,180.0,0.25,57,95,untitled,7,15
179.75,180.0,0.25,62,95,untitled,7,15
179.75,180.0,0.25,66,47,untitled,7,15
180.0,180.25,0.25,66,95,untitled,7,15
180.0,180.25,0.25,69,47,untitled,7,15
180.0,180.25,0.25,62,95,untitled,7,15
180.25,180.5,0.25,62,95,untitled,7,15
180.25,180.5,0.25,66,95,untitled,7,15
180.25,180.5,0.25,69,47,untitled,7,15
180.5,180.75,0.25,66,95,untitled,7,15
180.75,180.875,0.125,66,95,untitled,7,15
180.875,181.0,0.125,62,95,untitled,7,15
181.125,181.25,0.125,62,95,untitled,7,15
181.375,181.625,0.25,62,47,untitled,7,15
181.375,181.625,0.25,66,47,untitled,7,15
181.375,181.625,0.25,57,95,untitled,7,15
181.625,181.75,0.125,57,95,untitled,7,15
181.625,181.75,0.125,66,47,untitled,7,15
181.625,181.75,0.125,62,95,untitled,7,15
181.75,182.0,0.25,62,95,untitled,7,15
181.75,182.0,0.25,66,47,untitled,7,15
181.75,182.0,0.25,57,95,untitled,7,15
182.0,182.25,0.25,69,47,untitled,7,15
182.0,182.25,0.25,66,95,untitled,7,15
182.0,182.25,0.25,62,95,untitled,7,15
182.25,182.5,0.25,62,95,untitled,7,15
182.25,182.5,0.25,69,47,untitled,7,15
182.25,182.5,0.25,66,95,untitled,7,15
182.5,182.75,0.25,69,95,untitled,7,15
182.75,182.875,0.125,69,95,untitled,7,15
182.875,183.0,0.125,66,95,untitled,7,15
183.125,183.25,0.125,66,95,untitled,7,15
183.375,183.625,0.25,61,95,untitled,7,15
183.375,183.625,0.25,66,47,untitled,7,15
183.375,183.625,0.25,69,47,untitled,7,15
183.625,183.75,0.125,66,95,untitled,7,15
183.625,183.75,0.125,69,47,untitled,7,15
183.625,183.75,0.125,61,95,untitled,7,15
183.75,184.0,0.25,66,95,untitled,7,15
183.75,184.0,0.25,61,95,untitled,7,15
183.75,184.0,0.25,69,47,untitled,7,15
184.0,184.25,0.25,73,47,untitled,7,15
184.0,184.25,0.25,69,95,untitled,7,15
184.0,184.25,0.25,66,95,untitled,7,15
184.25,184.5,0.25,66,95,untitled,7,15
184.25,184.5,0.25,73,47,untitled,7,15
184.25,184.5,0.25,69,95,untitled,7,15
184.5,184.75,0.25,68,95,untitled,7,15
184.75,184.875,0.125,68,95,untitled,7,15
184.875,185.0,0.125,64,95,untitled,7,15
185.125,185.25,0.125,64,95,untitled,7,15
185.375,185.625,0.25,59,95,untitled,7,15
185.375,185.625,0.25,68,47,untitled,7,15
185.375,185.625,0.25,64,47,untitled,7,15
185.625,185.75,0.125,59,95,untitled,7,15
185.625,185.75,0.125,68,47,untitled,7,15
185.625,185.75,0.125,64,95,untitled,7,15
185.75,186.0,0.25,64,95,untitled,7,15
185.75,186.0,0.25,59,95,untitled,7,15
185.75,186.0,0.25,68,47,untitled,7,15
186.0,186.25,0.25,68,95,untitled,7,15
186.0,186.25,0.25,64,95,untitled,7,15
186.0,186.25,0.25,71,47,untitled,7,15
186.25,186.5,0.25,64,95,untitled,7,15
186.25,186.5,0.25,68,95,untitled,7,15
186.25,186.5,0.25,71,47,untitled,7,15
218.5,220.25,1.75,66,95,untitled,35,16
220.25,222.5,2.25,69,95,untitled,35,16
222.5,222.625,0.125,73,95,untitled,35,16
222.625,222.75,0.125,76,95,untitled,35,16
222.75,222.875,0.125,73,95,untitled,35,16
222.875,223.0,0.125,69,95,untitled,35,16
223.0,223.125,0.125,73,95,untitled,35,16
223.125,223.25,0.125,69,95,untitled,35,16
223.25,223.375,0.125,66,95,untitled,35,16
223.375,223.5,0.125,69,95,untitled,35,16
223.5,223.625,0.125,66,95,untitled,35,16
223.625,223.75,0.125,64,95,untitled,35,16
223.75,223.875,0.125,66,95,untitled,35,16
223.875,224.0,0.125,69,95,untitled,35,16
224.0,224.125,0.125,73,95,untitled,35,16
224.25,226.5,2.25,71,95,untitled,35,16
226.5,228.25,1.75,66,95,untitled,35,16
228.25,230.5,2.25,69,95,untitled,35,16
230.5,230.625,0.125,73,95,untitled,35,16
230.625,230.75,0.125,76,95,untitled,35,16
230.75,230.875,0.125,73,95,untitled,35,16
230.875,231.0,0.125,69,95,untitled,35,16
231.0,231.125,0.125,73,95,untitled,35,16
231.125,231.25,0.125,69,95,untitled,35,16
231.25,231.375,0.125,66,95,untitled,35,16
231.375,231.5,0.125,69,95,untitled,35,16
231.5,231.625,0.125,66,95,untitled,35,16
231.625,231.75,0.125,64,95,untitled,35,16
231.75,231.875,0.125,66,95,untitled,35,16
231.875,232.0,0.125,69,95,untitled,35,16
232.0,232.125,0.125,73,95,untitled,35,16
232.25,234.5,2.25,71,95,untitled,35,16
234.5,236.25,1.75,66,95,untitled,35,16
236.25,238.5,2.25,69,95,untitled,35,16
238.5,238.625,0.125,73,95,untitled,35,16
238.625,238.75,0.125,76,95,untitled,35,16
238.75,238.875,0.125,73,95,untitled,35,16
238.875,239.0,0.125,69,95,untitled,35,16
239.0,239.125,0.125,73,95,untitled,35,16
239.125,239.25,0.125,69,95,untitled,35,16
239.25,239.375,0.125,66,95,untitled,35,16
239.375,239.5,0.125,69,95,untitled,35,16
239.5,239.625,0.125,66,95,untitled,35,16
239.625,239.75,0.125,64,95,untitled,35,16
239.75,239.875,0.125,66,95,untitled,35,16
239.875,240.0,0.125,69,95,untitled,35,16
240.0,240.125,0.125,73,95,untitled,35,16
240.25,242.5,2.25,71,95,untitled,35,16
