start,end,duration,pitch,velocity,instrument,instr program,midi channel
1.496,2.61,1.115,59,33,,0,0
1.496,2.61,1.115,66,35,,0,0
1.496,2.61,1.115,62,33,,0,0
1.321,2.696,1.375,43,54,,0,0
3.811,5.183,1.372,61,27,,0,0
3.811,5.183,1.372,66,29,,0,0
3.811,5.183,1.372,57,27,,0,0
2.954,5.268,2.315,38,46,,0,0
6.34,7.114,0.773,59,31,,0,0
6.34,7.114,0.773,66,33,,0,0
6.34,7.114,0.773,62,31,,0,0
5.526,7.199,1.674,43,43,,0,0
8.378,10.115,1.737,57,21,,0,0
8.378,10.115,1.737,66,23,,0,0
8.378,10.115,1.737,61,21,,0,0
7.457,10.223,2.767,38,39,,0,0
11.538,11.979,0.441,78,66,,0,0
11.517,12.493,0.976,59,41,,0,0
11.517,12.493,0.976,66,41,,0,0
11.517,12.493,0.976,62,41,,0,0
10.536,12.579,2.043,43,54,,0,0
11.997,12.818,0.821,81,74,,0,0
12.854,13.684,0.83,79,71,,0,0
13.711,14.507,0.796,78,63,,0,0
13.693,15.052,1.359,57,32,,0,0
13.693,15.052,1.359,66,32,,0,0
13.693,15.052,1.359,61,32,,0,0
12.836,15.151,2.315,38,50,,0,0
14.526,15.439,0.914,73,52,,0,0
15.459,16.215,0.756,71,47,,0,0
16.125999999999998,17.078,0.953,73,58,,0,0
16.107,17.489,1.382,59,35,,0,0
16.107,17.489,1.382,66,35,,0,0
16.107,17.489,1.382,62,35,,0,0
15.44,17.543,2.103,43,45,,0,0
16.986,17.802,0.815,74,64,,0,0
18.531,20.016,1.485,61,28,,0,0
18.531,20.016,1.485,66,28,,0,0
18.531,20.016,1.485,57,28,,0,0
17.802,20.089,2.287,38,36,,0,0
17.82,20.181,2.361,69,56,,0,0
20.164,20.424,0.26,66,35,,0,0
20.424,21.795,1.371,59,27,,0,0
20.424,21.795,1.371,62,27,,0,0
20.164,21.881,1.717,43,38,,0,0
20.424,22.995,2.571,66,48,,0,0
22.995,24.366,1.371,57,25,,0,0
22.995,24.366,1.371,61,25,,0,0
22.138,24.452,2.314,38,37,,0,0
22.995,25.267,2.272,66,33,,0,0
25.267,26.303,1.035,59,20,,0,0
25.267,26.303,1.035,62,20,,0,0
24.709,26.393,1.684,43,41,,0,0
25.267,27.608,2.341,66,35,,0,0
26.677,29.259,2.582,38,33,,0,0
27.608,29.446,1.839,57,22,,0,0
27.608,29.446,1.839,66,28,,0,0
27.608,29.446,1.839,61,22,,0,0
30.519,31.358,0.839,78,56,,0,0
30.501,31.872,1.371,59,33,,0,0
30.501,31.872,1.371,66,34,,0,0
30.501,31.872,1.371,62,33,,0,0
29.588,31.958,2.37,43,42,,0,0
31.376,32.215,0.839,81,65,,0,0
32.233000000000004,33.071,0.839,79,61,,0,0
33.09,33.856,0.766,78,51,,0,0
33.072,34.432,1.36,61,27,,0,0
33.072,34.432,1.36,66,29,,0,0
33.072,34.432,1.36,57,27,,0,0
32.215,34.531,2.316,38,33,,0,0
33.876,34.764,0.888,73,45,,0,0
34.782,35.548,0.766,71,42,,0,0
35.566,36.404,0.839,73,50,,0,0
35.548,36.792,1.244,59,29,,0,0
35.548,36.792,1.244,66,31,,0,0
35.548,36.792,1.244,62,29,,0,0
34.764,36.806,2.042,43,41,,0,0
36.423,37.048,0.626,74,57,,0,0
37.905,39.314,1.409,61,22,,0,0
37.905,39.314,1.409,66,24,,0,0
37.905,39.314,1.409,57,22,,0,0
37.048,39.407,2.359,38,31,,0,0
37.067,39.704,2.638,69,46,,0,0
40.547,41.747,1.2,57,32,,0,0
40.547,41.747,1.2,66,34,,0,0
40.547,41.747,1.2,61,32,,0,0
39.686,41.833,2.147,42,43,,0,0
39.704,42.108,2.404,73,63,,0,0
42.109,43.399,1.291,78,72,,0,0
42.948,44.539,1.591,59,26,,0,0
42.948,44.539,1.591,66,38,,0,0
42.948,44.539,1.591,62,26,,0,0
42.091,44.656,2.566,35,47,,0,0
45.745,47.116,1.371,59,25,,0,0
45.745,47.116,1.371,55,25,,0,0
44.888,47.201,2.314,40,37,,0,0
48.145,49.517,1.372,59,31,,0,0
48.145,49.517,1.372,67,37,,0,0
48.145,49.517,1.372,62,31,,0,0
47.459,49.603,2.144,40,44,,0,0
44.906,51.349,6.444,64,38,,0,0
50.568,52.052,1.484,53,24,,0,0
50.568,52.052,1.484,62,29,,0,0
50.568,52.052,1.484,57,24,,0,0
49.753,52.159,2.406,38,33,,0,0
52.46,53.159,0.698,69,53,,0,0
53.179,53.973,0.794,71,63,,0,0
53.157,54.358,1.201,60,30,,0,0
53.157,54.358,1.201,64,36,,0,0
53.157,54.358,1.201,57,30,,0,0
52.44,54.444,2.004,33,40,,0,0
53.991,54.703,0.712,72,69,,0,0
54.721,55.474,0.754,76,74,,0,0
55.492,56.332,0.84,74,61,,0,0
55.472,56.865,1.393,55,31,,0,0
55.472,56.865,1.393,64,37,,0,0
55.472,56.865,1.393,59,31,,0,0
54.701,56.948,2.248,38,45,,0,0
56.351,57.166,0.815,71,52,,0,0
57.184,58.009,0.825,74,63,,0,0
58.029,58.875,0.846,72,55,,0,0
58.007,59.462,1.455,59,26,,0,0
58.007,59.462,1.455,52,28,,0,0
58.007,59.462,1.455,64,32,,0,0
58.007,59.462,1.455,55,26,,0,0
57.164,59.549,2.386,38,39,,0,0
58.896,59.808,0.912,71,51,,0,0
60.536,61.908,1.372,57,26,,0,0
60.536,61.908,1.372,62,46,,0,0
60.536,61.908,1.372,52,26,,0,0
60.536,61.908,1.372,48,26,,0,0
59.807,61.994,2.187,38,46,,0,0
59.827,64.31,4.483,74,58,,0,0
63.141,64.847,1.706,57,18,,0,0
63.141,64.847,1.706,62,28,,0,0
63.141,64.847,1.706,54,18,,0,0
63.141,64.847,1.706,48,18,,0,0
62.251,64.938,2.687,38,41,,0,0
64.31,65.199,0.889,74,64,,0,0
65.217,66.013,0.796,76,69,,0,0
66.032,66.829,0.797,77,75,,0,0
66.012,67.279,1.267,57,31,,0,0
66.012,67.279,1.267,65,38,,0,0
66.012,67.279,1.267,60,31,,0,0
65.197,67.373,2.176,38,48,,0,0
66.847,67.668,0.821,79,80,,0,0
67.692,68.679,0.987,81,85,,0,0
68.697,69.535,0.839,72,50,,0,0
68.677,70.047,1.371,60,26,,0,0
68.677,70.047,1.371,64,35,,0,0
68.677,70.047,1.371,57,26,,0,0
67.667,70.133,2.467,38,51,,0,0
69.554,70.404,0.851,74,56,,0,0
70.425,71.335,0.91,76,63,,0,0
71.353,72.206,0.854,74,54,,0,0
71.333,72.752,1.419,59,21,,0,0
71.333,72.752,1.419,55,21,,0,0
71.333,72.752,1.419,64,34,,0,0
71.333,72.752,1.419,50,21,,0,0
70.403,72.845,2.443,38,42,,0,0
72.225,73.152,0.927,71,47,,0,0
73.979,75.334,1.356,57,18,,0,0
73.979,75.334,1.356,62,36,,0,0
73.979,75.334,1.356,48,18,,0,0
73.979,75.334,1.356,52,18,,0,0
73.15,75.428,2.278,38,37,,0,0
73.169,77.745,4.577,74,56,,0,0
76.676,78.288,1.612,57,19,,0,0
76.676,78.288,1.612,62,28,,0,0
76.676,78.288,1.612,48,19,,0,0
76.676,78.288,1.612,54,19,,0,0
75.707,78.381,2.674,38,36,,0,0
77.746,78.644,0.898,74,65,,0,0
79.499,80.87,1.371,59,32,,0,0
79.499,80.87,1.371,64,32,,0,0
79.499,80.87,1.371,67,48,,0,0
78.643,80.956,2.314,40,48,,0,0
78.662,81.234,2.572,79,79,,0,0
81.943,83.544,1.602,61,32,,0,0
81.943,83.544,1.602,57,32,,0,0
81.943,83.544,1.602,66,48,,0,0
81.214,83.662,2.449,42,39,,0,0
81.234,84.046,2.812,78,71,,0,0
84.046,84.917,0.871,71,46,,0,0
84.933,85.772,0.839,69,41,,0,0
84.916,86.286,1.371,59,18,,0,0
84.916,86.286,1.371,66,35,,0,0
84.916,86.286,1.371,62,18,,0,0
84.019,86.372,2.354,35,38,,0,0
85.794,86.505,0.711,71,48,,0,0
86.523,87.362,0.839,73,53,,0,0
87.38,88.169,0.789,74,60,,0,0
87.358,88.738,1.379,61,24,,0,0
87.358,88.738,1.379,64,24,,0,0
86.502,88.83,2.329,40,39,,0,0
87.358,89.078,1.719,69,40,,0,0
88.19,89.096,0.906,76,67,,0,0
89.119,89.982,0.862,73,47,,0,0
90.001,90.883,0.882,74,49,,0,0
89.979,91.469,1.49,66,23,,0,0
89.979,91.469,1.49,61,23,,0,0
89.979,91.469,1.49,69,39,,0,0
89.979,91.469,1.49,57,35,,0,0
89.096,91.567,2.471,40,36,,0,0
90.904,91.84,0.936,76,53,,0,0
92.749,93.758,1.009,47,34,,0,0
92.749,93.758,1.009,57,34,,0,0
92.749,93.791,1.042,62,47,,0,0
91.837,94.557,2.72,40,37,,0,0
93.791,94.807,1.016,67,40,,0,0
93.791,94.817,1.026,59,32,,0,0
93.791,94.817,1.026,52,32,,0,0
93.791,94.817,1.026,62,32,,0,0
94.847,97.377,2.53,55,45,,0,0
94.847,97.377,2.53,45,51,,0,0
91.859,97.686,5.828,69,44,,0,0
94.852,97.812,2.96,60,50,,0,0
94.854,97.816,2.961,64,50,,0,0
94.884,97.841,2.957,72,68,,0,0
97.82,100.362,2.543,74,52,,0,0
97.812,100.422,2.61,62,34,,0,0
97.82,100.427,2.607,69,28,,0,0
97.82,100.427,2.607,66,28,,0,0
97.791,100.736,2.946,38,30,,0,0
97.802,100.742,2.941,45,22,,0,0
97.812,100.748,2.936,50,24,,0,0
101.886,103.258,1.372,62,31,,0,0
101.886,103.258,1.372,59,31,,0,0
101.886,103.258,1.372,66,35,,0,0
101.029,103.343,2.315,43,43,,0,0
104.458,105.829,1.371,57,25,,0,0
104.458,105.829,1.371,66,25,,0,0
104.458,105.829,1.371,61,25,,0,0
103.601,105.914,2.314,38,34,,0,0
107.029,108.438,1.409,59,31,,0,0
107.029,108.438,1.409,66,35,,0,0
107.029,108.438,1.409,62,31,,0,0
106.172,108.535,2.364,43,40,,0,0
109.85,111.469,1.619,57,26,,0,0
109.85,111.469,1.619,66,26,,0,0
109.85,111.469,1.619,61,26,,0,0
108.837,111.569,2.732,38,35,,0,0
112.833,113.592,0.759,78,64,,0,0
112.807,114.123,1.317,66,32,,0,0
112.807,114.123,1.317,59,32,,0,0
112.807,114.123,1.317,62,32,,0,0
111.874,114.211,2.337,43,44,,0,0
113.611,114.476,0.865,81,73,,0,0
114.494,115.247,0.754,79,73,,0,0
115.266,116.105,0.84,78,63,,0,0
115.241,116.612,1.372,66,26,,0,0
115.241,116.612,1.372,61,26,,0,0
115.241,116.612,1.372,57,26,,0,0
114.469,116.697,2.229,38,30,,0,0
116.122,116.962,0.84,73,54,,0,0
116.98,117.837,0.857,71,48,,0,0
117.837,118.709,0.872,73,55,,0,0
117.812,119.246,1.433,59,26,,0,0
117.812,119.246,1.433,62,26,,0,0
117.812,119.246,1.433,66,34,,0,0
116.955,119.299,2.344,43,37,,0,0
118.709,119.584,0.875,74,60,,0,0
120.418,121.925,1.507,66,34,,0,0
120.418,121.925,1.507,61,28,,0,0
120.418,121.925,1.507,57,28,,0,0
119.56,122.03,2.47,38,32,,0,0
119.585,122.298,2.714,69,56,,0,0
122.298,123.141,0.843,66,33,,0,0
123.141,124.512,1.371,59,33,,0,0
123.141,124.512,1.371,66,43,,0,0
123.141,124.512,1.371,62,33,,0,0
122.272,124.598,2.326,43,27,,0,0
125.712,127.095,1.383,66,34,,0,0
125.712,127.095,1.383,61,20,,0,0
125.712,127.095,1.383,57,20,,0,0
124.855,127.188,2.333,38,34,,0,0
127.603,129.115,1.512,62,29,,0,0
127.603,129.115,1.512,59,29,,0,0
127.603,129.115,1.512,66,43,,0,0
127.473,129.211,1.737,43,44,,0,0
130.453,132.163,1.71,66,29,,0,0
130.453,132.163,1.71,57,17,,0,0
130.453,132.163,1.71,61,17,,0,0
129.498,132.284,2.786,38,31,,0,0
133.505,134.426,0.921,78,45,,0,0
133.479,134.979,1.5,66,26,,0,0
133.479,134.979,1.5,62,26,,0,0
133.479,134.979,1.5,59,26,,0,0
132.571,135.034,2.464,43,29,,0,0
134.426,135.141,0.715,81,52,,0,0
135.141,135.997,0.857,79,53,,0,0
135.998,136.855,0.857,78,48,,0,0
135.973,137.345,1.372,57,26,,0,0
135.973,137.345,1.372,61,26,,0,0
135.973,137.345,1.372,66,26,,0,0
135.116,137.429,2.314,38,24,,0,0
136.855,137.712,0.858,73,42,,0,0
137.712,138.569,0.857,71,37,,0,0
138.57,139.427,0.857,73,48,,0,0
138.545,139.955,1.41,59,26,,0,0
138.545,139.955,1.41,66,26,,0,0
138.545,139.955,1.41,62,26,,0,0
137.688,140.045,2.358,43,29,,0,0
139.427,140.329,0.903,74,52,,0,0
141.162,142.533,1.371,61,19,,0,0
141.162,142.533,1.371,57,19,,0,0
141.162,142.533,1.371,66,22,,0,0
140.305,142.619,2.315,38,19,,0,0
140.33,142.902,2.572,69,53,,0,0
143.734,145.058,1.324,57,31,,0,0
143.734,145.058,1.324,66,33,,0,0
143.734,145.058,1.324,61,31,,0,0
142.877,145.171,2.294,42,42,,0,0
142.902,145.509,2.607,73,62,,0,0
146.342,147.848,1.507,59,28,,0,0
146.342,147.848,1.507,66,44,,0,0
146.342,147.848,1.507,62,28,,0,0
145.484,147.938,2.454,35,46,,0,0
145.509,148.138,2.629,78,73,,0,0
148.97,150.341,1.371,59,32,,0,0
148.97,150.341,1.371,55,24,,0,0
148.113,150.427,2.314,40,32,,0,0
151.2,152.612,1.413,59,30,,0,0
151.2,152.612,1.413,67,47,,0,0
151.2,152.612,1.413,62,30,,0,0
150.61,152.703,2.092,40,44,,0,0
153.911,155.51,1.599,53,21,,0,0
153.911,155.51,1.599,62,29,,0,0
153.911,155.51,1.599,57,21,,0,0
152.981,155.599,2.619,38,35,,0,0
148.138,155.83,7.692,64,35,,0,0
155.885,156.614,0.729,69,48,,0,0
156.614,157.428,0.814,71,60,,0,0
156.589,157.871,1.283,57,28,,0,0
156.589,157.871,1.283,64,36,,0,0
156.589,157.871,1.283,60,28,,0,0
155.86,157.961,2.102,33,45,,0,0
157.428,158.246,0.818,72,69,,0,0
158.247,159.104,0.857,76,78,,0,0
159.104,159.981,0.878,74,63,,0,0
159.079,160.504,1.426,59,31,,0,0
159.079,160.504,1.426,64,42,,0,0
159.079,160.504,1.426,55,31,,0,0
158.222,160.591,2.369,38,49,,0,0
159.982,160.872,0.891,71,57,,0,0
160.873,161.772,0.899,74,65,,0,0
161.772,162.629,0.857,72,62,,0,0
161.747,163.15,1.403,59,21,,0,0
161.747,163.15,1.403,52,21,,0,0
161.747,163.15,1.403,64,40,,0,0
161.747,163.15,1.403,55,21,,0,0
160.848,163.24,2.392,38,41,,0,0
162.629,163.524,0.895,71,54,,0,0
164.356,165.727,1.371,57,19,,0,0
164.356,165.727,1.371,62,42,,0,0
164.356,165.727,1.371,48,19,,0,0
164.356,165.727,1.371,52,19,,0,0
163.499,165.813,2.314,38,43,,0,0
163.524,168.086,4.562,74,61,,0,0
166.991,168.665,1.674,57,15,,0,0
166.991,168.665,1.674,62,26,,0,0
166.991,168.665,1.674,54,15,,0,0
166.991,168.665,1.674,48,15,,0,0
166.07,168.747,2.677,38,34,,0,0
168.086,169.028,0.942,74,70,,0,0
169.029,169.843,0.814,76,79,,0,0
169.843,170.719,0.877,77,86,,0,0
169.818,171.251,1.433,57,31,,0,0
169.818,171.251,1.433,65,48,,0,0
169.818,171.251,1.433,60,31,,0,0
169.004,171.344,2.34,38,51,,0,0
170.72,171.669,0.949,79,89,,0,0
171.669,172.558,0.89,81,85,,0,0
172.662,173.497,0.835,72,52,,0,0
172.637,174.031,1.394,57,27,,0,0
172.637,174.031,1.394,64,42,,0,0
172.637,174.031,1.394,60,27,,0,0
171.636,174.122,2.486,38,41,,0,0
173.497,174.398,0.902,74,58,,0,0
174.399,175.244,0.845,76,63,,0,0
175.245,176.163,0.918,74,56,,0,0
175.204,176.68,1.476,59,23,,0,0
175.204,176.68,1.476,50,23,,0,0
175.204,176.68,1.476,64,38,,0,0
175.204,176.68,1.476,55,23,,0,0
174.374,176.77,2.396,38,41,,0,0
176.164,177.055,0.892,71,43,,0,0
177.888,179.924,2.037,57,18,,0,0
177.888,179.924,2.037,62,37,,0,0
177.888,179.924,2.037,52,18,,0,0
177.888,179.924,2.037,48,18,,0,0
177.03,180.017,2.987,38,40,,0,0
177.055,182.288,5.233,74,46,,0,0
181.227,182.881,1.655,57,16,,0,0
181.227,182.881,1.655,48,16,,0,0
181.227,182.881,1.655,54,16,,0,0
181.227,182.881,1.655,62,29,,0,0
180.296,182.968,2.672,38,32,,0,0
182.289,183.251,0.962,74,75,,0,0
184.083,185.454,1.371,59,36,,0,0
184.083,185.454,1.371,67,56,,0,0
184.083,185.454,1.371,64,36,,0,0
183.227,185.54,2.314,40,53,,0,0
183.252,185.822,2.571,79,89,,0,0
186.654,188.176,1.522,65,36,,0,0
186.654,188.176,1.522,69,56,,0,0
186.654,188.176,1.522,57,36,,0,0
186.654,188.176,1.522,62,36,,0,0
185.797,188.274,2.477,40,60,,0,0
185.822,188.583,2.761,77,75,,0,0
188.583,189.481,0.898,71,64,,0,0
189.481,190.338,0.857,72,76,,0,0
189.456,190.827,1.371,57,32,,0,0
189.456,190.827,1.371,65,42,,0,0
189.456,190.827,1.371,60,32,,0,0
188.556,190.913,2.357,40,60,,0,0
190.339,191.195,0.857,77,85,,0,0
191.195,192.052,0.857,76,82,,0,0
192.053,192.98,0.928,74,71,,0,0
192.028,193.578,1.551,64,32,,0,0
192.028,193.578,1.551,69,42,,0,0
192.028,193.578,1.551,60,32,,0,0
191.17,193.681,2.511,40,61,,0,0
192.98,194.063,1.083,72,63,,0,0
194.229,195.105,0.877,76,49,,0,0
195.105,196.034,0.929,74,44,,0,0
195.079,196.583,1.505,65,16,,0,0
195.079,196.583,1.505,60,16,,0,0
195.079,196.583,1.505,69,22,,0,0
195.079,196.583,1.505,57,16,,0,0
194.204,196.685,2.482,40,44,,0,0
196.034,197.573,1.539,72,42,,0,0
198.478,199.584,1.106,47,34,,0,0
198.478,199.584,1.106,62,44,,0,0
198.478,199.584,1.106,57,34,,0,0
197.574,201.38,3.806,65,48,,0,0
197.549,201.611,4.062,40,54,,0,0
200.112,201.735,1.623,59,34,,0,0
200.112,201.735,1.623,52,34,,0,0
200.112,201.735,1.623,67,46,,0,0
200.112,201.735,1.623,62,34,,0,0
205.416,208.451,3.035,45,40,,0,0
205.462,208.486,3.024,60,24,,0,0
205.462,208.522,3.06,55,30,,0,0
205.473,208.536,3.064,64,38,,0,0
205.489,208.561,3.073,69,30,,0,0
205.473,208.645,3.172,72,60,,0,0
211.422,214.882,3.459,38,33,,0,0
211.603,215.116,3.514,45,29,,0,0
211.603,215.116,3.514,65,23,,0,0
211.492,217.321,5.829,62,38,,0,0
211.748,217.351,5.603,50,29,,0,0
211.748,217.351,5.603,69,27,,0,0
211.765,217.376,5.611,74,45,,0,0
0.0,0.5,0.5,69,0,shadow,0,15
