start,end,duration,pitch,velocity,instrument,instr program,midi channel
1.709,3.08,1.371,59,33,,0,0
1.709,3.08,1.371,66,35,,0,0
1.709,3.08,1.371,62,33,,0,0
0.852,3.166,2.314,43,54,,0,0
4.2379999999999995,5.609,1.372,61,27,,0,0
4.2379999999999995,5.609,1.372,66,29,,0,0
4.2379999999999995,5.609,1.372,57,27,,0,0
3.423,5.679,2.256,38,46,,0,0
6.511,7.882,1.371,59,31,,0,0
6.511,7.882,1.371,66,33,,0,0
6.511,7.882,1.371,62,31,,0,0
5.867,7.968,2.101,43,43,,0,0
8.932,10.115,1.183,57,21,,0,0
8.932,10.115,1.183,66,23,,0,0
8.932,10.115,1.183,61,21,,0,0
8.225,10.224,1.999,38,39,,0,0
11.367,11.936,0.569,78,66,,0,0
11.346,12.45,1.104,59,41,,0,0
11.346,12.45,1.104,66,41,,0,0
11.346,12.45,1.104,62,41,,0,0
10.536,12.536,2.001,43,54,,0,0
11.954,12.775,0.821,81,74,,0,0
12.811,13.47,0.659,79,71,,0,0
13.498,14.166,0.668,78,63,,0,0
13.48,14.626,1.146,57,32,,0,0
13.48,14.626,1.146,66,32,,0,0
13.48,14.626,1.146,61,32,,0,0
12.793,14.694,1.901,38,50,,0,0
14.184,14.884,0.701,73,52,,0,0
14.905,15.66,0.756,71,47,,0,0
15.571,16.523,0.953,73,58,,0,0
15.553,16.942,1.39,59,35,,0,0
15.553,16.942,1.39,66,35,,0,0
15.553,16.942,1.39,62,35,,0,0
14.885,17.031,2.146,43,45,,0,0
16.432000000000002,17.29,0.858,74,64,,0,0
18.147,19.632,1.485,61,28,,0,0
18.147,19.632,1.485,66,28,,0,0
18.147,19.632,1.485,57,28,,0,0
17.29,19.729,2.44,38,36,,0,0
17.308,20.01,2.703,69,56,,0,0
19.993,20.851,0.858,66,35,,0,0
20.851,22.221,1.371,59,27,,0,0
20.851,22.221,1.371,62,27,,0,0
19.993,22.307,2.315,43,38,,0,0
20.851,23.379,2.528,66,48,,0,0
23.379,24.75,1.371,57,25,,0,0
23.379,24.75,1.371,61,25,,0,0
22.565,24.835,2.271,38,37,,0,0
23.379,25.57,2.191,66,33,,0,0
25.57,26.687,1.117,59,20,,0,0
25.57,26.687,1.117,62,20,,0,0
25.093,26.777,1.684,43,41,,0,0
25.57,27.992,2.421,66,35,,0,0
27.061,29.472,2.411,38,33,,0,0
27.992,29.66,1.668,57,22,,0,0
27.992,29.66,1.668,66,28,,0,0
27.992,29.66,1.668,61,22,,0,0
30.732,31.528,0.796,78,56,,0,0
30.715,32.043,1.328,59,33,,0,0
30.715,32.043,1.328,66,34,,0,0
30.715,32.043,1.328,62,33,,0,0
29.802,32.129000000000005,2.327,43,42,,0,0
31.547,32.385000000000005,0.839,81,65,,0,0
32.403999999999996,33.199,0.796,79,61,,0,0
33.218,33.864,0.645,78,51,,0,0
33.2,34.421,1.221,61,27,,0,0
33.2,34.421,1.221,66,29,,0,0
33.2,34.421,1.221,57,27,,0,0
32.385999999999996,34.435,2.049,38,33,,0,0
33.876,34.551,0.675,73,45,,0,0
34.569,35.334,0.766,71,42,,0,0
35.353,36.191,0.839,73,50,,0,0
35.334,36.705,1.371,59,29,,0,0
35.334,36.705,1.371,66,31,,0,0
35.334,36.705,1.371,62,29,,0,0
34.551,36.791,2.241,43,41,,0,0
36.209,37.048,0.839,74,57,,0,0
37.905,39.357,1.452,61,22,,0,0
37.905,39.357,1.452,66,24,,0,0
37.905,39.357,1.452,57,22,,0,0
37.048,40.047,2.999,38,31,,0,0
37.067,40.344,3.278,69,46,,0,0
41.293,42.771,1.479,57,32,,0,0
41.293,42.771,1.479,66,34,,0,0
41.293,42.771,1.479,61,32,,0,0
40.327,42.858,2.531,42,43,,0,0
40.344,43.132,2.788,73,63,,0,0
43.133,44.636,1.504,78,72,,0,0
43.972,45.809,1.837,59,26,,0,0
43.972,45.809,1.837,66,38,,0,0
43.972,45.809,1.837,62,26,,0,0
43.115,46.107,2.992,35,47,,0,0
47.238,48.609,1.371,59,25,,0,0
47.238,48.609,1.371,55,25,,0,0
46.381,48.695,2.314,40,37,,0,0
49.809,51.181,1.372,59,31,,0,0
49.809,51.181,1.372,67,37,,0,0
49.809,51.181,1.372,62,31,,0,0
48.952,51.267,2.315,40,44,,0,0
46.399,53.607,7.208,64,38,,0,0
52.488,54.399,1.911,53,24,,0,0
52.488,54.399,1.911,62,29,,0,0
52.488,54.399,1.911,57,24,,0,0
51.545,54.506,2.961,38,33,,0,0
54.807,55.506,0.698,69,53,,0,0
55.526,56.185,0.66,71,63,,0,0
55.504,56.533,1.03,60,30,,0,0
55.504,56.533,1.03,64,36,,0,0
55.504,56.533,1.03,57,30,,0,0
54.786,56.619,1.833,33,40,,0,0
56.195,56.879,0.684,72,69,,0,0
56.897,57.223,0.327,76,74,,0,0
57.242,58.081,0.84,74,61,,0,0
57.222,58.615,1.393,55,31,,0,0
57.222,58.615,1.393,64,37,,0,0
57.222,58.615,1.393,59,31,,0,0
56.877,58.699,1.823,38,45,,0,0
58.1,58.958,0.858,71,52,,0,0
58.976,59.672,0.697,74,63,,0,0
59.693,60.368,0.675,72,55,,0,0
59.671,60.861,1.19,59,26,,0,0
59.671,60.861,1.19,52,28,,0,0
59.671,60.861,1.19,64,32,,0,0
59.671,60.861,1.19,55,26,,0,0
58.956,60.915,1.959,38,39,,0,0
60.39,61.174,0.785,71,51,,0,0
62.029,63.188,1.158,57,26,,0,0
62.029,63.188,1.158,62,46,,0,0
62.029,63.188,1.158,52,26,,0,0
62.029,63.188,1.158,48,26,,0,0
61.172,63.221,2.049,38,46,,0,0
61.192,64.47999999999999,3.288,74,58,,0,0
63.312,65.061,1.749,57,18,,0,0
63.312,65.061,1.749,62,28,,0,0
63.312,65.061,1.749,54,18,,0,0
63.312,65.061,1.749,48,18,,0,0
63.231,65.145,1.914,38,41,,0,0
64.481,65.37,0.889,74,64,,0,0
65.388,66.099,0.711,76,69,,0,0
66.117,66.744,0.627,77,75,,0,0
66.098,67.279,1.181,57,31,,0,0
66.098,67.279,1.181,65,38,,0,0
66.098,67.279,1.181,60,31,,0,0
65.368,67.362,1.994,38,48,,0,0
66.762,67.541,0.779,79,80,,0,0
67.564,68.294,0.731,81,85,,0,0
68.312,69.066,0.754,72,50,,0,0
68.293,69.578,1.285,60,26,,0,0
68.293,69.578,1.285,64,35,,0,0
68.293,69.578,1.285,57,26,,0,0
67.539,69.664,2.126,38,51,,0,0
69.084,69.893,0.808,74,56,,0,0
69.912,70.737,0.824,76,63,,0,0
70.755,71.609,0.854,74,54,,0,0
70.735,72.154,1.419,59,21,,0,0
70.735,72.154,1.419,55,21,,0,0
70.735,72.154,1.419,64,34,,0,0
70.735,72.154,1.419,50,21,,0,0
69.891,72.248,2.357,38,42,,0,0
71.628,72.554,0.927,71,47,,0,0
73.339,74.694,1.356,57,18,,0,0
73.339,74.694,1.356,62,36,,0,0
73.339,74.694,1.356,48,18,,0,0
73.339,74.694,1.356,52,18,,0,0
72.553,74.788,2.235,38,37,,0,0
72.571,77.105,4.534,74,56,,0,0
76.036,77.258,1.222,57,19,,0,0
76.036,77.258,1.222,62,28,,0,0
76.036,77.258,1.222,48,19,,0,0
76.036,77.258,1.222,54,19,,0,0
75.067,77.269,2.203,38,36,,0,0
77.106,77.321,0.215,74,65,,0,0
77.921,79.292,1.371,59,32,,0,0
77.921,79.292,1.371,64,32,,0,0
77.921,79.292,1.371,67,48,,0,0
77.32,79.378,2.058,40,48,,0,0
77.339,79.655,2.316,79,79,,0,0
80.108,81.709,1.602,61,32,,0,0
80.108,81.709,1.602,57,32,,0,0
80.108,81.709,1.602,66,48,,0,0
79.635,81.828,2.193,42,39,,0,0
79.655,82.211,2.556,78,71,,0,0
82.211,82.869,0.658,71,46,,0,0
82.885,83.724,0.839,69,41,,0,0
82.867,84.153,1.285,59,18,,0,0
82.867,84.153,1.285,66,35,,0,0
82.867,84.153,1.285,62,18,,0,0
82.184,84.239,2.055,35,38,,0,0
83.746,84.5,0.754,71,48,,0,0
84.518,85.101,0.583,73,53,,0,0
85.119,85.865,0.746,74,60,,0,0
85.097,86.092,0.995,61,24,,0,0
85.097,86.092,0.995,64,24,,0,0
84.496,86.184,1.689,40,39,,0,0
85.097,86.432,1.335,69,40,,0,0
85.886,86.451,0.565,76,67,,0,0
86.474,87.336,0.862,73,47,,0,0
87.356,88.238,0.882,74,49,,0,0
87.334,88.823,1.49,66,23,,0,0
87.334,88.823,1.49,61,23,,0,0
87.334,88.823,1.49,69,39,,0,0
87.334,88.823,1.49,57,35,,0,0
86.451,88.869,2.418,40,36,,0,0
88.259,88.899,0.64,76,53,,0,0
89.762,90.771,1.009,47,34,,0,0
89.762,90.771,1.009,57,34,,0,0
89.762,90.804,1.042,62,47,,0,0
88.899,91.57,2.671,40,37,,0,0
90.804,91.82,1.016,67,40,,0,0
90.804,91.83,1.026,59,32,,0,0
90.804,91.83,1.026,52,32,,0,0
90.804,91.83,1.026,62,32,,0,0
91.86,94.512,2.652,55,45,,0,0
91.86,94.512,2.652,45,51,,0,0
88.902,94.913,6.011,69,44,,0,0
91.866,95.04,3.174,60,50,,0,0
91.867,95.042,3.175,64,50,,0,0
91.897,95.068,3.171,72,68,,0,0
95.046,98.016,2.969,74,52,,0,0
95.04,98.076,3.036,62,34,,0,0
95.046,98.08,3.033,69,28,,0,0
95.046,98.08,3.033,66,28,,0,0
95.017,98.39,3.372,38,30,,0,0
95.029,98.396,3.367,45,22,,0,0
95.04,98.402,3.363,50,24,,0,0
99.198,100.57,1.372,62,31,,0,0
99.198,100.57,1.372,59,31,,0,0
99.198,100.57,1.372,66,35,,0,0
98.597,100.656,2.059,43,43,,0,0
101.684,103.055,1.371,57,25,,0,0
101.684,103.055,1.371,66,25,,0,0
101.684,103.055,1.371,61,25,,0,0
100.912,103.141,2.229,38,34,,0,0
104.044,105.238,1.193,59,31,,0,0
104.044,105.238,1.193,66,35,,0,0
104.044,105.238,1.193,62,31,,0,0
103.398,105.335,1.937,43,40,,0,0
106.479,107.884,1.405,57,26,,0,0
106.479,107.884,1.405,66,26,,0,0
106.479,107.884,1.405,61,26,,0,0
105.638,107.985,2.348,38,35,,0,0
108.865,109.623,0.759,78,64,,0,0
108.839,110.155,1.317,66,32,,0,0
108.839,110.155,1.317,59,32,,0,0
108.839,110.155,1.317,62,32,,0,0
108.29,110.242,1.953,43,44,,0,0
109.643,110.465,0.822,81,73,,0,0
110.483,111.194,0.711,79,73,,0,0
111.212,111.839,0.627,78,63,,0,0
111.187,112.303,1.116,66,26,,0,0
111.187,112.303,1.116,61,26,,0,0
111.187,112.303,1.116,57,26,,0,0
110.458,112.358,1.9,38,30,,0,0
111.856,112.568,0.712,73,54,,0,0
112.586,113.229,0.643,71,48,,0,0
113.229,114.016,0.786,73,55,,0,0
113.222,114.558,1.336,59,26,,0,0
113.222,114.558,1.336,62,26,,0,0
113.222,114.558,1.336,66,34,,0,0
112.561,114.649,2.088,43,37,,0,0
114.016,114.934,0.918,74,60,,0,0
115.767,117.36,1.593,66,34,,0,0
115.767,117.36,1.593,61,28,,0,0
115.767,117.36,1.593,57,28,,0,0
114.909,117.512,2.604,38,32,,0,0
114.934,117.86,2.927,69,56,,0,0
117.861,118.661,0.8,66,33,,0,0
118.661,120.032,1.371,59,33,,0,0
118.661,120.032,1.371,66,43,,0,0
118.661,120.032,1.371,62,33,,0,0
117.835,120.118,2.283,43,27,,0,0
121.147,122.53,1.383,66,34,,0,0
121.147,122.53,1.383,61,20,,0,0
121.147,122.53,1.383,57,20,,0,0
120.376,122.623,2.247,38,34,,0,0
123.447,124.848,1.401,62,29,,0,0
123.447,124.848,1.401,59,29,,0,0
123.447,124.848,1.401,66,43,,0,0
122.908,124.944,2.036,43,44,,0,0
126.186,127.811,1.624,66,29,,0,0
126.186,127.811,1.624,57,17,,0,0
126.186,127.811,1.624,61,17,,0,0
125.231,127.932,2.701,38,31,,0,0
128.94,129.561,0.622,78,45,,0,0
128.914,130.115,1.201,66,26,,0,0
128.914,130.115,1.201,62,26,,0,0
128.914,130.115,1.201,59,26,,0,0
128.13400000000001,130.206,2.072,43,29,,0,0
129.562,130.49,0.928,81,52,,0,0
130.49,131.176,0.686,79,53,,0,0
131.177,131.862,0.686,78,48,,0,0
131.152,132.316,1.164,57,26,,0,0
131.152,132.316,1.164,61,26,,0,0
131.152,132.316,1.164,66,26,,0,0
130.465,132.343,1.878,38,24,,0,0
131.862,132.507,0.644,73,42,,0,0
132.507,133.151,0.643,71,37,,0,0
133.151,134.008,0.857,73,48,,0,0
133.126,134.536,1.41,59,26,,0,0
133.126,134.536,1.41,66,26,,0,0
133.126,134.536,1.41,62,26,,0,0
132.482,134.627,2.144,43,29,,0,0
134.008,134.911,0.903,74,52,,0,0
135.744,137.115,1.371,61,19,,0,0
135.744,137.115,1.371,57,19,,0,0
135.744,137.115,1.371,66,22,,0,0
134.886,137.201,2.315,38,19,,0,0
134.911,137.483,2.572,69,53,,0,0
138.187,139.724,1.537,57,31,,0,0
138.187,139.724,1.537,66,33,,0,0
138.187,139.724,1.537,61,31,,0,0
137.458,139.838,2.38,42,42,,0,0
137.483,140.176,2.693,73,62,,0,0
141.008,142.515,1.507,59,28,,0,0
141.008,142.515,1.507,66,44,,0,0
141.008,142.515,1.507,62,28,,0,0
140.151,142.605,2.454,35,46,,0,0
140.176,142.89,2.714,78,73,,0,0
143.722,145.093,1.371,59,32,,0,0
143.722,145.093,1.371,55,24,,0,0
142.865,145.179,2.314,40,32,,0,0
146.293,147.706,1.412,59,30,,0,0
146.293,147.706,1.412,67,47,,0,0
146.293,147.706,1.412,62,30,,0,0
145.436,147.796,2.36,40,44,,0,0
149.004,150.603,1.599,53,21,,0,0
149.004,150.603,1.599,62,29,,0,0
149.004,150.603,1.599,57,21,,0,0
148.074,150.693,2.619,38,35,,0,0
142.89,150.924,8.034,64,35,,0,0
150.978,151.835,0.857,69,48,,0,0
151.835,152.649,0.814,71,60,,0,0
151.81,153.178,1.368,57,28,,0,0
151.81,153.178,1.368,64,36,,0,0
151.81,153.178,1.368,60,28,,0,0
150.953,153.268,2.315,33,45,,0,0
152.649,153.553,0.904,72,69,,0,0
153.554,153.941,0.388,76,78,,0,0
153.941,154.819,0.878,74,63,,0,0
153.916,155.342,1.426,59,31,,0,0
153.916,155.342,1.426,64,42,,0,0
153.916,155.342,1.426,55,31,,0,0
153.529,155.428,1.899,38,49,,0,0
154.819,155.71,0.891,71,57,,0,0
155.71,156.439,0.729,74,65,,0,0
156.439,157.296,0.857,72,62,,0,0
156.414,157.817,1.403,59,21,,0,0
156.414,157.817,1.403,52,21,,0,0
156.414,157.817,1.403,64,40,,0,0
156.414,157.817,1.403,55,21,,0,0
155.685,157.907,2.222,38,41,,0,0
157.296,158.191,0.895,71,54,,0,0
159.023,160.394,1.371,57,19,,0,0
159.023,160.394,1.371,62,42,,0,0
159.023,160.394,1.371,48,19,,0,0
159.023,160.394,1.371,52,19,,0,0
158.166,160.48,2.314,38,43,,0,0
158.191,162.393,4.202,74,61,,0,0
161.657,162.417,0.759,57,15,,0,0
161.657,162.417,0.759,62,26,,0,0
161.657,162.417,0.759,54,15,,0,0
161.657,162.417,0.759,48,15,,0,0
160.737,162.432,1.695,38,34,,0,0
162.393,162.714,0.321,74,70,,0,0
162.714,163.485,0.771,76,79,,0,0
163.485,164.149,0.664,77,86,,0,0
163.46,164.68,1.219,57,31,,0,0
163.46,164.68,1.219,65,48,,0,0
163.46,164.68,1.219,60,31,,0,0
162.689,164.73,2.041,38,51,,0,0
164.149,164.97,0.821,79,89,,0,0
164.97,165.732,0.762,81,85,,0,0
165.835,166.678,0.843,72,52,,0,0
165.81,167.199,1.39,57,27,,0,0
165.81,167.199,1.39,64,42,,0,0
165.81,167.199,1.39,60,27,,0,0
164.937,167.222,2.285,38,41,,0,0
166.679,167.444,0.766,74,58,,0,0
167.444,168.273,0.829,76,63,,0,0
168.273,169.123,0.849,74,56,,0,0
168.249,169.64,1.391,59,23,,0,0
168.249,169.64,1.391,50,23,,0,0
168.249,169.64,1.391,64,38,,0,0
168.249,169.64,1.391,55,23,,0,0
167.419,169.73,2.311,38,41,,0,0
169.123,170.015,0.892,71,43,,0,0
170.847,172.244,1.397,57,18,,0,0
170.847,172.244,1.397,62,37,,0,0
170.847,172.244,1.397,52,18,,0,0
170.847,172.244,1.397,48,18,,0,0
169.991,172.338,2.347,38,40,,0,0
170.016,174.608,4.593,74,46,,0,0
173.546,175.201,1.655,57,16,,0,0
173.546,175.201,1.655,48,16,,0,0
173.546,175.201,1.655,54,16,,0,0
173.546,175.201,1.655,62,29,,0,0
172.616,175.288,2.672,38,32,,0,0
174.608,175.571,0.963,74,75,,0,0
176.404,178.158,1.755,59,36,,0,0
176.404,178.158,1.755,67,56,,0,0
176.404,178.158,1.755,64,36,,0,0
175.546,178.244,2.698,40,53,,0,0
175.571,178.526,2.955,79,89,,0,0
179.998,182.373,2.375,65,36,,0,0
179.998,182.373,2.375,69,56,,0,0
179.998,182.373,2.375,57,36,,0,0
179.998,182.373,2.375,62,36,,0,0
178.502,182.472,3.97,40,60,,0,0
178.527,182.781,4.254,77,75,,0,0
182.781,183.849,1.068,71,64,,0,0
183.849,184.749,0.899,72,76,,0,0
183.768,185.238,1.469,57,32,,0,0
183.768,185.238,1.469,65,42,,0,0
183.768,185.238,1.469,60,32,,0,0
182.754,185.324,2.57,40,60,,0,0
184.749,185.606,0.857,77,85,,0,0
185.606,186.207,0.601,76,82,,0,0
186.207,187.135,0.928,74,71,,0,0
186.182,187.733,1.551,64,32,,0,0
186.182,187.733,1.551,69,42,,0,0
186.182,187.733,1.551,60,32,,0,0
185.581,187.836,2.255,40,61,,0,0
187.135,187.961,0.827,72,63,,0,0
188.127,189.004,0.877,76,49,,0,0
189.004,189.933,0.929,74,44,,0,0
188.977,190.482,1.505,65,16,,0,0
188.977,190.482,1.505,60,16,,0,0
188.977,190.482,1.505,69,22,,0,0
188.977,190.482,1.505,57,16,,0,0
188.102,190.584,2.482,40,44,,0,0
189.933,190.874,0.942,72,42,,0,0
191.707,192.614,0.907,47,34,,0,0
191.707,192.614,0.907,62,44,,0,0
191.707,192.614,0.907,57,34,,0,0
190.875,193.657,2.782,65,48,,0,0
190.85,193.888,3.037,40,54,,0,0
192.901,194.012,1.111,59,34,,0,0
192.901,194.012,1.111,52,34,,0,0
192.901,194.012,1.111,67,46,,0,0
192.901,194.012,1.111,62,34,,0,0
194.237,197.357,3.12,45,40,,0,0
194.284,197.393,3.109,60,24,,0,0
194.284,197.429,3.145,55,30,,0,0
194.294,197.443,3.149,64,38,,0,0
194.31,197.468,3.158,69,30,,0,0
194.294,197.552,3.257,72,60,,0,0
198.015,202.715,4.701,38,33,,0,0
198.032,202.733,4.701,45,29,,0,0
198.032,202.733,4.701,65,23,,0,0
198.021,204.863,6.842,62,38,,0,0
198.049,204.892,6.843,50,29,,0,0
198.049,204.892,6.843,69,27,,0,0
198.057,204.917,6.86,74,45,,0,0
0.0,0.5,0.5,69,0,shadow,0,15
