start,end,duration,pitch,velocity,instrument,instr program,midi channel
1.0,7.923,6.923,49,64,Manuale ,53,0
1.0,7.923,6.923,58,64,Manuale ,53,0
1.0,7.923,6.923,53,64,Manuale ,53,0
7.923,10.231,2.308,50,64,Manuale ,53,0
7.923,10.231,2.308,55,64,Manuale ,53,0
10.231,11.384,1.154,49,64,Manuale ,53,0
10.231,11.384,1.154,53,64,Manuale ,53,0
10.231,11.384,1.154,58,64,Manuale ,53,0
11.385,12.538,1.153,52,64,Manuale ,53,0
11.385,12.538,1.153,56,64,Manuale ,53,0
12.538,14.845,2.308,50,64,Manuale ,53,0
12.538,14.845,2.308,55,64,Manuale ,53,0
12.538,14.845,2.308,59,64,Manuale ,53,0
1.0,14.846,13.846,47,64,Manuale ,53,0
14.846,21.769,6.923,54,64,Manuale ,53,0
14.846,21.769,6.923,65,64,Manuale ,53,0
14.846,21.769,6.923,61,64,Manuale ,53,0
21.769,24.077,2.308,52,64,Manuale ,53,0
21.769,24.077,2.308,67,64,Manuale ,53,0
21.769,24.077,2.308,60,64,Manuale ,53,0
24.077,25.23,1.154,65,64,Manuale ,53,0
25.231,26.384,1.154,63,64,Manuale ,53,0
24.077,26.384,2.308,54,64,Manuale ,53,0
24.077,26.384,2.308,61,64,Manuale ,53,0
26.385,28.692,2.307,60,64,Manuale ,53,0
14.846,28.692,13.846,46,64,Manuale ,53,0
26.385,28.692,2.307,64,64,Manuale ,53,0
26.385,28.692,2.307,55,64,Manuale ,53,0
28.692,37.922,9.231,49,64,Manuale ,53,0
28.692,37.922,9.231,53,64,Manuale ,53,0
28.692,37.922,9.231,58,64,Manuale ,53,0
37.923,40.231,2.308,50,64,Manuale ,53,0
37.923,40.231,2.308,55,64,Manuale ,53,0
40.231,42.538,2.307,52,64,Manuale ,53,0
40.231,42.538,2.307,56,64,Manuale ,53,0
28.692,42.538,13.846,47,64,Manuale ,53,0
42.538,44.845,2.308,54,64,Manuale ,53,0
42.538,44.845,2.308,49,64,Manuale ,53,0
42.538,44.845,2.308,61,64,Manuale ,53,0
44.846,47.154,2.308,55,64,Manuale ,53,0
44.846,47.154,2.308,48,64,Manuale ,53,0
44.846,47.154,2.308,64,64,Manuale ,53,0
47.154,52.922,5.769,61,64,Manuale ,53,0
52.923,54.077,1.154,60,64,Manuale ,53,0
54.077,56.384,2.308,59,64,Manuale ,53,0
42.538,56.384,13.847,46,64,Manuale ,53,0
47.154,56.384,9.231,54,64,Manuale ,53,0
47.154,63.307,16.154,49,64,Manuale ,53,0
56.385,63.308,6.923,53,64,Manuale ,53,0
56.385,63.308,6.923,58,64,Manuale ,53,0
63.308,65.615,2.307,50,64,Manuale ,53,0
63.308,65.615,2.307,55,64,Manuale ,53,0
65.615,66.845,1.23,53,64,Manuale ,53,0
65.615,66.845,1.23,49,64,Manuale ,53,0
65.615,66.845,1.23,58,64,Manuale ,53,0
66.845,68.349,1.504,52,64,Manuale ,53,0
66.845,68.349,1.504,56,64,Manuale ,53,0
68.349,70.657,2.308,50,64,Manuale ,53,0
56.385,70.657,14.272,47,64,Manuale ,53,0
68.349,70.657,2.308,59,64,Manuale ,53,0
68.349,70.657,2.308,55,64,Manuale ,53,0
70.657,78.22,7.562,54,64,Manuale ,53,0
70.657,78.22,7.562,61,64,Manuale ,53,0
70.657,78.22,7.562,65,64,Manuale ,53,0
78.22,80.528,2.308,52,64,Manuale ,53,0
78.22,80.528,2.308,60,64,Manuale ,53,0
78.22,80.528,2.308,67,64,Manuale ,53,0
80.529,81.681,1.153,65,64,Manuale ,53,0
81.681,82.835,1.154,63,64,Manuale ,53,0
80.529,82.835,2.307,54,64,Manuale ,53,0
80.529,82.835,2.307,61,64,Manuale ,53,0
82.835,85.143,2.308,60,64,Manuale ,53,0
70.657,85.143,14.486,46,64,Manuale ,53,0
82.835,85.143,2.308,55,64,Manuale ,53,0
82.835,85.143,2.308,64,64,Manuale ,53,0
85.143,94.374,9.231,53,64,Manuale ,53,0
85.143,94.374,9.231,58,64,Manuale ,53,0
85.143,94.374,9.231,49,64,Manuale ,53,0
94.374,96.681,2.307,50,64,Manuale ,53,0
94.374,96.681,2.307,55,64,Manuale ,53,0
96.681,98.989,2.308,52,64,Manuale ,53,0
96.681,98.989,2.308,56,64,Manuale ,53,0
85.143,98.989,13.846,47,64,Manuale ,53,0
98.99,100.143,1.154,54,64,Manuale ,53,0
98.99,100.143,1.154,61,64,Manuale ,53,0
100.143,101.297,1.154,58,64,Manuale ,53,0
100.143,101.297,1.154,66,64,Manuale ,53,0
100.143,101.297,1.154,63,64,Manuale ,53,0
101.297,102.451,1.154,57,64,Manuale ,53,0
101.297,102.451,1.154,64,64,Manuale ,53,0
101.297,102.451,1.154,61,64,Manuale ,53,0
102.452,103.604,1.153,55,64,Manuale ,53,0
102.452,103.604,1.153,60,64,Manuale ,53,0
102.452,103.604,1.153,63,64,Manuale ,53,0
103.604,108.22,4.616,54,64,Manuale ,53,0
103.604,108.22,4.616,61,64,Manuale ,53,0
108.22,110.528,2.308,48,64,Manuale ,53,0
108.22,110.528,2.308,52,64,Manuale ,53,0
108.22,110.528,2.308,57,64,Manuale ,53,0
110.529,112.882,2.354,54,64,Manuale ,53,0
98.99,112.882,13.893,46,64,Manuale ,53,0
112.882,114.124,1.242,55,64,Manuale ,53,0
112.882,114.124,1.242,63,64,Manuale ,53,0
110.529,114.124,3.596,58,64,Manuale ,53,0
112.882,115.459,2.577,51,64,Manuale ,53,0
114.124,115.459,1.335,59,64,Manuale ,53,0
114.124,115.459,1.335,63,64,Manuale ,53,0
114.124,115.459,1.335,68,64,Manuale ,53,0
114.124,115.459,1.335,56,64,Manuale ,53,0
115.459,116.673,1.214,54,64,Manuale ,53,0
115.459,116.673,1.214,66,64,Manuale ,53,0
115.459,116.673,1.214,58,64,Manuale ,53,0
115.459,116.673,1.214,61,64,Manuale ,53,0
116.673,117.858,1.185,59,64,Manuale ,53,0
116.673,117.858,1.185,64,64,Manuale ,53,0
116.673,117.858,1.185,52,64,Manuale ,53,0
116.673,117.858,1.185,56,64,Manuale ,53,0
117.858,122.474,4.616,55,64,Manuale ,53,0
117.858,122.474,4.616,58,64,Manuale ,53,0
117.858,122.474,4.616,51,64,Manuale ,53,0
117.858,122.474,4.616,63,64,Manuale ,53,0
122.474,124.781,2.307,50,64,Manuale ,53,0
122.474,124.781,2.307,62,64,Manuale ,53,0
122.474,124.781,2.307,57,64,Manuale ,53,0
122.474,124.781,2.307,54,64,Manuale ,53,0
124.781,128.156,3.374,55,64,Manuale ,53,0
124.781,128.156,3.374,51,64,Manuale ,53,0
110.529,128.156,17.628,49,64,Manuale ,53,0
128.156,129.31,1.154,70,64,Manuale ,53,0
124.781,129.31,4.529,58,64,Manuale ,53,0
124.781,129.31,4.529,63,64,Manuale ,53,0
129.31,130.537,1.227,63,64,Manuale ,53,0
129.31,130.537,1.227,75,64,Manuale ,53,0
128.156,130.538,2.381,66,64,Manuale ,53,0
130.538,133.751,3.214,61,64,Manuale ,53,0
130.538,133.751,3.214,64,64,Manuale ,53,0
130.538,133.751,3.214,69,64,Manuale ,53,0
130.538,133.751,3.214,73,64,Manuale ,53,0
133.752,134.905,1.154,60,64,Manuale ,53,0
133.752,134.905,1.154,63,64,Manuale ,53,0
128.156,134.905,6.749,48,64,Manuale ,53,0
133.752,134.905,1.154,72,64,Manuale ,53,0
133.752,134.905,1.154,67,64,Manuale ,53,0
134.905,137.212,2.307,66,64,Manuale ,53,0
134.905,137.212,2.307,70,64,Manuale ,53,0
134.905,137.212,2.307,58,64,Manuale ,53,0
134.905,137.212,2.307,61,64,Manuale ,53,0
134.905,139.52,4.615,49,64,Manuale ,53,0
137.212,139.52,2.308,57,64,Manuale ,53,0
137.212,139.52,2.308,60,64,Manuale ,53,0
137.212,139.52,2.308,64,64,Manuale ,53,0
137.212,139.52,2.308,69,64,Manuale ,53,0
139.52,141.828,2.308,55,64,Manuale ,53,0
139.52,141.828,2.308,67,64,Manuale ,53,0
139.52,141.828,2.308,63,64,Manuale ,53,0
139.52,141.828,2.308,58,64,Manuale ,53,0
139.52,144.135,4.615,51,64,Manuale ,53,0
141.829,144.135,2.307,57,64,Manuale ,53,0
141.829,144.135,2.307,66,64,Manuale ,53,0
141.829,144.135,2.307,61,64,Manuale ,53,0
141.829,144.135,2.307,54,64,Manuale ,53,0
144.135,146.443,2.308,67,64,Manuale ,53,0
144.135,146.443,2.308,55,64,Manuale ,53,0
144.135,146.443,2.308,58,64,Manuale ,53,0
144.135,146.443,2.308,63,64,Manuale ,53,0
146.443,148.882,2.439,57,64,Manuale ,53,0
146.443,148.882,2.439,66,64,Manuale ,53,0
146.443,148.882,2.439,61,64,Manuale ,53,0
146.443,148.882,2.439,54,64,Manuale ,53,0
144.135,148.882,4.747,52,64,Manuale ,53,0
148.882,151.361,2.479,60,64,Manuale ,53,0
148.882,151.361,2.479,64,64,Manuale ,53,0
148.882,151.361,2.479,55,64,Manuale ,53,0
151.361,153.678,2.317,57,64,Manuale ,53,0
148.882,153.678,4.796,49,64,Manuale ,53,0
151.361,153.678,2.317,66,64,Manuale ,53,0
151.361,153.678,2.317,61,64,Manuale ,53,0
153.679,156.199,2.521,67,64,Manuale ,53,0
153.679,156.199,2.521,63,64,Manuale ,53,0
153.679,156.199,2.521,58,64,Manuale ,53,0
156.199,159.184,2.985,60,64,Manuale ,53,0
153.679,159.184,5.506,48,64,Manuale ,53,0
156.199,159.184,2.985,69,64,Manuale ,53,0
156.199,159.184,2.985,64,64,Manuale ,53,0
159.184,166.474,7.29,61,64,Manuale ,53,0
159.184,166.474,7.29,70,64,Manuale ,53,0
159.184,166.474,7.29,65,64,Manuale ,53,0
166.474,168.782,2.308,62,64,Manuale ,53,0
166.474,168.782,2.308,67,64,Manuale ,53,0
168.782,170.006,1.224,65,64,Manuale ,53,0
168.782,170.006,1.224,61,64,Manuale ,53,0
168.782,170.006,1.224,70,64,Manuale ,53,0
170.006,171.689,1.682,64,64,Manuale ,53,0
170.006,171.689,1.682,68,64,Manuale ,53,0
171.689,174.413,2.724,62,64,Manuale ,53,0
159.184,174.413,15.229,59,64,Manuale ,53,0
171.689,174.413,2.724,67,64,Manuale ,53,0
171.689,174.413,2.724,71,64,Manuale ,53,0
174.413,181.489,7.076,61,64,Manuale ,53,0
174.413,181.489,7.076,77,64,Manuale ,53,0
174.413,181.489,7.076,66,64,Manuale ,53,0
174.413,181.489,7.076,73,64,Manuale ,53,0
181.489,187.519,6.03,60,64,Manuale ,53,0
181.489,187.519,6.03,72,64,Manuale ,53,0
181.489,187.519,6.03,64,64,Manuale ,53,0
181.489,187.519,6.03,79,64,Manuale ,53,0
187.52,189.057,1.537,77,64,Manuale ,53,0
189.057,190.321,1.264,75,64,Manuale ,53,0
187.52,190.321,2.801,66,64,Manuale ,53,0
187.52,190.321,2.801,61,64,Manuale ,53,0
187.52,190.321,2.801,73,64,Manuale ,53,0
190.321,193.059,2.739,67,64,Manuale ,53,0
190.321,193.059,2.739,72,64,Manuale ,53,0
190.321,193.059,2.739,76,64,Manuale ,53,0
190.321,193.059,2.739,60,64,Manuale ,53,0
174.413,193.06,18.647,58,64,Manuale ,53,0
193.06,202.37,9.31,65,64,Manuale ,53,0
193.06,202.37,9.31,61,64,Manuale ,53,0
193.06,202.37,9.31,70,64,Manuale ,53,0
202.37,204.695,2.325,62,64,Manuale ,53,0
202.37,204.695,2.325,67,64,Manuale ,53,0
204.695,207.021,2.326,64,64,Manuale ,53,0
204.695,207.021,2.326,68,64,Manuale ,53,0
193.06,207.021,13.961,59,64,Manuale ,53,0
207.021,209.345,2.324,61,64,Manuale ,53,0
207.021,209.345,2.324,73,64,Manuale ,53,0
207.021,209.345,2.324,66,64,Manuale ,53,0
209.346,213.592,4.246,60,64,Manuale ,53,0
209.346,213.592,4.246,67,64,Manuale ,53,0
209.346,213.592,4.246,76,64,Manuale ,53,0
213.592,218.617,5.024,66,64,Manuale ,53,0
207.021,218.617,11.596,58,64,Manuale ,53,0
213.592,218.617,5.024,73,64,Manuale ,53,0
218.617,220.933,2.316,69,64,Manuale ,53,0
218.617,220.933,2.316,63,64,Manuale ,53,0
220.933,223.591,2.658,70,64,Manuale ,53,0
220.933,223.591,2.658,64,64,Manuale ,53,0
218.617,223.591,4.974,67,64,Manuale ,53,0
213.592,223.591,9.999,61,64,Manuale ,53,0
223.591,225.939,2.348,63,64,Manuale ,53,0
223.591,225.939,2.348,68,64,Manuale ,53,0
223.591,225.939,2.348,75,64,Manuale ,53,0
225.939,229.828,3.889,62,64,Manuale ,53,0
223.591,229.828,6.237,60,64,Manuale ,53,0
225.939,229.828,3.889,78,64,Manuale ,53,0
225.939,229.828,3.889,69,64,Manuale ,53,0
229.829,235.365,5.536,68,64,Manuale ,53,0
229.829,235.365,5.536,63,64,Manuale ,53,0
229.829,235.365,5.536,71,64,Manuale ,53,0
229.829,235.365,5.536,75,64,Manuale ,53,0
235.365,240.036,4.672,65,64,Manuale ,53,0
235.365,240.036,4.672,77,64,Manuale ,53,0
229.829,240.036,10.208,61,64,Manuale ,53,0
235.365,240.036,4.672,69,64,Manuale ,53,0
240.036,242.452,2.416,68,64,Manuale ,53,0
240.036,242.452,2.416,80,64,Manuale ,53,0
240.036,244.75,4.714,62,64,Manuale ,53,0
240.036,244.75,4.714,66,64,Manuale ,53,0
242.453,244.751,2.298,69,64,Manuale ,53,0
242.453,244.751,2.298,81,64,Manuale ,53,0
244.751,247.049,2.299,84,64,Manuale ,53,0
235.365,247.049,11.685,72,64,Manuale ,53,0
247.049,249.348,2.299,70,64,Manuale ,53,0
240.036,249.348,9.312,78,64,Manuale ,53,0
244.751,249.348,4.598,64,64,Manuale ,53,0
244.751,249.348,4.598,73,64,Manuale ,53,0
247.049,249.348,2.299,82,64,Manuale ,53,0
249.348,251.647,2.299,79,64,Manuale ,53,0
249.348,251.647,2.299,67,64,Manuale ,53,0
249.348,251.647,2.299,72,64,Manuale ,53,0
249.348,251.647,2.299,76,64,Manuale ,53,0
251.647,254.082,2.435,66,64,Manuale ,53,0
251.647,254.082,2.435,78,64,Manuale ,53,0
249.348,254.082,4.734,54,64,Manuale ,53,0
251.647,254.082,2.435,75,64,Manuale ,53,0
251.647,254.082,2.435,70,64,Manuale ,53,0
254.082,256.665,2.583,69,64,Manuale ,53,0
254.082,256.665,2.583,64,64,Manuale ,53,0
254.082,256.665,2.583,73,64,Manuale ,53,0
254.082,256.665,2.583,55,64,Manuale ,53,0
254.082,256.665,2.583,76,64,Manuale ,53,0
256.666,259.574,2.909,63,64,Manuale ,53,0
256.666,259.574,2.909,67,64,Manuale ,53,0
256.666,259.574,2.909,75,64,Manuale ,53,0
256.666,259.574,2.909,72,64,Manuale ,53,0
256.666,259.574,2.909,57,64,Manuale ,53,0
259.574,260.756,1.182,61,64,Manuale ,53,0
259.574,260.756,1.182,73,64,Manuale ,53,0
259.574,260.756,1.182,66,64,Manuale ,53,0
260.756,261.914,1.158,66,64,Manuale ,53,0
260.756,261.914,1.158,75,64,Manuale ,53,0
260.756,261.914,1.158,78,64,Manuale ,53,0
259.574,261.914,2.34,70,64,Manuale ,53,0
261.915,263.089,1.174,76,64,Manuale ,53,0
261.915,263.089,1.174,69,64,Manuale ,53,0
261.915,263.089,1.174,64,64,Manuale ,53,0
261.915,263.089,1.174,73,64,Manuale ,53,0
263.089,264.372,1.284,63,64,Manuale ,53,0
263.089,264.372,1.284,72,64,Manuale ,53,0
263.089,264.372,1.284,67,64,Manuale ,53,0
263.089,264.372,1.284,75,64,Manuale ,53,0
264.372,266.953,2.581,61,64,Manuale ,53,0
264.372,266.953,2.581,73,64,Manuale ,53,0
266.954,269.414,2.46,60,64,Manuale ,53,0
264.372,269.414,5.041,70,64,Manuale ,53,0
266.954,269.414,2.46,72,64,Manuale ,53,0
264.372,269.414,5.041,66,64,Manuale ,53,0
269.414,271.836,2.423,71,64,Manuale ,53,0
269.414,271.836,2.423,65,64,Manuale ,53,0
269.414,271.836,2.423,68,64,Manuale ,53,0
269.414,271.836,2.423,59,64,Manuale ,53,0
269.414,271.836,2.423,62,64,Manuale ,53,0
259.574,274.47,14.896,58,64,Manuale ,53,0
271.837,274.471,2.634,61,64,Manuale ,53,0
271.837,274.471,2.634,70,64,Manuale ,53,0
274.471,275.74,1.269,63,64,Manuale ,53,0
274.471,275.74,1.269,56,64,Manuale ,53,0
271.837,275.74,3.903,66,64,Manuale ,53,0
275.74,276.99,1.25,61,64,Manuale ,53,0
275.74,276.99,1.25,73,64,Manuale ,53,0
275.74,276.99,1.25,65,64,Manuale ,53,0
274.471,276.99,2.519,68,64,Manuale ,53,0
276.99,278.22,1.231,59,64,Manuale ,53,0
276.99,278.22,1.231,63,64,Manuale ,53,0
276.99,278.22,1.231,71,64,Manuale ,53,0
276.99,278.22,1.231,66,64,Manuale ,53,0
278.221,281.109,2.889,58,64,Manuale ,53,0
278.221,281.109,2.889,65,64,Manuale ,53,0
278.221,281.109,2.889,61,64,Manuale ,53,0
278.221,281.109,2.889,70,64,Manuale ,53,0
281.11,283.602,2.492,56,64,Manuale ,53,0
281.11,283.602,2.492,68,64,Manuale ,53,0
283.602,285.909,2.308,66,64,Manuale ,53,0
281.11,285.909,4.799,59,64,Manuale ,53,0
281.11,285.909,4.799,63,64,Manuale ,53,0
285.91,288.385,2.475,57,64,Manuale ,53,0
285.91,288.385,2.475,65,64,Manuale ,53,0
285.91,288.385,2.475,61,64,Manuale ,53,0
285.91,288.385,2.475,53,64,Manuale ,53,0
283.602,291.34,7.739,54,64,Manuale ,53,0
288.385,291.341,2.956,51,64,Manuale ,53,0
274.471,291.341,16.87,47,64,Manuale ,53,0
288.385,291.341,2.956,63,64,Manuale ,53,0
291.341,292.595,1.255,61,64,Manuale ,53,0
292.596,293.851,1.255,54,64,Manuale ,53,0
292.596,293.851,1.255,66,64,Manuale ,53,0
293.851,295.106,1.256,53,64,Manuale ,53,0
293.851,295.106,1.256,65,64,Manuale ,53,0
295.107,296.361,1.255,51,64,Manuale ,53,0
295.107,296.361,1.255,63,64,Manuale ,53,0
296.362,299.061,2.699,61,64,Manuale ,53,0
299.061,301.764,2.703,54,64,Manuale ,53,0
299.061,301.764,2.703,66,64,Manuale ,53,0
301.764,304.388,2.624,65,64,Manuale ,53,0
301.764,304.388,2.624,53,64,Manuale ,53,0
304.388,308.169,3.782,63,64,Manuale ,53,0
304.388,308.169,3.782,51,64,Manuale ,53,0
308.17,309.43,1.26,54,64,Manuale ,53,0
308.17,309.43,1.26,66,64,Manuale ,53,0
309.43,310.691,1.261,53,64,Manuale ,53,0
309.43,310.691,1.261,65,64,Manuale ,53,0
310.691,311.951,1.26,51,64,Manuale ,53,0
310.691,311.951,1.26,63,64,Manuale ,53,0
311.951,314.471,2.521,61,64,Manuale ,53,0
314.472,317.171,2.699,54,64,Manuale ,53,0
314.472,317.171,2.699,66,64,Manuale ,53,0
317.171,319.885,2.715,53,64,Manuale ,53,0
317.171,319.885,2.715,65,64,Manuale ,53,0
319.886,325.417,5.531,51,64,Manuale ,53,0
319.886,325.417,5.531,63,64,Manuale ,53,0
325.417,327.994,2.578,54,64,Manuale ,53,0
325.417,327.994,2.578,66,64,Manuale ,53,0
327.995,330.81,2.816,53,64,Manuale ,53,0
327.995,330.81,2.816,65,64,Manuale ,53,0
330.811,334.206,3.395,63,64,Manuale ,53,0
330.811,334.206,3.395,51,64,Manuale ,53,0
334.206,337.364,3.158,61,64,Manuale ,53,0
337.364,343.679,6.316,53,64,Manuale ,53,0
337.364,343.679,6.316,57,64,Manuale ,53,0
337.364,343.679,6.316,63,64,Manuale ,53,0
343.68,346.838,3.158,59,64,Manuale ,53,0
343.68,346.838,3.158,56,64,Manuale ,53,0
343.68,346.838,3.158,51,64,Manuale ,53,0
343.68,346.838,3.158,61,64,Manuale ,53,0
346.838,349.995,3.158,53,64,Manuale ,53,0
346.838,349.995,3.158,63,64,Manuale ,53,0
346.838,349.995,3.158,57,64,Manuale ,53,0
349.996,356.751,6.755,59,64,Manuale ,53,0
349.996,356.751,6.755,56,64,Manuale ,53,0
349.996,356.751,6.755,61,64,Manuale ,53,0
349.996,356.751,6.755,51,64,Manuale ,53,0
356.751,365.988,9.238,57,64,Manuale ,53,0
356.751,365.988,9.238,53,64,Manuale ,53,0
356.751,365.988,9.238,63,64,Manuale ,53,0
365.989,374.151,8.163,51,64,Manuale ,53,0
365.989,374.151,8.163,59,64,Manuale ,53,0
365.989,374.151,8.163,56,64,Manuale ,53,0
365.989,374.151,8.163,61,64,Manuale ,53,0
374.152,382.823,8.672,52,64,Manuale ,53,0
374.152,382.823,8.672,55,64,Manuale ,53,0
374.152,382.823,8.672,63,64,Manuale ,53,0
374.152,382.823,8.672,58,64,Manuale ,53,0
63.308,65.615,2.307,50,30,Manuale ,48,1
63.308,65.615,2.307,55,30,Manuale ,48,1
65.615,66.845,1.23,53,30,Manuale ,48,1
65.615,66.845,1.23,49,30,Manuale ,48,1
65.615,66.845,1.23,58,30,Manuale ,48,1
66.845,68.349,1.504,52,30,Manuale ,48,1
66.845,68.349,1.504,56,30,Manuale ,48,1
68.349,70.657,2.308,50,30,Manuale ,48,1
68.349,70.657,2.308,55,30,Manuale ,48,1
68.349,70.657,2.308,59,30,Manuale ,48,1
70.657,78.22,7.562,54,30,Manuale ,48,1
70.657,78.22,7.562,61,30,Manuale ,48,1
70.657,78.22,7.562,65,30,Manuale ,48,1
78.22,80.528,2.308,52,30,Manuale ,48,1
78.22,80.528,2.308,60,30,Manuale ,48,1
78.22,80.528,2.308,67,30,Manuale ,48,1
80.529,81.681,1.153,65,30,Manuale ,48,1
81.681,82.835,1.154,63,30,Manuale ,48,1
80.529,82.835,2.307,54,30,Manuale ,48,1
80.529,82.835,2.307,61,30,Manuale ,48,1
82.835,85.143,2.308,60,30,Manuale ,48,1
70.657,85.143,14.486,46,30,Manuale ,48,1
82.835,85.143,2.308,55,30,Manuale ,48,1
82.835,85.143,2.308,64,30,Manuale ,48,1
85.143,94.374,9.231,53,30,Manuale ,48,1
85.143,94.374,9.231,58,30,Manuale ,48,1
85.143,94.374,9.231,49,30,Manuale ,48,1
94.374,96.681,2.307,50,30,Manuale ,48,1
94.374,96.681,2.307,55,30,Manuale ,48,1
96.681,98.989,2.308,52,30,Manuale ,48,1
96.681,98.989,2.308,56,30,Manuale ,48,1
85.143,98.989,13.846,47,30,Manuale ,48,1
98.99,100.143,1.154,54,30,Manuale ,48,1
98.99,100.143,1.154,61,30,Manuale ,48,1
100.143,101.297,1.154,58,30,Manuale ,48,1
100.143,101.297,1.154,66,30,Manuale ,48,1
100.143,101.297,1.154,63,30,Manuale ,48,1
101.297,102.451,1.154,57,31,Manuale ,48,1
101.297,102.451,1.154,64,31,Manuale ,48,1
101.297,102.451,1.154,61,31,Manuale ,48,1
102.452,103.604,1.153,55,32,Manuale ,48,1
102.452,103.604,1.153,60,32,Manuale ,48,1
102.452,103.604,1.153,63,32,Manuale ,48,1
103.604,108.22,4.616,54,33,Manuale ,48,1
103.604,108.22,4.616,61,33,Manuale ,48,1
108.22,110.528,2.308,48,36,Manuale ,48,1
108.22,110.528,2.308,52,36,Manuale ,48,1
108.22,110.528,2.308,57,36,Manuale ,48,1
110.529,112.882,2.354,54,38,Manuale ,48,1
98.99,112.882,13.893,46,30,Manuale ,48,1
112.882,114.124,1.242,55,40,Manuale ,48,1
112.882,114.124,1.242,63,40,Manuale ,48,1
110.529,114.124,3.596,58,38,Manuale ,48,1
112.882,115.459,2.577,51,40,Manuale ,48,1
114.124,115.459,1.335,59,40,Manuale ,48,1
114.124,115.459,1.335,63,40,Manuale ,48,1
114.124,115.459,1.335,68,40,Manuale ,48,1
114.124,115.459,1.335,56,40,Manuale ,48,1
115.459,116.673,1.214,54,41,Manuale ,48,1
115.459,116.673,1.214,66,41,Manuale ,48,1
115.459,116.673,1.214,58,41,Manuale ,48,1
115.459,116.673,1.214,61,41,Manuale ,48,1
116.673,117.858,1.185,59,42,Manuale ,48,1
116.673,117.858,1.185,64,42,Manuale ,48,1
116.673,117.858,1.185,52,42,Manuale ,48,1
116.673,117.858,1.185,56,42,Manuale ,48,1
117.858,122.474,4.616,55,43,Manuale ,48,1
117.858,122.474,4.616,58,43,Manuale ,48,1
117.858,122.474,4.616,51,43,Manuale ,48,1
117.858,122.474,4.616,63,43,Manuale ,48,1
122.474,124.781,2.307,50,46,Manuale ,48,1
122.474,124.781,2.307,62,46,Manuale ,48,1
122.474,124.781,2.307,57,46,Manuale ,48,1
122.474,124.781,2.307,54,46,Manuale ,48,1
124.781,128.156,3.374,55,48,Manuale ,48,1
124.781,128.156,3.374,51,48,Manuale ,48,1
110.529,128.156,17.628,49,38,Manuale ,48,1
128.156,129.31,1.154,70,50,Manuale ,48,1
124.781,129.31,4.529,58,48,Manuale ,48,1
124.781,129.31,4.529,63,48,Manuale ,48,1
129.31,130.537,1.227,63,50,Manuale ,48,1
129.31,130.537,1.227,75,50,Manuale ,48,1
128.156,130.538,2.381,66,50,Manuale ,48,1
130.538,133.751,3.214,61,50,Manuale ,48,1
130.538,133.751,3.214,64,50,Manuale ,48,1
130.538,133.751,3.214,69,50,Manuale ,48,1
130.538,133.751,3.214,73,50,Manuale ,48,1
133.752,134.905,1.154,60,50,Manuale ,48,1
133.752,134.905,1.154,63,50,Manuale ,48,1
128.156,134.905,6.749,48,50,Manuale ,48,1
133.752,134.905,1.154,72,50,Manuale ,48,1
133.752,134.905,1.154,67,50,Manuale ,48,1
134.905,137.212,2.307,66,50,Manuale ,48,1
134.905,137.212,2.307,70,50,Manuale ,48,1
134.905,137.212,2.307,58,50,Manuale ,48,1
134.905,137.212,2.307,61,50,Manuale ,48,1
134.905,139.52,4.615,49,50,Manuale ,48,1
137.212,139.52,2.308,57,50,Manuale ,48,1
137.212,139.52,2.308,60,50,Manuale ,48,1
137.212,139.52,2.308,64,50,Manuale ,48,1
137.212,139.52,2.308,69,50,Manuale ,48,1
139.52,141.828,2.308,55,50,Manuale ,48,1
139.52,141.828,2.308,67,50,Manuale ,48,1
139.52,141.828,2.308,63,50,Manuale ,48,1
139.52,141.828,2.308,58,50,Manuale ,48,1
139.52,144.135,4.615,51,50,Manuale ,48,1
141.829,144.135,2.307,57,50,Manuale ,48,1
141.829,144.135,2.307,66,50,Manuale ,48,1
141.829,144.135,2.307,61,50,Manuale ,48,1
141.829,144.135,2.307,54,50,Manuale ,48,1
144.135,146.443,2.308,67,50,Manuale ,48,1
144.135,146.443,2.308,55,50,Manuale ,48,1
144.135,146.443,2.308,58,50,Manuale ,48,1
144.135,146.443,2.308,63,50,Manuale ,48,1
146.443,148.882,2.439,57,50,Manuale ,48,1
146.443,148.882,2.439,66,50,Manuale ,48,1
146.443,148.882,2.439,61,50,Manuale ,48,1
146.443,148.882,2.439,54,50,Manuale ,48,1
144.135,148.882,4.747,52,50,Manuale ,48,1
148.882,151.361,2.479,60,50,Manuale ,48,1
148.882,151.361,2.479,64,50,Manuale ,48,1
148.882,151.361,2.479,55,50,Manuale ,48,1
151.361,153.678,2.317,57,50,Manuale ,48,1
148.882,153.678,4.796,49,50,Manuale ,48,1
151.361,153.678,2.317,66,50,Manuale ,48,1
151.361,153.678,2.317,61,50,Manuale ,48,1
153.679,156.199,2.521,67,50,Manuale ,48,1
153.679,156.199,2.521,63,50,Manuale ,48,1
153.679,156.199,2.521,58,50,Manuale ,48,1
156.199,159.184,2.985,60,50,Manuale ,48,1
153.679,159.184,5.506,48,50,Manuale ,48,1
156.199,159.184,2.985,69,50,Manuale ,48,1
156.199,159.184,2.985,64,50,Manuale ,48,1
159.184,166.474,7.29,61,50,Manuale ,48,1
159.184,166.474,7.29,70,50,Manuale ,48,1
159.184,166.474,7.29,65,50,Manuale ,48,1
166.474,168.782,2.308,62,50,Manuale ,48,1
166.474,168.782,2.308,67,50,Manuale ,48,1
168.782,170.006,1.224,65,50,Manuale ,48,1
168.782,170.006,1.224,61,50,Manuale ,48,1
168.782,170.006,1.224,70,50,Manuale ,48,1
170.006,171.689,1.682,64,50,Manuale ,48,1
170.006,171.689,1.682,68,50,Manuale ,48,1
171.689,174.413,2.724,62,50,Manuale ,48,1
159.184,174.413,15.229,59,50,Manuale ,48,1
171.689,174.413,2.724,67,50,Manuale ,48,1
171.689,174.413,2.724,71,50,Manuale ,48,1
174.413,181.489,7.076,61,50,Manuale ,48,1
174.413,181.489,7.076,77,50,Manuale ,48,1
174.413,181.489,7.076,66,50,Manuale ,48,1
174.413,181.489,7.076,73,50,Manuale ,48,1
181.489,187.519,6.03,60,50,Manuale ,48,1
181.489,187.519,6.03,72,50,Manuale ,48,1
181.489,187.519,6.03,64,50,Manuale ,48,1
181.489,187.519,6.03,79,50,Manuale ,48,1
187.52,189.057,1.537,77,50,Manuale ,48,1
189.057,190.321,1.264,75,50,Manuale ,48,1
187.52,190.321,2.801,66,50,Manuale ,48,1
187.52,190.321,2.801,61,50,Manuale ,48,1
187.52,190.321,2.801,73,50,Manuale ,48,1
190.321,193.059,2.739,67,50,Manuale ,48,1
190.321,193.059,2.739,72,50,Manuale ,48,1
190.321,193.059,2.739,76,50,Manuale ,48,1
190.321,193.059,2.739,60,50,Manuale ,48,1
174.413,193.06,18.647,58,50,Manuale ,48,1
193.06,202.37,9.31,65,50,Manuale ,48,1
193.06,202.37,9.31,61,50,Manuale ,48,1
193.06,202.37,9.31,70,50,Manuale ,48,1
202.37,204.695,2.325,62,50,Manuale ,48,1
202.37,204.695,2.325,67,50,Manuale ,48,1
204.695,207.021,2.326,64,50,Manuale ,48,1
204.695,207.021,2.326,68,50,Manuale ,48,1
193.06,207.021,13.961,59,50,Manuale ,48,1
207.021,209.345,2.324,61,50,Manuale ,48,1
207.021,209.345,2.324,73,50,Manuale ,48,1
207.021,209.345,2.324,66,50,Manuale ,48,1
209.346,213.592,4.246,60,53,Manuale ,48,1
209.346,213.592,4.246,67,53,Manuale ,48,1
209.346,213.592,4.246,76,53,Manuale ,48,1
213.592,218.617,5.024,66,56,Manuale ,48,1
207.021,218.617,11.596,58,50,Manuale ,48,1
213.592,218.617,5.024,73,56,Manuale ,48,1
218.617,220.933,2.316,69,58,Manuale ,48,1
218.617,220.933,2.316,63,58,Manuale ,48,1
220.933,223.591,2.658,70,58,Manuale ,48,1
220.933,223.591,2.658,64,58,Manuale ,48,1
218.617,223.591,4.974,67,58,Manuale ,48,1
213.592,223.591,9.999,61,56,Manuale ,48,1
223.591,225.939,2.348,63,58,Manuale ,48,1
223.591,225.939,2.348,68,58,Manuale ,48,1
223.591,225.939,2.348,75,58,Manuale ,48,1
225.939,229.828,3.889,62,58,Manuale ,48,1
223.591,229.828,6.237,60,58,Manuale ,48,1
225.939,229.828,3.889,78,58,Manuale ,48,1
225.939,229.828,3.889,69,58,Manuale ,48,1
229.829,235.365,5.536,68,58,Manuale ,48,1
229.829,235.365,5.536,63,58,Manuale ,48,1
229.829,235.365,5.536,71,58,Manuale ,48,1
229.829,235.365,5.536,75,58,Manuale ,48,1
235.365,240.036,4.672,65,58,Manuale ,48,1
235.365,240.036,4.672,77,58,Manuale ,48,1
229.829,240.036,10.208,61,58,Manuale ,48,1
235.365,240.036,4.672,69,58,Manuale ,48,1
240.036,242.452,2.416,68,58,Manuale ,48,1
240.036,242.452,2.416,80,58,Manuale ,48,1
240.036,244.75,4.714,62,58,Manuale ,48,1
240.036,244.75,4.714,66,58,Manuale ,48,1
242.453,244.751,2.298,69,58,Manuale ,48,1
242.453,244.751,2.298,81,58,Manuale ,48,1
244.751,247.049,2.299,84,58,Manuale ,48,1
235.365,247.049,11.685,72,58,Manuale ,48,1
247.049,249.348,2.299,70,58,Manuale ,48,1
240.036,249.348,9.312,78,58,Manuale ,48,1
244.751,249.348,4.598,64,58,Manuale ,48,1
244.751,249.348,4.598,73,58,Manuale ,48,1
247.049,249.348,2.299,82,58,Manuale ,48,1
249.348,251.647,2.299,79,58,Manuale ,48,1
249.348,251.647,2.299,67,58,Manuale ,48,1
249.348,251.647,2.299,72,58,Manuale ,48,1
249.348,251.647,2.299,76,58,Manuale ,48,1
251.647,254.082,2.435,66,58,Manuale ,48,1
251.647,254.082,2.435,78,58,Manuale ,48,1
249.348,254.082,4.734,54,58,Manuale ,48,1
251.647,254.082,2.435,75,58,Manuale ,48,1
251.647,254.082,2.435,70,58,Manuale ,48,1
254.082,256.665,2.583,69,58,Manuale ,48,1
254.082,256.665,2.583,64,58,Manuale ,48,1
254.082,256.665,2.583,73,58,Manuale ,48,1
254.082,256.665,2.583,55,58,Manuale ,48,1
254.082,256.665,2.583,76,58,Manuale ,48,1
256.666,259.574,2.909,63,58,Manuale ,48,1
256.666,259.574,2.909,67,58,Manuale ,48,1
256.666,259.574,2.909,75,58,Manuale ,48,1
256.666,259.574,2.909,72,58,Manuale ,48,1
256.666,259.574,2.909,57,58,Manuale ,48,1
259.574,260.756,1.182,61,58,Manuale ,48,1
259.574,260.756,1.182,73,58,Manuale ,48,1
259.574,260.756,1.182,66,58,Manuale ,48,1
260.756,261.914,1.158,66,58,Manuale ,48,1
260.756,261.914,1.158,75,58,Manuale ,48,1
260.756,261.914,1.158,78,58,Manuale ,48,1
259.574,261.914,2.34,70,58,Manuale ,48,1
261.915,263.089,1.174,76,58,Manuale ,48,1
261.915,263.089,1.174,69,58,Manuale ,48,1
261.915,263.089,1.174,64,58,Manuale ,48,1
261.915,263.089,1.174,73,58,Manuale ,48,1
263.089,264.372,1.284,63,58,Manuale ,48,1
263.089,264.372,1.284,72,58,Manuale ,48,1
263.089,264.372,1.284,67,58,Manuale ,48,1
263.089,264.372,1.284,75,58,Manuale ,48,1
264.372,266.953,2.581,61,58,Manuale ,48,1
264.372,266.953,2.581,73,58,Manuale ,48,1
266.954,269.414,2.46,60,58,Manuale ,48,1
264.372,269.414,5.041,70,58,Manuale ,48,1
266.954,269.414,2.46,72,58,Manuale ,48,1
264.372,269.414,5.041,66,58,Manuale ,48,1
269.414,271.836,2.423,71,59,Manuale ,48,1
269.414,271.836,2.423,65,59,Manuale ,48,1
269.414,271.836,2.423,68,59,Manuale ,48,1
269.414,271.836,2.423,59,59,Manuale ,48,1
269.414,271.836,2.423,62,59,Manuale ,48,1
259.574,274.47,14.896,58,58,Manuale ,48,1
271.837,274.471,2.634,61,57,Manuale ,48,1
271.837,274.471,2.634,70,57,Manuale ,48,1
274.471,275.74,1.269,63,54,Manuale ,48,1
274.471,275.74,1.269,56,54,Manuale ,48,1
271.837,275.74,3.903,66,57,Manuale ,48,1
275.74,276.99,1.25,61,52,Manuale ,48,1
275.74,276.99,1.25,73,52,Manuale ,48,1
275.74,276.99,1.25,65,52,Manuale ,48,1
274.471,276.99,2.519,68,54,Manuale ,48,1
276.99,278.22,1.231,59,51,Manuale ,48,1
276.99,278.22,1.231,63,51,Manuale ,48,1
276.99,278.22,1.231,71,51,Manuale ,48,1
276.99,278.22,1.231,66,51,Manuale ,48,1
278.221,281.109,2.889,58,50,Manuale ,48,1
278.221,281.109,2.889,65,50,Manuale ,48,1
278.221,281.109,2.889,61,50,Manuale ,48,1
278.221,281.109,2.889,70,50,Manuale ,48,1
281.11,283.602,2.492,56,48,Manuale ,48,1
281.11,283.602,2.492,68,48,Manuale ,48,1
283.602,285.909,2.308,66,45,Manuale ,48,1
281.11,285.909,4.799,59,48,Manuale ,48,1
281.11,285.909,4.799,63,48,Manuale ,48,1
285.91,288.385,2.475,57,43,Manuale ,48,1
285.91,288.385,2.475,65,43,Manuale ,48,1
285.91,288.385,2.475,61,43,Manuale ,48,1
285.91,288.385,2.475,53,43,Manuale ,48,1
283.602,291.34,7.739,54,45,Manuale ,48,1
288.385,291.341,2.956,51,40,Manuale ,48,1
274.471,291.341,16.87,47,54,Manuale ,48,1
288.385,291.341,2.956,63,40,Manuale ,48,1
291.341,292.595,1.255,61,39,Manuale ,48,1
292.596,293.851,1.255,54,39,Manuale ,48,1
292.596,293.851,1.255,66,39,Manuale ,48,1
293.851,295.106,1.256,53,38,Manuale ,48,1
293.851,295.106,1.256,65,38,Manuale ,48,1
295.107,296.361,1.255,51,38,Manuale ,48,1
295.107,296.361,1.255,63,38,Manuale ,48,1
296.362,299.061,2.699,61,37,Manuale ,48,1
299.061,301.764,2.703,54,36,Manuale ,48,1
299.061,301.764,2.703,66,36,Manuale ,48,1
301.764,304.388,2.624,65,35,Manuale ,48,1
301.764,304.388,2.624,53,35,Manuale ,48,1
304.388,308.169,3.782,63,34,Manuale ,48,1
304.388,308.169,3.782,51,34,Manuale ,48,1
308.17,309.43,1.26,54,33,Manuale ,48,1
308.17,309.43,1.26,66,33,Manuale ,48,1
309.43,310.691,1.261,53,32,Manuale ,48,1
309.43,310.691,1.261,65,32,Manuale ,48,1
310.691,311.951,1.26,51,32,Manuale ,48,1
310.691,311.951,1.26,63,32,Manuale ,48,1
311.951,314.471,2.521,61,31,Manuale ,48,1
314.472,317.171,2.699,54,30,Manuale ,48,1
314.472,317.171,2.699,66,30,Manuale ,48,1
317.171,319.885,2.715,53,29,Manuale ,48,1
317.171,319.885,2.715,65,29,Manuale ,48,1
319.886,325.417,5.531,51,28,Manuale ,48,1
319.886,325.417,5.531,63,28,Manuale ,48,1
325.417,327.994,2.578,54,26,Manuale ,48,1
325.417,327.994,2.578,66,26,Manuale ,48,1
327.995,330.81,2.816,53,25,Manuale ,48,1
327.995,330.81,2.816,65,25,Manuale ,48,1
330.811,334.206,3.395,63,24,Manuale ,48,1
330.811,334.206,3.395,51,24,Manuale ,48,1
334.206,337.364,3.158,61,23,Manuale ,48,1
337.364,343.679,6.316,53,22,Manuale ,48,1
337.364,343.679,6.316,57,22,Manuale ,48,1
337.364,343.679,6.316,63,22,Manuale ,48,1
159.184,166.474,7.29,49,64,Manuale ,73,2
159.184,166.474,7.29,58,64,Manuale ,73,2
159.184,166.474,7.29,53,64,Manuale ,73,2
166.474,168.782,2.308,50,64,Manuale ,73,2
166.474,168.782,2.308,55,64,Manuale ,73,2
168.782,170.006,1.224,53,64,Manuale ,73,2
168.782,170.006,1.224,49,64,Manuale ,73,2
168.782,170.006,1.224,58,64,Manuale ,73,2
170.006,171.689,1.682,52,64,Manuale ,73,2
170.006,171.689,1.682,56,64,Manuale ,73,2
171.689,174.413,2.724,50,64,Manuale ,73,2
159.184,174.413,15.229,47,64,Manuale ,73,2
171.689,174.413,2.724,55,64,Manuale ,73,2
171.689,174.413,2.724,59,64,Manuale ,73,2
174.413,181.489,7.076,49,64,Manuale ,73,2
174.413,181.489,7.076,65,64,Manuale ,73,2
174.413,181.489,7.076,54,64,Manuale ,73,2
174.413,181.489,7.076,61,64,Manuale ,73,2
181.489,187.519,6.03,48,64,Manuale ,73,2
181.489,187.519,6.03,60,64,Manuale ,73,2
181.489,187.519,6.03,52,64,Manuale ,73,2
181.489,187.519,6.03,67,64,Manuale ,73,2
187.52,189.057,1.537,65,64,Manuale ,73,2
189.057,190.321,1.264,63,64,Manuale ,73,2
187.52,190.321,2.801,54,64,Manuale ,73,2
187.52,190.321,2.801,49,64,Manuale ,73,2
187.52,190.321,2.801,61,64,Manuale ,73,2
190.321,193.059,2.739,55,64,Manuale ,73,2
190.321,193.059,2.739,60,64,Manuale ,73,2
190.321,193.059,2.739,64,64,Manuale ,73,2
190.321,193.059,2.739,48,64,Manuale ,73,2
174.413,193.06,18.647,46,64,Manuale ,73,2
193.06,202.37,9.31,53,64,Manuale ,73,2
193.06,202.37,9.31,49,64,Manuale ,73,2
193.06,202.37,9.31,58,64,Manuale ,73,2
202.37,204.695,2.325,50,64,Manuale ,73,2
202.37,204.695,2.325,55,64,Manuale ,73,2
204.695,207.021,2.326,52,64,Manuale ,73,2
204.695,207.021,2.326,56,64,Manuale ,73,2
193.06,207.021,13.961,47,64,Manuale ,73,2
207.021,209.345,2.324,49,64,Manuale ,73,2
207.021,209.345,2.324,61,64,Manuale ,73,2
207.021,209.345,2.324,54,64,Manuale ,73,2
209.346,213.592,4.246,48,64,Manuale ,73,2
209.346,213.592,4.246,55,64,Manuale ,73,2
209.346,213.592,4.246,64,64,Manuale ,73,2
213.592,218.617,5.024,54,64,Manuale ,73,2
207.021,218.617,11.596,46,64,Manuale ,73,2
213.592,218.617,5.024,61,64,Manuale ,73,2
218.617,220.933,2.316,57,64,Manuale ,73,2
218.617,220.933,2.316,51,64,Manuale ,73,2
220.933,223.591,2.658,58,64,Manuale ,73,2
220.933,223.591,2.658,52,64,Manuale ,73,2
218.617,223.591,4.974,55,64,Manuale ,73,2
213.592,223.591,9.999,49,64,Manuale ,73,2
223.591,225.939,2.348,51,64,Manuale ,73,2
223.591,225.939,2.348,56,64,Manuale ,73,2
223.591,225.939,2.348,63,64,Manuale ,73,2
225.939,229.828,3.889,50,64,Manuale ,73,2
223.591,229.828,6.237,48,64,Manuale ,73,2
225.939,229.828,3.889,66,64,Manuale ,73,2
225.939,229.828,3.889,57,64,Manuale ,73,2
229.829,235.365,5.536,56,64,Manuale ,73,2
229.829,235.365,5.536,51,64,Manuale ,73,2
229.829,235.365,5.536,59,64,Manuale ,73,2
229.829,235.365,5.536,63,64,Manuale ,73,2
235.365,240.036,4.672,53,64,Manuale ,73,2
235.365,240.036,4.672,65,64,Manuale ,73,2
229.829,240.036,10.208,49,64,Manuale ,73,2
235.365,240.036,4.672,57,64,Manuale ,73,2
240.036,242.452,2.416,56,64,Manuale ,73,2
240.036,242.452,2.416,68,64,Manuale ,73,2
240.036,244.75,4.714,50,64,Manuale ,73,2
240.036,244.75,4.714,54,64,Manuale ,73,2
242.453,244.751,2.298,57,64,Manuale ,73,2
242.453,244.751,2.298,69,64,Manuale ,73,2
244.751,247.049,2.299,72,64,Manuale ,73,2
235.365,247.049,11.685,60,64,Manuale ,73,2
247.049,249.348,2.299,58,64,Manuale ,73,2
240.036,249.348,9.312,66,64,Manuale ,73,2
244.751,249.348,4.598,52,64,Manuale ,73,2
244.751,249.348,4.598,61,64,Manuale ,73,2
247.049,249.348,2.299,70,64,Manuale ,73,2
249.348,251.647,2.299,67,64,Manuale ,73,2
249.348,251.647,2.299,55,64,Manuale ,73,2
249.348,251.647,2.299,60,64,Manuale ,73,2
249.348,251.647,2.299,64,64,Manuale ,73,2
251.647,254.082,2.435,54,64,Manuale ,73,2
251.647,254.082,2.435,66,64,Manuale ,73,2
249.348,254.082,4.734,42,64,Manuale ,73,2
251.647,254.082,2.435,63,64,Manuale ,73,2
251.647,254.082,2.435,58,64,Manuale ,73,2
254.082,256.665,2.583,57,64,Manuale ,73,2
254.082,256.665,2.583,52,64,Manuale ,73,2
254.082,256.665,2.583,61,64,Manuale ,73,2
254.082,256.665,2.583,43,64,Manuale ,73,2
254.082,256.665,2.583,64,64,Manuale ,73,2
256.666,259.574,2.909,51,64,Manuale ,73,2
256.666,259.574,2.909,55,64,Manuale ,73,2
256.666,259.574,2.909,63,64,Manuale ,73,2
256.666,259.574,2.909,60,64,Manuale ,73,2
256.666,259.574,2.909,45,64,Manuale ,73,2
259.574,260.756,1.182,49,64,Manuale ,73,2
259.574,260.756,1.182,61,64,Manuale ,73,2
259.574,260.756,1.182,54,64,Manuale ,73,2
260.756,261.914,1.158,54,63,Manuale ,73,2
260.756,261.914,1.158,63,63,Manuale ,73,2
260.756,261.914,1.158,66,63,Manuale ,73,2
259.574,261.914,2.34,58,64,Manuale ,73,2
261.915,263.089,1.174,64,62,Manuale ,73,2
261.915,263.089,1.174,57,62,Manuale ,73,2
261.915,263.089,1.174,52,62,Manuale ,73,2
261.915,263.089,1.174,61,62,Manuale ,73,2
263.089,264.372,1.284,51,60,Manuale ,73,2
263.089,264.372,1.284,60,60,Manuale ,73,2
263.089,264.372,1.284,55,60,Manuale ,73,2
263.089,264.372,1.284,63,60,Manuale ,73,2
264.372,266.953,2.581,49,59,Manuale ,73,2
264.372,266.953,2.581,61,59,Manuale ,73,2
266.954,269.414,2.46,48,56,Manuale ,73,2
264.372,269.414,5.041,58,59,Manuale ,73,2
266.954,269.414,2.46,60,56,Manuale ,73,2
264.372,269.414,5.041,54,59,Manuale ,73,2
269.414,271.836,2.423,59,53,Manuale ,73,2
269.414,271.836,2.423,53,53,Manuale ,73,2
269.414,271.836,2.423,56,53,Manuale ,73,2
269.414,271.836,2.423,47,53,Manuale ,73,2
269.414,271.836,2.423,50,53,Manuale ,73,2
259.574,274.47,14.896,46,64,Manuale ,73,2
271.837,274.471,2.634,49,51,Manuale ,73,2
271.837,274.471,2.634,58,51,Manuale ,73,2
274.471,275.74,1.269,51,48,Manuale ,73,2
274.471,275.74,1.269,44,48,Manuale ,73,2
271.837,275.74,3.903,54,51,Manuale ,73,2
275.74,276.99,1.25,49,47,Manuale ,73,2
275.74,276.99,1.25,61,47,Manuale ,73,2
275.74,276.99,1.25,53,47,Manuale ,73,2
274.471,276.99,2.519,56,48,Manuale ,73,2
276.99,278.22,1.231,47,45,Manuale ,73,2
276.99,278.22,1.231,51,45,Manuale ,73,2
276.99,278.22,1.231,59,45,Manuale ,73,2
276.99,278.22,1.231,54,45,Manuale ,73,2
278.221,281.109,2.889,46,44,Manuale ,73,2
278.221,281.109,2.889,53,44,Manuale ,73,2
278.221,281.109,2.889,49,44,Manuale ,73,2
278.221,281.109,2.889,58,44,Manuale ,73,2
281.11,283.602,2.492,44,42,Manuale ,73,2
281.11,283.602,2.492,56,42,Manuale ,73,2
283.602,285.909,2.308,54,40,Manuale ,73,2
281.11,285.909,4.799,47,42,Manuale ,73,2
281.11,285.909,4.799,51,42,Manuale ,73,2
285.91,288.385,2.475,45,37,Manuale ,73,2
285.91,288.385,2.475,53,37,Manuale ,73,2
285.91,288.385,2.475,49,37,Manuale ,73,2
285.91,288.385,2.475,41,37,Manuale ,73,2
283.602,291.34,7.739,42,40,Manuale ,73,2
288.385,291.341,2.956,39,34,Manuale ,73,2
274.471,291.341,16.87,35,48,Manuale ,73,2
288.385,291.341,2.956,51,34,Manuale ,73,2
288.385,306.909,18.524,47,34,Manuale ,73,2
288.385,306.909,18.524,44,34,Manuale ,73,2
150.204,151.072,0.869,37,64,Pedale ,54,3
151.361,152.23,0.869,39,64,Pedale ,54,3
152.519,153.388,0.869,40,64,Pedale ,54,3
153.679,154.612,0.934,42,64,Pedale ,54,3
154.926,155.862,0.937,43,64,Pedale ,54,3
156.199,157.318,1.119,46,64,Pedale ,54,3
157.692,158.811,1.12,48,64,Pedale ,54,3
159.184,160.118,0.934,49,64,Pedale ,54,3
160.429,161.362,0.933,53,64,Pedale ,54,3
161.674,162.607,0.933,53,64,Pedale ,54,3
162.918,163.852,0.934,58,64,Pedale ,54,3
164.164,165.032,0.869,58,64,Pedale ,54,3
165.32,166.186,0.866,55,64,Pedale ,54,3
166.474,167.339,0.865,55,64,Pedale ,54,3
167.629,168.493,0.865,53,64,Pedale ,54,3
168.782,169.693,0.911,53,64,Pedale ,54,3
170.006,171.374,1.368,52,64,Pedale ,54,3
171.689,172.693,1.004,50,64,Pedale ,54,3
173.037,174.069,1.032,49,64,Pedale ,54,3
174.413,175.282,0.869,49,64,Pedale ,54,3
175.571,176.44,0.869,58,64,Pedale ,54,3
176.729,177.598,0.869,58,64,Pedale ,54,3
177.888,178.756,0.868,61,64,Pedale ,54,3
179.046,179.915,0.869,61,64,Pedale ,54,3
180.204,181.149,0.945,60,64,Pedale ,54,3
181.489,185.621,4.132,60,64,Pedale ,54,3
185.961,186.856,0.895,58,64,Pedale ,54,3
187.52,188.741,1.221,58,64,Pedale ,54,3
189.057,190.002,0.945,54,64,Pedale ,54,3
190.321,191.347,1.027,54,64,Pedale ,54,3
191.691,192.718,1.027,52,64,Pedale ,54,3
193.06,193.939,0.879,49,64,Pedale ,54,3
194.23,195.102,0.872,53,64,Pedale ,54,3
195.393,196.265,0.872,53,64,Pedale ,54,3
196.556,197.428,0.872,58,64,Pedale ,54,3
197.719,198.591,0.872,58,64,Pedale ,54,3
198.881,199.753,0.872,55,64,Pedale ,54,3
200.044,200.916,0.872,55,64,Pedale ,54,3
201.207,202.079,0.872,53,64,Pedale ,54,3
202.37,203.242,0.872,53,64,Pedale ,54,3
203.533,204.405,0.872,52,64,Pedale ,54,3
204.695,205.567,0.872,50,64,Pedale ,54,3
205.858,206.73,0.872,49,64,Pedale ,54,3
207.021,207.893,0.872,49,64,Pedale ,54,3
208.184,209.056,0.872,58,67,Pedale ,54,3
209.346,210.38,1.034,58,67,Pedale ,54,3
211.053,212.801,1.748,61,68,Pedale ,54,3
213.592,214.464,0.872,61,68,Pedale ,54,3
214.755,215.682,0.927,60,69,Pedale ,54,3
216.021,217.04,1.019,60,70,Pedale ,54,3
217.379,218.327,0.948,58,70,Pedale ,54,3
218.617,219.486,0.869,58,71,Pedale ,54,3
219.775,220.644,0.869,55,72,Pedale ,54,3
220.933,221.802,0.869,55,76,Pedale ,54,3
222.113,223.221,1.108,52,79,Pedale ,54,3
223.591,224.491,0.9,51,80,Pedale ,54,3
224.781,225.65,0.869,56,80,Pedale ,54,3
225.939,226.808,0.869,56,80,Pedale ,54,3
227.76,228.714,0.954,57,80,Pedale ,54,3
229.829,233.918,4.09,59,80,Pedale ,54,3
234.212,235.075,0.862,56,80,Pedale ,54,3
235.365,238.331,2.967,56,80,Pedale ,54,3
238.674,239.701,1.027,57,80,Pedale ,54,3
240.036,240.978,0.942,57,80,Pedale ,54,3
241.292,242.164,0.872,56,80,Pedale ,54,3
242.453,243.315,0.862,56,80,Pedale ,54,3
243.602,244.464,0.862,54,80,Pedale ,54,3
244.751,245.612,0.862,54,80,Pedale ,54,3
245.901,246.762,0.862,57,80,Pedale ,54,3
247.049,247.911,0.862,57,80,Pedale ,54,3
248.199,249.061,0.862,58,80,Pedale ,54,3
249.348,250.21,0.862,58,80,Pedale ,54,3
250.498,251.36,0.862,60,80,Pedale ,54,3
251.647,252.539,0.892,60,80,Pedale ,54,3
252.847,253.773,0.926,61,80,Pedale ,54,3
254.082,255.009,0.927,61,80,Pedale ,54,3
255.338,256.32,0.983,63,80,Pedale ,54,3
256.666,257.706,1.041,63,80,Pedale ,54,3
258.067,259.197,1.131,61,80,Pedale ,54,3
260.756,261.624,0.868,61,80,Pedale ,54,3
261.915,262.783,0.869,61,80,Pedale ,54,3
263.089,264.039,0.951,60,80,Pedale ,54,3
264.372,265.372,1.0,60,80,Pedale ,54,3
265.705,266.661,0.956,58,78,Pedale ,54,3
266.954,267.829,0.876,58,75,Pedale ,54,3
268.121,268.996,0.875,54,73,Pedale ,54,3
269.414,270.376,0.962,53,70,Pedale ,54,3
270.669,271.544,0.876,54,68,Pedale ,54,3
271.837,272.755,0.918,54,65,Pedale ,54,3
273.067,274.076,1.009,58,63,Pedale ,54,3
275.74,276.677,0.937,61,60,Pedale ,54,3
276.99,277.927,0.937,61,59,Pedale ,54,3
278.221,279.085,0.865,59,59,Pedale ,54,3
281.11,282.159,1.049,59,58,Pedale ,54,3
282.448,283.314,0.866,56,57,Pedale ,54,3
283.602,284.467,0.866,56,57,Pedale ,54,3
284.756,285.62,0.865,54,56,Pedale ,54,3
285.91,286.808,0.898,54,55,Pedale ,54,3
287.108,288.058,0.951,53,55,Pedale ,54,3
288.385,289.368,0.983,53,54,Pedale ,54,3
289.765,290.954,1.19,51,53,Pedale ,54,3
291.341,292.281,0.941,49,53,Pedale ,54,3
297.71,298.723,1.014,51,50,Pedale ,54,3
299.061,300.074,1.014,51,50,Pedale ,54,3
300.412,301.425,1.012,56,50,Pedale ,54,3
301.764,302.777,1.014,56,50,Pedale ,54,3
303.115,304.072,0.958,58,50,Pedale ,54,3
304.388,305.332,0.945,58,50,Pedale ,54,3
305.649,306.594,0.945,61,50,Pedale ,54,3
313.212,314.157,0.945,51,50,Pedale ,54,3
314.472,315.473,1.002,51,50,Pedale ,54,3
315.812,316.83,1.018,56,50,Pedale ,54,3
317.171,318.189,1.018,56,50,Pedale ,54,3
318.528,319.545,1.018,58,50,Pedale ,54,3
319.886,320.983,1.097,58,50,Pedale ,54,3
321.356,322.474,1.119,61,50,Pedale ,54,3
329.391,330.436,1.046,51,50,Pedale ,54,3
330.811,331.936,1.125,51,50,Pedale ,54,3
332.311,333.706,1.395,56,50,Pedale ,54,3
348.417,349.601,1.184,51,50,Pedale ,54,3
349.996,351.18,1.184,51,50,Pedale ,54,3
351.575,352.85,1.275,56,50,Pedale ,54,3
361.208,362.056,0.848,51,50,Pedale ,54,3
150.204,151.072,0.869,61,80,Pedale ,72,4
151.361,152.23,0.869,63,80,Pedale ,72,4
152.519,153.388,0.869,64,80,Pedale ,72,4
153.679,154.612,0.934,66,80,Pedale ,72,4
154.926,155.862,0.937,67,80,Pedale ,72,4
156.199,157.318,1.119,70,80,Pedale ,72,4
157.692,158.811,1.12,72,80,Pedale ,72,4
159.184,160.118,0.934,73,80,Pedale ,72,4
160.429,161.362,0.933,77,80,Pedale ,72,4
161.674,162.607,0.933,77,80,Pedale ,72,4
162.918,163.852,0.934,82,80,Pedale ,72,4
164.164,165.032,0.869,82,80,Pedale ,72,4
165.32,166.186,0.866,79,80,Pedale ,72,4
166.474,167.339,0.865,79,80,Pedale ,72,4
167.629,168.493,0.865,77,80,Pedale ,72,4
168.782,169.693,0.911,77,80,Pedale ,72,4
170.006,171.374,1.368,76,80,Pedale ,72,4
171.689,172.693,1.004,74,80,Pedale ,72,4
173.037,174.069,1.032,73,80,Pedale ,72,4
174.413,175.282,0.869,73,80,Pedale ,72,4
175.571,176.44,0.869,82,80,Pedale ,72,4
176.729,177.598,0.869,82,80,Pedale ,72,4
177.888,178.756,0.868,85,80,Pedale ,72,4
179.046,179.915,0.869,85,80,Pedale ,72,4
180.204,181.149,0.945,84,80,Pedale ,72,4
181.489,185.621,4.132,84,80,Pedale ,72,4
185.961,186.856,0.895,82,80,Pedale ,72,4
187.52,188.741,1.221,82,80,Pedale ,72,4
189.057,190.002,0.945,78,80,Pedale ,72,4
190.321,191.347,1.027,78,80,Pedale ,72,4
191.691,192.718,1.027,76,80,Pedale ,72,4
193.06,193.939,0.879,73,80,Pedale ,72,4
194.23,195.102,0.872,77,80,Pedale ,72,4
195.393,196.265,0.872,77,80,Pedale ,72,4
196.556,197.428,0.872,82,80,Pedale ,72,4
197.719,198.591,0.872,82,80,Pedale ,72,4
198.881,199.753,0.872,79,80,Pedale ,72,4
200.044,200.916,0.872,79,80,Pedale ,72,4
201.207,202.079,0.872,77,80,Pedale ,72,4
202.37,203.242,0.872,77,80,Pedale ,72,4
203.533,204.405,0.872,76,80,Pedale ,72,4
204.695,205.567,0.872,74,80,Pedale ,72,4
205.858,206.73,0.872,73,80,Pedale ,72,4
207.021,207.893,0.872,73,80,Pedale ,72,4
208.184,209.056,0.872,82,80,Pedale ,72,4
209.346,210.38,1.034,82,80,Pedale ,72,4
211.053,212.801,1.748,85,80,Pedale ,72,4
213.592,214.464,0.872,85,80,Pedale ,72,4
214.755,215.682,0.927,84,80,Pedale ,72,4
216.021,217.04,1.019,84,80,Pedale ,72,4
217.379,218.327,0.948,82,80,Pedale ,72,4
218.617,219.486,0.869,82,80,Pedale ,72,4
219.775,220.644,0.869,79,80,Pedale ,72,4
220.933,221.802,0.869,79,80,Pedale ,72,4
222.113,223.221,1.108,76,80,Pedale ,72,4
223.591,224.491,0.9,75,80,Pedale ,72,4
224.781,225.65,0.869,80,80,Pedale ,72,4
225.939,226.808,0.869,80,80,Pedale ,72,4
227.76,228.714,0.954,81,80,Pedale ,72,4
229.829,233.918,4.09,83,80,Pedale ,72,4
234.212,235.075,0.862,80,80,Pedale ,72,4
235.365,238.331,2.967,80,80,Pedale ,72,4
238.674,239.701,1.027,81,80,Pedale ,72,4
240.036,240.978,0.942,81,80,Pedale ,72,4
241.292,242.164,0.872,80,80,Pedale ,72,4
242.453,243.315,0.862,80,80,Pedale ,72,4
243.602,244.464,0.862,78,80,Pedale ,72,4
244.751,245.612,0.862,78,80,Pedale ,72,4
245.901,246.762,0.862,81,80,Pedale ,72,4
247.049,247.911,0.862,81,80,Pedale ,72,4
248.199,249.061,0.862,82,80,Pedale ,72,4
249.348,250.21,0.862,82,80,Pedale ,72,4
250.498,251.36,0.862,84,80,Pedale ,72,4
251.647,252.539,0.892,84,80,Pedale ,72,4
252.847,253.773,0.926,85,80,Pedale ,72,4
254.082,255.009,0.927,85,80,Pedale ,72,4
255.338,256.32,0.983,87,80,Pedale ,72,4
256.666,257.706,1.041,87,80,Pedale ,72,4
258.067,259.197,1.131,85,80,Pedale ,72,4
260.756,261.624,0.868,85,80,Pedale ,72,4
261.915,262.783,0.869,85,80,Pedale ,72,4
263.089,264.039,0.951,84,80,Pedale ,72,4
264.372,265.372,1.0,84,80,Pedale ,72,4
265.705,266.661,0.956,82,80,Pedale ,72,4
266.954,267.829,0.876,82,80,Pedale ,72,4
268.121,268.996,0.875,78,80,Pedale ,72,4
269.414,270.376,0.962,77,80,Pedale ,72,4
270.669,271.544,0.876,78,80,Pedale ,72,4
271.837,272.755,0.918,78,80,Pedale ,72,4
273.067,274.076,1.009,82,80,Pedale ,72,4
275.74,276.677,0.937,85,78,Pedale ,72,4
276.99,277.927,0.937,85,77,Pedale ,72,4
278.221,279.085,0.865,83,76,Pedale ,72,4
281.11,282.159,1.049,83,75,Pedale ,72,4
282.448,283.314,0.866,80,74,Pedale ,72,4
283.602,284.467,0.866,80,72,Pedale ,72,4
284.756,285.62,0.865,78,71,Pedale ,72,4
285.91,286.808,0.898,78,70,Pedale ,72,4
287.108,288.058,0.951,77,69,Pedale ,72,4
288.385,289.368,0.983,77,68,Pedale ,72,4
289.765,290.954,1.19,75,67,Pedale ,72,4
291.341,292.281,0.941,73,65,Pedale ,72,4
297.71,298.723,1.014,75,60,Pedale ,72,4
299.061,300.074,1.014,75,59,Pedale ,72,4
300.412,301.425,1.012,80,57,Pedale ,72,4
301.764,302.777,1.014,80,56,Pedale ,72,4
303.115,304.072,0.958,82,55,Pedale ,72,4
304.388,305.332,0.945,82,54,Pedale ,72,4
305.649,306.594,0.945,85,53,Pedale ,72,4
313.212,314.157,0.945,75,50,Pedale ,72,4
314.472,315.473,1.002,75,50,Pedale ,72,4
315.812,316.83,1.018,80,50,Pedale ,72,4
317.171,318.189,1.018,80,50,Pedale ,72,4
318.528,319.545,1.018,82,50,Pedale ,72,4
319.886,320.983,1.097,82,50,Pedale ,72,4
321.356,322.474,1.119,85,50,Pedale ,72,4
329.391,330.436,1.046,75,50,Pedale ,72,4
330.811,331.936,1.125,75,50,Pedale ,72,4
332.311,333.706,1.395,80,50,Pedale ,72,4
348.417,349.601,1.184,75,50,Pedale ,72,4
349.996,351.18,1.184,75,50,Pedale ,72,4
351.575,352.85,1.275,80,50,Pedale ,72,4
361.208,362.056,0.848,75,50,Pedale ,72,4
208.184,209.056,0.872,58,50,Pedale ,52,5
209.346,210.38,1.034,58,53,Pedale ,52,5
211.053,212.801,1.748,61,56,Pedale ,52,5
213.592,214.464,0.872,61,59,Pedale ,52,5
214.755,215.682,0.927,60,62,Pedale ,52,5
216.021,217.04,1.019,60,65,Pedale ,52,5
217.379,218.327,0.948,58,67,Pedale ,52,5
218.617,219.486,0.869,58,70,Pedale ,52,5
219.775,220.644,0.869,55,73,Pedale ,52,5
220.933,221.802,0.869,55,76,Pedale ,52,5
222.113,223.221,1.108,52,79,Pedale ,52,5
223.591,224.491,0.9,51,80,Pedale ,52,5
224.781,225.65,0.869,56,80,Pedale ,52,5
225.939,226.808,0.869,56,80,Pedale ,52,5
227.76,228.714,0.954,57,80,Pedale ,52,5
229.829,233.918,4.09,59,80,Pedale ,52,5
234.212,235.075,0.862,56,80,Pedale ,52,5
235.365,238.331,2.967,56,80,Pedale ,52,5
238.674,239.701,1.027,57,80,Pedale ,52,5
240.036,240.978,0.942,57,80,Pedale ,52,5
241.292,242.164,0.872,56,80,Pedale ,52,5
242.453,243.315,0.862,56,80,Pedale ,52,5
243.602,244.464,0.862,54,80,Pedale ,52,5
244.751,245.612,0.862,54,80,Pedale ,52,5
245.901,246.762,0.862,57,80,Pedale ,52,5
247.049,247.911,0.862,57,80,Pedale ,52,5
248.199,249.061,0.862,58,80,Pedale ,52,5
249.348,250.21,0.862,58,80,Pedale ,52,5
250.498,251.36,0.862,60,80,Pedale ,52,5
251.647,252.539,0.892,60,80,Pedale ,52,5
252.847,253.773,0.926,61,80,Pedale ,52,5
254.082,255.009,0.927,61,80,Pedale ,52,5
255.338,256.32,0.983,63,80,Pedale ,52,5
256.666,257.706,1.041,63,80,Pedale ,52,5
258.067,259.197,1.131,61,80,Pedale ,52,5
260.756,261.624,0.868,61,80,Pedale ,52,5
261.915,262.783,0.869,61,80,Pedale ,52,5
263.089,264.039,0.951,60,80,Pedale ,52,5
264.372,265.372,1.0,60,80,Pedale ,52,5
265.705,266.661,0.956,58,78,Pedale ,52,5
266.954,267.829,0.876,58,75,Pedale ,52,5
268.121,268.996,0.875,54,73,Pedale ,52,5
269.414,270.376,0.962,53,70,Pedale ,52,5
270.669,271.544,0.876,54,68,Pedale ,52,5
271.837,272.755,0.918,54,65,Pedale ,52,5
273.067,274.076,1.009,58,63,Pedale ,52,5
275.74,276.677,0.937,61,60,Pedale ,52,5
276.99,277.927,0.937,61,59,Pedale ,52,5
278.221,279.085,0.865,59,59,Pedale ,52,5
281.11,282.159,1.049,59,58,Pedale ,52,5
282.448,283.314,0.866,56,57,Pedale ,52,5
283.602,284.467,0.866,56,57,Pedale ,52,5
284.756,285.62,0.865,54,56,Pedale ,52,5
285.91,286.808,0.898,54,55,Pedale ,52,5
287.108,288.058,0.951,53,55,Pedale ,52,5
288.385,289.368,0.983,53,54,Pedale ,52,5
289.765,290.954,1.19,51,53,Pedale ,52,5
291.341,292.281,0.941,49,53,Pedale ,52,5
297.71,298.723,1.014,51,50,Pedale ,52,5
299.061,300.074,1.014,51,50,Pedale ,52,5
300.412,301.425,1.012,56,50,Pedale ,52,5
301.764,302.777,1.014,56,50,Pedale ,52,5
303.115,304.072,0.958,58,50,Pedale ,52,5
304.388,305.332,0.945,58,50,Pedale ,52,5
305.649,306.594,0.945,61,50,Pedale ,52,5
313.212,314.157,0.945,51,50,Pedale ,52,5
314.472,315.473,1.002,51,50,Pedale ,52,5
315.812,316.83,1.018,56,50,Pedale ,52,5
317.171,318.189,1.018,56,50,Pedale ,52,5
318.528,319.545,1.018,58,50,Pedale ,52,5
319.886,320.983,1.097,58,50,Pedale ,52,5
321.356,322.474,1.119,61,50,Pedale ,52,5
329.391,330.436,1.046,51,50,Pedale ,52,5
330.811,331.936,1.125,51,50,Pedale ,52,5
332.311,333.706,1.395,56,50,Pedale ,52,5
348.417,349.601,1.184,51,50,Pedale ,52,5
349.996,351.18,1.184,51,50,Pedale ,52,5
351.575,352.85,1.275,56,50,Pedale ,52,5
361.208,362.056,0.848,51,50,Pedale ,52,5
0.0,0.5,0.5,69,0,shadow,0,15
