start,end,duration,pitch,velocity,instrument,instr program,midi channel
5.267,12.19,6.923,49,64,Manuale ,53,0
5.267,12.19,6.923,58,64,Manuale ,53,0
5.267,12.19,6.923,53,64,Manuale ,53,0
12.19,14.774,2.585,50,64,Manuale ,53,0
12.19,14.774,2.585,55,64,Manuale ,53,0
14.774,16.231,1.456,49,64,Manuale ,53,0
14.774,16.231,1.456,53,64,Manuale ,53,0
14.774,16.231,1.456,58,64,Manuale ,53,0
16.231,17.639,1.408,52,64,Manuale ,53,0
16.231,17.639,1.408,56,64,Manuale ,53,0
17.639,20.354,2.715,50,64,Manuale ,53,0
5.267,20.354,15.087,47,64,Manuale ,53,0
17.639,20.354,2.715,55,64,Manuale ,53,0
17.639,20.354,2.715,59,64,Manuale ,53,0
20.354,29.767,9.413,54,64,Manuale ,53,0
20.354,29.767,9.413,65,64,Manuale ,53,0
20.354,29.767,9.413,61,64,Manuale ,53,0
29.767,32.183,2.416,52,64,Manuale ,53,0
29.767,32.183,2.416,67,64,Manuale ,53,0
29.767,32.183,2.416,60,64,Manuale ,53,0
32.183,33.919,1.735,65,64,Manuale ,53,0
33.919,35.089,1.169,63,64,Manuale ,53,0
32.183,35.089,2.905,54,64,Manuale ,53,0
32.183,35.089,2.905,61,64,Manuale ,53,0
35.089,37.886,2.797,60,64,Manuale ,53,0
20.354,37.886,17.532,46,64,Manuale ,53,0
35.089,37.886,2.797,64,64,Manuale ,53,0
35.089,37.886,2.797,55,64,Manuale ,53,0
37.886,48.41,10.524,49,64,Manuale ,53,0
37.886,48.41,10.524,53,64,Manuale ,53,0
37.886,48.41,10.524,58,64,Manuale ,53,0
48.411,51.332,2.921,50,64,Manuale ,53,0
48.411,51.332,2.921,55,64,Manuale ,53,0
51.332,53.719,2.386,52,64,Manuale ,53,0
51.332,53.719,2.386,56,64,Manuale ,53,0
37.886,53.719,15.832,47,64,Manuale ,53,0
53.719,56.153,2.433,54,64,Manuale ,53,0
53.719,56.153,2.433,49,64,Manuale ,53,0
53.719,56.153,2.433,61,64,Manuale ,53,0
56.153,58.77,2.618,55,64,Manuale ,53,0
56.153,58.77,2.618,48,64,Manuale ,53,0
56.153,58.77,2.618,64,64,Manuale ,53,0
58.77,64.869,6.099,61,64,Manuale ,53,0
64.869,66.023,1.154,60,64,Manuale ,53,0
66.023,68.331,2.308,59,64,Manuale ,53,0
53.719,68.331,14.612,46,64,Manuale ,53,0
58.77,68.331,9.561,54,64,Manuale ,53,0
68.331,77.209,8.878,53,64,Manuale ,53,0
58.77,77.209,18.439,49,64,Manuale ,53,0
68.331,77.209,8.878,58,64,Manuale ,53,0
77.209,80.144,2.935,50,64,Manuale ,53,0
77.209,80.144,2.935,55,64,Manuale ,53,0
80.144,81.446,1.302,53,64,Manuale ,53,0
80.144,81.446,1.302,49,64,Manuale ,53,0
80.144,81.446,1.302,58,64,Manuale ,53,0
81.446,82.599,1.154,52,64,Manuale ,53,0
81.446,82.599,1.154,56,64,Manuale ,53,0
68.331,85.235,16.904,47,64,Manuale ,53,0
82.6,85.236,2.636,50,64,Manuale ,53,0
82.6,85.236,2.636,59,64,Manuale ,53,0
82.6,85.236,2.636,55,64,Manuale ,53,0
85.236,93.416,8.18,54,64,Manuale ,53,0
85.236,93.416,8.18,61,64,Manuale ,53,0
85.236,93.416,8.18,65,64,Manuale ,53,0
93.417,96.144,2.728,52,64,Manuale ,53,0
93.417,96.144,2.728,60,64,Manuale ,53,0
93.417,96.144,2.728,67,64,Manuale ,53,0
96.144,97.812,1.668,65,64,Manuale ,53,0
97.813,99.006,1.193,63,64,Manuale ,53,0
96.144,99.006,2.861,54,64,Manuale ,53,0
96.144,99.006,2.861,61,64,Manuale ,53,0
99.006,102.033,3.027,60,64,Manuale ,53,0
85.236,102.033,16.797,46,64,Manuale ,53,0
99.006,102.033,3.027,55,64,Manuale ,53,0
99.006,102.033,3.027,64,64,Manuale ,53,0
102.033,112.99,10.957,53,64,Manuale ,53,0
102.033,112.99,10.957,58,64,Manuale ,53,0
102.033,112.99,10.957,49,64,Manuale ,53,0
112.991,115.628,2.638,50,64,Manuale ,53,0
112.991,115.628,2.638,55,64,Manuale ,53,0
102.033,118.234,16.201,47,64,Manuale ,53,0
115.628,118.234,2.606,52,64,Manuale ,53,0
115.628,118.234,2.606,56,64,Manuale ,53,0
118.234,119.471,1.237,54,64,Manuale ,53,0
118.234,119.471,1.237,61,64,Manuale ,53,0
119.471,120.625,1.154,58,64,Manuale ,53,0
119.471,120.625,1.154,66,64,Manuale ,53,0
119.471,120.625,1.154,63,64,Manuale ,53,0
120.626,121.993,1.367,57,64,Manuale ,53,0
120.626,121.993,1.367,64,64,Manuale ,53,0
120.626,121.993,1.367,61,64,Manuale ,53,0
121.993,123.53,1.537,55,64,Manuale ,53,0
121.993,123.53,1.537,60,64,Manuale ,53,0
121.993,123.53,1.537,63,64,Manuale ,53,0
123.53,128.7,5.17,54,64,Manuale ,53,0
123.53,128.7,5.17,61,64,Manuale ,53,0
128.701,131.264,2.564,48,64,Manuale ,53,0
128.701,131.264,2.564,52,64,Manuale ,53,0
128.701,131.264,2.564,57,64,Manuale ,53,0
118.234,133.789,15.554,46,64,Manuale ,53,0
131.265,133.789,2.524,54,64,Manuale ,53,0
133.789,135.031,1.242,55,64,Manuale ,53,0
133.789,135.031,1.242,63,64,Manuale ,53,0
131.265,135.031,3.766,58,64,Manuale ,53,0
135.031,136.444,1.413,59,64,Manuale ,53,0
133.789,136.444,2.655,51,64,Manuale ,53,0
135.031,136.444,1.413,63,64,Manuale ,53,0
135.031,136.444,1.413,68,64,Manuale ,53,0
135.031,136.444,1.413,56,64,Manuale ,53,0
136.444,137.793,1.349,54,64,Manuale ,53,0
136.444,137.793,1.349,66,64,Manuale ,53,0
136.444,137.793,1.349,58,64,Manuale ,53,0
136.444,137.793,1.349,61,64,Manuale ,53,0
137.793,139.198,1.405,59,64,Manuale ,53,0
137.793,139.198,1.405,64,64,Manuale ,53,0
137.793,139.198,1.405,52,64,Manuale ,53,0
137.793,139.198,1.405,56,64,Manuale ,53,0
139.198,144.601,5.403,55,64,Manuale ,53,0
139.198,144.601,5.403,58,64,Manuale ,53,0
139.198,144.601,5.403,51,64,Manuale ,53,0
139.198,144.601,5.403,63,64,Manuale ,53,0
144.601,147.29,2.689,50,64,Manuale ,53,0
144.601,147.29,2.689,62,64,Manuale ,53,0
144.601,147.29,2.689,57,64,Manuale ,53,0
144.601,147.29,2.689,54,64,Manuale ,53,0
131.265,150.044,18.779,49,64,Manuale ,53,0
147.291,150.044,2.754,55,64,Manuale ,53,0
147.291,150.044,2.754,51,64,Manuale ,53,0
150.044,151.794,1.75,70,64,Manuale ,53,0
147.291,151.794,4.504,58,64,Manuale ,53,0
147.291,151.794,4.504,63,64,Manuale ,53,0
151.794,152.957,1.163,63,64,Manuale ,53,0
151.794,152.957,1.163,75,64,Manuale ,53,0
150.044,152.958,2.914,66,64,Manuale ,53,0
152.958,154.417,1.459,61,64,Manuale ,53,0
152.958,154.417,1.459,64,64,Manuale ,53,0
152.958,154.417,1.459,69,64,Manuale ,53,0
152.958,154.417,1.459,73,64,Manuale ,53,0
154.417,155.797,1.381,60,64,Manuale ,53,0
154.417,155.797,1.381,63,64,Manuale ,53,0
154.417,155.797,1.381,72,64,Manuale ,53,0
154.417,155.797,1.381,67,64,Manuale ,53,0
150.044,155.798,5.754,48,64,Manuale ,53,0
155.798,158.428,2.63,66,64,Manuale ,53,0
155.798,158.428,2.63,70,64,Manuale ,53,0
155.798,158.428,2.63,58,64,Manuale ,53,0
155.798,158.428,2.63,61,64,Manuale ,53,0
158.429,161.68,3.252,57,64,Manuale ,53,0
158.429,161.68,3.252,60,64,Manuale ,53,0
155.798,161.68,5.882,49,64,Manuale ,53,0
158.429,161.68,3.252,64,64,Manuale ,53,0
158.429,161.68,3.252,69,64,Manuale ,53,0
161.68,164.514,2.833,55,64,Manuale ,53,0
161.68,164.514,2.833,67,64,Manuale ,53,0
161.68,164.514,2.833,63,64,Manuale ,53,0
161.68,164.514,2.833,58,64,Manuale ,53,0
164.514,167.152,2.639,57,64,Manuale ,53,0
164.514,167.152,2.639,66,64,Manuale ,53,0
161.68,167.152,5.472,51,64,Manuale ,53,0
164.514,167.152,2.639,61,64,Manuale ,53,0
164.514,167.152,2.639,54,64,Manuale ,53,0
167.153,169.91,2.757,67,64,Manuale ,53,0
167.153,169.91,2.757,55,64,Manuale ,53,0
167.153,169.91,2.757,58,64,Manuale ,53,0
167.153,169.91,2.757,63,64,Manuale ,53,0
169.91,172.348,2.439,57,64,Manuale ,53,0
169.91,172.348,2.439,66,64,Manuale ,53,0
169.91,172.348,2.439,61,64,Manuale ,53,0
169.91,172.348,2.439,54,64,Manuale ,53,0
167.153,172.349,5.196,52,64,Manuale ,53,0
172.349,175.169,2.82,60,64,Manuale ,53,0
172.349,175.169,2.82,64,64,Manuale ,53,0
172.349,175.169,2.82,55,64,Manuale ,53,0
175.169,178.254,3.085,57,64,Manuale ,53,0
172.349,178.254,5.905,49,64,Manuale ,53,0
175.169,178.254,3.085,66,64,Manuale ,53,0
175.169,178.254,3.085,61,64,Manuale ,53,0
178.254,181.372,3.118,67,64,Manuale ,53,0
178.254,181.372,3.118,63,64,Manuale ,53,0
178.254,181.372,3.118,58,64,Manuale ,53,0
178.254,184.357,6.103,48,64,Manuale ,53,0
181.373,184.358,2.985,60,64,Manuale ,53,0
181.373,184.358,2.985,69,64,Manuale ,53,0
181.373,184.358,2.985,64,64,Manuale ,53,0
184.358,192.589,8.231,61,64,Manuale ,53,0
184.358,192.589,8.231,70,64,Manuale ,53,0
184.358,192.589,8.231,65,64,Manuale ,53,0
192.589,195.577,2.987,62,64,Manuale ,53,0
192.589,195.577,2.987,67,64,Manuale ,53,0
195.577,197.014,1.437,65,64,Manuale ,53,0
195.577,197.014,1.437,61,64,Manuale ,53,0
195.577,197.014,1.437,70,64,Manuale ,53,0
197.015,198.441,1.427,64,64,Manuale ,53,0
197.015,198.441,1.427,68,64,Manuale ,53,0
198.441,201.378,2.937,62,64,Manuale ,53,0
184.358,201.378,17.02,59,64,Manuale ,53,0
198.441,201.378,2.937,67,64,Manuale ,53,0
198.441,201.378,2.937,71,64,Manuale ,53,0
201.379,209.948,8.569,61,64,Manuale ,53,0
201.379,209.948,8.569,77,64,Manuale ,53,0
201.379,209.948,8.569,66,64,Manuale ,53,0
201.379,209.948,8.569,73,64,Manuale ,53,0
209.948,212.814,2.866,60,64,Manuale ,53,0
209.948,212.814,2.866,72,64,Manuale ,53,0
209.948,212.814,2.866,64,64,Manuale ,53,0
209.948,212.814,2.866,79,64,Manuale ,53,0
212.815,214.358,1.544,77,64,Manuale ,53,0
214.358,215.707,1.349,75,64,Manuale ,53,0
212.815,215.708,2.893,66,64,Manuale ,53,0
212.815,215.708,2.893,61,64,Manuale ,53,0
212.815,215.708,2.893,73,64,Manuale ,53,0
215.708,218.81,3.103,67,64,Manuale ,53,0
215.708,218.81,3.103,72,64,Manuale ,53,0
215.708,218.81,3.103,76,64,Manuale ,53,0
215.708,218.81,3.103,60,64,Manuale ,53,0
201.379,218.811,17.432,58,64,Manuale ,53,0
218.811,230.702,11.891,65,64,Manuale ,53,0
218.811,230.702,11.891,61,64,Manuale ,53,0
218.811,230.702,11.891,70,64,Manuale ,53,0
230.702,233.751,3.049,62,64,Manuale ,53,0
230.702,233.751,3.049,67,64,Manuale ,53,0
233.751,236.194,2.443,64,64,Manuale ,53,0
233.751,236.194,2.443,68,64,Manuale ,53,0
218.811,236.194,17.383,59,64,Manuale ,53,0
236.194,239.212,3.018,61,64,Manuale ,53,0
236.194,239.212,3.018,73,64,Manuale ,53,0
236.194,239.212,3.018,66,64,Manuale ,53,0
239.212,242.294,3.081,60,64,Manuale ,53,0
239.212,242.294,3.081,67,64,Manuale ,53,0
239.212,242.294,3.081,76,64,Manuale ,53,0
236.194,247.977,11.782,58,64,Manuale ,53,0
242.294,247.977,5.683,66,64,Manuale ,53,0
242.294,247.977,5.683,73,64,Manuale ,53,0
247.977,250.921,2.944,69,64,Manuale ,53,0
247.977,250.921,2.944,63,64,Manuale ,53,0
250.921,254.298,3.377,70,64,Manuale ,53,0
247.977,254.298,6.321,67,64,Manuale ,53,0
250.921,254.298,3.377,64,64,Manuale ,53,0
242.294,254.298,12.004,61,64,Manuale ,53,0
254.298,257.384,3.086,63,64,Manuale ,53,0
254.298,257.384,3.086,68,64,Manuale ,53,0
254.298,257.384,3.086,75,64,Manuale ,53,0
257.384,260.305,2.921,62,64,Manuale ,53,0
257.384,260.305,2.921,78,64,Manuale ,53,0
257.384,260.305,2.921,69,64,Manuale ,53,0
254.298,260.306,6.007,60,64,Manuale ,53,0
260.306,263.378,3.072,68,64,Manuale ,53,0
260.306,263.378,3.072,63,64,Manuale ,53,0
260.306,263.378,3.072,71,64,Manuale ,53,0
260.306,263.378,3.072,75,64,Manuale ,53,0
263.378,266.428,3.05,65,64,Manuale ,53,0
263.378,266.428,3.05,77,64,Manuale ,53,0
260.306,266.428,6.122,61,64,Manuale ,53,0
263.378,266.428,3.05,69,64,Manuale ,53,0
266.428,269.759,3.331,68,64,Manuale ,53,0
266.428,269.759,3.331,80,64,Manuale ,53,0
269.759,272.617,2.858,69,64,Manuale ,53,0
266.428,272.617,6.189,62,64,Manuale ,53,0
266.428,272.617,6.189,66,64,Manuale ,53,0
269.759,272.617,2.858,81,64,Manuale ,53,0
263.378,275.721,12.343,72,64,Manuale ,53,0
272.617,275.721,3.104,84,64,Manuale ,53,0
275.721,278.76,3.039,70,64,Manuale ,53,0
266.428,278.76,12.332,78,64,Manuale ,53,0
275.721,278.76,3.039,82,64,Manuale ,53,0
272.617,278.76,6.143,64,64,Manuale ,53,0
272.617,278.76,6.143,73,64,Manuale ,53,0
278.76,282.022,3.262,79,64,Manuale ,53,0
278.76,282.022,3.262,67,64,Manuale ,53,0
278.76,282.022,3.262,72,64,Manuale ,53,0
278.76,282.022,3.262,76,64,Manuale ,53,0
282.022,285.031,3.009,66,64,Manuale ,53,0
282.022,285.031,3.009,78,64,Manuale ,53,0
278.76,285.031,6.271,54,64,Manuale ,53,0
282.022,285.031,3.009,75,64,Manuale ,53,0
282.022,285.031,3.009,70,64,Manuale ,53,0
285.032,287.925,2.893,69,64,Manuale ,53,0
285.032,287.925,2.893,64,64,Manuale ,53,0
285.032,287.925,2.893,73,64,Manuale ,53,0
285.032,287.925,2.893,55,64,Manuale ,53,0
285.032,287.925,2.893,76,64,Manuale ,53,0
287.925,291.388,3.462,63,64,Manuale ,53,0
287.925,291.388,3.462,67,64,Manuale ,53,0
287.925,291.388,3.462,75,64,Manuale ,53,0
287.925,291.388,3.462,72,64,Manuale ,53,0
287.925,291.388,3.462,57,64,Manuale ,53,0
291.388,292.969,1.582,61,64,Manuale ,53,0
291.388,292.969,1.582,73,64,Manuale ,53,0
291.388,292.969,1.582,66,64,Manuale ,53,0
291.388,294.127,2.74,70,64,Manuale ,53,0
292.97,294.128,1.158,66,64,Manuale ,53,0
292.97,294.128,1.158,75,64,Manuale ,53,0
292.97,294.128,1.158,78,64,Manuale ,53,0
294.128,295.515,1.387,76,64,Manuale ,53,0
294.128,295.515,1.387,69,64,Manuale ,53,0
294.128,295.515,1.387,64,64,Manuale ,53,0
294.128,295.515,1.387,73,64,Manuale ,53,0
295.515,296.953,1.438,63,64,Manuale ,53,0
295.515,296.953,1.438,72,64,Manuale ,53,0
295.515,296.953,1.438,67,64,Manuale ,53,0
295.515,296.953,1.438,75,64,Manuale ,53,0
296.953,299.937,2.984,61,64,Manuale ,53,0
296.953,299.937,2.984,73,64,Manuale ,53,0
299.937,302.841,2.904,60,64,Manuale ,53,0
299.937,302.841,2.904,72,64,Manuale ,53,0
296.953,302.842,5.889,70,64,Manuale ,53,0
296.953,302.842,5.889,66,64,Manuale ,53,0
302.842,306.009,3.167,71,64,Manuale ,53,0
302.842,306.009,3.167,65,64,Manuale ,53,0
302.842,306.009,3.167,68,64,Manuale ,53,0
302.842,306.009,3.167,59,64,Manuale ,53,0
302.842,306.009,3.167,62,64,Manuale ,53,0
291.388,309.362,17.974,58,64,Manuale ,53,0
306.009,309.362,3.353,61,64,Manuale ,53,0
306.009,309.362,3.353,70,64,Manuale ,53,0
309.362,311.067,1.705,63,64,Manuale ,53,0
309.362,311.067,1.705,56,64,Manuale ,53,0
306.009,311.068,5.058,66,64,Manuale ,53,0
309.362,312.701,3.339,68,64,Manuale ,53,0
311.068,312.702,1.634,61,64,Manuale ,53,0
311.068,312.702,1.634,73,64,Manuale ,53,0
311.068,312.702,1.634,65,64,Manuale ,53,0
312.702,313.969,1.267,59,64,Manuale ,53,0
312.702,313.969,1.267,63,64,Manuale ,53,0
312.702,313.969,1.267,71,64,Manuale ,53,0
312.702,313.969,1.267,66,64,Manuale ,53,0
313.969,315.53,1.561,58,64,Manuale ,53,0
313.969,315.53,1.561,65,64,Manuale ,53,0
313.969,315.53,1.561,61,64,Manuale ,53,0
313.969,315.53,1.561,70,64,Manuale ,53,0
315.53,318.104,2.574,56,64,Manuale ,53,0
315.53,318.104,2.574,68,64,Manuale ,53,0
318.104,321.378,3.274,66,64,Manuale ,53,0
315.53,321.378,5.848,59,64,Manuale ,53,0
315.53,321.378,5.848,63,64,Manuale ,53,0
321.379,324.662,3.284,57,64,Manuale ,53,0
321.379,324.662,3.284,65,64,Manuale ,53,0
321.379,324.662,3.284,61,64,Manuale ,53,0
321.379,324.662,3.284,53,64,Manuale ,53,0
324.662,328.39,3.727,51,64,Manuale ,53,0
318.104,328.39,10.285,54,64,Manuale ,53,0
309.362,328.39,19.027,47,64,Manuale ,53,0
324.662,328.39,3.727,63,64,Manuale ,53,0
328.39,330.569,2.179,61,64,Manuale ,53,0
330.569,331.824,1.255,54,64,Manuale ,53,0
330.569,331.824,1.255,66,64,Manuale ,53,0
331.824,333.251,1.427,53,64,Manuale ,53,0
331.824,333.251,1.427,65,64,Manuale ,53,0
333.251,334.698,1.448,51,64,Manuale ,53,0
333.251,334.698,1.448,63,64,Manuale ,53,0
334.699,337.572,2.873,61,64,Manuale ,53,0
337.572,340.846,3.274,54,64,Manuale ,53,0
337.572,340.846,3.274,66,64,Manuale ,53,0
340.846,343.811,2.965,65,64,Manuale ,53,0
340.846,343.811,2.965,53,64,Manuale ,53,0
343.812,349.13,5.318,63,64,Manuale ,53,0
343.812,349.13,5.318,51,64,Manuale ,53,0
349.13,350.39,1.26,54,64,Manuale ,53,0
349.13,350.39,1.26,66,64,Manuale ,53,0
350.39,351.659,1.269,53,64,Manuale ,53,0
350.39,351.659,1.269,65,64,Manuale ,53,0
351.659,352.996,1.336,51,64,Manuale ,53,0
351.659,352.996,1.336,63,64,Manuale ,53,0
352.996,356.071,3.076,61,64,Manuale ,53,0
356.072,358.771,2.699,54,64,Manuale ,53,0
356.072,358.771,2.699,66,64,Manuale ,53,0
358.771,361.784,3.014,53,64,Manuale ,53,0
358.771,361.784,3.014,65,64,Manuale ,53,0
361.784,368.114,6.33,51,64,Manuale ,53,0
361.784,368.114,6.33,63,64,Manuale ,53,0
368.115,370.874,2.76,54,64,Manuale ,53,0
368.115,370.874,2.76,66,64,Manuale ,53,0
370.875,373.691,2.816,53,64,Manuale ,53,0
370.875,373.691,2.816,65,64,Manuale ,53,0
373.691,377.512,3.821,63,64,Manuale ,53,0
373.691,377.512,3.821,51,64,Manuale ,53,0
377.512,380.67,3.158,61,64,Manuale ,53,0
380.67,386.986,6.316,53,64,Manuale ,53,0
380.67,386.986,6.316,57,64,Manuale ,53,0
380.67,386.986,6.316,63,64,Manuale ,53,0
386.986,390.144,3.158,59,64,Manuale ,53,0
386.986,390.144,3.158,56,64,Manuale ,53,0
386.986,390.144,3.158,51,64,Manuale ,53,0
386.986,390.144,3.158,61,64,Manuale ,53,0
390.144,393.473,3.329,53,64,Manuale ,53,0
390.144,393.473,3.329,63,64,Manuale ,53,0
390.144,393.473,3.329,57,64,Manuale ,53,0
393.473,400.484,7.011,59,64,Manuale ,53,0
393.473,400.484,7.011,56,64,Manuale ,53,0
393.473,400.484,7.011,61,64,Manuale ,53,0
393.473,400.484,7.011,51,64,Manuale ,53,0
400.484,411.855,11.371,57,64,Manuale ,53,0
400.484,411.855,11.371,53,64,Manuale ,53,0
400.484,411.855,11.371,63,64,Manuale ,53,0
446.398,462.086,15.688,52,64,Manuale ,53,0
446.398,462.086,15.688,55,64,Manuale ,53,0
446.398,462.086,15.688,63,64,Manuale ,53,0
446.398,462.086,15.688,58,64,Manuale ,53,0
77.209,80.144,2.935,50,30,Manuale ,48,1
77.209,80.144,2.935,55,30,Manuale ,48,1
80.144,81.446,1.302,53,30,Manuale ,48,1
80.144,81.446,1.302,49,30,Manuale ,48,1
80.144,81.446,1.302,58,30,Manuale ,48,1
81.446,82.599,1.154,52,30,Manuale ,48,1
81.446,82.599,1.154,56,30,Manuale ,48,1
82.6,85.236,2.636,50,30,Manuale ,48,1
82.6,85.236,2.636,55,30,Manuale ,48,1
82.6,85.236,2.636,59,30,Manuale ,48,1
85.236,93.416,8.18,54,30,Manuale ,48,1
85.236,93.416,8.18,61,30,Manuale ,48,1
85.236,93.416,8.18,65,30,Manuale ,48,1
93.417,96.144,2.728,52,30,Manuale ,48,1
93.417,96.144,2.728,60,30,Manuale ,48,1
93.417,96.144,2.728,67,30,Manuale ,48,1
96.144,97.812,1.668,65,30,Manuale ,48,1
97.813,99.006,1.193,63,30,Manuale ,48,1
96.144,99.006,2.861,54,30,Manuale ,48,1
96.144,99.006,2.861,61,30,Manuale ,48,1
99.006,102.033,3.027,60,30,Manuale ,48,1
85.236,102.033,16.797,46,30,Manuale ,48,1
99.006,102.033,3.027,55,30,Manuale ,48,1
99.006,102.033,3.027,64,30,Manuale ,48,1
102.033,112.99,10.957,53,30,Manuale ,48,1
102.033,112.99,10.957,58,30,Manuale ,48,1
102.033,112.99,10.957,49,30,Manuale ,48,1
112.991,115.628,2.638,50,30,Manuale ,48,1
112.991,115.628,2.638,55,30,Manuale ,48,1
102.033,118.234,16.201,47,30,Manuale ,48,1
115.628,118.234,2.606,52,30,Manuale ,48,1
115.628,118.234,2.606,56,30,Manuale ,48,1
118.234,119.471,1.237,54,30,Manuale ,48,1
118.234,119.471,1.237,61,30,Manuale ,48,1
119.471,120.625,1.154,58,30,Manuale ,48,1
119.471,120.625,1.154,66,30,Manuale ,48,1
119.471,120.625,1.154,63,30,Manuale ,48,1
120.626,121.993,1.367,57,31,Manuale ,48,1
120.626,121.993,1.367,64,31,Manuale ,48,1
120.626,121.993,1.367,61,31,Manuale ,48,1
121.993,123.53,1.537,55,32,Manuale ,48,1
121.993,123.53,1.537,60,32,Manuale ,48,1
121.993,123.53,1.537,63,32,Manuale ,48,1
123.53,128.7,5.17,54,33,Manuale ,48,1
123.53,128.7,5.17,61,33,Manuale ,48,1
128.701,131.264,2.564,48,36,Manuale ,48,1
128.701,131.264,2.564,52,36,Manuale ,48,1
128.701,131.264,2.564,57,36,Manuale ,48,1
118.234,133.789,15.554,46,30,Manuale ,48,1
131.265,133.789,2.524,54,38,Manuale ,48,1
133.789,135.031,1.242,55,40,Manuale ,48,1
133.789,135.031,1.242,63,40,Manuale ,48,1
131.265,135.031,3.766,58,38,Manuale ,48,1
135.031,136.444,1.413,59,40,Manuale ,48,1
133.789,136.444,2.655,51,40,Manuale ,48,1
135.031,136.444,1.413,63,40,Manuale ,48,1
135.031,136.444,1.413,68,40,Manuale ,48,1
135.031,136.444,1.413,56,40,Manuale ,48,1
136.444,137.793,1.349,54,41,Manuale ,48,1
136.444,137.793,1.349,66,41,Manuale ,48,1
136.444,137.793,1.349,58,41,Manuale ,48,1
136.444,137.793,1.349,61,41,Manuale ,48,1
137.793,139.198,1.405,59,42,Manuale ,48,1
137.793,139.198,1.405,64,42,Manuale ,48,1
137.793,139.198,1.405,52,42,Manuale ,48,1
137.793,139.198,1.405,56,42,Manuale ,48,1
139.198,144.601,5.403,55,43,Manuale ,48,1
139.198,144.601,5.403,58,43,Manuale ,48,1
139.198,144.601,5.403,51,43,Manuale ,48,1
139.198,144.601,5.403,63,43,Manuale ,48,1
144.601,147.29,2.689,50,46,Manuale ,48,1
144.601,147.29,2.689,62,46,Manuale ,48,1
144.601,147.29,2.689,57,46,Manuale ,48,1
144.601,147.29,2.689,54,46,Manuale ,48,1
131.265,150.044,18.779,49,38,Manuale ,48,1
147.291,150.044,2.754,55,48,Manuale ,48,1
147.291,150.044,2.754,51,48,Manuale ,48,1
150.044,151.794,1.75,70,50,Manuale ,48,1
147.291,151.794,4.504,58,48,Manuale ,48,1
147.291,151.794,4.504,63,48,Manuale ,48,1
151.794,152.957,1.163,63,50,Manuale ,48,1
151.794,152.957,1.163,75,50,Manuale ,48,1
150.044,152.958,2.914,66,50,Manuale ,48,1
152.958,154.417,1.459,61,50,Manuale ,48,1
152.958,154.417,1.459,64,50,Manuale ,48,1
152.958,154.417,1.459,69,50,Manuale ,48,1
152.958,154.417,1.459,73,50,Manuale ,48,1
154.417,155.797,1.381,60,50,Manuale ,48,1
154.417,155.797,1.381,63,50,Manuale ,48,1
154.417,155.797,1.381,72,50,Manuale ,48,1
154.417,155.797,1.381,67,50,Manuale ,48,1
150.044,155.798,5.754,48,50,Manuale ,48,1
155.798,158.428,2.63,66,50,Manuale ,48,1
155.798,158.428,2.63,70,50,Manuale ,48,1
155.798,158.428,2.63,58,50,Manuale ,48,1
155.798,158.428,2.63,61,50,Manuale ,48,1
158.429,161.68,3.252,57,50,Manuale ,48,1
158.429,161.68,3.252,60,50,Manuale ,48,1
155.798,161.68,5.882,49,50,Manuale ,48,1
158.429,161.68,3.252,64,50,Manuale ,48,1
158.429,161.68,3.252,69,50,Manuale ,48,1
161.68,164.514,2.833,55,50,Manuale ,48,1
161.68,164.514,2.833,67,50,Manuale ,48,1
161.68,164.514,2.833,63,50,Manuale ,48,1
161.68,164.514,2.833,58,50,Manuale ,48,1
164.514,167.152,2.639,57,50,Manuale ,48,1
164.514,167.152,2.639,66,50,Manuale ,48,1
161.68,167.152,5.472,51,50,Manuale ,48,1
164.514,167.152,2.639,61,50,Manuale ,48,1
164.514,167.152,2.639,54,50,Manuale ,48,1
167.153,169.91,2.757,67,50,Manuale ,48,1
167.153,169.91,2.757,55,50,Manuale ,48,1
167.153,169.91,2.757,58,50,Manuale ,48,1
167.153,169.91,2.757,63,50,Manuale ,48,1
169.91,172.348,2.439,57,50,Manuale ,48,1
169.91,172.348,2.439,66,50,Manuale ,48,1
169.91,172.348,2.439,61,50,Manuale ,48,1
169.91,172.348,2.439,54,50,Manuale ,48,1
167.153,172.349,5.196,52,50,Manuale ,48,1
172.349,175.169,2.82,60,50,Manuale ,48,1
172.349,175.169,2.82,64,50,Manuale ,48,1
172.349,175.169,2.82,55,50,Manuale ,48,1
175.169,178.254,3.085,57,50,Manuale ,48,1
172.349,178.254,5.905,49,50,Manuale ,48,1
175.169,178.254,3.085,66,50,Manuale ,48,1
175.169,178.254,3.085,61,50,Manuale ,48,1
178.254,181.372,3.118,67,50,Manuale ,48,1
178.254,181.372,3.118,63,50,Manuale ,48,1
178.254,181.372,3.118,58,50,Manuale ,48,1
178.254,184.357,6.103,48,50,Manuale ,48,1
181.373,184.358,2.985,60,50,Manuale ,48,1
181.373,184.358,2.985,69,50,Manuale ,48,1
181.373,184.358,2.985,64,50,Manuale ,48,1
184.358,192.589,8.231,61,50,Manuale ,48,1
184.358,192.589,8.231,70,50,Manuale ,48,1
184.358,192.589,8.231,65,50,Manuale ,48,1
192.589,195.577,2.987,62,50,Manuale ,48,1
192.589,195.577,2.987,67,50,Manuale ,48,1
195.577,197.014,1.437,65,50,Manuale ,48,1
195.577,197.014,1.437,61,50,Manuale ,48,1
195.577,197.014,1.437,70,50,Manuale ,48,1
197.015,198.441,1.427,64,50,Manuale ,48,1
197.015,198.441,1.427,68,50,Manuale ,48,1
198.441,201.378,2.937,62,50,Manuale ,48,1
184.358,201.378,17.02,59,50,Manuale ,48,1
198.441,201.378,2.937,67,50,Manuale ,48,1
198.441,201.378,2.937,71,50,Manuale ,48,1
201.379,209.948,8.569,61,50,Manuale ,48,1
201.379,209.948,8.569,77,50,Manuale ,48,1
201.379,209.948,8.569,66,50,Manuale ,48,1
201.379,209.948,8.569,73,50,Manuale ,48,1
209.948,212.814,2.866,60,50,Manuale ,48,1
209.948,212.814,2.866,72,50,Manuale ,48,1
209.948,212.814,2.866,64,50,Manuale ,48,1
209.948,212.814,2.866,79,50,Manuale ,48,1
212.815,214.358,1.544,77,50,Manuale ,48,1
214.358,215.707,1.349,75,50,Manuale ,48,1
212.815,215.708,2.893,66,50,Manuale ,48,1
212.815,215.708,2.893,61,50,Manuale ,48,1
212.815,215.708,2.893,73,50,Manuale ,48,1
215.708,218.81,3.103,67,50,Manuale ,48,1
215.708,218.81,3.103,72,50,Manuale ,48,1
215.708,218.81,3.103,76,50,Manuale ,48,1
215.708,218.81,3.103,60,50,Manuale ,48,1
201.379,218.811,17.432,58,50,Manuale ,48,1
218.811,230.702,11.891,65,50,Manuale ,48,1
218.811,230.702,11.891,61,50,Manuale ,48,1
218.811,230.702,11.891,70,50,Manuale ,48,1
230.702,233.751,3.049,62,50,Manuale ,48,1
230.702,233.751,3.049,67,50,Manuale ,48,1
233.751,236.194,2.443,64,50,Manuale ,48,1
233.751,236.194,2.443,68,50,Manuale ,48,1
218.811,236.194,17.383,59,50,Manuale ,48,1
236.194,239.212,3.018,61,50,Manuale ,48,1
236.194,239.212,3.018,73,50,Manuale ,48,1
236.194,239.212,3.018,66,50,Manuale ,48,1
239.212,242.294,3.081,60,53,Manuale ,48,1
239.212,242.294,3.081,67,53,Manuale ,48,1
239.212,242.294,3.081,76,53,Manuale ,48,1
236.194,247.977,11.782,58,50,Manuale ,48,1
242.294,247.977,5.683,66,56,Manuale ,48,1
242.294,247.977,5.683,73,56,Manuale ,48,1
247.977,250.921,2.944,69,58,Manuale ,48,1
247.977,250.921,2.944,63,58,Manuale ,48,1
250.921,254.298,3.377,70,58,Manuale ,48,1
247.977,254.298,6.321,67,58,Manuale ,48,1
250.921,254.298,3.377,64,58,Manuale ,48,1
242.294,254.298,12.004,61,56,Manuale ,48,1
254.298,257.384,3.086,63,58,Manuale ,48,1
254.298,257.384,3.086,68,58,Manuale ,48,1
254.298,257.384,3.086,75,58,Manuale ,48,1
257.384,260.305,2.921,62,58,Manuale ,48,1
257.384,260.305,2.921,78,58,Manuale ,48,1
257.384,260.305,2.921,69,58,Manuale ,48,1
254.298,260.306,6.007,60,58,Manuale ,48,1
260.306,263.378,3.072,68,58,Manuale ,48,1
260.306,263.378,3.072,63,58,Manuale ,48,1
260.306,263.378,3.072,71,58,Manuale ,48,1
260.306,263.378,3.072,75,58,Manuale ,48,1
263.378,266.428,3.05,65,58,Manuale ,48,1
263.378,266.428,3.05,77,58,Manuale ,48,1
260.306,266.428,6.122,61,58,Manuale ,48,1
263.378,266.428,3.05,69,58,Manuale ,48,1
266.428,269.759,3.331,68,58,Manuale ,48,1
266.428,269.759,3.331,80,58,Manuale ,48,1
269.759,272.617,2.858,69,58,Manuale ,48,1
266.428,272.617,6.189,62,58,Manuale ,48,1
266.428,272.617,6.189,66,58,Manuale ,48,1
269.759,272.617,2.858,81,58,Manuale ,48,1
263.378,275.721,12.343,72,58,Manuale ,48,1
272.617,275.721,3.104,84,58,Manuale ,48,1
275.721,278.76,3.039,70,58,Manuale ,48,1
266.428,278.76,12.332,78,58,Manuale ,48,1
275.721,278.76,3.039,82,58,Manuale ,48,1
272.617,278.76,6.143,64,58,Manuale ,48,1
272.617,278.76,6.143,73,58,Manuale ,48,1
278.76,282.022,3.262,79,58,Manuale ,48,1
278.76,282.022,3.262,67,58,Manuale ,48,1
278.76,282.022,3.262,72,58,Manuale ,48,1
278.76,282.022,3.262,76,58,Manuale ,48,1
282.022,285.031,3.009,66,58,Manuale ,48,1
282.022,285.031,3.009,78,58,Manuale ,48,1
278.76,285.031,6.271,54,58,Manuale ,48,1
282.022,285.031,3.009,75,58,Manuale ,48,1
282.022,285.031,3.009,70,58,Manuale ,48,1
285.032,287.925,2.893,69,58,Manuale ,48,1
285.032,287.925,2.893,64,58,Manuale ,48,1
285.032,287.925,2.893,73,58,Manuale ,48,1
285.032,287.925,2.893,55,58,Manuale ,48,1
285.032,287.925,2.893,76,58,Manuale ,48,1
287.925,291.388,3.462,63,58,Manuale ,48,1
287.925,291.388,3.462,67,58,Manuale ,48,1
287.925,291.388,3.462,75,58,Manuale ,48,1
287.925,291.388,3.462,72,58,Manuale ,48,1
287.925,291.388,3.462,57,58,Manuale ,48,1
291.388,292.969,1.582,61,58,Manuale ,48,1
291.388,292.969,1.582,73,58,Manuale ,48,1
291.388,292.969,1.582,66,58,Manuale ,48,1
291.388,294.127,2.74,70,58,Manuale ,48,1
292.97,294.128,1.158,66,58,Manuale ,48,1
292.97,294.128,1.158,75,58,Manuale ,48,1
292.97,294.128,1.158,78,58,Manuale ,48,1
294.128,295.515,1.387,76,58,Manuale ,48,1
294.128,295.515,1.387,69,58,Manuale ,48,1
294.128,295.515,1.387,64,58,Manuale ,48,1
294.128,295.515,1.387,73,58,Manuale ,48,1
295.515,296.953,1.438,63,58,Manuale ,48,1
295.515,296.953,1.438,72,58,Manuale ,48,1
295.515,296.953,1.438,67,58,Manuale ,48,1
295.515,296.953,1.438,75,58,Manuale ,48,1
296.953,299.937,2.984,61,58,Manuale ,48,1
296.953,299.937,2.984,73,58,Manuale ,48,1
299.937,302.841,2.904,60,58,Manuale ,48,1
299.937,302.841,2.904,72,58,Manuale ,48,1
296.953,302.842,5.889,70,58,Manuale ,48,1
296.953,302.842,5.889,66,58,Manuale ,48,1
302.842,306.009,3.167,71,59,Manuale ,48,1
302.842,306.009,3.167,65,59,Manuale ,48,1
302.842,306.009,3.167,68,59,Manuale ,48,1
302.842,306.009,3.167,59,59,Manuale ,48,1
302.842,306.009,3.167,62,59,Manuale ,48,1
291.388,309.362,17.974,58,58,Manuale ,48,1
306.009,309.362,3.353,61,57,Manuale ,48,1
306.009,309.362,3.353,70,57,Manuale ,48,1
309.362,311.067,1.705,63,54,Manuale ,48,1
309.362,311.067,1.705,56,54,Manuale ,48,1
306.009,311.068,5.058,66,57,Manuale ,48,1
309.362,312.701,3.339,68,54,Manuale ,48,1
311.068,312.702,1.634,61,52,Manuale ,48,1
311.068,312.702,1.634,73,52,Manuale ,48,1
311.068,312.702,1.634,65,52,Manuale ,48,1
312.702,313.969,1.267,59,51,Manuale ,48,1
312.702,313.969,1.267,63,51,Manuale ,48,1
312.702,313.969,1.267,71,51,Manuale ,48,1
312.702,313.969,1.267,66,51,Manuale ,48,1
313.969,315.53,1.561,58,50,Manuale ,48,1
313.969,315.53,1.561,65,50,Manuale ,48,1
313.969,315.53,1.561,61,50,Manuale ,48,1
313.969,315.53,1.561,70,50,Manuale ,48,1
315.53,318.104,2.574,56,48,Manuale ,48,1
315.53,318.104,2.574,68,48,Manuale ,48,1
318.104,321.378,3.274,66,45,Manuale ,48,1
315.53,321.378,5.848,59,48,Manuale ,48,1
315.53,321.378,5.848,63,48,Manuale ,48,1
321.379,324.662,3.284,57,43,Manuale ,48,1
321.379,324.662,3.284,65,43,Manuale ,48,1
321.379,324.662,3.284,61,43,Manuale ,48,1
321.379,324.662,3.284,53,43,Manuale ,48,1
324.662,328.39,3.727,51,40,Manuale ,48,1
318.104,328.39,10.285,54,45,Manuale ,48,1
309.362,328.39,19.027,47,54,Manuale ,48,1
324.662,328.39,3.727,63,40,Manuale ,48,1
328.39,330.569,2.179,61,39,Manuale ,48,1
330.569,331.824,1.255,54,39,Manuale ,48,1
330.569,331.824,1.255,66,39,Manuale ,48,1
331.824,333.251,1.427,53,38,Manuale ,48,1
331.824,333.251,1.427,65,38,Manuale ,48,1
333.251,334.698,1.448,51,38,Manuale ,48,1
333.251,334.698,1.448,63,38,Manuale ,48,1
334.699,337.572,2.873,61,37,Manuale ,48,1
337.572,340.846,3.274,54,36,Manuale ,48,1
337.572,340.846,3.274,66,36,Manuale ,48,1
340.846,343.811,2.965,65,35,Manuale ,48,1
340.846,343.811,2.965,53,35,Manuale ,48,1
343.812,349.13,5.318,63,34,Manuale ,48,1
343.812,349.13,5.318,51,34,Manuale ,48,1
349.13,350.39,1.26,54,33,Manuale ,48,1
349.13,350.39,1.26,66,33,Manuale ,48,1
350.39,351.659,1.269,53,32,Manuale ,48,1
350.39,351.659,1.269,65,32,Manuale ,48,1
351.659,352.996,1.336,51,32,Manuale ,48,1
351.659,352.996,1.336,63,32,Manuale ,48,1
352.996,356.071,3.076,61,31,Manuale ,48,1
356.072,358.771,2.699,54,30,Manuale ,48,1
356.072,358.771,2.699,66,30,Manuale ,48,1
358.771,361.784,3.014,53,29,Manuale ,48,1
358.771,361.784,3.014,65,29,Manuale ,48,1
361.784,368.114,6.33,51,28,Manuale ,48,1
361.784,368.114,6.33,63,28,Manuale ,48,1
368.115,370.874,2.76,54,26,Manuale ,48,1
368.115,370.874,2.76,66,26,Manuale ,48,1
370.875,373.691,2.816,53,25,Manuale ,48,1
370.875,373.691,2.816,65,25,Manuale ,48,1
373.691,377.512,3.821,63,24,Manuale ,48,1
373.691,377.512,3.821,51,24,Manuale ,48,1
377.512,380.67,3.158,61,23,Manuale ,48,1
380.67,386.986,6.316,53,22,Manuale ,48,1
380.67,386.986,6.316,57,22,Manuale ,48,1
380.67,386.986,6.316,63,22,Manuale ,48,1
184.358,192.589,8.231,49,64,Manuale ,73,2
184.358,192.589,8.231,58,64,Manuale ,73,2
184.358,192.589,8.231,53,64,Manuale ,73,2
192.589,195.577,2.987,50,64,Manuale ,73,2
192.589,195.577,2.987,55,64,Manuale ,73,2
195.577,197.014,1.437,53,64,Manuale ,73,2
195.577,197.014,1.437,49,64,Manuale ,73,2
195.577,197.014,1.437,58,64,Manuale ,73,2
197.015,198.441,1.427,52,64,Manuale ,73,2
197.015,198.441,1.427,56,64,Manuale ,73,2
198.441,201.378,2.937,50,64,Manuale ,73,2
184.358,201.378,17.02,47,64,Manuale ,73,2
198.441,201.378,2.937,55,64,Manuale ,73,2
198.441,201.378,2.937,59,64,Manuale ,73,2
201.379,209.948,8.569,49,64,Manuale ,73,2
201.379,209.948,8.569,65,64,Manuale ,73,2
201.379,209.948,8.569,54,64,Manuale ,73,2
201.379,209.948,8.569,61,64,Manuale ,73,2
209.948,212.814,2.866,48,64,Manuale ,73,2
209.948,212.814,2.866,60,64,Manuale ,73,2
209.948,212.814,2.866,52,64,Manuale ,73,2
209.948,212.814,2.866,67,64,Manuale ,73,2
212.815,214.358,1.544,65,64,Manuale ,73,2
214.358,215.707,1.349,63,64,Manuale ,73,2
212.815,215.708,2.893,54,64,Manuale ,73,2
212.815,215.708,2.893,49,64,Manuale ,73,2
212.815,215.708,2.893,61,64,Manuale ,73,2
215.708,218.81,3.103,55,64,Manuale ,73,2
215.708,218.81,3.103,60,64,Manuale ,73,2
215.708,218.81,3.103,64,64,Manuale ,73,2
215.708,218.81,3.103,48,64,Manuale ,73,2
201.379,218.811,17.432,46,64,Manuale ,73,2
218.811,230.702,11.891,53,64,Manuale ,73,2
218.811,230.702,11.891,49,64,Manuale ,73,2
218.811,230.702,11.891,58,64,Manuale ,73,2
230.702,233.751,3.049,50,64,Manuale ,73,2
230.702,233.751,3.049,55,64,Manuale ,73,2
233.751,236.194,2.443,52,64,Manuale ,73,2
233.751,236.194,2.443,56,64,Manuale ,73,2
218.811,236.194,17.383,47,64,Manuale ,73,2
236.194,239.212,3.018,49,64,Manuale ,73,2
236.194,239.212,3.018,61,64,Manuale ,73,2
236.194,239.212,3.018,54,64,Manuale ,73,2
239.212,242.294,3.081,48,64,Manuale ,73,2
239.212,242.294,3.081,55,64,Manuale ,73,2
239.212,242.294,3.081,64,64,Manuale ,73,2
236.194,247.977,11.782,46,64,Manuale ,73,2
242.294,247.977,5.683,54,64,Manuale ,73,2
242.294,247.977,5.683,61,64,Manuale ,73,2
247.977,250.921,2.944,57,64,Manuale ,73,2
247.977,250.921,2.944,51,64,Manuale ,73,2
250.921,254.298,3.377,58,64,Manuale ,73,2
247.977,254.298,6.321,55,64,Manuale ,73,2
250.921,254.298,3.377,52,64,Manuale ,73,2
242.294,254.298,12.004,49,64,Manuale ,73,2
254.298,257.384,3.086,51,64,Manuale ,73,2
254.298,257.384,3.086,56,64,Manuale ,73,2
254.298,257.384,3.086,63,64,Manuale ,73,2
257.384,260.305,2.921,50,64,Manuale ,73,2
257.384,260.305,2.921,66,64,Manuale ,73,2
257.384,260.305,2.921,57,64,Manuale ,73,2
254.298,260.306,6.007,48,64,Manuale ,73,2
260.306,263.378,3.072,56,64,Manuale ,73,2
260.306,263.378,3.072,51,64,Manuale ,73,2
260.306,263.378,3.072,59,64,Manuale ,73,2
260.306,263.378,3.072,63,64,Manuale ,73,2
263.378,266.428,3.05,53,64,Manuale ,73,2
263.378,266.428,3.05,65,64,Manuale ,73,2
260.306,266.428,6.122,49,64,Manuale ,73,2
263.378,266.428,3.05,57,64,Manuale ,73,2
266.428,269.759,3.331,56,64,Manuale ,73,2
266.428,269.759,3.331,68,64,Manuale ,73,2
269.759,272.617,2.858,57,64,Manuale ,73,2
266.428,272.617,6.189,50,64,Manuale ,73,2
266.428,272.617,6.189,54,64,Manuale ,73,2
269.759,272.617,2.858,69,64,Manuale ,73,2
263.378,275.721,12.343,60,64,Manuale ,73,2
272.617,275.721,3.104,72,64,Manuale ,73,2
275.721,278.76,3.039,58,64,Manuale ,73,2
266.428,278.76,12.332,66,64,Manuale ,73,2
275.721,278.76,3.039,70,64,Manuale ,73,2
272.617,278.76,6.143,52,64,Manuale ,73,2
272.617,278.76,6.143,61,64,Manuale ,73,2
278.76,282.022,3.262,67,64,Manuale ,73,2
278.76,282.022,3.262,55,64,Manuale ,73,2
278.76,282.022,3.262,60,64,Manuale ,73,2
278.76,282.022,3.262,64,64,Manuale ,73,2
282.022,285.031,3.009,54,64,Manuale ,73,2
282.022,285.031,3.009,66,64,Manuale ,73,2
278.76,285.031,6.271,42,64,Manuale ,73,2
282.022,285.031,3.009,63,64,Manuale ,73,2
282.022,285.031,3.009,58,64,Manuale ,73,2
285.032,287.925,2.893,57,64,Manuale ,73,2
285.032,287.925,2.893,52,64,Manuale ,73,2
285.032,287.925,2.893,61,64,Manuale ,73,2
285.032,287.925,2.893,43,64,Manuale ,73,2
285.032,287.925,2.893,64,64,Manuale ,73,2
287.925,291.388,3.462,51,64,Manuale ,73,2
287.925,291.388,3.462,55,64,Manuale ,73,2
287.925,291.388,3.462,63,64,Manuale ,73,2
287.925,291.388,3.462,60,64,Manuale ,73,2
287.925,291.388,3.462,45,64,Manuale ,73,2
291.388,292.969,1.582,49,64,Manuale ,73,2
291.388,292.969,1.582,61,64,Manuale ,73,2
291.388,292.969,1.582,54,64,Manuale ,73,2
291.388,294.127,2.74,58,64,Manuale ,73,2
292.97,294.128,1.158,54,63,Manuale ,73,2
292.97,294.128,1.158,63,63,Manuale ,73,2
292.97,294.128,1.158,66,63,Manuale ,73,2
294.128,295.515,1.387,64,62,Manuale ,73,2
294.128,295.515,1.387,57,62,Manuale ,73,2
294.128,295.515,1.387,52,62,Manuale ,73,2
294.128,295.515,1.387,61,62,Manuale ,73,2
295.515,296.953,1.438,51,60,Manuale ,73,2
295.515,296.953,1.438,60,60,Manuale ,73,2
295.515,296.953,1.438,55,60,Manuale ,73,2
295.515,296.953,1.438,63,60,Manuale ,73,2
296.953,299.937,2.984,49,59,Manuale ,73,2
296.953,299.937,2.984,61,59,Manuale ,73,2
299.937,302.841,2.904,48,56,Manuale ,73,2
299.937,302.841,2.904,60,56,Manuale ,73,2
296.953,302.842,5.889,58,59,Manuale ,73,2
296.953,302.842,5.889,54,59,Manuale ,73,2
302.842,306.009,3.167,59,53,Manuale ,73,2
302.842,306.009,3.167,53,53,Manuale ,73,2
302.842,306.009,3.167,56,53,Manuale ,73,2
302.842,306.009,3.167,47,53,Manuale ,73,2
302.842,306.009,3.167,50,53,Manuale ,73,2
291.388,309.362,17.974,46,64,Manuale ,73,2
306.009,309.362,3.353,49,51,Manuale ,73,2
306.009,309.362,3.353,58,51,Manuale ,73,2
309.362,311.067,1.705,51,48,Manuale ,73,2
309.362,311.067,1.705,44,48,Manuale ,73,2
306.009,311.068,5.058,54,51,Manuale ,73,2
309.362,312.701,3.339,56,48,Manuale ,73,2
311.068,312.702,1.634,49,47,Manuale ,73,2
311.068,312.702,1.634,61,47,Manuale ,73,2
311.068,312.702,1.634,53,47,Manuale ,73,2
312.702,313.969,1.267,47,45,Manuale ,73,2
312.702,313.969,1.267,51,45,Manuale ,73,2
312.702,313.969,1.267,59,45,Manuale ,73,2
312.702,313.969,1.267,54,45,Manuale ,73,2
313.969,315.53,1.561,46,44,Manuale ,73,2
313.969,315.53,1.561,53,44,Manuale ,73,2
313.969,315.53,1.561,49,44,Manuale ,73,2
313.969,315.53,1.561,58,44,Manuale ,73,2
315.53,318.104,2.574,44,42,Manuale ,73,2
315.53,318.104,2.574,56,42,Manuale ,73,2
318.104,321.378,3.274,54,40,Manuale ,73,2
315.53,321.378,5.848,47,42,Manuale ,73,2
315.53,321.378,5.848,51,42,Manuale ,73,2
321.379,324.662,3.284,45,37,Manuale ,73,2
321.379,324.662,3.284,53,37,Manuale ,73,2
321.379,324.662,3.284,49,37,Manuale ,73,2
321.379,324.662,3.284,41,37,Manuale ,73,2
324.662,328.39,3.727,39,34,Manuale ,73,2
318.104,328.39,10.285,42,40,Manuale ,73,2
309.362,328.39,19.027,35,48,Manuale ,73,2
324.662,328.39,3.727,51,34,Manuale ,73,2
173.841,174.88,1.04,37,64,Pedale ,54,3
175.169,176.806,1.637,39,64,Pedale ,54,3
177.095,177.964,0.869,40,64,Pedale ,54,3
178.254,179.743,1.489,42,64,Pedale ,54,3
180.056,181.035,0.979,43,64,Pedale ,54,3
181.373,182.492,1.119,46,64,Pedale ,54,3
182.865,183.984,1.12,48,64,Pedale ,54,3
184.358,185.292,0.934,49,64,Pedale ,54,3
185.603,186.535,0.933,53,64,Pedale ,54,3
186.848,187.781,0.933,53,64,Pedale ,54,3
188.121,189.196,1.075,58,64,Pedale ,54,3
189.587,190.803,1.216,58,64,Pedale ,54,3
191.091,192.298,1.207,55,64,Pedale ,54,3
192.589,193.835,1.246,55,64,Pedale ,54,3
194.124,195.288,1.164,53,64,Pedale ,54,3
195.577,196.679,1.102,53,64,Pedale ,54,3
197.015,197.956,0.942,52,64,Pedale ,54,3
198.441,199.445,1.004,50,64,Pedale ,54,3
199.789,201.034,1.245,49,64,Pedale ,54,3
201.379,202.504,1.125,49,64,Pedale ,54,3
202.792,203.789,0.997,58,64,Pedale ,54,3
204.079,205.331,1.253,58,64,Pedale ,54,3
205.621,206.489,0.868,61,64,Pedale ,54,3
206.779,207.691,0.911,61,64,Pedale ,54,3
207.98,209.608,1.628,60,64,Pedale ,54,3
209.948,210.966,1.018,60,64,Pedale ,54,3
211.347,212.37,1.023,58,64,Pedale ,54,3
212.815,214.042,1.228,58,64,Pedale ,54,3
214.358,215.389,1.03,54,64,Pedale ,54,3
215.708,217.076,1.368,54,64,Pedale ,54,3
217.419,218.446,1.027,52,64,Pedale ,54,3
218.811,219.88,1.069,49,64,Pedale ,54,3
220.171,221.043,0.872,53,64,Pedale ,54,3
221.462,222.441,0.979,53,64,Pedale ,54,3
223.095,224.244,1.149,58,64,Pedale ,54,3
224.556,225.641,1.085,58,64,Pedale ,54,3
225.932,227.188,1.256,55,64,Pedale ,54,3
227.479,228.692,1.213,55,64,Pedale ,54,3
228.983,230.049,1.066,53,64,Pedale ,54,3
230.702,231.743,1.042,53,64,Pedale ,54,3
232.034,233.461,1.427,52,64,Pedale ,54,3
233.751,234.623,0.872,50,64,Pedale ,54,3
234.914,235.786,0.872,49,64,Pedale ,54,3
236.194,237.376,1.181,49,64,Pedale ,54,3
237.761,238.923,1.162,58,67,Pedale ,54,3
239.212,240.469,1.257,58,67,Pedale ,54,3
240.76,241.973,1.213,61,68,Pedale ,54,3
242.294,243.221,0.927,61,68,Pedale ,54,3
243.591,244.624,1.034,60,69,Pedale ,54,3
244.992,246.053,1.061,60,70,Pedale ,54,3
246.392,247.681,1.289,58,70,Pedale ,54,3
247.977,249.03,1.053,58,71,Pedale ,54,3
249.642,250.51,0.869,55,72,Pedale ,54,3
250.921,251.967,1.046,55,76,Pedale ,54,3
252.577,253.685,1.108,52,79,Pedale ,54,3
254.298,255.638,1.339,51,80,Pedale ,54,3
255.928,256.923,0.995,56,80,Pedale ,54,3
257.384,258.296,0.911,56,80,Pedale ,54,3
258.608,259.989,1.38,57,80,Pedale ,54,3
260.306,261.268,0.962,59,80,Pedale ,54,3
261.562,262.968,1.406,56,80,Pedale ,54,3
263.378,264.358,0.98,56,80,Pedale ,54,3
264.701,265.728,1.027,57,80,Pedale ,54,3
266.428,267.773,1.345,57,80,Pedale ,54,3
268.258,269.471,1.213,56,80,Pedale ,54,3
269.759,270.621,0.862,56,80,Pedale ,54,3
270.908,271.983,1.075,54,80,Pedale ,54,3
272.617,273.687,1.07,54,80,Pedale ,54,3
273.975,274.837,0.862,57,80,Pedale ,54,3
275.721,276.583,0.862,57,80,Pedale ,54,3
276.871,278.145,1.274,58,80,Pedale ,54,3
278.76,279.864,1.103,58,80,Pedale ,54,3
280.408,281.363,0.955,60,80,Pedale ,54,3
282.022,283.131,1.109,60,80,Pedale ,54,3
283.44,284.626,1.186,61,80,Pedale ,54,3
285.032,286.156,1.124,61,80,Pedale ,54,3
286.484,287.467,0.983,63,80,Pedale ,54,3
287.925,289.279,1.354,63,80,Pedale ,54,3
289.64,290.77,1.131,61,80,Pedale ,54,3
292.97,293.838,0.868,61,80,Pedale ,54,3
294.128,295.21,1.082,61,80,Pedale ,54,3
295.515,296.466,0.951,60,80,Pedale ,54,3
296.953,298.354,1.401,60,80,Pedale ,54,3
298.687,299.643,0.956,58,78,Pedale ,54,3
299.937,301.109,1.172,58,75,Pedale ,54,3
301.402,302.277,0.875,54,73,Pedale ,54,3
302.842,303.966,1.124,53,70,Pedale ,54,3
304.29,305.678,1.387,54,68,Pedale ,54,3
306.009,307.357,1.348,54,65,Pedale ,54,3
307.669,308.881,1.211,58,63,Pedale ,54,3
311.068,312.389,1.321,61,60,Pedale ,54,3
312.702,313.639,0.937,61,59,Pedale ,54,3
313.969,315.224,1.255,59,59,Pedale ,54,3
315.53,316.506,0.976,59,58,Pedale ,54,3
316.794,317.66,0.866,56,57,Pedale ,54,3
318.104,319.582,1.478,56,57,Pedale ,54,3
319.87,321.077,1.206,54,56,Pedale ,54,3
321.379,322.648,1.269,54,55,Pedale ,54,3
322.948,323.898,0.951,53,55,Pedale ,54,3
324.662,326.19,1.528,53,54,Pedale ,54,3
326.714,327.904,1.19,51,53,Pedale ,54,3
328.39,329.572,1.182,49,53,Pedale ,54,3
336.11,337.123,1.014,51,50,Pedale ,54,3
337.572,338.73,1.158,51,50,Pedale ,54,3
339.111,340.508,1.397,56,50,Pedale ,54,3
340.846,342.031,1.184,56,50,Pedale ,54,3
342.368,343.369,1.001,58,50,Pedale ,54,3
343.812,345.055,1.243,58,50,Pedale ,54,3
345.371,346.406,1.035,61,50,Pedale ,54,3
354.684,355.657,0.973,51,50,Pedale ,54,3
356.072,357.073,1.002,51,50,Pedale ,54,3
357.412,358.43,1.018,56,50,Pedale ,54,3
358.771,360.038,1.267,56,50,Pedale ,54,3
360.384,361.444,1.06,58,50,Pedale ,54,3
361.784,363.222,1.438,58,50,Pedale ,54,3
363.596,365.141,1.545,61,50,Pedale ,54,3
372.271,373.317,1.046,51,50,Pedale ,54,3
373.691,374.816,1.125,51,50,Pedale ,54,3
375.191,376.805,1.615,56,50,Pedale ,54,3
391.723,393.078,1.354,51,50,Pedale ,54,3
393.473,394.662,1.189,51,50,Pedale ,54,3
395.308,396.583,1.274,56,50,Pedale ,54,3
405.709,407.772,2.064,51,50,Pedale ,54,3
173.841,174.88,1.04,61,80,Pedale ,72,4
175.169,176.806,1.637,63,80,Pedale ,72,4
177.095,177.964,0.869,64,80,Pedale ,72,4
178.254,179.743,1.489,66,80,Pedale ,72,4
180.056,181.035,0.979,67,80,Pedale ,72,4
181.373,182.492,1.119,70,80,Pedale ,72,4
182.865,183.984,1.12,72,80,Pedale ,72,4
184.358,185.292,0.934,73,80,Pedale ,72,4
185.603,186.535,0.933,77,80,Pedale ,72,4
186.848,187.781,0.933,77,80,Pedale ,72,4
188.121,189.196,1.075,82,80,Pedale ,72,4
189.587,190.803,1.216,82,80,Pedale ,72,4
191.091,192.298,1.207,79,80,Pedale ,72,4
192.589,193.835,1.246,79,80,Pedale ,72,4
194.124,195.288,1.164,77,80,Pedale ,72,4
195.577,196.679,1.102,77,80,Pedale ,72,4
197.015,197.956,0.942,76,80,Pedale ,72,4
198.441,199.445,1.004,74,80,Pedale ,72,4
199.789,201.034,1.245,73,80,Pedale ,72,4
201.379,202.504,1.125,73,80,Pedale ,72,4
202.792,203.789,0.997,82,80,Pedale ,72,4
204.079,205.331,1.253,82,80,Pedale ,72,4
205.621,206.489,0.868,85,80,Pedale ,72,4
206.779,207.691,0.911,85,80,Pedale ,72,4
207.98,209.608,1.628,84,80,Pedale ,72,4
209.948,210.966,1.018,84,80,Pedale ,72,4
211.347,212.37,1.023,82,80,Pedale ,72,4
212.815,214.042,1.228,82,80,Pedale ,72,4
214.358,215.389,1.03,78,80,Pedale ,72,4
215.708,217.076,1.368,78,80,Pedale ,72,4
217.419,218.446,1.027,76,80,Pedale ,72,4
218.811,219.88,1.069,73,80,Pedale ,72,4
220.171,221.043,0.872,77,80,Pedale ,72,4
221.462,222.441,0.979,77,80,Pedale ,72,4
223.095,224.244,1.149,82,80,Pedale ,72,4
224.556,225.641,1.085,82,80,Pedale ,72,4
225.932,227.188,1.256,79,80,Pedale ,72,4
227.479,228.692,1.213,79,80,Pedale ,72,4
228.983,230.049,1.066,77,80,Pedale ,72,4
230.702,231.743,1.042,77,80,Pedale ,72,4
232.034,233.461,1.427,76,80,Pedale ,72,4
233.751,234.623,0.872,74,80,Pedale ,72,4
234.914,235.786,0.872,73,80,Pedale ,72,4
236.194,237.376,1.181,73,80,Pedale ,72,4
237.761,238.923,1.162,82,80,Pedale ,72,4
239.212,240.469,1.257,82,80,Pedale ,72,4
240.76,241.973,1.213,85,80,Pedale ,72,4
242.294,243.221,0.927,85,80,Pedale ,72,4
243.591,244.624,1.034,84,80,Pedale ,72,4
244.992,246.053,1.061,84,80,Pedale ,72,4
246.392,247.681,1.289,82,80,Pedale ,72,4
247.977,249.03,1.053,82,80,Pedale ,72,4
249.642,250.51,0.869,79,80,Pedale ,72,4
250.921,251.967,1.046,79,80,Pedale ,72,4
252.577,253.685,1.108,76,80,Pedale ,72,4
254.298,255.638,1.339,75,80,Pedale ,72,4
255.928,256.923,0.995,80,80,Pedale ,72,4
257.384,258.296,0.911,80,80,Pedale ,72,4
258.608,259.989,1.38,81,80,Pedale ,72,4
260.306,261.268,0.962,83,80,Pedale ,72,4
261.562,262.968,1.406,80,80,Pedale ,72,4
263.378,264.358,0.98,80,80,Pedale ,72,4
264.701,265.728,1.027,81,80,Pedale ,72,4
266.428,267.773,1.345,81,80,Pedale ,72,4
268.258,269.471,1.213,80,80,Pedale ,72,4
269.759,270.621,0.862,80,80,Pedale ,72,4
270.908,271.983,1.075,78,80,Pedale ,72,4
272.617,273.687,1.07,78,80,Pedale ,72,4
273.975,274.837,0.862,81,80,Pedale ,72,4
275.721,276.583,0.862,81,80,Pedale ,72,4
276.871,278.145,1.274,82,80,Pedale ,72,4
278.76,279.864,1.103,82,80,Pedale ,72,4
280.408,281.363,0.955,84,80,Pedale ,72,4
282.022,283.131,1.109,84,80,Pedale ,72,4
283.44,284.626,1.186,85,80,Pedale ,72,4
285.032,286.156,1.124,85,80,Pedale ,72,4
286.484,287.467,0.983,87,80,Pedale ,72,4
287.925,289.279,1.354,87,80,Pedale ,72,4
289.64,290.77,1.131,85,80,Pedale ,72,4
292.97,293.838,0.868,85,80,Pedale ,72,4
294.128,295.21,1.082,85,80,Pedale ,72,4
295.515,296.466,0.951,84,80,Pedale ,72,4
296.953,298.354,1.401,84,80,Pedale ,72,4
298.687,299.643,0.956,82,80,Pedale ,72,4
299.937,301.109,1.172,82,80,Pedale ,72,4
301.402,302.277,0.875,78,80,Pedale ,72,4
302.842,303.966,1.124,77,80,Pedale ,72,4
304.29,305.678,1.387,78,80,Pedale ,72,4
306.009,307.357,1.348,78,80,Pedale ,72,4
307.669,308.881,1.211,82,80,Pedale ,72,4
311.068,312.389,1.321,85,78,Pedale ,72,4
312.702,313.639,0.937,85,77,Pedale ,72,4
313.969,315.224,1.255,83,76,Pedale ,72,4
315.53,316.506,0.976,83,75,Pedale ,72,4
316.794,317.66,0.866,80,74,Pedale ,72,4
318.104,319.582,1.478,80,72,Pedale ,72,4
319.87,321.077,1.206,78,71,Pedale ,72,4
321.379,322.648,1.269,78,70,Pedale ,72,4
322.948,323.898,0.951,77,69,Pedale ,72,4
324.662,326.19,1.528,77,68,Pedale ,72,4
326.714,327.904,1.19,75,67,Pedale ,72,4
328.39,329.572,1.182,73,65,Pedale ,72,4
336.11,337.123,1.014,75,60,Pedale ,72,4
337.572,338.73,1.158,75,59,Pedale ,72,4
339.111,340.508,1.397,80,57,Pedale ,72,4
340.846,342.031,1.184,80,56,Pedale ,72,4
342.368,343.369,1.001,82,55,Pedale ,72,4
343.812,345.055,1.243,82,54,Pedale ,72,4
345.371,346.406,1.035,85,53,Pedale ,72,4
354.684,355.657,0.973,75,50,Pedale ,72,4
356.072,357.073,1.002,75,50,Pedale ,72,4
357.412,358.43,1.018,80,50,Pedale ,72,4
358.771,360.038,1.267,80,50,Pedale ,72,4
360.384,361.444,1.06,82,50,Pedale ,72,4
361.784,363.222,1.438,82,50,Pedale ,72,4
363.596,365.141,1.545,85,50,Pedale ,72,4
372.271,373.317,1.046,75,50,Pedale ,72,4
373.691,374.816,1.125,75,50,Pedale ,72,4
375.191,376.805,1.615,80,50,Pedale ,72,4
391.723,393.078,1.354,75,50,Pedale ,72,4
393.473,394.662,1.189,75,50,Pedale ,72,4
395.308,396.583,1.274,80,50,Pedale ,72,4
405.709,407.772,2.064,75,50,Pedale ,72,4
237.761,238.923,1.162,58,50,Pedale ,52,5
239.212,240.469,1.257,58,53,Pedale ,52,5
240.76,241.973,1.213,61,56,Pedale ,52,5
242.294,243.221,0.927,61,59,Pedale ,52,5
243.591,244.624,1.034,60,62,Pedale ,52,5
244.992,246.053,1.061,60,65,Pedale ,52,5
246.392,247.681,1.289,58,67,Pedale ,52,5
247.977,249.03,1.053,58,70,Pedale ,52,5
249.642,250.51,0.869,55,73,Pedale ,52,5
250.921,251.967,1.046,55,76,Pedale ,52,5
252.577,253.685,1.108,52,79,Pedale ,52,5
254.298,255.638,1.339,51,80,Pedale ,52,5
255.928,256.923,0.995,56,80,Pedale ,52,5
257.384,258.296,0.911,56,80,Pedale ,52,5
258.608,259.989,1.38,57,80,Pedale ,52,5
260.306,261.268,0.962,59,80,Pedale ,52,5
261.562,262.968,1.406,56,80,Pedale ,52,5
263.378,264.358,0.98,56,80,Pedale ,52,5
264.701,265.728,1.027,57,80,Pedale ,52,5
266.428,267.773,1.345,57,80,Pedale ,52,5
268.258,269.471,1.213,56,80,Pedale ,52,5
269.759,270.621,0.862,56,80,Pedale ,52,5
270.908,271.983,1.075,54,80,Pedale ,52,5
272.617,273.687,1.07,54,80,Pedale ,52,5
273.975,274.837,0.862,57,80,Pedale ,52,5
275.721,276.583,0.862,57,80,Pedale ,52,5
276.871,278.145,1.274,58,80,Pedale ,52,5
278.76,279.864,1.103,58,80,Pedale ,52,5
280.408,281.363,0.955,60,80,Pedale ,52,5
282.022,283.131,1.109,60,80,Pedale ,52,5
283.44,284.626,1.186,61,80,Pedale ,52,5
285.032,286.156,1.124,61,80,Pedale ,52,5
286.484,287.467,0.983,63,80,Pedale ,52,5
287.925,289.279,1.354,63,80,Pedale ,52,5
289.64,290.77,1.131,61,80,Pedale ,52,5
292.97,293.838,0.868,61,80,Pedale ,52,5
294.128,295.21,1.082,61,80,Pedale ,52,5
295.515,296.466,0.951,60,80,Pedale ,52,5
296.953,298.354,1.401,60,80,Pedale ,52,5
298.687,299.643,0.956,58,78,Pedale ,52,5
299.937,301.109,1.172,58,75,Pedale ,52,5
301.402,302.277,0.875,54,73,Pedale ,52,5
302.842,303.966,1.124,53,70,Pedale ,52,5
304.29,305.678,1.387,54,68,Pedale ,52,5
306.009,307.357,1.348,54,65,Pedale ,52,5
307.669,308.881,1.211,58,63,Pedale ,52,5
311.068,312.389,1.321,61,60,Pedale ,52,5
312.702,313.639,0.937,61,59,Pedale ,52,5
313.969,315.224,1.255,59,59,Pedale ,52,5
315.53,316.506,0.976,59,58,Pedale ,52,5
316.794,317.66,0.866,56,57,Pedale ,52,5
318.104,319.582,1.478,56,57,Pedale ,52,5
319.87,321.077,1.206,54,56,Pedale ,52,5
321.379,322.648,1.269,54,55,Pedale ,52,5
322.948,323.898,0.951,53,55,Pedale ,52,5
324.662,326.19,1.528,53,54,Pedale ,52,5
326.714,327.904,1.19,51,53,Pedale ,52,5
328.39,329.572,1.182,49,53,Pedale ,52,5
336.11,337.123,1.014,51,50,Pedale ,52,5
337.572,338.73,1.158,51,50,Pedale ,52,5
339.111,340.508,1.397,56,50,Pedale ,52,5
340.846,342.031,1.184,56,50,Pedale ,52,5
342.368,343.369,1.001,58,50,Pedale ,52,5
343.812,345.055,1.243,58,50,Pedale ,52,5
345.371,346.406,1.035,61,50,Pedale ,52,5
354.684,355.657,0.973,51,50,Pedale ,52,5
356.072,357.073,1.002,51,50,Pedale ,52,5
357.412,358.43,1.018,56,50,Pedale ,52,5
358.771,360.038,1.267,56,50,Pedale ,52,5
360.384,361.444,1.06,58,50,Pedale ,52,5
361.784,363.222,1.438,58,50,Pedale ,52,5
363.596,365.141,1.545,61,50,Pedale ,52,5
372.271,373.317,1.046,51,50,Pedale ,52,5
373.691,374.816,1.125,51,50,Pedale ,52,5
375.191,376.805,1.615,56,50,Pedale ,52,5
391.723,393.078,1.354,51,50,Pedale ,52,5
393.473,394.662,1.189,51,50,Pedale ,52,5
395.308,396.583,1.274,56,50,Pedale ,52,5
405.709,407.772,2.064,51,50,Pedale ,52,5
0.0,0.5,0.5,69,0,shadow,0,15
