start,end,duration,pitch,velocity,instrument,instr program,midi channel
26.384,27.185,0.801,76,89,voix,53,0
27.174,27.948,0.774,72,75,voix,53,0
28.008,31.292,3.283,76,93,voix,53,0
32.131,32.473,0.342,74,71,voix,53,0
32.591,33.101,0.51,72,86,voix,53,0
33.008,33.344,0.336,74,69,voix,53,0
33.424,33.817,0.393,76,93,voix,53,0
33.841,34.688,0.847,72,93,voix,53,0
34.674,36.008,1.334,69,80,voix,53,0
36.427,39.426,2.999,64,80,voix,53,0
39.717,40.518,0.802,76,95,voix,53,0
40.551,41.393,0.843,72,84,voix,53,0
41.384,44.759,3.376,74,84,voix,53,0
45.593,45.926,0.333,72,80,voix,53,0
46.009,46.343,0.334,69,80,voix,53,0
46.427,46.759,0.333,72,80,voix,53,0
46.843,47.176,0.333,69,80,voix,53,0
47.259,47.926,0.667,72,80,voix,53,0
48.093,52.759,4.666,71,80,voix,53,0
53.509,54.176,0.667,76,80,voix,53,0
54.343,54.676,0.333,72,80,voix,53,0
54.759,55.093,0.334,76,80,voix,53,0
55.177,55.843,0.667,76,80,voix,53,0
56.009,57.759,1.75,76,80,voix,53,0
58.884,59.183,0.299,74,71,voix,53,0
59.301,59.81,0.51,72,86,voix,53,0
59.717,60.054,0.337,74,69,voix,53,0
60.134,60.526,0.392,76,93,voix,53,0
60.551,61.397,0.847,72,93,voix,53,0
61.384,62.759,1.376,69,80,voix,53,0
63.093,66.093,3.0,64,80,voix,53,0
67.217,67.883,0.667,64,80,voix,53,0
68.051,68.831,0.781,67,79,voix,53,0
68.884,69.276,0.392,64,79,voix,53,0
69.301,69.692,0.392,67,78,voix,53,0
69.717,70.546,0.83,69,93,voix,53,0
70.551,71.404,0.854,72,78,voix,53,0
71.384,71.776,0.392,76,73,voix,53,0
71.801,73.051,1.25,74,77,voix,53,0
73.051,74.691,1.641,72,86,voix,53,0
74.717,81.11,6.393,69,107,voix,53,0
86.384,86.785,0.401,76,80,voix,53,0
86.897,87.341,0.444,76,80,voix,53,0
87.452,87.897,0.445,72,80,voix,53,0
88.008,91.298,3.29,76,93,voix,53,0
92.131,92.43,0.299,74,71,voix,53,0
92.548,93.058,0.51,72,86,voix,53,0
92.966,93.302,0.336,74,69,voix,53,0
93.381,93.774,0.393,76,93,voix,53,0
93.798,94.688,0.89,72,93,voix,53,0
94.674,96.008,1.334,69,80,voix,53,0
96.427,99.427,3.0,64,80,voix,53,0
99.751,100.519,0.768,76,95,voix,53,0
100.551,101.393,0.843,72,84,voix,53,0
101.384,104.717,3.333,74,84,voix,53,0
105.551,105.883,0.333,72,80,voix,53,0
105.967,106.301,0.334,69,80,voix,53,0
106.384,106.717,0.333,72,80,voix,53,0
106.801,107.133,0.333,69,80,voix,53,0
107.217,107.883,0.667,72,80,voix,53,0
108.051,112.759,4.708,71,80,voix,53,0
113.509,114.176,0.667,76,80,voix,53,0
114.343,114.676,0.333,72,80,voix,53,0
114.759,115.093,0.334,76,80,voix,53,0
115.177,115.843,0.667,76,80,voix,53,0
116.009,117.759,1.75,76,80,voix,53,0
118.884,119.183,0.299,74,71,voix,53,0
119.301,119.81,0.51,72,86,voix,53,0
119.717,120.054,0.337,74,69,voix,53,0
120.134,120.526,0.392,76,93,voix,53,0
120.551,121.397,0.847,72,93,voix,53,0
121.384,122.759,1.376,69,80,voix,53,0
123.093,126.093,3.0,64,80,voix,53,0
127.259,127.926,0.667,64,80,voix,53,0
128.083,128.832,0.748,67,79,voix,53,0
128.884,129.276,0.392,64,79,voix,53,0
129.301,129.692,0.392,67,78,voix,53,0
129.717,130.504,0.787,69,93,voix,53,0
130.508,131.362,0.854,72,78,voix,53,0
131.341,131.733,0.392,76,73,voix,53,0
131.758,132.966,1.207,74,77,voix,53,0
132.966,134.599,1.633,72,86,voix,53,0
134.631,150.008,15.377,69,107,voix,53,0
1.384,1.886,0.503,51,98,gtr,24,1
1.801,2.123,0.323,48,69,gtr,24,1
2.217,2.717,0.5,51,77,gtr,24,1
2.634,2.908,0.274,50,71,gtr,24,1
3.051,3.473,0.423,48,75,gtr,24,1
3.467,3.69,0.223,45,57,gtr,24,1
3.884,4.37,0.486,48,50,gtr,24,1
4.301,4.577,0.277,50,77,gtr,24,1
6.801,6.926,0.125,45,69,gtr,24,1
4.717,7.176,2.459,52,79,gtr,24,1
7.217,7.744,0.528,48,82,gtr,24,1
7.634,7.953,0.319,50,82,gtr,24,1
8.093,9.284,1.191,52,78,gtr,24,1
9.717,10.23,0.514,69,93,gtr,24,1
10.134,10.433,0.299,65,71,gtr,24,1
10.551,11.022,0.472,62,76,gtr,24,1
10.967,11.32,0.354,59,62,gtr,24,1
11.384,11.915,0.531,67,89,gtr,24,1
11.801,12.112,0.312,64,66,gtr,24,1
12.217,12.738,0.521,60,37,gtr,24,1
12.634,12.915,0.281,57,86,gtr,24,1
13.051,13.841,0.791,54,82,gtr,24,1
13.051,14.383,1.333,40,80,gtr,24,1
13.884,14.676,0.792,56,84,gtr,24,1
14.717,15.57,0.854,54,84,gtr,24,1
15.551,16.323999999999998,0.774,56,84,gtr,24,1
16.384,17.252,0.868,54,84,gtr,24,1
14.717,17.383,2.667,40,80,gtr,24,1
17.217,18.005,0.789,56,89,gtr,24,1
18.051,19.383,1.333,54,79,gtr,24,1
18.051,19.383,1.333,60,77,gtr,24,1
18.051,19.383,1.333,64,91,gtr,24,1
18.051,19.383,1.333,45,86,gtr,24,1
19.759,21.093,1.334,56,79,gtr,24,1
19.759,21.093,1.334,64,98,gtr,24,1
19.759,21.093,1.334,47,53,gtr,24,1
19.759,21.093,1.334,62,75,gtr,24,1
21.427,22.759,1.333,54,79,gtr,24,1
21.427,22.759,1.333,60,77,gtr,24,1
21.427,22.759,1.333,64,91,gtr,24,1
21.427,22.759,1.333,45,86,gtr,24,1
23.093,24.426,1.333,62,75,gtr,24,1
23.093,24.426,1.333,47,53,gtr,24,1
23.093,24.426,1.333,56,79,gtr,24,1
23.093,24.426,1.333,64,98,gtr,24,1
24.759,26.051,1.291,60,77,gtr,24,1
24.759,26.051,1.291,64,91,gtr,24,1
24.759,26.051,1.291,45,86,gtr,24,1
24.759,26.051,1.291,54,79,gtr,24,1
26.384,27.674,1.29,47,53,gtr,24,1
26.384,27.674,1.29,64,98,gtr,24,1
26.384,27.674,1.29,56,79,gtr,24,1
26.384,27.674,1.29,62,75,gtr,24,1
28.008,29.213,1.205,54,79,gtr,24,1
28.008,29.213,1.205,60,77,gtr,24,1
28.008,29.213,1.205,64,91,gtr,24,1
28.008,29.213,1.205,45,86,gtr,24,1
29.546,30.88,1.334,62,75,gtr,24,1
29.546,30.88,1.334,47,53,gtr,24,1
29.546,30.88,1.334,56,79,gtr,24,1
29.546,30.88,1.334,64,98,gtr,24,1
31.292,32.674,1.382,54,79,gtr,24,1
31.292,32.674,1.382,45,86,gtr,24,1
31.292,32.674,1.382,60,77,gtr,24,1
31.292,32.674,1.382,64,91,gtr,24,1
33.008,34.341,1.333,62,75,gtr,24,1
33.008,34.341,1.333,64,98,gtr,24,1
33.008,34.341,1.333,47,53,gtr,24,1
33.008,34.341,1.333,56,79,gtr,24,1
34.674,36.008,1.334,64,91,gtr,24,1
34.674,36.008,1.334,45,86,gtr,24,1
34.674,36.008,1.334,54,79,gtr,24,1
34.674,36.008,1.334,60,77,gtr,24,1
36.427,37.759,1.333,47,53,gtr,24,1
36.427,37.759,1.333,62,75,gtr,24,1
36.427,37.759,1.333,56,79,gtr,24,1
36.427,37.759,1.333,64,98,gtr,24,1
38.093,39.426,1.333,60,77,gtr,24,1
38.093,39.426,1.333,45,86,gtr,24,1
38.093,39.426,1.333,64,91,gtr,24,1
38.093,39.426,1.333,54,79,gtr,24,1
39.717,40.383,0.667,62,82,gtr,24,1
39.717,40.383,0.667,47,86,gtr,24,1
39.717,40.383,0.667,56,77,gtr,24,1
39.717,40.383,0.667,64,86,gtr,24,1
40.551,41.216,0.666,60,84,gtr,24,1
40.551,41.216,0.666,64,79,gtr,24,1
40.551,41.216,0.666,54,82,gtr,24,1
40.551,41.216,0.666,45,84,gtr,24,1
41.384,42.44,1.056,65,91,gtr,24,1
41.384,42.44,1.056,57,98,gtr,24,1
42.495,42.717,0.222,67,95,gtr,24,1
42.495,42.717,0.222,58,89,gtr,24,1
41.384,42.717,1.333,50,80,gtr,24,1
42.773,42.995,0.222,59,98,gtr,24,1
42.773,42.995,0.222,68,98,gtr,24,1
43.051,44.105,1.055,60,78,gtr,24,1
43.051,44.105,1.055,69,86,gtr,24,1
44.162,44.384,0.222,70,93,gtr,24,1
44.476,44.704,0.229,61,74,gtr,24,1
44.476,44.704,0.229,71,77,gtr,24,1
44.759,45.426,0.667,50,80,gtr,24,1
44.759,46.093,1.334,65,80,gtr,24,1
44.759,46.093,1.334,60,80,gtr,24,1
45.593,46.259,0.666,52,80,gtr,24,1
46.427,47.093,0.667,64,80,gtr,24,1
46.427,47.093,0.667,53,80,gtr,24,1
47.259,47.926,0.667,63,80,gtr,24,1
47.259,47.926,0.667,54,80,gtr,24,1
48.509,48.843,0.334,59,80,gtr,24,1
48.927,49.259,0.333,64,80,gtr,24,1
48.093,49.426,1.333,44,80,gtr,24,1
48.093,49.426,1.333,52,80,gtr,24,1
49.343,49.676,0.333,63,80,gtr,24,1
49.759,50.093,0.334,62,80,gtr,24,1
50.177,50.509,0.333,59,80,gtr,24,1
50.593,50.926,0.333,66,80,gtr,24,1
49.759,51.093,1.334,47,80,gtr,24,1
49.759,51.093,1.334,51,80,gtr,24,1
49.759,51.093,1.334,57,80,gtr,24,1
51.009,51.343,0.334,65,80,gtr,24,1
51.427,51.759,0.333,52,80,gtr,24,1
51.843,52.176,0.333,40,80,gtr,24,1
52.259,52.593,0.334,49,80,gtr,24,1
51.427,52.759,1.333,64,80,gtr,24,1
51.427,52.759,1.333,56,80,gtr,24,1
51.427,52.759,1.333,59,80,gtr,24,1
52.677,53.009,0.333,48,80,gtr,24,1
53.093,53.426,0.333,47,80,gtr,24,1
53.093,53.426,0.333,61,80,gtr,24,1
53.093,53.426,0.333,55,80,gtr,24,1
53.093,53.426,0.333,64,80,gtr,24,1
53.509,54.509,1.0,46,80,gtr,24,1
53.509,54.509,1.0,56,80,gtr,24,1
53.509,54.509,1.0,62,80,gtr,24,1
54.759,56.093,1.334,60,77,gtr,24,1
54.759,56.093,1.334,45,86,gtr,24,1
54.759,56.093,1.334,64,91,gtr,24,1
54.759,56.093,1.334,54,79,gtr,24,1
56.427,57.759,1.333,62,75,gtr,24,1
56.427,57.759,1.333,64,98,gtr,24,1
56.427,57.759,1.333,47,53,gtr,24,1
56.427,57.759,1.333,56,79,gtr,24,1
58.093,59.383,1.29,64,91,gtr,24,1
58.093,59.383,1.29,45,86,gtr,24,1
58.093,59.383,1.29,60,77,gtr,24,1
58.093,59.383,1.29,54,79,gtr,24,1
59.717,61.051,1.334,56,79,gtr,24,1
59.717,61.051,1.334,62,75,gtr,24,1
59.717,61.051,1.334,64,98,gtr,24,1
59.717,61.051,1.334,47,53,gtr,24,1
61.384,62.759,1.376,60,77,gtr,24,1
61.384,62.759,1.376,64,91,gtr,24,1
61.384,62.759,1.376,45,86,gtr,24,1
61.384,62.759,1.376,54,79,gtr,24,1
63.093,64.426,1.333,56,79,gtr,24,1
63.093,64.426,1.333,64,98,gtr,24,1
63.093,64.426,1.333,47,53,gtr,24,1
63.093,64.426,1.333,62,75,gtr,24,1
64.759,65.259,0.5,60,80,gtr,24,1
65.384,65.551,0.167,62,80,gtr,24,1
65.593,65.815,0.222,64,80,gtr,24,1
65.87,66.093,0.223,66,80,gtr,24,1
64.759,66.093,1.334,45,80,gtr,24,1
64.759,66.093,1.334,52,80,gtr,24,1
66.148,67.093,0.945,68,80,gtr,24,1
66.427,67.717,1.29,50,80,gtr,24,1
66.427,67.717,1.29,54,80,gtr,24,1
66.427,67.717,1.29,60,80,gtr,24,1
67.217,67.883,0.667,69,80,gtr,24,1
68.051,69.051,1.0,52,80,gtr,24,1
68.051,69.051,1.0,43,80,gtr,24,1
68.051,69.383,1.333,60,80,gtr,24,1
69.301,69.633,0.333,52,80,gtr,24,1
69.717,70.383,0.667,60,80,gtr,24,1
69.717,70.383,0.667,48,80,gtr,24,1
69.717,70.383,0.667,64,80,gtr,24,1
70.551,71.216,0.666,45,80,gtr,24,1
70.551,71.216,0.666,64,80,gtr,24,1
70.551,71.216,0.666,69,80,gtr,24,1
71.384,72.717,1.333,66,80,gtr,24,1
71.384,72.717,1.333,69,80,gtr,24,1
71.384,72.717,1.333,50,80,gtr,24,1
71.384,72.717,1.333,57,80,gtr,24,1
73.051,74.383,1.333,50,80,gtr,24,1
73.051,74.383,1.333,60,80,gtr,24,1
73.051,74.383,1.333,65,80,gtr,24,1
73.051,74.383,1.333,69,80,gtr,24,1
73.051,74.383,1.333,43,80,gtr,24,1
74.717,75.383,0.667,52,80,gtr,24,1
74.717,75.383,0.667,64,80,gtr,24,1
74.717,75.383,0.667,45,80,gtr,24,1
74.717,75.383,0.667,69,80,gtr,24,1
74.717,75.383,0.667,60,80,gtr,24,1
75.551,75.883,0.333,67,80,gtr,24,1
75.967,76.301,0.334,66,80,gtr,24,1
76.384,76.717,0.333,67,80,gtr,24,1
76.801,77.133,0.333,69,80,gtr,24,1
77.217,77.883,0.667,66,80,gtr,24,1
78.051,78.716,0.666,45,80,gtr,24,1
78.051,78.716,0.666,64,80,gtr,24,1
78.051,78.716,0.666,60,80,gtr,24,1
78.051,78.716,0.666,52,80,gtr,24,1
78.884,79.217,0.333,50,80,gtr,24,1
79.301,79.633,0.333,48,80,gtr,24,1
79.717,80.051,0.334,50,80,gtr,24,1
80.134,80.467,0.333,52,80,gtr,24,1
79.717,81.09,1.373,56,80,gtr,24,1
80.551,81.259,0.708,48,80,gtr,24,1
81.427,82.759,1.333,64,91,gtr,24,1
81.427,82.759,1.333,45,86,gtr,24,1
81.427,82.759,1.333,54,79,gtr,24,1
81.427,82.759,1.333,60,77,gtr,24,1
83.093,84.426,1.333,56,79,gtr,24,1
83.093,84.426,1.333,64,98,gtr,24,1
83.093,84.426,1.333,47,53,gtr,24,1
83.093,84.426,1.333,62,75,gtr,24,1
84.759,86.051,1.291,64,91,gtr,24,1
84.759,86.051,1.291,45,86,gtr,24,1
84.759,86.051,1.291,60,77,gtr,24,1
84.759,86.051,1.291,54,79,gtr,24,1
86.384,87.674,1.29,47,53,gtr,24,1
86.384,87.674,1.29,56,79,gtr,24,1
86.384,87.674,1.29,62,75,gtr,24,1
86.384,87.674,1.29,64,98,gtr,24,1
88.008,89.213,1.205,64,91,gtr,24,1
88.008,89.213,1.205,45,86,gtr,24,1
88.008,89.213,1.205,54,79,gtr,24,1
88.008,89.213,1.205,60,77,gtr,24,1
89.631,90.965,1.334,62,75,gtr,24,1
89.631,90.965,1.334,47,53,gtr,24,1
89.631,90.965,1.334,56,79,gtr,24,1
89.631,90.965,1.334,64,98,gtr,24,1
91.298,92.631,1.333,64,91,gtr,24,1
91.298,92.631,1.333,54,79,gtr,24,1
91.298,92.631,1.333,60,77,gtr,24,1
91.298,92.631,1.333,45,86,gtr,24,1
92.966,94.298,1.333,62,75,gtr,24,1
92.966,94.298,1.333,47,53,gtr,24,1
92.966,94.298,1.333,56,79,gtr,24,1
92.966,94.298,1.333,64,98,gtr,24,1
94.674,96.008,1.334,45,86,gtr,24,1
94.674,96.008,1.334,54,79,gtr,24,1
94.674,96.008,1.334,60,77,gtr,24,1
94.674,96.008,1.334,64,91,gtr,24,1
96.427,97.759,1.333,47,53,gtr,24,1
96.427,97.759,1.333,62,75,gtr,24,1
96.427,97.759,1.333,56,79,gtr,24,1
96.427,97.759,1.333,64,98,gtr,24,1
98.093,99.426,1.333,60,77,gtr,24,1
98.093,99.426,1.333,54,79,gtr,24,1
98.093,99.426,1.333,64,91,gtr,24,1
98.093,99.426,1.333,45,86,gtr,24,1
99.751,100.384,0.633,62,82,gtr,24,1
99.751,100.384,0.633,47,86,gtr,24,1
99.751,100.384,0.633,56,77,gtr,24,1
99.751,100.384,0.633,64,86,gtr,24,1
100.551,101.216,0.666,60,84,gtr,24,1
100.551,101.216,0.666,64,79,gtr,24,1
100.551,101.216,0.666,54,82,gtr,24,1
100.551,101.216,0.666,45,84,gtr,24,1
101.384,101.717,0.333,65,80,gtr,24,1
101.384,102.051,0.667,57,80,gtr,24,1
101.801,102.133,0.333,66,80,gtr,24,1
102.217,102.609,0.393,58,89,gtr,24,1
102.217,102.609,0.393,67,95,gtr,24,1
101.384,102.717,1.333,50,80,gtr,24,1
102.634,103.026,0.392,68,98,gtr,24,1
102.634,103.026,0.392,59,98,gtr,24,1
103.051,103.494,0.444,60,80,gtr,24,1
103.051,103.494,0.444,53,80,gtr,24,1
103.051,103.494,0.444,69,80,gtr,24,1
103.606,104.051,0.445,70,80,gtr,24,1
103.606,104.051,0.445,55,80,gtr,24,1
104.204,104.627,0.423,56,80,gtr,24,1
104.204,104.627,0.423,71,80,gtr,24,1
104.717,105.383,0.667,50,80,gtr,24,1
104.717,106.051,1.334,60,80,gtr,24,1
104.717,106.051,1.334,65,80,gtr,24,1
105.551,106.216,0.666,52,80,gtr,24,1
106.384,107.051,0.667,64,80,gtr,24,1
106.384,107.051,0.667,53,80,gtr,24,1
107.217,107.883,0.667,63,80,gtr,24,1
107.217,107.883,0.667,54,80,gtr,24,1
108.467,108.801,0.334,59,80,gtr,24,1
108.884,109.217,0.333,64,80,gtr,24,1
108.051,109.383,1.333,52,80,gtr,24,1
108.051,109.383,1.333,44,80,gtr,24,1
109.301,109.676,0.376,63,80,gtr,24,1
109.759,110.093,0.334,62,80,gtr,24,1
110.177,110.509,0.333,59,80,gtr,24,1
110.593,110.926,0.333,66,80,gtr,24,1
109.759,111.093,1.334,51,80,gtr,24,1
109.759,111.093,1.334,57,80,gtr,24,1
109.759,111.093,1.334,47,80,gtr,24,1
111.009,111.343,0.334,65,80,gtr,24,1
111.427,111.759,0.333,52,80,gtr,24,1
111.843,112.176,0.333,40,80,gtr,24,1
112.259,112.593,0.334,49,80,gtr,24,1
111.427,112.759,1.333,56,80,gtr,24,1
111.427,112.759,1.333,64,80,gtr,24,1
111.427,112.759,1.333,59,80,gtr,24,1
112.677,113.009,0.333,48,80,gtr,24,1
113.093,113.426,0.333,61,80,gtr,24,1
113.093,113.426,0.333,55,80,gtr,24,1
113.093,113.426,0.333,64,80,gtr,24,1
113.093,113.426,0.333,47,80,gtr,24,1
113.509,114.509,1.0,46,80,gtr,24,1
113.509,114.509,1.0,56,80,gtr,24,1
113.509,114.509,1.0,62,80,gtr,24,1
114.759,116.093,1.334,45,86,gtr,24,1
114.759,116.093,1.334,54,79,gtr,24,1
114.759,116.093,1.334,64,91,gtr,24,1
114.759,116.093,1.334,60,77,gtr,24,1
116.427,117.759,1.333,62,75,gtr,24,1
116.427,117.759,1.333,64,98,gtr,24,1
116.427,117.759,1.333,47,53,gtr,24,1
116.427,117.759,1.333,56,79,gtr,24,1
118.051,119.383,1.333,45,86,gtr,24,1
118.051,119.383,1.333,64,91,gtr,24,1
118.051,119.383,1.333,54,79,gtr,24,1
118.051,119.383,1.333,60,77,gtr,24,1
119.717,121.051,1.334,56,79,gtr,24,1
119.717,121.051,1.334,64,98,gtr,24,1
119.717,121.051,1.334,47,53,gtr,24,1
119.717,121.051,1.334,62,75,gtr,24,1
121.384,122.759,1.376,64,91,gtr,24,1
121.384,122.759,1.376,45,86,gtr,24,1
121.384,122.759,1.376,54,79,gtr,24,1
121.384,122.759,1.376,60,77,gtr,24,1
123.093,124.426,1.333,56,79,gtr,24,1
123.093,124.426,1.333,64,98,gtr,24,1
123.093,124.426,1.333,47,53,gtr,24,1
123.093,124.426,1.333,62,75,gtr,24,1
124.759,125.259,0.5,60,80,gtr,24,1
125.384,125.551,0.167,62,80,gtr,24,1
125.593,125.815,0.222,64,80,gtr,24,1
125.87,126.093,0.223,66,80,gtr,24,1
124.759,126.093,1.334,45,80,gtr,24,1
124.759,126.093,1.334,52,80,gtr,24,1
126.148,127.093,0.945,68,80,gtr,24,1
126.427,127.759,1.333,50,80,gtr,24,1
126.427,127.759,1.333,54,80,gtr,24,1
126.427,127.759,1.333,60,80,gtr,24,1
127.259,127.926,0.667,69,80,gtr,24,1
128.083,129.051,0.967,43,80,gtr,24,1
128.083,129.051,0.967,52,80,gtr,24,1
128.083,129.383,1.3,60,80,gtr,24,1
129.301,129.633,0.333,52,80,gtr,24,1
129.717,130.341,0.624,48,80,gtr,24,1
129.717,130.341,0.624,64,80,gtr,24,1
129.717,130.341,0.624,60,80,gtr,24,1
130.508,131.174,0.666,69,80,gtr,24,1
130.508,131.174,0.666,45,80,gtr,24,1
130.508,131.174,0.666,64,80,gtr,24,1
131.341,132.631,1.29,50,80,gtr,24,1
131.341,132.631,1.29,69,80,gtr,24,1
131.341,132.631,1.29,57,80,gtr,24,1
131.341,132.631,1.29,66,80,gtr,24,1
132.966,134.213,1.247,43,80,gtr,24,1
132.966,134.213,1.247,69,80,gtr,24,1
132.966,134.213,1.247,65,80,gtr,24,1
132.966,134.213,1.247,60,80,gtr,24,1
132.966,134.213,1.247,50,80,gtr,24,1
134.631,135.298,0.667,45,80,gtr,24,1
134.631,135.298,0.667,52,80,gtr,24,1
135.466,136.052,0.586,50,80,gtr,24,1
136.091,136.289,0.198,48,80,gtr,24,1
136.298,136.885,0.587,50,80,gtr,24,1
136.923,137.062,0.139,52,80,gtr,24,1
134.631,137.671,3.04,64,80,gtr,24,1
134.631,137.671,3.04,60,80,gtr,24,1
134.631,137.671,3.04,57,80,gtr,24,1
137.066,137.712,0.647,48,80,gtr,24,1
137.88,139.213,1.333,50,75,gtr,24,1
137.88,139.213,1.333,62,82,gtr,24,1
137.88,139.213,1.333,57,82,gtr,24,1
137.88,139.213,1.333,66,82,gtr,24,1
139.546,140.88,1.334,65,89,gtr,24,1
139.546,140.88,1.334,60,91,gtr,24,1
139.546,140.88,1.334,57,95,gtr,24,1
139.546,140.88,1.334,43,93,gtr,24,1
139.546,140.88,1.334,50,93,gtr,24,1
141.213,142.546,1.333,60,66,gtr,24,1
141.213,142.546,1.333,64,82,gtr,24,1
141.213,142.546,1.333,55,78,gtr,24,1
141.213,142.546,1.333,48,66,gtr,24,1
142.88,144.213,1.333,41,102,gtr,24,1
142.88,144.213,1.333,63,71,gtr,24,1
142.88,144.213,1.333,48,76,gtr,24,1
142.88,144.213,1.333,57,84,gtr,24,1
144.546,145.88,1.334,58,91,gtr,24,1
144.546,145.88,1.334,46,98,gtr,24,1
144.546,145.88,1.334,62,73,gtr,24,1
144.546,145.88,1.334,53,91,gtr,24,1
146.213,147.546,1.333,50,89,gtr,24,1
146.213,147.546,1.333,40,91,gtr,24,1
146.213,147.546,1.333,61,73,gtr,24,1
146.213,147.546,1.333,56,102,gtr,24,1
147.88,148.546,0.666,45,80,gtr,24,1
147.88,148.546,0.666,52,80,gtr,24,1
148.713,149.3,0.587,50,80,gtr,24,1
149.338,149.621,0.283,48,80,gtr,24,1
149.631,150.26,0.629,50,80,gtr,24,1
150.299,150.497,0.198,52,80,gtr,24,1
147.88,151.133,3.253,57,80,gtr,24,1
147.88,151.133,3.253,64,80,gtr,24,1
147.88,151.133,3.253,60,80,gtr,24,1
150.508,151.174,0.666,47,80,gtr,24,1
151.427,152.093,0.667,45,98,gtr,24,1
152.217,152.883,0.667,54,91,gtr,24,1
153.051,153.716,0.666,52,100,gtr,24,1
151.427,154.534,3.107,57,80,gtr,24,1
151.427,154.534,3.107,64,80,gtr,24,1
151.427,154.534,3.107,60,80,gtr,24,1
153.884,154.593,0.709,56,105,gtr,24,1
154.759,156.093,1.334,57,109,gtr,24,1
156.81,162.986,6.176,64,84,gtr,24,1
156.81,162.986,6.176,69,86,gtr,24,1
156.81,162.986,6.176,45,75,gtr,24,1
156.81,162.986,6.176,54,79,gtr,24,1
156.81,162.986,6.176,60,71,gtr,24,1
0.0,0.5,0.5,69,0,shadow,0,15
