start,end,duration,pitch,velocity,instrument,instr program,midi channel
106.17,107.142,0.972,76,89,voix,53,0
107.131,107.935,0.804,72,75,voix,53,0
108.237,114.882,6.645,76,93,voix,53,0
115.716,117.993,2.278,74,71,voix,53,0
118.308,119.086,0.778,72,86,voix,53,0
118.726,121.92,3.194,74,69,voix,53,0
122.0,122.393,0.393,76,93,voix,53,0
122.417,123.562,1.145,72,93,voix,53,0
123.549,124.883,1.334,69,80,voix,53,0
129.866,132.866,3.0,64,80,voix,53,0
156.666,157.468,0.802,76,95,voix,53,0
223.3,223.633,0.333,72,80,voix,53,0
223.716,224.05,0.334,69,80,voix,53,0
224.133,224.466,0.333,72,80,voix,53,0
224.55,224.883,0.333,69,80,voix,53,0
224.966,225.633,0.667,72,80,voix,53,0
225.8,230.858,5.058,71,80,voix,53,0
245.126,246.603,1.478,76,80,voix,53,0
246.77,247.658,0.888,72,80,voix,53,0
248.85,249.184,0.334,76,80,voix,53,0
249.288,249.976,0.689,76,80,voix,53,0
250.356,252.106,1.75,76,80,voix,53,0
253.316,253.615,0.299,74,71,voix,53,0
253.733,255.224,1.491,72,86,voix,53,0
254.149,257.344,3.195,74,69,voix,53,0
257.424,257.902,0.477,76,93,voix,53,0
257.927,258.773,0.847,72,93,voix,53,0
258.76,260.093,1.333,69,80,voix,53,0
261.067,264.365,3.298,64,80,voix,53,0
265.821,267.99,2.169,64,80,voix,53,0
270.888,271.669,0.781,67,79,voix,53,0
271.721,272.198,0.477,64,79,voix,53,0
272.223,272.615,0.392,67,78,voix,53,0
272.64,273.469,0.83,69,93,voix,53,0
273.473,274.669,1.195,72,78,voix,53,0
274.648,275.04,0.392,76,73,voix,53,0
275.065,276.315,1.25,74,77,voix,53,0
276.315,279.315,3.0,72,86,voix,53,0
279.346,285.696,6.351,69,107,voix,53,0
293.573,294.017,0.444,76,80,voix,53,0
294.129,294.573,0.444,76,80,voix,53,0
294.684,295.129,0.445,72,80,voix,53,0
295.24,298.701,3.461,76,93,voix,53,0
299.619,299.918,0.299,74,71,voix,53,0
300.207,300.717,0.51,72,86,voix,53,0
300.624,300.96,0.336,74,69,voix,53,0
301.04,301.438,0.398,76,93,voix,53,0
301.486,302.346,0.86,72,93,voix,53,0
302.333,303.667,1.334,69,80,voix,53,0
304.0,307.0,3.0,64,80,voix,53,0
307.333,308.134,0.802,76,95,voix,53,0
308.167,309.009,0.843,72,84,voix,53,0
309.0,312.333,3.333,74,84,voix,53,0
313.167,313.499,0.333,72,80,voix,53,0
313.583,313.917,0.334,69,80,voix,53,0
314.0,314.333,0.333,72,80,voix,53,0
314.417,314.749,0.333,69,80,voix,53,0
314.833,315.499,0.667,72,80,voix,53,0
315.88,323.405,7.524,71,80,voix,53,0
324.283,324.949,0.667,76,80,voix,53,0
325.117,325.449,0.333,72,80,voix,53,0
325.533,325.867,0.334,76,80,voix,53,0
325.95,326.617,0.667,76,80,voix,53,0
326.783,328.533,1.75,76,80,voix,53,0
329.7,329.999,0.299,74,71,voix,53,0
330.117,330.627,0.51,72,86,voix,53,0
330.533,330.87,0.337,74,69,voix,53,0
330.95,331.342,0.392,76,93,voix,53,0
331.367,332.214,0.847,72,93,voix,53,0
332.2,333.533,1.333,69,80,voix,53,0
333.867,336.867,3.0,64,80,voix,53,0
338.033,338.699,0.667,64,80,voix,53,0
338.867,339.647,0.781,67,79,voix,53,0
339.7,340.092,0.392,64,79,voix,53,0
340.117,340.508,0.392,67,78,voix,53,0
340.533,341.362,0.83,69,93,voix,53,0
341.367,342.22,0.854,72,78,voix,53,0
342.2,342.958,0.758,76,73,voix,53,0
343.086,344.72,1.634,74,77,voix,53,0
344.72,346.355,1.635,72,86,voix,53,0
346.386,365.773,19.387,69,107,voix,53,0
8.637,9.14,0.503,51,98,gtr,24,1
9.054,9.377,0.323,48,69,gtr,24,1
9.47,9.97,0.499,51,77,gtr,24,1
9.887,10.161,0.274,50,71,gtr,24,1
10.304,10.727,0.423,48,75,gtr,24,1
10.72,10.943,0.223,45,57,gtr,24,1
15.617,16.103,0.486,48,50,gtr,24,1
16.034,16.310000000000002,0.277,50,77,gtr,24,1
19.346,21.773,2.427,45,69,gtr,24,1
17.176,22.044,4.868,52,79,gtr,24,1
22.309,23.104,0.795,48,82,gtr,24,1
22.994,23.312,0.319,50,82,gtr,24,1
23.411,24.602,1.191,52,78,gtr,24,1
29.728,30.241,0.514,69,93,gtr,24,1
30.144,30.443,0.299,65,71,gtr,24,1
51.426,51.897,0.472,62,76,gtr,24,1
51.842,52.195,0.354,59,62,gtr,24,1
52.258,52.789,0.531,67,89,gtr,24,1
52.676,53.03,0.354,64,66,gtr,24,1
53.134,53.655,0.521,60,37,gtr,24,1
53.551,53.832,0.281,57,86,gtr,24,1
71.248,73.105,1.857,54,82,gtr,24,1
71.248,73.946,2.698,40,80,gtr,24,1
73.353,74.238,0.885,56,84,gtr,24,1
74.279,75.261,0.982,54,84,gtr,24,1
75.21,76.015,0.805,56,84,gtr,24,1
76.074,76.942,0.868,54,84,gtr,24,1
74.279,77.074,2.795,40,80,gtr,24,1
76.907,77.696,0.789,56,89,gtr,24,1
77.981,79.757,1.776,54,79,gtr,24,1
77.981,79.757,1.776,60,77,gtr,24,1
77.981,79.757,1.776,64,91,gtr,24,1
77.981,79.757,1.776,45,86,gtr,24,1
86.789,88.122,1.334,56,79,gtr,24,1
86.789,88.122,1.334,64,98,gtr,24,1
86.789,88.122,1.334,47,53,gtr,24,1
86.789,88.122,1.334,62,75,gtr,24,1
93.491,94.823,1.333,54,79,gtr,24,1
93.491,94.823,1.333,60,77,gtr,24,1
93.491,94.823,1.333,64,91,gtr,24,1
93.491,94.823,1.333,45,86,gtr,24,1
95.84,97.173,1.333,62,75,gtr,24,1
95.84,97.173,1.333,47,53,gtr,24,1
95.84,97.173,1.333,56,79,gtr,24,1
95.84,97.173,1.333,64,98,gtr,24,1
104.376,105.709,1.334,60,77,gtr,24,1
104.376,105.709,1.334,64,91,gtr,24,1
104.376,105.709,1.334,45,86,gtr,24,1
104.376,105.709,1.334,54,79,gtr,24,1
106.17,107.631,1.461,47,53,gtr,24,1
106.17,107.631,1.461,64,98,gtr,24,1
106.17,107.631,1.461,56,79,gtr,24,1
106.17,107.631,1.461,62,75,gtr,24,1
108.237,110.493,2.256,54,79,gtr,24,1
108.237,110.493,2.256,60,77,gtr,24,1
108.237,110.493,2.256,64,91,gtr,24,1
108.237,110.493,2.256,45,86,gtr,24,1
111.783,114.378,2.595,62,75,gtr,24,1
111.783,114.378,2.595,47,53,gtr,24,1
111.783,114.378,2.595,56,79,gtr,24,1
111.783,114.378,2.595,64,98,gtr,24,1
114.882,118.391,3.509,54,79,gtr,24,1
114.882,118.391,3.509,45,86,gtr,24,1
114.882,118.391,3.509,60,77,gtr,24,1
114.882,118.391,3.509,64,91,gtr,24,1
118.726,123.216,4.49,62,75,gtr,24,1
118.726,123.216,4.49,64,98,gtr,24,1
118.726,123.216,4.49,47,53,gtr,24,1
118.726,123.216,4.49,56,79,gtr,24,1
123.549,124.883,1.334,64,91,gtr,24,1
123.549,124.883,1.334,45,86,gtr,24,1
123.549,124.883,1.334,54,79,gtr,24,1
123.549,124.883,1.334,60,77,gtr,24,1
129.866,131.199,1.333,47,53,gtr,24,1
129.866,131.199,1.333,62,75,gtr,24,1
129.866,131.199,1.333,56,79,gtr,24,1
129.866,131.199,1.333,64,98,gtr,24,1
131.533,132.866,1.333,60,77,gtr,24,1
131.533,132.866,1.333,45,86,gtr,24,1
131.533,132.866,1.333,64,91,gtr,24,1
131.533,132.866,1.333,54,79,gtr,24,1
156.666,157.333,0.667,62,82,gtr,24,1
156.666,157.333,0.667,47,86,gtr,24,1
156.666,157.333,0.667,56,77,gtr,24,1
156.666,157.333,0.667,64,86,gtr,24,1
202.367,202.717,0.35,67,95,gtr,24,1
202.367,202.717,0.35,58,89,gtr,24,1
203.4,203.805,0.405,59,98,gtr,24,1
203.4,203.805,0.405,68,98,gtr,24,1
203.861,204.916,1.055,60,78,gtr,24,1
203.861,204.916,1.055,69,86,gtr,24,1
205.351,206.346,0.996,70,93,gtr,24,1
209.93,221.007,11.077,61,74,gtr,24,1
209.93,221.007,11.077,71,77,gtr,24,1
221.588,223.133,1.545,50,80,gtr,24,1
221.588,223.799,2.212,65,80,gtr,24,1
221.588,223.799,2.212,60,80,gtr,24,1
223.3,223.966,0.666,52,80,gtr,24,1
224.133,224.8,0.667,64,80,gtr,24,1
224.133,224.8,0.667,53,80,gtr,24,1
224.966,225.633,0.667,63,80,gtr,24,1
224.966,225.633,0.667,54,80,gtr,24,1
226.216,226.55,0.334,59,80,gtr,24,1
226.633,226.966,0.333,64,80,gtr,24,1
225.8,227.133,1.333,44,80,gtr,24,1
225.8,227.133,1.333,52,80,gtr,24,1
227.05,227.383,0.333,63,80,gtr,24,1
227.466,227.8,0.334,62,80,gtr,24,1
227.883,228.216,0.333,59,80,gtr,24,1
228.3,228.633,0.333,66,80,gtr,24,1
227.466,228.8,1.334,47,80,gtr,24,1
227.466,228.8,1.334,51,80,gtr,24,1
227.466,228.8,1.334,57,80,gtr,24,1
228.716,229.05,0.334,65,80,gtr,24,1
229.133,229.466,0.333,52,80,gtr,24,1
229.55,229.883,0.333,40,80,gtr,24,1
229.966,230.3,0.334,49,80,gtr,24,1
229.133,230.858,1.725,64,80,gtr,24,1
229.133,230.858,1.725,56,80,gtr,24,1
229.133,230.858,1.725,59,80,gtr,24,1
230.383,231.185,0.802,48,80,gtr,24,1
231.739,232.071,0.333,47,80,gtr,24,1
231.739,232.071,0.333,61,80,gtr,24,1
231.739,232.071,0.333,55,80,gtr,24,1
231.739,232.071,0.333,64,80,gtr,24,1
245.126,246.936,1.81,46,80,gtr,24,1
245.126,246.936,1.81,56,80,gtr,24,1
245.126,246.936,1.81,62,80,gtr,24,1
248.85,250.44,1.59,60,77,gtr,24,1
248.85,250.44,1.59,45,86,gtr,24,1
248.85,250.44,1.59,64,91,gtr,24,1
248.85,250.44,1.59,54,79,gtr,24,1
250.773,252.106,1.333,62,75,gtr,24,1
250.773,252.106,1.333,64,98,gtr,24,1
250.773,252.106,1.333,47,53,gtr,24,1
250.773,252.106,1.333,56,79,gtr,24,1
252.483,253.816,1.333,64,91,gtr,24,1
252.483,253.816,1.333,45,86,gtr,24,1
252.483,253.816,1.333,60,77,gtr,24,1
252.483,253.816,1.333,54,79,gtr,24,1
254.149,258.427,4.278,56,79,gtr,24,1
254.149,258.427,4.278,62,75,gtr,24,1
254.149,258.427,4.278,64,98,gtr,24,1
254.149,258.427,4.278,47,53,gtr,24,1
258.76,260.093,1.333,60,77,gtr,24,1
258.76,260.093,1.333,64,91,gtr,24,1
258.76,260.093,1.333,45,86,gtr,24,1
258.76,260.093,1.333,54,79,gtr,24,1
261.067,262.442,1.376,56,79,gtr,24,1
261.067,262.442,1.376,64,98,gtr,24,1
261.067,262.442,1.376,47,53,gtr,24,1
261.067,262.442,1.376,62,75,gtr,24,1
262.776,263.276,0.5,60,80,gtr,24,1
263.401,263.567,0.167,62,80,gtr,24,1
263.609,263.831,0.222,64,80,gtr,24,1
263.886,264.365,0.479,66,80,gtr,24,1
262.776,264.365,1.59,45,80,gtr,24,1
262.776,264.365,1.59,52,80,gtr,24,1
264.42,265.365,0.945,68,80,gtr,24,1
264.698,267.354,2.655,50,80,gtr,24,1
264.698,267.354,2.655,54,80,gtr,24,1
264.698,267.354,2.655,60,80,gtr,24,1
265.821,267.99,2.169,69,80,gtr,24,1
270.888,271.888,1.0,52,80,gtr,24,1
270.888,271.888,1.0,43,80,gtr,24,1
270.888,272.306,1.418,60,80,gtr,24,1
272.223,272.556,0.333,52,80,gtr,24,1
272.64,273.306,0.667,60,80,gtr,24,1
272.64,273.306,0.667,48,80,gtr,24,1
272.64,273.306,0.667,64,80,gtr,24,1
273.473,274.456,0.983,45,80,gtr,24,1
273.473,274.456,0.983,64,80,gtr,24,1
273.473,274.456,0.983,69,80,gtr,24,1
274.648,275.981,1.333,66,80,gtr,24,1
274.648,275.981,1.333,69,80,gtr,24,1
274.648,275.981,1.333,50,80,gtr,24,1
274.648,275.981,1.333,57,80,gtr,24,1
276.315,279.012,2.698,50,80,gtr,24,1
276.315,279.012,2.698,60,80,gtr,24,1
276.315,279.012,2.698,65,80,gtr,24,1
276.315,279.012,2.698,69,80,gtr,24,1
276.315,279.012,2.698,43,80,gtr,24,1
279.346,280.012,0.667,52,80,gtr,24,1
279.346,280.012,0.667,64,80,gtr,24,1
279.346,280.012,0.667,45,80,gtr,24,1
279.346,280.012,0.667,69,80,gtr,24,1
279.346,280.012,0.667,60,80,gtr,24,1
280.18,280.513,0.333,67,80,gtr,24,1
280.596,280.93,0.334,66,80,gtr,24,1
281.013,281.346,0.333,67,80,gtr,24,1
281.43,281.763,0.333,69,80,gtr,24,1
281.846,282.512,0.667,66,80,gtr,24,1
282.68,283.346,0.666,45,80,gtr,24,1
282.68,283.346,0.666,64,80,gtr,24,1
282.68,283.346,0.666,60,80,gtr,24,1
282.68,283.346,0.666,52,80,gtr,24,1
283.513,283.846,0.333,50,80,gtr,24,1
283.93,284.263,0.333,48,80,gtr,24,1
284.346,284.68,0.334,50,80,gtr,24,1
284.763,285.096,0.333,52,80,gtr,24,1
284.346,285.68,1.334,56,80,gtr,24,1
285.18,285.846,0.666,48,80,gtr,24,1
286.013,287.346,1.333,64,91,gtr,24,1
286.013,287.346,1.333,45,86,gtr,24,1
286.013,287.346,1.333,54,79,gtr,24,1
286.013,287.346,1.333,60,77,gtr,24,1
289.899,291.232,1.333,56,79,gtr,24,1
289.899,291.232,1.333,64,98,gtr,24,1
289.899,291.232,1.333,47,53,gtr,24,1
289.899,291.232,1.333,62,75,gtr,24,1
291.864,293.197,1.334,64,91,gtr,24,1
291.864,293.197,1.334,45,86,gtr,24,1
291.864,293.197,1.334,60,77,gtr,24,1
291.864,293.197,1.334,54,79,gtr,24,1
293.573,294.906,1.333,47,53,gtr,24,1
293.573,294.906,1.333,56,79,gtr,24,1
293.573,294.906,1.333,62,75,gtr,24,1
293.573,294.906,1.333,64,98,gtr,24,1
295.24,296.701,1.461,64,91,gtr,24,1
295.24,296.701,1.461,45,86,gtr,24,1
295.24,296.701,1.461,54,79,gtr,24,1
295.24,296.701,1.461,60,77,gtr,24,1
297.034,298.368,1.334,62,75,gtr,24,1
297.034,298.368,1.334,47,53,gtr,24,1
297.034,298.368,1.334,56,79,gtr,24,1
297.034,298.368,1.334,64,98,gtr,24,1
298.701,300.29,1.589,64,91,gtr,24,1
298.701,300.29,1.589,54,79,gtr,24,1
298.701,300.29,1.589,60,77,gtr,24,1
298.701,300.29,1.589,45,86,gtr,24,1
300.624,301.999,1.376,62,75,gtr,24,1
300.624,301.999,1.376,47,53,gtr,24,1
300.624,301.999,1.376,56,79,gtr,24,1
300.624,301.999,1.376,64,98,gtr,24,1
302.333,303.667,1.334,45,86,gtr,24,1
302.333,303.667,1.334,54,79,gtr,24,1
302.333,303.667,1.334,60,77,gtr,24,1
302.333,303.667,1.334,64,91,gtr,24,1
304.0,305.333,1.333,47,53,gtr,24,1
304.0,305.333,1.333,62,75,gtr,24,1
304.0,305.333,1.333,56,79,gtr,24,1
304.0,305.333,1.333,64,98,gtr,24,1
305.667,306.999,1.333,60,77,gtr,24,1
305.667,306.999,1.333,54,79,gtr,24,1
305.667,306.999,1.333,64,91,gtr,24,1
305.667,306.999,1.333,45,86,gtr,24,1
307.333,307.999,0.667,62,82,gtr,24,1
307.333,307.999,0.667,47,86,gtr,24,1
307.333,307.999,0.667,56,77,gtr,24,1
307.333,307.999,0.667,64,86,gtr,24,1
308.167,308.832,0.666,60,84,gtr,24,1
308.167,308.832,0.666,64,79,gtr,24,1
308.167,308.832,0.666,54,82,gtr,24,1
308.167,308.832,0.666,45,84,gtr,24,1
309.0,309.333,0.333,65,80,gtr,24,1
309.0,309.667,0.667,57,80,gtr,24,1
309.417,309.749,0.333,66,80,gtr,24,1
309.833,310.226,0.393,58,89,gtr,24,1
309.833,310.226,0.393,67,95,gtr,24,1
309.0,310.333,1.333,50,80,gtr,24,1
310.25,310.642,0.392,68,98,gtr,24,1
310.25,310.642,0.392,59,98,gtr,24,1
310.667,311.11,0.444,60,80,gtr,24,1
310.667,311.11,0.444,53,80,gtr,24,1
310.667,311.11,0.444,69,80,gtr,24,1
311.222,311.667,0.445,70,80,gtr,24,1
311.222,311.667,0.445,55,80,gtr,24,1
311.778,312.221,0.444,56,80,gtr,24,1
311.778,312.221,0.444,71,80,gtr,24,1
312.333,312.999,0.667,50,80,gtr,24,1
312.333,313.667,1.334,60,80,gtr,24,1
312.333,313.667,1.334,65,80,gtr,24,1
313.167,313.832,0.666,52,80,gtr,24,1
314.0,314.667,0.667,64,80,gtr,24,1
314.0,314.667,0.667,53,80,gtr,24,1
314.833,315.499,0.667,63,80,gtr,24,1
314.833,315.499,0.667,54,80,gtr,24,1
316.296,316.63,0.334,59,80,gtr,24,1
316.713,317.729,1.016,64,80,gtr,24,1
315.88,317.896,2.016,52,80,gtr,24,1
315.88,317.896,2.016,44,80,gtr,24,1
317.812,318.145,0.333,63,80,gtr,24,1
318.229,319.501,1.272,62,80,gtr,24,1
319.584,320.003,0.418,59,80,gtr,24,1
320.087,321.316,1.229,66,80,gtr,24,1
318.229,321.482,3.254,51,80,gtr,24,1
318.229,321.482,3.254,57,80,gtr,24,1
318.229,321.482,3.254,47,80,gtr,24,1
321.399,321.733,0.334,65,80,gtr,24,1
321.816,322.148,0.333,52,80,gtr,24,1
322.233,322.566,0.333,40,80,gtr,24,1
322.649,323.111,0.462,49,80,gtr,24,1
321.816,323.404,1.589,56,80,gtr,24,1
321.816,323.404,1.589,64,80,gtr,24,1
321.816,323.404,1.589,59,80,gtr,24,1
323.212,323.655,0.443,48,80,gtr,24,1
323.739,324.071,0.333,61,80,gtr,24,1
323.739,324.071,0.333,55,80,gtr,24,1
323.739,324.071,0.333,64,80,gtr,24,1
323.739,324.071,0.333,47,80,gtr,24,1
324.283,325.283,1.0,46,80,gtr,24,1
324.283,325.283,1.0,56,80,gtr,24,1
324.283,325.283,1.0,62,80,gtr,24,1
325.533,326.867,1.334,45,86,gtr,24,1
325.533,326.867,1.334,54,79,gtr,24,1
325.533,326.867,1.334,64,91,gtr,24,1
325.533,326.867,1.334,60,77,gtr,24,1
327.2,328.533,1.333,62,75,gtr,24,1
327.2,328.533,1.333,64,98,gtr,24,1
327.2,328.533,1.333,47,53,gtr,24,1
327.2,328.533,1.333,56,79,gtr,24,1
328.867,330.199,1.333,45,86,gtr,24,1
328.867,330.199,1.333,64,91,gtr,24,1
328.867,330.199,1.333,54,79,gtr,24,1
328.867,330.199,1.333,60,77,gtr,24,1
330.533,331.867,1.334,56,79,gtr,24,1
330.533,331.867,1.334,64,98,gtr,24,1
330.533,331.867,1.334,47,53,gtr,24,1
330.533,331.867,1.334,62,75,gtr,24,1
332.2,333.533,1.333,64,91,gtr,24,1
332.2,333.533,1.333,45,86,gtr,24,1
332.2,333.533,1.333,54,79,gtr,24,1
332.2,333.533,1.333,60,77,gtr,24,1
333.867,335.199,1.333,56,79,gtr,24,1
333.867,335.199,1.333,64,98,gtr,24,1
333.867,335.199,1.333,47,53,gtr,24,1
333.867,335.199,1.333,62,75,gtr,24,1
335.533,336.033,0.5,60,80,gtr,24,1
336.158,336.324,0.167,62,80,gtr,24,1
336.367,336.589,0.222,64,80,gtr,24,1
336.644,336.867,0.223,66,80,gtr,24,1
335.533,336.867,1.334,45,80,gtr,24,1
335.533,336.867,1.334,52,80,gtr,24,1
336.922,337.867,0.945,68,80,gtr,24,1
337.2,338.533,1.333,50,80,gtr,24,1
337.2,338.533,1.333,54,80,gtr,24,1
337.2,338.533,1.333,60,80,gtr,24,1
338.033,338.699,0.667,69,80,gtr,24,1
338.867,339.867,1.0,43,80,gtr,24,1
338.867,339.867,1.0,52,80,gtr,24,1
338.867,340.199,1.333,60,80,gtr,24,1
340.117,340.449,0.333,52,80,gtr,24,1
340.533,341.199,0.667,48,80,gtr,24,1
340.533,341.199,0.667,64,80,gtr,24,1
340.533,341.199,0.667,60,80,gtr,24,1
341.367,342.032,0.666,69,80,gtr,24,1
341.367,342.032,0.666,45,80,gtr,24,1
341.367,342.032,0.666,64,80,gtr,24,1
342.2,344.002,1.802,50,80,gtr,24,1
342.2,344.002,1.802,69,80,gtr,24,1
342.2,344.002,1.802,57,80,gtr,24,1
342.2,344.002,1.802,66,80,gtr,24,1
344.72,346.053,1.333,43,80,gtr,24,1
344.72,346.053,1.333,69,80,gtr,24,1
344.72,346.053,1.333,65,80,gtr,24,1
344.72,346.053,1.333,60,80,gtr,24,1
344.72,346.053,1.333,50,80,gtr,24,1
346.386,347.053,0.667,45,80,gtr,24,1
346.386,347.053,0.667,52,80,gtr,24,1
347.22,347.806,0.586,50,80,gtr,24,1
347.845,348.043,0.198,48,80,gtr,24,1
348.053,348.64,0.587,50,80,gtr,24,1
348.678,348.876,0.198,52,80,gtr,24,1
346.386,349.511,3.125,64,80,gtr,24,1
346.386,349.511,3.125,60,80,gtr,24,1
346.386,349.511,3.125,57,80,gtr,24,1
348.886,349.553,0.667,48,80,gtr,24,1
349.72,351.053,1.333,50,75,gtr,24,1
349.72,351.053,1.333,62,82,gtr,24,1
349.72,351.053,1.333,57,82,gtr,24,1
349.72,351.053,1.333,66,82,gtr,24,1
351.386,352.72,1.334,65,89,gtr,24,1
351.386,352.72,1.334,60,91,gtr,24,1
351.386,352.72,1.334,57,95,gtr,24,1
351.386,352.72,1.334,43,93,gtr,24,1
351.386,352.72,1.334,50,93,gtr,24,1
353.053,354.386,1.333,60,66,gtr,24,1
353.053,354.386,1.333,64,82,gtr,24,1
353.053,354.386,1.333,55,78,gtr,24,1
353.053,354.386,1.333,48,66,gtr,24,1
354.72,356.053,1.333,41,102,gtr,24,1
354.72,356.053,1.333,63,71,gtr,24,1
354.72,356.053,1.333,48,76,gtr,24,1
354.72,356.053,1.333,57,84,gtr,24,1
356.386,358.189,1.803,58,91,gtr,24,1
356.386,358.189,1.803,46,98,gtr,24,1
356.386,358.189,1.803,62,73,gtr,24,1
356.386,358.189,1.803,53,91,gtr,24,1
359.13,363.439,4.309,50,89,gtr,24,1
359.13,363.439,4.309,40,91,gtr,24,1
359.13,363.439,4.309,61,73,gtr,24,1
359.13,363.439,4.309,56,102,gtr,24,1
363.773,364.439,0.666,45,80,gtr,24,1
363.773,364.439,0.666,52,80,gtr,24,1
364.606,365.193,0.587,50,80,gtr,24,1
365.231,365.429,0.198,48,80,gtr,24,1
365.44,366.027,0.587,50,80,gtr,24,1
366.065,366.262,0.198,52,80,gtr,24,1
363.773,366.898,3.125,57,80,gtr,24,1
363.773,366.898,3.125,64,80,gtr,24,1
363.773,366.898,3.125,60,80,gtr,24,1
366.273,366.939,0.666,47,80,gtr,24,1
367.106,367.773,0.667,45,98,gtr,24,1
367.94,368.606,0.667,54,91,gtr,24,1
368.773,369.439,0.666,52,100,gtr,24,1
367.106,370.231,3.125,57,80,gtr,24,1
367.106,370.231,3.125,64,80,gtr,24,1
367.106,370.231,3.125,60,80,gtr,24,1
369.606,370.273,0.667,56,105,gtr,24,1
370.482,371.816,1.334,57,109,gtr,24,1
372.234,373.567,1.333,64,84,gtr,24,1
372.234,373.567,1.333,69,86,gtr,24,1
372.234,373.567,1.333,45,75,gtr,24,1
372.234,373.567,1.333,54,79,gtr,24,1
372.234,373.567,1.333,60,71,gtr,24,1
0.0,0.5,0.5,69,0,shadow,0,15
